<svg xmlns="http://www.w3.org/2000/svg" viewBox="0 0 154.784 160.444"><defs><style>.cls-2{fill:#dfe8e6}.cls-3{fill:#fff}.cls-4{fill:#9ad4fa}.cls-7{fill:#67b2e3}</style></defs><g id="Group_69" data-name="Group 69" transform="translate(-1442 -226.009)"><path id="XMLID_66_" d="M115.11 112.507l-23.27 13.247a21.635 21.635 0 0 1-29.458-8.018L42.338 82.614a24.073 24.073 0 0 1 8.977-32.769l19-10.807a24.073 24.073 0 0 1 32.769 8.977l20.045 35.122a21.554 21.554 0 0 1-8.019 29.37z" transform="translate(1437.009 229.339)" fill="#a5a5a5"/><path id="XMLID_63_" class="cls-2" d="M52.2 157.618l34.948 4.706 1.83-13.857-21.091-2.789a13.872 13.872 0 0 0-15.687 11.94z" transform="translate(1435.339 215.254)"/><path id="XMLID_58_" class="cls-2" d="M75.068 103.2L70.1 140.153l21.265 2.876 2.615-19.348a12.194 12.194 0 0 1 7.321-9.674c-2-2.7-4.1-5.4-6.362-8.018z" transform="translate(1433.039 220.692)"/><path id="XMLID_57_" class="cls-3" d="M106.892 84.8l-7.931 18.738H98.7c2.266 2.615 4.27 5.316 6.362 8.018a12.454 12.454 0 0 1 9.848-.087l18.041 7.669 8.367-19.7z" transform="translate(1429.365 223.056)"/><path id="XMLID_56_" class="cls-3" d="M164.469 93.033L150.7 125.541l-12.9-5.491 8.28-19.609a14.012 14.012 0 0 1 18.389-7.408z" transform="translate(1424.342 222.144)"/><path id="XMLID_55_" class="cls-4" transform="scale(-1) rotate(-67 -1038.39 1046.495)" d="M0 0h35.297v8.628H0z"/><g id="XMLID_52_" transform="translate(1511.935 234.031)"><path id="XMLID_53_" class="cls-3" d="M114.624 51.868l-21.44 12.2a8.686 8.686 0 0 1-8.628-15.077L106 36.79a3.446 3.446 0 0 0 1.307-4.706l-10.807-19a8.686 8.686 0 1 1 15.077-8.628l10.807 18.912a20.857 20.857 0 0 1-7.76 28.5z" transform="translate(-80.192 -.092)"/></g><g id="XMLID_49_" transform="translate(1442 282.45)"><path id="XMLID_50_" class="cls-2" d="M40.432 95.435l21.44-12.2a8.686 8.686 0 0 0-8.628-15.077L31.8 80.357a3.426 3.426 0 0 1-4.7-1.307l-10.807-19a8.708 8.708 0 0 0-11.94-3.225 8.608 8.608 0 0 0-3.227 11.854l10.807 18.912a20.94 20.94 0 0 0 28.499 7.844z" transform="translate(.052 -55.648)"/></g><path id="XMLID_46_" class="cls-3" d="M80.183 19.767l-.959-3.225L76 15.583l3.225-.959.959-3.225.959 3.225 3.225.959-3.225.959z" transform="translate(1432.281 232.486)"/><path id="XMLID_43_" class="cls-3" d="M117.058 87.274L69.821 114.2 53.7 85.967a15.676 15.676 0 0 1 5.839-21.352L79.582 53.2a15.676 15.676 0 0 1 21.352 5.839z" transform="translate(1435.41 227.38)"/><path id="XMLID_40_" class="cls-2" d="M82.471 115.869l-20.219-34.6A15.73 15.73 0 0 1 63.384 64.1l-3.748 2.179A15.677 15.677 0 0 0 53.8 87.631l16.123 28.237h12.55z" transform="translate(1435.397 225.716)"/><path id="XMLID_39_" class="cls-4" d="M86.024 57.175l-24.49 13.944a6.681 6.681 0 0 1-9.064-2.44 6.681 6.681 0 0 1 2.44-9.064L79.4 45.671a6.681 6.681 0 0 1 9.064 2.44 6.6 6.6 0 0 1-2.44 9.064z" transform="translate(1435.417 228.196)"/><ellipse id="XMLID_36_" class="cls-3" cx="31.026" cy="28.15" rx="31.026" ry="28.15" transform="rotate(-29.695 1210.713 -2611.963)"/><path id="XMLID_33_" class="cls-2" d="M85.165 30.7a32.046 32.046 0 0 1-16.3 24.228c-14.9 8.454-33.205 4.445-40.962-9.151a25.79 25.79 0 0 1-3.225-10.284 26.529 26.529 0 0 0 3.225 15.6C35.662 64.6 53.964 68.7 68.867 60.245 80.2 53.883 86.3 41.943 85.165 30.7z" transform="translate(1438.891 230.007)"/><path id="XMLID_30_" d="M72.443 18.754l4.619 8.105a12.826 12.826 0 0 1-4.793 17.43L57.1 52.918a12.826 12.826 0 0 1-17.43-4.793l-4.619-8.105a12.826 12.826 0 0 1 4.793-17.43l15.169-8.63a12.9 12.9 0 0 1 17.43 4.794z" transform="translate(1437.755 232.366)" fill="#2996dd"/><path id="XMLID_29_" d="M72.443 18.754l2.528 4.446A87.021 87.021 0 0 1 57.54 36.1a86.537 86.537 0 0 1-19.958 8.367l-2.527-4.445a12.826 12.826 0 0 1 4.793-17.43l15.165-8.632a12.9 12.9 0 0 1 17.43 4.794z" transform="translate(1437.755 232.366)" fill="#57b3ef"/><path id="XMLID_26_" class="cls-7" d="M32.888 62.592a4.375 4.375 0 0 1-5.839-1.569l-5.229-9.064a4.375 4.375 0 0 1 1.569-5.839 4.375 4.375 0 0 1 5.839 1.569l5.229 9.064a4.254 4.254 0 0 1-1.569 5.839z" transform="translate(1439.312 228.096)"/><path id="XMLID_23_" class="cls-4" d="M94.788 27.292a4.375 4.375 0 0 1-5.839-1.569l-5.229-9.064a4.375 4.375 0 0 1 1.569-5.839 4.375 4.375 0 0 1 5.839 1.569l5.229 9.064a4.331 4.331 0 0 1-1.569 5.839z" transform="translate(1431.359 232.631)"/><path id="XMLID_22_" d="M47.8 66.1l1.22-.7z" transform="translate(1435.904 225.549)" fill="#adcede"/><path id="XMLID_20_" transform="rotate(-29.695 1330.54 -2673.697)" fill="#87b8e8" d="M0 0h33.118v18.215H0z"/><path id="XMLID_19_" class="cls-3" d="M102.326 80.391a2.811 2.811 0 1 1-3.835-1.046 2.826 2.826 0 0 1 3.835 1.046z" transform="translate(1429.573 223.804)"/><path id="XMLID_18_" class="cls-3" d="M96.781 73.812a1.151 1.151 0 1 1-1.569-.436 1.162 1.162 0 0 1 1.569.436z" transform="translate(1429.889 224.544)"/><path id="XMLID_17_" class="cls-3" transform="rotate(-29.695 1335.114 -2684.782)" d="M0 0h13.596v1.482H0z"/><path id="XMLID_16_" class="cls-3" transform="rotate(-29.695 1343.797 -2687.197)" d="M0 0h13.596v1.482H0z"/><path id="XMLID_15_" class="cls-3" transform="rotate(-29.695 1352.522 -2689.446)" d="M0 0h13.596v1.482H0z"/><path id="XMLID_12_" class="cls-7" d="M22.038 74.457L9.575 81.516a2.905 2.905 0 0 1-4.009-1.133l-.523-.872A2.905 2.905 0 0 1 6.176 75.5l12.463-7.059a2.905 2.905 0 0 1 4.009 1.133l.523.872a3 3 0 0 1-1.133 4.011z" transform="translate(1441.447 225.207)"/><path id="XMLID_9_" class="cls-4" d="M120.638 18.157l-12.463 7.059a2.905 2.905 0 0 1-4.009-1.133l-.523-.872a2.905 2.905 0 0 1 1.133-4.009l12.463-7.059a2.905 2.905 0 0 1 4.009 1.133l.523.872a2.981 2.981 0 0 1-1.133 4.009z" transform="translate(1428.779 232.44)"/><path id="XMLID_3_" class="cls-4" d="M118.7 112.414l10.981-20.655a2.572 2.572 0 0 0-1.046-3.4 2.572 2.572 0 0 0-3.4 1.046l-10.975 20.656a2.572 2.572 0 0 0 1.046 3.4 2.472 2.472 0 0 0 3.394-1.047z" transform="translate(1427.401 222.634)"/><path id="Path_130" data-name="Path 130" class="cls-2" d="M4143.794 428.447l-4.23 30.784 21.513 2.919 4.087-31.87z" transform="translate(-2638.464 -84.64)"/><path id="XMLID_6_" class="cls-7" d="M94.409 127.2l-23.357-1.133a2.458 2.458 0 0 1-2.353-2.615 2.458 2.458 0 0 1 2.615-2.353l23.357 1.133a2.458 2.458 0 0 1 2.353 2.615 2.409 2.409 0 0 1-2.615 2.353z" transform="translate(1433.22 218.393)"/><path id="XMLID_62_" class="cls-7" d="M.03.287L35.388 0l-.03 8.978L0 9.267z" transform="rotate(7.7 -2035.11 11322.376)"/></g></svg>