<svg xmlns="http://www.w3.org/2000/svg" viewBox="0 0 789.937 448.365"><defs><style>.cls-1{fill:#739be5}</style></defs><g id="Group_431" data-name="Group 431" transform="translate(-1145 -623)"><path id="Path_410" data-name="Path 410" class="cls-1" d="M18.9 0a24.482 24.482 0 0 1 .444 4A19.606 19.606 0 0 1 .011 23.551v9.776h.111A19.6 19.6 0 0 1 19.785 52.88 19.772 19.772 0 0 1 .122 72.543H.011v9.443a19.612 19.612 0 0 1 12.442 4.777 19.464 19.464 0 0 1 7.221 15.22A19.6 19.6 0 0 1 .011 121.534H-.1v9.443h.111a19.6 19.6 0 0 1 19.663 19.552 19.632 19.632 0 0 1-7.221 15.22 19.612 19.612 0 0 1-12.442 4.776v9.443h.111a19.6 19.6 0 0 1 19.663 19.552v.444A19.6 19.6 0 0 1 .122 219.517H.011v9.443a19.68 19.68 0 0 1 19.33 19.552v.444a19.606 19.606 0 0 1-19.33 19.552v9.443h.111A19.6 19.6 0 0 1 19.785 297.5v.444A19.6 19.6 0 0 1 .122 317.5H.011v9.443a19.612 19.612 0 0 1 12.442 4.777 19.464 19.464 0 0 1 7.221 15.22A19.6 19.6 0 0 1 .011 366.491H-.1v9.443h.111a19.552 19.552 0 1 1 0 39.1H-.1v9.776h.111a19.6 19.6 0 0 1 19.663 19.552 15.774 15.774 0 0 1-.444 4h345.605V0z" transform="translate(1145.1 623)"/><path id="Path_411" data-name="Path 411" class="cls-1" d="M18.9 0a24.482 24.482 0 0 1 .444 4A19.606 19.606 0 0 1 .011 23.551v9.776h.111A19.6 19.6 0 0 1 19.785 52.88 19.772 19.772 0 0 1 .122 72.543H.011v9.443a19.612 19.612 0 0 1 12.442 4.777 19.464 19.464 0 0 1 7.221 15.22A19.6 19.6 0 0 1 .011 121.534H-.1v9.443h.111a19.6 19.6 0 0 1 19.663 19.552 19.632 19.632 0 0 1-7.221 15.22 19.612 19.612 0 0 1-12.442 4.776v9.443h.111a19.6 19.6 0 0 1 19.663 19.552v.444A19.6 19.6 0 0 1 .122 219.517H.011v9.443a19.68 19.68 0 0 1 19.33 19.552v.444a19.606 19.606 0 0 1-19.33 19.552v9.443h.111A19.6 19.6 0 0 1 19.785 297.5v.444A19.6 19.6 0 0 1 .122 317.5H.011v9.443a19.612 19.612 0 0 1 12.442 4.777 19.464 19.464 0 0 1 7.221 15.22A19.6 19.6 0 0 1 .011 366.491H-.1v9.443h.111a19.552 19.552 0 1 1 0 39.1H-.1v9.776h.111a19.6 19.6 0 0 1 19.663 19.552 15.774 15.774 0 0 1-.444 4h345.605V0z" transform="rotate(180 967.418 535.683)"/><path id="Path_412" data-name="Path 412" class="cls-1" d="M18.9 0a24.482 24.482 0 0 1 .444 4A19.606 19.606 0 0 1 .011 23.551v9.776h.111A19.6 19.6 0 0 1 19.785 52.88 19.772 19.772 0 0 1 .122 72.543H.011v9.443a19.612 19.612 0 0 1 12.442 4.777 19.464 19.464 0 0 1 7.221 15.22A19.6 19.6 0 0 1 .011 121.534H-.1v9.443h.111a19.6 19.6 0 0 1 19.663 19.552 19.632 19.632 0 0 1-7.221 15.22 19.612 19.612 0 0 1-12.442 4.776v9.443h.111a19.6 19.6 0 0 1 19.663 19.552v.444A19.6 19.6 0 0 1 .122 219.517H.011v9.443a19.68 19.68 0 0 1 19.33 19.552v.444a19.606 19.606 0 0 1-19.33 19.552v9.443h.111A19.6 19.6 0 0 1 19.785 297.5v.444A19.6 19.6 0 0 1 .122 317.5H.011v9.443a19.612 19.612 0 0 1 12.442 4.777 19.464 19.464 0 0 1 7.221 15.22A19.6 19.6 0 0 1 .011 366.491H-.1v9.443h.111a19.552 19.552 0 1 1 0 39.1H-.1v9.776h.111a19.6 19.6 0 0 1 19.663 19.552 15.774 15.774 0 0 1-.444 4h345.605V0z" transform="rotate(180 865.418 535.683)"/></g></svg>