<svg xmlns="http://www.w3.org/2000/svg" viewBox="0 0 248.389 226.155"><defs><style>.cls-1{fill:url(#linear-gradient)}.cls-3{fill:#57b3ef}</style><linearGradient id="linear-gradient" y1=".5" x2="1" y2=".5" gradientUnits="objectBoundingBox"><stop offset="0" stop-color="#001537" stop-opacity="0"/><stop offset="1" stop-color="#d83020"/></linearGradient></defs><g id="Group_169" data-name="Group 169" transform="translate(-2156.909 -102)"><path id="Path_171" data-name="Path 171" class="cls-1" d="M126.169 42.79a9.432 9.432 0 0 0-13.329 0L2.758 152.873a9.432 9.432 0 0 0 0 13.329 9.432 9.432 0 0 0 13.329 0l9.193-9.193a9.432 9.432 0 0 1 13.329 0 9.432 9.432 0 0 0 13.329 0L174.661 34.287a9.432 9.432 0 0 0 0-13.329 9.432 9.432 0 0 0-13.329 0L139.5 42.79c-3.449 3.677-9.424 3.677-13.331 0z" transform="rotate(180 1167.164 151.037)"/><path id="Path_183" data-name="Path 183" class="cls-1" d="M153.883 48.192a11.5 11.5 0 0 0-16.257 0L3.364 182.454a11.5 11.5 0 0 0 0 16.257 11.5 11.5 0 0 0 16.257 0L30.833 187.5a11.5 11.5 0 0 1 16.257 0 11.5 11.5 0 0 0 16.257 0L213.025 37.821a11.5 11.5 0 0 0 0-16.257 11.5 11.5 0 0 0-16.257 0L170.14 48.192c-4.205 4.484-11.492 4.484-16.257 0z" transform="rotate(180 1202.649 152.037)"/><path id="Path_173" data-name="Path 173" d="M87 12.239S62.052 27.094 53.643 48.4c-10.091 26.348 3.644 84.649 44.287 72.877 40.923-11.772 63.347-44.847 70.354-62.786s8.409-29.431-7.007-40.082C145.58 7.754 106.619-5.7 87 12.239z" transform="translate(2106.518 205.331)" fill="#2996dd"/><g id="Group_101" data-name="Group 101" transform="translate(2166.888 219.718)"><path id="Path_174" data-name="Path 174" class="cls-3" d="M94.071 12.225s-27.189-10.932-28.31 0 7.848 26.628 21.022 21.022c12.894-5.606 14.017-15.696 7.288-21.022z" transform="translate(-32.966 -7.367)"/><path id="Path_175" data-name="Path 175" class="cls-3" d="M88.514 27.678c-17.1-7.568-34.476 12.053-24.105 27.749 2.242 3.083 5.045 5.326 8.969 5.606 15.416.841 35.6-8.129 31.113-20.181-1.962-5.045-8.409-10.091-15.977-13.174z" transform="translate(-40.863 26.232)"/><path id="Path_176" data-name="Path 176" class="cls-3" d="M78.9 29.256c-.28 6.727 26.348 8.969 28.59 3.364 1.962-5.606 6.727-18.219-1.4-18.219-7.848-.001-26.348 1.681-27.19 14.855z" transform="translate(-9.108 5.314)"/><path id="Path_177" data-name="Path 177" class="cls-3" d="M66.927 17.288c-8.129.28-10.651 1.682-11.212 7.288s8.969 11.772 11.212 11.492S85.146 29.9 80.942 22.894c-4.485-7.288-8.689-5.886-14.015-5.606z" transform="translate(-50.95 9.994)"/><path id="Path_178" data-name="Path 178" class="cls-3" d="M54 34.707s1.4 16.818 6.167 15.416 9.25-12.613 8.689-17.378c-.841-4.484-14.295-5.886-14.856 1.962z" transform="translate(-54 31.816)"/><path id="Path_179" data-name="Path 179" class="cls-3" d="M92.1 41.148S74.438 33.86 79.483 28.534s15.136-1.682 15.977 1.682c.84 3.084 3.64 8.97-3.36 10.932z" transform="translate(-9.689 25.936)"/><path id="Path_180" data-name="Path 180" class="cls-3" d="M62.436 48.917c.561.841 13.735 3.364 14.015-2.8s-7.288-7.288-8.969-6.167c-1.682.838-7.289 5.603-5.046 8.967z" transform="translate(-39.732 50.682)"/><path id="Path_181" data-name="Path 181" class="cls-3" d="M83.428 19.124c6.167.841 11.212-.28 7.848-6.447S80.625 5.67 80.905 10.716s1.402 8.128 2.523 8.408z" transform="translate(-5.505 -7.259)"/><path id="Path_182" data-name="Path 182" class="cls-3" d="M75.667 31.054c3.924 2.242 9.25 1.962 8.409-3.083S75.386 17.88 72.864 19c-2.523.842-3.083 8.691 2.803 12.054z" transform="translate(-23.251 13.326)"/></g></g></svg>