<?xml version="1.0" encoding="UTF-8"?>
<svg version="1.1" viewBox="0 0 1017 360" xmlns="http://www.w3.org/2000/svg" xmlns:xlink="http://www.w3.org/1999/xlink">
<title>neeeeeew-cases-cn</title>
<desc>Created with Sketch.</desc>
<defs>
<polygon id="b" points="0 360 1015.4 360 1015.4 0 0 0"/>
</defs>
<g fill="none" fill-rule="evenodd">
<polygon points="0 358.67 1014.1 358.67 1014.1 0 0 0"/>
<polygon points="47.891 319.95 52.297 314.88 53.328 316.06 48.918 321.14" fill="#eff0f4"/>
<path d="m46.3 319.96c-1.1225 0-2.0365 1.0534-2.0365 2.3486 0 1.2912 0.91395 2.342 2.0365 2.342 1.1252 0 2.0418-1.0508 2.0418-2.342 0-1.2952-0.91661-2.3486-2.0418-2.3486m0 5.9473c-1.7243 0-3.1271-1.614-3.1271-3.5987 0-1.986 1.4028-3.6027 3.1271-3.6027 1.723 0 3.1271 1.6167 3.1271 3.6027 0 1.9846-1.4041 3.5987-3.1271 3.5987" fill="#eff0f4"/>
<path d="m54.553 311.23c-1.1238 0-2.0378 1.0521-2.0378 2.3446 0 1.2939 0.91395 2.3473 2.0378 2.3473 1.1225 0 2.0365-1.0534 2.0365-2.3473 0-1.2925-0.91395-2.3446-2.0365-2.3446m0 5.9433c-1.7243 0-3.1284-1.614-3.1284-3.5987 0-1.986 1.4041-3.6027 3.1284-3.6027 1.723 0 3.1244 1.6167 3.1244 3.6027 0 1.9846-1.4015 3.5987-3.1244 3.5987" fill="#eff0f4"/>
<path d="m62.566 319.96c-1.1238 0-2.0378 1.0534-2.0378 2.3486 0 1.2912 0.91395 2.342 2.0378 2.342 1.1225 0 2.0365-1.0508 2.0365-2.342 0-1.2952-0.91395-2.3486-2.0365-2.3486m0 5.9473c-1.7256 0-3.1297-1.614-3.1297-3.5987 0-1.986 1.4041-3.6027 3.1297-3.6027 1.723 0 3.1258 1.6167 3.1258 3.6027 0 1.9846-1.4028 3.5987-3.1258 3.5987" fill="#eff0f4"/>
<path d="m70.491 311.23c-1.1238 0-2.0391 1.0521-2.0391 2.3446 0 1.2939 0.91528 2.3473 2.0391 2.3473 1.1225 0 2.0351-1.0534 2.0351-2.3473 0-1.2925-0.91262-2.3446-2.0351-2.3446m0 5.9433c-1.7269 0-3.1311-1.614-3.1311-3.5987 0-1.986 1.4041-3.6027 3.1311-3.6027 1.723 0 3.1244 1.6167 3.1244 3.6027 0 1.9846-1.4015 3.5987-3.1244 3.5987" fill="#eff0f4"/>
<polygon points="63.768 319.97 68.179 314.9 69.207 316.08 64.795 321.16" fill="#eff0f4"/>
<polygon points="55.913 316.06 56.947 314.88 61.354 319.95 60.324 321.14" fill="#eff0f4"/>
<mask id="a" fill="white">
<use xlink:href="#b"/>
</mask>
<polygon points="221.56 309.41 230.04 309.41 230.04 307.61 221.56 307.61" fill="#eff0f4" mask="url(#a)"/>
<polygon points="224.9 312.75 226.7 312.75 226.7 304.27 224.9 304.27" fill="#eff0f4" mask="url(#a)"/>
<polygon points="235.71 332.74 244.2 332.74 244.2 330.94 235.71 330.94" fill="#eff0f4" mask="url(#a)"/>
<polygon points="239.05 336.09 240.86 336.09 240.86 327.61 239.05 327.61" fill="#eff0f4" mask="url(#a)"/>
<polygon points="199.92 321.98 207.34 321.98 207.34 320.4 199.92 320.4" fill="#eff0f4" mask="url(#a)"/>
<polygon points="202.84 324.9 204.42 324.9 204.42 317.48 202.84 317.48" fill="#eff0f4" mask="url(#a)"/>
<polygon points="264.42 310.62 270.78 310.62 270.78 309.26 264.42 309.26" fill="#eff0f4" mask="url(#a)"/>
<polygon points="266.92 313.12 268.28 313.12 268.28 306.76 266.92 306.76" fill="#eff0f4" mask="url(#a)"/>
<path d="m336.52 287.53 5.7985-5.8025-5.7985-5.7985-5.7999 5.7985 5.7999 5.8025zm9.4052-5.8025-9.4052 9.4038-9.4065-9.4038 9.4065-9.4012 9.4052 9.4012z" fill="#eff0f4" mask="url(#a)"/>
<path d="m351.98 305.46 4.1446-4.1473-4.1446-4.1486-4.1553 4.1486 4.1553 4.1473zm6.7178-4.1473-6.7178 6.7204-6.7231-6.7204 6.7231-6.7244 6.7178 6.7244z" fill="#eff0f4" mask="url(#a)"/>
<path d="m331.68 320.59 3.8032-3.8032-3.8032-3.8019-3.8059 3.8019 3.8059 3.8032zm6.1665-3.8032-6.1665 6.1638-6.1665-6.1638 6.1665-6.1652 6.1665 6.1652z" fill="#eff0f4" mask="url(#a)"/>
<polygon points="154.76 298.78 270.23 298.78 270.23 297.41 154.76 297.41" fill="#eff0f4" mask="url(#a)"/>
<path d="m297.72 322.11c-2.6728-0.34937-5.2618-1.1451-7.7061-2.3686l0.97771-1.525c2.1201 1.0428 4.3798 1.7389 6.7284 2.071v1.8226z" fill="#eff0f4" mask="url(#a)"/>
<path d="m284.2 315.65c-2.2663-2.1573-4.1247-4.7929-5.4093-7.6729h1.9913c1.1199 2.2915 2.6037 4.3492 4.417 6.124l-0.99897 1.5489z" fill="#eff0f4" mask="url(#a)"/>
<path d="m280.41 285.23c1.5476-2.4576 3.4951-4.595 5.7932-6.3644l0.87144 1.6127c-2.0165 1.5954-3.7262 3.4844-5.0865 5.6218l-1.5782-0.87011z" fill="#eff0f4" mask="url(#a)"/>
<path d="m301.96 320.48 0.070406-0.001329c0.38524-0.014612 0.76517-0.029225 1.1531-0.066421 12.302-1.2567 21.29-12.29 20.038-24.596-1.177-11.489-10.755-20.155-22.284-20.155-0.78244 0-1.5596 0.038524-2.3141 0.11424-1.2739 0.13417-2.5426 0.37727-3.7793 0.72398l-0.87144-1.6167c1.4905-0.44768 2.9916-0.74922 4.4701-0.89535 0.83159-0.087675 1.6711-0.13151 2.4948-0.13151 12.458 0 22.809 9.3627 24.077 21.778 1.3563 13.288-8.3544 25.209-21.645 26.574-0.46893 0.043838-0.92989 0.063764-1.4094 0.078377v-1.8066z" fill="#eff0f4" mask="url(#a)"/>
<path d="m276.86 301.03c-0.026568-0.15542-0.053136-0.31218-0.067749-0.47292-0.2803-2.7113-0.085018-5.4545 0.57786-8.1644l1.6393 0.89801c-0.5234 2.3632-0.66819 4.7464-0.42642 7.0831 0.021255 0.22317 0.057122 0.4397 0.092989 0.65624h-1.8159z" fill="#eff0f4" mask="url(#a)"/>
<path d="m300.9 289.88c-2.3446 0-4.5472 0.91262-6.201 2.5678-1.6618 1.6645-2.5758 3.883-2.5731 6.2475 0.005314 4.8354 3.968 8.7689 8.8339 8.7702 2.3101-0.005314 4.4914-0.92192 6.1479-2.5864 1.6818-1.6897 2.605-3.9228 2.5997-6.2874-0.011956-4.8022-3.9627-8.7117-8.8074-8.7117m1.3244 20.403c-0.13683 0-0.30554 0-0.4769-0.39321-0.32945-0.76251-0.8741-1.1982-1.4958-1.1982-0.56458 0-1.0959 0.37196-1.4533 1.0242-0.19395 0.34007-0.3507 0.34007-0.43705 0.34007-0.12354 0-0.27631-0.041181-0.43705-0.085019-0.11159-0.029225-0.2245-0.05845-0.33742-0.081033-0.58184-0.11159-0.66022-0.26701-0.60443-0.67351 0.05048-0.36 0.1541-1.1066-0.70804-1.5569-0.35602-0.18199-0.65491-0.26568-0.93919-0.26568-0.35336 0-0.67882 0.12354-1.0269 0.39055-0.13683 0.10229-0.34539 0.19262-0.44635 0.20723-0.49417-0.30952-0.86214-0.63365-1.0893-0.96044 0.011956-0.10096 0.10627-0.31882 0.16472-0.45432 0.051809-0.12088 0.10229-0.23911 0.13948-0.34672 0.17136-0.4676 0.10494-0.98037-0.18598-1.3988-0.29889-0.42908-0.78908-0.68413-1.3098-0.68413-0.041181 0-0.20059 0.009299-0.20059 0.009299-0.13151 0.009299-0.2803 0.021255-0.42376 0.021255-0.29092 0-0.36133-0.049152-0.36133-0.049152-0.30288-0.33874-0.53004-0.84088-0.56856-1.2726 0.022583-0.041181 0.22052-0.22583 0.33874-0.33476 0.11424-0.1076 0.22716-0.21387 0.31882-0.31749 0.35601-0.35734 0.47159-0.85948 0.35469-1.3816-0.11557-0.51675-0.43041-0.91926-0.84354-1.0773-0.97373-0.3786-0.97373-0.3786-0.96974-1.4533v-0.39587c0.11026-0.047823 0.22716-0.089003 0.34672-0.13151 0.56989-0.20458 1.2806-0.45963 1.5556-1.4971 0.29358-1.1066-0.25904-1.6831-0.70007-2.1467-0.071735-0.07572-0.14347-0.15144-0.21255-0.22849 0.017269-0.031882 0.034538-0.063764 0.051808-0.095646 0.11424-0.20856 0.22184-0.40517 0.30155-0.62435 0.20458-0.55395 0.40517-0.631 0.58849-0.631 0.11292 0 0.24841 0.030554 0.40517 0.091661 0.13417 0.05048 0.29092 0.075719 0.45564 0.075719 0.15542 0 0.54332-0.025239 0.79705-0.25638l0.058451-0.053137c0.71203-0.6403 1.6884-1.517 0.88738-2.9145-0.006642-0.010627-0.014613-0.038524-0.022583-0.071734 0.03321-0.021255 0.063764-0.042509 0.096974-0.063764 0.23114-0.15277 0.47159-0.31218 0.68812-0.5048 0.18066-0.16074 0.33609-0.24177 0.46627-0.24177 0.12753 0 0.271 0.087675 0.42376 0.26037 0.29225 0.33742 0.63897 0.5048 1.0534 0.5048 0.27764 0 0.56192-0.077048 0.80103-0.15277 0.70804-0.22052 1.5237-0.62967 1.5383-1.8438 0-0.05845 0.02524-0.13683 0.057122-0.22716 0.071734-0.00797 0.14613-0.019926 0.22317-0.045166 0.28428-0.082361 0.53402-0.12487 0.74657-0.12487 0.3879 0 0.81697 0.11823 1.0561 0.98834 0.13284 0.50214 0.86745 0.6828 1.5117 0.6828 0.3228 0 0.90598-0.049151 1.1863-0.37328 0.50347-0.57919 0.65225-0.72664 0.81432-0.72664 0.15277 0 0.40384 0.086347 0.78509 0.21653l0.10627 0.035868c0.33742 0.11557 0.40118 0.21919 0.37196 0.61771l-0.003985 0.074391c-0.022583 0.39321-0.049151 0.88207 0.19528 1.2248 0.39587 0.53934 0.95646 0.82229 1.6246 0.82229 0.32546 0 0.66554-0.069078 1.0096-0.20458 0.1262-0.05048 0.29491-0.08369 0.42509-0.08369 0.096975 0 0.13284 0.017269 0.13284 0.017269 0.95247 0.70406 0.96443 0.75587 0.44103 1.8385-0.2059 0.41978-0.15808 0.94982 0.12753 1.4174 0.28162 0.4583 0.72266 0.7386 1.181 0.74524 0.96708 0.027897 0.96708 0.027897 1.2819 0.98568l0.15941 0.46096s-0.3972 0.30686-0.54863 0.42244c-0.57255 0.42111-0.85683 1.0269-0.7572 1.618 0.092989 0.55793 0.51277 0.99232 1.1491 1.1889 0.5845 0.17668 0.54863 0.37461 0.45299 0.90066-0.04251 0.22184-0.085019 0.45299-0.062436 0.69476 0.021255 0.21255 0.021255 0.21653-0.3507 0.26967-0.096974 0.013284-0.19395 0.027897-0.28295 0.051808-0.7293 0.16738-1.2288 0.54996-1.3988 1.0734-0.17269 0.52738 0.002657 1.1345 0.49816 1.7123 0.11424 0.13948 0.23247 0.29358 0.34672 0.44236-0.030554 0.045166-0.05845 0.090332-0.087676 0.13417-0.1541 0.23114-0.29756 0.449-0.39985 0.70937-0.1448 0.3693-0.30022 0.39985-0.45963 0.39985-0.10494 0-0.23513-0.021254-0.3972-0.065092-0.2152-0.05845-0.42509-0.089003-0.6217-0.089003-0.52472 0-0.96443 0.2059-1.2381 0.57786-0.30288 0.41314-0.36398 0.97904-0.17136 1.5941 0.17668 0.55262 0.14347 0.6828-0.2152 0.86745-0.13417 0.070406-0.26436 0.15542-0.39321 0.24044-0.21255 0.13948-0.41181 0.27232-0.5659 0.27232-0.11292 0-0.24576-0.092989-0.39055-0.27631-0.26834-0.33875-0.60044-0.50878-0.98435-0.50878-0.30421 0-0.60576 0.10627-0.89668 0.20856-0.90066 0.31218-0.86347 1.1305-0.85018 1.4387 0.010627 0.42642-0.12487 0.54731-0.68546 0.60576-0.1076 0.009299-0.21919 0.026569-0.33078 0.045166-0.12753 0.019927-0.25373 0.041181-0.37328 0.041181" fill="#eff0f4" mask="url(#a)"/>
<path d="m300.91 293.52c-2.892 0-5.1569 2.257-5.1569 5.1396 0 2.8494 2.3088 5.1689 5.1436 5.1702 2.8587-0.005314 5.1768-2.3194 5.1768-5.1609 0-2.884-2.2649-5.1463-5.1542-5.1489h-0.009299zm-0.27498 11.458c-1.5795-0.021255-3.143-0.72664-4.2921-1.9355-1.1996-1.2633-1.8239-2.9106-1.7575-4.6415 0.11956-3.333 2.9504-6.0443 6.3073-6.0443 1.7934 0.014613 3.3914 0.67749 4.5551 1.8638 1.1703 1.1929 1.8053 2.8149 1.7867 4.5658-0.037196 3.5309-2.8255 6.1931-6.488 6.1931l-0.11159-0.001329z" fill="#eff0f4" mask="url(#a)"/>
<polygon points="120.59 332.43 124.8 329.78 129.02 332.43 124.8 335.1" fill="#eff0f4" mask="url(#a)"/>
<polygon points="111.49 332.43 115.7 329.78 119.91 332.43 115.7 335.1" fill="#eff0f4" mask="url(#a)"/>
<polygon points="102.39 332.43 106.6 329.78 110.81 332.43 106.6 335.1" fill="#eff0f4" mask="url(#a)"/>
<path d="m1014.1 358.27c-27.59-80.288-88.951-144.87-167.12-176.78" mask="url(#a)" stroke="#eff0f4" stroke-linecap="round" stroke-width="2"/>
<path d="m798.07 166.37c-15.27-3.2852-30.98-5.3841-47.028-6.1957" mask="url(#a)" stroke="#eff0f4" stroke-linecap="round" stroke-width="2"/>
<path d="m733.26 159.81c-2.71 0.023911-5.4106 0.085018-8.102 0.18199" mask="url(#a)" stroke="#eff0f4" stroke-linecap="round" stroke-width="2"/>
<path d="m648.77 172.93c-63.741 19.759-118.2 60.618-155.23 114.41" mask="url(#a)" stroke="#eff0f4" stroke-linecap="round" stroke-width="2"/>
<path d="m483.76 302.54c-5.1343 8.5377-9.8475 17.358-14.11 26.433" mask="url(#a)" stroke="#eff0f4" stroke-linecap="round" stroke-width="2"/>
<path d="m464.23 341.25c-2.3739 5.7201-4.5711 11.531-6.5876 17.426" mask="url(#a)" stroke="#eff0f4" stroke-linecap="round" stroke-width="2"/>
<path d="m648.93 160.91c-0.81697 0.50745-0.8183 1.3324 0 1.8425l32.545 20.295c0.8183 0.50878 2.1427 0.51011 2.961 0l32.545-20.295c0.81698-0.51011 0.8183-1.3337 0-1.8425l-32.545-20.218c-0.8183-0.50878-2.1427-0.50878-2.961 0l-32.545 20.218z" mask="url(#a)" stroke="#eff0f4" stroke-width="2"/>
<path d="m648.93 147.4c-0.81697 0.50745-0.8183 1.3324 0 1.8425l32.545 20.295c0.8183 0.50878 2.1427 0.51011 2.961 0l32.545-20.295c0.81698-0.51011 0.8183-1.3337 0-1.8425l-32.545-20.218c-0.8183-0.50878-2.1427-0.50878-2.961 0l-32.545 20.218z" mask="url(#a)" stroke="#eff0f4" stroke-width="2"/>
<path d="m614.01 251.6c-0.81697 0.50745-0.8183 1.3324 0 1.8425l32.545 20.295c0.81697 0.50878 2.1427 0.51011 2.961 0l32.545-20.295c0.81698-0.51011 0.8183-1.3337 0-1.8425l-32.545-20.218c-0.8183-0.50878-2.1427-0.50878-2.961 0l-32.545 20.218z" mask="url(#a)" stroke="#eff0f4" stroke-width="2"/>
<path d="m683.85 251.6c-0.81697 0.50745-0.8183 1.3324 0 1.8425l32.545 20.295c0.8183 0.50878 2.1427 0.51011 2.961 0l32.545-20.295c0.81698-0.51011 0.8183-1.3337 0-1.8425l-32.545-20.218c-0.8183-0.50878-2.1427-0.50878-2.961 0l-32.545 20.218z" mask="url(#a)" stroke="#eff0f4" stroke-width="2"/>
<path d="m683.85 208.2c-0.81697 0.50745-0.8183 1.3324 0 1.8425l32.545 20.295c0.8183 0.50878 2.1427 0.51011 2.961 0l32.545-20.295c0.81698-0.51011 0.8183-1.3337 0-1.8425l-32.545-20.218c-0.8183-0.50878-2.1427-0.50878-2.961 0l-32.545 20.218z" mask="url(#a)" stroke="#eff0f4" stroke-width="2"/>
<path d="m614.01 208.2c-0.81697 0.50745-0.8183 1.3324 0 1.8425l32.545 20.295c0.81697 0.50878 2.1427 0.51011 2.961 0l32.545-20.295c0.81698-0.51011 0.8183-1.3337 0-1.8425l-32.545-20.218c-0.8183-0.50878-2.1427-0.50878-2.961 0l-32.545 20.218z" mask="url(#a)" stroke="#eff0f4" stroke-width="2"/>
<path d="m648.93 132.5c-0.81697 0.50745-0.8183 1.3324 0 1.8425l32.545 20.295c0.8183 0.50878 2.1427 0.51011 2.961 0l32.545-20.295c0.81698-0.51011 0.8183-1.3337 0-1.8425l-32.545-20.218c-0.8183-0.50878-2.1427-0.50878-2.961 0l-32.545 20.218z" mask="url(#a)" stroke="#eff0f4" stroke-width="2"/>
<polygon points="682.95 209.08 718.46 231.18 682.95 253.28 647.45 231.18" mask="url(#a)" stroke="#eff0f4" stroke-width="2"/>
<g mask="url(#a)">
<g transform="translate(739.93 146.13)">
<path d="m1.1626 0.19528h80.133" fill="#D7D7D7" fill-rule="evenodd"/>
<path d="m1.1626 0.19528h80.133" fill="none" stroke="#eff0f4" stroke-width="2"/>
</g>
</g>
<path d="m805.97 154.16c-1.7269 0.86347-1.7243 2.2689 0 3.1337l14.946 7.5029 14.946-7.5029c1.7283-0.86745 1.7256-2.2716 0-3.1337l-14.946-7.4737-14.946 7.4737z" mask="url(#a)" stroke="#eff0f4" stroke-width="2"/>
<path d="m805.97 190.93c-1.7269 0.86347-1.7243 2.2689 0 3.1337l14.946 7.5029 14.946-7.5029c1.7283-0.86745 1.7256-2.2716 0-3.1337l-14.946-7.4737-14.946 7.4737z" mask="url(#a)" stroke="#eff0f4" stroke-width="2"/>
<path d="m805.97 172.55c-1.7269 0.86347-1.7243 2.2689 0 3.1337l14.946 7.5029 14.946-7.5029c1.7283-0.86745 1.7256-2.2716 0-3.1337l-14.946-7.4737-14.946 7.4737z" mask="url(#a)" stroke="#eff0f4" stroke-width="2"/>
<path d="m805.97 209.31c-1.7269 0.86347-1.7243 2.2689 0 3.1337l14.946 7.5029 14.946-7.5029c1.7283-0.86745 1.7256-2.2716 0-3.1337l-14.946-7.4737-14.946 7.4737z" mask="url(#a)" stroke="#eff0f4" stroke-width="2"/>
<path d="m820.47 143.79c1.7203 0 3.1138 1.3935 3.1138 3.1138 0 1.719-1.3935 3.1125-3.1138 3.1125s-3.1138-1.3935-3.1138-3.1125c0-1.7203 1.3935-3.1138 3.1138-3.1138z" mask="url(#a)" stroke="#eff0f4" stroke-width="2"/>
<path d="m820.47 161.58c1.7203 0 3.1138 1.3935 3.1138 3.1138 0 1.719-1.3935 3.1125-3.1138 3.1125s-3.1138-1.3935-3.1138-3.1125c0-1.7203 1.3935-3.1138 3.1138-3.1138z" mask="url(#a)" stroke="#eff0f4" stroke-width="2"/>
<path d="m820.47 180.26c1.7203 0 3.1138 1.3935 3.1138 3.1138 0 1.719-1.3935 3.1125-3.1138 3.1125s-3.1138-1.3935-3.1138-3.1125c0-1.7203 1.3935-3.1138 3.1138-3.1138z" mask="url(#a)" stroke="#eff0f4" stroke-width="2"/>
<path d="m820.47 204.27c1.7203 0 3.1138-1.3935 3.1138-3.1138 0-1.719-1.3935-3.1125-3.1138-3.1125s-3.1138 1.3935-3.1138 3.1125c0 1.7203 1.3935 3.1138 3.1138 3.1138z" mask="url(#a)" stroke="#eff0f4" stroke-width="2"/>
<polyline points="862.39 241.17 862.39 252.2 779.32 252.2 779.32 241.17" mask="url(#a)" stroke="#eff0f4" stroke-width="2"/>
<path d="m862.39 241.23c0-11.402-11.212-20.644-41.537-20.644-30.324 0-41.535 9.2418-41.535 20.644h83.072z" mask="url(#a)" stroke="#eff0f4" stroke-width="2"/>
<path d="m795.94 247.05c3.0912 0 5.5979 2.4695 5.5979 5.5142 0 3.0461-2.5067 5.5142-5.5979 5.5142s-5.5966-2.4682-5.5966-5.5142c0-3.0447 2.5054-5.5142 5.5966-5.5142z" mask="url(#a)" stroke="#eff0f4" stroke-width="2"/>
<path d="m846.5 258.08c3.0912 0 5.5966-2.4695 5.5966-5.5142 0-3.0461-2.5054-5.5142-5.5966-5.5142-3.0912 0-5.5979 2.4682-5.5979 5.5142 0 3.0447 2.5067 5.5142 5.5979 5.5142z" mask="url(#a)" stroke="#eff0f4" stroke-width="2"/>
<path d="m683.01 126.47h51.087c3.8604 0 6.9901 3.1364 6.9901 7.0007v33.791c0 3.867-3.1324 7.0007-6.9861 7.0007h-20.214" mask="url(#a)" stroke="#eff0f4" stroke-linecap="round" stroke-width="2"/>
<path d="m683.01 132.35v-5.8822" mask="url(#a)" stroke="#eff0f4" stroke-linecap="round" stroke-width="2"/>
<polyline points="863.12 246.52 875.62 246.52 875.62 225" mask="url(#a)" stroke="#eff0f4" stroke-width="2"/>
<polyline points="777.85 246.52 765.35 246.52 765.35 225" mask="url(#a)" stroke="#eff0f4" stroke-width="2"/>
<path d="m762.41 215.44c-1.7469 0.92458-2.9384 2.7618-2.9384 4.8766 0 3.0461 2.4682 5.5156 5.5142 5.5156 3.0447 0 5.5129-2.4695 5.5129-5.5156 0-2.0325-1.0999-3.8099-2.7379-4.7663" mask="url(#a)" stroke="#eff0f4" stroke-width="2"/>
<path d="m870.39 220.37c-0.003985 1.9767 1.0587 3.8909 2.9265 4.8846 2.69 1.4294 6.0283 0.40915 7.4577-2.2796 1.4294-2.6887 0.40915-6.0283-2.2809-7.4577-1.7947-0.95513-3.8803-0.81697-5.493 0.18066" mask="url(#a)" stroke="#eff0f4" stroke-width="2"/>
<path d="m569.13 261.15c5.2778-0.91793 11.422-3.952 16.985-8.7888 10.444-9.0784 14.886-21.069 9.9219-26.781-4.9643-5.7108-17.457-2.981-27.902 6.0987-1.4692 1.2779-2.8202 2.613-4.0424 3.9813m-7.2996 12.54c-1.1185 4.1048-0.7386 7.7765 1.4201 10.259" mask="url(#a)" stroke="#eff0f4" stroke-linecap="round" stroke-width="2"/>
<path d="m567.05 285.07c1.3869-4.2974 1.5091-7.4497 0.03321-8.3717-2.33-1.4559-7.92 3.1125-13.491 10.657-1.1823 1.5994-2.3619 3.3317-3.511 5.1702" mask="url(#a)" stroke="#eff0f4" stroke-linecap="round" stroke-width="2"/>
<path d="m496.4 326.58c-2.7405 6.1931-2.8375 11.887 0.10627 13.725 3.6027 2.2517 10.397-2.1215 15.176-9.7678 4.7783-7.6463 5.7308-15.671 2.1268-17.923-2.5944-1.6207-6.844 0.19262-10.803 4.1911" mask="url(#a)" stroke="#eff0f4" stroke-linecap="round" stroke-width="2"/>
<path d="m590.53 299.89c1.173 0.8834 2.8946 0.83823 4.8115 0.043838m-27.668 30.765c2.2331-4.3877 2.5213-8.5032 0.41579-10.091-2.6967-2.0311-8.2959 0.85018-12.506 6.4388" mask="url(#a)" stroke="#eff0f4" stroke-linecap="round" stroke-width="2"/>
<path d="m535.1 273.83c-1.4187-1.4692-5.0387-0.27631-8.0847 2.6648-3.0447 2.9411-4.3638 6.5159-2.9451 7.9864 1.4201 1.4692 5.0387 0.27631 8.0847-2.6648s4.3638-6.5172 2.9451-7.9864z" mask="url(#a)" stroke="#eff0f4" stroke-width="2"/>
<path d="m494.44 300.44c0.087676-0.71469 0.73727-1.2248 1.4506-1.1371 0.71469 0.087676 1.2208 0.7386 1.1331 1.4546-0.087675 0.71469-0.73727 1.2235-1.4506 1.1358-0.71336-0.086347-1.2208-0.7386-1.1331-1.4533" fill="#060101" mask="url(#a)"/>
<path d="m494.44 300.44c0.087676-0.71469 0.73727-1.2248 1.4506-1.1371 0.71469 0.087676 1.2208 0.7386 1.1331 1.4546-0.087675 0.71469-0.73727 1.2235-1.4506 1.1358-0.71336-0.086347-1.2208-0.7386-1.1331-1.4533z" mask="url(#a)" stroke="#eff0f4" stroke-width="2"/>
<path d="m573.2 304.98c0.087675-0.71469 0.73727-1.2248 1.4506-1.1371 0.71469 0.087675 1.2208 0.7386 1.1331 1.4546-0.087675 0.71469-0.73727 1.2235-1.4506 1.1358-0.71336-0.087676-1.2208-0.7386-1.1331-1.4533" fill="#060101" mask="url(#a)"/>
<path d="m573.2 304.98c0.087675-0.71469 0.73727-1.2248 1.4506-1.1371 0.71469 0.087675 1.2208 0.7386 1.1331 1.4546-0.087675 0.71469-0.73727 1.2235-1.4506 1.1358-0.71336-0.087676-1.2208-0.7386-1.1331-1.4533z" mask="url(#a)" stroke="#eff0f4" stroke-width="2"/>
<path d="m586.61 265.21c0.087676-0.71469 0.73727-1.2248 1.4506-1.1371 0.71336 0.087675 1.2208 0.7386 1.1331 1.4546-0.087675 0.71469-0.73727 1.2235-1.4506 1.1358-0.71336-0.086346-1.2208-0.7386-1.1331-1.4533" fill="#060101" mask="url(#a)"/>
<path d="m586.61 265.21c0.087676-0.71469 0.73727-1.2248 1.4506-1.1371 0.71336 0.087675 1.2208 0.7386 1.1331 1.4546-0.087675 0.71469-0.73727 1.2235-1.4506 1.1358-0.71336-0.086346-1.2208-0.7386-1.1331-1.4533z" mask="url(#a)" stroke="#eff0f4" stroke-width="2"/>
<path d="m539.32 258.8c0.087675-0.71469-0.41978-1.3669-1.1331-1.4533-0.71336-0.087675-1.363 0.42111-1.4506 1.1358-0.087675 0.71601 0.41845 1.3669 1.1331 1.4546 0.71336 0.087676 1.363-0.42244 1.4506-1.1371" fill="#060101" mask="url(#a)"/>
<path d="m539.32 258.8c0.087675-0.71469-0.41978-1.3669-1.1331-1.4533-0.71336-0.087675-1.363 0.42111-1.4506 1.1358-0.087675 0.71601 0.41845 1.3669 1.1331 1.4546 0.71336 0.087676 1.363-0.42244 1.4506-1.1371z" mask="url(#a)" stroke="#eff0f4" stroke-width="2"/>
<path d="m520.38 144.22c0.88472 4.7212 4.2536 8.8246 9.1435 10.413 4.0078 1.3032 8.183 0.63764 11.48-1.4626 2.5638-1.6326 4.5976-4.1314 5.6099-7.2478 1.3483-4.1513 0.58849-8.4819-1.6897-11.831m-17.778-4.2257c-2.5678 1.4214-4.6827 3.6757-5.9021 6.5345m16.664-7.5706c-1.1996-0.38922-2.4151-0.6031-3.6159-0.65491" mask="url(#a)" stroke="#eff0f4" stroke-linecap="round" stroke-width="2"/>
<path d="m804.87 72.659c-3.4911 0.71734-6.4906 3.2692-7.6052 6.9157-0.91395 2.9903-0.36664 6.0788 1.2328 8.4965 1.2447 1.881 3.1244 3.3556 5.4492 4.0663 3.0965 0.94716 6.298 0.32679 8.7529-1.4055m2.9039-13.242c-1.088-1.8863-2.787-3.4246-4.9231-4.2921m5.8304 12.261c0.27365-0.89535 0.41579-1.7987 0.43838-2.6914" mask="url(#a)" stroke="#eff0f4" stroke-linecap="round" stroke-width="2"/>
<path d="m475.07 243.21c-0.82362-0.84886-1.9262-1.4254-3.1603-1.5795m3.2214 8.9469c0.68546-0.73063 1.1677-1.6539 1.3563-2.6794m-9.1514-4.6149c-0.89136 0.95247-1.4373 2.2344-1.4373 3.6425 0 1.5277 0.64162 2.9052 1.6711 3.8776 0.87277 0.82494 2.0232 1.359 3.2958 1.4466" mask="url(#a)" stroke="#eff0f4" stroke-linecap="round" stroke-width="2"/>
<path d="m866.6 150.75c1.4745 0 2.6688-1.1942 2.6688-2.6688 0-1.4732-1.1942-2.6688-2.6688-2.6688-1.4745 0-2.6688 1.1956-2.6688 2.6688 0 1.4745 1.1942 2.6688 2.6688 2.6688" fill="#060101" mask="url(#a)"/>
<path d="m866.6 150.75c1.4745 0 2.6688-1.1942 2.6688-2.6688 0-1.4732-1.1942-2.6688-2.6688-2.6688-1.4745 0-2.6688 1.1956-2.6688 2.6688 0 1.4745 1.1942 2.6688 2.6688 2.6688z" mask="url(#a)" stroke="#eff0f4" stroke-width="2"/>
<path d="m642.96 71.734c1.4745 0 2.6688 1.1942 2.6688 2.6688 0 1.4732-1.1942 2.6688-2.6688 2.6688-1.4745 0-2.6688-1.1956-2.6688-2.6688 0-1.4745 1.1942-2.6688 2.6688-2.6688" fill="#060101" mask="url(#a)"/>
<path d="m642.96 71.734c1.4745 0 2.6688 1.1942 2.6688 2.6688 0 1.4732-1.1942 2.6688-2.6688 2.6688-1.4745 0-2.6688-1.1956-2.6688-2.6688 0-1.4745 1.1942-2.6688 2.6688-2.6688z" mask="url(#a)" stroke="#eff0f4" stroke-width="2"/>
<path d="m553.1 182.04c1.4745 0 2.6688 1.1942 2.6688 2.6688 0 1.4732-1.1942 2.6688-2.6688 2.6688s-2.6688-1.1956-2.6688-2.6688c0-1.4745 1.1942-2.6688 2.6688-2.6688" fill="#060101" mask="url(#a)"/>
<path d="m553.1 182.04c1.4745 0 2.6688 1.1942 2.6688 2.6688 0 1.4732-1.1942 2.6688-2.6688 2.6688s-2.6688-1.1956-2.6688-2.6688c0-1.4745 1.1942-2.6688 2.6688-2.6688z" mask="url(#a)" stroke="#eff0f4" stroke-width="2"/>
</g>
</svg>
