<?xml version="1.0" encoding="UTF-8"?>
<svg version="1.1" viewBox="0 0 1073 380" xmlns="http://www.w3.org/2000/svg">
<title>new-cases-cn</title>
<desc>Created with Sketch.</desc>
<g fill="none" fill-rule="evenodd">
<polygon points="233.87 326.6 242.82 326.6 242.82 324.7 233.87 324.7" fill="#FEFEFE"/>
<polygon points="237.39 330.13 239.3 330.13 239.3 321.17 237.39 321.17" fill="#FEFEFE"/>
<polygon points="248.81 351.23 257.76 351.23 257.76 349.33 248.81 349.33" fill="#FEFEFE"/>
<polygon points="252.34 354.76 254.24 354.76 254.24 345.81 252.34 345.81" fill="#FEFEFE"/>
<polygon points="211.02 339.87 218.86 339.87 218.86 338.2 211.02 338.2" fill="#FEFEFE"/>
<polygon points="214.11 342.95 215.78 342.95 215.78 335.11 214.11 335.11" fill="#FEFEFE"/>
<polygon points="279.11 327.88 285.82 327.88 285.82 326.45 279.11 326.45" fill="#FEFEFE"/>
<polygon points="281.75 330.52 283.18 330.52 283.18 323.8 281.75 323.8" fill="#FEFEFE"/>
<path d="m355.22 303.5 6.1207-6.1249-6.1207-6.1207-6.1221 6.1207 6.1221 6.1249zm9.9277-6.1249-9.9277 9.9263-9.9291-9.9263 9.9291-9.9235 9.9277 9.9235z" fill="#FEFEFE"/>
<path d="m371.53 322.43 4.3749-4.3777-4.3749-4.3791-4.3861 4.3791 4.3861 4.3777zm7.091-4.3777-7.091 7.0938-7.0966-7.0938 7.0966-7.098 7.091 7.098z" fill="#FEFEFE"/>
<path d="m350.1 338.4 4.0145-4.0145-4.0145-4.0131-4.0173 4.0131 4.0173 4.0145zm6.5091-4.0145-6.5091 6.5063-6.5091-6.5063 6.5091-6.5077 6.5091 6.5077z" fill="#FEFEFE"/>
<polygon points="163.36 315.38 285.24 315.38 285.24 313.94 163.36 313.94" fill="#FEFEFE"/>
<path d="m314.26 340.01c-2.8213-0.36878-5.5542-1.2087-8.1342-2.5001l1.032-1.6097c2.2379 1.1007 4.6231 1.8355 7.1022 2.1861v1.9238z" fill="#FEFEFE"/>
<path d="m299.98 333.19c-2.3922-2.2772-4.3539-5.0592-5.7098-8.0992h2.1019c1.1821 2.4188 2.7483 4.5908 4.6624 6.4642l-1.0545 1.635z" fill="#FEFEFE"/>
<path d="m295.99 301.07c1.6336-2.5941 3.6892-4.8503 6.1151-6.718l0.91985 1.7023c-2.1286 1.6841-3.9332 3.678-5.3691 5.9342l-1.6658-0.91845z" fill="#FEFEFE"/>
<path d="m318.74 338.29 0.074317-0.001402c0.40664-0.015425 0.80768-0.030849 1.2171-0.070111 12.986-1.3265 22.473-12.973 21.151-25.962-1.2424-12.128-11.352-21.274-23.522-21.274-0.8259 0-1.6462 0.040664-2.4427 0.12059-1.3447 0.14162-2.6838 0.39823-3.9893 0.76421l-0.91985-1.7065c1.5733-0.47255 3.1578-0.79085 4.7184-0.94509 0.87779-0.092547 1.764-0.13882 2.6334-0.13882 13.15 0 24.076 9.8828 25.415 22.988 1.4317 14.026-8.8185 26.61-22.848 28.05-0.49498 0.046273-0.98155 0.067307-1.4877 0.082731v-1.907z" fill="#FEFEFE"/>
<path d="m292.25 317.76c-0.028045-0.16406-0.056089-0.32952-0.071513-0.49919-0.29587-2.8619-0.089742-5.7575 0.60996-8.618l1.7303 0.9479c-0.55247 2.4945-0.70531 5.0101-0.45011 7.4766 0.022436 0.23557 0.060295 0.46413 0.098155 0.69269h-1.9168z" fill="#FEFEFE"/>
<path d="m317.62 305.99c-2.4749 0-4.7998 0.96332-6.5455 2.7105-1.7542 1.757-2.7189 4.0987-2.7161 6.5946 0.005608 5.1041 4.1884 9.256 9.3247 9.2574 2.4384-0.005609 4.7409-0.97314 6.4894-2.7301 1.7752-1.7836 2.7497-4.1407 2.7441-6.6367-0.01262-5.069-4.1828-9.1957-9.2967-9.1957m1.398 21.537c-0.14443 0-0.32251 0-0.5034-0.41506-0.34775-0.80487-0.92266-1.2648-1.5789-1.2648-0.59594 0-1.1568 0.39262-1.534 1.0811-0.20472 0.35897-0.37018 0.35897-0.46133 0.35897-0.13041 0-0.29166-0.043469-0.46133-0.089742-0.11779-0.030849-0.23697-0.061698-0.35616-0.085535-0.61417-0.11779-0.6969-0.28184-0.63801-0.71092 0.053284-0.38 0.16266-1.168-0.74738-1.6434-0.37579-0.1921-0.69129-0.28044-0.99136-0.28044-0.37299 0-0.71653 0.13041-1.0839 0.41225-0.14443 0.10797-0.36458 0.20332-0.47114 0.21874-0.52162-0.32672-0.91004-0.66886-1.1498-1.0138 0.01262-0.10657 0.11218-0.33653 0.17387-0.47956 0.054687-0.1276 0.10797-0.2524 0.14723-0.36598 0.18088-0.49358 0.11078-1.0348-0.19631-1.4765-0.3155-0.45292-0.83292-0.72214-1.3826-0.72214-0.043469 0-0.21174 0.009815-0.21174 0.009815-0.13882 0.009816-0.29587 0.022435-0.44731 0.022435-0.30708 0-0.3814-0.051881-0.3814-0.051881-0.3197-0.35756-0.55948-0.8876-0.60015-1.3433 0.023838-0.043469 0.23277-0.23838 0.35756-0.35336 0.12059-0.11358 0.23978-0.22576 0.33653-0.33513 0.37579-0.3772 0.49779-0.90723 0.37439-1.4583-0.12199-0.54546-0.45432-0.97033-0.8904-1.1372-1.0278-0.39963-1.0278-0.39963-1.0236-1.534v-0.41786c0.11638-0.050479 0.23978-0.093948 0.36598-0.13882 0.60155-0.21594 1.3517-0.48517 1.642-1.5803 0.30989-1.168-0.27343-1.7766-0.73897-2.266-0.07572-0.079926-0.15144-0.15985-0.22435-0.24118 0.018229-0.033653 0.036457-0.067306 0.054686-0.10096 0.12059-0.22015 0.23417-0.42768 0.3183-0.65904 0.21594-0.58472 0.42768-0.66605 0.62118-0.66605 0.11919 0 0.26222 0.032251 0.42768 0.096752 0.14162 0.053285 0.30708 0.079927 0.48096 0.079927 0.16406 0 0.57351-0.026642 0.84133-0.27063l0.061697-0.056088c0.75159-0.67587 1.7822-1.6013 0.93668-3.0765-0.007011-0.011218-0.015424-0.040664-0.023838-0.075719 0.035056-0.022436 0.067307-0.044871 0.10236-0.067307 0.24398-0.16125 0.49779-0.32952 0.72635-0.53284 0.1907-0.16967 0.35476-0.2552 0.49218-0.2552 0.13461 0 0.28605 0.092546 0.44731 0.27483 0.30849 0.35616 0.67446 0.53284 1.112 0.53284 0.29306 0 0.59314-0.081328 0.84554-0.16125 0.74738-0.23277 1.6083-0.66465 1.6238-1.9463 0-0.061698 0.026642-0.14443 0.060295-0.23978 0.07572-0.008413 0.15424-0.021033 0.23557-0.047675 0.30007-0.086937 0.56369-0.13181 0.78804-0.13181 0.40945 0 0.86236 0.1248 1.1148 1.0432 0.14022 0.53004 0.91565 0.72074 1.5957 0.72074 0.34074 0 0.95631-0.051882 1.2522-0.39402 0.53144-0.61137 0.68849-0.76701 0.85956-0.76701 0.16126 0 0.42627 0.091144 0.82871 0.22856l0.11218 0.037859c0.35616 0.12199 0.42347 0.23137 0.39262 0.65203l-0.004207 0.078524c-0.023837 0.41506-0.051882 0.93107 0.20613 1.2928 0.41786 0.5693 1.0096 0.86797 1.7149 0.86797 0.34354 0 0.70251-0.072915 1.0657-0.21594 0.13321-0.053284 0.31129-0.08834 0.44871-0.08834 0.10236 0 0.14022 0.018229 0.14022 0.018229 1.0054 0.74317 1.018 0.79786 0.46554 1.9407-0.21734 0.4431-0.16686 1.0026 0.13461 1.4962 0.29727 0.48376 0.7628 0.77963 1.2466 0.78664 1.0208 0.029446 1.0208 0.029446 1.3531 1.0404l0.16827 0.48657s-0.41926 0.32391-0.57911 0.4459c-0.60436 0.4445-0.90443 1.0839-0.79926 1.7079 0.098155 0.58893 0.54125 1.0475 1.2129 1.255 0.61697 0.18649 0.57911 0.39542 0.47816 0.9507-0.044871 0.23417-0.089742 0.47816-0.065904 0.73336 0.022435 0.22435 0.022435 0.22856-0.37018 0.28465-0.10236 0.014023-0.20472 0.029447-0.29867 0.054687-0.76982 0.17668-1.297 0.58052-1.4765 1.133-0.18229 0.55668 0.002805 1.1975 0.52583 1.8075 0.12059 0.14723 0.24539 0.30989 0.36598 0.46694-0.032251 0.047675-0.061697 0.09535-0.092546 0.14162-0.16266 0.24398-0.3141 0.47395-0.42207 0.74878-0.15284 0.38982-0.3169 0.42207-0.48517 0.42207-0.11078 0-0.24819-0.022435-0.41926-0.068708-0.22716-0.061698-0.44871-0.093949-0.65624-0.093949-0.55388 0-1.018 0.21734-1.3069 0.60996-0.3197 0.43609-0.38421 1.0334-0.18088 1.6827 0.18649 0.58332 0.15144 0.72074-0.22716 0.91565-0.14162 0.074317-0.27904 0.16406-0.41506 0.2538-0.22436 0.14723-0.43469 0.28745-0.59734 0.28745-0.11919 0-0.25941-0.098155-0.41225-0.29166-0.28325-0.35756-0.6338-0.53705-1.039-0.53705-0.32111 0-0.63941 0.11218-0.9465 0.22015-0.9507 0.32952-0.91144 1.1933-0.89742 1.5186 0.011218 0.45011-0.13181 0.57771-0.72354 0.63941-0.11358 0.009816-0.23136 0.028044-0.34915 0.047675-0.13461 0.021034-0.26782 0.043469-0.39402 0.043469" fill="#FEFEFE"/>
<path d="m317.63 309.83c-3.0526 0-5.4434 2.3824-5.4434 5.4252 0 3.0077 2.437 5.456 5.4294 5.4574 3.0176-0.005609 5.4644-2.4483 5.4644-5.4476 0-3.0442-2.3908-5.4322-5.4406-5.435h-0.009815zm-0.29026 12.094c-1.6672-0.022436-3.3176-0.76701-4.5306-2.043-1.2662-1.3335-1.9252-3.0723-1.8551-4.8993 0.1262-3.5182 3.1143-6.3801 6.6577-6.3801 1.893 0.015425 3.5799 0.71513 4.8082 1.9673 1.2354 1.2592 1.9056 2.9713 1.886 4.8194-0.039262 3.7271-2.9825 6.5371-6.8484 6.5371l-0.11779-0.001402z" fill="#FEFEFE"/>
<polygon points="119.91 349.31 126.85 344.94 133.81 349.31 126.85 353.71" fill="#FEFEFE"/>
<polygon points="106.08 349.31 113.02 344.94 119.97 349.31 113.02 353.71" fill="#FEFEFE"/>
<polygon points="92.243 349.31 99.195 344.94 106.15 349.31 99.195 353.71" fill="#FEFEFE"/>
<path d="m1070.4 378.17c-29.123-84.748-93.892-152.92-176.4-186.6" stroke="#FEFEFE" stroke-linecap="round" stroke-width="2"/>
<path d="m842.41 175.62c-16.118-3.4677-32.701-5.6832-49.641-6.5399" stroke="#FEFEFE" stroke-linecap="round" stroke-width="2"/>
<path d="m774 168.69c-2.8605 0.025239-5.7112 0.089741-8.5521 0.1921" stroke="#FEFEFE" stroke-linecap="round" stroke-width="2"/>
<path d="m684.82 182.54c-67.282 20.857-124.77 63.986-163.85 120.77" stroke="#FEFEFE" stroke-linecap="round" stroke-width="2"/>
<path d="m510.64 319.35c-5.4196 9.012-10.395 18.323-14.894 27.901" stroke="#FEFEFE" stroke-linecap="round" stroke-width="2"/>
<path d="m490.02 360.2c-2.5058 6.0379-4.825 12.171-6.9536 18.394" stroke="#FEFEFE" stroke-linecap="round" stroke-width="2"/>
<path d="m684.98 169.85c-0.86236 0.53565-0.86376 1.4064 0 1.9449l34.353 21.423c0.86376 0.53705 2.2618 0.53845 3.1255 0l34.353-21.423c0.86236-0.53845 0.86376-1.4078 0-1.9449l-34.353-21.342c-0.86376-0.53705-2.2618-0.53705-3.1255 0l-34.353 21.342z" stroke="#FEFEFE" stroke-width="2"/>
<path d="m684.98 155.59c-0.86236 0.53565-0.86376 1.4064 0 1.9449l34.353 21.423c0.86376 0.53705 2.2618 0.53845 3.1255 0l34.353-21.423c0.86236-0.53845 0.86376-1.4078 0-1.9449l-34.353-21.342c-0.86376-0.53705-2.2618-0.53705-3.1255 0l-34.353 21.342z" stroke="#FEFEFE" stroke-width="2"/>
<path d="m648.12 265.58c-0.86236 0.53565-0.86376 1.4064 0 1.9449l34.353 21.423c0.86236 0.53705 2.2618 0.53845 3.1255 0l34.353-21.423c0.86236-0.53845 0.86376-1.4078 0-1.9449l-34.353-21.342c-0.86376-0.53705-2.2618-0.53705-3.1255 0l-34.353 21.342z" stroke="#FEFEFE" stroke-width="2"/>
<path d="m721.84 265.58c-0.86236 0.53565-0.86376 1.4064 0 1.9449l34.353 21.423c0.86376 0.53705 2.2618 0.53845 3.1255 0l34.353-21.423c0.86236-0.53845 0.86376-1.4078 0-1.9449l-34.353-21.342c-0.86376-0.53705-2.2618-0.53705-3.1255 0l-34.353 21.342z" stroke="#FEFEFE" stroke-width="2"/>
<path d="m721.84 219.77c-0.86236 0.53565-0.86376 1.4064 0 1.9449l34.353 21.423c0.86376 0.53705 2.2618 0.53845 3.1255 0l34.353-21.423c0.86236-0.53845 0.86376-1.4078 0-1.9449l-34.353-21.342c-0.86376-0.53705-2.2618-0.53705-3.1255 0l-34.353 21.342z" stroke="#FEFEFE" stroke-width="2"/>
<path d="m648.12 219.77c-0.86236 0.53565-0.86376 1.4064 0 1.9449l34.353 21.423c0.86236 0.53705 2.2618 0.53845 3.1255 0l34.353-21.423c0.86236-0.53845 0.86376-1.4078 0-1.9449l-34.353-21.342c-0.86376-0.53705-2.2618-0.53705-3.1255 0l-34.353 21.342z" stroke="#FEFEFE" stroke-width="2"/>
<path d="m684.98 139.86c-0.86236 0.53565-0.86376 1.4064 0 1.9449l34.353 21.423c0.86376 0.53705 2.2618 0.53845 3.1255 0l34.353-21.423c0.86236-0.53845 0.86376-1.4078 0-1.9449l-34.353-21.342c-0.86376-0.53705-2.2618-0.53705-3.1255 0l-34.353 21.342z" stroke="#FEFEFE" stroke-width="2"/>
<polygon points="720.9 220.7 758.37 244.03 720.9 267.35 683.42 244.03" stroke="#FEFEFE" stroke-width="2"/>
<g transform="translate(781.03 154.24)">
<path d="m1.2272 0.20613h84.584" fill="#D7D7D7"/>
<path d="m1.2272 0.20613h84.584" stroke="#FEFEFE" stroke-width="2"/>
</g>
<path d="m850.75 162.73c-1.8229 0.91144-1.8201 2.395 0 3.3078l15.776 7.9197 15.776-7.9197c1.8243-0.91565 1.8215-2.3978 0-3.3078l-15.776-7.8889-15.776 7.8889z" stroke="#FEFEFE" stroke-width="2"/>
<path d="m850.75 201.53c-1.8229 0.91144-1.8201 2.395 0 3.3078l15.776 7.9197 15.776-7.9197c1.8243-0.91565 1.8215-2.3978 0-3.3078l-15.776-7.8889-15.776 7.8889z" stroke="#FEFEFE" stroke-width="2"/>
<path d="m850.75 182.13c-1.8229 0.91144-1.8201 2.395 0 3.3078l15.776 7.9197 15.776-7.9197c1.8243-0.91565 1.8215-2.3978 0-3.3078l-15.776-7.8889-15.776 7.8889z" stroke="#FEFEFE" stroke-width="2"/>
<path d="m850.75 220.94c-1.8229 0.91144-1.8201 2.395 0 3.3078l15.776 7.9197 15.776-7.9197c1.8243-0.91565 1.8215-2.3978 0-3.3078l-15.776-7.8889-15.776 7.8889z" stroke="#FEFEFE" stroke-width="2"/>
<path d="m866.05 151.77c1.8159 0 3.2868 1.4709 3.2868 3.2868 0 1.8145-1.4709 3.2854-3.2868 3.2854s-3.2868-1.4709-3.2868-3.2854c0-1.8159 1.4709-3.2868 3.2868-3.2868z" stroke="#FEFEFE" stroke-width="2"/>
<path d="m866.05 170.55c1.8159 0 3.2868 1.4709 3.2868 3.2868 0 1.8145-1.4709 3.2854-3.2868 3.2854s-3.2868-1.4709-3.2868-3.2854c0-1.8159 1.4709-3.2868 3.2868-3.2868z" stroke="#FEFEFE" stroke-width="2"/>
<path d="m866.05 190.27c1.8159 0 3.2868 1.4709 3.2868 3.2868 0 1.8145-1.4709 3.2854-3.2868 3.2854s-3.2868-1.4709-3.2868-3.2854c0-1.8159 1.4709-3.2868 3.2868-3.2868z" stroke="#FEFEFE" stroke-width="2"/>
<path d="m866.05 215.62c1.8159 0 3.2868-1.4709 3.2868-3.2868 0-1.8145-1.4709-3.2854-3.2868-3.2854s-3.2868 1.4709-3.2868 3.2854c0 1.8159 1.4709 3.2868 3.2868 3.2868z" stroke="#FEFEFE" stroke-width="2"/>
<polyline points="910.3 254.57 910.3 266.21 822.61 266.21 822.61 254.57" stroke="#FEFEFE" stroke-width="2"/>
<path d="m910.3 254.63c0-12.035-11.835-21.79-43.844-21.79-32.008 0-43.843 9.7552-43.843 21.79h87.687z" stroke="#FEFEFE" stroke-width="2"/>
<path d="m840.16 260.78c3.263 0 5.9089 2.6067 5.9089 5.8206 0 3.2153-2.646 5.8206-5.9089 5.8206s-5.9075-2.6053-5.9075-5.8206c0-3.2139 2.6446-5.8206 5.9075-5.8206z" stroke="#FEFEFE" stroke-width="2"/>
<path d="m893.53 272.42c3.263 0 5.9075-2.6067 5.9075-5.8206 0-3.2153-2.6446-5.8206-5.9075-5.8206s-5.9089 2.6053-5.9089 5.8206c0 3.2139 2.646 5.8206 5.9089 5.8206z" stroke="#FEFEFE" stroke-width="2"/>
<path d="m720.96 133.49h53.925c4.0748 0 7.3784 3.3106 7.3784 7.3897v35.668c0 4.0818-3.3064 7.3897-7.3742 7.3897h-21.337" stroke="#FEFEFE" stroke-linecap="round" stroke-width="2"/>
<path d="m720.96 139.7v-6.209" stroke="#FEFEFE" stroke-linecap="round" stroke-width="2"/>
<polyline points="911.08 260.22 924.27 260.22 924.27 237.49" stroke="#FEFEFE" stroke-width="2"/>
<polyline points="821.06 260.22 807.87 260.22 807.87 237.49" stroke="#FEFEFE" stroke-width="2"/>
<path d="m804.76 227.4c-1.8439 0.97594-3.1017 2.9152-3.1017 5.1475 0 3.2153 2.6053 5.822 5.8206 5.822 3.2139 0 5.8192-2.6067 5.8192-5.822 0-2.1454-1.161-4.0216-2.89-5.0311" stroke="#FEFEFE" stroke-width="2"/>
<path d="m918.74 232.62c-0.004207 2.0865 1.1176 4.1071 3.0891 5.1559 2.8395 1.5088 6.3632 0.43188 7.872-2.4062 1.5088-2.8381 0.43188-6.3632-2.4076-7.872-1.8944-1.0082-4.0959-0.86236-5.7982 0.1907" stroke="#FEFEFE" stroke-width="2"/>
<path d="m600.75 275.66c5.571-0.96893 12.056-4.1716 17.929-9.277 11.024-9.5827 15.713-22.239 10.473-28.269-5.2401-6.0281-18.426-3.1466-29.452 6.4376-1.5508 1.3489-2.9769 2.7582-4.2669 4.2024m-7.7052 13.237c-1.1807 4.3328-0.77963 8.2086 1.499 10.829" stroke="#FEFEFE" stroke-linecap="round" stroke-width="2"/>
<path d="m598.56 300.9c1.4639-4.5362 1.5929-7.8636 0.035055-8.8368-2.4595-1.5368-8.36 3.2854-14.241 11.249-1.248 1.6883-2.4931 3.5168-3.7061 5.4574" stroke="#FEFEFE" stroke-linecap="round" stroke-width="2"/>
<path d="m523.98 344.72c-2.8928 6.5371-2.9951 12.547 0.11218 14.488 3.8028 2.3768 10.975-2.2393 16.019-10.31s6.0492-16.542 2.2449-18.919c-2.7385-1.7107-7.2242 0.20332-11.403 4.424" stroke="#FEFEFE" stroke-linecap="round" stroke-width="2"/>
<path d="m623.34 316.55c1.2382 0.93247 3.0554 0.8848 5.0788 0.046273m-29.205 32.474c2.3571-4.6315 2.6614-8.9756 0.43889-10.651-2.8465-2.144-8.7568 0.89742-13.2 6.7965" stroke="#FEFEFE" stroke-linecap="round" stroke-width="2"/>
<path d="m564.83 289.05c-1.4976-1.5508-5.3186-0.29166-8.5339 2.8128-3.2139 3.1045-4.6063 6.8779-3.1087 8.4301 1.499 1.5508 5.3186 0.29166 8.5339-2.8128 3.2153-3.1045 4.6063-6.8793 3.1087-8.4301z" stroke="#FEFEFE" stroke-width="2"/>
<path d="m521.91 317.13c0.092546-0.75439 0.77823-1.2928 1.5312-1.2003 0.75439 0.092547 1.2886 0.77963 1.1961 1.5354-0.092546 0.75439-0.77823 1.2914-1.5312 1.1989-0.75299-0.091144-1.2886-0.77963-1.1961-1.534" fill="#060101"/>
<path d="m521.91 317.13c0.092546-0.75439 0.77823-1.2928 1.5312-1.2003 0.75439 0.092547 1.2886 0.77963 1.1961 1.5354-0.092546 0.75439-0.77823 1.2914-1.5312 1.1989-0.75299-0.091144-1.2886-0.77963-1.1961-1.534z" stroke="#FEFEFE" stroke-width="2"/>
<path d="m605.04 321.92c0.092546-0.75439 0.77823-1.2928 1.5312-1.2003 0.75439 0.092546 1.2886 0.77963 1.1961 1.5354-0.092546 0.75439-0.77823 1.2914-1.5312 1.1989s-1.2886-0.77963-1.1961-1.534" fill="#060101"/>
<path d="m605.04 321.92c0.092546-0.75439 0.77823-1.2928 1.5312-1.2003 0.75439 0.092546 1.2886 0.77963 1.1961 1.5354-0.092546 0.75439-0.77823 1.2914-1.5312 1.1989s-1.2886-0.77963-1.1961-1.534z" stroke="#FEFEFE" stroke-width="2"/>
<path d="m619.19 279.95c0.092546-0.75439 0.77823-1.2928 1.5312-1.2003s1.2886 0.77963 1.1961 1.5354c-0.092546 0.75439-0.77823 1.2914-1.5312 1.1989-0.75299-0.091144-1.2886-0.77963-1.1961-1.534" fill="#060101"/>
<path d="m619.19 279.95c0.092546-0.75439 0.77823-1.2928 1.5312-1.2003s1.2886 0.77963 1.1961 1.5354c-0.092546 0.75439-0.77823 1.2914-1.5312 1.1989-0.75299-0.091144-1.2886-0.77963-1.1961-1.534z" stroke="#FEFEFE" stroke-width="2"/>
<path d="m569.28 273.18c0.092546-0.75439-0.4431-1.4429-1.1961-1.534-0.75299-0.092546-1.4387 0.4445-1.5312 1.1989-0.092547 0.75579 0.4417 1.4429 1.1961 1.5354 0.75299 0.092546 1.4387-0.4459 1.5312-1.2003" fill="#060101"/>
<path d="m569.28 273.18c0.092546-0.75439-0.4431-1.4429-1.1961-1.534-0.75299-0.092546-1.4387 0.4445-1.5312 1.1989-0.092547 0.75579 0.4417 1.4429 1.1961 1.5354 0.75299 0.092546 1.4387-0.4459 1.5312-1.2003z" stroke="#FEFEFE" stroke-width="2"/>
<path d="m549.29 152.23c0.93388 4.9835 4.4899 9.3149 9.6514 10.992 4.2305 1.3756 8.6376 0.67306 12.118-1.5438 2.7063-1.7233 4.8531-4.3609 5.9216-7.6505 1.4232-4.3819 0.62118-8.9531-1.7836-12.488m-18.766-4.4604c-2.7105 1.5004-4.9428 3.8799-6.23 6.8975m17.589-7.9912c-1.2662-0.41085-2.5492-0.6366-3.8168-0.69129" stroke="#FEFEFE" stroke-linecap="round" stroke-width="2"/>
<path d="m849.58 76.695c-3.685 0.7572-6.8512 3.4508-8.0277 7.2999-0.96472 3.1564-0.38701 6.4165 1.3013 8.9686 1.3139 1.9855 3.298 3.542 5.7519 4.2922 3.2686 0.99978 6.6479 0.34494 9.2392-1.4835m3.0652-13.977c-1.1484-1.9911-2.9418-3.6149-5.1966-4.5306m6.1543 12.942c0.28886-0.94509 0.43889-1.8986 0.46273-2.8409" stroke="#FEFEFE" stroke-linecap="round" stroke-width="2"/>
<path d="m501.47 256.73c-0.86937-0.89602-2.0332-1.5046-3.3359-1.6672m3.4004 9.4439c0.72354-0.77122 1.2325-1.7458 1.4317-2.8283m-9.6599-4.8713c-0.94089 1.0054-1.5172 2.3585-1.5172 3.8449 0 1.6125 0.67727 3.0666 1.764 4.0931 0.92126 0.87078 2.1356 1.4345 3.4789 1.527" stroke="#FEFEFE" stroke-linecap="round" stroke-width="2"/>
<path d="m914.74 159.13c1.5565 0 2.817-1.2606 2.817-2.817 0-1.5551-1.2606-2.817-2.817-2.817-1.5565 0-2.817 1.262-2.817 2.817 0 1.5565 1.2606 2.817 2.817 2.817" fill="#060101"/>
<path d="m914.74 159.13c1.5565 0 2.817-1.2606 2.817-2.817 0-1.5551-1.2606-2.817-2.817-2.817-1.5565 0-2.817 1.262-2.817 2.817 0 1.5565 1.2606 2.817 2.817 2.817z" stroke="#FEFEFE" stroke-width="2"/>
<path d="m678.68 75.72c1.5565 0 2.817 1.2606 2.817 2.817 0 1.5551-1.2606 2.817-2.817 2.817-1.5565 0-2.817-1.262-2.817-2.817 0-1.5565 1.2606-2.817 2.817-2.817" fill="#060101"/>
<path d="m678.68 75.72c1.5565 0 2.817 1.2606 2.817 2.817 0 1.5551-1.2606 2.817-2.817 2.817-1.5565 0-2.817-1.262-2.817-2.817 0-1.5565 1.2606-2.817 2.817-2.817z" stroke="#FEFEFE" stroke-width="2"/>
<path d="m583.83 192.15c1.5565 0 2.817 1.2606 2.817 2.817 0 1.5551-1.2606 2.817-2.817 2.817-1.5565 0-2.817-1.262-2.817-2.817 0-1.5565 1.2606-2.817 2.817-2.817" fill="#060101"/>
<path d="m583.83 192.15c1.5565 0 2.817 1.2606 2.817 2.817 0 1.5551-1.2606 2.817-2.817 2.817-1.5565 0-2.817-1.262-2.817-2.817 0-1.5565 1.2606-2.817 2.817-2.817z" stroke="#FEFEFE" stroke-width="2"/>
<g transform="translate(21.111 335.67)" fill="#FEFEFE">
<path d="m4.3368 14.104c-1.5573 0-2.8239 1.4616-2.8239 3.2586 0 1.7907 1.2667 3.2474 2.8239 3.2474 1.561 0 2.8326-1.4567 2.8326-3.2474 0-1.7969-1.2716-3.2586-2.8326-3.2586m0 8.2482c-2.3918 0-4.3365-2.2378-4.3365-4.9897 0-2.7556 1.9447-4.9984 4.3365-4.9984 2.3905 0 4.3365 2.2427 4.3365 4.9984 0 2.7519-1.9459 4.9897-4.3365 4.9897"/>
<path d="m15.784 1.9884c-1.5585 0-2.8264 1.4579-2.8264 3.2511 0 1.7957 1.2679 3.2561 2.8264 3.2561 1.556 0 2.8239-1.4604 2.8239-3.2561 0-1.7932-1.2679-3.2511-2.8239-3.2511m0 8.2433c-2.3918 0-4.339-2.239-4.339-4.9922 0-2.7544 1.9472-4.9959 4.339-4.9959 2.3893 0 4.3327 2.2415 4.3327 4.9959 0 2.7531-1.9435 4.9922-4.3327 4.9922"/>
<path d="m26.897 14.104c-1.5585 0-2.8264 1.4616-2.8264 3.2586 0 1.7907 1.2679 3.2474 2.8264 3.2474 1.5573 0 2.8239-1.4567 2.8239-3.2474 0-1.7969-1.2667-3.2586-2.8239-3.2586m0 8.2482c-2.393 0-4.3414-2.2378-4.3414-4.9897 0-2.7556 1.9484-4.9984 4.3414-4.9984 2.3893 0 4.334 2.2427 4.334 4.9984 0 2.7519-1.9447 4.9897-4.334 4.9897"/>
<path d="m37.889 1.9884c-1.5585 0-2.8276 1.4579-2.8276 3.2511 0 1.7957 1.2692 3.2561 2.8276 3.2561 1.556 0 2.8227-1.4604 2.8227-3.2561 0-1.7932-1.2667-3.2511-2.8227-3.2511m0 8.2433c-2.3942 0-4.3427-2.239-4.3427-4.9922 0-2.7544 1.9484-4.9959 4.3427-4.9959 2.3893 0 4.3327 2.2415 4.3327 4.9959 0 2.7531-1.9435 4.9922-4.3327 4.9922"/>
<polygon points="28.565 14.116 34.682 7.0789 36.108 8.7181 29.989 15.761"/>
<polygon points="17.67 8.6965 19.104 7.0524 25.217 14.092 23.786 15.734"/>
<polygon points="6.5428 14.092 12.655 7.0524 14.084 8.6965 7.9672 15.734"/>
</g>
</g>
</svg>
