<svg viewBox="0 0 466 409" xmlns="http://www.w3.org/2000/svg"><g fill="none" fill-rule="evenodd"><path d="M364.25 363.216c0 24.991-57.463 45.25-129.582 45.25-72.12 0-130.584-20.259-130.584-45.25s58.465-45.25 130.584-45.25 129.583 20.259 129.583 45.25" fill="#62E3FF"/><path d="M258.5 407.714V383.86c0-15.334 10.75-20 10.75-25.667 0-9.75-19.62.925-25.665 7-9.21 9.25-8.168 12.874-7.945 28.377.057 4.012.074 9.303.068 14.896 7.79-.02 15.405-.277 22.793-.752m-59.88-.99c-.049-13.17-.12-30.934-.12-37.905 0-13.375-19-21-28.126-21-4.623 0-10.375.238-10.375 2.68 0 6.195 17.375 9.82 17.375 22.695 0 7.09-.1 21.27-.174 30.668a310.914 310.914 0 0 0 21.42 2.862" fill="#43AFFF"/><path d="M287.668 372.693c.166-12.167 17.999-18.001 17.333-21.917-.667-3.916-14.927-3.277-21.586-.956-18.887 6.583-16.998 22.29-16.998 22.29l-.507 35.05a317.74 317.74 0 0 0 22.067-2.647c-.09-21.352-.396-25.462-.31-31.82m-61.717-.123c-7.574-16.751-30.449-22.501-30.449-14.876 0 5.125 4.625 3.5 7.75 15 1.261 4.64 1.944 19.893 2.314 34.648 7.822.617 15.913.989 24.2 1.094-.19-14.578-1.095-29.81-3.815-35.865" fill="#43AFFF"/><path d="M85.585 247.55c-8.053 0-.037-12.646-.001-18.333.138 5.843 8.054 18.333 0 18.333" fill="#62E3FF"/><path d="M283.92 105.966c40.27 0 50.5 28.5 50.5 50.5 0 29.99-15.09 51.73-52.64 57.35-4.61.69-9.56 1.14-14.86 1.33-22.67.82-45.33.71-64-.01-2.71-.1-5.37-.27-7.98-.5-39.19-3.43-67.02-21.15-67.02-60.84 0-15.03 10.16-47.83 51.16-47.83 4.06 0 30.57 2.5 56.17 2.5 22.73 0 45.72-2.5 48.67-2.5" fill="#FFC09F"/><path d="M463.86 171.486c.81.16 1.35.94 1.2 1.75-.13.72-.77 1.23-1.47 1.23-.09 0-.19-.01-.28-.02-20.45-3.78-50.21-7.94-101.03-7.47-.89 2.95-1.89 5.76-2.98 8.44 17.3.58 64.81 2.43 103.55 14.28a1.501 1.501 0 0 1-.43 2.94c-.15 0-.3-.02-.44-.07-39.28-12.01-87.82-13.66-103.96-14.19-12.52 27.49-36.75 39.63-74.82 45.34l-1.42-9.9c37.55-5.62 52.64-27.36 52.64-57.35 0-22-10.23-50.5-50.5-50.5-2.95 0-25.94 2.5-48.67 2.5-25.6 0-52.11-2.5-56.17-2.5-41 0-51.16 32.8-51.16 47.83 0 39.689 27.83 57.41 67.02 60.84l-1.09 10.95c-46.59-4.72-74.29-21.11-88.72-47.31-49.54 1.19-77.66 8.22-98.27 13.37-1.5.38-2.96.74-4.38 1.1-.12.03-.24.04-.36.04-.68 0-1.29-.46-1.46-1.14-.2-.8.3-1.62 1.1-1.82 1.42-.35 2.88-.71 4.37-1.09 20.55-5.13 48.49-12.12 97.44-13.42a90.256 90.256 0 0 1-3.66-8.4c-19.04-.16-77.71 2.54-97.8 7.51a1.514 1.514 0 0 1-1.82-1.1c-.19-.8.3-1.62 1.1-1.82 19.91-4.92 77.16-7.65 97.44-7.6-4.56-13.42-6.58-28.79-6.58-45.96 0-30.48 9.5-41.98 22.25-58.23-9.75-34.75 3.5-58.5 3.5-58.5s20.5-4.25 59.25 23.5c21-9 77-9.75 103.5-2 16.25-10.75 46-26 58-21.73C342 6.216 349 21.466 343 54.966c4.07 7.35 25.25 23 25.33 67.25-.34 16.32-2.04 30.1-5.19 41.75 50.53-.42 80.25 3.75 100.72 7.52" fill="#000"/><path d="M287.67 323.216c.16 12.17 18 18 17.33 21.92-.67 3.91-14.93 3.28-21.59.95-18.88-6.58-16.99-22.29-16.99-22.29l-.63-43.12s1.29-23.21-7.29-23.21v70.58c0 15.34 10.75 20 10.75 25.67 0 9.75-19.62-.92-25.67-7-9.21-9.25-8.16-28.87-7.94-44.38.21-14.98-.14-47.75-.14-47.75l-6.25.13s2.56 71.58-3.3 84.62c-7.58 16.75-30.45 22.51-30.45 14.88 0-5.13 5.63-3.5 8.75-15 2.66-9.78 1.75-82.75 1.75-82.75s-7.33 4.33-7.33 18c0 6.25-.17 41.99-.17 52.62 0 13.38-19 21-28.13 21-4.62 0-10.37-.23-10.37-2.68 0-6.19 17.37-9.82 17.37-22.69 0-11.16-.24-39.87-.24-39.87s-8.76 1.5-21.26 1.5c-31.5 0-41.46-20.1-46.2-31.35-6.17-14.65-14.17-21.53-22.67-27.03-5.22-3.38-6.42-7.36-.38-8.5 27.88-5.25 35.01 31.62 53.63 37.5 13.29 4.19 30.38 2.38 38.88-3.12 1.12-11.26 9.24-21 16-26.13-.43-.04-.86-.08-1.28-.13l1.09-10.95c2.61.23 5.27.4 7.98.5 18.67.72 41.33.83 64 .01 5.3-.19 10.25-.64 14.86-1.33l1.42 9.9c-4.66.7-9.54 1.31-14.62 1.83 15.09 9.5 19.42 21.42 19.42 53.67s-.43 36.58-.33 44" fill="#000"/><g><path d="M196.917 156.216c0-17.627-9.588-31.917-21.416-31.917-11.829 0-21.417 14.29-21.417 31.917 0 17.627 9.588 29.917 21.417 29.917 11.828 0 21.416-12.29 21.416-29.917m115.75 0c0-17.627-9.588-31.917-21.417-31.917-11.828 0-21.416 14.29-21.416 31.917 0 17.627 9.588 29.917 21.416 29.917 11.83 0 21.417-12.29 21.417-29.917" fill="#FFF"/><path d="M231.834 205.3c-7.655 0-13.25-6.577-13.25-10a1.5 1.5 0 1 1 3 0c0 1.692 4.253 7 10.25 7 5.2 0 9.083-3.695 9.083-7a1.5 1.5 0 1 1 3 0c0 4.73-4.962 10-12.083 10m5-22.417a5.167 5.167 0 1 1-10.334 0 5.167 5.167 0 0 1 10.334 0m-47.25-26.667c0-11.414-6.305-20.667-14.083-20.667-7.779 0-14.084 9.253-14.084 20.667 0 11.414 6.305 20.667 14.084 20.667 7.778 0 14.083-9.253 14.083-20.667m115.75 0c0-11.414-6.305-20.667-14.083-20.667-7.779 0-14.084 9.253-14.084 20.667 0 11.414 6.305 20.667 14.084 20.667 7.778 0 14.083-9.253 14.083-20.667" fill="#B1423A"/></g><g fill="#B0F5DF"><path d="M99.126 221.258c0 1.242-1.511 2.25-3.375 2.25s-3.375-1.008-3.375-2.25 1.51-2.25 3.375-2.25c1.864 0 3.375 1.008 3.375 2.25m10.5 5.709c0 1.242-1.511 2.25-3.375 2.25s-3.375-1.008-3.375-2.25 1.51-2.25 3.375-2.25c1.864 0 3.375 1.008 3.375 2.25m6.416 7.625c0 1.242-1.51 2.25-3.375 2.25-1.864 0-3.375-1.008-3.375-2.25s1.511-2.25 3.375-2.25 3.375 1.008 3.375 2.25m5.625 8.625c0 1.242-1.51 2.25-3.375 2.25-1.864 0-3.375-1.008-3.375-2.25s1.511-2.25 3.375-2.25 3.375 1.008 3.375 2.25m6.417 8.125c0 1.242-1.511 2.25-3.375 2.25s-3.375-1.008-3.375-2.25 1.51-2.25 3.375-2.25c1.864 0 3.375 1.008 3.375 2.25m8.666 6.917c0 1.242-1.51 2.25-3.374 2.25s-3.375-1.008-3.375-2.25 1.51-2.25 3.375-2.25c1.864 0 3.375 1.008 3.375 2.25m12.125 4.5c0 1.242-1.511 2.25-3.375 2.25s-3.375-1.008-3.375-2.25 1.51-2.25 3.375-2.25c1.864 0 3.375 1.008 3.375 2.25m12.166 0c0 1.242-1.51 2.25-3.375 2.25-1.864 0-3.375-1.008-3.375-2.25s1.511-2.25 3.375-2.25 3.375 1.008 3.375 2.25m12.208-1.917c0 1.242-1.51 2.25-3.374 2.25s-3.375-1.008-3.375-2.25 1.51-2.25 3.375-2.25c1.864 0 3.375 1.008 3.375 2.25"/></g></g></svg>