<svg viewBox="0 0 466 409" xmlns="http://www.w3.org/2000/svg" xmlns:xlink="http://www.w3.org/1999/xlink">
    <defs></defs>
    <g id="Page-1" stroke="none" stroke-width="1" fill="none" fill-rule="evenodd">
        <g transform="translate(0.000000, -1.000000)">
            <g id="Group-13" transform="translate(81.000000, 229.466000)">
                <path d="M283.2509,134.75 C283.2509,159.741 225.7869,180 153.6679,180 C81.5489,180 23.0839,159.741 23.0839,134.75 C23.0839,109.759 81.5489,89.5 153.6679,89.5 C225.7869,89.5 283.2509,109.759 283.2509,134.75" id="Fill-1" fill="#62E3FF"></path>
                <path d="M177.5009,179.248 L177.5009,155.394 C177.5009,140.06 188.2509,135.394 188.2509,129.727 C188.2509,119.977 168.6299,130.652 162.5849,136.727 C153.3759,145.977 154.4169,149.601 154.6399,165.104 C154.6969,169.116 154.7139,174.407 154.7079,180 C162.4979,179.98 170.1129,179.723 177.5009,179.248" id="Fill-3" fill="#43AFFF"></path>
                <path d="M117.6215,178.2578 C117.5725,165.0888 117.5005,147.3238 117.5005,140.3528 C117.5005,126.9778 98.5005,119.3528 89.3755,119.3528 C84.7525,119.3528 79.0005,119.5908 79.0005,122.0338 C79.0005,128.2278 96.3755,131.8528 96.3755,144.7278 C96.3755,151.8188 96.2745,165.9988 96.2015,175.3958 C103.0285,176.5578 110.1875,177.5198 117.6215,178.2578" id="Fill-5" fill="#43AFFF"></path>
                <path d="M206.6679,144.2266 C206.8339,132.0596 224.6669,126.2256 224.0009,122.3096 C223.3339,118.3936 209.0739,119.0326 202.4149,121.3536 C183.5279,127.9366 185.4169,143.6436 185.4169,143.6436 L184.9099,178.6936 C192.5619,178.0386 199.9409,177.1496 206.9769,176.0466 C206.8879,154.6946 206.5809,150.5846 206.6679,144.2266" id="Fill-7" fill="#43AFFF"></path>
                <path d="M144.9501,144.1045 C137.3761,127.3525 114.5011,121.6025 114.5011,129.2275 C114.5011,134.3525 119.1261,132.7275 122.2511,144.2275 C123.5121,148.8685 124.1951,164.1205 124.5651,178.8755 C132.3871,179.4925 140.4781,179.8645 148.7651,179.9695 C148.5751,165.3915 147.6701,150.1605 144.9501,144.1045" id="Fill-9" fill="#43AFFF"></path>
                <path d="M4.5849,19.084 C-3.4681,19.084 4.5479,6.438 4.5839,0.751 C4.7219,6.594 12.6379,19.084 4.5849,19.084" id="Fill-11" fill="#62E3FF"></path>
            </g>
            <g id="Group-20" transform="translate(0.000000, 0.466000)">
                <path d="M283.9207,106.5 C324.1907,106.5 334.4207,135 334.4207,157 C334.4207,186.99 319.3307,208.73 281.7807,214.35 C277.1707,215.04 272.2207,215.49 266.9207,215.68 C244.2507,216.5 221.5907,216.39 202.9207,215.67 C200.2107,215.57 197.5507,215.4 194.9407,215.17 C155.7507,211.74 127.9207,194.02 127.9207,154.33 C127.9207,139.3 138.0807,106.5 179.0807,106.5 C183.1407,106.5 209.6507,109 235.2507,109 C257.9807,109 280.9707,106.5 283.9207,106.5" id="Fill-14" fill="#FFC09F"></path>
                <path d="M463.8607,172.02 C464.6707,172.18 465.2107,172.96 465.0607,173.77 C464.9307,174.49 464.2907,175 463.5907,175 C463.5007,175 463.4007,174.99 463.3107,174.98 C442.8607,171.2 413.1007,167.04 362.2807,167.51 C361.3907,170.46 360.3907,173.27 359.3007,175.95 C376.6007,176.53 424.1107,178.38 462.8507,190.23 C463.6507,190.47 464.0907,191.31 463.8507,192.11 C463.6507,192.75 463.0607,193.17 462.4207,193.17 C462.2707,193.17 462.1207,193.15 461.9807,193.1 C422.7007,181.09 374.1607,179.44 358.0207,178.91 C345.5007,206.4 321.2707,218.54 283.2007,224.25 L281.7807,214.35 C319.3307,208.73 334.4207,186.99 334.4207,157 C334.4207,135 324.1907,106.5 283.9207,106.5 C280.9707,106.5 257.9807,109 235.2507,109 C209.6507,109 183.1407,106.5 179.0807,106.5 C138.0807,106.5 127.9207,139.3 127.9207,154.33 C127.9207,194.019 155.7507,211.74 194.9407,215.17 L193.8507,226.12 C147.2607,221.4 119.5607,205.01 105.1307,178.81 C55.5907,180 27.4707,187.03 6.8607,192.18 C5.3607,192.56 3.9007,192.92 2.4807,193.28 C2.3607,193.31 2.2407,193.32 2.1207,193.32 C1.4407,193.32 0.8307,192.86 0.6607,192.18 C0.4607,191.38 0.9607,190.56 1.7607,190.36 C3.1807,190.01 4.6407,189.65 6.1307,189.27 C26.6807,184.14 54.6207,177.15 103.5707,175.85 C102.2207,173.14 101.0007,170.34 99.9107,167.45 C80.8707,167.29 22.2007,169.99 2.1107,174.96 C1.9907,174.99 1.8707,175 1.7507,175 C1.0807,175 0.4607,174.54 0.2907,173.86 C0.1007,173.06 0.5907,172.24 1.3907,172.04 C21.3007,167.12 78.5507,164.39 98.8307,164.44 C94.2707,151.02 92.2507,135.65 92.2507,118.48 C92.2507,88 101.7507,76.5 114.5007,60.25 C104.7507,25.5 118.0007,1.75 118.0007,1.75 C118.0007,1.75 138.5007,-2.5 177.2507,25.25 C198.2507,16.25 254.2507,15.5 280.7507,23.25 C297.0007,12.5 326.7507,-2.75 338.7507,1.52 C342.0007,6.75 349.0007,22 343.0007,55.5 C347.0707,62.85 368.2507,78.5 368.3307,122.75 C367.9907,139.07 366.2907,152.85 363.1407,164.5 C413.6707,164.08 443.3907,168.25 463.8607,172.02" id="Fill-16" fill="#000000"></path>
                <path d="M287.6707,323.75 C287.8307,335.92 305.6707,341.75 305.0007,345.67 C304.3307,349.58 290.0707,348.95 283.4107,346.62 C264.5307,340.04 266.4207,324.33 266.4207,324.33 L265.7907,281.21 C265.7907,281.21 267.0807,258 258.5007,258 L258.5007,328.58 C258.5007,343.92 269.2507,348.58 269.2507,354.25 C269.2507,364 249.6307,353.33 243.5807,347.25 C234.3707,338 235.4207,318.38 235.6407,302.87 C235.8507,287.89 235.5007,255.12 235.5007,255.12 L229.2507,255.25 C229.2507,255.25 231.8107,326.83 225.9507,339.87 C218.3707,356.62 195.5007,362.38 195.5007,354.75 C195.5007,349.62 201.1307,351.25 204.2507,339.75 C206.9107,329.97 206.0007,257 206.0007,257 C206.0007,257 198.6707,261.33 198.6707,275 C198.6707,281.25 198.5007,316.99 198.5007,327.62 C198.5007,341 179.5007,348.62 170.3707,348.62 C165.7507,348.62 160.0007,348.39 160.0007,345.94 C160.0007,339.75 177.3707,336.12 177.3707,323.25 C177.3707,312.09 177.1307,283.38 177.1307,283.38 C177.1307,283.38 168.3707,284.88 155.8707,284.88 C124.3707,284.88 114.4107,264.78 109.6707,253.53 C103.5007,238.88 95.5007,232 87.0007,226.5 C81.7807,223.12 80.5807,219.14 86.6207,218 C114.5007,212.75 121.6307,249.62 140.2507,255.5 C153.5407,259.69 170.6307,257.88 179.1307,252.38 C180.2507,241.12 188.3707,231.38 195.1307,226.25 C194.7007,226.21 194.2707,226.17 193.8507,226.12 L194.9407,215.17 C197.5507,215.4 200.2107,215.57 202.9207,215.67 C221.5907,216.39 244.2507,216.5 266.9207,215.68 C272.2207,215.49 277.1707,215.04 281.7807,214.35 L283.2007,224.25 C278.5407,224.95 273.6607,225.56 268.5807,226.08 C283.6707,235.58 288.0007,247.5 288.0007,279.75 C288.0007,312 287.5707,316.33 287.6707,323.75" id="Fill-18" fill="#000000"></path>
            </g>
            <g id="Group-33" transform="translate(154.000000, 124.466000)">
                <path d="M42.9174,32.75 C42.9174,15.123 33.3294,0.833 21.5014,0.833 C9.6724,0.833 0.0844,15.123 0.0844,32.75 C0.0844,50.377 9.6724,62.667 21.5014,62.667 C33.3294,62.667 42.9174,50.377 42.9174,32.75" id="Fill-21" fill="#FFFFFF"></path>
                <path d="M158.6674,32.75 C158.6674,15.123 149.0794,0.833 137.2504,0.833 C125.4224,0.833 115.8344,15.123 115.8344,32.75 C115.8344,50.377 125.4224,62.667 137.2504,62.667 C149.0794,62.667 158.6674,50.377 158.6674,32.75" id="Fill-23" fill="#FFFFFF"></path>
                <path d="M77.8344,81.834 C70.1794,81.834 64.5844,75.257 64.5844,71.834 C64.5844,71.006 65.2554,70.334 66.0844,70.334 C66.9134,70.334 67.5844,71.006 67.5844,71.834 C67.5844,73.526 71.8374,78.834 77.8344,78.834 C83.0334,78.834 86.9174,75.139 86.9174,71.834 C86.9174,71.006 87.5884,70.334 88.4174,70.334 C89.2464,70.334 89.9174,71.006 89.9174,71.834 C89.9174,76.564 84.9554,81.834 77.8344,81.834" id="Fill-25" fill="#B1423A"></path>
                <path d="M82.8344,59.417 C82.8344,62.271 80.5204,64.584 77.6674,64.584 C74.8144,64.584 72.5004,62.271 72.5004,59.417 C72.5004,56.563 74.8144,54.25 77.6674,54.25 C80.5204,54.25 82.8344,56.563 82.8344,59.417" id="Fill-27" fill="#B1423A"></path>
                <path d="M35.5844,32.75 C35.5844,21.336 29.2794,12.083 21.5014,12.083 C13.7224,12.083 7.4174,21.336 7.4174,32.75 C7.4174,44.164 13.7224,53.417 21.5014,53.417 C29.2794,53.417 35.5844,44.164 35.5844,32.75" id="Fill-29" fill="#B1423A"></path>
                <path d="M151.3344,32.75 C151.3344,21.336 145.0294,12.083 137.2514,12.083 C129.4724,12.083 123.1674,21.336 123.1674,32.75 C123.1674,44.164 129.4724,53.417 137.2514,53.417 C145.0294,53.417 151.3344,44.164 151.3344,32.75" id="Fill-31" fill="#B1423A"></path>
            </g>
            <g id="Group-52" transform="translate(92.000000, 219.466000)" fill="#B0F5DF">
                <path d="M7.1259,2.792 C7.1259,4.034 5.6149,5.042 3.7509,5.042 C1.8869,5.042 0.3759,4.034 0.3759,2.792 C0.3759,1.55 1.8869,0.542 3.7509,0.542 C5.6149,0.542 7.1259,1.55 7.1259,2.792" id="Fill-34"></path>
                <path d="M17.6259,8.501 C17.6259,9.743 16.1149,10.751 14.2509,10.751 C12.3869,10.751 10.8759,9.743 10.8759,8.501 C10.8759,7.259 12.3869,6.251 14.2509,6.251 C16.1149,6.251 17.6259,7.259 17.6259,8.501" id="Fill-36"></path>
                <path d="M24.0424,16.126 C24.0424,17.368 22.5314,18.376 20.6674,18.376 C18.8034,18.376 17.2924,17.368 17.2924,16.126 C17.2924,14.884 18.8034,13.876 20.6674,13.876 C22.5314,13.876 24.0424,14.884 24.0424,16.126" id="Fill-38"></path>
                <path d="M29.6674,24.751 C29.6674,25.993 28.1564,27.001 26.2924,27.001 C24.4284,27.001 22.9174,25.993 22.9174,24.751 C22.9174,23.509 24.4284,22.501 26.2924,22.501 C28.1564,22.501 29.6674,23.509 29.6674,24.751" id="Fill-40"></path>
                <path d="M36.0839,32.876 C36.0839,34.118 34.5729,35.126 32.7089,35.126 C30.8449,35.126 29.3339,34.118 29.3339,32.876 C29.3339,31.634 30.8449,30.626 32.7089,30.626 C34.5729,30.626 36.0839,31.634 36.0839,32.876" id="Fill-42"></path>
                <path d="M44.7509,39.793 C44.7509,41.035 43.2399,42.043 41.3759,42.043 C39.5119,42.043 38.0009,41.035 38.0009,39.793 C38.0009,38.551 39.5119,37.543 41.3759,37.543 C43.2399,37.543 44.7509,38.551 44.7509,39.793" id="Fill-44"></path>
                <path d="M56.8759,44.293 C56.8759,45.535 55.3649,46.543 53.5009,46.543 C51.6369,46.543 50.1259,45.535 50.1259,44.293 C50.1259,43.051 51.6369,42.043 53.5009,42.043 C55.3649,42.043 56.8759,43.051 56.8759,44.293" id="Fill-46"></path>
                <path d="M69.0424,44.293 C69.0424,45.535 67.5314,46.543 65.6674,46.543 C63.8034,46.543 62.2924,45.535 62.2924,44.293 C62.2924,43.051 63.8034,42.043 65.6674,42.043 C67.5314,42.043 69.0424,43.051 69.0424,44.293" id="Fill-48"></path>
                <path d="M81.2509,42.376 C81.2509,43.618 79.7399,44.626 77.8759,44.626 C76.0119,44.626 74.5009,43.618 74.5009,42.376 C74.5009,41.134 76.0119,40.126 77.8759,40.126 C79.7399,40.126 81.2509,41.134 81.2509,42.376" id="Fill-50"></path>
            </g>
        </g>
    </g>
</svg>
