<svg enable-background="new 0 0 480.006 480.006" version="1.1" viewBox="0 0 480.01 480.01" xml:space="preserve" xmlns="http://www.w3.org/2000/svg" fill="#3d6cb9">
	<path d="m283.77 336.93-136-72c-2.344-1.232-5.144-1.232-7.488 0l-36.28 19.2v-148.3c8.466-6.368 14.075-15.822 15.608-26.304 5.309 1.644 10.835 2.48 16.392 2.48 30.928 0 56-25.072 56-56s-25.072-56-56-56-56 25.072-56 56c0 2.677 0.19 5.35 0.568 8h-0.568c-22.08 0.026-39.974 17.92-40 40 0.028 2.691 0.337 5.372 0.92 8h-0.92c-4.418 0-8 3.582-8 8v202.24l-27.744 14.688c-3.906 2.065-5.398 6.906-3.332 10.812 1.387 2.622 4.11 4.262 7.076 4.26h16v120c0 4.418 3.582 8 8 8h224c4.418 0 8-3.582 8-8v-120h16c3.677 2e-3 6.882-2.503 7.768-6.072 0.89-3.562-0.759-7.273-4-9zm-203.7-256.86c2.958 8e-3 5.889 0.563 8.645 1.637 4.118 1.601 8.754-0.439 10.355-4.557 0.745-1.916 0.724-4.046-0.06-5.947-8.536-20.529 1.186-44.091 21.714-52.627 20.529-8.536 44.091 1.185 52.627 21.714s-1.185 44.091-21.714 52.627c-11.844 4.925-25.325 3.911-36.299-2.73-3.778-2.291-8.698-1.085-10.989 2.693-1.073 1.77-1.419 3.888-0.963 5.907 1.25 5.208 0.583 10.692-1.88 15.448-1.48-1.423-3.451-2.222-5.504-2.232h-38.343c-1.03-2.545-1.591-5.255-1.656-8 0.037-13.255 10.812-23.97 24.067-23.933zm-32.067 47.933h40v164.59l-40 21.176v-185.77zm152 336h-112v-64h112v64zm48-120v120h-32v-72c0-4.418-3.582-8-8-8h-128c-4.418 0-8 3.582-8 8v72h-32v-120c1e-3 -2.448-1.119-4.762-3.04-6.28l107.04-56.664 107.04 56.664c-1.921 1.518-3.041 3.832-3.04 6.28z"/>
	<path d="m480.01 128v-32c0.014-1.238-0.26-2.462-0.8-3.576l-24-48c-1.362-2.725-4.153-4.441-7.2-4.424h-35.512l-4.56-33.096c-0.547-3.958-3.932-6.906-7.928-6.904h-48c-3.996-2e-3 -7.381 2.946-7.928 6.904l-4.56 33.096h-35.512c-3.047-0.017-5.838 1.699-7.2 4.424l-24 48c-0.54 1.114-0.814 2.338-0.8 3.576v32h16v-24h42.68l-50.608 366.9c-0.605 4.377 2.452 8.415 6.829 9.021 0.364 0.05 0.732 0.076 1.099 0.075h176c4.418 2e-3 8.002-3.578 8.003-7.997 0-0.368-0.025-0.735-0.075-1.099l-50.608-366.9h42.68v24h16zm-84.8-96.408 1.136 8.408h-6.208l5.072-8.408zm-19.32 152.41-32.992 0.496 33.112-43.328 33.112 43.336-33.232-0.504zm0.12 24.08 51.032 88.96-51.2-1.04-50.864 1.04 51.032-88.96zm-37.408-44.312 3.808-27.768h17.392l-21.2 27.768zm53.592-27.768h17.416l3.808 27.768-21.224-27.768zm-47.552-16 2.208-16h58.32l2.208 16h-62.736zm8.448-32 23.456-28.152 28.152 28.152h-51.608zm32.792-72-9.872 16.456-9.872-16.456h19.744zm-29.072 15.592 5.072 8.408h-6.208l1.136-8.408zm-63.856 56.408 12.024-24.088 16.088 24.088h-28.112zm26.008-32h40l-22.24 26.648-17.76-26.648zm14.552 144.64 28.568-0.432-37.528 65.392 8.96-64.96zm-15.52 112.54 44.656-0.912-60.448 115.4 15.792-114.49zm-16.76 150.82 74.776-142.76 74.776 142.76h-149.55zm148.58-36.328-60.44-115.39 44.648 0.912 15.792 114.48zm-22.352-162.05-37.52-65.416 28.56 0.432 8.96 64.984zm-5.648-183.13-26.496-26.496h39.744l-13.248 26.496zm15.16 5.504 11.032-22.112 11.056 22.112h-22.088z"/>
	<path d="m192.01 200c-4.418 0-8 3.582-8 8v64h16v-56h96v-16h-104z"/>
	<rect x="104.01" y="352" width="80" height="16"/>
</svg>
