<svg xmlns="http://www.w3.org/2000/svg" viewBox="0 0 56 40"><defs><style>.cls-1{fill:#202884;}</style></defs><title>资源 5</title><g id="图层_2" data-name="图层 2"><g id="Icons"><g id="Communication"><g id="Users"><path class="cls-1" d="M11.6,13.57c.82,4.51,3.82,7.43,7.64,7.43s6.77-2.84,7.64-7.42c.14-.7.81-4.24.85-5.1a7.85,7.85,0,0,0-2.21-5.82,8.77,8.77,0,0,0-12.63.06,7.71,7.71,0,0,0-2.14,5.78C10.8,9.37,11.52,13.15,11.6,13.57Zm2.75-9.48a6.77,6.77,0,0,1,9.73,0,5.87,5.87,0,0,1,1.65,4.35c0,.55-.51,3.25-.82,4.81C24.38,16,22.61,19,19.24,19S14,15.88,13.56,13.2c-.3-1.57-.78-4.27-.82-4.83A5.73,5.73,0,0,1,14.35,4.09Z"/><path class="cls-1" d="M31.46,25.72,19.24,24.08,7.09,25.69c-3,.59-6.27,2.68-6.69,6L0,40H38.77l-.48-7.91C38.08,28.82,35.54,26.44,31.46,25.72ZM1.85,38l.53-6.05c.29-2.33,2.84-3.86,5-4.29L19.23,26.1l11.91,1.59c1.48.26,4.94,1.23,5.15,4.52L36.65,38Z"/><path class="cls-1" d="M33.93,17.46c.67,3.67,3.15,6,6.31,6s5.59-2.31,6.31-6c.11-.56.65-3.36.68-4.06h0a6.37,6.37,0,0,0-1.79-4.72A7.27,7.27,0,0,0,35,8.74a6.26,6.26,0,0,0-1.74,4.69C33.29,14.12,33.82,16.92,33.93,17.46Zm2.52-7.35a5.27,5.27,0,0,1,7.55,0,4.39,4.39,0,0,1,1.24,3.25c0,.4-.39,2.45-.65,3.77-.2,1-1.11,4.41-4.35,4.41-2.61,0-4-2.27-4.34-4.41-.24-1.23-.62-3.35-.65-3.78A4.28,4.28,0,0,1,36.44,10.11Z"/><path class="cls-1" d="M44,40H56l-.11-7.52c-.21-2.71-2.3-4.69-5.66-5.29L40.36,26l-.24,2,9.82,1.18c1.13.2,3.77.94,4,3.44L54.18,38H44Z"/></g></g></g></g></svg>