<svg xmlns="http://www.w3.org/2000/svg" viewBox="0 0 57.21 35.75"><defs><style>.cls-1{fill:#202884;}</style></defs><title>资源 6</title><g id="图层_2" data-name="图层 2"><g id="Icons"><g id="Home_Object" data-name="Home / Object"><path id="Dumbbell" class="cls-1" d="M51.24,7.15H50.05V6a6,6,0,0,0-6-6h-6V16.68H19.07V0h-6a6,6,0,0,0-6,6V7.15H6a6,6,0,0,0-6,6v9.53a6,6,0,0,0,6,6H7.15v1.19a6,6,0,0,0,6,6h6v-17H38.14v17h6a6,6,0,0,0,6-6V28.6h1.19a6,6,0,0,0,6-6V13.11A6,6,0,0,0,51.24,7.15ZM6,26.8a4.64,4.64,0,0,1-4.14-4.16V13.11A4.57,4.57,0,0,1,6,9H7.15V26.8Zm11.32,7.1H13.11A4.52,4.52,0,0,1,9,29.79V6a4.55,4.55,0,0,1,4.08-4.13h4.17Zm30.91-4.1a4.51,4.51,0,0,1-4.1,4.07h-4V1.8h4A4.6,4.6,0,0,1,48.2,6V29.79Zm7.25-7.15a4.7,4.7,0,0,1-4.2,4.16H50.05V9.11h1.19c2,0,4.2,2,4.2,4Z"/></g></g></g></svg>