<svg xmlns="http://www.w3.org/2000/svg" viewBox="0 0 57.21 35.75"><defs><style>.cls-1{fill:#202884}</style></defs><title>资源 6</title><g id="图层_2" data-name="图层 2"><g id="Icons"><g id="Home_Object" data-name="Home / Object"><path id="Dumbbell" class="cls-1" d="M51.24 7.15h-1.19V6a6 6 0 0 0-6-6h-6v16.68H19.07V0h-6a6 6 0 0 0-6 6v1.15H6a6 6 0 0 0-6 6v9.53a6 6 0 0 0 6 6h1.15v1.19a6 6 0 0 0 6 6h6v-17h18.99v17h6a6 6 0 0 0 6-6V28.6h1.19a6 6 0 0 0 6-6v-9.49a6 6 0 0 0-6.09-5.96zM6 26.8a4.64 4.64 0 0 1-4.14-4.16v-9.53A4.57 4.57 0 0 1 6 9h1.15v17.8zm11.32 7.1h-4.21A4.52 4.52 0 0 1 9 29.79V6a4.55 4.55 0 0 1 4.08-4.13h4.17zm30.91-4.1a4.51 4.51 0 0 1-4.1 4.07h-4V1.8h4A4.6 4.6 0 0 1 48.2 6v23.79zm7.25-7.15a4.7 4.7 0 0 1-4.2 4.16h-1.23V9.11h1.19c2 0 4.2 2 4.2 4z"/></g></g></g></svg>