<svg enable-background="new 0 0 512 512" version="1.1" viewBox="0 0 512 512" xml:space="preserve" xmlns="http://www.w3.org/2000/svg" fill="#3d6cb9">
    <path d="m507.68 297.54c-10.294-17.825-33.127-24.009-51.007-13.861-3.246 1.6-44.76 22.003-78.956 36.392-3.818 1.607-5.611 6.006-4.005 9.825s6.004 5.609 9.825 4.005c35.859-15.09 79.548-36.654 79.985-36.869 0.144-0.071 0.284-0.146 0.423-0.226 10.747-6.198 24.539-2.503 30.744 8.241 7.184 12.425-4.033 26.066-9.524 31.639-37.246 30.045-140.31 107.09-174.95 107.09-38.399 0-146.15-22.827-172.5-28.537v-122.54c52.249-7.678 79.928 1.951 137.93 22.167 17.646 6.149 37.637 13.114 61.935 20.883 3.622 1.578 13.67 7.234 9.841 20.019-2.329 7.77-9.839 15.187-20.824 13.136-14.769-2.772-101.68-14.561-105.38-15.061-4.103-0.566-7.885 2.32-8.44 6.427-0.557 4.105 2.32 7.885 6.427 8.44 0.9 0.122 90.228 12.237 104.63 14.94 2.234 0.419 4.404 0.617 6.501 0.617 15.928 0 27.641-11.431 31.464-24.194 4.023-13.431-0.159-30.433-18.536-38.213-0.026-0.012-0.052-0.023-0.079-0.035-0.023-0.01-0.045-0.022-0.069-0.031-0.102-0.043-0.204-0.072-0.307-0.11s-0.202-0.082-0.309-0.116c-24.271-7.753-44.268-14.722-61.912-20.87-57.847-20.157-88.331-30.763-142.87-23.149v-6.272c0-4.144-3.358-7.502-7.502-7.502h-22.499v-7.498c0-4.144-3.358-7.502-7.502-7.502h-92.707c-4.144 0-7.502 3.358-7.502 7.502v164.99c0 4.143 3.358 7.502 7.502 7.502 4.143 0 7.502-3.359 7.502-7.502v-157.49h77.702v180h-14.996v-7.498c0-4.144-3.358-7.502-7.502-7.502s-7.502 3.358-7.502 7.502v7.498h-55.204c-4.144 0-7.502 3.358-7.502 7.502s3.358 7.502 7.502 7.502h92.706c4.144 0 7.502-3.358 7.502-7.502v-7.879h22.499c4.144 0 7.502-3.359 7.502-7.502v-5.301c31.388 6.782 133.54 28.184 172.5 28.184 20.502 0 56.856-18.267 111.14-55.841 39.147-27.099 73.223-54.566 73.562-54.84 0.208-0.168 0.406-0.347 0.595-0.535 16.298-16.32 20.849-35.022 12.175-50.026zm-384.97 123.62v0.02 7.223h-14.996v-149.62h14.997v142.38z"/>
    <path d="m420.31 53.223h-230.06c-15.167 0-27.507 12.34-27.507 27.507v130.04c0 15.167 12.34 27.507 27.507 27.507h230.06c15.167 0 27.507-12.34 27.507-27.507v-130.04c0-15.167-12.341-27.507-27.507-27.507zm-242.56 27.507c0-6.895 5.608-12.503 12.503-12.503h230.06c6.894 0 12.503 5.608 12.503 12.503v2.504h-255.06v-2.504zm255.06 130.04c0 6.894-5.608 12.503-12.503 12.503h-230.06c-6.895 0-12.503-5.608-12.503-12.503v-72.514h255.06v72.514zm-255.06-87.518v-25.012h255.06v25.012h-255.06z"/>
    <path d="m270.28 173.26h-70.021c-4.144 0-7.502 3.358-7.502 7.502s3.358 7.502 7.502 7.502h70.021c4.144 0 7.502-3.358 7.502-7.502s-3.358-7.502-7.502-7.502z"/>
    <path d="m410.31 173.26h-20.005c-4.144 0-7.502 3.358-7.502 7.502s3.358 7.502 7.502 7.502h20.005c4.143 0 7.502-3.358 7.502-7.502s-3.358-7.502-7.502-7.502z"/>
</svg>
