<svg xmlns="http://www.w3.org/2000/svg" viewBox="0 0 48 48"><defs><style>.cls-1{fill:#202884;}</style></defs><title>资源 4</title><g id="图层_2" data-name="图层 2"><g id="Icons"><g id="Food"><g id="Watermelon"><path class="cls-1" d="M24,0,0,41l.86.5A45.84,45.84,0,0,0,24,48a45.85,45.85,0,0,0,23.13-6.5L48,41ZM41.63,33.54A37,37,0,0,1,24,38,37.83,37.83,0,0,1,6.3,33.66L24,4ZM24,46A43.8,43.8,0,0,1,2.74,40.26L5.3,35.39A39.26,39.26,0,0,0,24,40a39,39,0,0,0,18.63-4.73l2.63,5A43.8,43.8,0,0,1,24,46Z"/><circle class="cls-1" cx="27.6" cy="27" r="2"/><circle class="cls-1" cx="20" cy="27" r="2"/><circle class="cls-1" cx="24" cy="19" r="2"/></g></g></g></g></svg>