<svg enable-background="new 0 0 480.001 480.001" version="1.1" viewBox="0 0 480 480" xml:space="preserve" xmlns="http://www.w3.org/2000/svg" fill="#3d6cb9">
    <path d="m152 239.99h-32v-32c0-4.418-3.582-8-8-8h-32c-4.418 0-8 3.582-8 8v32h-32c-4.418 0-8 3.582-8 8v32c0 4.418 3.582 8 8 8h32v32c0 4.418 3.582 8 8 8h32c4.418 0 8-3.582 8-8v-32h32c4.418 0 8-3.582 8-8v-32c0-4.418-3.582-8-8-8zm-8 32h-32c-4.418 0-8 3.582-8 8v32h-16v-32c0-4.418-3.582-8-8-8h-32v-16h32c4.418 0 8-3.582 8-8v-32h16v32c0 4.418 3.582 8 8 8h32v16z"/>
    <path d="m403.4 176.79c-1.059-0.519-2.221-0.793-3.4-0.8h-312c-48.577 0.057-87.943 39.423-88 88v96c0.046 48.601 39.481 87.963 88.082 87.918 36.23-0.034 68.736-22.269 81.902-56.022 22.617-0.954 41.494-17.58 45.296-39.896h49.44c3.802 22.316 22.679 38.942 45.296 39.896 17.661 45.279 68.684 67.667 113.96 50.006 33.753-13.166 55.988-45.672 56.022-81.902v-96c0.152-44.24-32.709-81.648-76.6-87.2zm-203.61 171.65c-1.899 16.011-15.671 27.947-31.79 27.551-0.974-7e-3 -1.947-0.076-2.912-0.208-17.133-2.032-29.375-17.569-27.343-34.702s17.569-29.375 34.702-27.343 29.375 17.569 27.343 34.702zm112.21 27.551c-17.673 0-32-14.327-32-32-0.038-17.673 14.258-32.031 31.931-32.069s32.031 14.258 32.069 31.931c0.036 16.722-12.81 30.652-29.48 31.969-0.835 0.113-1.677 0.169-2.52 0.169zm152-16c0.025 39.764-32.191 72.02-71.956 72.044-28.297 0.017-53.981-16.542-65.644-42.324 2.416-0.767 4.768-1.724 7.032-2.864l0.208-0.128c2.363-1.219 4.622-2.632 6.752-4.224 0.728-0.536 1.368-1.168 2.064-1.744 1.414-1.151 2.763-2.379 4.04-3.68 0.728-0.76 1.376-1.6 2.056-2.4 1.097-1.277 2.125-2.613 3.08-4 0.608-0.888 1.176-1.792 1.72-2.728 0.857-1.477 1.634-3 2.328-4.56 0.432-0.96 0.872-1.904 1.248-2.896 0.636-1.76 1.17-3.555 1.6-5.376 0.216-0.888 0.496-1.744 0.664-2.648 0.525-2.794 0.795-5.629 0.808-8.472-0.026-26.499-21.501-47.974-48-48-2.701 0.018-5.396 0.262-8.056 0.728-0.32 0.056-0.64 0.088-0.96 0.152-2.448 0.477-4.855 1.143-7.2 1.992l-1.184 0.44c-2.254 0.881-4.438 1.929-6.536 3.136l-1.04 0.632c-2.092 1.268-4.084 2.694-5.96 4.264-0.208 0.176-0.392 0.368-0.592 0.544-1.923 1.659-3.711 3.471-5.344 5.416l-0.088 0.104c-1.612 1.968-3.068 4.06-4.352 6.256-0.16 0.28-0.344 0.544-0.504 0.8-1.2 2.137-2.23 4.365-3.08 6.664-0.152 0.392-0.296 0.8-0.432 1.176-0.815 2.333-1.443 4.727-1.88 7.16 0 0.176-0.104 0.328-0.136 0.504h-49.32c0-0.176-0.104-0.328-0.136-0.504-0.437-2.433-1.065-4.827-1.88-7.16-0.136-0.4-0.28-0.8-0.432-1.176-0.85-2.299-1.88-4.527-3.08-6.664-0.16-0.288-0.344-0.552-0.504-0.8-1.284-2.196-2.74-4.288-4.352-6.256l-0.088-0.104c-1.633-1.945-3.421-3.757-5.344-5.416-0.2-0.176-0.384-0.368-0.592-0.544-1.876-1.57-3.868-2.996-5.96-4.264l-1.04-0.632c-2.098-1.207-4.282-2.255-6.536-3.136l-1.184-0.44c-2.345-0.849-4.752-1.515-7.2-1.992-0.32-0.064-0.64-0.096-0.96-0.152-2.658-0.466-5.35-0.709-8.048-0.728-26.499 0.026-47.974 21.501-48 48 0.01 2.84 0.278 5.673 0.8 8.464 0.168 0.92 0.456 1.792 0.68 2.696 0.417 1.791 0.935 3.556 1.552 5.288 0.392 1.048 0.856 2.04 1.312 3.048 0.657 1.471 1.388 2.908 2.192 4.304 0.6 1.056 1.24 2.064 1.92 3.064 0.8 1.208 1.72 2.4 2.656 3.496 0.8 1.008 1.656 2 2.568 2.944s1.912 1.8 2.912 2.672 2.096 1.904 3.248 2.744c0.88 0.64 1.848 1.168 2.776 1.752 2.549 1.61 5.246 2.971 8.056 4.064 0.976 0.384 1.904 0.864 2.904 1.184-16.419 36.217-59.088 52.266-95.305 35.847-25.736-11.667-42.268-37.31-42.271-65.567v-96c0.044-39.746 32.254-71.956 72-72h304c2.464 0 4.864 0.144 7.264 0.368 36.833 3.589 64.881 34.625 64.736 71.632v96z"/>
    <path d="m168 319.99c-13.255 0-24 10.745-24 24s10.745 24 24 24 24-10.745 24-24-10.745-24-24-24zm0 32c-4.418 0-8-3.582-8-8s3.582-8 8-8 8 3.582 8 8-3.582 8-8 8z"/>
    <path d="m312 319.99c-13.255 0-24 10.745-24 24s10.745 24 24 24 24-10.745 24-24-10.745-24-24-24zm0 32c-4.418 0-8-3.582-8-8s3.582-8 8-8 8 3.582 8 8-3.582 8-8 8z"/>
    <path d="m384 247.99c13.255 0 24-10.745 24-24s-10.745-24-24-24-24 10.745-24 24 10.745 24 24 24zm0-32c4.418 0 8 3.582 8 8s-3.582 8-8 8-8-3.582-8-8 3.582-8 8-8z"/>
    <path d="m368 263.99c0-13.255-10.745-24-24-24s-24 10.745-24 24 10.745 24 24 24 24-10.745 24-24zm-24 8c-4.418 0-8-3.582-8-8s3.582-8 8-8 8 3.582 8 8-3.582 8-8 8z"/>
    <path d="m424 239.99c-13.255 0-24 10.745-24 24s10.745 24 24 24 24-10.745 24-24-10.745-24-24-24zm0 32c-4.418 0-8-3.582-8-8s3.582-8 8-8 8 3.582 8 8-3.582 8-8 8z"/>
    <path d="m384 279.99c-13.255 0-24 10.745-24 24s10.745 24 24 24 24-10.745 24-24-10.745-24-24-24zm0 32c-4.418 0-8-3.582-8-8s3.582-8 8-8 8 3.582 8 8-3.582 8-8 8z"/>
    <path d="m224 271.99h-16c-4.418 0-8 3.582-8 8s3.582 8 8 8h16c4.418 0 8-3.582 8-8s-3.582-8-8-8z"/>
    <path d="m272 271.99h-16c-4.418 0-8 3.582-8 8s3.582 8 8 8h16c4.418 0 8-3.582 8-8s-3.582-8-8-8z"/>
    <path d="m143.64 88.022c0.067-0.064 0.132-0.13 0.197-0.197 53.154-53.012 139.18-53.012 192.34 0 3.178 3.07 8.242 2.982 11.312-0.196 2.994-3.1 2.994-8.015 0-11.116-59.4-59.262-155.56-59.262-214.96 0-3.178 3.069-3.266 8.134-0.197 11.312 3.07 3.178 8.134 3.266 11.312 0.197z"/>
    <path d="m319.2 112.79c4.418-1e-3 7.999-3.583 7.998-8.002 0-2.121-0.843-4.154-2.342-5.654-46.884-46.804-122.81-46.804-169.7 0-3.069 3.178-2.981 8.243 0.197 11.312 3.1 2.994 8.015 2.994 11.115 0 40.638-40.553 106.43-40.553 147.07 0 1.5 1.5 3.534 2.344 5.656 2.344z"/>
    <path d="m296.57 135.42c4.418-1e-3 7.999-3.583 7.998-8.002 0-2.121-0.843-4.154-2.342-5.654-34.388-34.311-90.06-34.311-124.45 0-3.069 3.178-2.981 8.243 0.197 11.312 3.1 2.994 8.015 2.994 11.115 0 28.134-28.078 73.69-28.078 101.82 0 1.5 1.5 3.534 2.344 5.656 2.344z"/>
    <path d="m200.4 144.4-4e-3 4e-3c-3.178 3.069-3.266 8.134-0.197 11.312s8.134 3.266 11.312 0.197c0.067-0.064 0.132-0.13 0.197-0.197 15.619-15.623 40.946-15.626 56.569-7e-3 3e-3 3e-3 5e-3 5e-3 8e-3 7e-3 3.178 3.07 8.242 2.982 11.312-0.196 2.994-3.1 2.994-8.015 0-11.116-21.869-21.87-57.326-21.872-79.197-4e-3z"/>
</svg>
