<svg viewBox="0 0 158 212" xmlns="http://www.w3.org/2000/svg" xmlns:xlink="http://www.w3.org/1999/xlink">
    <defs>
        <polygon id="path-1" points="0.7467 0.988 30.4537 0.988 30.4537 30.6943 0.7467 30.6943"></polygon>
    </defs>
    <g id="Page-1" stroke="none" stroke-width="1" fill="none" fill-rule="evenodd">
        <g transform="translate(0.000000, -1.000000)">
            <path d="M0.0054,53.7649 C0.0054,53.7649 -1.4956,85.5769 45.6744,131.8889 C92.8434,178.2009 98.2044,197.0119 95.6314,210.0119 L129.9364,210.0119 C129.9364,210.0119 133.0544,156.2689 79.8814,118.5329 C79.8814,118.5329 43.2774,85.9779 37.3124,60.1299 C37.3124,60.1299 19.2934,60.1209 6.7564,50.0369 C6.7564,50.0369 -0.0046,45.9829 0.0054,53.7649" id="Fill-1" fill="#003366"></path>
            <path d="M73.0206,127.2444 C82.4926,133.9664 90.1486,141.2024 96.3846,148.5534 C100.9336,143.7014 106.0246,138.4954 111.7426,132.8814 C158.9116,86.5694 157.4116,53.7654 157.4116,53.7654 C157.4206,45.9824 150.6596,50.2854 150.6596,50.2854 C138.1226,60.3694 120.1046,60.6264 120.1046,60.6264 C114.1396,86.4744 77.5346,119.5254 77.5346,119.5254 C75.0566,121.2844 72.7396,123.0894 70.5006,124.9154 C72.0856,126.4104 73.0206,127.2444 73.0206,127.2444" id="Fill-3" fill="#003366"></path>
            <path d="M72.5684,177.4905 C66.4814,169.6195 58.3624,160.4055 47.6224,149.4305 C25.7204,180.9075 27.4794,212.0115 27.4794,212.0115 L61.7844,212.0115 C60.2624,204.0115 61.5224,193.8895 72.5684,177.4905" id="Fill-5" fill="#003366"></path>
            <path d="M61.4317,63.012 L95.4217,63.012 C95.4217,63.012 99.8627,62.387 98.7797,68.267 C97.2397,76.629 78.8907,93.573 78.8907,93.573 C78.8907,93.573 65.4757,81.116 59.4997,69.414 C59.4997,69.414 57.0867,63.012 61.4317,63.012" id="Fill-7" fill="#003366"></path>
            <path d="M138.3355,27.8601 C138.3355,36.0631 131.6855,42.7131 123.4825,42.7131 C115.2795,42.7131 108.6295,36.0631 108.6295,27.8601 C108.6295,19.6561 115.2795,13.0061 123.4825,13.0061 C131.6855,13.0061 138.3355,19.6561 138.3355,27.8601" id="Fill-9" fill="#003366"></path>
            <path d="M50.857,27.8601 C50.857,36.0631 44.207,42.7131 36.004,42.7131 C27.801,42.7131 21.15,36.0631 21.15,27.8601 C21.15,19.6561 27.801,13.0061 36.004,13.0061 C44.207,13.0061 50.857,19.6561 50.857,27.8601" id="Fill-11" fill="#003366"></path>
            <g id="Group-15" transform="translate(65.000000, 0.012000)">
                <mask id="mask-2" fill="white">
                    <use xlink:href="#path-1"></use>
                </mask>
                <g id="Clip-14"></g>
                <path d="M30.4537,15.8413 C30.4537,24.0443 23.8037,30.6943 15.6007,30.6943 C7.3977,30.6943 0.7467,24.0443 0.7467,15.8413 C0.7467,7.6373 7.3977,0.9873 15.6007,0.9873 C23.8037,0.9873 30.4537,7.6373 30.4537,15.8413" id="Fill-13" fill="#003366" mask="url(#mask-2)"></path>
            </g>
        </g>
    </g>
</svg>
