<svg xmlns="http://www.w3.org/2000/svg" viewBox="0 0 25 25"><defs><style>.cls-1{fill:#fff}.cls-2{fill-rule:evenodd}</style></defs><title>weixin</title><g id="图层_2" data-name="图层 2"><g id="图层_1-2" data-name="图层 1"><circle class="cls-1" cx="12.5" cy="12.5" r="12.5"/><path class="cls-2" d="M15.36 10.23a4.58 4.58 0 0 1 .51 0c-.46-2.14-2.75-3.73-5.36-3.73-2.92 0-5.31 2-5.31 4.52a4.35 4.35 0 0 0 2.12 3.58l-.53 1.6 1.86-.93a9.09 9.09 0 0 0 1.86.27h.5a4 4 0 0 1-.16-1.11 4.35 4.35 0 0 1 4.51-4.2m-2.89-1.55a.82.82 0 1 1-.82.82.82.82 0 0 1 .82-.82m-3.72 1.66a.82.82 0 1 1 .82-.82.82.82 0 0 1-.82.82m11.42 4c0-2.12-2.12-3.85-4.51-3.85s-4.52 1.73-4.52 3.85 2 3.85 4.52 3.85a6.67 6.67 0 0 0 1.59-.19l1.46.8-.4-1.33a4 4 0 0 0 1.86-3.06m-5.9-.6a.58.58 0 1 1 .58-.58.58.58 0 0 1-.58.58m2.92 0a.58.58 0 1 1 .58-.58.58.58 0 0 1-.58.58m0 0z"/></g></g></svg>