<svg xmlns="http://www.w3.org/2000/svg" viewBox="0 0 214.761 214.761"><defs><style>.cls-1{fill:#425bdb}.cls-2{fill:#fff}.cls-3{clip-path:url(#clip-path)}.cls-4{fill:#fb6}.cls-5{fill:none;stroke:#fb6;stroke-linecap:round;stroke-miterlimit:10;stroke-width:6px}.cls-6{fill:#739be5}</style><clipPath id="clip-path"><path id="Screen_Shot_2018-08-28_at_4.38.24_PM" data-name="Screen Shot 2018-08-28 at 4.38.24 PM" class="cls-1" transform="translate(1733.46 370.222)" d="M0 0h196.856v196.856H0z"/></clipPath></defs><g id="Group_447" data-name="Group 447" transform="translate(-5852.507 -4852.27)"><path id="Rectangle_231" data-name="Rectangle 231" class="cls-2" transform="translate(5852.507 4852.27)" d="M0 0h214.761v214.761H0z"/><g id="Mask_Group_3" data-name="Mask Group 3" class="cls-3" transform="translate(4128 4491)"><g id="Group_441" data-name="Group 441"><path id="Screen_Shot_2018-08-28_at_4.38.24_PM-2" data-name="Screen Shot 2018-08-28 at 4.38.24 PM" class="cls-1" transform="translate(1733.46 370.222)" d="M0 0h196.856v196.856H0z"/><g id="Group_440" data-name="Group 440" transform="translate(-2 -3)"><g id="Group_439" data-name="Group 439"><g id="Group_437" data-name="Group 437" transform="translate(1782.686 421.221)"><path id="Path_423" data-name="Path 423" class="cls-4" d="M97.914 48.8A48.807 48.807 0 0 0 15.3 13.6a2.9 2.9 0 1 0 4 4.2 43.009 43.009 0 0 1 61.494 60.083 42.981 42.981 0 0 1-62.451 1.061c.048-.193.1-.434.145-.627.048-.145.1-.338.145-.482a4.243 4.243 0 0 1 .241-.723l.145-.434c.1-.289.193-.579.289-.82a3.074 3.074 0 0 0 .1-.338c.289-.772.579-1.495.916-2.218a2.351 2.351 0 0 0 .145-.338c.145-.241.241-.482.386-.772.048-.145.145-.241.193-.386a4.82 4.82 0 0 1 .386-.675c.1-.145.145-.289.241-.434.145-.193.241-.386.386-.579l.289-.434c.145-.193.241-.386.386-.579l.289-.434c.145-.193.241-.338.386-.53a1.3 1.3 0 0 1 .338-.386c.145-.193.289-.338.434-.53a2.757 2.757 0 0 1 .338-.386c.145-.145.289-.338.434-.482a2.91 2.91 0 0 1 .386-.386 4.348 4.348 0 0 0 .434-.482l.386-.386a4.347 4.347 0 0 1 .482-.434c.145-.145.289-.241.386-.338.145-.145.338-.289.482-.434.145-.1.289-.241.434-.338a3.379 3.379 0 0 1 .482-.386c.145-.1.289-.241.434-.338.193-.145.338-.241.53-.386l.434-.289c.193-.1.338-.241.53-.338a4.24 4.24 0 0 1 .482-.289c.193-.1.338-.241.53-.338.145-.1.338-.193.482-.289a5.26 5.26 0 0 0 .53-.289 2.253 2.253 0 0 1 .482-.241l.579-.289c.145-.1.338-.145.482-.241a2.95 2.95 0 0 1 .579-.241 2.015 2.015 0 0 1 .482-.193c.193-.1.386-.145.579-.241.193-.048.338-.145.53-.193a2.388 2.388 0 0 1 .627-.193 2.35 2.35 0 0 0 .53-.193c.193-.048.434-.145.627-.193s.338-.1.53-.145l.627-.145c.193-.045.338-.1.53-.145.241-.048.434-.1.675-.145.193-.048.338-.048.53-.1a3.783 3.783 0 0 1 .675-.1c.193-.048.338-.048.53-.1.241-.048.482-.048.723-.1.145 0 .338-.048.482-.048.289 0 .53-.048.82-.048a1.335 1.335 0 0 0 .434-.048c.434 0 .82-.048 1.254-.048h7.137a27.767 27.767 0 0 1 21.509 10.191 2.877 2.877 0 0 0 4.437-3.665 33.682 33.682 0 0 0-17.313-11.14 18.47 18.47 0 1 0-24.5 0c-.1.048-.193.048-.289.1-.386.1-.772.241-1.157.338-.048 0-.1.048-.145.048l-1.3.434a3.324 3.324 0 0 0-.386.145c-.289.1-.579.241-.868.338-.145.048-.338.145-.482.193-.241.1-.53.241-.772.338-.145.1-.338.145-.482.241a5.271 5.271 0 0 0-.723.386 2.253 2.253 0 0 1-.482.241 5.271 5.271 0 0 1-.723.386 4.242 4.242 0 0 1-.482.289c-.241.145-.482.289-.772.482a2.692 2.692 0 0 0-.386.241 10.327 10.327 0 0 0-.916.627c-.048.048-.145.1-.193.145-.386.241-.723.53-1.109.82-.1.1-.193.145-.289.241a8.807 8.807 0 0 0-.772.627c-.145.1-.241.241-.386.338-.193.193-.434.386-.627.579a2.91 2.91 0 0 0-.386.386l-.579.579-.386.386-.579.579-.385.38c-.193.193-.386.434-.579.627-.1.145-.241.241-.338.386-.241.289-.434.53-.675.82-.048.1-.145.145-.193.241-.289.338-.53.723-.82 1.109-.048.1-.145.193-.193.289-.193.289-.386.53-.579.82l-.289.434-.434.723c-.1.145-.193.338-.289.482a5.271 5.271 0 0 0-.386.723c-.1.145-.193.338-.289.482-.145.241-.241.482-.386.723a5.657 5.657 0 0 0-.241.53 5.358 5.358 0 0 0-.338.772c-.048.145-.145.338-.193.482-.145.289-.241.627-.386.964-.048.1-.1.241-.145.338v.048a42.883 42.883 0 0 1-7.86-24.786 2.893 2.893 0 1 0-5.787 0 48.778 48.778 0 0 0 84.779 32.986A48.9 48.9 0 0 0 97.914 48.8zM49.062 26.234a12.683 12.683 0 1 1-12.683 12.683 12.7 12.7 0 0 1 12.683-12.683zm0 0"/></g><g id="Group_438" data-name="Group 438" transform="translate(1766.701 429.813)"><path id="Path_424" data-name="Path 424" class="cls-4" d="M196.613 71.906A16.336 16.336 0 0 1 180.306 55.6 16.336 16.336 0 0 1 164 71.906a16.336 16.336 0 0 1 16.306 16.306 16.518 16.518 0 0 1 16.307-16.306z" transform="translate(-164 -55.6)"/></g></g><path id="Path_425" data-name="Path 425" class="cls-5" d="M115.092 5.175c17.817-.926 30.21 1.764 31.93 8.115 2.911 10.805-26.506 28.093-65.668 38.59s-73.3 10.232-76.209-.573C3.469 45.131 12.378 36.84 27.637 28.9" transform="translate(1758.056 441.003)"/></g><path id="Path_426" data-name="Path 426" class="cls-6" d="M355.026 196.76a5.692 5.692 0 0 0-5.683-5.683H334.3a4.581 4.581 0 0 1-4.578-4.578 4.581 4.581 0 0 1 4.578-4.578h41.093a6.276 6.276 0 0 0 6.261-6.261 6.276 6.276 0 0 0-6.261-6.261H270.261a6.276 6.276 0 0 0-6.261 6.262 6.276 6.276 0 0 0 6.261 6.261h29.675a5.3 5.3 0 0 1 5.314 5.314 5.3 5.3 0 0 1-5.314 5.314h-1.631a4.94 4.94 0 0 0-4.946 4.946 4.94 4.94 0 0 0 4.946 4.946H349.4a5.648 5.648 0 0 0 5.626-5.682z" transform="translate(1601.093 353.145)"/><path id="Path_427" data-name="Path 427" class="cls-6" d="M357.339 197.456a5.837 5.837 0 0 0-5.827-5.827h-15.43a4.7 4.7 0 0 1-4.694-4.694 4.7 4.7 0 0 1 4.694-4.694h42.138a6.436 6.436 0 0 0 6.42-6.42 6.436 6.436 0 0 0-6.42-6.42h-107.8a6.436 6.436 0 0 0-6.42 6.42 6.436 6.436 0 0 0 6.42 6.42h30.43a5.434 5.434 0 0 1 5.449 5.449 5.434 5.434 0 0 1-5.449 5.449h-1.673a5.066 5.066 0 0 0-5.072 5.072 5.066 5.066 0 0 0 5.072 5.072h52.389a5.791 5.791 0 0 0 5.773-5.827z" transform="translate(1424.093 213.145)"/></g></g></g></svg>