<svg xmlns="http://www.w3.org/2000/svg" viewBox="0 0 1039.528 291.469"><defs><linearGradient id="linear-gradient" x1=".5" x2=".5" y2="1" gradientUnits="objectBoundingBox"><stop offset="0" stop-color="#6b80bf"/><stop offset="1" stop-color="#364060" stop-opacity=".282"/></linearGradient></defs><path id="Path_19" data-name="Path 19" d="M234.98 71.638a50.071 50.071 0 0 0 50.138 50.138h133.033a40.727 40.727 0 0 1 40.779 40.779 40.727 40.727 0 0 1-40.779 40.779h-363C24.735 202.665 0 227.4 0 257.817a55.206 55.206 0 0 0 55.152 55.152h929.224a55.206 55.206 0 0 0 55.152-55.152 55.206 55.206 0 0 0-55.152-55.152H721.987a46.933 46.933 0 0 1-46.8-46.8 46.933 46.933 0 0 1 46.8-46.8h14.373a43.938 43.938 0 0 0 43.787-43.787A43.938 43.938 0 0 0 736.36 21.5H285.118a50.071 50.071 0 0 0-50.138 50.138z" transform="rotate(180 519.764 156.485)" opacity=".3" fill="url(#linear-gradient)"/></svg>