<svg xmlns="http://www.w3.org/2000/svg" viewBox="0 0 205.719 626.29"><defs><style>.cls-1{fill:#fff}.cls-2{fill:#4a60b2}.cls-4{fill:#2996dd}.cls-6{fill:#e84c3d}.cls-7{fill:#a0d4f5}.cls-8{fill:#2486c5}</style></defs><g id="Group_260" data-name="Group 260" transform="translate(-1146 -452)"><path id="Path_325" data-name="Path 325" class="cls-1" d="M77.1 166.208L46.141 41.1 35.5 43.68l30.31 122.528z" transform="translate(1224.968 857.266)"/><path id="Path_326" data-name="Path 326" class="cls-1" d="M26.586 166.308L56.25 43.457 45.61 41.2 15.3 166.308z" transform="translate(1180.034 857.488)"/><path id="Path_327" data-name="Path 327" class="cls-2" d="M43.5 74.1l4.514 18.7H59.3l-4.514-18.7z" transform="translate(1242.763 930.672)"/><path id="Path_328" data-name="Path 328" class="cls-2" d="M19.814 74.1L15.3 93.124h11.286L31.1 74.1z" transform="translate(1180.034 930.672)"/><path id="Line_13" data-name="Line 13" fill="none" stroke="#fff" stroke-width="4" d="M1246.552 515v-63"/><g id="Group_244" data-name="Group 244" transform="translate(-425.948 139.5)"><circle id="Ellipse_66" data-name="Ellipse 66" class="cls-4" cx="93" cy="93" r="93" transform="translate(1579 361)"/><circle id="Ellipse_67" data-name="Ellipse 67" class="cls-4" cx="93" cy="93" r="93" transform="translate(1579 604)"/><path id="Rectangle_125" data-name="Rectangle 125" transform="translate(1579 452)" fill="#f4faff" d="M0 0h186v245H0z"/><path id="Rectangle_126" data-name="Rectangle 126" class="cls-6" transform="translate(1579 466)" d="M0 0h186v13H0z"/><path id="Rectangle_127" data-name="Rectangle 127" class="cls-6" transform="translate(1579 671)" d="M0 0h186v13H0z"/><g id="Group_243" data-name="Group 243"><g id="Group_238" data-name="Group 238" transform="translate(0 -1)"><rect id="Rectangle_128" data-name="Rectangle 128" class="cls-7" width="25" height="25" rx="12.5" transform="translate(1595 493)"/><rect id="Rectangle_129" data-name="Rectangle 129" class="cls-7" width="25" height="25" rx="12.5" transform="translate(1638 493)"/><rect id="Rectangle_130" data-name="Rectangle 130" class="cls-7" width="25" height="25" rx="12.5" transform="translate(1681 493)"/><rect id="Rectangle_131" data-name="Rectangle 131" class="cls-7" width="25" height="25" rx="12.5" transform="translate(1724 493)"/></g><g id="Group_239" data-name="Group 239" transform="translate(0 34)"><rect id="Rectangle_128-2" data-name="Rectangle 128" class="cls-7" width="25" height="25" rx="12.5" transform="translate(1595 493)"/><rect id="Rectangle_129-2" data-name="Rectangle 129" class="cls-7" width="25" height="25" rx="12.5" transform="translate(1638 493)"/><rect id="Rectangle_130-2" data-name="Rectangle 130" class="cls-7" width="25" height="25" rx="12.5" transform="translate(1681 493)"/><rect id="Rectangle_131-2" data-name="Rectangle 131" class="cls-7" width="25" height="25" rx="12.5" transform="translate(1724 493)"/></g><g id="Group_240" data-name="Group 240" transform="translate(0 70)"><rect id="Rectangle_128-3" data-name="Rectangle 128" class="cls-7" width="25" height="25" rx="12.5" transform="translate(1595 493)"/><rect id="Rectangle_129-3" data-name="Rectangle 129" class="cls-7" width="25" height="25" rx="12.5" transform="translate(1638 493)"/><rect id="Rectangle_130-3" data-name="Rectangle 130" class="cls-7" width="25" height="25" rx="12.5" transform="translate(1681 493)"/><rect id="Rectangle_131-3" data-name="Rectangle 131" class="cls-7" width="25" height="25" rx="12.5" transform="translate(1724 493)"/></g><g id="Group_241" data-name="Group 241" transform="translate(0 105)"><rect id="Rectangle_128-4" data-name="Rectangle 128" class="cls-7" width="25" height="25" rx="12.5" transform="translate(1595 493)"/><rect id="Rectangle_129-4" data-name="Rectangle 129" class="cls-7" width="25" height="25" rx="12.5" transform="translate(1638 493)"/><rect id="Rectangle_130-4" data-name="Rectangle 130" class="cls-7" width="25" height="25" rx="12.5" transform="translate(1681 493)"/><rect id="Rectangle_131-4" data-name="Rectangle 131" class="cls-7" width="25" height="25" rx="12.5" transform="translate(1724 493)"/></g><g id="Group_242" data-name="Group 242" transform="translate(0 140)"><rect id="Rectangle_128-5" data-name="Rectangle 128" class="cls-7" width="25" height="25" rx="12.5" transform="translate(1595 493)"/><rect id="Rectangle_129-5" data-name="Rectangle 129" class="cls-7" width="25" height="25" rx="12.5" transform="translate(1638 493)"/><rect id="Rectangle_130-5" data-name="Rectangle 130" class="cls-7" width="25" height="25" rx="12.5" transform="translate(1681 493)"/><rect id="Rectangle_131-5" data-name="Rectangle 131" class="cls-7" width="25" height="25" rx="12.5" transform="translate(1724 493)"/></g></g></g><path id="Path_330" data-name="Path 330" class="cls-8" d="M45.678 47.4C44.388 53.2 36 56.105 27.3 54.171c-8.706-2.257-14.832-8.384-13.22-14.188 1.29-5.8 9.673-8.706 18.379-6.771S46.967 41.6 45.678 47.4z" transform="translate(1176.742 838.391)"/><path id="Path_331" data-name="Path 331" class="cls-1" d="M11.286 234.815L65.779 37.8l-10.641-2.9L0 234.815z" transform="translate(1146 843.474)"/><path id="Path_332" data-name="Path 332" class="cls-8" d="M39.919 47.516c1.29 5.8 9.673 8.706 18.379 6.449s14.832-8.706 13.22-14.188c-1.29-5.8-9.673-8.706-18.379-6.449-8.384 1.935-14.51 8.384-13.22 14.188z" transform="translate(1234.414 838.274)"/><path id="Path_333" data-name="Path 333" class="cls-1" d="M109.846 234.493L53.741 34.9 43.1 37.8l55.46 196.693z" transform="translate(1241.874 843.474)"/><path id="Path_335" data-name="Path 335" class="cls-2" d="M58.5 90.5l5.8 20.314h11.29L69.786 90.5z" transform="translate(1276.13 967.153)"/><g id="Group_254" data-name="Group 254" transform="translate(510 -130)"><circle id="Ellipse_68" data-name="Ellipse 68" class="cls-1" cx="27.633" cy="27.633" r="27.633" transform="translate(709 651)"/><text id="_3" data-name="3" transform="translate(728.96 687.452)" font-size="29" font-family="HelveticaNeue-Bold,Helvetica Neue" font-weight="700" fill="#2996dd"><tspan x="0" y="0">3</tspan></text></g><path id="Path_344" data-name="Path 344" class="cls-2" d="M5.482 90.6L0 110.914h11.286L16.767 90.6z" transform="translate(1146 967.375)"/></g></svg>