<svg xmlns="http://www.w3.org/2000/svg" viewBox="0 0 155.678 473.943"><defs><style>.cls-1{fill:#4a60b2}.cls-2{fill:#fff}.cls-3{fill:none;stroke:#fff;stroke-width:4px}.cls-4{fill:#2996dd}.cls-5{fill:#f4faff}.cls-6{fill:#e84c3d}.cls-7{fill:#a0d4f5}.cls-8{fill:#2486c5}</style></defs><g id="Group_259" data-name="Group 259" transform="translate(-1684 -605)"><path id="Path_334" data-name="Path 334" class="cls-1" d="M4.148 90.6L0 105.973h8.54L12.688 90.6z" transform="translate(1684 972.971)"/><g id="Group_247" data-name="Group 247"><path id="Path_325" data-name="Path 325" class="cls-2" d="M66.977 135.775L43.552 41.1 35.5 43.052l22.937 92.723z" transform="translate(1735.123 901.687)"/><path id="Path_326" data-name="Path 326" class="cls-2" d="M23.84 135.875l22.449-92.967-8.052-1.708L15.3 135.875z" transform="translate(1706.034 901.831)"/><path id="Path_327" data-name="Path 327" class="cls-1" d="M43.5 74.1l3.416 14.153h8.54L52.04 74.1z" transform="translate(1746.644 949.209)"/><path id="Path_328" data-name="Path 328" class="cls-1" d="M18.716 74.1L15.3 88.5h8.54l3.416-14.4z" transform="translate(1706.034 949.209)"/><path id="Line_13" data-name="Line 13" class="cls-3" transform="translate(1760.093 605)" d="M0 47.675V0"/><g id="Group_244" data-name="Group 244" transform="translate(1689.337 641.702)"><ellipse id="Ellipse_66" data-name="Ellipse 66" class="cls-4" cx="70.378" cy="70.378" rx="70.378" ry="70.378"/><ellipse id="Ellipse_67" data-name="Ellipse 67" class="cls-4" cx="70.378" cy="70.378" rx="70.378" ry="70.378" transform="translate(0 183.89)"/><path id="Rectangle_125" data-name="Rectangle 125" class="cls-5" transform="translate(0 68.864)" d="M0 0h140.755v185.403H0z"/><path id="Rectangle_126" data-name="Rectangle 126" class="cls-6" transform="translate(0 79.459)" d="M0 0h140.755v9.838H0z"/><path id="Rectangle_127" data-name="Rectangle 127" class="cls-6" transform="translate(0 234.592)" d="M0 0h140.755v9.838H0z"/><g id="Group_243" data-name="Group 243" transform="translate(12.108 99.134)"><g id="Group_238" data-name="Group 238"><rect id="Rectangle_128" data-name="Rectangle 128" class="cls-7" width="18.919" height="18.919" rx="9.459"/><rect id="Rectangle_129" data-name="Rectangle 129" class="cls-7" width="18.919" height="18.919" rx="9.459" transform="translate(32.54)"/><rect id="Rectangle_130" data-name="Rectangle 130" class="cls-7" width="18.919" height="18.919" rx="9.459" transform="translate(65.08)"/><rect id="Rectangle_131" data-name="Rectangle 131" class="cls-7" width="18.919" height="18.919" rx="9.459" transform="translate(97.621)"/></g><g id="Group_239" data-name="Group 239" transform="translate(0 26.486)"><rect id="Rectangle_128-2" data-name="Rectangle 128" class="cls-7" width="18.919" height="18.919" rx="9.459"/><rect id="Rectangle_129-2" data-name="Rectangle 129" class="cls-7" width="18.919" height="18.919" rx="9.459" transform="translate(32.54)"/><rect id="Rectangle_130-2" data-name="Rectangle 130" class="cls-7" width="18.919" height="18.919" rx="9.459" transform="translate(65.08)"/><rect id="Rectangle_131-2" data-name="Rectangle 131" class="cls-7" width="18.919" height="18.919" rx="9.459" transform="translate(97.621)"/></g><g id="Group_240" data-name="Group 240" transform="translate(0 53.729)"><rect id="Rectangle_128-3" data-name="Rectangle 128" class="cls-7" width="18.919" height="18.919" rx="9.459"/><rect id="Rectangle_129-3" data-name="Rectangle 129" class="cls-7" width="18.919" height="18.919" rx="9.459" transform="translate(32.54)"/><rect id="Rectangle_130-3" data-name="Rectangle 130" class="cls-7" width="18.919" height="18.919" rx="9.459" transform="translate(65.08)"/><rect id="Rectangle_131-3" data-name="Rectangle 131" class="cls-7" width="18.919" height="18.919" rx="9.459" transform="translate(97.621)"/></g><g id="Group_241" data-name="Group 241" transform="translate(0 80.215)"><rect id="Rectangle_128-4" data-name="Rectangle 128" class="cls-7" width="18.919" height="18.919" rx="9.459"/><rect id="Rectangle_129-4" data-name="Rectangle 129" class="cls-7" width="18.919" height="18.919" rx="9.459" transform="translate(32.54)"/><rect id="Rectangle_130-4" data-name="Rectangle 130" class="cls-7" width="18.919" height="18.919" rx="9.459" transform="translate(65.08)"/><rect id="Rectangle_131-4" data-name="Rectangle 131" class="cls-7" width="18.919" height="18.919" rx="9.459" transform="translate(97.621)"/></g><g id="Group_242" data-name="Group 242" transform="translate(0 106.702)"><rect id="Rectangle_128-5" data-name="Rectangle 128" class="cls-7" width="18.919" height="18.919" rx="9.459"/><rect id="Rectangle_129-5" data-name="Rectangle 129" class="cls-7" width="18.919" height="18.919" rx="9.459" transform="translate(32.54)"/><rect id="Rectangle_130-5" data-name="Rectangle 130" class="cls-7" width="18.919" height="18.919" rx="9.459" transform="translate(65.08)"/><rect id="Rectangle_131-5" data-name="Rectangle 131" class="cls-7" width="18.919" height="18.919" rx="9.459" transform="translate(97.621)"/></g></g></g><path id="Path_330" data-name="Path 330" class="cls-8" d="M37.928 43.8c-.976 4.392-7.32 6.588-13.909 5.124-6.588-1.708-11.224-6.344-10-10.736.976-4.392 7.32-6.588 13.909-5.124s10.972 6.347 10 10.736z" transform="translate(1703.902 889.467)"/><path id="Path_331" data-name="Path 331" class="cls-2" d="M8.54 186.186L49.778 37.1l-8.052-2.2L0 186.186z" transform="translate(1684 892.758)"/><path id="Path_332" data-name="Path 332" class="cls-8" d="M39.877 43.879c.976 4.392 7.32 6.588 13.909 4.88s11.224-6.588 10-10.736c-.976-4.392-7.32-6.588-13.909-4.88-6.34 1.463-10.977 6.343-10 10.736z" transform="translate(1741.239 889.392)"/><path id="Path_333" data-name="Path 333" class="cls-2" d="M93.61 185.942L51.152 34.9 43.1 37.1l41.97 148.842z" transform="translate(1746.068 892.758)"/><path id="Path_335" data-name="Path 335" class="cls-1" d="M58.5 90.5l4.392 15.373h8.54L67.04 90.5z" transform="translate(1768.245 972.827)"/></g><g id="Group_256" data-name="Group 256" transform="translate(1025)"><path id="Path_325-2" data-name="Path 325" class="cls-2" d="M66.977 135.775L43.552 41.1 35.5 43.052l22.937 92.723z" transform="translate(710.123 901.687)"/><path id="Path_326-2" data-name="Path 326" class="cls-2" d="M23.84 135.875l22.449-92.967-8.052-1.708L15.3 135.875z" transform="translate(681.034 901.831)"/><g id="Group_227" data-name="Group 227" transform="translate(765.144 1023.309)"><path id="Path_327-2" data-name="Path 327" class="cls-1" d="M43.5 74.1l3.416 14.153h8.54L52.04 74.1z" transform="translate(-43.5 -74.1)"/></g><g id="Group_228" data-name="Group 228" transform="translate(696.334 1023.309)"><path id="Path_328-2" data-name="Path 328" class="cls-1" d="M18.716 74.1L15.3 88.5h8.54l3.416-14.4z" transform="translate(-15.3 -74.1)"/></g><g id="Group_245" data-name="Group 245" transform="translate(664.337 605)"><path id="Line_13-2" data-name="Line 13" class="cls-3" transform="translate(70.756)" d="M0 47.675V0"/><g id="Group_244-2" data-name="Group 244" transform="translate(0 36.702)"><ellipse id="Ellipse_66-2" data-name="Ellipse 66" class="cls-4" cx="70.378" cy="70.378" rx="70.378" ry="70.378"/><ellipse id="Ellipse_67-2" data-name="Ellipse 67" class="cls-4" cx="70.378" cy="70.378" rx="70.378" ry="70.378" transform="translate(0 183.89)"/><path id="Rectangle_125-2" data-name="Rectangle 125" class="cls-5" transform="translate(0 68.864)" d="M0 0h140.755v185.403H0z"/><path id="Rectangle_126-2" data-name="Rectangle 126" class="cls-6" transform="translate(0 79.459)" d="M0 0h140.755v9.838H0z"/><path id="Rectangle_127-2" data-name="Rectangle 127" class="cls-6" transform="translate(0 234.592)" d="M0 0h140.755v9.838H0z"/><g id="Group_243-2" data-name="Group 243" transform="translate(12.108 99.134)"><g id="Group_238-2" data-name="Group 238"><rect id="Rectangle_128-6" data-name="Rectangle 128" class="cls-7" width="18.919" height="18.919" rx="9.459"/><rect id="Rectangle_129-6" data-name="Rectangle 129" class="cls-7" width="18.919" height="18.919" rx="9.459" transform="translate(32.54)"/><rect id="Rectangle_130-6" data-name="Rectangle 130" class="cls-7" width="18.919" height="18.919" rx="9.459" transform="translate(65.08)"/><rect id="Rectangle_131-6" data-name="Rectangle 131" class="cls-7" width="18.919" height="18.919" rx="9.459" transform="translate(97.621)"/></g><g id="Group_239-2" data-name="Group 239" transform="translate(0 26.486)"><rect id="Rectangle_128-7" data-name="Rectangle 128" class="cls-7" width="18.919" height="18.919" rx="9.459"/><rect id="Rectangle_129-7" data-name="Rectangle 129" class="cls-7" width="18.919" height="18.919" rx="9.459" transform="translate(32.54)"/><rect id="Rectangle_130-7" data-name="Rectangle 130" class="cls-7" width="18.919" height="18.919" rx="9.459" transform="translate(65.08)"/><rect id="Rectangle_131-7" data-name="Rectangle 131" class="cls-7" width="18.919" height="18.919" rx="9.459" transform="translate(97.621)"/></g><g id="Group_240-2" data-name="Group 240" transform="translate(0 53.729)"><rect id="Rectangle_128-8" data-name="Rectangle 128" class="cls-7" width="18.919" height="18.919" rx="9.459"/><rect id="Rectangle_129-8" data-name="Rectangle 129" class="cls-7" width="18.919" height="18.919" rx="9.459" transform="translate(32.54)"/><rect id="Rectangle_130-8" data-name="Rectangle 130" class="cls-7" width="18.919" height="18.919" rx="9.459" transform="translate(65.08)"/><rect id="Rectangle_131-8" data-name="Rectangle 131" class="cls-7" width="18.919" height="18.919" rx="9.459" transform="translate(97.621)"/></g><g id="Group_241-2" data-name="Group 241" transform="translate(0 80.215)"><rect id="Rectangle_128-9" data-name="Rectangle 128" class="cls-7" width="18.919" height="18.919" rx="9.459"/><rect id="Rectangle_129-9" data-name="Rectangle 129" class="cls-7" width="18.919" height="18.919" rx="9.459" transform="translate(32.54)"/><rect id="Rectangle_130-9" data-name="Rectangle 130" class="cls-7" width="18.919" height="18.919" rx="9.459" transform="translate(65.08)"/><rect id="Rectangle_131-9" data-name="Rectangle 131" class="cls-7" width="18.919" height="18.919" rx="9.459" transform="translate(97.621)"/></g><g id="Group_242-2" data-name="Group 242" transform="translate(0 106.702)"><rect id="Rectangle_128-10" data-name="Rectangle 128" class="cls-7" width="18.919" height="18.919" rx="9.459"/><rect id="Rectangle_129-10" data-name="Rectangle 129" class="cls-7" width="18.919" height="18.919" rx="9.459" transform="translate(32.54)"/><rect id="Rectangle_130-10" data-name="Rectangle 130" class="cls-7" width="18.919" height="18.919" rx="9.459" transform="translate(65.08)"/><rect id="Rectangle_131-10" data-name="Rectangle 131" class="cls-7" width="18.919" height="18.919" rx="9.459" transform="translate(97.621)"/></g></g></g></g><path id="Path_330-2" data-name="Path 330" class="cls-8" d="M37.928 43.8c-.976 4.392-7.32 6.588-13.909 5.124-6.588-1.708-11.224-6.344-10-10.736.976-4.392 7.32-6.588 13.909-5.124s10.972 6.347 10 10.736z" transform="translate(678.902 889.467)"/><path id="Path_331-2" data-name="Path 331" class="cls-2" d="M8.54 186.186L49.778 37.1l-8.052-2.2L0 186.186z" transform="translate(659 892.758)"/><path id="Path_332-2" data-name="Path 332" class="cls-8" d="M39.877 43.879c.976 4.392 7.32 6.588 13.909 4.88s11.224-6.588 10-10.736c-.976-4.392-7.32-6.588-13.909-4.88-6.34 1.463-10.977 6.343-10 10.736z" transform="translate(716.239 889.392)"/><path id="Path_333-2" data-name="Path 333" class="cls-2" d="M93.61 185.942L51.152 34.9 43.1 37.1l41.97 148.842z" transform="translate(721.068 892.758)"/><g id="Group_252" data-name="Group 252" transform="translate(7.313 8.313)"><circle id="Ellipse_68" data-name="Ellipse 68" class="cls-2" cx="17.844" cy="17.844" r="17.844" transform="translate(709 651)"/><text id="_5" data-name="5" transform="translate(721.597 676.458)" font-size="20" font-family="HelveticaNeue-Bold,Helvetica Neue" font-weight="700" fill="#2996dd"><tspan x="0" y="0">5</tspan></text></g><path id="Path_342" data-name="Path 342" class="cls-1" d="M4.148 90.6L0 105.973h8.54L12.688 90.6z" transform="translate(659 972.971)"/><path id="Path_343" data-name="Path 343" class="cls-1" d="M58.5 90.5l4.392 15.373h8.54L67.04 90.5z" transform="translate(743.246 972.827)"/></g></g></svg>