<svg xmlns="http://www.w3.org/2000/svg" viewBox="0 0 175.5 534.289"><defs><style>.cls-1{fill:#fff}.cls-2{fill:#4a60b2}.cls-4{fill:#2996dd}.cls-6{fill:#e84c3d}.cls-7{fill:#a0d4f5}.cls-8{fill:#2486c5}</style></defs><g id="Group_258" data-name="Group 258" transform="translate(-893 -544)"><g id="Group_249" data-name="Group 249"><path id="Path_325" data-name="Path 325" class="cls-1" d="M70.985 147.83L44.578 41.1 35.5 43.3l25.857 104.53z" transform="translate(955.153 883.696)"/><path id="Path_326" data-name="Path 326" class="cls-1" d="M24.928 147.93l25.307-104.8-9.078-1.93L15.3 147.93z" transform="translate(919.787 883.871)"/><path id="Path_327" data-name="Path 327" class="cls-2" d="M43.5 74.1l3.851 15.955h9.628L53.128 74.1z" transform="translate(969.159 941.471)"/><path id="Path_328" data-name="Path 328" class="cls-2" d="M19.151 74.1L15.3 90.33h9.628l3.851-16.23z" transform="translate(919.787 941.471)"/><path id="Line_13" data-name="Line 13" fill="none" stroke="#fff" stroke-width="4" d="M978.781 597.745V544"/><g id="Group_244" data-name="Group 244" transform="translate(899.016 585.375)"><ellipse id="Ellipse_66" data-name="Ellipse 66" class="cls-4" cx="79.339" cy="79.339" rx="79.339" ry="79.339"/><ellipse id="Ellipse_67" data-name="Ellipse 67" class="cls-4" cx="79.339" cy="79.339" rx="79.339" ry="79.339" transform="translate(0 207.304)"/><path id="Rectangle_125" data-name="Rectangle 125" transform="translate(0 77.632)" fill="#f4faff" d="M0 0h158.677v209.01H0z"/><path id="Rectangle_126" data-name="Rectangle 126" class="cls-6" transform="translate(0 89.576)" d="M0 0h158.677v11.09H0z"/><path id="Rectangle_127" data-name="Rectangle 127" class="cls-6" transform="translate(0 264.462)" d="M0 0h158.677v11.09H0z"/><g id="Group_243" data-name="Group 243" transform="translate(13.65 111.756)"><g id="Group_238" data-name="Group 238"><rect id="Rectangle_128" data-name="Rectangle 128" class="cls-7" width="21.328" height="21.328" rx="10.664"/><rect id="Rectangle_129" data-name="Rectangle 129" class="cls-7" width="21.328" height="21.328" rx="10.664" transform="translate(36.683)"/><rect id="Rectangle_130" data-name="Rectangle 130" class="cls-7" width="21.328" height="21.328" rx="10.664" transform="translate(73.367)"/><rect id="Rectangle_131" data-name="Rectangle 131" class="cls-7" width="21.328" height="21.328" rx="10.664" transform="translate(110.05)"/></g><g id="Group_239" data-name="Group 239" transform="translate(0 29.859)"><rect id="Rectangle_128-2" data-name="Rectangle 128" class="cls-7" width="21.328" height="21.328" rx="10.664"/><rect id="Rectangle_129-2" data-name="Rectangle 129" class="cls-7" width="21.328" height="21.328" rx="10.664" transform="translate(36.683)"/><rect id="Rectangle_130-2" data-name="Rectangle 130" class="cls-7" width="21.328" height="21.328" rx="10.664" transform="translate(73.367)"/><rect id="Rectangle_131-2" data-name="Rectangle 131" class="cls-7" width="21.328" height="21.328" rx="10.664" transform="translate(110.05)"/></g><g id="Group_240" data-name="Group 240" transform="translate(0 60.57)"><rect id="Rectangle_128-3" data-name="Rectangle 128" class="cls-7" width="21.328" height="21.328" rx="10.664"/><rect id="Rectangle_129-3" data-name="Rectangle 129" class="cls-7" width="21.328" height="21.328" rx="10.664" transform="translate(36.683)"/><rect id="Rectangle_130-3" data-name="Rectangle 130" class="cls-7" width="21.328" height="21.328" rx="10.664" transform="translate(73.367)"/><rect id="Rectangle_131-3" data-name="Rectangle 131" class="cls-7" width="21.328" height="21.328" rx="10.664" transform="translate(110.05)"/></g><g id="Group_241" data-name="Group 241" transform="translate(0 90.429)"><rect id="Rectangle_128-4" data-name="Rectangle 128" class="cls-7" width="21.328" height="21.328" rx="10.664"/><rect id="Rectangle_129-4" data-name="Rectangle 129" class="cls-7" width="21.328" height="21.328" rx="10.664" transform="translate(36.683)"/><rect id="Rectangle_130-4" data-name="Rectangle 130" class="cls-7" width="21.328" height="21.328" rx="10.664" transform="translate(73.367)"/><rect id="Rectangle_131-4" data-name="Rectangle 131" class="cls-7" width="21.328" height="21.328" rx="10.664" transform="translate(110.05)"/></g><g id="Group_242" data-name="Group 242" transform="translate(0 120.287)"><rect id="Rectangle_128-5" data-name="Rectangle 128" class="cls-7" width="21.328" height="21.328" rx="10.664"/><rect id="Rectangle_129-5" data-name="Rectangle 129" class="cls-7" width="21.328" height="21.328" rx="10.664" transform="translate(36.683)"/><rect id="Rectangle_130-5" data-name="Rectangle 130" class="cls-7" width="21.328" height="21.328" rx="10.664" transform="translate(73.367)"/><rect id="Rectangle_131-5" data-name="Rectangle 131" class="cls-7" width="21.328" height="21.328" rx="10.664" transform="translate(110.05)"/></g></g></g><path id="Path_330" data-name="Path 330" class="cls-8" d="M41 45.228c-1.1 4.951-8.255 7.427-15.682 5.772-7.427-1.926-12.654-7.152-11.278-12.1 1.1-4.951 8.252-7.427 15.679-5.777S42.1 40.276 41 45.228z" transform="translate(917.196 868.84)"/><path id="Path_331" data-name="Path 331" class="cls-1" d="M9.628 205.448L56.116 37.376 47.038 34.9 0 205.448z" transform="translate(893 872.841)"/><path id="Path_332" data-name="Path 332" class="cls-8" d="M39.893 45.319c1.1 4.951 8.252 7.427 15.679 5.5s12.654-7.427 11.278-12.1c-1.1-4.951-8.252-7.427-15.679-5.5-7.152 1.647-12.378 7.149-11.278 12.1z" transform="translate(962.588 868.748)"/><path id="Path_333" data-name="Path 333" class="cls-1" d="M100.041 205.173L52.178 34.9 43.1 37.376l47.313 167.8z" transform="translate(968.459 872.841)"/></g><path id="Path_334" data-name="Path 334" class="cls-2" d="M4.676 90.6L0 107.93h9.628L14.3 90.6z" transform="translate(893 970.359)"/><path id="Path_335" data-name="Path 335" class="cls-2" d="M58.5 90.5l4.951 17.33h9.628L68.128 90.5z" transform="translate(995.421 970.184)"/><g id="Group_253" data-name="Group 253" transform="translate(248 -48)"><circle id="Ellipse_68" data-name="Ellipse 68" class="cls-1" cx="22.156" cy="22.156" r="22.156" transform="translate(709 651)"/><text id="_4" data-name="4" transform="translate(723.4 680.777)" font-size="24" font-family="HelveticaNeue-Bold,Helvetica Neue" font-weight="700" fill="#2996dd"><tspan x="0" y="0">4</tspan></text></g></g></svg>