<svg id="Layer_1" data-name="Layer 1" xmlns="http://www.w3.org/2000/svg" xmlns:xlink="http://www.w3.org/1999/xlink" viewBox="0 0 1283.92 1284.16"><defs><style>.cls-1{fill:none;}.cls-2{fill:#ececec;}.cls-3{clip-path:url(#clip-path);}.cls-4{fill:#9295b7;}</style><clipPath id="clip-path"><circle class="cls-1" cx="641.89" cy="642.35" r="641.65"/></clipPath></defs><title>Artboard 1</title><g id="Group_453" data-name="Group 453"><circle id="Ellipse_37" data-name="Ellipse 37" class="cls-2" cx="642.05" cy="642.28" r="641.57"/><g id="Group_118" data-name="Group 118"><circle id="Ellipse_38" data-name="Ellipse 38" class="cls-1" cx="641.96" cy="641.96" r="641.84"/></g><g class="cls-3"><g id="Group_119" data-name="Group 119"><ellipse id="Ellipse_39" data-name="Ellipse 39" class="cls-4" cx="936.06" cy="255.65" rx="52.51" ry="99.62" transform="translate(251.58 943.44) rotate(-60.41)"/><ellipse id="Ellipse_40" data-name="Ellipse 40" class="cls-4" cx="1069.57" cy="900.67" rx="54.54" ry="28.71" transform="translate(88.34 1896.86) rotate(-85.53)"/><ellipse id="Ellipse_41" data-name="Ellipse 41" class="cls-4" cx="966.4" cy="1106.14" rx="39.6" ry="20.81" transform="translate(-499.13 1007.57) rotate(-45.01)"/><ellipse id="Ellipse_42" data-name="Ellipse 42" class="cls-4" cx="628.97" cy="1241.45" rx="138.08" ry="72.65" transform="translate(-202.65 125.56) rotate(-9.83)"/><ellipse id="Ellipse_43" data-name="Ellipse 43" class="cls-4" cx="1160.21" cy="617.48" rx="41.92" ry="71.4" transform="translate(-44.01 90.95) rotate(-4.41)"/><ellipse id="Ellipse_44" data-name="Ellipse 44" class="cls-4" cx="114.96" cy="782.85" rx="47.12" ry="81.13" transform="translate(-178.86 48.18) rotate(-13.44)"/><ellipse id="Ellipse_45" data-name="Ellipse 45" class="cls-4" cx="278.45" cy="1047.79" rx="26.02" ry="56.56" transform="translate(-655.26 496.81) rotate(-44.57)"/><ellipse id="Ellipse_46" data-name="Ellipse 46" class="cls-4" cx="184.9" cy="353.65" rx="102.33" ry="62.15" transform="translate(-207.23 279.56) rotate(-51.7)"/><ellipse id="Ellipse_47" data-name="Ellipse 47" class="cls-4" cx="688.26" cy="30.03" rx="68.41" ry="43.07" transform="translate(9.75 149.33) rotate(-12.47)"/><ellipse id="Ellipse_48" data-name="Ellipse 48" class="cls-4" cx="508.39" cy="196.17" rx="48.08" ry="30.26" transform="translate(-30.37 114.41) rotate(-12.47)"/></g></g></g></svg>