<svg xmlns="http://www.w3.org/2000/svg" viewBox="0 0 37.781 43.178"><path id="lock" d="M33.733 18.89h-1.349v-5.271A13.493 13.493 0 1 0 5.4 13.492v5.4H4.048A4.049 4.049 0 0 0 0 22.938v16.191a4.049 4.049 0 0 0 4.048 4.048h29.685a4.049 4.049 0 0 0 4.048-4.048V22.938a4.049 4.049 0 0 0-4.048-4.048zM8.1 13.492a10.795 10.795 0 1 1 21.589 0v5.4H8.1zm25.633 26.987H4.048a1.353 1.353 0 0 1-1.348-1.35V22.938a1.353 1.353 0 0 1 1.349-1.349h29.684a1.353 1.353 0 0 1 1.349 1.349v16.191a1.353 1.353 0 0 1-1.349 1.35z" transform="translate(0 .001)" fill="#fff"/></svg>