<svg xmlns="http://www.w3.org/2000/svg" viewBox="0 0 604.332 495.667"><defs><style>.cls-6{fill:#a7a9ac}</style><linearGradient id="linear-gradient" x1=".916" y1=".167" x2="-.01" y2=".903" gradientUnits="objectBoundingBox"><stop offset="0" stop-color="#c1c1c1"/><stop offset="1" stop-color="#616161" stop-opacity="0"/></linearGradient></defs><g id="Group_166" data-name="Group 166" transform="translate(-487 -633.219)"><path id="Path_245" data-name="Path 245" d="M3343.714 2671.885L3083 2652.6l331.724-184.521 265.484 9.073z" transform="translate(-2596 -1543)" opacity=".5" fill="url(#linear-gradient)"/><g id="Group_165" data-name="Group 165" transform="translate(7 18)"><path id="Path_241" data-name="Path 241" d="M339.776 305.488L13.388 494C6 498.3 0 493.688 0 483.993V215.619c0-9.849 6-21.236 13.388-25.391L339.776 1.567c7.386-4.309 13.388.308 13.388 10v268.376c0 9.849-6.002 21.236-13.388 25.545z" transform="translate(731.168 615.271)" fill="#fff"/><path id="Path_242" data-name="Path 242" d="M353.164 27.573L0 231.469v-16c0-9.849 6-21.236 13.388-25.391L339.776 1.567c7.386-4.309 13.388.308 13.388 10z" transform="translate(731.168 615.271)" fill="#d1d3d4"/><path id="Path_243" data-name="Path 243" d="M100.079 139.008l77.558 6.925c4.617.462 4.617 9.233 0 15.081L100.079 257.5c-4.155 5.23-9.079 4-9.079-2.31V151.78c0-6.309 4.924-13.234 9.079-12.772z" transform="translate(780.203 690.19)" fill="#e84c3d"/><path id="Line_5" data-name="Line 5" fill="none" stroke="#b5b5b5" stroke-miterlimit="10" stroke-width="2" d="M757.328 1069.103l302.074-174.351"/><path id="Path_244" data-name="Path 244" class="cls-6" d="M20.078 306.913c-1.693.923-3.078 0-3.078-2.308v-11.234a7.652 7.652 0 0 1 3.078-5.848c1.693-.923 3.078 0 3.078 2.308v11.234a7.179 7.179 0 0 1-3.078 5.848z" transform="translate(739.328 770.037)"/><g id="Group_165-2" data-name="Group 165" transform="translate(1032.906 628.481)"><ellipse id="Ellipse_55" data-name="Ellipse 55" class="cls-6" cx="6.617" cy="3.693" rx="6.617" ry="3.693" transform="rotate(-66.92 21.955 14.51)"/><ellipse id="Ellipse_56" data-name="Ellipse 56" class="cls-6" cx="6.617" cy="3.693" rx="6.617" ry="3.693" transform="rotate(-66.92 22.734 -.687)"/><ellipse id="Ellipse_57" data-name="Ellipse 57" class="cls-6" cx="6.617" cy="3.693" rx="6.617" ry="3.693" transform="rotate(-66.92 23.707 -15.843)"/></g></g></g></svg>