<svg xmlns="http://www.w3.org/2000/svg" viewBox="0 0 671.285 499.593"><defs><style>.cls-1{fill:#1e2969}.cls-2{fill:#739be5}.cls-4{fill:#fff}.cls-5{opacity:.1}.cls-6{fill:#4a60b2}.cls-8{fill:#ff4d26}.cls-9{fill:#57b3ef}</style></defs><g id="Group_154" data-name="Group 154" transform="translate(-872.964 -522)"><g id="Satellite_Receiver_3_2_" transform="translate(1077.308 568.343)"><g id="Group_131" data-name="Group 131" transform="translate(72.903 318.433)"><g id="Group_128" data-name="Group 128" transform="translate(109.31)"><g id="Group_127" data-name="Group 127"><path id="Path_190" data-name="Path 190" class="cls-1" d="M105.3 222.918V119.7a15.733 15.733 0 0 1 15.8-15.8h57.929a19.181 19.181 0 0 1 17.905 13.692l29.491 103.921a14.127 14.127 0 0 1-2.107 11.937 13.647 13.647 0 0 1-10.884 5.266h-92.686c-8.426 0-15.448-7.372-15.448-15.798zm15.8-106.379a3.147 3.147 0 0 0-3.16 3.16v103.219a3.147 3.147 0 0 0 3.16 3.16h93.388v-1.053L185 121.1c-.7-2.107-3.511-4.564-5.968-4.564z" transform="translate(-105.3 -103.9)"/></g></g><g id="Group_130" data-name="Group 130"><g id="Group_129" data-name="Group 129"><path id="Path_191" data-name="Path 191" class="cls-1" d="M76.745 233.45a14.127 14.127 0 0 1-2.107-11.937l29.492-103.921c2.107-7.724 10.181-13.692 17.905-13.692h57.929a15.733 15.733 0 0 1 15.8 15.8v103.218a15.733 15.733 0 0 1-15.8 15.8H87.629a13.647 13.647 0 0 1-10.884-5.268zm45.641-116.911a6.8 6.8 0 0 0-5.968 4.564L86.927 225.024v.7a1.538 1.538 0 0 0 1.053.351h92.686a3.147 3.147 0 0 0 3.16-3.16V119.7a3.147 3.147 0 0 0-3.16-3.16h-58.28z" transform="translate(-74.165 -103.9)"/></g></g></g><path id="Rectangle_43" data-name="Rectangle 43" class="cls-2" transform="translate(176.595 226.8)" d="M0 0h23.874v53.014H0z"/><path id="Path_192" data-name="Path 192" d="M149.011 111.178l15.8-14.746-50.206-37.566L64.4 21.3l34.406 52.312 34.406 52.312z" transform="translate(-25.781 7.138)" fill="#ed5546"/><path id="Path_193" data-name="Path 193" class="cls-4" d="M65.25 44.018c5.968 6.32 15.8 6.671 21.767.7 6.32-5.968 6.671-15.8.7-21.767-5.968-6.32-15.8-6.671-21.767-.7a15.166 15.166 0 0 0-.7 21.767z" transform="translate(-34.355 -1.185)"/><path id="Path_194" data-name="Path 194" class="cls-5" d="M87.431 20.907c-.7-.7-1.755-1.4-2.458-2.107a16.121 16.121 0 0 1-4.563 14.394A15.364 15.364 0 0 1 61.1 34.6a16.126 16.126 0 0 0 3.862 7.724c5.968 6.32 15.8 6.671 21.767.7 6.32-6.319 6.671-16.149.702-22.117z" transform="translate(-34.067 .861)"/><path id="Path_195" data-name="Path 195" class="cls-6" d="M101.2 90.814A20.714 20.714 0 1 0 121.914 70.1c-11.235.351-20.714 9.479-20.714 20.714z" transform="translate(66.618 129.667)"/><g id="Group_132" data-name="Group 132" transform="translate(153.073 260.153)"><path id="Path_196" data-name="Path 196" class="cls-6" d="M132.46 87.3a35.361 35.361 0 0 1 35.46 35.46H97a35.361 35.361 0 0 1 35.46-35.46z" transform="translate(-97 -87.3)"/></g><path id="Rectangle_44" data-name="Rectangle 44" class="cls-1" transform="translate(111.645 295.262)" d="M0 0h153.424v26.331H0z"/><g id="Group_133" data-name="Group 133"><path id="Path_197" data-name="Path 197" d="M258.784 218.584C200.5 273.7 108.52 270.9 53.4 212.616L264.753 13.2a145 145 0 0 1-5.969 205.384z" transform="translate(-53.4 -13.2)" fill="#2996dd"/></g><path id="Path_198" data-name="Path 198" class="cls-5" d="M297.755 29A145.386 145.386 0 0 1 73.763 153.635L53.4 172.945c55.12 58.28 147.1 61.089 205.384 5.968C300.914 139.24 313.9 80.609 297.755 29z" transform="translate(-53.4 26.471)"/></g><g id="Satellite_Receiver_2_2_" transform="translate(1359.931 787.069)"><g id="Group_138" data-name="Group 138" transform="translate(37.566 164.659)"><g id="Group_135" data-name="Group 135" transform="translate(56.876)"><g id="Group_134" data-name="Group 134"><path id="Path_199" data-name="Path 199" class="cls-1" d="M160.8 183.84v-53.365a7.945 7.945 0 0 1 8.075-8.075h29.842c4.213 0 8.075 3.16 9.479 7.022l15.448 53.716a6.99 6.99 0 0 1-6.671 9.128h-48.1a8.245 8.245 0 0 1-8.073-8.426zm8.075-54.769a1.658 1.658 0 0 0-1.755 1.755v53.365a1.658 1.658 0 0 0 1.755 1.755h48.45v-.346l-15.448-53.716a3.887 3.887 0 0 0-3.16-2.458h-29.842z" transform="translate(-160.8 -122.4)"/></g></g><g id="Group_137" data-name="Group 137"><g id="Group_136" data-name="Group 136"><path id="Path_200" data-name="Path 200" class="cls-1" d="M146 189.457a6.64 6.64 0 0 1-1.053-6.32l15.453-53.715a10.24 10.24 0 0 1 9.479-7.022h29.841a7.945 7.945 0 0 1 8.075 8.075v53.365a7.945 7.945 0 0 1-8.075 8.075h-48.1a6.079 6.079 0 0 1-5.62-2.458zm23.874-60.387a3.748 3.748 0 0 0-3.16 2.458l-15.448 53.716v.351h48.45a1.658 1.658 0 0 0 1.755-1.755v-53.365a1.658 1.658 0 0 0-1.755-1.755h-29.838z" transform="translate(-144.6 -122.4)"/></g></g></g><path id="Rectangle_45" data-name="Rectangle 45" class="cls-2" transform="translate(91.282 117.262)" d="M0 0h12.288v27.385H0z"/><path id="Path_201" data-name="Path 201" class="cls-8" d="M183.486 126.043l8.075-7.724L165.58 99.01 139.6 79.7l17.905 27.034 17.905 27.033z" transform="translate(-119.588 -64.954)"/><path id="Path_202" data-name="Path 202" class="cls-4" d="M140.165 91.409c3.16 3.16 8.075 3.511 11.235.351s3.511-8.075.351-11.235-8.075-3.511-11.235-.351a7.558 7.558 0 0 0-.351 11.235z" transform="translate(-124.015 -69.291)"/><path id="Path_203" data-name="Path 203" class="cls-5" d="M151.592 79.453a4.847 4.847 0 0 0-1.4-1.053 8.687 8.687 0 0 1-2.458 7.373 7.962 7.962 0 0 1-9.83.7 8.369 8.369 0 0 0 2.107 3.862c3.16 3.16 8.075 3.511 11.235.351a8.177 8.177 0 0 0 .346-11.233z" transform="translate(-123.857 -68.219)"/><path id="Path_204" data-name="Path 204" class="cls-6" d="M158.7 115.533a10.562 10.562 0 0 0 10.533 10.533 10.8 10.8 0 0 0 10.533-10.533 10.533 10.533 0 0 0-21.065 0z" transform="translate(-71.631 -1.43)"/><g id="Group_139" data-name="Group 139" transform="translate(79.345 134.465)"><path id="Path_205" data-name="Path 205" class="cls-6" d="M174.756 113.8a18.131 18.131 0 0 1 18.256 18.256H156.5a18.131 18.131 0 0 1 18.256-18.256z" transform="translate(-156.5 -113.8)"/></g><path id="Rectangle_46" data-name="Rectangle 46" class="cls-1" transform="translate(57.929 152.722)" d="M0 0h79.345v13.692H0z"/><g id="Group_140" data-name="Group 140"><path id="Path_206" data-name="Path 206" class="cls-9" d="M240.279 181.879a75.363 75.363 0 0 1-106.379-3.16L243.438 75.5a75.372 75.372 0 0 1-3.159 106.379z" transform="translate(-133.9 -75.5)"/></g><path id="Path_207" data-name="Path 207" class="cls-5" d="M260.29 83.7a75.066 75.066 0 0 1-115.858 64.248l-10.533 9.83A75.124 75.124 0 0 0 260.29 83.7z" transform="translate(-133.9 -54.911)"/></g><g id="Satellite_Receiver_1_2_" transform="translate(975.493 787.069)"><g id="Group_145" data-name="Group 145" transform="translate(37.917 164.659)"><g id="Group_142" data-name="Group 142" transform="translate(56.525)"><g id="Group_141" data-name="Group 141"><path id="Path_208" data-name="Path 208" class="cls-1" d="M51.3 183.84v-53.365a7.945 7.945 0 0 1 8.075-8.075h29.842c4.213 0 8.075 3.16 9.479 7.022l15.448 53.716a6.807 6.807 0 0 1-1.053 6.32 7.329 7.329 0 0 1-5.617 2.809h-48.1a8.245 8.245 0 0 1-8.074-8.427zm8.075-54.769a1.881 1.881 0 0 0-1.755 1.755v53.365a1.658 1.658 0 0 0 1.755 1.755h48.45v-.346l-15.448-54.423a3.887 3.887 0 0 0-3.16-2.458H59.375z" transform="translate(-51.3 -122.4)"/></g></g><g id="Group_144" data-name="Group 144"><g id="Group_143" data-name="Group 143"><path id="Path_209" data-name="Path 209" class="cls-1" d="M36.6 189.457a6.64 6.64 0 0 1-1.053-6.32L51 129.422a10.24 10.24 0 0 1 9.479-7.022H90.32a7.945 7.945 0 0 1 8.075 8.075v53.365a7.945 7.945 0 0 1-8.075 8.075h-48.1a5.482 5.482 0 0 1-5.62-2.458zm23.523-60.387a3.748 3.748 0 0 0-3.16 2.458L41.52 185.244v.351h48.45a1.658 1.658 0 0 0 1.755-1.755v-53.365a1.658 1.658 0 0 0-1.755-1.755H60.127z" transform="translate(-35.2 -122.4)"/></g></g></g><path id="Rectangle_47" data-name="Rectangle 47" transform="translate(91.633 117.262)" fill="#8b9ee5" d="M0 0h12.288v27.385H0z"/><path id="Path_210" data-name="Path 210" class="cls-8" d="M73.986 126.043l8.075-7.724L56.08 99.01 30.1 79.7l17.905 27.034 17.905 27.033z" transform="translate(-10.088 -64.954)"/><path id="Path_211" data-name="Path 211" class="cls-4" d="M30.574 91.409c3.16 3.16 8.075 3.511 11.235.351s3.511-8.075.351-11.235-8.075-3.511-11.235-.351a7.842 7.842 0 0 0-.351 11.235z" transform="translate(-14.425 -69.291)"/><path id="Path_212" data-name="Path 212" class="cls-5" d="M42.092 79.453a4.847 4.847 0 0 0-1.4-1.053 8.687 8.687 0 0 1-2.458 7.373 7.962 7.962 0 0 1-9.83.7 8.369 8.369 0 0 0 2.107 3.862c3.16 3.16 8.075 3.511 11.235.351s3.506-8.073.346-11.233z" transform="translate(-14.357 -68.219)"/><path id="Path_213" data-name="Path 213" class="cls-6" d="M49.2 115.533A10.533 10.533 0 1 0 59.733 105 10.563 10.563 0 0 0 49.2 115.533z" transform="translate(37.869 -1.43)"/><g id="Group_146" data-name="Group 146" transform="translate(79.345 134.465)"><path id="Path_214" data-name="Path 214" class="cls-6" d="M65.256 113.8a18.131 18.131 0 0 1 18.256 18.256H47A18.355 18.355 0 0 1 65.256 113.8z" transform="translate(-47 -113.8)"/></g><path id="Rectangle_48" data-name="Rectangle 48" class="cls-1" transform="translate(57.929 152.722)" d="M0 0h79.345v13.692H0z"/><g id="Group_147" data-name="Group 147"><path id="Path_215" data-name="Path 215" class="cls-9" d="M130.779 181.879a75.363 75.363 0 0 1-106.379-3.16L133.938 75.5a75.372 75.372 0 0 1-3.159 106.379z" transform="translate(-24.4 -75.5)"/></g><path id="Path_216" data-name="Path 216" class="cls-5" d="M150.89 83.7a75.066 75.066 0 0 1-115.857 64.248L24.5 157.779A75.124 75.124 0 0 0 150.89 83.7z" transform="translate(-24.149 -54.911)"/></g><g id="Star_1_" transform="translate(882 522)"><g id="Group_148" data-name="Group 148" transform="translate(504.964 22.82)"><path id="Path_217" data-name="Path 217" class="cls-4" d="M186.89 17.735A25.2 25.2 0 0 1 152.835 6.5 25.2 25.2 0 0 1 141.6 40.555a25.2 25.2 0 0 1 34.055 11.235 25.3 25.3 0 0 1 11.235-34.055z" transform="translate(-141.6 -6.5)"/></g><g id="Group_149" data-name="Group 149" transform="translate(320.645)"><path id="Path_218" data-name="Path 218" class="cls-4" d="M116.133 5.266A15.627 15.627 0 0 1 94.366 0 15.627 15.627 0 0 1 89.1 21.767a15.627 15.627 0 0 1 21.767 5.266 15.933 15.933 0 0 1 5.266-21.767z" transform="translate(-89.1)"/></g><g id="Group_150" data-name="Group 150" transform="translate(74.886 108.836)"><path id="Path_219" data-name="Path 219" class="cls-4" d="M39.112 34.862A11.568 11.568 0 0 1 22.962 31 11.568 11.568 0 0 1 19.1 47.15a11.568 11.568 0 0 1 16.15 3.862c-3.511-5.266-1.756-12.639 3.862-16.15z" transform="translate(-19.1 -31)"/></g><g id="Group_152" data-name="Group 152" transform="translate(635.216 382.331)"><path id="Path_220" data-name="Path 220" class="cls-4" d="M205.733 114.166a15.627 15.627 0 0 1-21.767-5.266 15.627 15.627 0 0 1-5.266 21.767 15.627 15.627 0 0 1 21.767 5.266c-4.213-7.021-2.106-16.852 5.266-21.767z" transform="translate(-178.7 -108.9)"/></g><g id="Group_153" data-name="Group 153" transform="translate(-9.036 247.821)"><path id="Path_217-2" data-name="Path 217" class="cls-4" d="M186.89 17.735A25.2 25.2 0 0 1 152.835 6.5 25.2 25.2 0 0 1 141.6 40.555a25.2 25.2 0 0 1 34.055 11.235 25.3 25.3 0 0 1 11.235-34.055z" transform="translate(-141.6 -6.5)"/></g></g></g></svg>