<svg xmlns="http://www.w3.org/2000/svg" viewBox="0 0 192.805 192.805"><defs><style>.cls-4{fill:#ae392e}</style><radialGradient id="radial-gradient" cx=".5" cy=".5" r=".5"><stop offset="0" stop-color="#fff" stop-opacity=".808"/><stop offset="1" stop-color="gray" stop-opacity=".102"/></radialGradient></defs><g id="Group_428" data-name="Group 428" transform="translate(-123 -784)"><circle id="Ellipse_32" data-name="Ellipse 32" cx="96.402" cy="96.402" r="96.402" transform="translate(123 784)" fill="url(#radial-gradient)"/><g id="Group_115" data-name="Group 115" transform="translate(149 810)"><circle id="Ellipse_2" data-name="Ellipse 2" cx="70.354" cy="70.354" r="70.354" fill="#e84c3d"/><path id="Path_17" data-name="Path 17" d="M131.069 41.5A70.351 70.351 0 0 1 6.1 104.693 70.349 70.349 0 1 0 131.069 41.5z" transform="translate(-1.3 -8.841)" opacity=".2"/><circle id="Ellipse_3" data-name="Ellipse 3" class="cls-4" cx="16.92" cy="16.92" r="16.92" transform="rotate(-76.591 44.824 13.258)"/><circle id="Ellipse_4" data-name="Ellipse 4" class="cls-4" cx="7.476" cy="7.476" r="7.476" transform="rotate(-22.637 183.335 2.374)"/><circle id="Ellipse_5" data-name="Ellipse 5" class="cls-4" cx="9.994" cy="9.994" r="9.994" transform="rotate(-76.83 67.884 -35.438)"/><circle id="Ellipse_6" data-name="Ellipse 6" class="cls-4" cx="4.722" cy="4.722" r="4.722" transform="translate(72.715 76.099)"/><circle id="Ellipse_7" data-name="Ellipse 7" class="cls-4" cx="4.722" cy="4.722" r="4.722" transform="translate(121.742 48.713)"/><circle id="Ellipse_8" data-name="Ellipse 8" class="cls-4" cx="5.902" cy="5.902" r="5.902" transform="translate(97.425 103.485)"/><circle id="Ellipse_9" data-name="Ellipse 9" class="cls-4" cx="11.332" cy="11.332" r="11.332" transform="rotate(-76.17 101.707 32.005)"/></g></g></svg>