<svg xmlns="http://www.w3.org/2000/svg" viewBox="0 0 372.791 726.8"><defs><style>.cls-1{fill:#172d72}.cls-2{fill:#57b3ef}.cls-3{fill:#2996dd}.cls-21,.cls-4{fill:#fff}.cls-5{fill:#f15353}.cls-11{fill:#dfe8e6}.cls-12{fill:#9ad4fa}.cls-15{fill:#739be5}.cls-18{fill:#67b2e3}.cls-20{fill:#e84c3d}.cls-21{opacity:.6}</style></defs><g id="Group_281" data-name="Group 281" transform="translate(-1087.348 -361)"><path id="Path_22" data-name="Path 22" class="cls-1" d="M73.687 203.058c0 6.7-16.412 12.058-36.844 12.058S0 209.757 0 203.058 16.412 191 36.844 191s36.843 5.359 36.843 12.058z" transform="translate(1087.348 807.035)"/><path id="Path_23" data-name="Path 23" class="cls-1" d="M162.987 203.458c0 6.7-16.412 12.058-36.844 12.058S89.3 210.157 89.3 203.458s16.412-12.058 36.844-12.058 36.843 5.359 36.843 12.058z" transform="translate(1297.151 807.975)"/><g id="Group_12" data-name="Group 12" transform="translate(1355.914 790.65)"><path id="Path_24" data-name="Path 24" class="cls-2" d="M147.9 343.5a8.292 8.292 0 0 1-8.374-8.374V207.851l-57.277-64.644a8.539 8.539 0 1 1 12.728-11.388l59.62 66.988a9.1 9.1 0 0 1 2.01 5.694v130.293a9.094 9.094 0 0 1-8.707 8.706z" transform="translate(-80.183 -129.083)"/></g><path id="Path_25" data-name="Path 25" class="cls-3" d="M141.432 211.916a24.116 24.116 0 1 0-48.232 0z" transform="translate(1306.314 799.517)"/><g id="Group_13" data-name="Group 13" transform="translate(1115.818 790.985)"><path id="Path_26" data-name="Path 26" class="cls-2" d="M16.874 343.268a8.292 8.292 0 0 1-8.374-8.374V204.6a9.1 9.1 0 0 1 2.01-5.694l59.62-66.988a8.539 8.539 0 0 1 12.728 11.388l-57.276 64.645v127.278a8.762 8.762 0 0 1-8.708 8.039z" transform="translate(-8.5 -129.183)"/></g><path id="Path_27" data-name="Path 27" class="cls-3" d="M3.8 211.916a24.116 24.116 0 1 1 48.232 0z" transform="translate(1096.275 799.517)"/><ellipse id="Ellipse_13" data-name="Ellipse 13" class="cls-1" cx="26.795" cy="8.708" rx="26.795" ry="8.708" transform="translate(1264.867 933.727)"/><g id="Group_14" data-name="Group 14" transform="translate(1283.289 833.579)"><path id="Path_29" data-name="Path 29" class="cls-2" d="M66.874 248.412a8.292 8.292 0 0 1-8.374-8.374v-89.764a8.374 8.374 0 0 1 16.747 0v89.764a8.292 8.292 0 0 1-8.373 8.374z" transform="translate(-58.5 -141.9)"/></g><path id="Path_30" data-name="Path 30" class="cls-3" d="M55.7 186.852a17.752 17.752 0 0 1 35.5 0z" transform="translate(1218.21 755.583)"/><g id="Group_15" data-name="Group 15" transform="translate(1154.001 485.239)"><path id="Path_31" data-name="Path 31" class="cls-3" d="M259.719 219.774c0 61.294-9.713 106.846-29.475 136.656s-49.906 44.547-90.434 44.547q-58.782 0-89.43-46.222c-20.431-30.815-30.48-75.7-30.48-134.982 0-62.3 9.713-108.186 29.475-137.661S99.281 37.9 139.474 37.9q59.285 0 89.43 46.222c20.431 31.15 30.815 76.367 30.815 135.652z" transform="translate(-19.9 -37.9)"/></g><path id="Path_32" data-name="Path 32" class="cls-2" d="M62.439 67.641V17.4a7.956 7.956 0 0 1-4.019 1 8.918 8.918 0 0 1-4.019-1v49.906c1.34 0 2.68-.335 3.684-.335a41.157 41.157 0 0 1 4.354.67z" transform="translate(1215.635 401.88)"/><path id="Path_33" data-name="Path 33" class="cls-3" d="M79.824 32.635c-1.34 0-2.68-.335-4.019-.335a12.559 12.559 0 0 0-3.684.335A30.318 30.318 0 0 0 47 54.071a131.059 131.059 0 0 1 28.805-3.014 111.464 111.464 0 0 1 28.805 3.349c-2.679-11.388-12.728-20.096-24.786-21.771z" transform="translate(1197.771 435.534)"/><path id="Path_36" data-name="Path 36" class="cls-4" d="M240.342 207.792c0-53.926-9.043-95.124-27.465-122.924S167.325 43 131.821 43C95.313 43 67.847 56.4 50.1 83.193s-26.8 68.328-26.8 124.933v9.713h217.043l-.001-10.047z" transform="translate(1142.089 459.321)"/><g id="Group_32" data-name="Group 32" transform="translate(1225.42 361)"><g id="Group_22" data-name="Group 22" transform="translate(47.227)"><path id="Path_45" data-name="Path 45" class="cls-5" d="M56.875 30.48a1.582 1.582 0 0 1-1.675-1.675V1.675a1.675 1.675 0 0 1 3.349 0v27.13a1.582 1.582 0 0 1-1.674 1.675z" transform="translate(-55.2)"/></g><g id="Group_23" data-name="Group 23" transform="translate(67.323 48.232)"><path id="Path_46" data-name="Path 46" class="cls-5" d="M90.005 17.749h-27.13a1.582 1.582 0 0 1-1.675-1.674 1.582 1.582 0 0 1 1.675-1.675h27.13a1.582 1.582 0 0 1 1.675 1.675 1.582 1.582 0 0 1-1.675 1.674z" transform="translate(-61.2 -14.4)"/></g><g id="Group_24" data-name="Group 24" transform="translate(60.96 18.757)"><path id="Path_47" data-name="Path 47" class="cls-5" d="M62.649 25.362a3.041 3.041 0 0 1-2.345-1 3.238 3.238 0 0 1 0-4.689L73.368 6.6a3.238 3.238 0 0 1 4.689 0 3.238 3.238 0 0 1 0 4.689L64.994 24.357a3.618 3.618 0 0 1-2.345 1.005z" transform="translate(-59.3 -5.6)"/></g><g id="Group_25" data-name="Group 25" transform="translate(0 48.232)"><path id="Path_48" data-name="Path 48" class="cls-5" d="M69.905 17.749h-27.13a1.582 1.582 0 0 1-1.675-1.674 1.582 1.582 0 0 1 1.675-1.675h27.13a1.582 1.582 0 0 1 1.675 1.675 1.794 1.794 0 0 1-1.675 1.674z" transform="translate(-41.1 -14.4)"/></g><g id="Group_26" data-name="Group 26" transform="translate(17.082 18.757)"><path id="Path_49" data-name="Path 49" class="cls-5" d="M62.612 25.362a3.041 3.041 0 0 1-2.345-1L47.2 11.294a3.238 3.238 0 0 1 0-4.689 3.238 3.238 0 0 1 4.689 0l13.068 13.063a3.238 3.238 0 0 1 0 4.689 3.618 3.618 0 0 1-2.345 1.005z" transform="translate(-46.2 -5.6)"/></g><g id="Group_27" data-name="Group 27" transform="translate(60.96 63.639)"><path id="Path_50" data-name="Path 50" class="cls-5" d="M75.712 38.762a3.041 3.041 0 0 1-2.345-1L60.3 24.694A3.316 3.316 0 0 1 64.994 20l13.063 13.068a3.238 3.238 0 0 1 0 4.689 3.618 3.618 0 0 1-2.345 1.005z" transform="translate(-59.3 -19)"/></g><g id="Group_28" data-name="Group 28" transform="translate(17.082 63.639)"><path id="Path_51" data-name="Path 51" class="cls-5" d="M49.549 38.762a3.041 3.041 0 0 1-2.345-1 3.238 3.238 0 0 1 0-4.689L60.268 20a3.316 3.316 0 0 1 4.689 4.689L51.894 37.757a3.041 3.041 0 0 1-2.345 1.005z" transform="translate(-46.2 -19)"/></g></g><g id="Group_29" data-name="Group 29" transform="translate(1203.532 515.049)" opacity=".4"><path id="Path_52" data-name="Path 52" d="M41.427 91.347a6.752 6.752 0 0 1-3.684-1 6.946 6.946 0 0 1-2.01-9.378c15.072-22.776 38.518-34.164 69-34.164a6.7 6.7 0 1 1 0 13.4c-26.46 0-45.217 9.378-57.945 28.135a5.682 5.682 0 0 1-5.361 3.007z" transform="translate(-34.688 -46.8)" fill="#5ec9f2"/></g><path id="Path_53" data-name="Path 53" d="M44.528 67.864a6.364 6.364 0 1 1-6.364-6.364 6.588 6.588 0 0 1 6.364 6.364z" transform="translate(1162.059 502.786)" fill="#5ec9f2" opacity=".4"/><path id="Path_67" data-name="Path 67" d="M68.051 12.1A15.125 15.125 0 0 0 52.9 27.251c0 5.952 3.788 11.363 9.2 14.069a12.854 12.854 0 0 0 6.493 1.623 14.408 14.408 0 0 0 6.493-1.623 14.938 14.938 0 0 0 9.2-14.069C83.2 18.593 76.168 12.1 68.051 12.1z" transform="translate(1205.748 383.552)" opacity=".5" fill="#fff"/><path id="Path_68" data-name="Path 68" class="cls-3" d="M62.278 12.1a9.362 9.362 0 0 0-9.378 9.378 9.976 9.976 0 0 0 5.694 8.708 7.956 7.956 0 0 0 4.019 1 8.918 8.918 0 0 0 4.019-1 9.246 9.246 0 0 0 5.694-8.708A10.429 10.429 0 0 0 62.278 12.1z" transform="translate(1211.727 389.428)"/><g id="Group_263" data-name="Group 263" transform="rotate(2 -289.984 -8142.007)"><path id="XMLID_66_" d="M154.61 152.37l-35.378 20.14a32.893 32.893 0 0 1-44.786-12.19l-30.476-53.4A36.6 36.6 0 0 1 57.617 57.1L86.5 40.67a36.6 36.6 0 0 1 49.821 13.648l30.476 53.4a32.77 32.77 0 0 1-12.187 44.652z" transform="rotate(28 -166.826 3318.69)" fill="#1e2969"/><path id="XMLID_63_" class="cls-11" d="M52.2 163.909l53.134 7.155L108.116 150l-32.066-4.24a21.091 21.091 0 0 0-23.85 18.149z" transform="rotate(28 -240.466 3309.346)"/><path id="XMLID_58_" class="cls-11" d="M77.653 103.2L70.1 159.381l32.331 4.373 3.975-29.416a18.539 18.539 0 0 1 11.13-14.708c-3.048-4.108-6.228-8.215-9.673-12.19z" transform="rotate(28 -215.759 3327.908)"/><path id="XMLID_57_" class="cls-4" d="M111.155 84.8L99.1 113.288h-.4c3.445 3.975 6.493 8.083 9.673 12.19a18.935 18.935 0 0 1 14.973-.133l27.428 11.66 12.72-29.946z" transform="rotate(28 -208.404 3349.56)"/><path id="XMLID_56_" class="cls-4" d="M178.346 93.623l-20.936 49.424-19.61-8.347 12.588-29.813a21.3 21.3 0 0 1 27.958-11.263z" transform="rotate(28 -219.392 3373.917)"/><path id="XMLID_55_" class="cls-12" transform="matrix(-.777 .63 -.63 -.777 1678.58 674.127)" d="M0 0h53.664v13.118H0z"/><path id="XMLID_46_" class="cls-4" d="M82.36 24.12l-1.458-4.9L76 17.76l4.9-1.46 1.458-4.9 1.458 4.9 4.9 1.458-4.9 1.458z" transform="rotate(28 -156.821 3346.682)"/><path id="XMLID_43_" class="cls-4" d="M151.095 106.074l-71.817 40.943-24.513-42.931a23.834 23.834 0 0 1 8.878-32.463l30.475-17.358a23.834 23.834 0 0 1 32.463 8.878z" transform="rotate(28 -178.796 3324.33)"/><path id="XMLID_40_" class="cls-11" d="M98.458 142.807L67.718 90.2a23.915 23.915 0 0 1 1.722-26.1l-5.7 3.313a23.834 23.834 0 0 0-8.878 32.463l24.513 42.931h19.08z" transform="rotate(28 -187.263 3322.29)"/><path id="XMLID_39_" class="cls-12" d="M103.941 63.618l-37.233 21.2a10.157 10.157 0 0 1-13.78-3.71 10.157 10.157 0 0 1 3.71-13.78l37.233-21.2a10.157 10.157 0 0 1 13.78 3.71 10.041 10.041 0 0 1-3.71 13.78z" transform="rotate(28 -174.64 3325.328)"/><ellipse id="XMLID_36_" cx="47.171" cy="42.798" rx="47.171" ry="42.798" transform="rotate(-1.695 17279.907 -51453.304)" fill="#ebf7ff"/><path id="XMLID_33_" d="M116.706 30.7c-1.458 14.443-10.335 28.621-24.778 36.836-22.658 12.853-50.484 6.758-62.277-13.913a39.21 39.21 0 0 1-4.9-15.635 40.333 40.333 0 0 0 4.9 23.718C41.444 82.244 69.27 88.471 91.928 75.619c17.225-9.673 26.5-27.826 24.778-44.919z" transform="rotate(28 -161.049 3309.976)" fill="#c6e4f7"/><path id="XMLID_30_" class="cls-3" d="M92.764 22.094l7.023 12.323a19.5 19.5 0 0 1-7.288 26.5L69.444 74.035a19.5 19.5 0 0 1-26.5-7.288L35.92 54.424a19.5 19.5 0 0 1 7.288-26.5l23.056-13.118a19.618 19.618 0 0 1 26.5 7.288z" transform="rotate(28 -150.505 3318.73)"/><path id="XMLID_29_" class="cls-2" d="M92.764 22.094l3.843 6.758a132.3 132.3 0 0 1-26.5 19.61 131.568 131.568 0 0 1-30.343 12.72l-3.844-6.758a19.5 19.5 0 0 1 7.288-26.5l23.056-13.118a19.618 19.618 0 0 1 26.5 7.288z" transform="rotate(28 -150.505 3318.73)"/><path id="XMLID_26_" class="cls-15" d="M38.93 71.445a6.651 6.651 0 0 1-8.878-2.385L22.1 55.28a6.651 6.651 0 0 1 2.387-8.88 6.651 6.651 0 0 1 8.878 2.385l7.95 13.78a6.467 6.467 0 0 1-2.385 8.88z" transform="rotate(28 -170.223 3305.42)"/><path id="XMLID_23_" class="cls-15" d="M100.83 36.145a6.651 6.651 0 0 1-8.878-2.385L84 19.98a6.651 6.651 0 0 1 2.387-8.88 6.651 6.651 0 0 1 8.878 2.385l7.95 13.78a6.584 6.584 0 0 1-2.385 8.88z" transform="rotate(28 -157.256 3351.548)"/><path id="XMLID_22_" d="M47.8 66.46l1.855-1.06z" transform="rotate(28 -187.47 3319.503)" fill="#adcede"/><path id="XMLID_20_" transform="rotate(-1.695 20735.675 -52267.425)" fill="#87b8e8" d="M0 0h50.351v27.693H0z"/><path id="XMLID_19_" class="cls-4" d="M105.058 81.127a4.273 4.273 0 1 1-5.83-1.59 4.3 4.3 0 0 1 5.83 1.59z" transform="rotate(28 -204.34 3349.447)"/><path id="XMLID_18_" class="cls-4" d="M97.907 74.122a1.75 1.75 0 1 1-2.385-.663 1.767 1.767 0 0 1 2.385.663z" transform="rotate(28 -200.183 3348.78)"/><path id="XMLID_17_" class="cls-4" transform="rotate(-1.695 20923.214 -52521.624)" d="M0 0h20.67v2.253H0z"/><path id="XMLID_16_" class="cls-4" transform="rotate(-1.695 21160.504 -52527.986)" d="M0 0h20.67v2.253H0z"/><path id="XMLID_15_" class="cls-4" transform="rotate(-1.695 21397.828 -52529.884)" d="M0 0h20.67v2.253H0z"/><path id="XMLID_3_" class="cls-12" d="M121.16 125.073l16.7-31.4a3.91 3.91 0 0 0-1.59-5.168 3.91 3.91 0 0 0-5.168 1.59l-16.7 31.4a3.91 3.91 0 0 0 1.59 5.168 3.759 3.759 0 0 0 5.168-1.59z" transform="rotate(28 -213.033 3358.997)"/><path id="Path_130" data-name="Path 130" class="cls-11" d="M4146 428.447l-6.431 46.8 32.707 4.438 6.214-48.455z" transform="rotate(28 2413.56 -4699.837)"/><path id="XMLID_6_" class="cls-18" d="M107.79 130.377l-35.511-1.723a3.737 3.737 0 0 1-3.578-3.975 3.737 3.737 0 0 1 3.975-3.578l35.511 1.723a3.737 3.737 0 0 1 3.578 3.975 3.662 3.662 0 0 1-3.975 3.578z" transform="rotate(28 -227.206 3324.081)"/><path id="XMLID_62_" class="cls-18" d="M.046.437L53.8 0l-.046 13.65L0 14.089z" transform="rotate(35.625 -294.107 2658.255)"/></g><path id="Rectangle_132" data-name="Rectangle 132" class="cls-3" transform="translate(1162 677)" d="M0 0h223v63H0z"/><g id="Group_264" data-name="Group 264"><path id="Path_35" data-name="Path 35" d="M50.3 196.228c18.422 27.8 45.217 41.868 81.056 41.868 36.844 0 63.974-13.4 82.061-40.528q22.106-33.662 26.125-97.468H23.5c2.68 41.2 11.723 73.017 26.8 96.128z" transform="translate(1142.559 593.473)" fill="#acdeff"/><path id="Path_39" data-name="Path 39" class="cls-20" d="M72.388 135.565H46.933A13.583 13.583 0 0 1 33.2 121.833 13.583 13.583 0 0 1 46.933 108.1h25.455a13.583 13.583 0 0 1 13.733 13.733 14.018 14.018 0 0 1-13.733 13.732z" transform="translate(1165.348 612.269)"/><path id="Path_40" data-name="Path 40" class="cls-20" d="M102.088 135.565H76.633A13.583 13.583 0 0 1 62.9 121.833 13.583 13.583 0 0 1 76.633 108.1h25.456a13.583 13.583 0 0 1 13.733 13.733 13.794 13.794 0 0 1-13.734 13.732z" transform="translate(1235.126 612.269)"/><g id="Group_21" data-name="Group 21" transform="translate(1225.009 766.925)"><g id="Group_17" data-name="Group 17"><path id="Path_41" data-name="Path 41" class="cls-3" d="M133.464 124.68H36.171c-.485 0-.971-.67-.971-1.34s.485-1.34.971-1.34h97.537c.485 0 .971.67.971 1.34a1.286 1.286 0 0 1-1.215 1.34z" transform="translate(-35.2 -122)"/></g><g id="Group_18" data-name="Group 18" transform="translate(0 9.713)"><path id="Path_42" data-name="Path 42" class="cls-3" d="M133.464 127.58H36.171c-.485 0-.971-.67-.971-1.34s.485-1.34.971-1.34h97.537c.485 0 .971.67.971 1.34a1.286 1.286 0 0 1-1.215 1.34z" transform="translate(-35.2 -124.9)"/></g><g id="Group_19" data-name="Group 19" transform="translate(0 19.092)"><path id="Path_43" data-name="Path 43" class="cls-3" d="M133.464 130.38H36.171c-.485 0-.971-.67-.971-1.34s.485-1.34.971-1.34h97.537c.485 0 .971.67.971 1.34a1.286 1.286 0 0 1-1.215 1.34z" transform="translate(-35.2 -127.7)"/></g><g id="Group_20" data-name="Group 20" transform="translate(0 28.805)"><path id="Path_44" data-name="Path 44" class="cls-3" d="M133.464 133.28H36.171c-.485 0-.971-.67-.971-1.34s.485-1.34.971-1.34h97.537c.485 0 .971.67.971 1.34a1.286 1.286 0 0 1-1.215 1.34z" transform="translate(-35.2 -130.6)"/></g></g><path id="Path_54" data-name="Path 54" class="cls-21" d="M54.777 117.853a8.039 8.039 0 1 1-8.039-8.039c4.355-.334 8.039 3.35 8.039 8.039z" transform="translate(1178.27 616.248)"/><path id="Path_55" data-name="Path 55" class="cls-21" d="M84.477 117.853a8.039 8.039 0 1 1-8.039-8.039c4.69-.334 8.039 3.35 8.039 8.039z" transform="translate(1248.048 616.248)"/></g><g id="Group_265" data-name="Group 265"><path id="Path_28" data-name="Path 28" class="cls-1" d="M115.375 222.658c0 6.7-19.092 12.058-42.538 12.058S30.3 229.357 30.3 222.658 49.392 210.6 72.838 210.6s42.537 5.359 42.537 12.058z" transform="translate(1158.535 853.084)"/><g id="Group_16" data-name="Group 16" transform="translate(1223.669 820.682)"><path id="Path_37" data-name="Path 37" class="cls-2" d="M49.074 387.751a8.292 8.292 0 0 1-8.374-8.374V256.788a7.375 7.375 0 0 1 .335-2.679l35.5-110.2a8.473 8.473 0 0 1 16.077 5.359l-35.165 108.86v121.249c.335 4.689-3.684 8.374-8.373 8.374z" transform="translate(-40.7 -138.049)"/></g><path id="Path_38" data-name="Path 38" class="cls-3" d="M36 231.416a24.116 24.116 0 0 1 48.232 0z" transform="translate(1171.927 845.331)"/></g></g></svg>