<svg xmlns="http://www.w3.org/2000/svg" viewBox="0 0 392.657 545.583"><defs><style>.cls-3{fill:#2996dd}.cls-4{fill:#fff}.cls-6{fill:#c40024}.cls-8{fill:#003b57}</style><linearGradient id="linear-gradient" x1=".5" y1="1" x2=".5" gradientUnits="objectBoundingBox"><stop offset="0" stop-color="#333"/><stop offset="1" stop-color="#767676"/></linearGradient></defs><g id="Group_433" data-name="Group 433" transform="translate(-870.75 -437.979)"><path id="Path_417" data-name="Path 417" d="M205.555 200.873c0-9-38.574-16.073-85.827-16.073-47.575 0-85.827 7.393-85.827 16.073 0 9 38.574 16.073 85.827 16.073s85.827-7.073 85.827-16.073z" transform="translate(947.655 766.617)" fill="rgba(191,191,191,.47)"/><path id="Path_418" data-name="Path 418" d="M202.9 167.281c0-17.037-37.61-31.181-83.9-31.181s-83.9 13.822-83.9 31.181c18.323 17.358 37.61 31.181 83.9 31.181s74.254-18.962 83.9-31.181z" transform="translate(948.401 658.77)" fill="#ffefd4"/><g id="Group_429" data-name="Group 429" transform="translate(928.728 625.093)"><path id="Path_255" data-name="Path 255" class="cls-3" d="M86.014 134.446c1.607 29.252-12.215 54-30.859 54.968s-35.36-21.859-36.967-51.114 12.212-54 30.859-54.965c18.965-1.286 35.359 21.859 36.967 51.111z" transform="translate(-18.06 -83.284)"/></g><g id="Group_430" data-name="Group 430"><g id="Group_178" data-name="Group 178" transform="translate(1137.992 625.093)"><path id="Path_256" data-name="Path 256" class="cls-3" d="M83.288 134.446c-1.607 29.252 12.215 54 30.859 54.968s35.36-21.859 36.967-51.111-12.215-54-30.859-54.968c-18.966-1.286-35.36 21.859-36.967 51.111z" transform="translate(-83.16 -83.284)"/></g><g id="Group_179" data-name="Group 179" transform="translate(1187.17 533.305)"><path id="Path_257" data-name="Path 257" class="cls-3" d="M104.7 175.682a6.316 6.316 0 0 1-5.465-2.893 6.689 6.689 0 0 1 2.25-8.679c1.929-1.286 46.61-28.931 43.4-93.864a6.116 6.116 0 0 1 12.215-.643c3.536 72.648-47.253 103.829-49.5 105.114a3.929 3.929 0 0 1-2.9.965z" transform="translate(-98.459 -34.661)"/><path id="Path_258" data-name="Path 258" class="cls-3" d="M132.6 94.815a28.486 28.486 0 0 1-27.645-21.537 6.12 6.12 0 1 1 11.894-2.893 15.82 15.82 0 0 0 19.287 11.572 15.428 15.428 0 0 0 9.965-7.393 16.177 16.177 0 0 0 1.929-12.215 6.12 6.12 0 0 1 11.894-2.893 28.349 28.349 0 0 1-20.573 34.4 24.472 24.472 0 0 1-6.751.959z" transform="translate(-84.572 -54.73)"/></g><path id="Path_259" data-name="Path 259" class="cls-4" d="M106.4 106.052l24.43 22.18s13.822-23.787 13.179-47.253L122.151 72.3s-7.393 23.144-15.751 33.752z" transform="translate(1106.296 517.484)"/></g><path id="Path_419" data-name="Path 419" d="M140.258 394.229c-26.68 0-55.611-33.431-80.041-91.292C39.965 254.077 25.5 193.966 25.5 156.356c0-31.824 10.608-53.682 32.788-66.862 18.323-10.929 45-16.394 81.97-16.394s63.647 5.465 81.97 16.394c21.859 13.179 32.788 35.038 32.788 66.862 0 37.61-14.144 97.721-34.717 146.582-24.43 58.182-53.361 91.291-80.041 91.291z" transform="translate(927.142 519.256)" fill="#d83020"/><path id="Path_420" data-name="Path 420" class="cls-4" d="M263.16 159.678c0-72.005-53.682-88.078-119.58-88.078C77.361 71.6 24 87.994 24 159.678c0 28.288 8.358 72.005 22.5 114.437a246.669 246.669 0 0 0 71.684 17.037 24.129 24.129 0 0 1 48.218 0c27.323-2.572 53.039-9 75.22-18.323 13.501-42.111 21.538-85.185 21.538-113.151z" transform="translate(923.82 515.934)"/><path id="Path_421" data-name="Path 421" class="cls-3" d="M58.843 175.462a6.2 6.2 0 0 1-3.215-.964C53.378 173.212 2.589 142.353 5.482 69.7a5.91 5.91 0 0 1 6.429-5.786 5.91 5.91 0 0 1 5.789 6.434c-2.572 65.255 43.717 93.221 44.36 93.542 2.893 1.607 3.857 5.465 2.25 8.679a6.722 6.722 0 0 1-5.467 2.893z" transform="translate(882.548 498.864)"/><path id="Path_422" data-name="Path 422" class="cls-3" d="M28.555 94.815a24.47 24.47 0 0 1-6.75-.964 29.842 29.842 0 0 1-17.68-12.858A28.049 28.049 0 0 1 .91 59.455c.964-3.215 4.179-5.465 7.393-4.5s5.465 4.179 4.5 7.393a16.408 16.408 0 0 0 1.929 12.215 16.091 16.091 0 0 0 9.968 7.073 16.408 16.408 0 0 0 12.215-1.929 16.091 16.091 0 0 0 7.072-9.965c.964-3.215 4.179-5.465 7.393-4.5s5.465 4.179 4.5 7.393a29.842 29.842 0 0 1-12.858 17.68 24.068 24.068 0 0 1-14.467 4.5z" transform="translate(870.726 478.575)"/><path id="Path_423" data-name="Path 423" class="cls-4" d="M40.822 106l-25.395 20.89S2.891 102.459 4.5 79.315L26.678 71.6s6.429 23.144 14.144 34.4z" transform="translate(880.318 515.934)"/><path id="Path_424" data-name="Path 424" class="cls-4" d="M119 167.016A177.577 177.577 0 0 1 35.1 145.8c21.537 50.789 51.111 92.578 83.9 92.578s62.361-41.789 83.9-92.578a177.577 177.577 0 0 1-83.9 21.216z" transform="translate(948.401 680.25)"/><path id="Path_425" data-name="Path 425" class="cls-6" d="M94.06 165.373c0-13.822-9-25.073-19.93-25.073S54.2 151.551 54.2 165.373s9 25.073 19.93 25.073c11.251 0 19.93-11.246 19.93-25.073z" transform="translate(990.698 668.071)"/><path id="Path_426" data-name="Path 426" class="cls-4" d="M80.044 160.2c0-12.537-5.143-22.5-11.572-22.5S56.9 147.665 56.9 160.2s5.143 22.5 11.572 22.5c6.108 0 11.572-9.962 11.572-22.5z" transform="translate(996.678 662.313)"/><path id="Path_427" data-name="Path 427" d="M214.223 121.3a93.881 93.881 0 0 1-96.23 92.9c-52.3-.964-94.2-44.36-93.691-97.078a93.881 93.881 0 0 1 96.23-92.9c52.558.962 94.453 44.678 93.691 97.078z" transform="translate(948.916 433.676)" fill="#dbdbdb"/><path id="Path_428" data-name="Path 428" class="cls-8" d="M46.6 77.12c-.321 18.966-5.786 34.4-12.537 34.074-6.429 0-11.572-15.751-11.251-34.717S28.6 42.082 35.025 42.4c7.075.325 11.894 15.754 11.575 34.72z" transform="translate(920.586 454.108)"/><path id="Path_429" data-name="Path 429" class="cls-8" d="M93.21 77.774c-.321 18.966 4.5 34.4 11.251 34.717 6.429 0 11.894-15.108 12.215-34.074s-4.5-34.4-11.251-34.717c-6.107 0-11.893 15.108-12.215 34.074z" transform="translate(1076.487 456.99)"/><path id="Path_430" data-name="Path 430" class="cls-4" d="M264.749 121.3c-.964 52.718-55.611 94.185-121.83 92.9C76.7 213.233 23.661 169.837 24.3 117.119c.964-52.718 55.611-94.185 121.83-92.9 66.544.965 119.584 44.681 118.619 97.081z" transform="translate(923.914 413.788)"/><g id="Group_431" data-name="Group 431"><path id="Path_266" data-name="Path 266" class="cls-3" d="M63.959 137.771A31.491 31.491 0 0 1 33.1 105.948l.643-37.288A31.491 31.491 0 0 1 65.567 37.8l120.544 2.25a31.491 31.491 0 0 1 30.859 31.824l-.643 37.288a31.491 31.491 0 0 1-31.827 30.859z" transform="translate(943.406 443.925)"/><path id="Path_267" data-name="Path 267" d="M209.689 68.772a26.862 26.862 0 0 0-26.406-27.225L62.521 39.3a26.875 26.875 0 0 0-27.373 26.269l-.648 37.154a26.862 26.862 0 0 0 26.406 27.225l120.761 2.242a26.875 26.875 0 0 0 27.373-26.264z" transform="translate(946.501 447.249)" fill="url(#linear-gradient)"/><path id="Path_268" data-name="Path 268" class="cls-4" d="M66.059 60.629a10.929 10.929 0 1 0-10.93 10.93 10.839 10.839 0 0 0 10.93-10.93z" transform="translate(967.987 470.278)"/><path id="Path_269" data-name="Path 269" class="cls-4" d="M94.259 60.629a10.929 10.929 0 1 0-10.93 10.93 10.839 10.839 0 0 0 10.93-10.93z" transform="translate(1030.436 470.278)"/><path id="Rectangle_64" data-name="Rectangle 64" class="cls-4" transform="rotate(-.284 111655.78 -210577.45)" d="M0 0h8.036v8.036H0z"/><path id="Rectangle_65" data-name="Rectangle 65" class="cls-4" transform="rotate(-.293 108259.612 -210942.361)" d="M0 0h8.036v8.036H0z"/><path id="Rectangle_66" data-name="Rectangle 66" class="cls-4" transform="rotate(-.281 114534.251 -214668.075)" d="M0 0h8.036v8.036H0z"/><path id="Rectangle_67" data-name="Rectangle 67" class="cls-4" transform="rotate(-.281 114542.775 -218143.944)" d="M0 0h8.036v8.036H0z"/><path id="Rectangle_68" data-name="Rectangle 68" class="cls-4" transform="rotate(-.293 109869.65 -207531.575)" d="M0 0h8.036v8.036H0z"/></g><path id="Path_431" data-name="Path 431" class="cls-6" d="M78.9 70.516v31.807l27.547 15.891 27.547-15.891V70.516L106.447 54.6z" transform="translate(958.814 623.572)"/><g id="Group_432" data-name="Group 432" transform="translate(1042.376 683.555)"><path id="Path_2" data-name="Path 2" d="M78.9 67.823v26.424l22.885 13.2 22.885-13.2V67.823L101.785 54.6z" transform="translate(-78.9 -54.6)" fill="#e30c34"/><path id="Path_3" data-name="Path 3" class="cls-4" d="M130.157 96.2l-15.257 8.815v8.794l7.628-4.386v17.609l7.628 4.408v-26.425l7.628-4.408z" transform="translate(-107.272 -87.385)"/><path id="Path_4" data-name="Path 4" class="cls-4" d="M222.9 142.108v17.63l7.628-4.408v-17.609l-.021-.021z" transform="translate(-192.386 -120.091)"/></g></g></svg>