<svg xmlns="http://www.w3.org/2000/svg" viewBox="0 0 353.888 485.985">
  <defs>
    <style>
      .cls-1 {
        fill: #2996dd;
      }

      .cls-2 {
        fill: #57b3ef;
      }

      .cls-3 {
        fill: #d83020;
      }

      .cls-4 {
        fill: #be1d0d;
      }

      .cls-5 {
        fill: #595959;
      }

      .cls-6 {
        fill: #d8d8d8;
      }

      .cls-7 {
        fill: #eaeaea;
      }

      .cls-8 {
        fill: #4c4c4c;
      }

      .cls-9 {
        fill: #a0a0a0;
      }

      .cls-10 {
        fill: #333;
      }

      .cls-11 {
        fill: #8c8c8c;
      }

      .cls-12 {
        fill: #7c7c7c;
      }

      .cls-13 {
        fill: #939393;
      }

      .cls-14 {
        fill: #d3d3d3;
      }

      .cls-15 {
        fill: #bababa;
      }

      .cls-16 {
        fill: #e30c34;
      }

      .cls-17 {
        fill: #fff;
      }

      .cls-18 {
        fill: #dbdbdb;
      }

      .cls-19 {
        fill: #f7f5f5;
      }
    </style>
  </defs>
  <g id="Group_585" data-name="Group 585" transform="translate(-936 -313.414)">
    <g id="Group_284" data-name="Group 284" transform="translate(1024.337 313.414)">
      <path id="Path_81" data-name="Path 81" class="cls-1" d="M114.255,317.027l-.624-257.779C113.632,40.954,95.13.416,72.47,0h-.208C49.395-.207,30.893,40.122,31.1,58.416l.416,253.413c0,18.294,18.5,21.412,41.369,21.62h0C95.754,333.866,114.255,335.321,114.255,317.027Z" transform="translate(33.971 0)"/>
      <path id="Path_82" data-name="Path 82" class="cls-2" d="M72.469,0h0C49.394-.207,31.1,40.122,31.1,58.416l.416,253.413c0,18.294,18.5,21.412,41.369,21.62L72.261,2.287A9.323,9.323,0,0,1,72.469,0Z" transform="translate(33.972 0)"/>
      <path id="Path_84" data-name="Path 84" class="cls-1" d="M49.5,331.718h7.068l-4.989-11.85V298.04l-.416-194.374c0-11.434-7.276-36.38-16.423-38.459-.416,0-.832-.208-1.247-.208-9.771,0-17.462,26.4-17.462,38.251l.416,194.374v21.828L12.5,331.094h6.237l-4.366,12.889,20.165.208L54.7,344.4Z" transform="translate(14.502 70.127)"/>
      <path id="Path_85" data-name="Path 85" class="cls-2" d="M34.12,69.881a16.212,16.212,0,0,1,.624-4.573c-.416,0-.832-.208-1.247-.208-9.771,0-17.462,26.4-17.462,38.251l.416,194.373v21.828L12.5,331.194h6.237l15.591.208Z" transform="translate(14.502 70.143)"/>
      <path id="Path_84-2" data-name="Path 84" class="cls-1" d="M49.5,331.718h7.068l-4.989-11.85V298.04l-.416-194.374c0-11.434-7.276-36.38-16.423-38.459-.416,0-.832-.208-1.247-.208-9.771,0-17.462,26.4-17.462,38.251l.416,194.374v21.828L12.5,331.094h6.237l-4.366,12.889,20.165.208L54.7,344.4Z" transform="translate(131.489 70.127)"/>
      <path id="Path_85-2" data-name="Path 85" class="cls-2" d="M34.12,69.881a16.212,16.212,0,0,1,.624-4.573c-.416,0-.832-.208-1.247-.208-9.771,0-17.462,26.4-17.462,38.251l.416,194.373v21.828L12.5,331.194h6.237l15.591.208Z" transform="translate(131.489 70.143)"/>
      <path id="Path_96" data-name="Path 96" class="cls-3" d="M45.82,141.986C19.667,169.394,0,180.274,0,215.632c8.578,2.092,43.937,10.67,65.7,15.9L65.486,106C60.047,120.855,53.561,134.036,45.82,141.986Z" transform="translate(0 113.559)"/>
      <path id="Path_97" data-name="Path 97" class="cls-4" d="M50.326,67.2S44.089,112.1,31.2,147.86l.208,124.732c9.979,2.495,16.839,4.158,16.839,4.158Z" transform="translate(34.08 72.5)"/>
      <path id="Path_98" data-name="Path 98" class="cls-3" d="M90.592,142.978C117,171.062,136.7,182.17,136.91,217.59c-8.593,1.886-44.013,9.851-65.6,14.461L71.1,106.3C76.34,121.39,82.837,134.8,90.592,142.978Z" transform="translate(76.53 113.664)"/>
      <path id="Path_99" data-name="Path 99" class="cls-4" d="M61.7,67.4s6.237,44.9,19.333,81.076l.208,124.732c-9.979,2.287-16.839,3.742-16.839,3.742Z" transform="translate(66.985 72.716)"/>
      <path id="Path_117" data-name="Path 117" class="cls-5" d="M59.934,184.212V156.979L54.113,147,48.5,156.979v27.233l5.821,38.043Z" transform="translate(52.147 158.593)"/>
      <path id="Path_100" data-name="Path 100" class="cls-6" d="M90.464,299.633,90.048,70.127c0-6.029-2.079-15.176-5.613-23.491C79.654,34.994,72.378,24.6,64.27,24.6S48.886,34.786,44.105,46.428C40.571,54.951,38.7,63.89,38.7,69.919l.416,229.506a26.224,26.224,0,0,0,25.778,25.986A25.864,25.864,0,0,0,90.464,299.633Z" transform="translate(41.574 26.541)"/>
      <path id="Path_101" data-name="Path 101" class="cls-7" d="M51.381,69.3a4.089,4.089,0,0,1-3.95-3.95,3.947,3.947,0,0,1,3.95-3.95l12.889.208v-26.4L44.105,35C40.571,43.523,38.7,52.462,38.7,58.491L39.116,288a26.224,26.224,0,0,0,25.778,25.986L64.27,69.3Z" transform="translate(41.574 37.761)"/>
      <path id="Path_102" data-name="Path 102" class="cls-8" d="M61.465,24.5c-8.108,0-15.384,10.186-20.165,21.828l20.165.208Z" transform="translate(44.38 26.433)"/>
      <path id="Path_103" data-name="Path 103" class="cls-9" d="M42.9,51.65a4.089,4.089,0,0,0,3.95,3.95l12.889.208v-7.9L46.85,47.7A3.947,3.947,0,0,0,42.9,51.65Z" transform="translate(46.106 51.462)"/>
      <path id="Path_105" data-name="Path 105" class="cls-10" d="M51,24.5V46.328l20.165.208C66.384,35.1,59.108,24.708,51,24.5Z" transform="translate(54.844 26.433)"/>
      <path id="Path_106" data-name="Path 106" class="cls-11" d="M63.889,55.7a3.947,3.947,0,0,0,3.95-3.95,4.089,4.089,0,0,0-3.95-3.95H51v7.9Z" transform="translate(54.844 51.57)"/>
      <path id="Path_118" data-name="Path 118" class="cls-4" d="M54.113,147l.208,75.255L48.5,184.212V156.979Z" transform="translate(52.147 158.593)"/>
      <path id="Path_119" data-name="Path 119" class="cls-3" d="M51.2,147l.208,75.255,5.613-38.043V156.979Z" transform="translate(55.06 158.593)"/>
      <g id="Group_63" data-name="Group 63" transform="translate(73.456 297.834)">
        <path id="Path_126" data-name="Path 126" class="cls-12" d="M9.4,39.446H0V9.4A9.3,9.3,0,0,1,9.4,0" transform="translate(22.615 86.357) rotate(180)"/>
        <path id="Path_127" data-name="Path 127" class="cls-13" d="M0,39.446H9.4V9.4A9.389,9.389,0,0,0,0,0" transform="translate(13.359 86.357) rotate(180)"/>
        <path id="Path_128" data-name="Path 128" class="cls-14" d="M13.7,57.5H0V13.7A13.556,13.556,0,0,1,13.7,0" transform="translate(0 0)"/>
        <path id="Path_129" data-name="Path 129" class="cls-15" d="M6.5,57.5H20.2V13.7A13.686,13.686,0,0,0,6.5,0" transform="translate(6.992 0)"/>
      </g>
      <g id="Group_64" data-name="Group 64" transform="translate(112.253 297.834)">
        <path id="Path_126-2" data-name="Path 126" class="cls-12" d="M9.4,39.446H0V9.4A9.3,9.3,0,0,1,9.4,0" transform="translate(22.615 86.357) rotate(180)"/>
        <path id="Path_127-2" data-name="Path 127" class="cls-13" d="M0,39.446H9.4V9.4A9.389,9.389,0,0,0,0,0" transform="translate(13.359 86.357) rotate(180)"/>
        <path id="Path_128-2" data-name="Path 128" class="cls-14" d="M13.7,57.5H0V13.7A13.556,13.556,0,0,1,13.7,0" transform="translate(0 0)"/>
        <path id="Path_129-2" data-name="Path 129" class="cls-15" d="M6.5,57.5H20.2V13.7A13.686,13.686,0,0,0,6.5,0" transform="translate(6.992 0)"/>
      </g>
      <g id="Group_66" data-name="Group 66" transform="translate(94.371 161.906)">
        <path id="Path_2" data-name="Path 2" class="cls-16" d="M78.9,61.631V75.683L91.07,82.7l12.17-7.02V61.631L91.07,54.6Z" transform="translate(-78.9 -54.6)"/>
        <path id="Path_3" data-name="Path 3" class="cls-17" d="M123.013,96.2l-8.113,4.688v4.676l4.057-2.333V112.6l4.057,2.344h0V100.888l4.057-2.344Z" transform="translate(-110.843 -91.512)"/>
        <path id="Path_4" data-name="Path 4" class="cls-17" d="M222.9,140.044v9.375l4.057-2.344v-9.364l-.011-.011Z" transform="translate(-206.674 -128.336)"/>
      </g>
    </g>
    <g id="Group_285" data-name="Group 285" transform="translate(936 675.985)">
      <g id="Group_98" data-name="Group 98" transform="translate(0 0)">
        <circle id="Ellipse_14" data-name="Ellipse 14" class="cls-18" cx="37.137" cy="37.137" r="37.137" transform="translate(90.479 2.551)"/>
        <circle id="Ellipse_15" data-name="Ellipse 15" class="cls-18" cx="37.137" cy="37.137" r="37.137" transform="translate(0 40.513)"/>
        <circle id="Ellipse_16" data-name="Ellipse 16" class="cls-18" cx="37.137" cy="37.137" r="37.137" transform="translate(58.969 26.558)"/>
        <circle id="Ellipse_17" data-name="Ellipse 17" class="cls-18" cx="18.531" cy="18.531" r="18.531" transform="translate(41.563 31.81)"/>
        <circle id="Ellipse_18" data-name="Ellipse 18" class="cls-18" cx="28.959" cy="28.959" r="28.959" transform="translate(210.592 18.081)"/>
        <circle id="Ellipse_19" data-name="Ellipse 19" class="cls-18" cx="30.385" cy="30.385" r="30.385" transform="translate(180.057 6.527)"/>
        <circle id="Ellipse_20" data-name="Ellipse 20" class="cls-18" cx="18.456" cy="18.456" r="18.456" transform="translate(141.42 14.63)"/>
        <circle id="Ellipse_21" data-name="Ellipse 21" class="cls-18" cx="21.157" cy="21.157" r="21.157" transform="translate(171.354)"/>
        <circle id="Ellipse_24" data-name="Ellipse 24" class="cls-18" cx="32.335" cy="32.335" r="32.335" transform="translate(289.217 48.691)"/>
        <circle id="Ellipse_29" data-name="Ellipse 29" class="cls-18" cx="32.335" cy="32.335" r="32.335" transform="translate(250.42 18.25)"/>
      </g>
      <g id="Group_99" data-name="Group 99" transform="translate(56.793 31.66)">
        <circle id="Ellipse_25" data-name="Ellipse 25" class="cls-19" cx="40.888" cy="40.888" r="40.888" transform="translate(85.902)"/>
        <circle id="Ellipse_26" data-name="Ellipse 26" class="cls-19" cx="35.261" cy="35.261" r="35.261" transform="translate(46.065 21.232)"/>
        <circle id="Ellipse_27" data-name="Ellipse 27" class="cls-19" cx="35.261" cy="35.261" r="35.261" transform="translate(0 18.981)"/>
        <circle id="Ellipse_28" data-name="Ellipse 28" class="cls-19" cx="28.959" cy="28.959" r="28.959" transform="translate(141.195 33.386)"/>
        <circle id="Ellipse_30" data-name="Ellipse 30" class="cls-19" cx="34.736" cy="34.736" r="34.736" transform="translate(181.708 16.805)"/>
      </g>
    </g>
  </g>
</svg>
