<svg xmlns="http://www.w3.org/2000/svg" viewBox="0 0 592.904 814.22"><defs><style>.cls-1,.cls-2,.cls-3,.cls-4,.cls-5,.cls-6,.cls-7{fill:none;stroke-linecap:round;stroke-miterlimit:10}.cls-1,.cls-5{stroke:#a3a3a3}.cls-1{stroke-width:8px}.cls-2,.cls-3,.cls-4,.cls-6,.cls-7{stroke:#d3d3d3}.cls-2,.cls-3,.cls-6{stroke-linejoin:round}.cls-2{stroke-width:7.618px}.cls-3,.cls-4{stroke-width:10px}.cls-5,.cls-6,.cls-7{stroke-width:6px}.cls-8{fill:#2996dd}.cls-9{fill:#57b3ef}.cls-10{fill:#d83020}.cls-11{fill:#be1d0d}.cls-19{fill:#7c7c7c}.cls-20{fill:#939393}.cls-21{fill:#d3d3d3}.cls-22{fill:#bababa}.cls-24{fill:#fff}.cls-25{fill:#dbdbdb}.cls-26{fill:#f7f5f5}</style></defs><g id="Group_426" data-name="Group 426" transform="translate(-936 -313.414)"><g id="Group_425" data-name="Group 425"><g id="Group_89" data-name="Group 89" transform="translate(10.198 -67)"><path id="Line_2" data-name="Line 2" class="cls-1" transform="translate(988.002 644.4)" d="M0 481.8V0"/><g id="Group_88" data-name="Group 88"><path id="Path_160" data-name="Path 160" class="cls-2" d="M96.5 402.2l17.8-23.6-17.8-23.7 17.8-23.6-17.8-23.7 17.8-23.7-17.8-23.6 17.8-23.7L96.5 213l17.8-23.7-17.8-23.7 17.8-23.6-17.8-23.7 17.8-23.7" transform="translate(865.002 639.4)"/><path id="Path_161" data-name="Path 161" class="cls-2" d="M96.5 400.7l17.8 23.7-17.8 23.7 17.8 23.6-14.1 12.5" transform="translate(865.002 639.4)"/><path id="Line_3" data-name="Line 3" class="cls-3" transform="translate(957.802 644.4)" d="M0 0v452.8"/><path id="Line_4" data-name="Line 4" class="cls-4" transform="translate(982.302 644.4)" d="M0 478.8V0"/><path id="Path_162" data-name="Path 162" class="cls-2" d="M114.3 99.2L96.5 75.6l17.8-23.7-17.8-23.7 17.8-23.6" transform="translate(865.002 639.4)"/></g></g><g id="Group_90" data-name="Group 90" transform="translate(510.198 -67)"><path id="Line_2-2" data-name="Line 2" class="cls-1" transform="translate(988.002 644.4)" d="M0 481.8V0"/><g id="Group_88-2" data-name="Group 88"><path id="Path_160-2" data-name="Path 160" class="cls-2" d="M96.5 402.2l17.8-23.6-17.8-23.7 17.8-23.6-17.8-23.7 17.8-23.7-17.8-23.6 17.8-23.7L96.5 213l17.8-23.7-17.8-23.7 17.8-23.6-17.8-23.7 17.8-23.7" transform="translate(865.002 639.4)"/><path id="Path_161-2" data-name="Path 161" class="cls-2" d="M96.5 400.7l17.8 23.7-17.8 23.7 17.8 23.6-14.1 12.5" transform="translate(865.002 639.4)"/><path id="Line_3-2" data-name="Line 3" class="cls-3" transform="translate(957.802 644.4)" d="M0 0v452.8"/><path id="Line_4-2" data-name="Line 4" class="cls-4" transform="translate(982.302 644.4)" d="M0 478.8V0"/><path id="Path_162-2" data-name="Path 162" class="cls-2" d="M114.3 99.2L96.5 75.6l17.8-23.7-17.8-23.7 17.8-23.6" transform="translate(865.002 639.4)"/></g></g><g id="Group_94" data-name="Group 94" transform="translate(-35 -32)"><path id="Line_2-3" data-name="Line 2" class="cls-5" transform="translate(1100.379 705.296)" d="M0 357.026V0"/><path id="Path_160-3" data-name="Path 160" class="cls-6" d="M96.5 322.539l13.19-17.488-13.19-17.562L109.69 270 96.5 252.438l13.19-17.562-13.19-17.488 13.19-17.562-13.19-17.489 13.19-17.562-13.19-17.562 13.19-17.488-13.19-17.563L109.69 94.6" transform="translate(984.242 677.092)"/><path id="Path_161-3" data-name="Path 161" class="cls-6" d="M96.5 400.7l13.19 17.562-13.19 17.563 13.19 17.488-10.448 9.263" transform="translate(984.242 597.82)"/><path id="Line_3-3" data-name="Line 3" class="cls-6" transform="translate(1078 705.296)" d="M0 0v335.536"/><path id="Line_4-3" data-name="Line 4" class="cls-7" transform="translate(1096.155 705.296)" d="M0 354.803V0"/><path id="Path_162-3" data-name="Path 162" class="cls-6" d="M109.69 74.7L96.5 57.213l13.19-17.563L96.5 22.088 109.69 4.6" transform="translate(984.242 700.4)"/></g><g id="Group_96" data-name="Group 96" transform="translate(322 -32)"><path id="Line_2-4" data-name="Line 2" class="cls-5" transform="translate(1100.379 705.296)" d="M0 357.026V0"/><path id="Path_160-4" data-name="Path 160" class="cls-6" d="M96.5 322.539l13.19-17.488-13.19-17.562L109.69 270 96.5 252.438l13.19-17.562-13.19-17.488 13.19-17.562-13.19-17.489 13.19-17.562-13.19-17.562 13.19-17.488-13.19-17.563L109.69 94.6" transform="translate(984.242 677.092)"/><path id="Path_161-4" data-name="Path 161" class="cls-6" d="M96.5 400.7l13.19 17.562-13.19 17.563 13.19 17.488-10.448 9.263" transform="translate(984.242 597.82)"/><path id="Line_3-4" data-name="Line 3" class="cls-6" transform="translate(1078 705.296)" d="M0 0v335.536"/><path id="Line_4-4" data-name="Line 4" class="cls-7" transform="translate(1096.155 705.296)" d="M0 354.803V0"/><path id="Path_162-4" data-name="Path 162" class="cls-6" d="M109.69 74.7L96.5 57.213l13.19-17.563L96.5 22.088 109.69 4.6" transform="translate(984.242 700.4)"/></g><g id="Group_174" data-name="Group 174"><path id="Path_81" data-name="Path 81" class="cls-8" d="M170.419 531.147l-1.045-431.883c0-30.65-31-98.567-68.962-99.263h-.348c-38.312-.348-69.31 67.22-68.964 97.87l.7 424.569c0 30.65 31 35.874 69.31 36.222 38.311.697 69.309 3.138 69.309-27.515z" transform="translate(1131.92 313.414)"/><path id="Path_82" data-name="Path 82" class="cls-9" d="M100.41 0C61.75-.347 31.1 67.221 31.1 97.871l.7 424.569c0 30.65 31 35.874 69.31 36.222l-1.048-554.83A15.619 15.619 0 0 1 100.41 0z" transform="translate(1131.922 313.414)"/><path id="Path_84" data-name="Path 84" class="cls-8" d="M74.5 511.86h11.838l-8.359-19.853v-36.571l-.7-325.654c0-19.156-12.19-60.951-27.515-64.434-.7 0-1.393-.348-2.09-.348-16.37 0-29.257 44.233-29.257 64.086l.7 325.654v36.57l-6.618 19.5h10.45l-7.314 21.594 33.784.348 33.784.348z" transform="translate(1086.739 474.805)"/><path id="Path_85" data-name="Path 85" class="cls-9" d="M48.722 73.111a27.162 27.162 0 0 1 1.045-7.662c-.7 0-1.393-.348-2.09-.348-16.37 0-29.257 44.233-29.257 64.086l.7 325.654v36.569l-6.618 19.5h10.447l26.122.348z" transform="translate(1086.739 474.9)"/><path id="Path_84-2" data-name="Path 84" class="cls-8" d="M74.5 511.86h11.838l-8.359-19.853v-36.571l-.7-325.654c0-19.156-12.19-60.951-27.515-64.434-.7 0-1.393-.348-2.09-.348-16.37 0-29.257 44.233-29.257 64.086l.7 325.654v36.57l-6.618 19.5h10.45l-7.314 21.594 33.784.348 33.784.348z" transform="translate(1282.739 474.805)"/><path id="Path_85-2" data-name="Path 85" class="cls-9" d="M48.722 73.111a27.162 27.162 0 0 1 1.045-7.662c-.7 0-1.393-.348-2.09-.348-16.37 0-29.257 44.233-29.257 64.086l.7 325.654v36.569l-6.618 19.5h10.447l26.122.348z" transform="translate(1282.739 474.9)"/><path id="Path_96" data-name="Path 96" class="cls-10" d="M76.766 166.291C32.95 212.211 0 230.438 0 289.678a49362.061 49362.061 0 0 0 110.067 26.64L109.716 106c-9.116 24.888-19.98 46.971-32.95 60.291z" transform="translate(1054 575.263)"/><path id="Path_97" data-name="Path 97" class="cls-11" d="M63.243 67.2S52.794 142.431 31.2 202.338l.348 208.976c16.718 4.18 28.212 6.966 28.212 6.966z" transform="translate(1132.17 480.268)"/><path id="Path_98" data-name="Path 98" class="cls-10" d="M103.756 167.75c44.244 47.053 77.251 65.663 77.6 125.006-14.4 3.16-73.74 16.5-109.907 24.229L71.1 106.3c8.779 25.282 19.664 47.755 32.656 61.45z" transform="translate(1230.239 575.641)"/><path id="Path_99" data-name="Path 99" class="cls-11" d="M61.7 67.4s10.449 75.231 32.391 135.834l.349 208.976c-16.718 3.831-28.212 6.269-28.212 6.269z" transform="translate(1207.899 480.764)"/><path id="Path_117" data-name="Path 117" d="M67.656 209.344v-45.626L57.9 147l-9.4 16.718v45.626l9.752 63.738z" transform="translate(1174.125 678.405)" fill="#595959"/><path id="Path_100" data-name="Path 100" d="M125.425 485.391l-.7-384.515c0-10.1-3.483-25.425-9.4-39.357C107.314 42.015 95.123 24.6 81.54 24.6S55.766 41.666 47.756 61.171c-5.921 14.28-9.056 29.256-9.056 39.357l.7 384.515c0 23.684 19.5 43.188 43.188 43.537a43.333 43.333 0 0 0 42.837-43.189z" transform="translate(1149.792 374.495)" fill="#d8d8d8"/><path id="Path_101" data-name="Path 101" d="M59.946 92.468a6.851 6.851 0 0 1-6.618-6.618 6.613 6.613 0 0 1 6.618-6.618l21.594.348V35.348L47.756 35C41.835 49.28 38.7 64.257 38.7 74.357l.7 384.515c0 23.684 19.5 43.188 43.188 43.537L81.54 92.468z" transform="translate(1149.792 400.317)" fill="#eaeaea"/><path id="Path_102" data-name="Path 102" d="M75.084 24.5C61.5 24.5 49.311 41.566 41.3 61.071l33.784.348z" transform="translate(1156.248 374.247)" fill="#4c4c4c"/><path id="Path_103" data-name="Path 103" d="M42.9 54.318a6.851 6.851 0 0 0 6.618 6.618l21.594.348V48.048L49.518 47.7a6.613 6.613 0 0 0-6.618 6.618z" transform="translate(1160.22 431.851)" fill="#a0a0a0"/><path id="Path_105" data-name="Path 105" d="M51 24.5v36.571l33.784.348C76.774 42.263 64.583 24.848 51 24.5z" transform="translate(1180.332 374.247)" fill="#333"/><path id="Path_106" data-name="Path 106" d="M72.594 61.035a6.613 6.613 0 0 0 6.618-6.618 6.851 6.851 0 0 0-6.618-6.617H51v13.235z" transform="translate(1180.332 432.099)" fill="#8c8c8c"/><path id="Path_118" data-name="Path 118" class="cls-11" d="M57.9 147l.348 126.082-9.748-63.738v-45.626z" transform="translate(1174.125 678.405)"/><path id="Path_119" data-name="Path 119" class="cls-10" d="M51.2 147l.348 126.082 9.4-63.738v-45.626z" transform="translate(1180.828 678.405)"/><g id="Group_63" data-name="Group 63" transform="translate(-30.297 -45)"><path id="Path_126" data-name="Path 126" class="cls-19" d="M15.746 66.088H0V15.746A15.582 15.582 0 0 1 15.746 0" transform="rotate(180 622.628 501.044)"/><path id="Path_127" data-name="Path 127" class="cls-20" d="M6.5 66.088h15.746V15.746A15.731 15.731 0 0 0 6.5 0" transform="rotate(180 618.124 501.044)"/><path id="Path_128" data-name="Path 128" class="cls-21" d="M22.952 96.329H0V22.952A22.712 22.712 0 0 1 22.952 0" transform="translate(1207.366 857.405)"/><path id="Path_129" data-name="Path 129" class="cls-22" d="M6.5 96.329h22.952V22.952A22.93 22.93 0 0 0 6.5 0" transform="translate(1223.47 857.405)"/></g><g id="Group_64" data-name="Group 64" transform="translate(34.703 -45)"><path id="Path_126-2" data-name="Path 126" class="cls-19" d="M15.746 66.088H0V15.746A15.582 15.582 0 0 1 15.746 0" transform="rotate(180 622.628 501.044)"/><path id="Path_127-2" data-name="Path 127" class="cls-20" d="M6.5 66.088h15.746V15.746A15.731 15.731 0 0 0 6.5 0" transform="rotate(180 618.124 501.044)"/><path id="Path_128-2" data-name="Path 128" class="cls-21" d="M22.952 96.329H0V22.952A22.712 22.712 0 0 1 22.952 0" transform="translate(1207.366 857.405)"/><path id="Path_129-2" data-name="Path 129" class="cls-22" d="M6.5 96.329h22.952V22.952A22.93 22.93 0 0 0 6.5 0" transform="translate(1223.47 857.405)"/></g><g id="Group_66" data-name="Group 66" transform="translate(1212.11 584.671)"><path id="Path_2" data-name="Path 2" d="M78.9 66.38v23.542l20.389 11.762 20.389-11.762V66.38L99.289 54.6z" transform="translate(-78.9 -54.6)" fill="#e30c34"/><path id="Path_3" data-name="Path 3" class="cls-24" d="M128.493 96.2l-13.593 7.854v7.835l6.8-3.908v15.688l6.8 3.927v-23.542l6.8-3.927z" transform="translate(-108.104 -88.346)"/><path id="Path_4" data-name="Path 4" class="cls-24" d="M222.9 141.627v15.707l6.8-3.927v-15.688l-.019-.019z" transform="translate(-195.714 -122.012)"/></g></g><g id="Group_100" data-name="Group 100" transform="translate(-24 -53)"><g id="Group_98" data-name="Group 98"><circle id="Ellipse_14" data-name="Ellipse 14" class="cls-25" cx="62.219" cy="62.219" r="62.219" transform="translate(1111.588 978.139)"/><circle id="Ellipse_15" data-name="Ellipse 15" class="cls-25" cx="62.219" cy="62.219" r="62.219" transform="translate(960 1041.741)"/><circle id="Ellipse_16" data-name="Ellipse 16" class="cls-25" cx="62.219" cy="62.219" r="62.219" transform="translate(1058.796 1018.362)"/><circle id="Ellipse_17" data-name="Ellipse 17" class="cls-25" cx="31.047" cy="31.047" r="31.047" transform="translate(1029.635 1027.161)"/><circle id="Ellipse_18" data-name="Ellipse 18" class="cls-25" cx="48.518" cy="48.518" r="48.518" transform="translate(1312.826 1004.158)"/><circle id="Ellipse_19" data-name="Ellipse 19" class="cls-25" cx="50.907" cy="50.907" r="50.907" transform="translate(1261.668 984.801)"/><circle id="Ellipse_20" data-name="Ellipse 20" class="cls-25" cx="30.921" cy="30.921" r="30.921" transform="translate(1196.935 998.376)"/><circle id="Ellipse_21" data-name="Ellipse 21" class="cls-25" cx="35.446" cy="35.446" r="35.446" transform="translate(1247.088 973.866)"/><circle id="Ellipse_24" data-name="Ellipse 24" class="cls-25" cx="54.175" cy="54.175" r="54.175" transform="translate(1444.554 1055.442)"/><circle id="Ellipse_29" data-name="Ellipse 29" class="cls-25" cx="54.175" cy="54.175" r="54.175" transform="translate(1379.554 1004.442)"/></g><g id="Group_99" data-name="Group 99"><circle id="Ellipse_25" data-name="Ellipse 25" class="cls-26" cx="68.504" cy="68.504" r="68.504" transform="translate(1199.072 1026.909)"/><circle id="Ellipse_26" data-name="Ellipse 26" class="cls-26" cx="59.077" cy="59.077" r="59.077" transform="translate(1132.328 1062.481)"/><circle id="Ellipse_27" data-name="Ellipse 27" class="cls-26" cx="59.077" cy="59.077" r="59.077" transform="translate(1055.151 1058.71)"/><circle id="Ellipse_28" data-name="Ellipse 28" class="cls-26" cx="48.518" cy="48.518" r="48.518" transform="translate(1291.709 1082.843)"/><circle id="Ellipse_30" data-name="Ellipse 30" class="cls-26" cx="58.197" cy="58.197" r="58.197" transform="translate(1359.584 1055.065)"/></g></g></g></g></svg>