<svg xmlns="http://www.w3.org/2000/svg" viewBox="0 0 212.058 212.879"><defs><style>.cls-1{fill:#57b3ef}.cls-2{fill:#fff}.cls-3{fill:#b5b5b5}.cls-4{fill:#2996dd}.cls-5{fill:#d83020}</style></defs><g id="Group_427" data-name="Group 427" transform="translate(-620 -116)"><path id="Path_184" data-name="Path 184" class="cls-1" d="M70.608 33.327a15.971 15.971 0 0 0-22.783 0L46.6 34.552l22.783 22.783 1.225-1.225a15.97 15.97 0 0 0 0-22.783z" transform="translate(686.587 157.378)"/><path id="Rectangle_16" data-name="Rectangle 16" class="cls-1" transform="rotate(45 62.411 968.582)" d="M0 0h7.349v10.289H0z"/><path id="Path_185" data-name="Path 185" class="cls-2" d="M38.489 60.93l-3.675-3.43L23.3 70.729l1.715 1.715z" transform="translate(652.806 199.35)"/><path id="Rectangle_27" data-name="Rectangle 27" class="cls-1" transform="rotate(45 115.25 951.81)" d="M0 0h10.044v9.064H0z"/><path id="Rectangle_28" data-name="Rectangle 28" class="cls-2" transform="rotate(-135 468.725 -1.5)" d="M0 0h93.583v43.607H0z"/><g id="Group_110" data-name="Group 110" transform="translate(742.148 239.153)"><g id="Group_108" data-name="Group 108" transform="translate(12.799)"><path id="Rectangle_29" data-name="Rectangle 29" class="cls-3" transform="rotate(-135 44.221 22.687)" d="M0 0h17.639v14.699H0z"/><path id="Rectangle_30" data-name="Rectangle 30" class="cls-3" transform="rotate(-135 33.22 18.109)" d="M0 0h17.639v14.699H0z"/><path id="Rectangle_31" data-name="Rectangle 31" class="cls-3" transform="rotate(-135 22.096 13.48)" d="M0 0h17.639v14.699H0z"/><path id="Rectangle_32" data-name="Rectangle 32" class="cls-3" transform="rotate(-135 10.972 8.85)" d="M0 0h17.639v14.699H0z"/></g><g id="Group_109" data-name="Group 109" transform="translate(0 12.619)"><path id="Rectangle_33" data-name="Rectangle 33" class="cls-3" transform="rotate(-135 44.394 22.616)" d="M0 0h17.639v14.699H0z"/><path id="Rectangle_34" data-name="Rectangle 34" class="cls-3" transform="rotate(-135 33.27 17.987)" d="M0 0h17.639v14.699H0z"/><path id="Rectangle_35" data-name="Rectangle 35" class="cls-3" transform="rotate(-135 22.096 13.48)" d="M0 0h17.639v14.699H0z"/><path id="Rectangle_36" data-name="Rectangle 36" class="cls-3" transform="rotate(-135 10.972 8.85)" d="M0 0h17.639v14.699H0z"/></g></g><path id="Rectangle_37" data-name="Rectangle 37" class="cls-4" transform="rotate(-135 424.63 -27.235)" d="M0 0h4.165v17.884H0z"/><path id="Rectangle_38" data-name="Rectangle 38" class="cls-1" transform="rotate(-135 423.5 -30.386)" d="M0 0h10.044v9.064H0z"/><path id="Rectangle_39" data-name="Rectangle 39" class="cls-2" transform="rotate(45 139.38 975.301)" d="M0 0h43.117v57.081H0z"/><path id="Path_186" data-name="Path 186" class="cls-5" d="M48.108 55.827a15.971 15.971 0 0 0-22.783 0L24.1 57.052l22.783 22.783 1.225-1.225a15.97 15.97 0 0 0 0-22.783z" transform="translate(653.966 189.999)"/><path id="Path_187" data-name="Path 187" class="cls-5" d="M63.75 74.005L34.6 44.852A3.638 3.638 0 0 0 29.452 50l29.153 29.15a3.55 3.55 0 0 0 5.145 0 3.779 3.779 0 0 0 0-5.145z" transform="translate(660.128 179.415)"/><path id="Path_188" data-name="Path 188" class="cls-5" d="M79.895 58.005L50.5 28.852A3.638 3.638 0 1 0 45.352 34l29.153 29.15a3.55 3.55 0 0 0 5.145 0 3.368 3.368 0 0 0 .245-5.145z" transform="translate(683.18 156.218)"/><path id="Rectangle_40" data-name="Rectangle 40" class="cls-1" transform="rotate(45 118.812 978.66)" d="M0 0h15.434v13.474H0z"/><path id="Rectangle_41" data-name="Rectangle 41" class="cls-1" transform="rotate(45 108.217 1004.287)" d="M0 0h4.9v4.9H0z"/><path id="Rectangle_42" data-name="Rectangle 42" class="cls-1" transform="rotate(45 97.817 999.9)" d="M0 0h4.9v4.9H0z"/><circle id="Ellipse_31" data-name="Ellipse 31" class="cls-1" cx="5.145" cy="5.145" r="5.145" transform="translate(671.942 265.915)"/><path id="Rectangle_62" data-name="Rectangle 62" class="cls-2" transform="rotate(45 185.393 843.626)" d="M0 0h93.583v43.607H0z"/><g id="Group_172" data-name="Group 172" transform="translate(627.102 123.093)"><g id="Group_103" data-name="Group 103" transform="translate(12.615)"><path id="Rectangle_18" data-name="Rectangle 18" class="cls-3" transform="rotate(45 5.197 12.547)" d="M0 0h17.639v14.699H0z"/><path id="Rectangle_19" data-name="Rectangle 19" class="cls-3" transform="rotate(45 -5.975 39.645)" d="M0 0h17.639v14.699H0z"/><path id="Rectangle_20" data-name="Rectangle 20" class="cls-3" transform="rotate(45 -17.024 66.447)" d="M0 0h17.639v14.699H0z"/><path id="Rectangle_21" data-name="Rectangle 21" class="cls-3" transform="rotate(45 -28.369 93.127)" d="M0 0h17.639v14.699H0z"/></g><g id="Group_104" data-name="Group 104" transform="translate(0 12.793)"><path id="Rectangle_22" data-name="Rectangle 22" class="cls-3" transform="rotate(45 5.197 12.547)" d="M0 0h17.639v14.699H0z"/><path id="Rectangle_23" data-name="Rectangle 23" class="cls-3" transform="rotate(45 -5.852 39.35)" d="M0 0h17.639v14.699H0z"/><path id="Rectangle_24" data-name="Rectangle 24" class="cls-3" transform="rotate(45 -16.9 66.151)" d="M0 0h17.639v14.699H0z"/><path id="Rectangle_25" data-name="Rectangle 25" class="cls-3" transform="rotate(45 -27.95 92.954)" d="M0 0h17.639v14.699H0z"/></g></g><path id="Rectangle_63" data-name="Rectangle 63" class="cls-4" transform="rotate(45 123.017 949.937)" d="M0 0h4.165v17.884H0z"/></g></svg>