<svg xmlns="http://www.w3.org/2000/svg" viewBox="0 0 290.272 291.766"><defs><style>.cls-1{fill:#a7a9ac}.cls-2{fill:#fff}.cls-3{fill:#e6e7e8}.cls-4{fill:#bcbec0}.cls-5{fill:#231f20}.cls-6{fill:#414042}</style></defs><g id="Group_417" data-name="Group 417" transform="translate(-1246.297 -561.365)"><g id="Group_163" data-name="Group 163" transform="translate(1246.297 561.365)"><g id="Space_Robot_1_"><path id="Rectangle_49" data-name="Rectangle 49" class="cls-1" transform="translate(47.165 117.803)" d="M0 0h11.407v43.655H0z"/><path id="Rectangle_50" data-name="Rectangle 50" class="cls-2" transform="translate(265.002 13.162)" d="M0 0h6.142v105.738H0z"/><path id="Rectangle_51" data-name="Rectangle 51" class="cls-3" transform="rotate(-52.181 211.59 -106.9)" d="M0 0h77.219v18.866H0z"/><path id="Rectangle_52" data-name="Rectangle 52" class="cls-2" transform="rotate(-52.2 176.6 -187.504)" d="M0 0h77.219v11.627H0z"/><path id="Path_221" data-name="Path 221" class="cls-4" d="M65.682 93.591A10.091 10.091 0 1 1 55.591 83.5a10.064 10.064 0 0 1 10.091 10.091z" transform="translate(-2.722 20.921)"/><path id="Path_222" data-name="Path 222" class="cls-4" d="M74.151 112.375A15.575 15.575 0 1 1 58.575 96.8a15.635 15.635 0 0 1 15.576 15.575z" transform="translate(-5.707 36.798)"/><path id="Path_223" data-name="Path 223" class="cls-4" d="M129.551 103.675A15.575 15.575 0 1 1 113.975 88.1a15.635 15.635 0 0 1 15.576 15.575z" transform="translate(60.426 26.413)"/><path id="Path_224" data-name="Path 224" class="cls-4" d="M166.331 47.965A12.065 12.065 0 1 1 154.266 35.9a12.32 12.32 0 0 1 12.065 12.065z" transform="translate(112.711 -35.9)"/><g id="Group_155" data-name="Group 155" transform="translate(43.875 35.538)"><path id="Rectangle_53" data-name="Rectangle 53" class="cls-4" d="M0 0h68.444v2.413H0z"/></g><g id="Group_156" data-name="Group 156" transform="translate(109.906 35.538)"><path id="Rectangle_54" data-name="Rectangle 54" class="cls-4" d="M0 0h2.413v68.444H0z"/></g><g id="Group_157" data-name="Group 157" transform="translate(63.074 35.847)"><path id="Rectangle_55" data-name="Rectangle 55" class="cls-4" transform="rotate(-45.032 58.407 24.212)" d="M0 0h68.444v2.413H0z"/></g><g id="Group_158" data-name="Group 158" transform="translate(26.27 28.299)"><path id="Path_225" data-name="Path 225" class="cls-2" d="M54.263 127.116a55.411 55.411 0 0 0 78.316 0L54.263 48.8a55.213 55.213 0 0 0 0 78.316z" transform="translate(-37.975 -48.8)"/></g><path id="Path_226" data-name="Path 226" class="cls-2" d="M86.494 61.894a7.446 7.446 0 1 1 0-10.53 7.549 7.549 0 0 1 0 10.53z" transform="translate(31.09 -19.994)"/><path id="Rectangle_56" data-name="Rectangle 56" class="cls-3" transform="translate(250.291 177.492)" d="M0 0h32.687v22.815H0z"/><path id="Rectangle_57" data-name="Rectangle 57" class="cls-4" transform="rotate(-.066 155143.948 -197388.404)" d="M0 0h22.815v20.621H0z"/><path id="Rectangle_58" data-name="Rectangle 58" class="cls-2" transform="translate(251.401 178.569)" d="M0 0h30.932v2.632H0z"/><path id="Rectangle_59" data-name="Rectangle 59" class="cls-2" transform="translate(228.586 179.886)" d="M0 0h20.621v2.632H0z"/><path id="Path_229" data-name="Path 229" class="cls-4" d="M227.823 138.5H26l25.667 44.533h176.156l25.666-44.533z" transform="translate(-26 86.576)"/><circle id="Ellipse_51" data-name="Ellipse 51" class="cls-5" cx="22.157" cy="22.157" r="22.157" transform="translate(3.071 247.452)"/><path id="Path_230" data-name="Path 230" class="cls-6" d="M58.5 166.2a13.6 13.6 0 1 1-13.6-13.6 13.67 13.67 0 0 1 13.6 13.6z" transform="translate(-19.673 103.408)"/><circle id="Ellipse_52" data-name="Ellipse 52" class="cls-5" cx="22.157" cy="22.157" r="22.157" transform="translate(47.384 247.452)"/><path id="Path_231" data-name="Path 231" class="cls-6" d="M78.6 166.2A13.6 13.6 0 1 1 65 152.6a13.529 13.529 0 0 1 13.6 13.6z" transform="translate(4.321 103.408)"/><circle id="Ellipse_53" data-name="Ellipse 53" class="cls-5" cx="22.157" cy="22.157" r="22.157" transform="translate(91.478 247.452)"/><path id="Path_232" data-name="Path 232" class="cls-6" d="M98.8 166.2a13.6 13.6 0 1 1-13.6-13.6 13.67 13.67 0 0 1 13.6 13.6z" transform="translate(28.434 103.408)"/><path id="Path_233" data-name="Path 233" class="cls-5" d="M132.213 170.857a22.157 22.157 0 1 1-22.156-22.157 22.1 22.1 0 0 1 22.156 22.157z" transform="translate(47.892 98.752)"/><path id="Path_234" data-name="Path 234" class="cls-6" d="M119 166.2a13.6 13.6 0 1 1-13.6-13.6 13.67 13.67 0 0 1 13.6 13.6z" transform="translate(52.547 103.408)"/><path id="Path_235" data-name="Path 235" class="cls-5" d="M152.413 170.857a22.157 22.157 0 1 1-22.156-22.157 22.1 22.1 0 0 1 22.156 22.157z" transform="translate(72.005 98.752)"/><path id="Path_236" data-name="Path 236" class="cls-6" d="M139.1 166.2a13.6 13.6 0 1 1-13.6-13.6 13.529 13.529 0 0 1 13.6 13.6z" transform="translate(76.541 103.408)"/><path id="Path_237" data-name="Path 237" class="cls-2" d="M233.746 103.8H26v76.122h227.489v-46.507z" transform="translate(-26 45.154)"/><path id="Rectangle_60" data-name="Rectangle 60" class="cls-1" transform="translate(152.903 139.74)" d="M0 0h42.997v9.214H0z"/><path id="Path_238" data-name="Path 238" class="cls-4" d="M145.539 102.956a8.1 8.1 0 0 1 8.117-8.117 8.227 8.227 0 1 1 .219 16.453v7.459a15.575 15.575 0 1 0-15.575-15.576h7.239z" transform="translate(108.056 25.816)"/><path id="Rectangle_61" data-name="Rectangle 61" transform="translate(0 180.544)" fill="#2996dd" d="M0 0h227.709v13.82H0z"/></g></g><rect id="Rectangle_105" data-name="Rectangle 105" width="7.937" height="29.368" rx="3.969" transform="translate(1528.632 735.698)" fill="#4a60b2"/></g></svg>