<svg xmlns="http://www.w3.org/2000/svg" viewBox="0 0 145.268 141.766"><defs><style>.cls-1{fill:#2996dd}.cls-2{fill:#fafafa}.cls-8{fill:#d8f0fa}</style></defs><g id="Group_261" data-name="Group 261" transform="translate(-1205.365 -1108.81)"><path id="Rectangle_117" data-name="Rectangle 117" class="cls-1" transform="translate(1266.729 1164.762)" d="M0 0h6.281v21.357H0z"/><path id="Rectangle_118" data-name="Rectangle 118" class="cls-1" transform="translate(1266.729 1185.829)" d="M0 0h6.281v64.746H0z"/><path id="Path_336" data-name="Path 336" class="cls-1" d="M37.9 144.167L55.778 80l5.991 1.643-17.2 62.524z" transform="translate(1203.993 1106.119)"/><path id="Path_337" data-name="Path 337" class="cls-1" d="M95.069 144.167L77.191 80 71.2 81.643l17.3 62.524z" transform="translate(1202.873 1106.119)"/><path id="Path_338" data-name="Path 338" class="cls-2" d="M72.956 79.778a6.378 6.378 0 1 1-6.378-6.378 6.372 6.372 0 0 1 6.378 6.378z" transform="translate(1203.243 1106.341)"/><path id="Rectangle_119" data-name="Rectangle 119" class="cls-2" transform="translate(1258.901 1183.027)" d="M0 0h21.84v6.281H0z"/><path id="Rectangle_120" data-name="Rectangle 120" transform="rotate(-70.06 1427.306 -289.282)" fill="#4a60b2" d="M0 0h39.138v56.146H0z"/><path id="Rectangle_121" data-name="Rectangle 121" transform="rotate(-70.06 1466.44 -318.695)" fill="#739be5" d="M0 0h35.369v39.041H0z"/><path id="Rectangle_122" data-name="Rectangle 122" transform="rotate(-70.06 1488.925 -345.838)" fill="#e84c3d" d="M0 0h13.916v39.041H0z"/><path id="Path_339" data-name="Path 339" d="M15.852 0l2.223.773a4.057 4.057 0 0 1 2.415 5.122L7.444 41.747a4.057 4.057 0 0 1-5.122 2.416L.1 43.39z" transform="translate(1205.265 1108.81)" fill="#363636"/><path id="Path_340" data-name="Path 340" d="M148.744 62.193a1.784 1.784 0 0 1 1.256 2.32l-5.8 16.138a1.818 1.818 0 0 1-2.416.87l-.387-.193L148.358 62z" transform="translate(1200.512 1106.724)" fill="#4e4e4e"/><path id="Rectangle_123" data-name="Rectangle 123" class="cls-8" transform="rotate(-70.06 1411.877 -313.448)" d="M0 0h4.349v52.957H0z"/><path id="Rectangle_124" data-name="Rectangle 124" class="cls-8" transform="rotate(-70.043 1453.738 -340.715)" d="M0 0h4.349v35.176H0z"/></g></svg>