<svg xmlns="http://www.w3.org/2000/svg" viewBox="0 0 529.681 648.588"><defs><style>.cls-1{fill:#e84c3d}.cls-3{fill:#e8e8e8}.cls-5{fill:#fff}.cls-6{fill:#2996dd}</style><linearGradient id="linear-gradient" x1=".5" x2=".5" y2="1" gradientUnits="objectBoundingBox"><stop offset="0" stop-color="#e84c3d"/><stop offset="1" stop-color="#c9c9c9" stop-opacity=".192"/></linearGradient></defs><g id="Group_282" data-name="Group 282" transform="rotate(-13 -950.94 4262.17)"><g id="Group_168" data-name="Group 168" transform="translate(14 -15)"><path id="Path_72" data-name="Path 72" class="cls-1" d="M180.64 0l-73.146 13.657L96.2 43.336l105.845-19.83z" transform="translate(919.722 384.642)"/><path id="Path_80" data-name="Path 80" d="M147.261 156.857l73.146-13.657 170.719 370.853s-3.677 63.3-154.7 78.005C114.036 604.009 81.6 554.894 81.6 554.894z" transform="translate(915.149 427.495)" opacity=".5" fill="url(#linear-gradient)"/><path id="Path_246" data-name="Path 246" class="cls-3" d="M227.989 15.6L89.05 41.6 66.2 91.767l201.185-37.69z" transform="translate(911.325 388.528)"/><path id="Path_247" data-name="Path 247" d="M314.84 40.5L52.2 89.746l-39.4 66.449L375.642 88.3z" transform="translate(893.6 395.327)" fill="#57b3ef"/><path id="Path_248" data-name="Path 248" class="cls-3" d="M331.781 119.58L69.137 168.694 12.8 144.793 375.642 76.9z" transform="translate(893.6 406.728)"/><path id="Path_249" data-name="Path 249" class="cls-1" d="M209.82 150.179l-73.146 13.789L115.4 140.33l105.845-19.83z" transform="translate(925.735 420.385)"/><path id="Path_250" data-name="Path 250" class="cls-5" d="M396.716 77.826a12.422 12.422 0 0 1-9.98 14.577L14.831 162a12.422 12.422 0 0 1-14.577-9.98 12.422 12.422 0 0 1 9.98-14.577l371.9-69.6a12.69 12.69 0 0 1 14.577 9.98z" transform="translate(889.598 403.833)"/><g id="Group_167" data-name="Group 167" transform="translate(963.982 450.619)"><path id="Path_75" data-name="Path 75" class="cls-6" d="M163.012 78.535a12.492 12.492 0 1 1-14.577-9.98 12.422 12.422 0 0 1 14.577 9.98z" transform="translate(-29.097 -47.577)"/><path id="Path_76" data-name="Path 76" class="cls-6" d="M121.412 86.335a12.492 12.492 0 1 1-14.577-9.98 12.422 12.422 0 0 1 14.577 9.98z" transform="translate(-42.127 -45.134)"/><path id="Path_77" data-name="Path 77" class="cls-6" d="M79.912 94.026a12.492 12.492 0 1 1-14.577-9.98 12.69 12.69 0 0 1 14.577 9.98z" transform="translate(-55.126 -42.712)"/><path id="Path_78" data-name="Path 78" class="cls-6" d="M247.312 62.735a12.492 12.492 0 1 1-14.577-9.98 12.422 12.422 0 0 1 14.577 9.98z" transform="translate(-2.693 -52.526)"/><path id="Path_79" data-name="Path 79" class="cls-6" d="M205.912 70.426a12.492 12.492 0 1 1-14.577-9.98 12.69 12.69 0 0 1 14.577 9.98z" transform="translate(-15.66 -50.104)"/></g></g><g id="Group_175" data-name="Group 175" transform="rotate(-10.02 2886.5 -5907.888)"><path id="Path_2" data-name="Path 2" d="M78.9 61.774v14.337l12.417 7.163 12.417-7.163V61.774L91.317 54.6z" transform="translate(-78.9 -54.6)" fill="#e30c34"/><path id="Path_3" data-name="Path 3" class="cls-5" d="M123.178 96.2l-8.278 4.783v4.771l4.139-2.38v9.554l4.139 2.391v-14.336l4.139-2.391z" transform="translate(-110.761 -91.417)"/><path id="Path_4" data-name="Path 4" class="cls-5" d="M222.9 140.091v9.566l4.139-2.391v-9.554l-.012-.011z" transform="translate(-206.344 -128.146)"/></g></g></svg>