<svg width="510" height="194" viewBox="0 0 510 194" xmlns="http://www.w3.org/2000/svg"><title>logo-text</title><g fill="#DB4532" fill-rule="evenodd"><path d="M493.61 45.43l-54.23.927c-1.363.03-2.35-1.298-1.97-2.625 3.61-12.645 15.105-22.034 28.805-22.267a30 30 0 0 1 9.18 1.253c9.55 2.895 17.136 10.424 20.126 20.02.41 1.312-.54 2.67-1.91 2.69m15.446 5.86c-.133-11.77-4.945-22.733-13.52-30.747-8.022-7.49-18.803-11.58-29.77-11.31-14.126.334-27.068 7.556-35.092 19.995a41.076 41.076 0 0 0-5.65 13.88c-4.768 23.177 9.11 43.884 29.188 49.928a41.855 41.855 0 0 0 12.847 1.77c16.966-.288 32.377-10.96 38.81-26.717a1.02 1.02 0 0 0-.942-1.4l-6.342-.03c-3.123-.023-6.102 1.4-8.012 3.89-5.6 7.272-14.295 11.863-23.653 12.018-8.107.14-15.75-2.91-21.552-8.575-4.312-4.23-7.217-9.538-8.455-15.345l66.13-1.135c3.36-.056 6.042-2.847 6.013-6.222M92.96 40.91v42.073c0 3.123 1.41 6.084 3.848 8.02l6.58 5.235c.653.525 1.62.048 1.62-.802V41.162c0-15.71-11.862-29.254-27.314-30.023-9.91-.5-18.777 4.142-24.302 11.51-4.952-6.618-12.5-11.08-21.18-11.51C15.696 10.302 2 23.716 2 40.313v55.118c0 .853.965 1.33 1.622.805l6.575-5.234c2.443-1.937 3.847-4.898 3.847-8.025V40.91c-.004-9.03 6.704-16.933 15.577-17.536 9.737-.658 17.863 7.194 17.863 16.94V82.98a10.28 10.28 0 0 0 3.848 8.024l6.575 5.234c.658.525 1.626.048 1.626-.805v-54.27c0-.286-.032-.567-.04-.848h.04c0-9.75 8.12-17.6 17.86-16.933 8.872.602 15.572 8.498 15.572 17.528m238.312 55.226c.65.588 1.69.12 1.69-.77V15.3c0-2.947-1.276-5.764-3.486-7.708l-6.988-6.114c-.658-.584-1.67-.107-1.67.765v79.9c0 2.904 1.226 5.68 3.374 7.617l7.08 6.376zm-170.297-12.02c-16.73 0-30.345-13.736-30.345-30.625 0-16.876 13.615-30.615 30.345-30.615 16.738 0 30.353 13.74 30.353 30.617 0 16.89-13.615 30.626-30.353 30.626m42.5-30.625c0-23.634-19.07-42.866-42.5-42.866-23.42 0-42.49 19.232-42.49 42.867 0 23.644 19.07 42.88 42.49 42.88 23.43 0 42.5-19.236 42.5-42.88m54.845 30.622c-16.71 0-30.304-13.695-30.34-30.55v-.152c.036-16.84 13.63-30.54 30.34-30.54 16.734 0 30.345 13.74 30.345 30.617 0 16.89-13.61 30.627-30.345 30.627m42.49-30.625c0-23.634-19.063-42.866-42.49-42.866-11.874 0-22.628 4.946-30.34 12.897V15.3a10.31 10.31 0 0 0-3.486-7.707l-6.988-6.114c-.662-.586-1.67-.11-1.67.763v50.952l-.008.295s.003.194.007.293v1.48h.033c.928 22.82 19.613 41.107 42.452 41.107 23.427 0 42.49-19.236 42.49-42.88m110.596 41.327h5.218c.854 0 1.323-.98.806-1.652l-37.22-48.383 36.573-29.41c.75-.597.333-1.817-.628-1.817H404.84c-4.54 0-7.468 1.844-9.253 3.256l-28.48 22.86V14.09c0-2.953-1.28-5.77-3.49-7.706L356.632.25c-.658-.572-1.674-.102-1.674.778v81.12c0 2.91 1.23 5.68 3.374 7.623l7.088 6.37c.647.585 1.686.116 1.686-.76V55.324l3.614-2.905 29.675 38.5c1.918 2.455 5.743 3.897 11.013 3.897M248.81 148.382h-21.1v-8.794a.79.79 0 0 1 .802-.78h20.297v9.574zm0 14.837h-20.3a.796.796 0 0 1-.802-.79v-8.645h21.1v9.433zm5.48-9.435h21.164v8.646a.786.786 0 0 1-.787.788H254.29v-9.434zm0-14.978h20.377a.78.78 0 0 1 .787.78v8.794H254.29v-9.573zm30.725 37.667H254.29v-7.852h23.99c1.472 0 2.655-1.17 2.655-2.62v-29.986c0-1.438-1.183-2.613-2.654-2.613h-10.534l2.543-3.807c.372-.54.176-1.113-.556-1.113h-4.527c-.528 0-.91.055-1.16.43l-3.012 4.49H242.14l-3.013-4.49c-.25-.375-.628-.43-1.16-.43h-4.528c-.73 0-.928.573-.55 1.113l2.54 3.807h-10.54c-1.458 0-2.656 1.175-2.656 2.613v29.986c0 1.45 1.198 2.62 2.654 2.62h23.922v7.852h-31.45c0 2.986 2.452 5.407 5.49 5.407h25.96v10.843c0 .444.357.79.797.79h3.89a.79.79 0 0 0 .792-.79V181.88h30.724a.795.795 0 0 0 .798-.797v-3.822a.79.79 0 0 0-.798-.786zm106.825-.024h-26.357v-10.158h20.37c.44 0 .8-.354.8-.783v-3.98a.793.793 0 0 0-.8-.787h-20.37v-12.257a.78.78 0 0 0-.79-.773h-3.9a.787.787 0 0 0-.794.773v12.257h-17.77a.25.25 0 0 1-.215-.392l11.475-17.29h35.83c.444 0 .802-.35.802-.788v-3.833a.787.787 0 0 0-.802-.777h-32.24l5.38-8.066c.373-.543.18-1.116-.554-1.116h-4.524c-.532 0-.912.06-1.164.433l-5.865 8.75h-21.15c0 2.983 2.454 5.396 5.488 5.396h12.083l-11.168 16.833c-1.09 1.637-.89 3.86.658 5.304.794.74 1.877 1.094 2.967 1.094H360v10.16h-33.303c0 2.986 2.454 5.403 5.474 5.403H360v10.872c0 .44.36.79.793.79h3.9a.79.79 0 0 0 .79-.79v-10.872h26.358a.79.79 0 0 0 .796-.787v-3.83a.79.79 0 0 0-.794-.787M15.358 141.587c0 2.987 2.45 5.405 5.48 5.405h.61l-5.617 5.947a.775.775 0 0 0 .04 1.113l2.852 2.61c.33.3.84.273 1.147-.052l5.165-5.57v7.17c0 .44.355.786.802.786h3.877c.44 0 .798-.344.798-.784v-7.015l5.163 5.423c.3.318.813.344 1.13.044l2.8-2.602a.78.78 0 0 0 .043-1.116l-5.628-5.95h5.362a.786.786 0 0 0 .798-.79v-3.832a.785.785 0 0 0-.798-.784h-8.87v-3.238a.79.79 0 0 0-.798-.787h-3.877a.79.79 0 0 0-.802.787v3.238H15.36zm27.185 0c0 2.987 2.45 5.405 5.48 5.405h.61l-5.617 5.947a.775.775 0 0 0 .037 1.113l2.853 2.61c.33.3.84.273 1.146-.052l5.166-5.57v7.17c0 .44.355.786.802.786h3.877c.44 0 .798-.344.798-.784v-7.015l5.163 5.423c.3.318.813.344 1.13.044l2.8-2.602a.78.78 0 0 0 .043-1.116l-5.627-5.95h5.363a.786.786 0 0 0 .798-.79v-3.832a.785.785 0 0 0-.798-.784h-8.87v-3.238a.79.79 0 0 0-.798-.787H53.02a.79.79 0 0 0-.802.787v3.238h-9.675zm25.847 37.364H46.238v-3.445h20.407a.81.81 0 0 0 .802-.792v-3.833c0-.432-.377-.78-.802-.78H46.238v-3.456h14.395c1.56 0 3.1-.425 4.434-1.242l2.314-1.423c.368-.227.49-.704.26-1.063l-1.995-3.24c-.214-.382-.713-.493-1.094-.267l-1.026.616a8.466 8.466 0 0 1-4.383 1.223l-42.56-.005c0 2.986 2.455 5.4 5.48 5.4h18.69v3.456H16.58c0 2.984 2.454 5.406 5.48 5.406h18.69v3.445H14.832c0 2.984 2.45 5.41 5.485 5.41H40.75l-.033 2.774a.997.997 0 0 1-1.002.973l-10.584.003c0 2.984 2.456 5.406 5.483 5.406h7.92c2.025 0 3.662-1.612 3.67-3.605l.036-5.546h22.15a.793.793 0 0 0 .798-.79v-3.83a.79.79 0 0 0-.798-.79"/><path d="M68.475 131.233h-27v-3.02a.793.793 0 0 0-.795-.794h-3.888a.795.795 0 0 0-.795.792v3.02h-25.53c-2.305 0-4.168 1.845-4.168 4.11v39.065A28.96 28.96 0 0 1 2.87 188.07l-2.39 4.586c-.204.384.036.86.524.857l4.202.004c.44-.004.99-.04 1.19-.462l3.377-7.068a34.283 34.283 0 0 0 2.006-11.525v-37.035c0-.44.353-.79.8-.79h55.893c.44 0 .798-.352.798-.788v-3.83a.793.793 0 0 0-.797-.788m69.864-2.748a.813.813 0 0 0-1.09-.293l-3.592 2.07a7.624 7.624 0 0 1-3.744.993h-19.13c0 2.983 2.453 5.393 5.488 5.393l6.297.008v12.083H110.78c0 2.98 2.452 5.39 5.487 5.39h6.297v12.538H110.78c0 2.987 2.452 5.397 5.487 5.397h6.437v2.344c0 4.76-1.17 9.448-3.425 13.666l-2.394 4.587c-.203.38.04.857.525.857h4.203c.44 0 .99-.037 1.194-.46l3.374-7.07a34.25 34.25 0 0 0 2.008-11.525v-2.4h11.152a.78.78 0 0 0 .795-.78v-3.832a.786.786 0 0 0-.795-.784h-11.15v-12.538h11.152a.78.78 0 0 0 .795-.78v-3.837a.782.782 0 0 0-.795-.773H128.19v-12.083h3.192c1.297 0 2.576-.34 3.695-.97l4.905-2.767a.78.78 0 0 0 .288-1.072l-1.933-3.36zm38.616 2.75h-33.848c0 2.98 2.454 5.39 5.484 5.39l9.064.006v8.78l-14.55.01c0 2.983 2.454 5.39 5.484 5.39h9.065v8.786l-14.55.004c0 2.983 2.454 5.393 5.484 5.393h9.065v8.782l-14.55.015c0 2.98 2.454 5.39 5.484 5.39h9.065v13.543c0 .444.355.79.795.79h3.89c.44 0 .803-.346.803-.79V179.18h13.81a.8.8 0 0 0 .81-.79v-3.83c0-.44-.36-.785-.81-.785h-13.81v-8.782h13.81c.45 0 .81-.348.81-.784v-3.83a.792.792 0 0 0-.81-.785h-13.81v-8.786h13.81c.45 0 .81-.35.81-.79v-3.825a.79.79 0 0 0-.81-.787h-13.81v-8.78h13.81a.79.79 0 0 0 .81-.787v-3.825c0-.44-.36-.784-.81-.784"/></g></svg>