<svg enable-background="new 0 0 512 512" version="1.1" viewBox="0 0 512 512" xml:space="preserve" xmlns="http://www.w3.org/2000/svg">
		<path d="m503.98 4.276h-495.97c-4.428 0-8.017 3.589-8.017 8.016v487.42c0 4.427 3.589 8.017 8.017 8.017h495.97c4.428 0 8.017-3.589 8.017-8.017v-487.42c-1e-3 -4.427-3.589-8.016-8.018-8.016zm-8.016 487.42h-479.93v-368.77h479.93v368.77zm0-384.8h-479.93v-86.58h479.93v86.58z"/>
		<path d="m427.02 38.48h-94.063c-4.428 0-8.017 3.589-8.017 8.017 0 4.427 3.588 8.017 8.017 8.017h94.063c4.428 0 8.017-3.589 8.017-8.017 0-4.427-3.589-8.017-8.017-8.017z"/>
		<path d="m469.78 38.48h-17.102c-4.428 0-8.017 3.589-8.017 8.017 0 4.427 3.588 8.017 8.017 8.017h17.102c4.428 0 8.017-3.589 8.017-8.017-1e-3 -4.427-3.589-8.017-8.017-8.017z"/>
		<path d="m264.55 29.929c-18.566 0-33.67 15.105-33.67 33.67s15.105 33.67 33.67 33.67 33.67-15.104 33.67-33.67-15.104-33.67-33.67-33.67zm0 51.307c-9.725 0-17.637-7.912-17.637-17.637s7.912-17.637 17.637-17.637 17.637 7.912 17.637 17.637-7.912 17.637-17.637 17.637z"/>
		<path d="m170.49 29.929c-18.566 0-33.67 15.105-33.67 33.67s15.105 33.67 33.67 33.67 33.67-15.104 33.67-33.67-15.105-33.67-33.67-33.67zm0 51.307c-9.725 0-17.637-7.912-17.637-17.637s7.912-17.637 17.637-17.637 17.637 7.912 17.637 17.637-7.913 17.637-17.637 17.637z"/>
		<path d="m76.426 29.929c-18.566 0-33.67 15.105-33.67 33.67s15.105 33.67 33.67 33.67 33.67-15.104 33.67-33.67-15.104-33.67-33.67-33.67zm0 51.307c-9.725 0-17.637-7.912-17.637-17.637s7.912-17.637 17.637-17.637 17.637 7.912 17.637 17.637-7.912 17.637-17.637 17.637z"/>
		<path d="m168.88 232.06c0.174-6.422-2.163-12.527-6.582-17.191s-10.389-7.327-16.81-7.501c-6.403-0.175-12.526 2.164-17.19 6.582l-81.236 76.96c-4.866 4.61-7.602 11.098-7.507 17.801s3.015 13.112 8.011 17.581l81.237 72.686c4.417 3.951 10.109 6.126 16.028 6.126h3e-3c6.837 0 13.371-2.92 17.929-8.014 8.842-9.883 7.996-25.117-1.887-33.96l-61.769-55.267 62.274-58.995c4.661-4.417 7.325-10.387 7.499-16.808zm-18.529 5.169-68.594 64.983c-1.627 1.541-2.534 3.693-2.502 5.935 0.032 2.24 1 4.365 2.67 5.86l68.258 61.073c3.294 2.947 3.577 8.025 0.63 11.32-1.541 1.723-3.665 2.672-5.982 2.672-1.971 0-3.867-0.725-5.339-2.043l-81.236-72.685c-1.665-1.49-2.639-3.626-2.671-5.86-0.031-2.234 0.881-4.397 2.502-5.933l81.236-76.96c1.501-1.422 3.449-2.198 5.508-2.198 0.074 0 0.149 1e-3 0.222 3e-3 2.141 0.058 4.13 0.946 5.603 2.5s2.252 3.589 2.194 5.73c-0.056 2.141-0.944 4.131-2.499 5.603z"/>
		<path d="m464.94 290.91-81.236-76.96c-9.626-9.119-24.878-8.709-34.001 0.919-9.119 9.626-8.707 24.879 0.919 33.999l62.274 58.995-61.769 55.267c-9.882 8.843-10.729 24.076-1.887 33.961 4.558 5.092 11.092 8.013 17.927 8.013h3e-3c5.921 0 11.614-2.176 16.029-6.127l81.236-72.685c4.997-4.471 7.917-10.88 8.01-17.583 0.096-6.702-2.64-13.19-7.505-17.799zm-11.196 23.434-81.236 72.685c-1.472 1.317-3.367 2.043-5.339 2.043h-1e-3c-2.314 0-4.438-0.949-5.979-2.671-2.948-3.294-2.666-8.373 0.628-11.321l68.257-61.073c1.671-1.494 2.639-3.619 2.67-5.86 0.032-2.241-0.875-4.393-2.502-5.935l-68.594-64.983c-3.209-3.04-3.347-8.125-0.307-11.333 1.574-1.661 3.696-2.499 5.822-2.499 1.98 0 3.965 0.727 5.511 2.193l81.236 76.96c1.623 1.536 2.533 3.699 2.502 5.933v2e-3h1e-3c-0.03 2.233-1.002 4.369-2.669 5.859z"/>
		<path d="m317.7 233.71c-1.67-6.204-5.656-11.386-11.222-14.59 0-1e-3 -1e-3 -1e-3 -1e-3 -1e-3 -11.495-6.614-26.226-2.647-32.842 8.843l-81.236 141.09c-6.617 11.492-2.65 26.225 8.843 32.843 3.648 2.099 7.792 3.21 11.983 3.21 8.585 0 16.577-4.619 20.857-12.053l81.236-141.09c3.205-5.568 4.052-12.051 2.382-18.253zm-16.276 10.251-81.235 141.09c-1.427 2.479-4.096 4.019-6.963 4.019-1.409 0-2.749-0.36-3.985-1.071-3.831-2.205-5.153-7.117-2.948-10.948l81.237-141.09c1.481-2.573 4.184-4.014 6.961-4.014 1.356 0 2.73 0.344 3.987 1.068 1.856 1.068 3.184 2.795 3.74 4.862 0.557 2.067 0.275 4.228-0.794 6.084z"/>
</svg>
