<svg enable-background="new 0 0 480.2 480.2" version="1.1" viewBox="0 0 480.2 480.2" xml:space="preserve" xmlns="http://www.w3.org/2000/svg">
		<path d="m71.82 53.48c11.863-13.1 10.859-33.337-2.241-45.199-13.1-11.863-33.337-10.86-45.199 2.241-11.04 12.192-11.04 30.767 0 42.959-15.224 8.8-24.508 25.135-24.28 42.719v40c0 4.418 3.582 8 8 8h80c4.418 0 8-3.582 8-8v-40c0.228-17.584-9.056-33.919-24.28-42.72zm-23.72-37.28c8.837 0 16 7.163 16 16s-7.163 16-16 16-16-7.163-16-16 7.163-16 16-16zm32 80v32h-64v-32c0-1.304 0.368-32 32-32 16.997-0.676 31.324 12.554 32 29.551 0.032 0.816 0.032 1.633 0 2.449z"/>
		<rect x="40.1" y="80.2" width="16" height="32"/>
		<path d="m455.82 389.48c11.863-13.1 10.859-33.337-2.241-45.199-13.1-11.863-33.337-10.859-45.199 2.241-11.04 12.192-11.04 30.767 0 42.959-15.224 8.801-24.508 25.137-24.28 42.72v40c0 4.418 3.582 8 8 8h80c4.418 0 8-3.582 8-8v-40c0.228-17.585-9.056-33.92-24.28-42.721zm-23.72-37.28c8.837 0 16 7.163 16 16s-7.163 16-16 16-16-7.163-16-16 7.163-16 16-16zm32 80v32h-64v-32c0-1.304 0.368-32 32-32 16.997-0.676 31.324 12.554 32 29.551 0.032 0.816 0.032 1.633 0 2.449z"/>
		<rect x="424.1" y="416.2" width="16" height="32"/>
		<path d="m263.82 197.48c11.863-13.1 10.859-33.337-2.241-45.199-13.1-11.863-33.337-10.86-45.199 2.241-11.04 12.192-11.04 30.767 0 42.959-15.224 8.801-24.508 25.137-24.28 42.72v40c0 4.418 3.582 8 8 8h80c4.418 0 8-3.582 8-8v-40c0.228-17.585-9.056-33.92-24.28-42.721zm-23.72-37.28c8.837 0 16 7.163 16 16s-7.163 16-16 16-16-7.163-16-16 7.163-16 16-16zm32 80v32h-64v-32c0-1.304 0.368-32 32-32 16.997-0.676 31.324 12.554 32 29.551 0.032 0.816 0.032 1.633 0 2.449z"/>
		<rect x="232.1" y="224.2" width="16" height="32"/>
		<rect x="320.1" y="64.2" width="112" height="16"/>
		<rect x="360.1" y="32.2" width="88" height="16"/>
		<path d="m472.1 0.2h-176c-4.418 0-8 3.582-8 8v96c0 4.418 3.582 8 8 8h108.69l21.656 21.656c3.124 3.123 8.188 3.123 11.312 0l21.656-21.656h12.688c4.418 0 8-3.582 8-8v-96c0-4.419-3.582-8-8-8zm-8 96h-8c-2.122 0-4.156 0.844-5.656 2.344l-18.344 18.344-18.344-18.344c-1.5-1.5-3.534-2.344-5.656-2.344h-104v-80h160v80z"/>
		<rect x="32.1" y="432.2" width="112" height="16"/>
		<rect x="72.1" y="400.2" width="88" height="16"/>
		<path d="m184.1 368.2h-108.69l-21.656-21.656c-3.124-3.123-8.188-3.123-11.312 0l-21.656 21.656h-12.688c-4.418 0-8 3.582-8 8v96c0 4.418 3.582 8 8 8h176c4.418 0 8-3.582 8-8v-96c0-4.419-3.582-8-8-8zm-8 96h-160v-80h8c2.122 0 4.156-0.844 5.656-2.344l18.344-18.344 18.344 18.344c1.5 1.5 3.534 2.344 5.656 2.344h104v80z"/>
		<rect x="328.1" y="32.2" width="16" height="16"/>
		<rect x="40.1" y="400.2" width="16" height="16"/>
		<rect x="216.1" y="424.2" width="16" height="16"/>
		<rect x="248.1" y="424.2" width="16" height="16"/>
		<rect x="280.1" y="424.2" width="16" height="16"/>
		<rect x="312.1" y="424.2" width="16" height="16"/>
		<rect x="344.1" y="424.2" width="16" height="16"/>
		<rect x="424.1" y="296.2" width="16" height="16"/>
		<rect x="424.1" y="264.2" width="16" height="16"/>
		<rect x="424.1" y="232.2" width="16" height="16"/>
		<rect x="424.1" y="200.2" width="16" height="16"/>
		<rect x="424.1" y="168.2" width="16" height="16"/>
		<rect x="40.1" y="296.2" width="16" height="16"/>
		<rect x="40.1" y="264.2" width="16" height="16"/>
		<rect x="40.1" y="232.2" width="16" height="16"/>
		<rect x="80.1" y="232.2" width="16" height="16"/>
		<rect x="112.1" y="232.2" width="16" height="16"/>
		<rect x="144.1" y="232.2" width="16" height="16"/>
		<rect x="320.1" y="232.2" width="16" height="16"/>
		<rect x="352.1" y="232.2" width="16" height="16"/>
		<rect x="384.1" y="232.2" width="16" height="16"/>
		<rect x="40.1" y="200.2" width="16" height="16"/>
		<rect x="40.1" y="168.2" width="16" height="16"/>
		<rect x="112.1" y="40.2" width="16" height="16"/>
		<rect x="144.1" y="40.2" width="16" height="16"/>
		<rect x="176.1" y="40.2" width="16" height="16"/>
		<rect x="208.1" y="40.2" width="16" height="16"/>
		<rect x="240.1" y="40.2" width="16" height="16"/>
</svg>
