<svg enable-background="new 0 0 55 55" version="1.1" viewBox="0 0 55 55" xml:space="preserve" xmlns="http://www.w3.org/2000/svg">
    <path d="m52.354 8.51c-1.158-4.29-9.777-8.51-24.854-8.51s-23.697 4.22-24.854 8.51c-0.084 0.147-0.146 0.308-0.146 0.49v37c0 0.162 0.043 0.315 0.117 0.451 1.181 4.895 11.747 8.549 24.883 8.549 13.106 0 23.655-3.639 24.875-8.516 0.08-0.143 0.125-0.308 0.125-0.484v-37c0-0.182-0.062-0.343-0.146-0.49zm-1.933 25.475c-0.028 0.121-0.067 0.241-0.116 0.363-0.04 0.099-0.089 0.198-0.143 0.297-0.067 0.123-0.142 0.246-0.231 0.369-0.066 0.093-0.141 0.185-0.219 0.277-0.111 0.131-0.229 0.262-0.363 0.392-0.081 0.079-0.17 0.157-0.26 0.236-0.164 0.143-0.335 0.285-0.526 0.426-0.082 0.061-0.17 0.12-0.257 0.18-0.226 0.156-0.462 0.311-0.721 0.463-0.068 0.041-0.141 0.08-0.212 0.12-0.298 0.168-0.609 0.335-0.945 0.497-0.043 0.021-0.088 0.041-0.132 0.061-0.375 0.177-0.767 0.351-1.186 0.519-0.012 5e-3 -0.024 9e-3 -0.036 0.014-2.271 0.907-5.176 1.67-8.561 2.17-0.017 2e-3 -0.034 4e-3 -0.051 7e-3 -0.658 0.097-1.333 0.183-2.026 0.259-0.113 0.012-0.232 0.02-0.346 0.032-0.605 0.063-1.217 0.121-1.847 0.167-0.288 0.021-0.59 0.031-0.883 0.049-0.474 0.028-0.943 0.059-1.429 0.076-0.794 0.025-1.604 0.041-2.431 0.041s-1.637-0.016-2.432-0.044c-0.486-0.017-0.955-0.049-1.429-0.076-0.293-0.017-0.595-0.028-0.883-0.049-0.63-0.046-1.242-0.104-1.847-0.167-0.114-0.012-0.233-0.02-0.346-0.032-0.693-0.076-1.368-0.163-2.026-0.259-0.017-2e-3 -0.034-4e-3 -0.051-7e-3 -3.385-0.5-6.29-1.263-8.561-2.17-0.012-4e-3 -0.024-9e-3 -0.036-0.014-0.419-0.168-0.812-0.342-1.186-0.519-0.043-0.021-0.089-0.041-0.132-0.061-0.336-0.162-0.647-0.328-0.945-0.497-0.07-0.04-0.144-0.079-0.212-0.12-0.259-0.152-0.495-0.307-0.721-0.463-0.086-0.06-0.175-0.119-0.257-0.18-0.191-0.141-0.362-0.283-0.526-0.426-0.089-0.078-0.179-0.156-0.26-0.236-0.134-0.13-0.252-0.26-0.363-0.392-0.078-0.092-0.153-0.184-0.219-0.277-0.088-0.123-0.163-0.246-0.231-0.369-0.054-0.099-0.102-0.198-0.143-0.297-0.049-0.121-0.088-0.242-0.116-0.363-0.037-0.159-0.078-0.321-0.078-0.482 0-0.113 0.013-0.226 0.031-0.338 0.025-0.151 0.011-0.302-0.031-0.445v-7.424c0.028 0.026 0.063 0.051 0.092 0.077 0.218 0.192 0.44 0.383 0.69 0.567 3.767 2.849 11.3 5.063 22.218 5.063 10.872 0 18.386-2.196 22.169-5.028 0.302-0.22 0.574-0.447 0.83-0.678l1e-3 -1e-3v7.424c-0.042 0.143-0.056 0.294-0.031 0.445 0.019 0.112 0.031 0.225 0.031 0.338 0 0.161-0.041 0.323-0.079 0.485zm0.079-20.692v7.424c-0.042 0.143-0.056 0.294-0.031 0.445 0.019 0.112 0.031 0.225 0.031 0.338 0 0.161-0.041 0.323-0.079 0.485-0.028 0.121-0.067 0.241-0.116 0.363-0.04 0.099-0.089 0.198-0.143 0.297-0.067 0.123-0.142 0.246-0.231 0.369-0.066 0.093-0.141 0.185-0.219 0.277-0.111 0.131-0.229 0.262-0.363 0.392-0.081 0.079-0.17 0.157-0.26 0.236-0.164 0.143-0.335 0.285-0.526 0.426-0.082 0.061-0.17 0.12-0.257 0.18-0.226 0.156-0.462 0.311-0.721 0.463-0.068 0.041-0.141 0.08-0.212 0.12-0.298 0.168-0.609 0.335-0.945 0.497-0.043 0.021-0.088 0.041-0.132 0.061-0.375 0.177-0.767 0.351-1.186 0.519-0.012 5e-3 -0.024 9e-3 -0.036 0.014-2.271 0.907-5.176 1.67-8.561 2.17-0.017 2e-3 -0.034 4e-3 -0.051 7e-3 -0.658 0.097-1.333 0.183-2.026 0.259-0.113 0.012-0.232 0.02-0.346 0.032-0.605 0.063-1.217 0.121-1.847 0.167-0.288 0.021-0.59 0.031-0.883 0.049-0.474 0.028-0.943 0.059-1.429 0.076-0.794 0.025-1.604 0.041-2.431 0.041s-1.637-0.016-2.432-0.044c-0.486-0.017-0.955-0.049-1.429-0.076-0.293-0.017-0.595-0.028-0.883-0.049-0.63-0.046-1.242-0.104-1.847-0.167-0.114-0.012-0.233-0.02-0.346-0.032-0.693-0.076-1.368-0.163-2.026-0.259-0.017-2e-3 -0.034-4e-3 -0.051-7e-3 -3.385-0.5-6.29-1.263-8.561-2.17-0.012-4e-3 -0.024-9e-3 -0.036-0.014-0.419-0.168-0.812-0.342-1.186-0.519-0.043-0.021-0.089-0.041-0.132-0.061-0.336-0.162-0.647-0.328-0.945-0.497-0.07-0.04-0.144-0.079-0.212-0.12-0.259-0.152-0.495-0.307-0.721-0.463-0.086-0.06-0.175-0.119-0.257-0.18-0.191-0.141-0.362-0.283-0.526-0.426-0.089-0.078-0.179-0.156-0.26-0.236-0.134-0.13-0.252-0.26-0.363-0.392-0.078-0.092-0.153-0.184-0.219-0.277-0.088-0.123-0.163-0.246-0.231-0.369-0.054-0.099-0.102-0.198-0.143-0.297-0.049-0.121-0.088-0.242-0.116-0.363-0.037-0.159-0.078-0.321-0.078-0.482 0-0.113 0.013-0.226 0.031-0.338 0.025-0.151 0.011-0.302-0.031-0.445v-7.424c0.12 0.109 0.257 0.216 0.387 0.324 0.072 0.06 0.139 0.12 0.215 0.18 0.3 0.236 0.624 0.469 0.975 0.696 0.073 0.047 0.155 0.093 0.231 0.14 0.294 0.183 0.605 0.362 0.932 0.538 0.121 0.065 0.242 0.129 0.367 0.193 0.365 0.186 0.748 0.367 1.151 0.542 0.066 0.029 0.126 0.059 0.193 0.087 0.469 0.199 0.967 0.389 1.485 0.573 0.143 0.051 0.293 0.099 0.44 0.149 0.412 0.139 0.838 0.272 1.279 0.401 0.159 0.046 0.315 0.094 0.478 0.138 0.585 0.162 1.189 0.316 1.823 0.458 0.087 0.02 0.181 0.036 0.269 0.055 0.559 0.122 1.139 0.235 1.735 0.341 0.202 0.036 0.407 0.07 0.613 0.104 0.567 0.093 1.151 0.178 1.75 0.256 0.154 0.02 0.301 0.043 0.457 0.062 0.744 0.09 1.514 0.167 2.305 0.233 0.195 0.016 0.398 0.028 0.596 0.042 0.633 0.046 1.28 0.084 1.942 0.114 0.241 0.011 0.481 0.022 0.727 0.031 0.862 0.029 1.74 0.05 2.65 0.05s1.788-0.021 2.65-0.05c0.245-9e-3 0.485-0.02 0.727-0.031 0.662-0.03 1.309-0.068 1.942-0.114 0.198-0.015 0.4-0.026 0.596-0.042 0.791-0.065 1.561-0.143 2.305-0.233 0.156-0.019 0.303-0.042 0.457-0.062 0.599-0.078 1.182-0.163 1.75-0.256 0.206-0.034 0.411-0.068 0.613-0.104 0.596-0.106 1.176-0.219 1.735-0.341 0.088-0.019 0.182-0.036 0.269-0.055 0.634-0.142 1.238-0.297 1.823-0.458 0.163-0.045 0.319-0.092 0.478-0.138 0.441-0.129 0.867-0.262 1.279-0.401 0.147-0.05 0.297-0.098 0.44-0.149 0.518-0.184 1.017-0.374 1.485-0.573 0.067-0.028 0.127-0.058 0.193-0.087 0.403-0.176 0.786-0.356 1.151-0.542 0.125-0.064 0.247-0.128 0.367-0.193 0.327-0.175 0.638-0.354 0.932-0.538 0.076-0.047 0.158-0.093 0.231-0.14 0.351-0.227 0.675-0.459 0.975-0.696 0.075-0.06 0.142-0.12 0.215-0.18 0.13-0.108 0.267-0.215 0.387-0.324zm-23-11.293c13.555 0 23 3.952 23 7.5s-9.445 7.5-23 7.5-23-3.952-23-7.5 9.445-7.5 23-7.5zm23 43.703c-0.014 0.044-0.024 0.089-0.032 0.135-0.567 3.459-9.932 7.162-22.968 7.162s-22.401-3.703-22.968-7.162c-8e-3 -0.045-0.019-0.089-0.032-0.131v-8.414c0.028 0.026 0.063 0.051 0.092 0.077 0.218 0.192 0.44 0.383 0.69 0.567 3.767 2.849 11.3 5.063 22.218 5.063 10.872 0 18.386-2.196 22.169-5.028 0.302-0.22 0.574-0.447 0.83-0.678l1e-3 -1e-3v8.41z"/>
</svg>
