<svg viewBox="0 0 203.54 203.54" xmlns="http://www.w3.org/2000/svg"><path d="M194.14 11.918h-39.315V6a6 6 0 0 0-12 0v5.918h-35.053V6a6 6 0 0 0-12 0v5.918H62.209V6a6 6 0 0 0-12 0v5.918H9.405a6 6 0 0 0-6 6v135.57a6 6 0 0 0 6 6h36.826c5.901 25.214 28.555 44.053 55.541 44.053s49.64-18.84 55.541-44.053h36.826a6 6 0 0 0 6-6V17.918a5.999 5.999 0 0 0-5.999-6zm-143.93 12v5.422a6 6 0 0 0 12 0v-5.422h33.563v5.422a6 6 0 0 0 12 0v-5.422h35.053v5.422a6 6 0 0 0 12 0v-5.422h33.315v24.536H15.401V23.918h34.804zm51.563 167.62c-24.842 0-45.053-20.211-45.053-45.053s20.211-45.053 45.053-45.053 45.053 20.21 45.053 45.053-20.21 45.053-45.053 45.053zm57.028-44.053c.006-.334.025-.665.025-1 0-31.459-25.594-57.053-57.053-57.053S44.72 115.026 44.72 146.485c0 .335.02.666.025 1h-29.34V60.45h172.74v87.035h-29.339z"/><path d="M107.77 148v-29.026a6 6 0 0 0-12 0v31.512c0 1.591.632 3.117 1.757 4.243l13.79 13.791a5.984 5.984 0 0 0 4.243 1.757 6 6 0 0 0 4.243-10.242L107.77 148z"/></svg>