<svg enable-background="new 0 0 512 512" version="1.1" viewBox="0 0 512 512" xml:space="preserve" xmlns="http://www.w3.org/2000/svg">
		<path d="m460.93 268.49c4.524-6.708 7.168-14.784 7.168-23.466v-8.021c0-23.203-18.878-42.081-42.081-42.081-11.577 0-22.077 4.701-29.693 12.293-19.706-58.607-75.165-100.94-140.33-100.94s-120.62 42.333-140.33 100.94c-7.616-7.592-18.115-12.293-29.693-12.293-23.203 0-42.081 18.878-42.081 42.081v8.021c0 8.682 2.644 16.758 7.168 23.466-29.129 6.138-51.066 32.033-51.066 62.961v20.134c0 5.522 4.478 10 10 10h52c5.522 0 10-4.478 10-10s-4.478-10-10-10h-42v-10.134c0-24.453 19.894-44.347 44.347-44.347h47.329c3.838 16.881 10.565 32.677 19.641 46.831l-114.1 114.1c-14.61 14.611-14.61 38.386 1e-3 52.998 7.306 7.306 16.901 10.958 26.498 10.958s19.194-3.653 26.5-10.958l62.903-62.904c3.905-3.905 3.905-10.237 0-14.143-3.906-3.904-10.236-3.904-14.143 0l-62.902 62.904c-6.815 6.814-17.901 6.813-24.715 1e-3 -6.813-6.814-6.813-17.901 0-24.715l112.01-112.01c27.167 31.862 67.578 52.105 112.63 52.105 70.328 0 129.35-49.31 144.32-115.17h47.329c24.453 0 44.347 19.894 44.347 44.347v10.134h-94c-5.522 0-10 4.478-10 10s4.478 10 10 10h104c5.522 0 10-4.478 10-10v-20.134c0-30.928-21.937-56.823-51.066-62.961zm-352.87-23.465c0 12.175-9.905 22.08-22.081 22.08s-22.081-9.905-22.081-22.08v-8.021c0-12.176 9.905-22.081 22.081-22.081s22.081 9.905 22.081 22.081v8.021zm147.94 137.25c-70.579 0-128-57.421-128-128s57.421-128 128-128 128 57.421 128 128-57.421 128-128 128zm192.1-137.25c0 12.175-9.905 22.08-22.081 22.08s-22.081-9.905-22.081-22.08v-8.021c0-12.176 9.905-22.081 22.081-22.081s22.081 9.905 22.081 22.081v8.021z"/>
		<path d="m256 146.28c-59.552 0-108 48.448-108 108 0 30.91 13.056 58.825 33.938 78.53 0.357 0.386 0.74 0.75 1.16 1.08 19.226 17.621 44.829 28.39 72.902 28.39s53.676-10.77 72.902-28.39c0.42-0.329 0.803-0.694 1.16-1.08 20.882-19.705 33.938-47.62 33.938-78.53 0-59.551-48.448-108-108-108zm0 196c-20.563 0-39.499-7.091-54.497-18.954 10.625-20.104 31.331-32.753 54.497-32.753s43.872 12.649 54.497 32.753c-14.998 11.863-33.934 18.954-54.497 18.954zm-21.073-92.78v-7.769c0-11.62 9.453-21.073 21.073-21.073s21.073 9.453 21.073 21.073v7.769c0 11.62-9.453 21.073-21.073 21.073s-21.073-9.453-21.073-21.073zm90.198 59.179c-9.161-14.617-22.57-25.764-38.264-32.12 6.349-7.233 10.212-16.7 10.212-27.058v-7.769c0-22.647-18.426-41.073-41.073-41.073s-41.073 18.426-41.073 41.073v7.769c0 10.358 3.862 19.825 10.212 27.058-15.694 6.357-29.102 17.503-38.264 32.12-11.816-14.982-18.875-33.881-18.875-54.399 0-48.523 39.477-88 88-88s88 39.477 88 88c0 20.518-7.059 39.417-18.875 54.399z"/>
		<path d="m159.87 397.24c-1.86-1.86-4.44-2.93-7.07-2.93s-5.21 1.07-7.07 2.93c-1.859 1.86-2.93 4.44-2.93 7.07s1.07 5.21 2.93 7.07c1.86 1.859 4.44 2.93 7.07 2.93s5.21-1.07 7.07-2.93c1.859-1.86 2.93-4.44 2.93-7.07s-1.07-5.21-2.93-7.07z"/>
		<path d="m256.2 9e-3c-5.522 0-10 4.478-10 10v34.024c0 5.523 4.478 10 10 10s10-4.478 10-10v-34.024c0-5.522-4.478-10-10-10z"/>
		<path d="m263.27 69.939c-1.859-1.86-4.43-2.93-7.069-2.93-2.631 0-5.21 1.069-7.07 2.93s-2.93 4.44-2.93 7.07 1.069 5.21 2.93 7.069c1.86 1.86 4.439 2.931 7.07 2.931 2.64 0 5.21-1.07 7.069-2.931 1.86-1.859 2.931-4.439 2.931-7.069s-1.07-5.21-2.931-7.07z"/>
		<path d="m340.98 39.235c-3.906-3.904-10.236-3.904-14.143 0l-17.576 17.576c-3.905 3.905-3.905 10.237 0 14.143 1.954 1.952 4.512 2.929 7.072 2.929s5.118-0.977 7.071-2.929l17.576-17.576c3.905-3.905 3.905-10.237 0-14.143z"/>
		<path d="m202.91 56.932-17.745-17.745c-3.906-3.904-10.236-3.904-14.143 0-3.905 3.905-3.905 10.237 0 14.143l17.746 17.745c1.953 1.952 4.512 2.929 7.071 2.929s5.118-0.977 7.071-2.929c3.905-3.905 3.905-10.237 0-14.143z"/>
</svg>
