<svg viewBox="0 0 480 480" xmlns="http://www.w3.org/2000/svg"><path d="M472 344h-40V32c0-17.673-14.327-32-32-32H80C62.327 0 48 14.327 48 32v320H8a8 8 0 0 0-8 8v64a8 8 0 0 0 8 8h40v16c0 17.673 14.327 32 32 32h368c17.673 0 32-14.327 32-32v-96a8 8 0 0 0-8-8zM40 416H16v-48h24v48zM64 32c0-8.837 7.163-16 16-16h320c8.837 0 16 7.163 16 16v32H64V32zm-8 384v-48h16v48H56zm24 48c-8.837 0-16-7.163-16-16v-16h256a7.82 7.82 0 0 0 3.544-.92v.08l64-32a8 8 0 0 0 0-14.32l-64-32v.08A7.82 7.82 0 0 0 320 352H64V80h352v368a31.675 31.675 0 0 0 4.448 16H79.998zm232-64v16H88v-16h224zM88 384v-16h224v16H88zm240 27.056v-38.112L366.112 392 328 411.056zM464 448c0 8.837-7.163 16-16 16s-16-7.163-16-16v-88h32v88z"/><path d="M192 104H96a8 8 0 0 0-8 8v96a8 8 0 0 0 8 8h96a8 8 0 0 0 8-8v-96a8 8 0 0 0-8-8zm-8 96h-80v-80h80v80zM224 136h168v16H224zM224 168h168v16H224zM224 200h136v16H224zM288 104h104v16H288zM384 240H96a8 8 0 0 0-8 8v64a8 8 0 0 0 8 8h288a8 8 0 0 0 8-8v-64a8 8 0 0 0-8-8zm-8 64H104v-48h272v48zM256 104h16v16h-16zM80 32h16v16H80zM112 32h16v16h-16zM144 32h16v16h-16z"/></svg>