<svg enable-background="new 0 0 512 512" version="1.1" viewBox="0 0 512 512" xml:space="preserve" xmlns="http://www.w3.org/2000/svg">
		<path d="m469.33 106.67h-106.67v-21.334c0-23.531-19.135-42.667-42.667-42.667h-128c-23.531 0-42.667 19.135-42.667 42.667v21.333h-106.67c-23.532 1e-3 -42.667 19.136-42.667 42.667v277.33c0 23.531 19.135 42.667 42.667 42.667h426.67c23.531 0 42.667-19.135 42.667-42.667v-277.33c-1e-3 -23.531-19.136-42.666-42.668-42.666zm-298.67-21.334c0-11.76 9.573-21.333 21.333-21.333h128c11.76 0 21.333 9.573 21.333 21.333v21.333h-170.67v-21.333zm320 341.33c0 11.76-9.573 21.333-21.333 21.333h-426.67c-11.76 0-21.333-9.573-21.333-21.333v-155.27c6.301 3.674 13.527 5.934 21.333 5.934h170.67v32c0 5.896 4.771 10.667 10.667 10.667h64c5.896 0 10.667-4.771 10.667-10.667v-32h170.67c7.806 0 15.033-2.259 21.333-5.934v155.27zm-256-128v-42.667h42.667v42.667h-42.667zm256-64c0 11.76-9.573 21.333-21.333 21.333h-170.67v-10.667c0-5.896-4.771-10.667-10.667-10.667h-64c-5.896 0-10.667 4.771-10.667 10.667v10.667h-170.67c-11.76 0-21.333-9.573-21.333-21.333v-85.333c0-11.76 9.573-21.333 21.333-21.333h426.67c11.76 0 21.333 9.573 21.333 21.333v85.333z"/>
</svg>
