<svg enable-background="new 0 0 480.119 480.119" version="1.1" viewBox="0 0 480.12 480.12" xml:space="preserve" xmlns="http://www.w3.org/2000/svg">
    <path d="m423.24 120.12c-5.838-5e-3 -11.642 0.888-17.208 2.648 0.528-4.195 0.795-8.42 0.8-12.648-1.039-61.847-52.018-111.14-113.87-110.1-45.131 0.758-85.397 28.534-102.13 70.455-32.368-20.071-74.878-10.101-94.948 22.267-6.534 10.537-10.106 22.641-10.34 35.037-8.714-5.031-18.602-7.673-28.664-7.656-30.928 0-56 25.072-56 56s25.072 56 56 56c4.418 0 8-3.582 8-8s-3.582-8-8-8c-22.089-0.359-39.704-18.556-39.345-40.645s18.556-39.704 40.645-39.345c13.446 0.219 25.882 7.179 33.1 18.525 2.42 3.697 7.378 4.732 11.075 2.313 3.195-2.091 4.467-6.148 3.037-9.689-2.519-6.076-3.834-12.583-3.872-19.16 0.321-28.992 24.048-52.253 53.04-52 12.918 0.051 25.38 4.78 35.08 13.312 3.33 2.904 8.384 2.558 11.287-0.772 0.787-0.902 1.361-1.97 1.681-3.124 14.638-50.936 67.796-80.361 118.73-65.723 40.442 11.622 68.595 48.236 69.437 90.307-0.034 8.386-1.205 16.729-3.48 24.8-1.183 4.257 1.308 8.667 5.565 9.85 2.303 0.64 4.772 0.217 6.731-1.154 6.92-4.88 15.181-7.498 23.648-7.496 22.091 0 40 17.909 40 40s-17.909 40-40 40c-4.418 0-8 3.582-8 8s3.582 8 8 8c30.928 0 56-25.072 56-56 0-30.927-25.072-55.999-56-55.999z"/>
    <path d="m376.04 304.12h-272c-13.255 0-24 10.745-24 24v32c0 13.255 10.745 24 24 24h272c13.255 0 24-10.745 24-24v-32c0-13.255-10.745-24-24-24zm8 56c0 4.418-3.582 8-8 8h-272c-4.418 0-8-3.582-8-8v-32c0-4.418 3.582-8 8-8h272c4.418 0 8 3.582 8 8v32z"/>
    <path d="m353.85 328.62c-8.525 0.053-15.408 6.978-15.408 15.503 0.04 8.584 7.016 15.517 15.6 15.504 8.563-0.053 15.461-7.037 15.408-15.6-0.053-8.562-7.037-15.46-15.6-15.407zm0.192 16.008c-0.24 0-0.4-0.264-0.4-0.504l0.4-0.496v1z"/>
    <path d="m270.44 336.12h-152c-4.418 0-8 3.582-8 8s3.582 8 8 8h152c4.418 0 8-3.582 8-8s-3.581-8-8-8z"/>
    <path d="m319.84 336.12h-21.28c-4.418 0-8 3.582-8 8s3.582 8 8 8h21.28c4.418 0 8-3.582 8-8s-3.581-8-8-8z"/>
    <path d="m376.04 400.12h-272c-13.255 0-24 10.745-24 24v32c0 13.255 10.745 24 24 24h272c13.255 0 24-10.745 24-24v-32c0-13.255-10.745-24-24-24zm8 56c0 4.418-3.582 8-8 8h-272c-4.418 0-8-3.582-8-8v-32c0-4.418 3.582-8 8-8h272c4.418 0 8 3.582 8 8v32z"/>
    <path d="m353.85 424.62c-8.525 0.053-15.408 6.978-15.408 15.503 0.04 8.584 7.016 15.517 15.6 15.504 8.563-0.053 15.461-7.037 15.408-15.6-0.053-8.562-7.037-15.46-15.6-15.407zm0.192 16.008c-0.24 0-0.4-0.264-0.4-0.504l0.4-0.496v1z"/>
    <path d="m270.44 432.12h-152c-4.418 0-8 3.582-8 8s3.582 8 8 8h152c4.418 0 8-3.582 8-8s-3.581-8-8-8z"/>
    <path d="m319.84 432.12h-21.28c-4.418 0-8 3.582-8 8s3.582 8 8 8h21.28c4.418 0 8-3.582 8-8s-3.581-8-8-8z"/>
    <path d="m376.04 208.12h-272c-13.255 0-24 10.745-24 24v32c0 13.255 10.745 24 24 24h272c13.255 0 24-10.745 24-24v-32c0-13.255-10.745-24-24-24zm8 56c0 4.418-3.582 8-8 8h-272c-4.418 0-8-3.582-8-8v-32c0-4.418 3.582-8 8-8h272c4.418 0 8 3.582 8 8v32z"/>
    <path d="m366.94 245.94c-1.542-8.499-9.681-14.139-18.18-12.597-4.027 0.73-7.607 3.01-9.972 6.349-2.375 3.352-3.303 7.517-2.576 11.56 1.346 7.447 7.825 12.865 15.392 12.872 0.874-1e-3 1.746-0.073 2.608-0.216 4.108-0.678 7.769-2.986 10.152-6.4 2.383-3.352 3.312-7.523 2.576-11.568zm-15.744 2.816 0.36-0.632 0.04 1c-0.36 0-0.384-0.2-0.4-0.368z"/>
    <path d="m268.84 240.12h-152c-4.418 0-8 3.582-8 8s3.582 8 8 8h152c4.418 0 8-3.582 8-8s-3.581-8-8-8z"/>
    <path d="m314.73 240.12h-21.28c-4.418 0-8 3.582-8 8s3.582 8 8 8h21.28c4.418 0 8-3.582 8-8s-3.581-8-8-8z"/>
    <path d="m205.7 130.46-24-24c-3.124-3.123-8.188-3.123-11.312 0l-24 24c-3.069 3.178-2.981 8.243 0.197 11.312 3.1 2.994 8.015 2.994 11.115 0l10.344-10.344v52.688c0 4.418 3.582 8 8 8s8-3.582 8-8v-52.688l10.344 10.344c3.178 3.069 8.243 2.981 11.312-0.197 2.994-3.1 2.994-8.015 0-11.115z"/>
    <path d="m333.5 154.46c-3.1-2.994-8.015-2.994-11.116 0l-10.344 10.344v-52.688c0-4.418-3.582-8-8-8s-8 3.582-8 8v52.688l-10.344-10.344c-3.178-3.07-8.242-2.982-11.312 0.196-2.994 3.1-2.994 8.015 0 11.116l24 24c3.124 3.123 8.188 3.123 11.312 0l24-24c3.07-3.178 2.982-8.243-0.196-11.312z"/>
</svg>
