<svg enable-background="new 0 0 488 488" version="1.1" viewBox="0 0 488 488" xml:space="preserve" xmlns="http://www.w3.org/2000/svg">
		<path d="m450.41 168.65c10.8-10.216 17.592-24.64 17.592-40.648 0-30.88-25.12-56-56-56s-56 25.12-56 56c0 19.648 10.192 36.936 25.544 46.928-10.576 7.208-17.544 19.336-17.544 33.072v56h-32v-40c0-28.624-21.6-52.272-49.36-55.568 10.672-10.2 17.36-24.536 17.36-40.432 0-30.88-25.12-56-56-56s-56 25.12-56 56c0 15.896 6.688 30.232 17.36 40.432-27.76 3.296-49.36 26.944-49.36 55.568v40h-32v-56c0-13.736-6.968-25.864-17.544-33.072 15.352-9.992 25.544-27.28 25.544-46.928 0-30.88-25.12-56-56-56s-56 25.12-56 56c0 16.008 6.792 30.432 17.592 40.648-19 3.088-33.592 19.488-33.592 39.352v120c0 19.312 13.768 35.472 32 39.192v120.81h16v-120h72v112c0 4.416 3.584 8 8 8h48c4.416 0 8-3.584 8-8v-128h48v120h-32v16h80v-16h-32v-120h48v128c0 4.416 3.584 8 8 8h48c4.416 0 8-3.584 8-8v-112h72v120h16v-120.81c18.232-3.72 32-19.872 32-39.192v-120c0-19.864-14.592-36.264-33.592-39.352zm-78.408-40.648c0-22.056 17.944-40 40-40s40 17.944 40 40-17.944 40-40 40-40-17.944-40-40zm-168 0c0-22.056 17.944-40 40-40s40 17.944 40 40-17.944 40-40 40-40-17.944-40-40zm52.456 56-12.456 33.216-12.456-33.216h24.912zm-84.456 40c0-22.056 17.944-40 40-40h2.456l22.056 58.808c1.168 3.12 4.152 5.192 7.488 5.192s6.32-2.072 7.496-5.192l22.048-58.808h2.456c22.056 0 40 17.944 40 40v40h-32c-4.416 0-8 3.584-8 8v32h-64v-32c0-4.416-3.584-8-8-8h-32v-40zm-136-96c0-22.056 17.944-40 40-40s40 17.944 40 40-17.944 40-40 40-40-17.944-40-40zm136 344h-32v-112c0-4.416-3.584-8-8-8h-88c-13.232 0-24-10.768-24-24v-120c0-13.232 10.768-24 24-24h40c13.232 0 24 10.768 24 24v64c0 4.416 3.584 8 8 8h80v24h-112v-72h-16v80c0 4.416 3.584 8 8 8h72c13.232 0 24 10.768 24 24v128zm128.9-136h-113.79c-1.208-5.896-3.632-11.352-7.12-16h128.03c-3.488 4.648-5.912 10.104-7.12 16zm167.1-8c0 13.232-10.768 24-24 24h-88c-4.416 0-8 3.584-8 8v112h-32v-128c0-13.232 10.768-24 24-24h72c4.416 0 8-3.584 8-8v-80h-16v72h-112v-24h80c4.416 0 8-3.584 8-8v-64c0-13.232 10.768-24 24-24h40c13.232 0 24 10.768 24 24v120z"/>
		<rect x="236" y="264" width="16" height="16"/>
		<path d="m204 0h-112c-4.416 0-8 3.584-8 8v40c0 4.416 3.584 8 8 8h32v16c0 3.032 1.712 5.8 4.424 7.16 1.128 0.56 2.36 0.84 3.576 0.84 1.696 0 3.384-0.544 4.8-1.6l29.864-22.4h37.336c4.416 0 8-3.584 8-8v-40c0-4.416-3.584-8-8-8zm-8 40h-32c-1.728 0-3.416 0.56-4.8 1.6l-19.2 14.4v-8c0-4.416-3.584-8-8-8h-32v-24h96v24z"/>
		<rect x="284" y="24" width="16" height="16"/>
		<rect x="316" y="24" width="16" height="16"/>
		<rect x="348" y="24" width="16" height="16"/>
</svg>
