<svg enable-background="new 0 0 480 480" version="1.1" viewBox="0 0 480 480" xml:space="preserve" xmlns="http://www.w3.org/2000/svg">
		<path d="m472 344h-40v-312c0-17.673-14.327-32-32-32h-320c-17.673 0-32 14.327-32 32v320h-40c-4.418 0-8 3.582-8 8v64c0 4.418 3.582 8 8 8h40v16c0 17.673 14.327 32 32 32h368c17.673 0 32-14.327 32-32v-96c0-4.418-3.582-8-8-8zm-432 72h-24v-48h24v48zm24-384c0-8.837 7.163-16 16-16h320c8.837 0 16 7.163 16 16v32h-352v-32zm-8 384v-48h16v48h-16zm24 48c-8.837 0-16-7.163-16-16v-16h256c1.237-0.022 2.452-0.337 3.544-0.92v0.08l64-32c3.954-1.971 5.562-6.774 3.591-10.729-0.775-1.556-2.036-2.816-3.591-3.591l-64-32v0.08c-1.092-0.583-2.307-0.898-3.544-0.92h-256v-272h352v368c0.033 5.634 1.569 11.157 4.448 16h-340.45zm232-64v16h-224v-16h224zm-224-16v-16h224v16h-224zm240 27.056v-38.112l38.112 19.056-38.112 19.056zm136 36.944c0 8.837-7.163 16-16 16s-16-7.163-16-16v-88h32v88z"/>
		<path d="m192 104h-96c-4.418 0-8 3.582-8 8v96c0 4.418 3.582 8 8 8h96c4.418 0 8-3.582 8-8v-96c0-4.418-3.582-8-8-8zm-8 96h-80v-80h80v80z"/>
		<rect x="224" y="136" width="168" height="16"/>
		<rect x="224" y="168" width="168" height="16"/>
		<rect x="224" y="200" width="136" height="16"/>
		<rect x="288" y="104" width="104" height="16"/>
		<path d="m384 240h-288c-4.418 0-8 3.582-8 8v64c0 4.418 3.582 8 8 8h288c4.418 0 8-3.582 8-8v-64c0-4.418-3.582-8-8-8zm-8 64h-272v-48h272v48z"/>
		<rect x="256" y="104" width="16" height="16"/>
		<rect x="80" y="32" width="16" height="16"/>
		<rect x="112" y="32" width="16" height="16"/>
		<rect x="144" y="32" width="16" height="16"/>
</svg>
