<svg viewBox="0 0 480.2 480.2" xmlns="http://www.w3.org/2000/svg"><path d="M71.82 53.48c11.863-13.1 10.859-33.337-2.241-45.199-13.1-11.863-33.337-10.86-45.199 2.241-11.04 12.192-11.04 30.767 0 42.959A48.612 48.612 0 0 0 .1 96.2v40a8 8 0 0 0 8 8h80a8 8 0 0 0 8-8v-40a48.615 48.615 0 0 0-24.28-42.72zM48.1 16.2c8.837 0 16 7.163 16 16s-7.163 16-16 16-16-7.163-16-16 7.163-16 16-16zm32 80v32h-64v-32c0-1.304.368-32 32-32 16.997-.676 31.324 12.554 32 29.551a31.25 31.25 0 0 1 0 2.449z"/><path d="M40.1 80.2h16v32h-16zM455.82 389.48c11.863-13.1 10.859-33.337-2.241-45.199-13.1-11.863-33.337-10.859-45.199 2.241-11.04 12.192-11.04 30.767 0 42.959a48.616 48.616 0 0 0-24.28 42.72v40a8 8 0 0 0 8 8h80a8 8 0 0 0 8-8v-40a48.616 48.616 0 0 0-24.28-42.721zM432.1 352.2c8.837 0 16 7.163 16 16s-7.163 16-16 16-16-7.163-16-16 7.163-16 16-16zm32 80v32h-64v-32c0-1.304.368-32 32-32 16.997-.676 31.324 12.554 32 29.551a31.25 31.25 0 0 1 0 2.449z"/><path d="M424.1 416.2h16v32h-16zM263.82 197.48c11.863-13.1 10.859-33.337-2.241-45.199-13.1-11.863-33.337-10.86-45.199 2.241-11.04 12.192-11.04 30.767 0 42.959a48.616 48.616 0 0 0-24.28 42.72v40a8 8 0 0 0 8 8h80a8 8 0 0 0 8-8v-40a48.616 48.616 0 0 0-24.28-42.721zM240.1 160.2c8.837 0 16 7.163 16 16s-7.163 16-16 16-16-7.163-16-16 7.163-16 16-16zm32 80v32h-64v-32c0-1.304.368-32 32-32 16.997-.676 31.324 12.554 32 29.551a31.25 31.25 0 0 1 0 2.449z"/><path d="M232.1 224.2h16v32h-16zM320.1 64.2h112v16h-112zM360.1 32.2h88v16h-88z"/><path d="M472.1.2h-176a8 8 0 0 0-8 8v96a8 8 0 0 0 8 8h108.69l21.656 21.656a8 8 0 0 0 11.312 0l21.656-21.656h12.688a8 8 0 0 0 8-8v-96a8 8 0 0 0-8-8zm-8 96h-8a8 8 0 0 0-5.656 2.344L432.1 116.888l-18.344-18.344A8 8 0 0 0 408.1 96.2h-104v-80h160v80zM32.1 432.2h112v16h-112zM72.1 400.2h88v16h-88z"/><path d="M184.1 368.2H75.41l-21.656-21.656a8 8 0 0 0-11.312 0L20.786 368.2H8.098a8 8 0 0 0-8 8v96a8 8 0 0 0 8 8h176a8 8 0 0 0 8-8v-96a8 8 0 0 0-8-8zm-8 96h-160v-80h8a8 8 0 0 0 5.656-2.344L48.1 363.512l18.344 18.344A8 8 0 0 0 72.1 384.2h104v80zM328.1 32.2h16v16h-16z"/><path d="M40.1 400.2h16v16h-16zM216.1 424.2h16v16h-16zM248.1 424.2h16v16h-16zM280.1 424.2h16v16h-16zM312.1 424.2h16v16h-16zM344.1 424.2h16v16h-16zM424.1 296.2h16v16h-16zM424.1 264.2h16v16h-16zM424.1 232.2h16v16h-16zM424.1 200.2h16v16h-16zM424.1 168.2h16v16h-16zM40.1 296.2h16v16h-16zM40.1 264.2h16v16h-16zM40.1 232.2h16v16h-16zM80.1 232.2h16v16h-16zM112.1 232.2h16v16h-16zM144.1 232.2h16v16h-16zM320.1 232.2h16v16h-16zM352.1 232.2h16v16h-16zM384.1 232.2h16v16h-16zM40.1 200.2h16v16h-16zM40.1 168.2h16v16h-16zM112.1 40.2h16v16h-16zM144.1 40.2h16v16h-16zM176.1 40.2h16v16h-16zM208.1 40.2h16v16h-16zM240.1 40.2h16v16h-16z"/></svg>