<svg viewBox="0 0 480.12 480.12" xmlns="http://www.w3.org/2000/svg"><path d="M423.24 120.12a56.915 56.915 0 0 0-17.208 2.648c.528-4.195.795-8.42.8-12.648C405.793 48.273 354.814-1.02 292.962.02c-45.131.758-85.397 28.534-102.13 70.455-32.368-20.071-74.878-10.101-94.948 22.267a68.954 68.954 0 0 0-10.34 35.037 57.137 57.137 0 0 0-28.664-7.656c-30.928 0-56 25.072-56 56s25.072 56 56 56a8 8 0 0 0 0-16c-22.089-.359-39.704-18.556-39.345-40.645s18.556-39.704 40.645-39.345a40.002 40.002 0 0 1 33.1 18.525 8 8 0 0 0 14.112-7.376 50.795 50.795 0 0 1-3.872-19.16c.321-28.992 24.048-52.253 53.04-52a53.434 53.434 0 0 1 35.08 13.312 8 8 0 0 0 12.968-3.896c14.638-50.936 67.796-80.361 118.73-65.723 40.442 11.622 68.595 48.236 69.437 90.307a92.8 92.8 0 0 1-3.48 24.8 8 8 0 0 0 12.296 8.696 41.017 41.017 0 0 1 23.648-7.496c22.091 0 40 17.909 40 40s-17.909 40-40 40a8 8 0 0 0 0 16c30.928 0 56-25.072 56-56 0-30.927-25.072-55.999-56-55.999zM376.04 304.12h-272c-13.255 0-24 10.745-24 24v32c0 13.255 10.745 24 24 24h272c13.255 0 24-10.745 24-24v-32c0-13.255-10.745-24-24-24zm8 56a8 8 0 0 1-8 8h-272a8 8 0 0 1-8-8v-32a8 8 0 0 1 8-8h272a8 8 0 0 1 8 8v32z"/><path d="M353.85 328.62c-8.525.053-15.408 6.978-15.408 15.503.04 8.584 7.016 15.517 15.6 15.504 8.563-.053 15.461-7.037 15.408-15.6-.053-8.562-7.037-15.46-15.6-15.407zm.192 16.008c-.24 0-.4-.264-.4-.504l.4-.496v1zM270.44 336.12h-152a8 8 0 0 0 0 16h152a8 8 0 0 0 0-16zM319.84 336.12h-21.28a8 8 0 0 0 0 16h21.28a8 8 0 0 0 0-16zM376.04 400.12h-272c-13.255 0-24 10.745-24 24v32c0 13.255 10.745 24 24 24h272c13.255 0 24-10.745 24-24v-32c0-13.255-10.745-24-24-24zm8 56a8 8 0 0 1-8 8h-272a8 8 0 0 1-8-8v-32a8 8 0 0 1 8-8h272a8 8 0 0 1 8 8v32z"/><path d="M353.85 424.62c-8.525.053-15.408 6.978-15.408 15.503.04 8.584 7.016 15.517 15.6 15.504 8.563-.053 15.461-7.037 15.408-15.6-.053-8.562-7.037-15.46-15.6-15.407zm.192 16.008c-.24 0-.4-.264-.4-.504l.4-.496v1zM270.44 432.12h-152a8 8 0 0 0 0 16h152a8 8 0 0 0 0-16zM319.84 432.12h-21.28a8 8 0 0 0 0 16h21.28a8 8 0 0 0 0-16zM376.04 208.12h-272c-13.255 0-24 10.745-24 24v32c0 13.255 10.745 24 24 24h272c13.255 0 24-10.745 24-24v-32c0-13.255-10.745-24-24-24zm8 56a8 8 0 0 1-8 8h-272a8 8 0 0 1-8-8v-32a8 8 0 0 1 8-8h272a8 8 0 0 1 8 8v32z"/><path d="M366.94 245.94c-1.542-8.499-9.681-14.139-18.18-12.597a15.639 15.639 0 0 0-9.972 6.349 15.308 15.308 0 0 0-2.576 11.56 15.656 15.656 0 0 0 18 12.656 15.45 15.45 0 0 0 10.152-6.4 15.252 15.252 0 0 0 2.576-11.568zm-15.744 2.816l.36-.632.04 1c-.36 0-.384-.2-.4-.368zM268.84 240.12h-152a8 8 0 0 0 0 16h152a8 8 0 0 0 0-16zM314.73 240.12h-21.28a8 8 0 0 0 0 16h21.28a8 8 0 0 0 0-16zM205.7 130.46l-24-24a8 8 0 0 0-11.312 0l-24 24a8 8 0 0 0 11.312 11.312l10.344-10.344v52.688a8 8 0 0 0 16 0v-52.688l10.344 10.344A8 8 0 0 0 205.7 130.46zM333.5 154.46a8.001 8.001 0 0 0-11.116 0l-10.344 10.344v-52.688a8 8 0 0 0-16 0v52.688l-10.344-10.344a8 8 0 0 0-11.312 11.312l24 24a8 8 0 0 0 11.312 0l24-24a8 8 0 0 0-.196-11.312z"/></svg>