<svg enable-background="new 0 0 467.374 467.374" version="1.1" viewBox="0 0 467.37 467.37" xml:space="preserve" xmlns="http://www.w3.org/2000/svg">
		<path d="m459.66 82.222c0-5.136-1.704-9.419-5.133-12.843l-56.531-56.531c-3.425-3.427-7.706-5.14-12.847-5.14-5.144 0-9.421 1.713-12.847 5.14l-367.16 367.16c-3.431 3.429-5.14 7.714-5.14 12.853 0 5.141 1.709 9.418 5.14 12.847l56.529 56.527c3.431 3.429 7.708 5.141 12.85 5.141 5.137 0 9.419-1.704 12.847-5.141l367.16-367.16c3.425-3.43 5.129-7.708 5.129-12.85zm-127.62 83.655-30.546-30.55 83.651-83.654 30.546 30.549-83.651 83.655z"/>
		<polygon points="65.384 73.087 73.948 45.109 101.92 36.545 73.948 27.979 65.384 1e-3 56.818 27.979 28.84 36.545 56.818 45.109"/>
		<polygon points="139.61 108.49 156.74 164.46 173.88 108.49 229.84 91.361 173.88 74.23 156.74 18.269 139.61 74.23 83.651 91.361"/>
		<polygon points="439.39 210.7 430.83 182.72 422.27 210.7 394.29 219.26 422.27 227.83 430.83 255.8 439.39 227.83 467.37 219.26"/>
		<polygon points="248.11 73.087 256.67 45.109 284.65 36.545 256.67 27.979 248.11 1e-3 239.54 27.979 211.56 36.545 239.54 45.109"/>
</svg>
