<svg enable-background="new 0 0 512 512" version="1.1" viewBox="0 0 512 512" xml:space="preserve" xmlns="http://www.w3.org/2000/svg">
		<path d="m177.61 398.73 66.687-2e-3 1.99-4.364c3.939-8.638 11.546-22.238 16.122-25.435l0.402-0.28 0.362-0.331c39.385-36.032 117.28 4.02 118.06 4.426l1.626 0.852h129.14v-14.918h-125.52c-12.64-6.271-88.952-41.491-133.05-1.663-7.418 5.51-14.918 19.289-18.635 26.796h-57.184c-13.391 0-24.843 8.456-29.299 20.308l-83.015-40.6c-21.29-10.412-47.463-3.533-60.88 16.004l-4.413 6.426 198.54 123.85 169.65-53.659h143.81v-14.918h-146.11l-165.28 52.279-178.67-111.45c9.884-8.803 24.522-11.136 36.809-5.126l88.185 43.129c2.828 11.411 15.29 19.768 30.682 19.768h91.977v-14.918h-91.977c-10.111 0-16.369-5.087-16.369-9.8 0-9.027 7.343-16.37 16.369-16.37z"/>
		<path d="m438.9 40.996v-38.788h-111.89c-30.679 0-57.223 18.021-69.619 44.03-12.396-26.009-38.94-44.03-69.619-44.03h-111.89v38.788h-29.837v279.47h422.69v-279.47h-29.836zm-174.05 38.29c0-34.276 27.885-62.16 62.16-62.16h96.97v189.96h-97.964c-25.043 0-47.292 12.166-61.166 30.894v-158.7zm159.13 142.72v53.706h-158.68c3.689-30.223 29.51-53.706 60.713-53.706h97.964zm-333.18-204.88h96.97c34.275 0 62.16 27.885 62.16 62.16v158.7c-13.873-18.728-36.122-30.894-61.165-30.894h-97.965v-189.96zm0 204.88h97.964c31.203 0 57.023 23.484 60.713 53.706h-158.68v-53.706zm363.02 83.543h-392.85v-249.64h14.918v234.72h363.02v-234.72h14.918v249.64z"/>
		<path d="m353.17 377.06-4.917 14.085c10.086 3.522 16.76 6.793 19.161 8.036l6.858-13.248c-5.674-2.937-13.365-6.171-21.102-8.873z"/>
		<path d="m307.5 368.13c-14.614 1e-3 -26.139 3.765-34.256 11.192l10.071 11.006c5.279-4.83 13.416-7.278 24.184-7.278 7.915 0 17.023 1.321 27.071 3.926l3.745-14.441c-11.27-2.923-21.638-4.405-30.815-4.405z"/>
		<rect x="433.43" y="411.38" width="46.744" height="14.918"/>
		<rect x="105.72" y="127.02" width="14.918" height="35.804"/>
		<rect x="105.72" y="177.75" width="14.918" height="13.924"/>
		<path d="m187.77 32.045v14.918c17.823 0 32.323 14.5 32.323 32.323v10.103h14.918v-10.103c1e-3 -26.048-21.192-47.241-47.241-47.241z"/>
		<rect x="220.1" y="134.15" width="14.918" height="14.918"/>
		<rect x="220.1" y="104.31" width="14.918" height="14.918"/>
		<path d="m279.77 79.286h14.918c0-17.823 14.5-32.323 32.323-32.323v-14.918c-26.048 0-47.241 21.193-47.241 47.241z"/>
		<rect x="394.14" y="126.03" width="14.918" height="14.918"/>
		<rect x="394.14" y="155.87" width="14.918" height="14.918"/>
		<rect x="394.14" y="72.324" width="14.918" height="38.788"/>
		<rect x="106.22" y="240.9" width="48.734" height="14.918"/>
		<rect x="358.84" y="240.9" width="48.734" height="14.918"/>
</svg>
