<svg viewBox="0 0 467.37 467.37" xmlns="http://www.w3.org/2000/svg"><path d="M459.66 82.222c0-5.136-1.704-9.419-5.133-12.843l-56.531-56.531c-3.425-3.427-7.706-5.14-12.847-5.14-5.144 0-9.421 1.713-12.847 5.14L5.142 380.008c-3.431 3.429-5.14 7.714-5.14 12.853 0 5.141 1.709 9.418 5.14 12.847l56.529 56.527c3.431 3.429 7.708 5.141 12.85 5.141 5.137 0 9.419-1.704 12.847-5.141l367.16-367.16c3.425-3.43 5.129-7.708 5.129-12.85zm-127.62 83.655l-30.546-30.55 83.651-83.654 30.546 30.549-83.651 83.655zM65.384 73.087l8.564-27.978 27.972-8.564-27.972-8.566L65.384.001l-8.566 27.978-27.978 8.566 27.978 8.564zM139.61 108.49l17.13 55.97 17.14-55.97 55.96-17.129-55.96-17.131-17.14-55.961-17.13 55.961-55.959 17.131zM439.39 210.7l-8.56-27.98-8.56 27.98-27.98 8.56 27.98 8.57 8.56 27.97 8.56-27.97 27.98-8.57zM248.11 73.087l8.56-27.978 27.98-8.564-27.98-8.566L248.11.001l-8.57 27.978-27.98 8.566 27.98 8.564z"/></svg>