<svg version="1.1" viewBox="0 0 400 359.8381070983811" xmlns="http://www.w3.org/2000/svg" xmlns:xlink="http://www.w3.org/1999/xlink" width="400" height="400">
  <g id="svgg"><path id="path0" d="" stroke="none" fill="#000000" fill-rule="evenodd"></path><path id="path1" d="M172.167 0.103 C 163.711 0.505,157.142 1.217,148.500 2.666 C 147.116 2.898,141.792 3.950,140.917 4.165 C 140.550 4.255,139.575 4.483,138.750 4.671 C 132.323 6.141,124.225 8.566,118.000 10.887 C 110.849 13.553,106.320 15.511,99.833 18.742 C 95.038 21.131,90.031 23.872,87.333 25.586 C 87.013 25.789,86.075 26.357,85.250 26.846 C 69.756 36.037,53.414 50.463,39.856 66.917 C 35.152 72.625,29.560 80.685,25.172 88.083 C 22.319 92.892,21.453 94.479,19.029 99.333 C 16.694 104.009,16.244 104.965,14.796 108.333 C 14.343 109.388,13.874 110.475,13.753 110.750 C 11.928 114.914,9.018 123.126,7.344 128.833 C 7.062 129.796,6.758 130.810,6.669 131.087 C 6.185 132.586,4.186 140.848,3.687 143.417 C 2.939 147.261,2.831 147.845,2.505 149.833 C 2.317 150.979,2.092 152.329,2.004 152.833 C 1.642 154.903,1.078 159.780,0.673 164.333 C -0.560 178.198,-0.044 193.797,2.104 207.583 C 2.609 210.822,3.766 217.100,4.162 218.750 C 6.417 228.144,7.437 231.731,9.917 239.000 C 11.127 242.548,12.987 247.390,13.926 249.442 C 14.058 249.731,14.167 250.007,14.167 250.055 C 14.167 250.104,14.384 250.617,14.651 251.197 C 14.917 251.776,15.243 252.512,15.376 252.833 C 18.351 260.013,25.034 272.101,30.576 280.325 C 33.152 284.149,38.954 292.033,39.657 292.667 C 39.708 292.712,40.047 293.125,40.411 293.583 C 40.775 294.042,41.112 294.454,41.162 294.500 C 41.211 294.546,41.812 295.258,42.497 296.083 C 43.182 296.908,43.976 297.846,44.261 298.167 C 49.910 304.521,56.026 310.646,61.333 315.264 C 61.746 315.623,62.121 315.958,62.167 316.008 C 62.234 316.082,65.590 318.888,66.917 319.980 C 67.100 320.131,67.925 320.776,68.750 321.414 C 69.575 322.052,70.287 322.614,70.333 322.662 C 70.643 322.991,76.072 326.935,78.474 328.577 C 82.088 331.046,91.703 337.000,92.077 337.000 C 92.130 337.000,92.453 337.175,92.795 337.389 C 94.449 338.424,105.853 344.167,106.254 344.167 C 106.285 344.167,106.822 344.396,107.447 344.677 C 108.072 344.958,108.733 345.255,108.917 345.336 C 113.263 347.274,122.768 350.734,127.667 352.161 C 128.354 352.361,129.104 352.591,129.333 352.671 C 132.364 353.737,142.964 356.206,148.583 357.154 C 155.924 358.393,160.250 358.915,168.333 359.535 C 171.768 359.799,188.053 359.799,191.583 359.535 C 200.326 358.882,208.818 357.776,215.083 356.474 C 216.000 356.284,217.237 356.029,217.833 355.909 C 226.068 354.245,237.208 350.877,245.917 347.419 C 263.712 340.353,278.888 331.423,294.248 318.978 C 294.990 318.377,298.292 315.557,298.917 314.992 C 299.283 314.660,300.446 313.610,301.500 312.660 C 304.746 309.731,311.312 303.085,314.171 299.833 C 314.856 299.054,315.458 298.379,315.509 298.333 C 316.619 297.331,324.233 287.711,326.524 284.417 C 326.843 283.958,327.546 282.946,328.088 282.167 C 330.995 277.983,336.500 269.215,336.500 268.769 C 336.500 268.709,336.688 268.362,336.918 267.997 C 337.148 267.633,337.570 266.903,337.854 266.376 C 338.139 265.848,338.580 265.042,338.833 264.583 C 339.408 263.544,342.328 257.708,342.836 256.583 C 343.043 256.125,343.540 255.049,343.939 254.193 C 344.339 253.337,344.667 252.611,344.667 252.580 C 344.667 252.549,344.921 251.974,345.232 251.301 C 347.343 246.731,351.466 235.263,352.920 229.917 C 353.069 229.367,353.417 228.092,353.692 227.083 C 354.387 224.533,354.844 222.687,355.734 218.833 C 356.368 216.086,357.448 210.300,357.927 207.083 C 360.468 190.010,360.559 170.302,358.171 154.417 C 356.939 146.221,355.452 139.034,353.653 132.583 C 353.372 131.575,353.031 130.337,352.895 129.833 C 347.915 111.365,337.023 89.422,324.518 72.668 C 323.808 71.717,320.790 67.788,320.489 67.422 C 318.005 64.410,315.751 61.715,315.603 61.583 C 315.501 61.492,315.123 61.079,314.765 60.667 C 311.103 56.453,304.104 49.421,299.756 45.583 C 299.029 44.942,298.304 44.291,298.146 44.137 C 297.919 43.917,294.248 40.854,292.417 39.356 C 281.077 30.084,264.967 20.423,250.917 14.471 C 249.633 13.927,248.433 13.414,248.250 13.331 C 245.665 12.161,236.238 8.810,232.333 7.673 C 231.646 7.472,230.896 7.243,230.667 7.162 C 230.438 7.081,228.862 6.643,227.167 6.187 C 215.455 3.040,205.352 1.347,192.167 0.323 C 190.086 0.161,174.532 -0.010,172.167 0.103 M189.250 11.912 C 191.542 12.047,193.821 12.199,194.316 12.249 C 194.810 12.300,195.972 12.416,196.899 12.507 C 200.209 12.831,205.836 13.573,208.167 13.993 C 210.965 14.498,215.485 15.374,215.917 15.496 C 216.192 15.573,217.167 15.803,218.083 16.007 C 223.544 17.221,235.758 20.836,237.206 21.667 C 237.365 21.759,237.575 21.833,237.671 21.833 C 237.839 21.833,241.485 23.268,245.417 24.880 C 248.841 26.285,256.197 29.806,259.542 31.641 C 260.069 31.930,260.931 32.400,261.458 32.685 C 265.885 35.081,274.164 40.356,278.583 43.595 C 280.514 45.011,285.219 48.599,285.912 49.185 C 286.098 49.343,286.850 49.974,287.583 50.589 C 288.317 51.203,289.144 51.903,289.421 52.145 C 289.698 52.386,290.446 53.033,291.083 53.583 C 291.719 54.133,292.692 54.995,293.245 55.499 C 295.085 57.174,303.066 65.161,304.287 66.549 C 304.949 67.301,305.664 68.104,305.875 68.333 C 307.390 69.973,311.075 74.440,313.917 78.083 C 317.768 83.020,324.608 93.527,327.315 98.667 C 327.387 98.804,327.656 99.292,327.912 99.750 C 343.270 127.240,350.421 161.702,347.591 194.583 C 346.088 212.039,342.073 228.292,335.094 245.167 C 334.847 245.762,334.490 246.588,334.301 247.000 C 334.111 247.412,333.811 248.088,333.634 248.500 C 332.647 250.804,329.081 258.032,328.003 259.917 C 327.793 260.283,327.358 261.071,327.037 261.667 C 326.287 263.055,322.098 270.005,320.956 271.754 C 319.384 274.163,314.619 280.942,314.340 281.167 C 314.283 281.212,313.496 282.225,312.590 283.417 C 311.684 284.608,310.899 285.621,310.845 285.667 C 310.791 285.712,310.001 286.650,309.090 287.750 C 308.178 288.850,307.196 290.012,306.906 290.333 C 306.616 290.654,305.642 291.742,304.741 292.750 C 289.821 309.448,269.658 324.136,248.917 333.416 C 248.642 333.539,247.892 333.878,247.250 334.169 C 242.851 336.164,233.140 339.722,228.167 341.160 C 227.479 341.359,226.564 341.629,226.133 341.761 C 225.226 342.039,218.138 343.833,216.417 344.220 C 213.283 344.924,208.514 345.800,205.000 346.315 C 201.194 346.874,200.315 346.988,198.417 347.167 C 197.408 347.263,195.833 347.416,194.917 347.507 C 182.116 348.783,164.539 348.101,151.833 345.835 C 151.329 345.746,150.054 345.519,149.000 345.331 C 147.946 345.144,146.783 344.922,146.417 344.838 C 146.050 344.754,145.000 344.524,144.083 344.326 C 136.463 342.679,129.013 340.484,120.750 337.452 C 113.503 334.793,103.484 330.060,96.375 325.937 C 94.054 324.592,93.338 324.165,91.583 323.083 C 87.345 320.471,79.914 315.330,77.151 313.099 C 76.913 312.907,76.429 312.525,76.075 312.250 C 69.800 307.380,62.165 300.331,56.482 294.160 C 53.934 291.394,53.609 291.022,49.770 286.500 C 49.576 286.271,49.006 285.558,48.504 284.917 C 48.002 284.275,47.550 283.712,47.500 283.667 C 47.004 283.215,41.872 276.080,39.947 273.167 C 39.130 271.929,38.330 270.727,38.170 270.496 C 37.747 269.885,35.734 266.566,34.382 264.250 C 32.314 260.710,31.677 259.527,29.576 255.333 C 26.661 249.513,24.682 245.059,22.983 240.500 C 22.625 239.537,22.259 238.600,22.171 238.417 C 21.581 237.187,18.557 227.858,17.742 224.750 C 14.976 214.211,13.305 205.248,12.585 197.083 C 12.529 196.442,12.411 195.242,12.324 194.417 C 11.530 186.898,11.532 172.944,12.328 165.333 C 12.419 164.462,12.570 163.000,12.662 162.083 C 12.985 158.891,13.654 153.821,13.991 152.000 C 14.085 151.496,14.317 150.221,14.508 149.167 C 15.234 145.142,16.095 141.395,17.743 135.083 C 18.036 133.959,19.121 130.301,19.497 129.167 C 19.665 128.662,19.877 127.987,19.969 127.667 C 20.201 126.859,21.926 121.968,22.409 120.750 C 22.626 120.200,23.217 118.700,23.722 117.417 C 28.455 105.371,38.201 87.847,44.297 80.417 C 44.372 80.325,45.104 79.350,45.924 78.250 C 46.744 77.150,47.453 76.212,47.500 76.167 C 47.547 76.121,48.033 75.521,48.580 74.833 C 49.713 73.411,52.778 69.745,53.661 68.757 C 55.996 66.143,58.477 63.511,60.912 61.067 C 63.341 58.627,64.865 57.189,68.917 53.511 C 70.270 52.282,75.596 47.898,76.917 46.925 C 77.283 46.655,77.621 46.390,77.667 46.337 C 77.712 46.283,78.162 45.942,78.667 45.578 C 79.171 45.215,79.696 44.824,79.833 44.711 C 80.841 43.878,85.941 40.332,88.500 38.684 C 89.188 38.242,90.388 37.470,91.167 36.968 C 94.426 34.871,99.899 31.831,105.000 29.284 C 108.139 27.717,109.267 27.182,111.833 26.042 C 112.337 25.819,113.054 25.497,113.426 25.328 C 117.035 23.688,126.079 20.364,130.417 19.084 C 131.242 18.840,132.104 18.575,132.333 18.495 C 134.565 17.713,144.188 15.374,148.083 14.667 C 148.633 14.567,149.871 14.341,150.833 14.165 C 162.180 12.087,177.230 11.205,189.250 11.912 M165.750 51.839 C 155.082 52.418,144.190 54.499,134.333 57.839 C 133.097 58.258,128.225 60.048,127.750 60.258 C 127.475 60.380,126.783 60.672,126.212 60.907 C 124.184 61.742,121.682 62.907,118.588 64.454 C 113.611 66.943,107.428 70.668,103.727 73.407 C 103.348 73.687,102.871 74.029,102.666 74.167 C 96.598 78.236,86.883 87.327,81.067 94.377 C 80.369 95.224,79.649 96.093,79.468 96.309 C 79.072 96.781,76.005 100.823,75.705 101.269 C 75.589 101.442,75.225 101.958,74.898 102.417 C 70.080 109.153,64.343 119.911,61.745 127.083 C 61.578 127.542,61.389 127.992,61.324 128.083 C 60.985 128.558,58.437 136.528,57.515 140.000 C 55.732 146.711,54.751 152.488,53.965 160.917 C 53.696 163.795,53.696 176.705,53.965 179.583 C 54.322 183.414,54.499 185.059,54.672 186.167 C 54.765 186.762,54.992 188.225,55.176 189.417 C 55.782 193.329,57.274 200.010,58.236 203.118 C 58.372 203.557,58.796 204.929,59.178 206.167 C 61.190 212.678,65.453 222.614,68.324 227.484 C 68.604 227.959,68.833 228.375,68.833 228.408 C 68.833 228.789,73.158 235.563,75.914 239.500 C 78.951 243.837,83.480 249.145,88.082 253.759 C 91.238 256.923,92.151 257.780,95.267 260.506 C 108.807 272.345,129.259 282.548,146.333 285.982 C 146.746 286.065,147.833 286.285,148.750 286.472 C 160.488 288.863,174.215 289.570,176.831 287.918 C 180.494 285.606,179.692 279.616,175.565 278.458 C 174.821 278.249,173.565 278.161,170.376 278.094 C 166.454 278.012,162.678 277.737,159.917 277.333 C 151.172 276.053,143.678 274.282,135.583 271.583 C 132.976 270.714,127.746 268.821,127.083 268.508 C 126.900 268.421,126.075 268.077,125.250 267.743 C 116.534 264.220,104.500 255.708,95.582 246.761 C 92.737 243.906,92.031 243.157,90.333 241.185 C 89.829 240.600,89.340 240.037,89.247 239.935 C 89.153 239.833,88.778 239.375,88.413 238.917 C 88.048 238.458,87.706 238.046,87.653 238.000 C 86.942 237.387,82.628 231.315,80.254 227.583 C 78.086 224.177,74.678 217.748,73.098 214.083 C 72.940 213.717,72.744 213.267,72.662 213.083 C 71.200 209.802,69.756 205.783,68.081 200.333 C 64.360 188.230,62.844 170.392,64.498 158.167 C 64.591 157.479,64.747 156.279,64.845 155.500 C 65.045 153.901,65.751 149.637,66.003 148.500 C 68.871 135.562,72.907 125.190,79.135 114.750 C 81.696 110.458,85.957 104.387,88.434 101.500 C 88.631 101.271,89.306 100.483,89.934 99.750 C 100.045 87.949,114.063 77.394,127.333 71.591 C 127.929 71.330,128.829 70.935,129.333 70.713 C 131.067 69.948,131.254 69.870,132.750 69.287 C 135.312 68.290,139.263 66.943,141.750 66.221 C 144.196 65.511,147.737 64.629,150.583 64.021 C 152.993 63.506,157.886 62.775,160.750 62.502 C 161.758 62.406,162.771 62.292,163.000 62.249 C 165.473 61.781,177.872 61.883,182.990 62.413 C 189.916 63.130,197.115 64.542,203.083 66.357 C 206.197 67.303,211.261 69.063,212.583 69.658 C 212.767 69.740,213.854 70.200,215.000 70.680 C 224.232 74.546,237.532 82.946,243.599 88.742 C 243.700 88.838,244.444 89.517,245.254 90.250 C 248.615 93.294,253.718 98.707,256.411 102.087 C 256.775 102.543,257.120 102.954,257.178 103.000 C 257.389 103.166,261.130 108.288,262.108 109.750 C 265.507 114.830,268.802 120.772,271.166 126.083 C 271.947 127.838,272.267 128.598,272.939 130.292 C 273.793 132.447,275.074 135.994,275.422 137.167 C 276.981 142.426,277.714 145.291,278.473 149.083 C 279.018 151.804,279.500 154.666,279.500 155.178 C 279.500 155.492,279.297 155.500,271.375 155.501 C 261.618 155.501,261.667 155.489,261.667 158.045 C 261.667 159.956,262.190 160.835,268.787 170.000 C 269.282 170.688,270.427 172.300,271.331 173.583 C 281.322 187.766,281.565 188.090,282.579 188.621 C 283.299 188.998,284.617 188.964,285.417 188.549 C 286.267 188.107,287.322 186.749,292.000 180.075 C 292.871 178.833,294.033 177.186,294.583 176.416 C 295.133 175.646,296.367 173.906,297.325 172.550 C 298.283 171.193,299.891 168.921,300.898 167.500 C 301.905 166.079,303.124 164.354,303.607 163.667 C 304.090 162.979,304.547 162.342,304.622 162.250 C 306.528 159.939,306.824 156.784,305.225 155.841 C 304.667 155.511,304.403 155.500,297.264 155.500 L 289.880 155.500 289.776 154.708 C 289.050 149.144,288.019 144.157,286.253 137.667 C 285.337 134.300,283.157 128.014,282.004 125.417 C 281.922 125.233,281.543 124.333,281.161 123.417 C 280.060 120.779,277.680 115.839,276.502 113.750 C 273.543 108.498,273.615 108.619,271.668 105.667 C 269.439 102.287,266.424 98.027,266.006 97.667 C 265.952 97.621,265.500 97.058,265.001 96.417 C 262.219 92.840,259.349 89.695,254.722 85.153 C 251.964 82.446,250.881 81.458,248.341 79.333 C 247.848 78.921,247.364 78.507,247.264 78.414 C 246.376 77.580,240.802 73.433,238.496 71.890 C 236.692 70.684,232.708 68.167,232.602 68.167 C 232.570 68.167,231.839 67.744,230.980 67.227 C 227.548 65.163,221.389 62.197,216.167 60.093 C 200.536 53.796,182.889 50.907,165.750 51.839 M171.024 83.845 C 170.320 84.127,169.657 84.689,169.199 85.393 L 168.750 86.083 168.750 97.167 C 168.750 109.380,168.675 108.432,169.739 109.641 C 171.167 111.264,176.784 111.135,178.069 109.451 C 179.030 108.190,179.000 108.586,178.996 97.130 C 178.992 84.788,179.051 85.162,176.919 84.022 C 176.192 83.633,171.877 83.504,171.024 83.845 M201.750 136.883 C 199.248 139.470,198.297 140.511,196.094 143.074 C 194.837 144.536,193.239 146.448,192.542 147.324 C 191.845 148.200,190.884 149.404,190.407 150.000 C 187.943 153.077,181.793 161.742,178.933 166.167 C 178.489 166.854,177.997 167.604,177.840 167.833 C 177.395 168.482,174.663 172.903,173.588 174.713 C 173.056 175.609,172.559 176.380,172.484 176.427 C 172.409 176.473,171.124 175.477,169.629 174.214 C 168.135 172.950,166.575 171.655,166.164 171.336 C 165.753 171.016,165.335 170.679,165.236 170.586 C 161.810 167.377,146.102 156.446,141.667 154.184 C 141.529 154.114,141.060 153.849,140.625 153.596 C 140.190 153.342,139.833 153.188,139.833 153.253 C 139.833 154.013,146.988 164.115,150.691 168.583 C 152.534 170.807,155.675 174.540,156.089 174.998 C 156.379 175.320,157.321 176.371,158.182 177.333 C 161.873 181.463,164.774 184.482,170.150 189.789 C 172.772 192.378,174.955 194.497,175.001 194.498 C 175.047 194.499,175.777 193.356,176.624 191.958 C 177.470 190.560,178.672 188.592,179.296 187.583 C 179.919 186.575,180.942 184.850,181.570 183.750 C 182.198 182.650,183.067 181.150,183.502 180.417 C 185.802 176.537,190.166 168.236,192.613 163.083 C 194.042 160.075,195.167 157.648,195.167 157.572 C 195.167 157.538,195.349 157.113,195.572 156.630 C 196.217 155.231,197.729 151.593,198.571 149.417 C 198.997 148.317,199.426 147.229,199.524 147.000 C 200.234 145.353,202.757 137.688,203.076 136.208 C 203.243 135.434,203.061 135.526,201.750 136.883 M86.288 165.221 C 84.376 165.816,83.833 166.933,83.833 170.270 C 83.833 173.507,84.407 174.590,86.417 175.147 C 87.375 175.412,107.234 175.405,108.292 175.139 C 111.956 174.216,112.040 166.293,108.397 165.205 C 107.444 164.920,87.209 164.935,86.288 165.221 M212.417 212.003 C 203.862 213.546,197.707 219.377,195.354 228.167 C 194.280 232.181,194.785 232.833,198.966 232.833 C 202.588 232.833,202.737 232.736,203.812 229.685 C 206.772 221.283,214.461 217.602,222.264 220.850 C 229.879 224.020,231.284 234.692,225.126 242.583 C 225.055 242.675,224.768 243.050,224.489 243.417 C 223.336 244.933,223.024 245.312,221.750 246.747 C 220.213 248.478,214.539 254.751,211.417 258.171 C 210.867 258.774,210.116 259.601,209.750 260.008 C 207.349 262.677,206.218 263.930,206.000 264.163 C 205.862 264.310,205.075 265.173,204.250 266.081 C 203.425 266.989,202.300 268.225,201.750 268.829 C 197.638 273.341,197.115 273.950,196.773 274.617 C 196.380 275.384,196.370 280.907,196.760 281.464 C 197.399 282.376,196.413 282.334,217.033 282.331 C 237.531 282.328,236.546 282.371,237.234 281.447 C 237.702 280.817,237.850 276.596,237.439 275.610 C 236.872 274.254,237.827 274.335,222.364 274.334 L 208.644 274.333 210.188 272.625 C 211.037 271.685,211.774 270.879,211.826 270.833 C 211.878 270.787,212.889 269.662,214.074 268.333 C 215.259 267.004,216.309 265.842,216.408 265.750 C 216.507 265.658,217.595 264.458,218.827 263.083 C 220.059 261.708,221.342 260.283,221.678 259.917 C 222.014 259.550,223.063 258.387,224.010 257.333 C 224.956 256.279,225.773 255.379,225.824 255.333 C 225.875 255.287,226.554 254.537,227.333 253.667 C 228.112 252.796,229.024 251.783,229.361 251.417 C 229.697 251.050,230.296 250.338,230.693 249.833 C 231.090 249.329,231.544 248.773,231.704 248.597 C 231.863 248.422,232.201 247.972,232.454 247.597 C 232.708 247.223,232.958 246.879,233.009 246.833 C 233.856 246.081,236.139 241.807,237.149 239.083 C 240.805 229.227,236.394 217.890,227.349 213.893 C 226.836 213.666,226.267 213.412,226.083 213.328 C 222.930 211.877,216.546 211.258,212.417 212.003 M282.208 213.014 C 281.380 213.262,280.951 213.815,276.841 219.917 C 265.050 237.423,258.670 246.912,254.263 253.500 C 252.516 256.112,251.039 258.287,250.982 258.333 C 249.962 259.151,249.376 265.477,250.174 267.068 C 250.811 268.341,249.528 268.245,266.512 268.294 L 281.667 268.339 281.667 274.594 C 281.667 282.856,281.350 282.334,286.359 282.332 C 291.126 282.331,290.820 282.858,290.827 274.637 L 290.833 268.357 294.292 268.304 C 299.027 268.230,299.170 268.101,299.163 263.929 C 299.156 259.995,298.956 259.833,294.089 259.833 L 290.833 259.833 290.833 237.091 C 290.833 212.894,290.864 213.787,290.016 213.211 C 289.515 212.870,283.217 212.711,282.208 213.014 M281.667 244.167 L 281.667 260.000 271.000 260.000 C 265.133 260.000,260.333 259.959,260.333 259.908 C 260.333 259.858,260.959 258.902,261.724 257.783 C 262.489 256.665,264.903 253.088,267.089 249.833 C 277.109 234.913,278.654 232.613,280.039 230.542 C 280.852 229.327,281.550 228.333,281.592 228.333 C 281.633 228.333,281.667 235.458,281.667 244.167 " stroke="none" fill="#ffffff" fill-rule="evenodd"></path><path id="path2" d="M172.167 0.103 C 163.711 0.505,157.142 1.217,148.500 2.666 C 147.116 2.898,141.792 3.950,140.917 4.165 C 140.550 4.255,139.575 4.483,138.750 4.671 C 132.323 6.141,124.225 8.566,118.000 10.887 C 110.849 13.553,106.320 15.511,99.833 18.742 C 95.038 21.131,90.031 23.872,87.333 25.586 C 87.013 25.789,86.075 26.357,85.250 26.846 C 69.756 36.037,53.414 50.463,39.856 66.917 C 35.152 72.625,29.560 80.685,25.172 88.083 C 22.319 92.892,21.453 94.479,19.029 99.333 C 16.694 104.009,16.244 104.965,14.796 108.333 C 14.343 109.388,13.874 110.475,13.753 110.750 C 11.928 114.914,9.018 123.126,7.344 128.833 C 7.062 129.796,6.758 130.810,6.669 131.087 C 6.185 132.586,4.186 140.848,3.687 143.417 C 2.939 147.261,2.831 147.845,2.505 149.833 C 2.317 150.979,2.092 152.329,2.004 152.833 C 1.642 154.903,1.078 159.780,0.673 164.333 C -0.560 178.198,-0.044 193.797,2.104 207.583 C 2.609 210.822,3.766 217.100,4.162 218.750 C 6.417 228.144,7.437 231.731,9.917 239.000 C 11.127 242.548,12.987 247.390,13.926 249.442 C 14.058 249.731,14.167 250.007,14.167 250.055 C 14.167 250.104,14.384 250.617,14.651 251.197 C 14.917 251.776,15.243 252.512,15.376 252.833 C 18.351 260.013,25.034 272.101,30.576 280.325 C 33.152 284.149,38.954 292.033,39.657 292.667 C 39.708 292.712,40.047 293.125,40.411 293.583 C 40.775 294.042,41.112 294.454,41.162 294.500 C 41.211 294.546,41.812 295.258,42.497 296.083 C 43.182 296.908,43.976 297.846,44.261 298.167 C 49.910 304.521,56.026 310.646,61.333 315.264 C 61.746 315.623,62.121 315.958,62.167 316.008 C 62.234 316.082,65.590 318.888,66.917 319.980 C 67.100 320.131,67.925 320.776,68.750 321.414 C 69.575 322.052,70.287 322.614,70.333 322.662 C 70.643 322.991,76.072 326.935,78.474 328.577 C 82.088 331.046,91.703 337.000,92.077 337.000 C 92.130 337.000,92.453 337.175,92.795 337.389 C 94.449 338.424,105.853 344.167,106.254 344.167 C 106.285 344.167,106.822 344.396,107.447 344.677 C 108.072 344.958,108.733 345.255,108.917 345.336 C 113.263 347.274,122.768 350.734,127.667 352.161 C 128.354 352.361,129.104 352.591,129.333 352.671 C 132.364 353.737,142.964 356.206,148.583 357.154 C 155.924 358.393,160.250 358.915,168.333 359.535 C 171.768 359.799,188.053 359.799,191.583 359.535 C 200.326 358.882,208.818 357.776,215.083 356.474 C 216.000 356.284,217.237 356.029,217.833 355.909 C 226.068 354.245,237.208 350.877,245.917 347.419 C 263.712 340.353,278.888 331.423,294.248 318.978 C 294.990 318.377,298.292 315.557,298.917 314.992 C 299.283 314.660,300.446 313.610,301.500 312.660 C 304.746 309.731,311.312 303.085,314.171 299.833 C 314.856 299.054,315.458 298.379,315.509 298.333 C 316.619 297.331,324.233 287.711,326.524 284.417 C 326.843 283.958,327.546 282.946,328.088 282.167 C 330.995 277.983,336.500 269.215,336.500 268.769 C 336.500 268.709,336.688 268.362,336.918 267.997 C 337.148 267.633,337.570 266.903,337.854 266.376 C 338.139 265.848,338.580 265.042,338.833 264.583 C 339.408 263.544,342.328 257.708,342.836 256.583 C 343.043 256.125,343.540 255.049,343.939 254.193 C 344.339 253.337,344.667 252.611,344.667 252.580 C 344.667 252.549,344.921 251.974,345.232 251.301 C 347.343 246.731,351.466 235.263,352.920 229.917 C 353.069 229.367,353.417 228.092,353.692 227.083 C 354.387 224.533,354.844 222.687,355.734 218.833 C 356.368 216.086,357.448 210.300,357.927 207.083 C 360.468 190.010,360.559 170.302,358.171 154.417 C 356.939 146.221,355.452 139.034,353.653 132.583 C 353.372 131.575,353.031 130.337,352.895 129.833 C 347.915 111.365,337.023 89.422,324.518 72.668 C 323.808 71.717,320.790 67.788,320.489 67.422 C 318.005 64.410,315.751 61.715,315.603 61.583 C 315.501 61.492,315.123 61.079,314.765 60.667 C 311.103 56.453,304.104 49.421,299.756 45.583 C 299.029 44.942,298.304 44.291,298.146 44.137 C 297.919 43.917,294.248 40.854,292.417 39.356 C 281.077 30.084,264.967 20.423,250.917 14.471 C 249.633 13.927,248.433 13.414,248.250 13.331 C 245.665 12.161,236.238 8.810,232.333 7.673 C 231.646 7.472,230.896 7.243,230.667 7.162 C 230.438 7.081,228.862 6.643,227.167 6.187 C 215.455 3.040,205.352 1.347,192.167 0.323 C 190.086 0.161,174.532 -0.010,172.167 0.103 M189.250 11.912 C 191.542 12.047,193.821 12.199,194.316 12.249 C 194.810 12.300,195.972 12.416,196.899 12.507 C 200.209 12.831,205.836 13.573,208.167 13.993 C 210.965 14.498,215.485 15.374,215.917 15.496 C 216.192 15.573,217.167 15.803,218.083 16.007 C 223.544 17.221,235.758 20.836,237.206 21.667 C 237.365 21.759,237.575 21.833,237.671 21.833 C 237.839 21.833,241.485 23.268,245.417 24.880 C 248.841 26.285,256.197 29.806,259.542 31.641 C 260.069 31.930,260.931 32.400,261.458 32.685 C 265.885 35.081,274.164 40.356,278.583 43.595 C 280.514 45.011,285.219 48.599,285.912 49.185 C 286.098 49.343,286.850 49.974,287.583 50.589 C 288.317 51.203,289.144 51.903,289.421 52.145 C 289.698 52.386,290.446 53.033,291.083 53.583 C 291.719 54.133,292.692 54.995,293.245 55.499 C 295.085 57.174,303.066 65.161,304.287 66.549 C 304.949 67.301,305.664 68.104,305.875 68.333 C 307.390 69.973,311.075 74.440,313.917 78.083 C 317.768 83.020,324.608 93.527,327.315 98.667 C 327.387 98.804,327.656 99.292,327.912 99.750 C 343.270 127.240,350.421 161.702,347.591 194.583 C 346.088 212.039,342.073 228.292,335.094 245.167 C 334.847 245.762,334.490 246.588,334.301 247.000 C 334.111 247.412,333.811 248.088,333.634 248.500 C 332.647 250.804,329.081 258.032,328.003 259.917 C 327.793 260.283,327.358 261.071,327.037 261.667 C 326.287 263.055,322.098 270.005,320.956 271.754 C 319.384 274.163,314.619 280.942,314.340 281.167 C 314.283 281.212,313.496 282.225,312.590 283.417 C 311.684 284.608,310.899 285.621,310.845 285.667 C 310.791 285.712,310.001 286.650,309.090 287.750 C 308.178 288.850,307.196 290.012,306.906 290.333 C 306.616 290.654,305.642 291.742,304.741 292.750 C 289.821 309.448,269.658 324.136,248.917 333.416 C 248.642 333.539,247.892 333.878,247.250 334.169 C 242.851 336.164,233.140 339.722,228.167 341.160 C 227.479 341.359,226.564 341.629,226.133 341.761 C 225.226 342.039,218.138 343.833,216.417 344.220 C 213.283 344.924,208.514 345.800,205.000 346.315 C 201.194 346.874,200.315 346.988,198.417 347.167 C 197.408 347.263,195.833 347.416,194.917 347.507 C 182.116 348.783,164.539 348.101,151.833 345.835 C 151.329 345.746,150.054 345.519,149.000 345.331 C 147.946 345.144,146.783 344.922,146.417 344.838 C 146.050 344.754,145.000 344.524,144.083 344.326 C 136.463 342.679,129.013 340.484,120.750 337.452 C 113.503 334.793,103.484 330.060,96.375 325.937 C 94.054 324.592,93.338 324.165,91.583 323.083 C 87.345 320.471,79.914 315.330,77.151 313.099 C 76.913 312.907,76.429 312.525,76.075 312.250 C 69.800 307.380,62.165 300.331,56.482 294.160 C 53.934 291.394,53.609 291.022,49.770 286.500 C 49.576 286.271,49.006 285.558,48.504 284.917 C 48.002 284.275,47.550 283.712,47.500 283.667 C 47.004 283.215,41.872 276.080,39.947 273.167 C 39.130 271.929,38.330 270.727,38.170 270.496 C 37.747 269.885,35.734 266.566,34.382 264.250 C 32.314 260.710,31.677 259.527,29.576 255.333 C 26.661 249.513,24.682 245.059,22.983 240.500 C 22.625 239.537,22.259 238.600,22.171 238.417 C 21.581 237.187,18.557 227.858,17.742 224.750 C 14.976 214.211,13.305 205.248,12.585 197.083 C 12.529 196.442,12.411 195.242,12.324 194.417 C 11.530 186.898,11.532 172.944,12.328 165.333 C 12.419 164.462,12.570 163.000,12.662 162.083 C 12.985 158.891,13.654 153.821,13.991 152.000 C 14.085 151.496,14.317 150.221,14.508 149.167 C 15.234 145.142,16.095 141.395,17.743 135.083 C 18.036 133.959,19.121 130.301,19.497 129.167 C 19.665 128.662,19.877 127.987,19.969 127.667 C 20.201 126.859,21.926 121.968,22.409 120.750 C 22.626 120.200,23.217 118.700,23.722 117.417 C 28.455 105.371,38.201 87.847,44.297 80.417 C 44.372 80.325,45.104 79.350,45.924 78.250 C 46.744 77.150,47.453 76.212,47.500 76.167 C 47.547 76.121,48.033 75.521,48.580 74.833 C 49.713 73.411,52.778 69.745,53.661 68.757 C 55.996 66.143,58.477 63.511,60.912 61.067 C 63.341 58.627,64.865 57.189,68.917 53.511 C 70.270 52.282,75.596 47.898,76.917 46.925 C 77.283 46.655,77.621 46.390,77.667 46.337 C 77.712 46.283,78.162 45.942,78.667 45.578 C 79.171 45.215,79.696 44.824,79.833 44.711 C 80.841 43.878,85.941 40.332,88.500 38.684 C 89.188 38.242,90.388 37.470,91.167 36.968 C 94.426 34.871,99.899 31.831,105.000 29.284 C 108.139 27.717,109.267 27.182,111.833 26.042 C 112.337 25.819,113.054 25.497,113.426 25.328 C 117.035 23.688,126.079 20.364,130.417 19.084 C 131.242 18.840,132.104 18.575,132.333 18.495 C 134.565 17.713,144.188 15.374,148.083 14.667 C 148.633 14.567,149.871 14.341,150.833 14.165 C 162.180 12.087,177.230 11.205,189.250 11.912 M165.750 51.839 C 155.082 52.418,144.190 54.499,134.333 57.839 C 133.097 58.258,128.225 60.048,127.750 60.258 C 127.475 60.380,126.783 60.672,126.212 60.907 C 124.184 61.742,121.682 62.907,118.588 64.454 C 113.611 66.943,107.428 70.668,103.727 73.407 C 103.348 73.687,102.871 74.029,102.666 74.167 C 96.598 78.236,86.883 87.327,81.067 94.377 C 80.369 95.224,79.649 96.093,79.468 96.309 C 79.072 96.781,76.005 100.823,75.705 101.269 C 75.589 101.442,75.225 101.958,74.898 102.417 C 70.080 109.153,64.343 119.911,61.745 127.083 C 61.578 127.542,61.389 127.992,61.324 128.083 C 60.985 128.558,58.437 136.528,57.515 140.000 C 55.732 146.711,54.751 152.488,53.965 160.917 C 53.696 163.795,53.696 176.705,53.965 179.583 C 54.322 183.414,54.499 185.059,54.672 186.167 C 54.765 186.762,54.992 188.225,55.176 189.417 C 55.782 193.329,57.274 200.010,58.236 203.118 C 58.372 203.557,58.796 204.929,59.178 206.167 C 61.190 212.678,65.453 222.614,68.324 227.484 C 68.604 227.959,68.833 228.375,68.833 228.408 C 68.833 228.789,73.158 235.563,75.914 239.500 C 78.951 243.837,83.480 249.145,88.082 253.759 C 91.238 256.923,92.151 257.780,95.267 260.506 C 108.807 272.345,129.259 282.548,146.333 285.982 C 146.746 286.065,147.833 286.285,148.750 286.472 C 160.488 288.863,174.215 289.570,176.831 287.918 C 180.494 285.606,179.692 279.616,175.565 278.458 C 174.821 278.249,173.565 278.161,170.376 278.094 C 166.454 278.012,162.678 277.737,159.917 277.333 C 151.172 276.053,143.678 274.282,135.583 271.583 C 132.976 270.714,127.746 268.821,127.083 268.508 C 126.900 268.421,126.075 268.077,125.250 267.743 C 116.534 264.220,104.500 255.708,95.582 246.761 C 92.737 243.906,92.031 243.157,90.333 241.185 C 89.829 240.600,89.340 240.037,89.247 239.935 C 89.153 239.833,88.778 239.375,88.413 238.917 C 88.048 238.458,87.706 238.046,87.653 238.000 C 86.942 237.387,82.628 231.315,80.254 227.583 C 78.086 224.177,74.678 217.748,73.098 214.083 C 72.940 213.717,72.744 213.267,72.662 213.083 C 71.200 209.802,69.756 205.783,68.081 200.333 C 64.360 188.230,62.844 170.392,64.498 158.167 C 64.591 157.479,64.747 156.279,64.845 155.500 C 65.045 153.901,65.751 149.637,66.003 148.500 C 68.871 135.562,72.907 125.190,79.135 114.750 C 81.696 110.458,85.957 104.387,88.434 101.500 C 88.631 101.271,89.306 100.483,89.934 99.750 C 100.045 87.949,114.063 77.394,127.333 71.591 C 127.929 71.330,128.829 70.935,129.333 70.713 C 131.067 69.948,131.254 69.870,132.750 69.287 C 135.312 68.290,139.263 66.943,141.750 66.221 C 144.196 65.511,147.737 64.629,150.583 64.021 C 152.993 63.506,157.886 62.775,160.750 62.502 C 161.758 62.406,162.771 62.292,163.000 62.249 C 165.473 61.781,177.872 61.883,182.990 62.413 C 189.916 63.130,197.115 64.542,203.083 66.357 C 206.197 67.303,211.261 69.063,212.583 69.658 C 212.767 69.740,213.854 70.200,215.000 70.680 C 224.232 74.546,237.532 82.946,243.599 88.742 C 243.700 88.838,244.444 89.517,245.254 90.250 C 248.615 93.294,253.718 98.707,256.411 102.087 C 256.775 102.543,257.120 102.954,257.178 103.000 C 257.389 103.166,261.130 108.288,262.108 109.750 C 265.507 114.830,268.802 120.772,271.166 126.083 C 271.947 127.838,272.267 128.598,272.939 130.292 C 273.793 132.447,275.074 135.994,275.422 137.167 C 276.981 142.426,277.714 145.291,278.473 149.083 C 279.018 151.804,279.500 154.666,279.500 155.178 C 279.500 155.492,279.297 155.500,271.375 155.501 C 261.618 155.501,261.667 155.489,261.667 158.045 C 261.667 159.956,262.190 160.835,268.787 170.000 C 269.282 170.688,270.427 172.300,271.331 173.583 C 281.322 187.766,281.565 188.090,282.579 188.621 C 283.299 188.998,284.617 188.964,285.417 188.549 C 286.267 188.107,287.322 186.749,292.000 180.075 C 292.871 178.833,294.033 177.186,294.583 176.416 C 295.133 175.646,296.367 173.906,297.325 172.550 C 298.283 171.193,299.891 168.921,300.898 167.500 C 301.905 166.079,303.124 164.354,303.607 163.667 C 304.090 162.979,304.547 162.342,304.622 162.250 C 306.528 159.939,306.824 156.784,305.225 155.841 C 304.667 155.511,304.403 155.500,297.264 155.500 L 289.880 155.500 289.776 154.708 C 289.050 149.144,288.019 144.157,286.253 137.667 C 285.337 134.300,283.157 128.014,282.004 125.417 C 281.922 125.233,281.543 124.333,281.161 123.417 C 280.060 120.779,277.680 115.839,276.502 113.750 C 273.543 108.498,273.615 108.619,271.668 105.667 C 269.439 102.287,266.424 98.027,266.006 97.667 C 265.952 97.621,265.500 97.058,265.001 96.417 C 262.219 92.840,259.349 89.695,254.722 85.153 C 251.964 82.446,250.881 81.458,248.341 79.333 C 247.848 78.921,247.364 78.507,247.264 78.414 C 246.376 77.580,240.802 73.433,238.496 71.890 C 236.692 70.684,232.708 68.167,232.602 68.167 C 232.570 68.167,231.839 67.744,230.980 67.227 C 227.548 65.163,221.389 62.197,216.167 60.093 C 200.536 53.796,182.889 50.907,165.750 51.839 M171.024 83.845 C 170.320 84.127,169.657 84.689,169.199 85.393 L 168.750 86.083 168.750 97.167 C 168.750 109.380,168.675 108.432,169.739 109.641 C 171.167 111.264,176.784 111.135,178.069 109.451 C 179.030 108.190,179.000 108.586,178.996 97.130 C 178.992 84.788,179.051 85.162,176.919 84.022 C 176.192 83.633,171.877 83.504,171.024 83.845 M201.750 136.883 C 199.248 139.470,198.297 140.511,196.094 143.074 C 194.837 144.536,193.239 146.448,192.542 147.324 C 191.845 148.200,190.884 149.404,190.407 150.000 C 187.943 153.077,181.793 161.742,178.933 166.167 C 178.489 166.854,177.997 167.604,177.840 167.833 C 177.395 168.482,174.663 172.903,173.588 174.713 C 173.056 175.609,172.559 176.380,172.484 176.427 C 172.409 176.473,171.124 175.477,169.629 174.214 C 168.135 172.950,166.575 171.655,166.164 171.336 C 165.753 171.016,165.335 170.679,165.236 170.586 C 161.810 167.377,146.102 156.446,141.667 154.184 C 141.529 154.114,141.060 153.849,140.625 153.596 C 140.190 153.342,139.833 153.188,139.833 153.253 C 139.833 154.013,146.988 164.115,150.691 168.583 C 152.534 170.807,155.675 174.540,156.089 174.998 C 156.379 175.320,157.321 176.371,158.182 177.333 C 161.873 181.463,164.774 184.482,170.150 189.789 C 172.772 192.378,174.955 194.497,175.001 194.498 C 175.047 194.499,175.777 193.356,176.624 191.958 C 177.470 190.560,178.672 188.592,179.296 187.583 C 179.919 186.575,180.942 184.850,181.570 183.750 C 182.198 182.650,183.067 181.150,183.502 180.417 C 185.802 176.537,190.166 168.236,192.613 163.083 C 194.042 160.075,195.167 157.648,195.167 157.572 C 195.167 157.538,195.349 157.113,195.572 156.630 C 196.217 155.231,197.729 151.593,198.571 149.417 C 198.997 148.317,199.426 147.229,199.524 147.000 C 200.234 145.353,202.757 137.688,203.076 136.208 C 203.243 135.434,203.061 135.526,201.750 136.883 M86.288 165.221 C 84.376 165.816,83.833 166.933,83.833 170.270 C 83.833 173.507,84.407 174.590,86.417 175.147 C 87.375 175.412,107.234 175.405,108.292 175.139 C 111.956 174.216,112.040 166.293,108.397 165.205 C 107.444 164.920,87.209 164.935,86.288 165.221 M212.417 212.003 C 203.862 213.546,197.707 219.377,195.354 228.167 C 194.280 232.181,194.785 232.833,198.966 232.833 C 202.588 232.833,202.737 232.736,203.812 229.685 C 206.772 221.283,214.461 217.602,222.264 220.850 C 229.879 224.020,231.284 234.692,225.126 242.583 C 225.055 242.675,224.768 243.050,224.489 243.417 C 223.336 244.933,223.024 245.312,221.750 246.747 C 220.213 248.478,214.539 254.751,211.417 258.171 C 210.867 258.774,210.116 259.601,209.750 260.008 C 207.349 262.677,206.218 263.930,206.000 264.163 C 205.862 264.310,205.075 265.173,204.250 266.081 C 203.425 266.989,202.300 268.225,201.750 268.829 C 197.638 273.341,197.115 273.950,196.773 274.617 C 196.380 275.384,196.370 280.907,196.760 281.464 C 197.399 282.376,196.413 282.334,217.033 282.331 C 237.531 282.328,236.546 282.371,237.234 281.447 C 237.702 280.817,237.850 276.596,237.439 275.610 C 236.872 274.254,237.827 274.335,222.364 274.334 L 208.644 274.333 210.188 272.625 C 211.037 271.685,211.774 270.879,211.826 270.833 C 211.878 270.787,212.889 269.662,214.074 268.333 C 215.259 267.004,216.309 265.842,216.408 265.750 C 216.507 265.658,217.595 264.458,218.827 263.083 C 220.059 261.708,221.342 260.283,221.678 259.917 C 222.014 259.550,223.063 258.387,224.010 257.333 C 224.956 256.279,225.773 255.379,225.824 255.333 C 225.875 255.287,226.554 254.537,227.333 253.667 C 228.112 252.796,229.024 251.783,229.361 251.417 C 229.697 251.050,230.296 250.338,230.693 249.833 C 231.090 249.329,231.544 248.773,231.704 248.597 C 231.863 248.422,232.201 247.972,232.454 247.597 C 232.708 247.223,232.958 246.879,233.009 246.833 C 233.856 246.081,236.139 241.807,237.149 239.083 C 240.805 229.227,236.394 217.890,227.349 213.893 C 226.836 213.666,226.267 213.412,226.083 213.328 C 222.930 211.877,216.546 211.258,212.417 212.003 M282.208 213.014 C 281.380 213.262,280.951 213.815,276.841 219.917 C 265.050 237.423,258.670 246.912,254.263 253.500 C 252.516 256.112,251.039 258.287,250.982 258.333 C 249.962 259.151,249.376 265.477,250.174 267.068 C 250.811 268.341,249.528 268.245,266.512 268.294 L 281.667 268.339 281.667 274.594 C 281.667 282.856,281.350 282.334,286.359 282.332 C 291.126 282.331,290.820 282.858,290.827 274.637 L 290.833 268.357 294.292 268.304 C 299.027 268.230,299.170 268.101,299.163 263.929 C 299.156 259.995,298.956 259.833,294.089 259.833 L 290.833 259.833 290.833 237.091 C 290.833 212.894,290.864 213.787,290.016 213.211 C 289.515 212.870,283.217 212.711,282.208 213.014 M281.667 244.167 L 281.667 260.000 271.000 260.000 C 265.133 260.000,260.333 259.959,260.333 259.908 C 260.333 259.858,260.959 258.902,261.724 257.783 C 262.489 256.665,264.903 253.088,267.089 249.833 C 277.109 234.913,278.654 232.613,280.039 230.542 C 280.852 229.327,281.550 228.333,281.592 228.333 C 281.633 228.333,281.667 235.458,281.667 244.167 " stroke="none" fill="#ffffff" fill-rule="evenodd"></path><path id="path3" d="M172.167 0.103 C 163.711 0.505,157.142 1.217,148.500 2.666 C 147.116 2.898,141.792 3.950,140.917 4.165 C 140.550 4.255,139.575 4.483,138.750 4.671 C 132.323 6.141,124.225 8.566,118.000 10.887 C 110.849 13.553,106.320 15.511,99.833 18.742 C 95.038 21.131,90.031 23.872,87.333 25.586 C 87.013 25.789,86.075 26.357,85.250 26.846 C 69.756 36.037,53.414 50.463,39.856 66.917 C 35.152 72.625,29.560 80.685,25.172 88.083 C 22.319 92.892,21.453 94.479,19.029 99.333 C 16.694 104.009,16.244 104.965,14.796 108.333 C 14.343 109.388,13.874 110.475,13.753 110.750 C 11.928 114.914,9.018 123.126,7.344 128.833 C 7.062 129.796,6.758 130.810,6.669 131.087 C 6.185 132.586,4.186 140.848,3.687 143.417 C 2.939 147.261,2.831 147.845,2.505 149.833 C 2.317 150.979,2.092 152.329,2.004 152.833 C 1.642 154.903,1.078 159.780,0.673 164.333 C -0.560 178.198,-0.044 193.797,2.104 207.583 C 2.609 210.822,3.766 217.100,4.162 218.750 C 6.417 228.144,7.437 231.731,9.917 239.000 C 11.127 242.548,12.987 247.390,13.926 249.442 C 14.058 249.731,14.167 250.007,14.167 250.055 C 14.167 250.104,14.384 250.617,14.651 251.197 C 14.917 251.776,15.243 252.512,15.376 252.833 C 18.351 260.013,25.034 272.101,30.576 280.325 C 33.152 284.149,38.954 292.033,39.657 292.667 C 39.708 292.712,40.047 293.125,40.411 293.583 C 40.775 294.042,41.112 294.454,41.162 294.500 C 41.211 294.546,41.812 295.258,42.497 296.083 C 43.182 296.908,43.976 297.846,44.261 298.167 C 49.910 304.521,56.026 310.646,61.333 315.264 C 61.746 315.623,62.121 315.958,62.167 316.008 C 62.234 316.082,65.590 318.888,66.917 319.980 C 67.100 320.131,67.925 320.776,68.750 321.414 C 69.575 322.052,70.287 322.614,70.333 322.662 C 70.643 322.991,76.072 326.935,78.474 328.577 C 82.088 331.046,91.703 337.000,92.077 337.000 C 92.130 337.000,92.453 337.175,92.795 337.389 C 94.449 338.424,105.853 344.167,106.254 344.167 C 106.285 344.167,106.822 344.396,107.447 344.677 C 108.072 344.958,108.733 345.255,108.917 345.336 C 113.263 347.274,122.768 350.734,127.667 352.161 C 128.354 352.361,129.104 352.591,129.333 352.671 C 132.364 353.737,142.964 356.206,148.583 357.154 C 155.924 358.393,160.250 358.915,168.333 359.535 C 171.768 359.799,188.053 359.799,191.583 359.535 C 200.326 358.882,208.818 357.776,215.083 356.474 C 216.000 356.284,217.237 356.029,217.833 355.909 C 226.068 354.245,237.208 350.877,245.917 347.419 C 263.712 340.353,278.888 331.423,294.248 318.978 C 294.990 318.377,298.292 315.557,298.917 314.992 C 299.283 314.660,300.446 313.610,301.500 312.660 C 304.746 309.731,311.312 303.085,314.171 299.833 C 314.856 299.054,315.458 298.379,315.509 298.333 C 316.619 297.331,324.233 287.711,326.524 284.417 C 326.843 283.958,327.546 282.946,328.088 282.167 C 330.995 277.983,336.500 269.215,336.500 268.769 C 336.500 268.709,336.688 268.362,336.918 267.997 C 337.148 267.633,337.570 266.903,337.854 266.376 C 338.139 265.848,338.580 265.042,338.833 264.583 C 339.408 263.544,342.328 257.708,342.836 256.583 C 343.043 256.125,343.540 255.049,343.939 254.193 C 344.339 253.337,344.667 252.611,344.667 252.580 C 344.667 252.549,344.921 251.974,345.232 251.301 C 347.343 246.731,351.466 235.263,352.920 229.917 C 353.069 229.367,353.417 228.092,353.692 227.083 C 354.387 224.533,354.844 222.687,355.734 218.833 C 356.368 216.086,357.448 210.300,357.927 207.083 C 360.468 190.010,360.559 170.302,358.171 154.417 C 356.939 146.221,355.452 139.034,353.653 132.583 C 353.372 131.575,353.031 130.337,352.895 129.833 C 347.915 111.365,337.023 89.422,324.518 72.668 C 323.808 71.717,320.790 67.788,320.489 67.422 C 318.005 64.410,315.751 61.715,315.603 61.583 C 315.501 61.492,315.123 61.079,314.765 60.667 C 311.103 56.453,304.104 49.421,299.756 45.583 C 299.029 44.942,298.304 44.291,298.146 44.137 C 297.919 43.917,294.248 40.854,292.417 39.356 C 281.077 30.084,264.967 20.423,250.917 14.471 C 249.633 13.927,248.433 13.414,248.250 13.331 C 245.665 12.161,236.238 8.810,232.333 7.673 C 231.646 7.472,230.896 7.243,230.667 7.162 C 230.438 7.081,228.862 6.643,227.167 6.187 C 215.455 3.040,205.352 1.347,192.167 0.323 C 190.086 0.161,174.532 -0.010,172.167 0.103 M189.250 11.912 C 191.542 12.047,193.821 12.199,194.316 12.249 C 194.810 12.300,195.972 12.416,196.899 12.507 C 200.209 12.831,205.836 13.573,208.167 13.993 C 210.965 14.498,215.485 15.374,215.917 15.496 C 216.192 15.573,217.167 15.803,218.083 16.007 C 223.544 17.221,235.758 20.836,237.206 21.667 C 237.365 21.759,237.575 21.833,237.671 21.833 C 237.839 21.833,241.485 23.268,245.417 24.880 C 248.841 26.285,256.197 29.806,259.542 31.641 C 260.069 31.930,260.931 32.400,261.458 32.685 C 265.885 35.081,274.164 40.356,278.583 43.595 C 280.514 45.011,285.219 48.599,285.912 49.185 C 286.098 49.343,286.850 49.974,287.583 50.589 C 288.317 51.203,289.144 51.903,289.421 52.145 C 289.698 52.386,290.446 53.033,291.083 53.583 C 291.719 54.133,292.692 54.995,293.245 55.499 C 295.085 57.174,303.066 65.161,304.287 66.549 C 304.949 67.301,305.664 68.104,305.875 68.333 C 307.390 69.973,311.075 74.440,313.917 78.083 C 317.768 83.020,324.608 93.527,327.315 98.667 C 327.387 98.804,327.656 99.292,327.912 99.750 C 343.270 127.240,350.421 161.702,347.591 194.583 C 346.088 212.039,342.073 228.292,335.094 245.167 C 334.847 245.762,334.490 246.588,334.301 247.000 C 334.111 247.412,333.811 248.088,333.634 248.500 C 332.647 250.804,329.081 258.032,328.003 259.917 C 327.793 260.283,327.358 261.071,327.037 261.667 C 326.287 263.055,322.098 270.005,320.956 271.754 C 319.384 274.163,314.619 280.942,314.340 281.167 C 314.283 281.212,313.496 282.225,312.590 283.417 C 311.684 284.608,310.899 285.621,310.845 285.667 C 310.791 285.712,310.001 286.650,309.090 287.750 C 308.178 288.850,307.196 290.012,306.906 290.333 C 306.616 290.654,305.642 291.742,304.741 292.750 C 289.821 309.448,269.658 324.136,248.917 333.416 C 248.642 333.539,247.892 333.878,247.250 334.169 C 242.851 336.164,233.140 339.722,228.167 341.160 C 227.479 341.359,226.564 341.629,226.133 341.761 C 225.226 342.039,218.138 343.833,216.417 344.220 C 213.283 344.924,208.514 345.800,205.000 346.315 C 201.194 346.874,200.315 346.988,198.417 347.167 C 197.408 347.263,195.833 347.416,194.917 347.507 C 182.116 348.783,164.539 348.101,151.833 345.835 C 151.329 345.746,150.054 345.519,149.000 345.331 C 147.946 345.144,146.783 344.922,146.417 344.838 C 146.050 344.754,145.000 344.524,144.083 344.326 C 136.463 342.679,129.013 340.484,120.750 337.452 C 113.503 334.793,103.484 330.060,96.375 325.937 C 94.054 324.592,93.338 324.165,91.583 323.083 C 87.345 320.471,79.914 315.330,77.151 313.099 C 76.913 312.907,76.429 312.525,76.075 312.250 C 69.800 307.380,62.165 300.331,56.482 294.160 C 53.934 291.394,53.609 291.022,49.770 286.500 C 49.576 286.271,49.006 285.558,48.504 284.917 C 48.002 284.275,47.550 283.712,47.500 283.667 C 47.004 283.215,41.872 276.080,39.947 273.167 C 39.130 271.929,38.330 270.727,38.170 270.496 C 37.747 269.885,35.734 266.566,34.382 264.250 C 32.314 260.710,31.677 259.527,29.576 255.333 C 26.661 249.513,24.682 245.059,22.983 240.500 C 22.625 239.537,22.259 238.600,22.171 238.417 C 21.581 237.187,18.557 227.858,17.742 224.750 C 14.976 214.211,13.305 205.248,12.585 197.083 C 12.529 196.442,12.411 195.242,12.324 194.417 C 11.530 186.898,11.532 172.944,12.328 165.333 C 12.419 164.462,12.570 163.000,12.662 162.083 C 12.985 158.891,13.654 153.821,13.991 152.000 C 14.085 151.496,14.317 150.221,14.508 149.167 C 15.234 145.142,16.095 141.395,17.743 135.083 C 18.036 133.959,19.121 130.301,19.497 129.167 C 19.665 128.662,19.877 127.987,19.969 127.667 C 20.201 126.859,21.926 121.968,22.409 120.750 C 22.626 120.200,23.217 118.700,23.722 117.417 C 28.455 105.371,38.201 87.847,44.297 80.417 C 44.372 80.325,45.104 79.350,45.924 78.250 C 46.744 77.150,47.453 76.212,47.500 76.167 C 47.547 76.121,48.033 75.521,48.580 74.833 C 49.713 73.411,52.778 69.745,53.661 68.757 C 55.996 66.143,58.477 63.511,60.912 61.067 C 63.341 58.627,64.865 57.189,68.917 53.511 C 70.270 52.282,75.596 47.898,76.917 46.925 C 77.283 46.655,77.621 46.390,77.667 46.337 C 77.712 46.283,78.162 45.942,78.667 45.578 C 79.171 45.215,79.696 44.824,79.833 44.711 C 80.841 43.878,85.941 40.332,88.500 38.684 C 89.188 38.242,90.388 37.470,91.167 36.968 C 94.426 34.871,99.899 31.831,105.000 29.284 C 108.139 27.717,109.267 27.182,111.833 26.042 C 112.337 25.819,113.054 25.497,113.426 25.328 C 117.035 23.688,126.079 20.364,130.417 19.084 C 131.242 18.840,132.104 18.575,132.333 18.495 C 134.565 17.713,144.188 15.374,148.083 14.667 C 148.633 14.567,149.871 14.341,150.833 14.165 C 162.180 12.087,177.230 11.205,189.250 11.912 M165.750 51.839 C 155.082 52.418,144.190 54.499,134.333 57.839 C 133.097 58.258,128.225 60.048,127.750 60.258 C 127.475 60.380,126.783 60.672,126.212 60.907 C 124.184 61.742,121.682 62.907,118.588 64.454 C 113.611 66.943,107.428 70.668,103.727 73.407 C 103.348 73.687,102.871 74.029,102.666 74.167 C 96.598 78.236,86.883 87.327,81.067 94.377 C 80.369 95.224,79.649 96.093,79.468 96.309 C 79.072 96.781,76.005 100.823,75.705 101.269 C 75.589 101.442,75.225 101.958,74.898 102.417 C 70.080 109.153,64.343 119.911,61.745 127.083 C 61.578 127.542,61.389 127.992,61.324 128.083 C 60.985 128.558,58.437 136.528,57.515 140.000 C 55.732 146.711,54.751 152.488,53.965 160.917 C 53.696 163.795,53.696 176.705,53.965 179.583 C 54.322 183.414,54.499 185.059,54.672 186.167 C 54.765 186.762,54.992 188.225,55.176 189.417 C 55.782 193.329,57.274 200.010,58.236 203.118 C 58.372 203.557,58.796 204.929,59.178 206.167 C 61.190 212.678,65.453 222.614,68.324 227.484 C 68.604 227.959,68.833 228.375,68.833 228.408 C 68.833 228.789,73.158 235.563,75.914 239.500 C 78.951 243.837,83.480 249.145,88.082 253.759 C 91.238 256.923,92.151 257.780,95.267 260.506 C 108.807 272.345,129.259 282.548,146.333 285.982 C 146.746 286.065,147.833 286.285,148.750 286.472 C 160.488 288.863,174.215 289.570,176.831 287.918 C 180.494 285.606,179.692 279.616,175.565 278.458 C 174.821 278.249,173.565 278.161,170.376 278.094 C 166.454 278.012,162.678 277.737,159.917 277.333 C 151.172 276.053,143.678 274.282,135.583 271.583 C 132.976 270.714,127.746 268.821,127.083 268.508 C 126.900 268.421,126.075 268.077,125.250 267.743 C 116.534 264.220,104.500 255.708,95.582 246.761 C 92.737 243.906,92.031 243.157,90.333 241.185 C 89.829 240.600,89.340 240.037,89.247 239.935 C 89.153 239.833,88.778 239.375,88.413 238.917 C 88.048 238.458,87.706 238.046,87.653 238.000 C 86.942 237.387,82.628 231.315,80.254 227.583 C 78.086 224.177,74.678 217.748,73.098 214.083 C 72.940 213.717,72.744 213.267,72.662 213.083 C 71.200 209.802,69.756 205.783,68.081 200.333 C 64.360 188.230,62.844 170.392,64.498 158.167 C 64.591 157.479,64.747 156.279,64.845 155.500 C 65.045 153.901,65.751 149.637,66.003 148.500 C 68.871 135.562,72.907 125.190,79.135 114.750 C 81.696 110.458,85.957 104.387,88.434 101.500 C 88.631 101.271,89.306 100.483,89.934 99.750 C 100.045 87.949,114.063 77.394,127.333 71.591 C 127.929 71.330,128.829 70.935,129.333 70.713 C 131.067 69.948,131.254 69.870,132.750 69.287 C 135.312 68.290,139.263 66.943,141.750 66.221 C 144.196 65.511,147.737 64.629,150.583 64.021 C 152.993 63.506,157.886 62.775,160.750 62.502 C 161.758 62.406,162.771 62.292,163.000 62.249 C 165.473 61.781,177.872 61.883,182.990 62.413 C 189.916 63.130,197.115 64.542,203.083 66.357 C 206.197 67.303,211.261 69.063,212.583 69.658 C 212.767 69.740,213.854 70.200,215.000 70.680 C 224.232 74.546,237.532 82.946,243.599 88.742 C 243.700 88.838,244.444 89.517,245.254 90.250 C 248.615 93.294,253.718 98.707,256.411 102.087 C 256.775 102.543,257.120 102.954,257.178 103.000 C 257.389 103.166,261.130 108.288,262.108 109.750 C 265.507 114.830,268.802 120.772,271.166 126.083 C 271.947 127.838,272.267 128.598,272.939 130.292 C 273.793 132.447,275.074 135.994,275.422 137.167 C 276.981 142.426,277.714 145.291,278.473 149.083 C 279.018 151.804,279.500 154.666,279.500 155.178 C 279.500 155.492,279.297 155.500,271.375 155.501 C 261.618 155.501,261.667 155.489,261.667 158.045 C 261.667 159.956,262.190 160.835,268.787 170.000 C 269.282 170.688,270.427 172.300,271.331 173.583 C 281.322 187.766,281.565 188.090,282.579 188.621 C 283.299 188.998,284.617 188.964,285.417 188.549 C 286.267 188.107,287.322 186.749,292.000 180.075 C 292.871 178.833,294.033 177.186,294.583 176.416 C 295.133 175.646,296.367 173.906,297.325 172.550 C 298.283 171.193,299.891 168.921,300.898 167.500 C 301.905 166.079,303.124 164.354,303.607 163.667 C 304.090 162.979,304.547 162.342,304.622 162.250 C 306.528 159.939,306.824 156.784,305.225 155.841 C 304.667 155.511,304.403 155.500,297.264 155.500 L 289.880 155.500 289.776 154.708 C 289.050 149.144,288.019 144.157,286.253 137.667 C 285.337 134.300,283.157 128.014,282.004 125.417 C 281.922 125.233,281.543 124.333,281.161 123.417 C 280.060 120.779,277.680 115.839,276.502 113.750 C 273.543 108.498,273.615 108.619,271.668 105.667 C 269.439 102.287,266.424 98.027,266.006 97.667 C 265.952 97.621,265.500 97.058,265.001 96.417 C 262.219 92.840,259.349 89.695,254.722 85.153 C 251.964 82.446,250.881 81.458,248.341 79.333 C 247.848 78.921,247.364 78.507,247.264 78.414 C 246.376 77.580,240.802 73.433,238.496 71.890 C 236.692 70.684,232.708 68.167,232.602 68.167 C 232.570 68.167,231.839 67.744,230.980 67.227 C 227.548 65.163,221.389 62.197,216.167 60.093 C 200.536 53.796,182.889 50.907,165.750 51.839 M171.024 83.845 C 170.320 84.127,169.657 84.689,169.199 85.393 L 168.750 86.083 168.750 97.167 C 168.750 109.380,168.675 108.432,169.739 109.641 C 171.167 111.264,176.784 111.135,178.069 109.451 C 179.030 108.190,179.000 108.586,178.996 97.130 C 178.992 84.788,179.051 85.162,176.919 84.022 C 176.192 83.633,171.877 83.504,171.024 83.845 M201.750 136.883 C 199.248 139.470,198.297 140.511,196.094 143.074 C 194.837 144.536,193.239 146.448,192.542 147.324 C 191.845 148.200,190.884 149.404,190.407 150.000 C 187.943 153.077,181.793 161.742,178.933 166.167 C 178.489 166.854,177.997 167.604,177.840 167.833 C 177.395 168.482,174.663 172.903,173.588 174.713 C 173.056 175.609,172.559 176.380,172.484 176.427 C 172.409 176.473,171.124 175.477,169.629 174.214 C 168.135 172.950,166.575 171.655,166.164 171.336 C 165.753 171.016,165.335 170.679,165.236 170.586 C 161.810 167.377,146.102 156.446,141.667 154.184 C 141.529 154.114,141.060 153.849,140.625 153.596 C 140.190 153.342,139.833 153.188,139.833 153.253 C 139.833 154.013,146.988 164.115,150.691 168.583 C 152.534 170.807,155.675 174.540,156.089 174.998 C 156.379 175.320,157.321 176.371,158.182 177.333 C 161.873 181.463,164.774 184.482,170.150 189.789 C 172.772 192.378,174.955 194.497,175.001 194.498 C 175.047 194.499,175.777 193.356,176.624 191.958 C 177.470 190.560,178.672 188.592,179.296 187.583 C 179.919 186.575,180.942 184.850,181.570 183.750 C 182.198 182.650,183.067 181.150,183.502 180.417 C 185.802 176.537,190.166 168.236,192.613 163.083 C 194.042 160.075,195.167 157.648,195.167 157.572 C 195.167 157.538,195.349 157.113,195.572 156.630 C 196.217 155.231,197.729 151.593,198.571 149.417 C 198.997 148.317,199.426 147.229,199.524 147.000 C 200.234 145.353,202.757 137.688,203.076 136.208 C 203.243 135.434,203.061 135.526,201.750 136.883 M86.288 165.221 C 84.376 165.816,83.833 166.933,83.833 170.270 C 83.833 173.507,84.407 174.590,86.417 175.147 C 87.375 175.412,107.234 175.405,108.292 175.139 C 111.956 174.216,112.040 166.293,108.397 165.205 C 107.444 164.920,87.209 164.935,86.288 165.221 M212.417 212.003 C 203.862 213.546,197.707 219.377,195.354 228.167 C 194.280 232.181,194.785 232.833,198.966 232.833 C 202.588 232.833,202.737 232.736,203.812 229.685 C 206.772 221.283,214.461 217.602,222.264 220.850 C 229.879 224.020,231.284 234.692,225.126 242.583 C 225.055 242.675,224.768 243.050,224.489 243.417 C 223.336 244.933,223.024 245.312,221.750 246.747 C 220.213 248.478,214.539 254.751,211.417 258.171 C 210.867 258.774,210.116 259.601,209.750 260.008 C 207.349 262.677,206.218 263.930,206.000 264.163 C 205.862 264.310,205.075 265.173,204.250 266.081 C 203.425 266.989,202.300 268.225,201.750 268.829 C 197.638 273.341,197.115 273.950,196.773 274.617 C 196.380 275.384,196.370 280.907,196.760 281.464 C 197.399 282.376,196.413 282.334,217.033 282.331 C 237.531 282.328,236.546 282.371,237.234 281.447 C 237.702 280.817,237.850 276.596,237.439 275.610 C 236.872 274.254,237.827 274.335,222.364 274.334 L 208.644 274.333 210.188 272.625 C 211.037 271.685,211.774 270.879,211.826 270.833 C 211.878 270.787,212.889 269.662,214.074 268.333 C 215.259 267.004,216.309 265.842,216.408 265.750 C 216.507 265.658,217.595 264.458,218.827 263.083 C 220.059 261.708,221.342 260.283,221.678 259.917 C 222.014 259.550,223.063 258.387,224.010 257.333 C 224.956 256.279,225.773 255.379,225.824 255.333 C 225.875 255.287,226.554 254.537,227.333 253.667 C 228.112 252.796,229.024 251.783,229.361 251.417 C 229.697 251.050,230.296 250.338,230.693 249.833 C 231.090 249.329,231.544 248.773,231.704 248.597 C 231.863 248.422,232.201 247.972,232.454 247.597 C 232.708 247.223,232.958 246.879,233.009 246.833 C 233.856 246.081,236.139 241.807,237.149 239.083 C 240.805 229.227,236.394 217.890,227.349 213.893 C 226.836 213.666,226.267 213.412,226.083 213.328 C 222.930 211.877,216.546 211.258,212.417 212.003 M282.208 213.014 C 281.380 213.262,280.951 213.815,276.841 219.917 C 265.050 237.423,258.670 246.912,254.263 253.500 C 252.516 256.112,251.039 258.287,250.982 258.333 C 249.962 259.151,249.376 265.477,250.174 267.068 C 250.811 268.341,249.528 268.245,266.512 268.294 L 281.667 268.339 281.667 274.594 C 281.667 282.856,281.350 282.334,286.359 282.332 C 291.126 282.331,290.820 282.858,290.827 274.637 L 290.833 268.357 294.292 268.304 C 299.027 268.230,299.170 268.101,299.163 263.929 C 299.156 259.995,298.956 259.833,294.089 259.833 L 290.833 259.833 290.833 237.091 C 290.833 212.894,290.864 213.787,290.016 213.211 C 289.515 212.870,283.217 212.711,282.208 213.014 M281.667 244.167 L 281.667 260.000 271.000 260.000 C 265.133 260.000,260.333 259.959,260.333 259.908 C 260.333 259.858,260.959 258.902,261.724 257.783 C 262.489 256.665,264.903 253.088,267.089 249.833 C 277.109 234.913,278.654 232.613,280.039 230.542 C 280.852 229.327,281.550 228.333,281.592 228.333 C 281.633 228.333,281.667 235.458,281.667 244.167 " stroke="none" fill="#ffffff" fill-rule="evenodd"></path><path id="path4" d="" stroke="none" fill="#a8a8ac" fill-rule="evenodd"></path></g>
</svg>
