<svg width="400" height="400" version="1.1" viewBox="0 0 400 359.84" xmlns="http://www.w3.org/2000/svg">
<g fill-rule="evenodd">
<path d="m172.17 0.103c-8.456 0.402-15.025 1.114-23.667 2.563-1.384 0.232-6.708 1.284-7.583 1.499-0.367 0.09-1.342 0.318-2.167 0.506-6.427 1.47-14.525 3.895-20.75 6.216-7.151 2.666-11.68 4.624-18.167 7.855-4.795 2.389-9.802 5.13-12.5 6.844-0.32 0.203-1.258 0.771-2.083 1.26-15.494 9.191-31.836 23.617-45.394 40.071-4.704 5.708-10.296 13.768-14.684 21.166-2.853 4.809-3.719 6.396-6.143 11.25-2.335 4.676-2.785 5.632-4.233 9-0.453 1.055-0.922 2.142-1.043 2.417-1.825 4.164-4.735 12.376-6.409 18.083-0.282 0.963-0.586 1.977-0.675 2.254-0.484 1.499-2.483 9.761-2.982 12.33-0.748 3.844-0.856 4.428-1.182 6.416-0.188 1.146-0.413 2.496-0.501 3-0.362 2.07-0.926 6.947-1.331 11.5-1.233 13.865-0.717 29.464 1.431 43.25 0.505 3.239 1.662 9.517 2.058 11.167 2.255 9.394 3.275 12.981 5.755 20.25 1.21 3.548 3.07 8.39 4.009 10.442 0.132 0.289 0.241 0.565 0.241 0.613 0 0.049 0.217 0.562 0.484 1.142 0.266 0.579 0.592 1.315 0.725 1.636 2.975 7.18 9.658 19.268 15.2 27.492 2.576 3.824 8.378 11.708 9.081 12.342 0.051 0.045 0.39 0.458 0.754 0.916 0.364 0.459 0.701 0.871 0.751 0.917 0.049 0.046 0.65 0.758 1.335 1.583s1.479 1.763 1.764 2.084c5.649 6.354 11.765 12.479 17.072 17.097 0.413 0.359 0.788 0.694 0.834 0.744 0.067 0.074 3.423 2.88 4.75 3.972 0.183 0.151 1.008 0.796 1.833 1.434s1.537 1.2 1.583 1.248c0.31 0.329 5.739 4.273 8.141 5.915 3.614 2.469 13.229 8.423 13.603 8.423 0.053 0 0.376 0.175 0.718 0.389 1.654 1.035 13.058 6.778 13.459 6.778 0.031 0 0.568 0.229 1.193 0.51s1.286 0.578 1.47 0.659c4.346 1.938 13.851 5.398 18.75 6.825 0.687 0.2 1.437 0.43 1.666 0.51 3.031 1.066 13.631 3.535 19.25 4.483 7.341 1.239 11.667 1.761 19.75 2.381 3.435 0.264 19.72 0.264 23.25 0 8.743-0.653 17.235-1.759 23.5-3.061 0.917-0.19 2.154-0.445 2.75-0.565 8.235-1.664 19.375-5.032 28.084-8.49 17.795-7.066 32.971-15.996 48.331-28.441 0.742-0.601 4.044-3.421 4.669-3.986 0.366-0.332 1.529-1.382 2.583-2.332 3.246-2.929 9.812-9.575 12.671-12.827 0.685-0.779 1.287-1.454 1.338-1.5 1.11-1.002 8.724-10.622 11.015-13.916 0.319-0.459 1.022-1.471 1.564-2.25 2.907-4.184 8.412-12.952 8.412-13.398 0-0.06 0.188-0.407 0.418-0.772 0.23-0.364 0.652-1.094 0.936-1.621 0.285-0.528 0.726-1.334 0.979-1.793 0.575-1.039 3.495-6.875 4.003-8 0.207-0.458 0.704-1.534 1.103-2.39 0.4-0.856 0.728-1.582 0.728-1.613s0.254-0.606 0.565-1.279c2.111-4.57 6.234-16.038 7.688-21.384 0.149-0.55 0.497-1.825 0.772-2.834 0.695-2.55 1.152-4.396 2.042-8.25 0.634-2.747 1.714-8.533 2.193-11.75 2.541-17.073 2.632-36.781 0.244-52.666-1.232-8.196-2.719-15.383-4.518-21.834-0.281-1.008-0.622-2.246-0.758-2.75-4.98-18.468-15.872-40.411-28.377-57.165-0.71-0.951-3.728-4.88-4.029-5.246-2.484-3.012-4.738-5.707-4.886-5.839-0.102-0.091-0.48-0.504-0.838-0.916-3.662-4.214-10.661-11.246-15.009-15.084-0.727-0.641-1.452-1.292-1.61-1.446-0.227-0.22-3.898-3.283-5.729-4.781-11.34-9.272-27.45-18.933-41.5-24.885-1.284-0.544-2.484-1.057-2.667-1.14-2.585-1.17-12.012-4.521-15.917-5.658-0.687-0.201-1.437-0.43-1.666-0.511s-1.805-0.519-3.5-0.975c-11.712-3.147-21.815-4.84-35-5.864-2.081-0.162-17.635-0.333-20-0.22m17.083 11.809c2.292 0.135 4.571 0.287 5.066 0.337 0.494 0.051 1.656 0.167 2.583 0.258 3.31 0.324 8.937 1.066 11.268 1.486 2.798 0.505 7.318 1.381 7.75 1.503 0.275 0.077 1.25 0.307 2.166 0.511 5.461 1.214 17.675 4.829 19.123 5.66 0.159 0.092 0.369 0.166 0.465 0.166 0.168 0 3.814 1.435 7.746 3.047 3.424 1.405 10.78 4.926 14.125 6.761 0.527 0.289 1.389 0.759 1.916 1.044 4.427 2.396 12.706 7.671 17.125 10.91 1.931 1.416 6.636 5.004 7.329 5.59 0.186 0.158 0.938 0.789 1.671 1.404 0.734 0.614 1.561 1.314 1.838 1.556 0.277 0.241 1.025 0.888 1.662 1.438 0.636 0.55 1.609 1.412 2.162 1.916 1.84 1.675 9.821 9.662 11.042 11.05 0.662 0.752 1.377 1.555 1.588 1.784 1.515 1.64 5.2 6.107 8.042 9.75 3.851 4.937 10.691 15.444 13.398 20.584 0.072 0.137 0.341 0.625 0.597 1.083 15.358 27.49 22.509 61.952 19.679 94.833-1.503 17.456-5.518 33.709-12.497 50.584-0.247 0.595-0.604 1.421-0.793 1.833-0.19 0.412-0.49 1.088-0.667 1.5-0.987 2.304-4.553 9.532-5.631 11.417-0.21 0.366-0.645 1.154-0.966 1.75-0.75 1.388-4.939 8.338-6.081 10.087-1.572 2.409-6.337 9.188-6.616 9.413-0.057 0.045-0.844 1.058-1.75 2.25-0.906 1.191-1.691 2.204-1.745 2.25-0.054 0.045-0.844 0.983-1.755 2.083-0.912 1.1-1.894 2.262-2.184 2.583s-1.264 1.409-2.165 2.417c-14.92 16.698-35.083 31.386-55.824 40.666-0.275 0.123-1.025 0.462-1.667 0.753-4.399 1.995-14.11 5.553-19.083 6.991-0.688 0.199-1.603 0.469-2.034 0.601-0.907 0.278-7.995 2.072-9.716 2.459-3.134 0.704-7.903 1.58-11.417 2.095-3.806 0.559-4.685 0.673-6.583 0.852-1.009 0.096-2.584 0.249-3.5 0.34-12.801 1.276-30.378 0.594-43.084-1.672-0.504-0.089-1.779-0.316-2.833-0.504-1.054-0.187-2.217-0.409-2.583-0.493-0.367-0.084-1.417-0.314-2.334-0.512-7.62-1.647-15.07-3.842-23.333-6.874-7.247-2.659-17.266-7.392-24.375-11.515-2.321-1.345-3.037-1.772-4.792-2.854-4.238-2.612-11.669-7.753-14.432-9.984-0.238-0.192-0.722-0.574-1.076-0.849-6.275-4.87-13.91-11.919-19.593-18.09-2.548-2.766-2.873-3.138-6.712-7.66-0.194-0.229-0.764-0.942-1.266-1.583-0.502-0.642-0.954-1.205-1.004-1.25-0.496-0.452-5.628-7.587-7.553-10.5-0.817-1.238-1.617-2.44-1.777-2.671-0.423-0.611-2.436-3.93-3.788-6.246-2.068-3.54-2.705-4.723-4.806-8.917-2.915-5.82-4.894-10.274-6.593-14.833-0.358-0.963-0.724-1.9-0.812-2.083-0.59-1.23-3.614-10.559-4.429-13.667-2.766-10.539-4.437-19.502-5.157-27.667-0.056-0.641-0.174-1.841-0.261-2.666-0.794-7.519-0.792-21.473 4e-3 -29.084 0.091-0.871 0.242-2.333 0.334-3.25 0.323-3.192 0.992-8.262 1.329-10.083 0.094-0.504 0.326-1.779 0.517-2.833 0.726-4.025 1.587-7.772 3.235-14.084 0.293-1.124 1.378-4.782 1.754-5.916 0.168-0.505 0.38-1.18 0.472-1.5 0.232-0.808 1.957-5.699 2.44-6.917 0.217-0.55 0.808-2.05 1.313-3.333 4.733-12.046 14.479-29.57 20.575-37 0.075-0.092 0.807-1.067 1.627-2.167s1.529-2.038 1.576-2.083c0.047-0.046 0.533-0.646 1.08-1.334 1.133-1.422 4.198-5.088 5.081-6.076 2.335-2.614 4.816-5.246 7.251-7.69 2.429-2.44 3.953-3.878 8.005-7.556 1.353-1.229 6.679-5.613 8-6.586 0.366-0.27 0.704-0.535 0.75-0.588 0.045-0.054 0.495-0.395 1-0.759 0.504-0.363 1.029-0.754 1.166-0.867 1.008-0.833 6.108-4.379 8.667-6.027 0.688-0.442 1.888-1.214 2.667-1.716 3.259-2.097 8.732-5.137 13.833-7.684 3.139-1.567 4.267-2.102 6.833-3.242 0.504-0.223 1.221-0.545 1.593-0.714 3.609-1.64 12.653-4.964 16.991-6.244 0.825-0.244 1.687-0.509 1.916-0.589 2.232-0.782 11.855-3.121 15.75-3.828 0.55-0.1 1.788-0.326 2.75-0.502 11.347-2.078 26.397-2.96 38.417-2.253m-23.5 39.927c-10.668 0.579-21.56 2.66-31.417 6-1.236 0.419-6.108 2.209-6.583 2.419-0.275 0.122-0.967 0.414-1.538 0.649-2.028 0.835-4.53 2-7.624 3.547-4.977 2.489-11.16 6.214-14.861 8.953-0.379 0.28-0.856 0.622-1.061 0.76-6.068 4.069-15.783 13.16-21.599 20.21-0.698 0.847-1.418 1.716-1.599 1.932-0.396 0.472-3.463 4.514-3.763 4.96-0.116 0.173-0.48 0.689-0.807 1.148-4.818 6.736-10.555 17.494-13.153 24.666-0.167 0.459-0.356 0.909-0.421 1-0.339 0.475-2.887 8.445-3.809 11.917-1.783 6.711-2.764 12.488-3.55 20.917-0.269 2.878-0.269 15.788 0 18.666 0.357 3.831 0.534 5.476 0.707 6.584 0.093 0.595 0.32 2.058 0.504 3.25 0.606 3.912 2.098 10.593 3.06 13.701 0.136 0.439 0.56 1.811 0.942 3.049 2.012 6.511 6.275 16.447 9.146 21.317 0.28 0.475 0.509 0.891 0.509 0.924 0 0.381 4.325 7.155 7.081 11.092 3.037 4.337 7.566 9.645 12.168 14.259 3.156 3.164 4.069 4.021 7.185 6.747 13.54 11.839 33.992 22.042 51.066 25.476 0.413 0.083 1.5 0.303 2.417 0.49 11.738 2.391 25.465 3.098 28.081 1.446 3.663-2.312 2.861-8.302-1.266-9.46-0.744-0.209-2-0.297-5.189-0.364-3.922-0.082-7.698-0.357-10.459-0.761-8.745-1.28-16.239-3.051-24.334-5.75-2.607-0.869-7.837-2.762-8.5-3.075-0.183-0.087-1.008-0.431-1.833-0.765-8.716-3.523-20.75-12.035-29.668-20.982-2.845-2.855-3.551-3.604-5.249-5.576-0.504-0.585-0.993-1.148-1.086-1.25-0.094-0.102-0.469-0.56-0.834-1.018-0.365-0.459-0.707-0.871-0.76-0.917-0.711-0.613-5.025-6.685-7.399-10.417-2.168-3.406-5.576-9.835-7.156-13.5-0.158-0.366-0.354-0.816-0.436-1-1.462-3.281-2.906-7.3-4.581-12.75-3.721-12.103-5.237-29.941-3.583-42.166 0.093-0.688 0.249-1.888 0.347-2.667 0.2-1.599 0.906-5.863 1.158-7 2.868-12.938 6.904-23.31 13.132-33.75 2.561-4.292 6.822-10.363 9.299-13.25 0.197-0.229 0.872-1.017 1.5-1.75 10.111-11.801 24.129-22.356 37.399-28.159 0.596-0.261 1.496-0.656 2-0.878 1.734-0.765 1.921-0.843 3.417-1.426 2.562-0.997 6.513-2.344 9-3.066 2.446-0.71 5.987-1.592 8.833-2.2 2.41-0.515 7.303-1.246 10.167-1.519 1.008-0.096 2.021-0.21 2.25-0.253 2.473-0.468 14.872-0.366 19.99 0.164 6.926 0.717 14.125 2.129 20.093 3.944 3.114 0.946 8.178 2.706 9.5 3.301 0.184 0.082 1.271 0.542 2.417 1.022 9.232 3.866 22.532 12.266 28.599 18.062 0.101 0.096 0.845 0.775 1.655 1.508 3.361 3.044 8.464 8.457 11.157 11.837 0.364 0.456 0.709 0.867 0.767 0.913 0.211 0.166 3.952 5.288 4.93 6.75 3.399 5.08 6.694 11.022 9.058 16.333 0.781 1.755 1.101 2.515 1.773 4.209 0.854 2.155 2.135 5.702 2.483 6.875 1.559 5.259 2.292 8.124 3.051 11.916 0.545 2.721 1.027 5.583 1.027 6.095 0 0.314-0.203 0.322-8.125 0.323-9.757 0-9.708-0.012-9.708 2.544 0 1.911 0.523 2.79 7.12 11.955 0.495 0.688 1.64 2.3 2.544 3.583 9.991 14.183 10.234 14.507 11.248 15.038 0.72 0.377 2.038 0.343 2.838-0.072 0.85-0.442 1.905-1.8 6.583-8.474 0.871-1.242 2.033-2.889 2.583-3.659s1.784-2.51 2.742-3.866c0.958-1.357 2.566-3.629 3.573-5.05s2.226-3.146 2.709-3.833c0.483-0.688 0.94-1.325 1.015-1.417 1.906-2.311 2.202-5.466 0.603-6.409-0.558-0.33-0.822-0.341-7.961-0.341h-7.384l-0.104-0.792c-0.726-5.564-1.757-10.551-3.523-17.041-0.916-3.367-3.096-9.653-4.249-12.25-0.082-0.184-0.461-1.084-0.843-2-1.101-2.638-3.481-7.578-4.659-9.667-2.959-5.252-2.887-5.131-4.834-8.083-2.229-3.38-5.244-7.64-5.662-8-0.054-0.046-0.506-0.609-1.005-1.25-2.782-3.577-5.652-6.722-10.279-11.264-2.758-2.707-3.841-3.695-6.381-5.82-0.493-0.412-0.977-0.826-1.077-0.919-0.888-0.834-6.462-4.981-8.768-6.524-1.804-1.206-5.788-3.723-5.894-3.723-0.032 0-0.763-0.423-1.622-0.94-3.432-2.064-9.591-5.03-14.813-7.134-15.631-6.297-33.278-9.186-50.417-8.254m5.274 32.006c-0.704 0.282-1.367 0.844-1.825 1.548l-0.449 0.69v11.084c0 12.213-0.075 11.265 0.989 12.474 1.428 1.623 7.045 1.494 8.33-0.19 0.961-1.261 0.931-0.865 0.927-12.321-4e-3 -12.342 0.055-11.968-2.077-13.108-0.727-0.389-5.042-0.518-5.895-0.177m30.726 53.038c-2.502 2.587-3.453 3.628-5.656 6.191-1.257 1.462-2.855 3.374-3.552 4.25s-1.658 2.08-2.135 2.676c-2.464 3.077-8.614 11.742-11.474 16.167-0.444 0.687-0.936 1.437-1.093 1.666-0.445 0.649-3.177 5.07-4.252 6.88-0.532 0.896-1.029 1.667-1.104 1.714-0.075 0.046-1.36-0.95-2.855-2.213-1.494-1.264-3.054-2.559-3.465-2.878-0.411-0.32-0.829-0.657-0.928-0.75-3.426-3.209-19.134-14.14-23.569-16.402-0.138-0.07-0.607-0.335-1.042-0.588-0.435-0.254-0.792-0.408-0.792-0.343 0 0.76 7.155 10.862 10.858 15.33 1.843 2.224 4.984 5.957 5.398 6.415 0.29 0.322 1.232 1.373 2.093 2.335 3.691 4.13 6.592 7.149 11.968 12.456 2.622 2.589 4.805 4.708 4.851 4.709s0.776-1.142 1.623-2.54c0.846-1.398 2.048-3.366 2.672-4.375 0.623-1.008 1.646-2.733 2.274-3.833s1.497-2.6 1.932-3.333c2.3-3.88 6.664-12.181 9.111-17.334 1.429-3.008 2.554-5.435 2.554-5.511 0-0.034 0.182-0.459 0.405-0.942 0.645-1.399 2.157-5.037 2.999-7.213 0.426-1.1 0.855-2.188 0.953-2.417 0.71-1.647 3.233-9.312 3.552-10.792 0.167-0.774-0.015-0.682-1.326 0.675m-115.46 28.338c-1.912 0.595-2.455 1.712-2.455 5.049 0 3.237 0.574 4.32 2.584 4.877 0.958 0.265 20.817 0.258 21.875-8e-3 3.664-0.923 3.748-8.846 0.105-9.934-0.953-0.285-21.188-0.27-22.109 0.016m126.13 46.782c-8.555 1.543-14.71 7.374-17.063 16.164-1.074 4.014-0.569 4.666 3.612 4.666 3.622 0 3.771-0.097 4.846-3.148 2.96-8.402 10.649-12.083 18.452-8.835 7.615 3.17 9.02 13.842 2.862 21.733-0.071 0.092-0.358 0.467-0.637 0.834-1.153 1.516-1.465 1.895-2.739 3.33-1.537 1.731-7.211 8.004-10.333 11.424-0.55 0.603-1.301 1.43-1.667 1.837-2.401 2.669-3.532 3.922-3.75 4.155-0.138 0.147-0.925 1.01-1.75 1.918s-1.95 2.144-2.5 2.748c-4.112 4.512-4.635 5.121-4.977 5.788-0.393 0.767-0.403 6.29-0.013 6.847 0.639 0.912-0.347 0.87 20.273 0.867 20.498-3e-3 19.513 0.04 20.201-0.884 0.468-0.63 0.616-4.851 0.205-5.837-0.567-1.356 0.388-1.275-15.075-1.276l-13.72-1e-3 1.544-1.708c0.849-0.94 1.586-1.746 1.638-1.792s1.063-1.171 2.248-2.5 2.235-2.491 2.334-2.583 1.187-1.292 2.419-2.667 2.515-2.8 2.851-3.166c0.336-0.367 1.385-1.53 2.332-2.584 0.946-1.054 1.763-1.954 1.814-2s0.73-0.796 1.509-1.666c0.779-0.871 1.691-1.884 2.028-2.25 0.336-0.367 0.935-1.079 1.332-1.584 0.397-0.504 0.851-1.06 1.011-1.236 0.159-0.175 0.497-0.625 0.75-1 0.254-0.374 0.504-0.718 0.555-0.764 0.847-0.752 3.13-5.026 4.14-7.75 3.656-9.856-0.755-21.193-9.8-25.19-0.513-0.227-1.082-0.481-1.266-0.565-3.153-1.451-9.537-2.07-13.666-1.325m69.791 1.011c-0.828 0.248-1.257 0.801-5.367 6.903-11.791 17.506-18.171 26.995-22.578 33.583-1.747 2.612-3.224 4.787-3.281 4.833-1.02 0.818-1.606 7.144-0.808 8.735 0.637 1.273-0.646 1.177 16.338 1.226l15.155 0.045v6.255c0 8.262-0.317 7.74 4.692 7.738 4.767-1e-3 4.461 0.526 4.468-7.695l6e-3 -6.28 3.459-0.053c4.735-0.074 4.878-0.203 4.871-4.375-7e-3 -3.934-0.207-4.096-5.074-4.096h-3.256v-22.742c0-24.197 0.031-23.304-0.817-23.88-0.501-0.341-6.799-0.5-7.808-0.197m-0.541 31.153v15.833h-10.667c-5.867 0-10.667-0.041-10.667-0.092 0-0.05 0.626-1.006 1.391-2.125 0.765-1.118 3.179-4.695 5.365-7.95 10.02-14.92 11.565-17.22 12.95-19.291 0.813-1.215 1.511-2.209 1.553-2.209 0.041 0 0.075 7.125 0.075 15.834" fill="#fff"/>
<path d="m172.17 0.103c-8.456 0.402-15.025 1.114-23.667 2.563-1.384 0.232-6.708 1.284-7.583 1.499-0.367 0.09-1.342 0.318-2.167 0.506-6.427 1.47-14.525 3.895-20.75 6.216-7.151 2.666-11.68 4.624-18.167 7.855-4.795 2.389-9.802 5.13-12.5 6.844-0.32 0.203-1.258 0.771-2.083 1.26-15.494 9.191-31.836 23.617-45.394 40.071-4.704 5.708-10.296 13.768-14.684 21.166-2.853 4.809-3.719 6.396-6.143 11.25-2.335 4.676-2.785 5.632-4.233 9-0.453 1.055-0.922 2.142-1.043 2.417-1.825 4.164-4.735 12.376-6.409 18.083-0.282 0.963-0.586 1.977-0.675 2.254-0.484 1.499-2.483 9.761-2.982 12.33-0.748 3.844-0.856 4.428-1.182 6.416-0.188 1.146-0.413 2.496-0.501 3-0.362 2.07-0.926 6.947-1.331 11.5-1.233 13.865-0.717 29.464 1.431 43.25 0.505 3.239 1.662 9.517 2.058 11.167 2.255 9.394 3.275 12.981 5.755 20.25 1.21 3.548 3.07 8.39 4.009 10.442 0.132 0.289 0.241 0.565 0.241 0.613 0 0.049 0.217 0.562 0.484 1.142 0.266 0.579 0.592 1.315 0.725 1.636 2.975 7.18 9.658 19.268 15.2 27.492 2.576 3.824 8.378 11.708 9.081 12.342 0.051 0.045 0.39 0.458 0.754 0.916 0.364 0.459 0.701 0.871 0.751 0.917 0.049 0.046 0.65 0.758 1.335 1.583s1.479 1.763 1.764 2.084c5.649 6.354 11.765 12.479 17.072 17.097 0.413 0.359 0.788 0.694 0.834 0.744 0.067 0.074 3.423 2.88 4.75 3.972 0.183 0.151 1.008 0.796 1.833 1.434s1.537 1.2 1.583 1.248c0.31 0.329 5.739 4.273 8.141 5.915 3.614 2.469 13.229 8.423 13.603 8.423 0.053 0 0.376 0.175 0.718 0.389 1.654 1.035 13.058 6.778 13.459 6.778 0.031 0 0.568 0.229 1.193 0.51s1.286 0.578 1.47 0.659c4.346 1.938 13.851 5.398 18.75 6.825 0.687 0.2 1.437 0.43 1.666 0.51 3.031 1.066 13.631 3.535 19.25 4.483 7.341 1.239 11.667 1.761 19.75 2.381 3.435 0.264 19.72 0.264 23.25 0 8.743-0.653 17.235-1.759 23.5-3.061 0.917-0.19 2.154-0.445 2.75-0.565 8.235-1.664 19.375-5.032 28.084-8.49 17.795-7.066 32.971-15.996 48.331-28.441 0.742-0.601 4.044-3.421 4.669-3.986 0.366-0.332 1.529-1.382 2.583-2.332 3.246-2.929 9.812-9.575 12.671-12.827 0.685-0.779 1.287-1.454 1.338-1.5 1.11-1.002 8.724-10.622 11.015-13.916 0.319-0.459 1.022-1.471 1.564-2.25 2.907-4.184 8.412-12.952 8.412-13.398 0-0.06 0.188-0.407 0.418-0.772 0.23-0.364 0.652-1.094 0.936-1.621 0.285-0.528 0.726-1.334 0.979-1.793 0.575-1.039 3.495-6.875 4.003-8 0.207-0.458 0.704-1.534 1.103-2.39 0.4-0.856 0.728-1.582 0.728-1.613s0.254-0.606 0.565-1.279c2.111-4.57 6.234-16.038 7.688-21.384 0.149-0.55 0.497-1.825 0.772-2.834 0.695-2.55 1.152-4.396 2.042-8.25 0.634-2.747 1.714-8.533 2.193-11.75 2.541-17.073 2.632-36.781 0.244-52.666-1.232-8.196-2.719-15.383-4.518-21.834-0.281-1.008-0.622-2.246-0.758-2.75-4.98-18.468-15.872-40.411-28.377-57.165-0.71-0.951-3.728-4.88-4.029-5.246-2.484-3.012-4.738-5.707-4.886-5.839-0.102-0.091-0.48-0.504-0.838-0.916-3.662-4.214-10.661-11.246-15.009-15.084-0.727-0.641-1.452-1.292-1.61-1.446-0.227-0.22-3.898-3.283-5.729-4.781-11.34-9.272-27.45-18.933-41.5-24.885-1.284-0.544-2.484-1.057-2.667-1.14-2.585-1.17-12.012-4.521-15.917-5.658-0.687-0.201-1.437-0.43-1.666-0.511s-1.805-0.519-3.5-0.975c-11.712-3.147-21.815-4.84-35-5.864-2.081-0.162-17.635-0.333-20-0.22m17.083 11.809c2.292 0.135 4.571 0.287 5.066 0.337 0.494 0.051 1.656 0.167 2.583 0.258 3.31 0.324 8.937 1.066 11.268 1.486 2.798 0.505 7.318 1.381 7.75 1.503 0.275 0.077 1.25 0.307 2.166 0.511 5.461 1.214 17.675 4.829 19.123 5.66 0.159 0.092 0.369 0.166 0.465 0.166 0.168 0 3.814 1.435 7.746 3.047 3.424 1.405 10.78 4.926 14.125 6.761 0.527 0.289 1.389 0.759 1.916 1.044 4.427 2.396 12.706 7.671 17.125 10.91 1.931 1.416 6.636 5.004 7.329 5.59 0.186 0.158 0.938 0.789 1.671 1.404 0.734 0.614 1.561 1.314 1.838 1.556 0.277 0.241 1.025 0.888 1.662 1.438 0.636 0.55 1.609 1.412 2.162 1.916 1.84 1.675 9.821 9.662 11.042 11.05 0.662 0.752 1.377 1.555 1.588 1.784 1.515 1.64 5.2 6.107 8.042 9.75 3.851 4.937 10.691 15.444 13.398 20.584 0.072 0.137 0.341 0.625 0.597 1.083 15.358 27.49 22.509 61.952 19.679 94.833-1.503 17.456-5.518 33.709-12.497 50.584-0.247 0.595-0.604 1.421-0.793 1.833-0.19 0.412-0.49 1.088-0.667 1.5-0.987 2.304-4.553 9.532-5.631 11.417-0.21 0.366-0.645 1.154-0.966 1.75-0.75 1.388-4.939 8.338-6.081 10.087-1.572 2.409-6.337 9.188-6.616 9.413-0.057 0.045-0.844 1.058-1.75 2.25-0.906 1.191-1.691 2.204-1.745 2.25-0.054 0.045-0.844 0.983-1.755 2.083-0.912 1.1-1.894 2.262-2.184 2.583s-1.264 1.409-2.165 2.417c-14.92 16.698-35.083 31.386-55.824 40.666-0.275 0.123-1.025 0.462-1.667 0.753-4.399 1.995-14.11 5.553-19.083 6.991-0.688 0.199-1.603 0.469-2.034 0.601-0.907 0.278-7.995 2.072-9.716 2.459-3.134 0.704-7.903 1.58-11.417 2.095-3.806 0.559-4.685 0.673-6.583 0.852-1.009 0.096-2.584 0.249-3.5 0.34-12.801 1.276-30.378 0.594-43.084-1.672-0.504-0.089-1.779-0.316-2.833-0.504-1.054-0.187-2.217-0.409-2.583-0.493-0.367-0.084-1.417-0.314-2.334-0.512-7.62-1.647-15.07-3.842-23.333-6.874-7.247-2.659-17.266-7.392-24.375-11.515-2.321-1.345-3.037-1.772-4.792-2.854-4.238-2.612-11.669-7.753-14.432-9.984-0.238-0.192-0.722-0.574-1.076-0.849-6.275-4.87-13.91-11.919-19.593-18.09-2.548-2.766-2.873-3.138-6.712-7.66-0.194-0.229-0.764-0.942-1.266-1.583-0.502-0.642-0.954-1.205-1.004-1.25-0.496-0.452-5.628-7.587-7.553-10.5-0.817-1.238-1.617-2.44-1.777-2.671-0.423-0.611-2.436-3.93-3.788-6.246-2.068-3.54-2.705-4.723-4.806-8.917-2.915-5.82-4.894-10.274-6.593-14.833-0.358-0.963-0.724-1.9-0.812-2.083-0.59-1.23-3.614-10.559-4.429-13.667-2.766-10.539-4.437-19.502-5.157-27.667-0.056-0.641-0.174-1.841-0.261-2.666-0.794-7.519-0.792-21.473 4e-3 -29.084 0.091-0.871 0.242-2.333 0.334-3.25 0.323-3.192 0.992-8.262 1.329-10.083 0.094-0.504 0.326-1.779 0.517-2.833 0.726-4.025 1.587-7.772 3.235-14.084 0.293-1.124 1.378-4.782 1.754-5.916 0.168-0.505 0.38-1.18 0.472-1.5 0.232-0.808 1.957-5.699 2.44-6.917 0.217-0.55 0.808-2.05 1.313-3.333 4.733-12.046 14.479-29.57 20.575-37 0.075-0.092 0.807-1.067 1.627-2.167s1.529-2.038 1.576-2.083c0.047-0.046 0.533-0.646 1.08-1.334 1.133-1.422 4.198-5.088 5.081-6.076 2.335-2.614 4.816-5.246 7.251-7.69 2.429-2.44 3.953-3.878 8.005-7.556 1.353-1.229 6.679-5.613 8-6.586 0.366-0.27 0.704-0.535 0.75-0.588 0.045-0.054 0.495-0.395 1-0.759 0.504-0.363 1.029-0.754 1.166-0.867 1.008-0.833 6.108-4.379 8.667-6.027 0.688-0.442 1.888-1.214 2.667-1.716 3.259-2.097 8.732-5.137 13.833-7.684 3.139-1.567 4.267-2.102 6.833-3.242 0.504-0.223 1.221-0.545 1.593-0.714 3.609-1.64 12.653-4.964 16.991-6.244 0.825-0.244 1.687-0.509 1.916-0.589 2.232-0.782 11.855-3.121 15.75-3.828 0.55-0.1 1.788-0.326 2.75-0.502 11.347-2.078 26.397-2.96 38.417-2.253m-23.5 39.927c-10.668 0.579-21.56 2.66-31.417 6-1.236 0.419-6.108 2.209-6.583 2.419-0.275 0.122-0.967 0.414-1.538 0.649-2.028 0.835-4.53 2-7.624 3.547-4.977 2.489-11.16 6.214-14.861 8.953-0.379 0.28-0.856 0.622-1.061 0.76-6.068 4.069-15.783 13.16-21.599 20.21-0.698 0.847-1.418 1.716-1.599 1.932-0.396 0.472-3.463 4.514-3.763 4.96-0.116 0.173-0.48 0.689-0.807 1.148-4.818 6.736-10.555 17.494-13.153 24.666-0.167 0.459-0.356 0.909-0.421 1-0.339 0.475-2.887 8.445-3.809 11.917-1.783 6.711-2.764 12.488-3.55 20.917-0.269 2.878-0.269 15.788 0 18.666 0.357 3.831 0.534 5.476 0.707 6.584 0.093 0.595 0.32 2.058 0.504 3.25 0.606 3.912 2.098 10.593 3.06 13.701 0.136 0.439 0.56 1.811 0.942 3.049 2.012 6.511 6.275 16.447 9.146 21.317 0.28 0.475 0.509 0.891 0.509 0.924 0 0.381 4.325 7.155 7.081 11.092 3.037 4.337 7.566 9.645 12.168 14.259 3.156 3.164 4.069 4.021 7.185 6.747 13.54 11.839 33.992 22.042 51.066 25.476 0.413 0.083 1.5 0.303 2.417 0.49 11.738 2.391 25.465 3.098 28.081 1.446 3.663-2.312 2.861-8.302-1.266-9.46-0.744-0.209-2-0.297-5.189-0.364-3.922-0.082-7.698-0.357-10.459-0.761-8.745-1.28-16.239-3.051-24.334-5.75-2.607-0.869-7.837-2.762-8.5-3.075-0.183-0.087-1.008-0.431-1.833-0.765-8.716-3.523-20.75-12.035-29.668-20.982-2.845-2.855-3.551-3.604-5.249-5.576-0.504-0.585-0.993-1.148-1.086-1.25-0.094-0.102-0.469-0.56-0.834-1.018-0.365-0.459-0.707-0.871-0.76-0.917-0.711-0.613-5.025-6.685-7.399-10.417-2.168-3.406-5.576-9.835-7.156-13.5-0.158-0.366-0.354-0.816-0.436-1-1.462-3.281-2.906-7.3-4.581-12.75-3.721-12.103-5.237-29.941-3.583-42.166 0.093-0.688 0.249-1.888 0.347-2.667 0.2-1.599 0.906-5.863 1.158-7 2.868-12.938 6.904-23.31 13.132-33.75 2.561-4.292 6.822-10.363 9.299-13.25 0.197-0.229 0.872-1.017 1.5-1.75 10.111-11.801 24.129-22.356 37.399-28.159 0.596-0.261 1.496-0.656 2-0.878 1.734-0.765 1.921-0.843 3.417-1.426 2.562-0.997 6.513-2.344 9-3.066 2.446-0.71 5.987-1.592 8.833-2.2 2.41-0.515 7.303-1.246 10.167-1.519 1.008-0.096 2.021-0.21 2.25-0.253 2.473-0.468 14.872-0.366 19.99 0.164 6.926 0.717 14.125 2.129 20.093 3.944 3.114 0.946 8.178 2.706 9.5 3.301 0.184 0.082 1.271 0.542 2.417 1.022 9.232 3.866 22.532 12.266 28.599 18.062 0.101 0.096 0.845 0.775 1.655 1.508 3.361 3.044 8.464 8.457 11.157 11.837 0.364 0.456 0.709 0.867 0.767 0.913 0.211 0.166 3.952 5.288 4.93 6.75 3.399 5.08 6.694 11.022 9.058 16.333 0.781 1.755 1.101 2.515 1.773 4.209 0.854 2.155 2.135 5.702 2.483 6.875 1.559 5.259 2.292 8.124 3.051 11.916 0.545 2.721 1.027 5.583 1.027 6.095 0 0.314-0.203 0.322-8.125 0.323-9.757 0-9.708-0.012-9.708 2.544 0 1.911 0.523 2.79 7.12 11.955 0.495 0.688 1.64 2.3 2.544 3.583 9.991 14.183 10.234 14.507 11.248 15.038 0.72 0.377 2.038 0.343 2.838-0.072 0.85-0.442 1.905-1.8 6.583-8.474 0.871-1.242 2.033-2.889 2.583-3.659s1.784-2.51 2.742-3.866c0.958-1.357 2.566-3.629 3.573-5.05s2.226-3.146 2.709-3.833c0.483-0.688 0.94-1.325 1.015-1.417 1.906-2.311 2.202-5.466 0.603-6.409-0.558-0.33-0.822-0.341-7.961-0.341h-7.384l-0.104-0.792c-0.726-5.564-1.757-10.551-3.523-17.041-0.916-3.367-3.096-9.653-4.249-12.25-0.082-0.184-0.461-1.084-0.843-2-1.101-2.638-3.481-7.578-4.659-9.667-2.959-5.252-2.887-5.131-4.834-8.083-2.229-3.38-5.244-7.64-5.662-8-0.054-0.046-0.506-0.609-1.005-1.25-2.782-3.577-5.652-6.722-10.279-11.264-2.758-2.707-3.841-3.695-6.381-5.82-0.493-0.412-0.977-0.826-1.077-0.919-0.888-0.834-6.462-4.981-8.768-6.524-1.804-1.206-5.788-3.723-5.894-3.723-0.032 0-0.763-0.423-1.622-0.94-3.432-2.064-9.591-5.03-14.813-7.134-15.631-6.297-33.278-9.186-50.417-8.254m5.274 32.006c-0.704 0.282-1.367 0.844-1.825 1.548l-0.449 0.69v11.084c0 12.213-0.075 11.265 0.989 12.474 1.428 1.623 7.045 1.494 8.33-0.19 0.961-1.261 0.931-0.865 0.927-12.321-4e-3 -12.342 0.055-11.968-2.077-13.108-0.727-0.389-5.042-0.518-5.895-0.177m30.726 53.038c-2.502 2.587-3.453 3.628-5.656 6.191-1.257 1.462-2.855 3.374-3.552 4.25s-1.658 2.08-2.135 2.676c-2.464 3.077-8.614 11.742-11.474 16.167-0.444 0.687-0.936 1.437-1.093 1.666-0.445 0.649-3.177 5.07-4.252 6.88-0.532 0.896-1.029 1.667-1.104 1.714-0.075 0.046-1.36-0.95-2.855-2.213-1.494-1.264-3.054-2.559-3.465-2.878-0.411-0.32-0.829-0.657-0.928-0.75-3.426-3.209-19.134-14.14-23.569-16.402-0.138-0.07-0.607-0.335-1.042-0.588-0.435-0.254-0.792-0.408-0.792-0.343 0 0.76 7.155 10.862 10.858 15.33 1.843 2.224 4.984 5.957 5.398 6.415 0.29 0.322 1.232 1.373 2.093 2.335 3.691 4.13 6.592 7.149 11.968 12.456 2.622 2.589 4.805 4.708 4.851 4.709s0.776-1.142 1.623-2.54c0.846-1.398 2.048-3.366 2.672-4.375 0.623-1.008 1.646-2.733 2.274-3.833s1.497-2.6 1.932-3.333c2.3-3.88 6.664-12.181 9.111-17.334 1.429-3.008 2.554-5.435 2.554-5.511 0-0.034 0.182-0.459 0.405-0.942 0.645-1.399 2.157-5.037 2.999-7.213 0.426-1.1 0.855-2.188 0.953-2.417 0.71-1.647 3.233-9.312 3.552-10.792 0.167-0.774-0.015-0.682-1.326 0.675m-115.46 28.338c-1.912 0.595-2.455 1.712-2.455 5.049 0 3.237 0.574 4.32 2.584 4.877 0.958 0.265 20.817 0.258 21.875-8e-3 3.664-0.923 3.748-8.846 0.105-9.934-0.953-0.285-21.188-0.27-22.109 0.016m126.13 46.782c-8.555 1.543-14.71 7.374-17.063 16.164-1.074 4.014-0.569 4.666 3.612 4.666 3.622 0 3.771-0.097 4.846-3.148 2.96-8.402 10.649-12.083 18.452-8.835 7.615 3.17 9.02 13.842 2.862 21.733-0.071 0.092-0.358 0.467-0.637 0.834-1.153 1.516-1.465 1.895-2.739 3.33-1.537 1.731-7.211 8.004-10.333 11.424-0.55 0.603-1.301 1.43-1.667 1.837-2.401 2.669-3.532 3.922-3.75 4.155-0.138 0.147-0.925 1.01-1.75 1.918s-1.95 2.144-2.5 2.748c-4.112 4.512-4.635 5.121-4.977 5.788-0.393 0.767-0.403 6.29-0.013 6.847 0.639 0.912-0.347 0.87 20.273 0.867 20.498-3e-3 19.513 0.04 20.201-0.884 0.468-0.63 0.616-4.851 0.205-5.837-0.567-1.356 0.388-1.275-15.075-1.276l-13.72-1e-3 1.544-1.708c0.849-0.94 1.586-1.746 1.638-1.792s1.063-1.171 2.248-2.5 2.235-2.491 2.334-2.583 1.187-1.292 2.419-2.667 2.515-2.8 2.851-3.166c0.336-0.367 1.385-1.53 2.332-2.584 0.946-1.054 1.763-1.954 1.814-2s0.73-0.796 1.509-1.666c0.779-0.871 1.691-1.884 2.028-2.25 0.336-0.367 0.935-1.079 1.332-1.584 0.397-0.504 0.851-1.06 1.011-1.236 0.159-0.175 0.497-0.625 0.75-1 0.254-0.374 0.504-0.718 0.555-0.764 0.847-0.752 3.13-5.026 4.14-7.75 3.656-9.856-0.755-21.193-9.8-25.19-0.513-0.227-1.082-0.481-1.266-0.565-3.153-1.451-9.537-2.07-13.666-1.325m69.791 1.011c-0.828 0.248-1.257 0.801-5.367 6.903-11.791 17.506-18.171 26.995-22.578 33.583-1.747 2.612-3.224 4.787-3.281 4.833-1.02 0.818-1.606 7.144-0.808 8.735 0.637 1.273-0.646 1.177 16.338 1.226l15.155 0.045v6.255c0 8.262-0.317 7.74 4.692 7.738 4.767-1e-3 4.461 0.526 4.468-7.695l6e-3 -6.28 3.459-0.053c4.735-0.074 4.878-0.203 4.871-4.375-7e-3 -3.934-0.207-4.096-5.074-4.096h-3.256v-22.742c0-24.197 0.031-23.304-0.817-23.88-0.501-0.341-6.799-0.5-7.808-0.197m-0.541 31.153v15.833h-10.667c-5.867 0-10.667-0.041-10.667-0.092 0-0.05 0.626-1.006 1.391-2.125 0.765-1.118 3.179-4.695 5.365-7.95 10.02-14.92 11.565-17.22 12.95-19.291 0.813-1.215 1.511-2.209 1.553-2.209 0.041 0 0.075 7.125 0.075 15.834" fill="#fff"/>
<path d="m172.17 0.103c-8.456 0.402-15.025 1.114-23.667 2.563-1.384 0.232-6.708 1.284-7.583 1.499-0.367 0.09-1.342 0.318-2.167 0.506-6.427 1.47-14.525 3.895-20.75 6.216-7.151 2.666-11.68 4.624-18.167 7.855-4.795 2.389-9.802 5.13-12.5 6.844-0.32 0.203-1.258 0.771-2.083 1.26-15.494 9.191-31.836 23.617-45.394 40.071-4.704 5.708-10.296 13.768-14.684 21.166-2.853 4.809-3.719 6.396-6.143 11.25-2.335 4.676-2.785 5.632-4.233 9-0.453 1.055-0.922 2.142-1.043 2.417-1.825 4.164-4.735 12.376-6.409 18.083-0.282 0.963-0.586 1.977-0.675 2.254-0.484 1.499-2.483 9.761-2.982 12.33-0.748 3.844-0.856 4.428-1.182 6.416-0.188 1.146-0.413 2.496-0.501 3-0.362 2.07-0.926 6.947-1.331 11.5-1.233 13.865-0.717 29.464 1.431 43.25 0.505 3.239 1.662 9.517 2.058 11.167 2.255 9.394 3.275 12.981 5.755 20.25 1.21 3.548 3.07 8.39 4.009 10.442 0.132 0.289 0.241 0.565 0.241 0.613 0 0.049 0.217 0.562 0.484 1.142 0.266 0.579 0.592 1.315 0.725 1.636 2.975 7.18 9.658 19.268 15.2 27.492 2.576 3.824 8.378 11.708 9.081 12.342 0.051 0.045 0.39 0.458 0.754 0.916 0.364 0.459 0.701 0.871 0.751 0.917 0.049 0.046 0.65 0.758 1.335 1.583s1.479 1.763 1.764 2.084c5.649 6.354 11.765 12.479 17.072 17.097 0.413 0.359 0.788 0.694 0.834 0.744 0.067 0.074 3.423 2.88 4.75 3.972 0.183 0.151 1.008 0.796 1.833 1.434s1.537 1.2 1.583 1.248c0.31 0.329 5.739 4.273 8.141 5.915 3.614 2.469 13.229 8.423 13.603 8.423 0.053 0 0.376 0.175 0.718 0.389 1.654 1.035 13.058 6.778 13.459 6.778 0.031 0 0.568 0.229 1.193 0.51s1.286 0.578 1.47 0.659c4.346 1.938 13.851 5.398 18.75 6.825 0.687 0.2 1.437 0.43 1.666 0.51 3.031 1.066 13.631 3.535 19.25 4.483 7.341 1.239 11.667 1.761 19.75 2.381 3.435 0.264 19.72 0.264 23.25 0 8.743-0.653 17.235-1.759 23.5-3.061 0.917-0.19 2.154-0.445 2.75-0.565 8.235-1.664 19.375-5.032 28.084-8.49 17.795-7.066 32.971-15.996 48.331-28.441 0.742-0.601 4.044-3.421 4.669-3.986 0.366-0.332 1.529-1.382 2.583-2.332 3.246-2.929 9.812-9.575 12.671-12.827 0.685-0.779 1.287-1.454 1.338-1.5 1.11-1.002 8.724-10.622 11.015-13.916 0.319-0.459 1.022-1.471 1.564-2.25 2.907-4.184 8.412-12.952 8.412-13.398 0-0.06 0.188-0.407 0.418-0.772 0.23-0.364 0.652-1.094 0.936-1.621 0.285-0.528 0.726-1.334 0.979-1.793 0.575-1.039 3.495-6.875 4.003-8 0.207-0.458 0.704-1.534 1.103-2.39 0.4-0.856 0.728-1.582 0.728-1.613s0.254-0.606 0.565-1.279c2.111-4.57 6.234-16.038 7.688-21.384 0.149-0.55 0.497-1.825 0.772-2.834 0.695-2.55 1.152-4.396 2.042-8.25 0.634-2.747 1.714-8.533 2.193-11.75 2.541-17.073 2.632-36.781 0.244-52.666-1.232-8.196-2.719-15.383-4.518-21.834-0.281-1.008-0.622-2.246-0.758-2.75-4.98-18.468-15.872-40.411-28.377-57.165-0.71-0.951-3.728-4.88-4.029-5.246-2.484-3.012-4.738-5.707-4.886-5.839-0.102-0.091-0.48-0.504-0.838-0.916-3.662-4.214-10.661-11.246-15.009-15.084-0.727-0.641-1.452-1.292-1.61-1.446-0.227-0.22-3.898-3.283-5.729-4.781-11.34-9.272-27.45-18.933-41.5-24.885-1.284-0.544-2.484-1.057-2.667-1.14-2.585-1.17-12.012-4.521-15.917-5.658-0.687-0.201-1.437-0.43-1.666-0.511s-1.805-0.519-3.5-0.975c-11.712-3.147-21.815-4.84-35-5.864-2.081-0.162-17.635-0.333-20-0.22m17.083 11.809c2.292 0.135 4.571 0.287 5.066 0.337 0.494 0.051 1.656 0.167 2.583 0.258 3.31 0.324 8.937 1.066 11.268 1.486 2.798 0.505 7.318 1.381 7.75 1.503 0.275 0.077 1.25 0.307 2.166 0.511 5.461 1.214 17.675 4.829 19.123 5.66 0.159 0.092 0.369 0.166 0.465 0.166 0.168 0 3.814 1.435 7.746 3.047 3.424 1.405 10.78 4.926 14.125 6.761 0.527 0.289 1.389 0.759 1.916 1.044 4.427 2.396 12.706 7.671 17.125 10.91 1.931 1.416 6.636 5.004 7.329 5.59 0.186 0.158 0.938 0.789 1.671 1.404 0.734 0.614 1.561 1.314 1.838 1.556 0.277 0.241 1.025 0.888 1.662 1.438 0.636 0.55 1.609 1.412 2.162 1.916 1.84 1.675 9.821 9.662 11.042 11.05 0.662 0.752 1.377 1.555 1.588 1.784 1.515 1.64 5.2 6.107 8.042 9.75 3.851 4.937 10.691 15.444 13.398 20.584 0.072 0.137 0.341 0.625 0.597 1.083 15.358 27.49 22.509 61.952 19.679 94.833-1.503 17.456-5.518 33.709-12.497 50.584-0.247 0.595-0.604 1.421-0.793 1.833-0.19 0.412-0.49 1.088-0.667 1.5-0.987 2.304-4.553 9.532-5.631 11.417-0.21 0.366-0.645 1.154-0.966 1.75-0.75 1.388-4.939 8.338-6.081 10.087-1.572 2.409-6.337 9.188-6.616 9.413-0.057 0.045-0.844 1.058-1.75 2.25-0.906 1.191-1.691 2.204-1.745 2.25-0.054 0.045-0.844 0.983-1.755 2.083-0.912 1.1-1.894 2.262-2.184 2.583s-1.264 1.409-2.165 2.417c-14.92 16.698-35.083 31.386-55.824 40.666-0.275 0.123-1.025 0.462-1.667 0.753-4.399 1.995-14.11 5.553-19.083 6.991-0.688 0.199-1.603 0.469-2.034 0.601-0.907 0.278-7.995 2.072-9.716 2.459-3.134 0.704-7.903 1.58-11.417 2.095-3.806 0.559-4.685 0.673-6.583 0.852-1.009 0.096-2.584 0.249-3.5 0.34-12.801 1.276-30.378 0.594-43.084-1.672-0.504-0.089-1.779-0.316-2.833-0.504-1.054-0.187-2.217-0.409-2.583-0.493-0.367-0.084-1.417-0.314-2.334-0.512-7.62-1.647-15.07-3.842-23.333-6.874-7.247-2.659-17.266-7.392-24.375-11.515-2.321-1.345-3.037-1.772-4.792-2.854-4.238-2.612-11.669-7.753-14.432-9.984-0.238-0.192-0.722-0.574-1.076-0.849-6.275-4.87-13.91-11.919-19.593-18.09-2.548-2.766-2.873-3.138-6.712-7.66-0.194-0.229-0.764-0.942-1.266-1.583-0.502-0.642-0.954-1.205-1.004-1.25-0.496-0.452-5.628-7.587-7.553-10.5-0.817-1.238-1.617-2.44-1.777-2.671-0.423-0.611-2.436-3.93-3.788-6.246-2.068-3.54-2.705-4.723-4.806-8.917-2.915-5.82-4.894-10.274-6.593-14.833-0.358-0.963-0.724-1.9-0.812-2.083-0.59-1.23-3.614-10.559-4.429-13.667-2.766-10.539-4.437-19.502-5.157-27.667-0.056-0.641-0.174-1.841-0.261-2.666-0.794-7.519-0.792-21.473 4e-3 -29.084 0.091-0.871 0.242-2.333 0.334-3.25 0.323-3.192 0.992-8.262 1.329-10.083 0.094-0.504 0.326-1.779 0.517-2.833 0.726-4.025 1.587-7.772 3.235-14.084 0.293-1.124 1.378-4.782 1.754-5.916 0.168-0.505 0.38-1.18 0.472-1.5 0.232-0.808 1.957-5.699 2.44-6.917 0.217-0.55 0.808-2.05 1.313-3.333 4.733-12.046 14.479-29.57 20.575-37 0.075-0.092 0.807-1.067 1.627-2.167s1.529-2.038 1.576-2.083c0.047-0.046 0.533-0.646 1.08-1.334 1.133-1.422 4.198-5.088 5.081-6.076 2.335-2.614 4.816-5.246 7.251-7.69 2.429-2.44 3.953-3.878 8.005-7.556 1.353-1.229 6.679-5.613 8-6.586 0.366-0.27 0.704-0.535 0.75-0.588 0.045-0.054 0.495-0.395 1-0.759 0.504-0.363 1.029-0.754 1.166-0.867 1.008-0.833 6.108-4.379 8.667-6.027 0.688-0.442 1.888-1.214 2.667-1.716 3.259-2.097 8.732-5.137 13.833-7.684 3.139-1.567 4.267-2.102 6.833-3.242 0.504-0.223 1.221-0.545 1.593-0.714 3.609-1.64 12.653-4.964 16.991-6.244 0.825-0.244 1.687-0.509 1.916-0.589 2.232-0.782 11.855-3.121 15.75-3.828 0.55-0.1 1.788-0.326 2.75-0.502 11.347-2.078 26.397-2.96 38.417-2.253m-23.5 39.927c-10.668 0.579-21.56 2.66-31.417 6-1.236 0.419-6.108 2.209-6.583 2.419-0.275 0.122-0.967 0.414-1.538 0.649-2.028 0.835-4.53 2-7.624 3.547-4.977 2.489-11.16 6.214-14.861 8.953-0.379 0.28-0.856 0.622-1.061 0.76-6.068 4.069-15.783 13.16-21.599 20.21-0.698 0.847-1.418 1.716-1.599 1.932-0.396 0.472-3.463 4.514-3.763 4.96-0.116 0.173-0.48 0.689-0.807 1.148-4.818 6.736-10.555 17.494-13.153 24.666-0.167 0.459-0.356 0.909-0.421 1-0.339 0.475-2.887 8.445-3.809 11.917-1.783 6.711-2.764 12.488-3.55 20.917-0.269 2.878-0.269 15.788 0 18.666 0.357 3.831 0.534 5.476 0.707 6.584 0.093 0.595 0.32 2.058 0.504 3.25 0.606 3.912 2.098 10.593 3.06 13.701 0.136 0.439 0.56 1.811 0.942 3.049 2.012 6.511 6.275 16.447 9.146 21.317 0.28 0.475 0.509 0.891 0.509 0.924 0 0.381 4.325 7.155 7.081 11.092 3.037 4.337 7.566 9.645 12.168 14.259 3.156 3.164 4.069 4.021 7.185 6.747 13.54 11.839 33.992 22.042 51.066 25.476 0.413 0.083 1.5 0.303 2.417 0.49 11.738 2.391 25.465 3.098 28.081 1.446 3.663-2.312 2.861-8.302-1.266-9.46-0.744-0.209-2-0.297-5.189-0.364-3.922-0.082-7.698-0.357-10.459-0.761-8.745-1.28-16.239-3.051-24.334-5.75-2.607-0.869-7.837-2.762-8.5-3.075-0.183-0.087-1.008-0.431-1.833-0.765-8.716-3.523-20.75-12.035-29.668-20.982-2.845-2.855-3.551-3.604-5.249-5.576-0.504-0.585-0.993-1.148-1.086-1.25-0.094-0.102-0.469-0.56-0.834-1.018-0.365-0.459-0.707-0.871-0.76-0.917-0.711-0.613-5.025-6.685-7.399-10.417-2.168-3.406-5.576-9.835-7.156-13.5-0.158-0.366-0.354-0.816-0.436-1-1.462-3.281-2.906-7.3-4.581-12.75-3.721-12.103-5.237-29.941-3.583-42.166 0.093-0.688 0.249-1.888 0.347-2.667 0.2-1.599 0.906-5.863 1.158-7 2.868-12.938 6.904-23.31 13.132-33.75 2.561-4.292 6.822-10.363 9.299-13.25 0.197-0.229 0.872-1.017 1.5-1.75 10.111-11.801 24.129-22.356 37.399-28.159 0.596-0.261 1.496-0.656 2-0.878 1.734-0.765 1.921-0.843 3.417-1.426 2.562-0.997 6.513-2.344 9-3.066 2.446-0.71 5.987-1.592 8.833-2.2 2.41-0.515 7.303-1.246 10.167-1.519 1.008-0.096 2.021-0.21 2.25-0.253 2.473-0.468 14.872-0.366 19.99 0.164 6.926 0.717 14.125 2.129 20.093 3.944 3.114 0.946 8.178 2.706 9.5 3.301 0.184 0.082 1.271 0.542 2.417 1.022 9.232 3.866 22.532 12.266 28.599 18.062 0.101 0.096 0.845 0.775 1.655 1.508 3.361 3.044 8.464 8.457 11.157 11.837 0.364 0.456 0.709 0.867 0.767 0.913 0.211 0.166 3.952 5.288 4.93 6.75 3.399 5.08 6.694 11.022 9.058 16.333 0.781 1.755 1.101 2.515 1.773 4.209 0.854 2.155 2.135 5.702 2.483 6.875 1.559 5.259 2.292 8.124 3.051 11.916 0.545 2.721 1.027 5.583 1.027 6.095 0 0.314-0.203 0.322-8.125 0.323-9.757 0-9.708-0.012-9.708 2.544 0 1.911 0.523 2.79 7.12 11.955 0.495 0.688 1.64 2.3 2.544 3.583 9.991 14.183 10.234 14.507 11.248 15.038 0.72 0.377 2.038 0.343 2.838-0.072 0.85-0.442 1.905-1.8 6.583-8.474 0.871-1.242 2.033-2.889 2.583-3.659s1.784-2.51 2.742-3.866c0.958-1.357 2.566-3.629 3.573-5.05s2.226-3.146 2.709-3.833c0.483-0.688 0.94-1.325 1.015-1.417 1.906-2.311 2.202-5.466 0.603-6.409-0.558-0.33-0.822-0.341-7.961-0.341h-7.384l-0.104-0.792c-0.726-5.564-1.757-10.551-3.523-17.041-0.916-3.367-3.096-9.653-4.249-12.25-0.082-0.184-0.461-1.084-0.843-2-1.101-2.638-3.481-7.578-4.659-9.667-2.959-5.252-2.887-5.131-4.834-8.083-2.229-3.38-5.244-7.64-5.662-8-0.054-0.046-0.506-0.609-1.005-1.25-2.782-3.577-5.652-6.722-10.279-11.264-2.758-2.707-3.841-3.695-6.381-5.82-0.493-0.412-0.977-0.826-1.077-0.919-0.888-0.834-6.462-4.981-8.768-6.524-1.804-1.206-5.788-3.723-5.894-3.723-0.032 0-0.763-0.423-1.622-0.94-3.432-2.064-9.591-5.03-14.813-7.134-15.631-6.297-33.278-9.186-50.417-8.254m5.274 32.006c-0.704 0.282-1.367 0.844-1.825 1.548l-0.449 0.69v11.084c0 12.213-0.075 11.265 0.989 12.474 1.428 1.623 7.045 1.494 8.33-0.19 0.961-1.261 0.931-0.865 0.927-12.321-4e-3 -12.342 0.055-11.968-2.077-13.108-0.727-0.389-5.042-0.518-5.895-0.177m30.726 53.038c-2.502 2.587-3.453 3.628-5.656 6.191-1.257 1.462-2.855 3.374-3.552 4.25s-1.658 2.08-2.135 2.676c-2.464 3.077-8.614 11.742-11.474 16.167-0.444 0.687-0.936 1.437-1.093 1.666-0.445 0.649-3.177 5.07-4.252 6.88-0.532 0.896-1.029 1.667-1.104 1.714-0.075 0.046-1.36-0.95-2.855-2.213-1.494-1.264-3.054-2.559-3.465-2.878-0.411-0.32-0.829-0.657-0.928-0.75-3.426-3.209-19.134-14.14-23.569-16.402-0.138-0.07-0.607-0.335-1.042-0.588-0.435-0.254-0.792-0.408-0.792-0.343 0 0.76 7.155 10.862 10.858 15.33 1.843 2.224 4.984 5.957 5.398 6.415 0.29 0.322 1.232 1.373 2.093 2.335 3.691 4.13 6.592 7.149 11.968 12.456 2.622 2.589 4.805 4.708 4.851 4.709s0.776-1.142 1.623-2.54c0.846-1.398 2.048-3.366 2.672-4.375 0.623-1.008 1.646-2.733 2.274-3.833s1.497-2.6 1.932-3.333c2.3-3.88 6.664-12.181 9.111-17.334 1.429-3.008 2.554-5.435 2.554-5.511 0-0.034 0.182-0.459 0.405-0.942 0.645-1.399 2.157-5.037 2.999-7.213 0.426-1.1 0.855-2.188 0.953-2.417 0.71-1.647 3.233-9.312 3.552-10.792 0.167-0.774-0.015-0.682-1.326 0.675m-115.46 28.338c-1.912 0.595-2.455 1.712-2.455 5.049 0 3.237 0.574 4.32 2.584 4.877 0.958 0.265 20.817 0.258 21.875-8e-3 3.664-0.923 3.748-8.846 0.105-9.934-0.953-0.285-21.188-0.27-22.109 0.016m126.13 46.782c-8.555 1.543-14.71 7.374-17.063 16.164-1.074 4.014-0.569 4.666 3.612 4.666 3.622 0 3.771-0.097 4.846-3.148 2.96-8.402 10.649-12.083 18.452-8.835 7.615 3.17 9.02 13.842 2.862 21.733-0.071 0.092-0.358 0.467-0.637 0.834-1.153 1.516-1.465 1.895-2.739 3.33-1.537 1.731-7.211 8.004-10.333 11.424-0.55 0.603-1.301 1.43-1.667 1.837-2.401 2.669-3.532 3.922-3.75 4.155-0.138 0.147-0.925 1.01-1.75 1.918s-1.95 2.144-2.5 2.748c-4.112 4.512-4.635 5.121-4.977 5.788-0.393 0.767-0.403 6.29-0.013 6.847 0.639 0.912-0.347 0.87 20.273 0.867 20.498-3e-3 19.513 0.04 20.201-0.884 0.468-0.63 0.616-4.851 0.205-5.837-0.567-1.356 0.388-1.275-15.075-1.276l-13.72-1e-3 1.544-1.708c0.849-0.94 1.586-1.746 1.638-1.792s1.063-1.171 2.248-2.5 2.235-2.491 2.334-2.583 1.187-1.292 2.419-2.667 2.515-2.8 2.851-3.166c0.336-0.367 1.385-1.53 2.332-2.584 0.946-1.054 1.763-1.954 1.814-2s0.73-0.796 1.509-1.666c0.779-0.871 1.691-1.884 2.028-2.25 0.336-0.367 0.935-1.079 1.332-1.584 0.397-0.504 0.851-1.06 1.011-1.236 0.159-0.175 0.497-0.625 0.75-1 0.254-0.374 0.504-0.718 0.555-0.764 0.847-0.752 3.13-5.026 4.14-7.75 3.656-9.856-0.755-21.193-9.8-25.19-0.513-0.227-1.082-0.481-1.266-0.565-3.153-1.451-9.537-2.07-13.666-1.325m69.791 1.011c-0.828 0.248-1.257 0.801-5.367 6.903-11.791 17.506-18.171 26.995-22.578 33.583-1.747 2.612-3.224 4.787-3.281 4.833-1.02 0.818-1.606 7.144-0.808 8.735 0.637 1.273-0.646 1.177 16.338 1.226l15.155 0.045v6.255c0 8.262-0.317 7.74 4.692 7.738 4.767-1e-3 4.461 0.526 4.468-7.695l6e-3 -6.28 3.459-0.053c4.735-0.074 4.878-0.203 4.871-4.375-7e-3 -3.934-0.207-4.096-5.074-4.096h-3.256v-22.742c0-24.197 0.031-23.304-0.817-23.88-0.501-0.341-6.799-0.5-7.808-0.197m-0.541 31.153v15.833h-10.667c-5.867 0-10.667-0.041-10.667-0.092 0-0.05 0.626-1.006 1.391-2.125 0.765-1.118 3.179-4.695 5.365-7.95 10.02-14.92 11.565-17.22 12.95-19.291 0.813-1.215 1.511-2.209 1.553-2.209 0.041 0 0.075 7.125 0.075 15.834" fill="#fff"/>
</g>
</svg>
