<svg xmlns="http://www.w3.org/2000/svg" viewBox="0 0 25 25">
    <defs>
        <style>
            .cls-1 {
                fill: #fff;
            }
            .cls-2 {
                fill: #1e1e20;
                fill-rule: evenodd;
            }
        </style>
    </defs>
    <title>weibo</title>
    <g id="图层_2" data-name="图层 2">
        <g id="图层_1-2" data-name="图层 1"><circle class="cls-1" cx="12.5" cy="12.5" r="12.5"/><path
            class="cls-2"
            d="M10.89 12.51a2 2 0 0 0-1.95 2.1 2 2 0 0 0 2.44 1.49 2 2 0 0 0 1.95-2.1 2 2 0 0 0-2.44-1.49zm-.35 2.8a.72.72 0 0 1-.86-.52.72.72 0 0 1 .69-.74.72.72 0 0 1 .86.52.72.72 0 0 1-.69.74zm1.09-1.12a.28.28 0 1 1 .26-.35.31.31 0 0 1-.26.35zm5.56-3.32a.5.5 0 0 0 .65-.27 1.78 1.78 0 0 0-2.33-2.33.5.5 0 0 0 .39.92.78.78 0 0 1 1 1 .5.5 0 0 0 .27.65zm-1.19.74l.1-.28c.87-1.68-1.38-2.22-2.67-1.51s-.67-.49-.67-.49c.21-2.2-2.1-1.23-2.1-1.23-5.38 3-4.83 6-4.83 6 0 1.65 2.58 3.48 5.83 3.48 4.31 0 6.77-2.52 6.34-4.39a2.52 2.52 0 0 0-2-1.59zm-5 5.12c-2.82 0-3.78-1.47-3.78-2.53 0-1.68 2.23-2.92 4.32-2.92s3.59.89 3.93 2.06c.51 1.73-1.7 3.39-4.48 3.39zm5.2-10.45a3.64 3.64 0 0 0-.91.12.5.5 0 0 0 .25 1 2.64 2.64 0 0 1 3.14 3.45.5.5 0 1 0 .94.34 3.63 3.63 0 0 0-3.42-4.91z"/></g>
    </g>
</svg>
