<svg enable-background="new 0 0 36 36" viewBox="0 0 36 36" xmlns="http://www.w3.org/2000/svg" xmlns:xlink="http://www.w3.org/1999/xlink" width="{{ .width }}" height="{{ .height }}">
    <defs>
        <path id="a" d="m7.6 14.6c.4 0 1-.4 1-.4s.6-.7.6-1.2c0-.9-.7-1.6-1.6-1.6s-1.6.7-1.6 1.6c0 .9.7 1.6 1.6 1.6z"/>
        <clipPath id="b">
            <use overflow="visible" xlink:href="#a"/>
        </clipPath>
        <clipPath id="c">
            <use overflow="visible" xlink:href="#d"/>
        </clipPath>
        <circle id="d" cx="12.6" cy="12.6" r="1.6"/>
    </defs>
    <g clip-path="url(#b)" fill="{{ .fill }}">
        <path d="m1 6.4h13.2v13.2h-13.2z"/>
    </g>
    <g clip-path="url(#c)" fill="{{ .fill }}">
        <path d="m6 6h13.2v13.2h-13.2z"/>
    </g>
    <path d="m30.4 28.8h-3.6v-2h3.6c1.7 0 3-1.3 3-3v-13c0-1.7-1.3-3-3-3h-24.8c-1.7 0-3 1.3-3 3v13c0 1.7 1.3 3 3 3h5.4v2h-5.4c-2.8 0-5-2.2-5-5v-13c0-2.8 2.2-5 5-5h24.7c2.8 0 5 2.2 5 5v13c .1 2.7-2.2 5-4.9 5z" fill="{{ .fill }}"/>
    <path d="m25.4 36h-14.4c-1.1 0-2-.9-2-2v-15h18.5v15c0 1.1-.9 2-2.1 2zm-14.4-15v13h14.4v-13z" fill="{{ .fill }}"/>
    <path d="m27.5 6.8h-2v-4.8h-14.5v4.6h-2v-4.6c0-1.1.9-2 2-2h14.4c1.1 0 2 .9 2 2v4.8z" fill="{{ .fill }}"/>
</svg>
