<svg viewBox="0 0 400 400" width="400" height="400" xmlns="http://www.w3.org/2000/svg"><g fill="#fff" fill-rule="evenodd"><path d="M191.67.103c-4.789.158-13.77.958-18.5 1.647-.871.127-2.221.316-3 .419-.78.104-1.979.288-2.667.408-.687.121-1.775.309-2.417.417-9.17 1.552-20.3 4.396-29.166 7.454-.917.316-1.93.653-2.25.748-.321.095-1.221.419-2 .72-.78.3-2.354.899-3.5 1.33-2.267.853-6.89 2.752-8.75 3.594l-1.917.866c-8.445 3.795-18.787 9.443-25.833 14.109-1.33.88-2.482 1.628-2.562 1.663-.134.058-3.191 2.164-4.087 2.815-.22.16-.568.403-.775.54-2.045 1.363-11.205 8.378-11.743 8.993-.046.052-.496.431-1 .84-1.152.936-4.455 3.808-5.667 4.927l-2.333 2.156c-1.83 1.692-8.059 7.921-9.751 9.751l-2.156 2.333c-1.119 1.212-3.991 4.515-4.927 5.667-.409.504-.788.954-.84 1-.615.538-7.63 9.698-8.993 11.743-.137.207-.38.555-.54.775-.651.896-2.757 3.953-2.815 4.087-.035.08-.783 1.232-1.663 2.562-4.666 7.046-10.314 17.388-14.109 25.833l-.866 1.917c-.842 1.86-2.741 6.483-3.594 8.75-.431 1.146-1.03 2.72-1.33 3.5-.301.779-.625 1.679-.72 2-.095.32-.432 1.333-.748 2.25C7.41 144.734 4.588 155.76 3.008 165c-.473 2.764-.678 4.034-.823 5.083-.088.642-.277 1.992-.418 3-.559 3.987-.858 6.873-1.38 13.334-.408 5.036-.408 22.13 0 27.166.624 7.728 1.363 14.088 2.207 19 .49 2.853.578 3.343.979 5.417.221 1.146.436 2.271.479 2.5.398 2.153 2.097 9.31 2.69 11.333.121.413.425 1.5.674 2.417.534 1.958 1.166 4.1 1.623 5.5a128 128 0 0 1 .629 2c.267.878 2.114 6.189 2.778 7.987 1.551 4.197 3.767 9.503 6.095 14.596 2.761 6.042 7.423 14.651 11.471 21.185 1.914 3.091 7.253 11.001 8.408 12.457.119.151 1.061 1.4 2.093 2.775 1.031 1.375 2.07 2.728 2.308 3.006.237.278.657.796.932 1.15.481.618 1.306 1.643 1.889 2.345 1.404 1.69 2.941 3.515 3.017 3.582.052.046.617.684 1.257 1.417s1.508 1.708 1.93 2.167l1.991 2.166c1.567 1.709 7.82 7.962 9.666 9.666 2.149 1.984 2.798 2.571 4.25 3.838a89.141 89.141 0 0 1 1.417 1.251c.045.049.795.684 1.666 1.412s1.621 1.365 1.667 1.415.908.75 1.917 1.557c1.008.806 1.947 1.559 2.087 1.672s.703.539 1.25.947c.548.409 1.091.832 1.206.941.116.109.866.668 1.667 1.242s1.494 1.089 1.54 1.144c.18.217 6.232 4.388 8.75 6.029a196.21 196.21 0 0 0 27.166 14.84l2.38 1.067c.484.218.919.396.966.396.046 0 .588.236 1.203.523.615.288 1.568.692 2.118.898.55.205 2.275.863 3.833 1.461 5.936 2.28 9.151 3.361 15.917 5.352 6.983 2.055 17.625 4.417 24.083 5.347 1.009.145 2.284.332 2.834.416 4.062.619 8.376 1.074 15.333 1.619 5.208.408 21.436.406 26.5-.002 8.951-.722 11.296-.989 18.833-2.14 3.065-.468 9.521-1.718 12.417-2.405 2.976-.706 6.543-1.587 7.417-1.832 8.572-2.408 15.818-4.808 21.862-7.242l2.138-.862c.458-.185 1.229-.516 1.713-.735s.913-.398.953-.398c.08 0 1.375-.575 3.042-1.349.574-.266 1.074-.484 1.112-.484.241 0 9.27-4.442 11.18-5.5.458-.254 1.32-.722 1.916-1.041 1.65-.883 4.769-2.659 6.167-3.511.688-.419 1.662-1.002 2.167-1.295 2.54-1.478 9.763-6.307 12.937-8.65.561-.414 1.642-1.203 2.402-1.753s1.464-1.075 1.563-1.167c.1-.092.631-.499 1.181-.906.55-.406 1.037-.781 1.083-.834.046-.052.384-.319.75-.592.732-.544 6.616-5.413 6.75-5.584.046-.059.684-.623 1.417-1.254s1.671-1.46 2.083-1.844l2.25-2.087c1.935-1.794 7.772-7.631 9.566-9.566l2.087-2.25c.384-.412 1.213-1.35 1.844-2.083s1.195-1.371 1.254-1.417c.171-.134 5.04-6.018 5.584-6.75.273-.366.54-.704.592-.75.053-.046.428-.533.834-1.083.407-.55.814-1.081.906-1.181.092-.099.617-.803 1.167-1.563s1.339-1.841 1.753-2.402c2.343-3.174 7.172-10.397 8.65-12.937.293-.505.876-1.479 1.295-2.167.852-1.398 2.628-4.517 3.511-6.167.319-.596.787-1.458 1.041-1.916 1.058-1.91 5.5-10.939 5.5-11.18 0-.038.218-.538.484-1.112.774-1.667 1.349-2.962 1.349-3.042 0-.04.179-.469.398-.953s.55-1.255.735-1.713l.862-2.138c2.434-6.044 4.834-13.29 7.242-21.862.245-.874 1.126-4.441 1.832-7.417.713-3.007 1.981-9.577 2.429-12.583.109-.734.3-1.971.423-2.75.124-.78.31-2.13.414-3 .104-.871.255-2.071.337-2.667.177-1.292.536-5.218.937-10.25.417-5.221.421-21.197.007-26.5-.528-6.749-1.125-12.424-1.621-15.417-.084-.504-.271-1.741-.415-2.75-.446-3.11-1.659-9.407-2.572-13.349-.776-3.352-2.034-8.219-2.774-10.734-1.991-6.766-3.072-9.981-5.352-15.917a649.54 649.54 0 0 1-1.463-3.838 29.185 29.185 0 0 0-.814-1.933c-.241-.51-.438-.971-.438-1.025 0-.053-.216-.571-.48-1.15-.264-.58-.782-1.729-1.151-2.554-4.202-9.402-9.092-18.353-14.839-27.166-1.641-2.518-5.812-8.57-6.029-8.75-.055-.046-.57-.739-1.144-1.54s-1.133-1.551-1.242-1.667c-.109-.115-.532-.658-.941-1.206-.408-.547-.834-1.11-.947-1.25s-.866-1.079-1.672-2.087c-.807-1.009-1.507-1.871-1.557-1.917s-.687-.796-1.415-1.667-1.363-1.621-1.412-1.666a89.141 89.141 0 0 1-1.251-1.417c-1.267-1.452-1.854-2.101-3.838-4.25-1.704-1.846-7.957-8.099-9.666-9.666l-2.166-1.991c-.459-.422-1.434-1.29-2.167-1.93s-1.371-1.205-1.417-1.257c-.067-.076-1.892-1.613-3.582-3.017a112.926 112.926 0 0 0-2.345-1.889 39.78 39.78 0 0 1-1.15-.932c-.278-.238-1.631-1.277-3.006-2.308a441.585 441.585 0 0 1-2.775-2.093c-1.456-1.155-9.366-6.494-12.457-8.408-6.535-4.049-15.185-8.733-21.185-11.47-5.533-2.526-10.127-4.444-14.596-6.096-1.798-.664-7.109-2.511-7.987-2.778a128 128 0 0 1-2-.629c-1.4-.457-3.542-1.089-5.5-1.623-.917-.249-2.004-.553-2.417-.674-2.744-.805-9.376-2.326-13.75-3.154-8.704-1.648-14.485-2.402-24.416-3.184-3.11-.245-17.636-.441-22-.298m20.166 13.222c.963.088 2.763.24 4 .337 6.593.515 14.588 1.615 20 2.753.596.125 1.571.317 2.167.426s1.458.294 1.917.41a59.64 59.64 0 0 0 1.833.424c2.033.431 6.797 1.662 10.083 2.605.779.223 1.904.545 2.5.714 1.192.339 8.336 2.703 9 2.979a89.3 89.3 0 0 0 1.834.699c1.726.641 7.828 3.078 8.75 3.494a721.4 721.4 0 0 0 2.416 1.08c12.348 5.501 24.814 12.849 35.75 21.074a227.21 227.21 0 0 1 2.584 1.96c.137.112.737.587 1.333 1.054s1.277 1.014 1.514 1.216.757.629 1.154.95c7.208 5.81 15.909 14.298 22.98 22.417.24.275.811.949 1.269 1.499.458.549.908 1.082 1 1.185.091.102.366.44.611.751.244.31 1.018 1.277 1.719 2.148l1.473 1.833c3.008 3.781 7.989 10.93 11.148 16 1.312 2.107 3.632 6.004 3.632 6.103 0 .039.174.35.388.692.362.581 1.017 1.769 2.411 4.372.32.596 1.274 2.472 2.121 4.168 1.356 2.719 1.919 3.909 3.696 7.827.522 1.152 2.81 6.632 3.116 7.464.126.343.64 1.712 1.141 3.041 1.693 4.482 4.332 12.755 5.343 16.75.14.55.375 1.45.523 2 .984 3.658 2.572 11.223 3.252 15.5.488 3.064.674 4.299.828 5.5.678 5.275.791 6.387 1.295 12.667.402 5.009.4 20.194-.003 25.166-.777 9.591-1.39 14.336-2.951 22.834-.557 3.029-1.892 8.951-2.556 11.333a77.292 77.292 0 0 0-.441 1.667c-1.069 4.282-4.3 14.257-5.991 18.5-3.155 7.914-6.736 15.785-9.294 20.429-.274.497-.86 1.579-1.302 2.404a64.715 64.715 0 0 1-1.439 2.545c-.351.574-.637 1.081-.637 1.126 0 .046-.375.681-.833 1.412-.459.732-.834 1.371-.834 1.421 0 .113-2.035 3.343-4.147 6.579-1.572 2.411-4.553 6.651-6.209 8.834-2.933 3.865-3.198 4.205-4.946 6.333l-1.163 1.417c-.582.712-2.94 3.504-3.027 3.583-.05.046-.384.421-.743.833-3.738 4.303-11.962 12.527-16.265 16.265-.412.359-.787.693-.833.743-.079.087-2.871 2.445-3.583 3.027l-1.417 1.163c-2.128 1.748-2.468 2.013-6.333 4.946-2.183 1.656-6.423 4.637-8.834 6.209-3.236 2.112-6.466 4.147-6.579 4.147-.05 0-.689.375-1.421.834-.731.458-1.366.833-1.412.833-.045 0-.552.286-1.126.637-.575.35-1.72.998-2.545 1.439-.825.442-1.901 1.024-2.391 1.294s-1.99 1.039-3.333 1.71c-5.644 2.818-10.161 4.822-17.109 7.592-4.243 1.691-14.218 4.922-18.5 5.991-.459.115-1.209.313-1.667.441-6.32 1.761-16.358 3.628-24.917 4.636-8 .941-12.029 1.155-21.833 1.155-9.626 0-14.883-.277-21.917-1.155-4.446-.555-4.693-.59-8.833-1.249-10.723-1.705-23.93-5.221-34.25-9.118a699.981 699.981 0 0 0-3.041-1.141c-.832-.306-6.312-2.594-7.464-3.116-3.918-1.777-5.108-2.34-7.827-3.696a240.114 240.114 0 0 1-4.168-2.121c-2.603-1.394-3.791-2.049-4.372-2.411-.342-.214-.652-.388-.69-.388-.249 0-7-4.157-10.521-6.479-5.025-3.313-12.61-8.924-15.688-11.604a19.11 19.11 0 0 0-.504-.417c-5.729-4.595-14.841-13.395-20.54-19.836l-1.838-2.081c-.242-.275-.963-1.137-1.601-1.916-.638-.78-1.236-1.501-1.328-1.603-.28-.309-1.181-1.419-2.081-2.564a453.79 453.79 0 0 0-1.053-1.334c-10.731-13.416-21.143-32.08-27.612-49.499-.29-.78-.603-1.602-.696-1.829-.271-.66-2.639-7.817-2.979-9.005l-.717-2.5c-.943-3.286-2.174-8.05-2.605-10.083a59.64 59.64 0 0 0-.424-1.833c-.116-.459-.301-1.321-.41-1.917s-.301-1.571-.426-2.167c-.945-4.494-2.046-12.084-2.576-17.75-.677-7.229-.736-8.688-.738-18.083-.002-11.033.248-15.051 1.58-25.417.9-6.999 2.962-17.053 5.008-24.416.958-3.449 3.711-12.118 4.286-13.5.096-.229.513-1.327.928-2.44 2.474-6.641 7.05-16.797 9.826-21.81.203-.367.634-1.154.958-1.75.526-.967 2.797-4.977 3.228-5.698.093-.155.42-.712.729-1.239.308-.527 1.32-2.149 2.25-3.605a305.662 305.662 0 0 0 1.856-2.931c1.042-1.781 7.935-11.267 9.902-13.629.237-.284.544-.66.681-.834 5.44-6.892 14.691-16.554 22.084-23.064a515.45 515.45 0 0 1 1.5-1.318c.559-.488 4.321-3.627 4.814-4.016.174-.137.55-.444.834-.681 4.335-3.61 14.747-10.844 20.154-14.003a194.58 194.58 0 0 0 1.25-.734c.721-.431 4.731-2.702 5.698-3.228.596-.324 1.383-.755 1.75-.958 5.013-2.776 15.169-7.352 21.81-9.826a130.93 130.93 0 0 0 2.44-.928c.493-.205 7.703-2.591 9.5-3.144 7.963-2.448 20.17-5.09 28.416-6.15 4.706-.605 5.234-.66 11.5-1.203 5.341-.464 21.354-.559 25.75-.153m-92.5 100.68v37h55.5v-12.5h-41.333v-18.5h36v-12.5h-36V89.338h40V77.005h-54.167v37m61.5-30.667v6.334h23v61.333h14.334V89.672h23V77.005h-60.334v6.333m70.167 30.667v37h46.167v-13h-31.834v-61h-14.333v37m-147.92 56.431c-.458.032-2.671.137-4.916.234-7.557.327-12.003.701-20 1.684-10.545 1.295-18.778 3.676-20.984 6.069l-.683.741v14.884c0 16.125-.055 15.065.828 15.969 1.772 1.816 7.591 3.723 15.422 5.054 3.14.534 4.553.747 6.167.93.916.104 2.566.295 3.666.423 1.1.129 2.975.312 4.167.407s3.112.251 4.267.345c10.519.865 32.944.868 43.023.007 1.032-.088 3.039-.252 4.46-.363 1.421-.112 3.47-.322 4.553-.467l1.97-.265.628-1.501c.955-2.284 2.607-5.472 3.928-7.582.668-1.065 1.67-2.582 1.762-2.667.05-.046.549-.721 1.109-1.5.559-.779 1.156-1.579 1.325-1.777.17-.199.451-.536.626-.75 3.382-4.137 9.005-9.101 13.474-11.895l.791-.494v-4.22c.001-4.444-.017-4.564-.811-5.418-2.107-2.264-10.549-4.664-20.855-5.93-7.565-.929-10.1-1.151-19.5-1.701-2.877-.169-22.571-.343-24.417-.217m173.17.247c-23.421.895-40.084 3.832-44.042 7.764l-.875.87.004 4.719.003 4.719 1.773 1.25c.975.688 1.855 1.326 1.955 1.419s.52.43.932.748c6.784 5.239 13.751 14.45 17.151 22.678l.522 1.261 2.205.279c3.699.468 9.52.955 15.705 1.316 4.975.289 26.692.289 31.667 0 5.832-.34 12.197-.865 15.583-1.285l3.417-.422c2.069-.253 5.339-.795 8.167-1.354 2.349-.464 6.551-1.583 7.833-2.086 1.415-.555 3.442-1.564 3.786-1.885.198-.185.411-.336.473-.336s.31-.285.552-.634l.439-.634v-29.753l-.875-.87c-1.004-.997-2.897-1.997-5.125-2.706-.413-.131-.989-.316-1.281-.411-1.963-.637-7.4-1.8-10.469-2.24-1.008-.145-1.946-.295-2.083-.333-.455-.127-6.16-.776-11-1.251-8.338-.818-26.063-1.219-36.417-.823m-147.17 3.232c7.662.481 11.276.798 15.334 1.347 1.008.136 2.433.327 3.166.424 1.229.163 2.365.355 5 .843 21.683 4.022 11.719 10.329-19.833 12.553-11.656.822-31.044.789-41.167-.071-1.1-.094-2.975-.252-4.166-.352-17.879-1.499-28.942-5.13-25.321-8.31 1.604-1.408 5.889-2.922 10.821-3.822 2.96-.541 3.784-.68 5-.841l3.166-.419c5.517-.733 13.945-1.378 20.917-1.602 6.091-.195 22.384-.045 27.083.25m172.83.071l5.666.354c4.062.254 8.911.756 14.417 1.49 13.221 1.763 19.429 5.057 14.917 7.915-2.66 1.684-9.378 3.359-17.084 4.26-.779.091-1.566.199-1.75.24-.968.215-9.976.98-15.25 1.294-4.868.291-26.279.291-31.25.001-14.52-.848-24.71-2.29-30.867-4.367-7.457-2.515-6.204-5.394 3.375-7.756 1.34-.33 2.823-.666 3.297-.747 9.175-1.557 15.251-2.191 25.529-2.666 2.108-.097 4.208-.203 4.666-.234 1.828-.126 21.681.05 24.334.216m-107.17 13.123c-9.871.783-21.315 5.621-28.5 12.049-14.796 13.238-20.714 31.728-16.22 50.68 3.396 14.325 13.703 27.091 27.034 33.486 3.159 1.516 4.81 2.153 8.436 3.26 6.161 1.881 14.894 2.371 22 1.235 12.098-1.934 23.76-8.68 31.232-18.064.438-.55.918-1.15 1.066-1.333 8.076-9.954 11.894-25.492 9.605-39.084-1.015-6.021-3.398-12.732-5.964-16.798-.242-.382-.439-.736-.439-.786 0-.196-3.366-5.091-3.911-5.687-.095-.103-.51-.604-.922-1.113-2.459-3.031-8.599-8.414-11.433-10.022a80.24 80.24 0 0 1-1.567-.935c-4.495-2.742-10.914-5.191-16.084-6.136-3.639-.666-4.277-.721-8.833-.769-2.567-.027-5.042-.019-5.5.017m-12.722 22.66c.281.146 4.295 4.05 8.919 8.677l8.408 8.413 8.364-8.372c9.164-9.171 8.945-8.98 10.299-8.981 1.28-.001 1.594.237 5.569 4.23 5.776 5.803 6.23 4.339-4.766 15.354-4.668 4.677-8.488 8.558-8.488 8.625s3.745 3.866 8.322 8.442c9.461 9.458 9.631 9.684 8.681 11.523-.38.737-7.379 7.649-8.097 7.997-1.905.923-1.8 1.002-11.447-8.634l-8.457-8.449-8.543 8.524c-11.102 11.078-9.637 10.658-15.739 4.515-3.944-3.971-4.238-4.392-3.96-5.684.221-1.027.649-1.495 8.977-9.812l8.412-8.401-8.256-8.241c-9.052-9.036-9.115-9.108-9.115-10.52 0-1.222.085-1.332 4.204-5.445 4.263-4.258 4.978-4.658 6.713-3.761m-123.81 6.576c-1.888 1.234-1.716-.43-1.716 16.611v14.829l.453.581c1.142 1.465 4.722 3.084 9.13 4.131.459.109 1.246.297 1.75.419.504.121 1.404.309 2 .418s1.459.273 1.917.364c2.371.473 9.962 1.485 13.5 1.8 10.318.92 14.426 1.082 27.333 1.083 13.659 0 18.907-.235 29.89-1.339.984-.099 1.049-.131.943-.463-.92-2.894-1.847-7.426-2.273-11.107-.45-3.883-.153-12.564.533-15.627.222-.987.281-.964-1.971-.739-18.783 1.884-44.086 1.516-61.372-.891-1.93-.269-5.827-.949-7-1.221-2.557-.593-3.253-.78-4.78-1.279-5.708-1.868-6.622-3.845-2.726-5.896l1.237-.651-.657-.175c-.361-.096-1.07-.281-1.574-.412s-1.499-.434-2.212-.674c-.712-.239-1.312-.435-1.334-.435s-.504.303-1.071.673m280.53.075c-.917.298-2.145.684-2.729.858l-1.063.316 1.276.648c5.701 2.893-.193 6.353-14.067 8.258-4.977.684-5.118.7-10.084 1.184-14.488 1.411-39.06 1.249-53.094-.35-2.264-.258-2.129-.306-1.965.713.743 4.631.976 11.685.51 15.458-.514 4.153-1.107 7.272-1.883 9.901-.268.909-.462 1.677-.432 1.707.073.073 2.68.35 5.281.56 1.146.093 2.271.205 2.5.248 6.107 1.158 37.977 1.112 49.667-.07.87-.088 2.483-.245 3.583-.348 13.608-1.274 24.214-4.011 26.671-6.881l.579-.677v-29.72l-.458-.589c-.476-.611-2.127-1.813-2.444-1.778-.1.011-.931.264-1.848.562m-280.33 38.648c-.459.301-1.077.825-1.375 1.165l-.542.617v14.849c0 14.597.006 14.859.336 15.394 1.306 2.113 7.634 4.331 16.331 5.724l2.583.418c.825.134 2.25.329 3.167.433.916.104 2.566.294 3.666.422 16.856 1.96 43.145 1.96 60 0 1.1-.128 2.75-.318 3.667-.422s2.342-.299 3.167-.433l2.583-.418c7.394-1.184 13.094-2.966 15.542-4.857.837-.647.844-.631-.917-1.805-.848-.566-1.735-1.187-1.97-1.381-.236-.194-.683-.54-.993-.769-5.358-3.958-11.114-10.514-14.817-16.875-1.169-2.009-1.161-2.005-3.114-1.639-1.729.324-9.332 1.06-13.814 1.337-20.296 1.253-43.153.418-57.167-2.09-2.637-.472-3.357-.62-4.917-1.009-8.694-2.169-10.688-4.637-5.671-7.017l.911-.433-1.911-.53c-1.649-.456-2.375-.682-3.662-1.139-.138-.049-.625.157-1.083.458m281.66-.154c-.271.113-1.354.45-2.408.749-1.055.298-2.104.599-2.334.667-.38.114-.316.174.747.692 5.766 2.807.604 6.172-12.497 8.146-.733.11-1.738.268-2.234.351-1.751.293-8.945 1.04-12.599 1.308-6.951.51-10.04.595-21.667.595-11.669 0-13.31-.046-21.333-.59-3.567-.242-9.287-.834-12.167-1.259-.916-.135-1.891-.278-2.166-.317-.484-.068-.539-.002-1.717 2.048-3.736 6.503-9.238 12.618-15.757 17.511-.994.746-1.857 1.359-1.917 1.362-.478.023-.708.481-.472.938.96 1.857 6.038 3.879 13.279 5.289 7.039 1.371 15.794 2.345 26.667 2.969 5.089.292 26.744.292 31.833 0 12.377-.71 21.491-1.809 29.334-3.537 4.09-.902 7.978-2.358 9.491-3.555 1.467-1.161 1.34.393 1.341-16.363l.001-14.837-.513-.622c-1.007-1.222-2.189-1.849-2.912-1.545"/><path d="M191.67.103c-4.789.158-13.77.958-18.5 1.647-.871.127-2.221.316-3 .419-.78.104-1.979.288-2.667.408-.687.121-1.775.309-2.417.417-9.17 1.552-20.3 4.396-29.166 7.454-.917.316-1.93.653-2.25.748-.321.095-1.221.419-2 .72-.78.3-2.354.899-3.5 1.33-2.267.853-6.89 2.752-8.75 3.594l-1.917.866c-8.445 3.795-18.787 9.443-25.833 14.109-1.33.88-2.482 1.628-2.562 1.663-.134.058-3.191 2.164-4.087 2.815-.22.16-.568.403-.775.54-2.045 1.363-11.205 8.378-11.743 8.993-.046.052-.496.431-1 .84-1.152.936-4.455 3.808-5.667 4.927l-2.333 2.156c-1.83 1.692-8.059 7.921-9.751 9.751l-2.156 2.333c-1.119 1.212-3.991 4.515-4.927 5.667-.409.504-.788.954-.84 1-.615.538-7.63 9.698-8.993 11.743-.137.207-.38.555-.54.775-.651.896-2.757 3.953-2.815 4.087-.035.08-.783 1.232-1.663 2.562-4.666 7.046-10.314 17.388-14.109 25.833l-.866 1.917c-.842 1.86-2.741 6.483-3.594 8.75-.431 1.146-1.03 2.72-1.33 3.5-.301.779-.625 1.679-.72 2-.095.32-.432 1.333-.748 2.25C7.41 144.734 4.588 155.76 3.008 165c-.473 2.764-.678 4.034-.823 5.083-.088.642-.277 1.992-.418 3-.559 3.987-.858 6.873-1.38 13.334-.408 5.036-.408 22.13 0 27.166.624 7.728 1.363 14.088 2.207 19 .49 2.853.578 3.343.979 5.417.221 1.146.436 2.271.479 2.5.398 2.153 2.097 9.31 2.69 11.333.121.413.425 1.5.674 2.417.534 1.958 1.166 4.1 1.623 5.5a128 128 0 0 1 .629 2c.267.878 2.114 6.189 2.778 7.987 1.551 4.197 3.767 9.503 6.095 14.596 2.761 6.042 7.423 14.651 11.471 21.185 1.914 3.091 7.253 11.001 8.408 12.457.119.151 1.061 1.4 2.093 2.775 1.031 1.375 2.07 2.728 2.308 3.006.237.278.657.796.932 1.15.481.618 1.306 1.643 1.889 2.345 1.404 1.69 2.941 3.515 3.017 3.582.052.046.617.684 1.257 1.417s1.508 1.708 1.93 2.167l1.991 2.166c1.567 1.709 7.82 7.962 9.666 9.666 2.149 1.984 2.798 2.571 4.25 3.838a89.141 89.141 0 0 1 1.417 1.251c.045.049.795.684 1.666 1.412s1.621 1.365 1.667 1.415.908.75 1.917 1.557c1.008.806 1.947 1.559 2.087 1.672s.703.539 1.25.947c.548.409 1.091.832 1.206.941.116.109.866.668 1.667 1.242s1.494 1.089 1.54 1.144c.18.217 6.232 4.388 8.75 6.029a196.21 196.21 0 0 0 27.166 14.84l2.38 1.067c.484.218.919.396.966.396.046 0 .588.236 1.203.523.615.288 1.568.692 2.118.898.55.205 2.275.863 3.833 1.461 5.936 2.28 9.151 3.361 15.917 5.352 6.983 2.055 17.625 4.417 24.083 5.347 1.009.145 2.284.332 2.834.416 4.062.619 8.376 1.074 15.333 1.619 5.208.408 21.436.406 26.5-.002 8.951-.722 11.296-.989 18.833-2.14 3.065-.468 9.521-1.718 12.417-2.405 2.976-.706 6.543-1.587 7.417-1.832 8.572-2.408 15.818-4.808 21.862-7.242l2.138-.862c.458-.185 1.229-.516 1.713-.735s.913-.398.953-.398c.08 0 1.375-.575 3.042-1.349.574-.266 1.074-.484 1.112-.484.241 0 9.27-4.442 11.18-5.5.458-.254 1.32-.722 1.916-1.041 1.65-.883 4.769-2.659 6.167-3.511.688-.419 1.662-1.002 2.167-1.295 2.54-1.478 9.763-6.307 12.937-8.65.561-.414 1.642-1.203 2.402-1.753s1.464-1.075 1.563-1.167c.1-.092.631-.499 1.181-.906.55-.406 1.037-.781 1.083-.834.046-.052.384-.319.75-.592.732-.544 6.616-5.413 6.75-5.584.046-.059.684-.623 1.417-1.254s1.671-1.46 2.083-1.844l2.25-2.087c1.935-1.794 7.772-7.631 9.566-9.566l2.087-2.25c.384-.412 1.213-1.35 1.844-2.083s1.195-1.371 1.254-1.417c.171-.134 5.04-6.018 5.584-6.75.273-.366.54-.704.592-.75.053-.046.428-.533.834-1.083.407-.55.814-1.081.906-1.181.092-.099.617-.803 1.167-1.563s1.339-1.841 1.753-2.402c2.343-3.174 7.172-10.397 8.65-12.937.293-.505.876-1.479 1.295-2.167.852-1.398 2.628-4.517 3.511-6.167.319-.596.787-1.458 1.041-1.916 1.058-1.91 5.5-10.939 5.5-11.18 0-.038.218-.538.484-1.112.774-1.667 1.349-2.962 1.349-3.042 0-.04.179-.469.398-.953s.55-1.255.735-1.713l.862-2.138c2.434-6.044 4.834-13.29 7.242-21.862.245-.874 1.126-4.441 1.832-7.417.713-3.007 1.981-9.577 2.429-12.583.109-.734.3-1.971.423-2.75.124-.78.31-2.13.414-3 .104-.871.255-2.071.337-2.667.177-1.292.536-5.218.937-10.25.417-5.221.421-21.197.007-26.5-.528-6.749-1.125-12.424-1.621-15.417-.084-.504-.271-1.741-.415-2.75-.446-3.11-1.659-9.407-2.572-13.349-.776-3.352-2.034-8.219-2.774-10.734-1.991-6.766-3.072-9.981-5.352-15.917a649.54 649.54 0 0 1-1.463-3.838 29.185 29.185 0 0 0-.814-1.933c-.241-.51-.438-.971-.438-1.025 0-.053-.216-.571-.48-1.15-.264-.58-.782-1.729-1.151-2.554-4.202-9.402-9.092-18.353-14.839-27.166-1.641-2.518-5.812-8.57-6.029-8.75-.055-.046-.57-.739-1.144-1.54s-1.133-1.551-1.242-1.667c-.109-.115-.532-.658-.941-1.206-.408-.547-.834-1.11-.947-1.25s-.866-1.079-1.672-2.087c-.807-1.009-1.507-1.871-1.557-1.917s-.687-.796-1.415-1.667-1.363-1.621-1.412-1.666a89.141 89.141 0 0 1-1.251-1.417c-1.267-1.452-1.854-2.101-3.838-4.25-1.704-1.846-7.957-8.099-9.666-9.666l-2.166-1.991c-.459-.422-1.434-1.29-2.167-1.93s-1.371-1.205-1.417-1.257c-.067-.076-1.892-1.613-3.582-3.017a112.926 112.926 0 0 0-2.345-1.889 39.78 39.78 0 0 1-1.15-.932c-.278-.238-1.631-1.277-3.006-2.308a441.585 441.585 0 0 1-2.775-2.093c-1.456-1.155-9.366-6.494-12.457-8.408-6.535-4.049-15.185-8.733-21.185-11.47-5.533-2.526-10.127-4.444-14.596-6.096-1.798-.664-7.109-2.511-7.987-2.778a128 128 0 0 1-2-.629c-1.4-.457-3.542-1.089-5.5-1.623-.917-.249-2.004-.553-2.417-.674-2.744-.805-9.376-2.326-13.75-3.154-8.704-1.648-14.485-2.402-24.416-3.184-3.11-.245-17.636-.441-22-.298m20.166 13.222c.963.088 2.763.24 4 .337 6.593.515 14.588 1.615 20 2.753.596.125 1.571.317 2.167.426s1.458.294 1.917.41a59.64 59.64 0 0 0 1.833.424c2.033.431 6.797 1.662 10.083 2.605.779.223 1.904.545 2.5.714 1.192.339 8.336 2.703 9 2.979a89.3 89.3 0 0 0 1.834.699c1.726.641 7.828 3.078 8.75 3.494a721.4 721.4 0 0 0 2.416 1.08c12.348 5.501 24.814 12.849 35.75 21.074a227.21 227.21 0 0 1 2.584 1.96c.137.112.737.587 1.333 1.054s1.277 1.014 1.514 1.216.757.629 1.154.95c7.208 5.81 15.909 14.298 22.98 22.417.24.275.811.949 1.269 1.499.458.549.908 1.082 1 1.185.091.102.366.44.611.751.244.31 1.018 1.277 1.719 2.148l1.473 1.833c3.008 3.781 7.989 10.93 11.148 16 1.312 2.107 3.632 6.004 3.632 6.103 0 .039.174.35.388.692.362.581 1.017 1.769 2.411 4.372.32.596 1.274 2.472 2.121 4.168 1.356 2.719 1.919 3.909 3.696 7.827.522 1.152 2.81 6.632 3.116 7.464.126.343.64 1.712 1.141 3.041 1.693 4.482 4.332 12.755 5.343 16.75.14.55.375 1.45.523 2 .984 3.658 2.572 11.223 3.252 15.5.488 3.064.674 4.299.828 5.5.678 5.275.791 6.387 1.295 12.667.402 5.009.4 20.194-.003 25.166-.777 9.591-1.39 14.336-2.951 22.834-.557 3.029-1.892 8.951-2.556 11.333a77.292 77.292 0 0 0-.441 1.667c-1.069 4.282-4.3 14.257-5.991 18.5-3.155 7.914-6.736 15.785-9.294 20.429-.274.497-.86 1.579-1.302 2.404a64.715 64.715 0 0 1-1.439 2.545c-.351.574-.637 1.081-.637 1.126 0 .046-.375.681-.833 1.412-.459.732-.834 1.371-.834 1.421 0 .113-2.035 3.343-4.147 6.579-1.572 2.411-4.553 6.651-6.209 8.834-2.933 3.865-3.198 4.205-4.946 6.333l-1.163 1.417c-.582.712-2.94 3.504-3.027 3.583-.05.046-.384.421-.743.833-3.738 4.303-11.962 12.527-16.265 16.265-.412.359-.787.693-.833.743-.079.087-2.871 2.445-3.583 3.027l-1.417 1.163c-2.128 1.748-2.468 2.013-6.333 4.946-2.183 1.656-6.423 4.637-8.834 6.209-3.236 2.112-6.466 4.147-6.579 4.147-.05 0-.689.375-1.421.834-.731.458-1.366.833-1.412.833-.045 0-.552.286-1.126.637-.575.35-1.72.998-2.545 1.439-.825.442-1.901 1.024-2.391 1.294s-1.99 1.039-3.333 1.71c-5.644 2.818-10.161 4.822-17.109 7.592-4.243 1.691-14.218 4.922-18.5 5.991-.459.115-1.209.313-1.667.441-6.32 1.761-16.358 3.628-24.917 4.636-8 .941-12.029 1.155-21.833 1.155-9.626 0-14.883-.277-21.917-1.155-4.446-.555-4.693-.59-8.833-1.249-10.723-1.705-23.93-5.221-34.25-9.118a699.981 699.981 0 0 0-3.041-1.141c-.832-.306-6.312-2.594-7.464-3.116-3.918-1.777-5.108-2.34-7.827-3.696a240.114 240.114 0 0 1-4.168-2.121c-2.603-1.394-3.791-2.049-4.372-2.411-.342-.214-.652-.388-.69-.388-.249 0-7-4.157-10.521-6.479-5.025-3.313-12.61-8.924-15.688-11.604a19.11 19.11 0 0 0-.504-.417c-5.729-4.595-14.841-13.395-20.54-19.836l-1.838-2.081c-.242-.275-.963-1.137-1.601-1.916-.638-.78-1.236-1.501-1.328-1.603-.28-.309-1.181-1.419-2.081-2.564a453.79 453.79 0 0 0-1.053-1.334c-10.731-13.416-21.143-32.08-27.612-49.499-.29-.78-.603-1.602-.696-1.829-.271-.66-2.639-7.817-2.979-9.005l-.717-2.5c-.943-3.286-2.174-8.05-2.605-10.083a59.64 59.64 0 0 0-.424-1.833c-.116-.459-.301-1.321-.41-1.917s-.301-1.571-.426-2.167c-.945-4.494-2.046-12.084-2.576-17.75-.677-7.229-.736-8.688-.738-18.083-.002-11.033.248-15.051 1.58-25.417.9-6.999 2.962-17.053 5.008-24.416.958-3.449 3.711-12.118 4.286-13.5.096-.229.513-1.327.928-2.44 2.474-6.641 7.05-16.797 9.826-21.81.203-.367.634-1.154.958-1.75.526-.967 2.797-4.977 3.228-5.698.093-.155.42-.712.729-1.239.308-.527 1.32-2.149 2.25-3.605a305.662 305.662 0 0 0 1.856-2.931c1.042-1.781 7.935-11.267 9.902-13.629.237-.284.544-.66.681-.834 5.44-6.892 14.691-16.554 22.084-23.064a515.45 515.45 0 0 1 1.5-1.318c.559-.488 4.321-3.627 4.814-4.016.174-.137.55-.444.834-.681 4.335-3.61 14.747-10.844 20.154-14.003a194.58 194.58 0 0 0 1.25-.734c.721-.431 4.731-2.702 5.698-3.228.596-.324 1.383-.755 1.75-.958 5.013-2.776 15.169-7.352 21.81-9.826a130.93 130.93 0 0 0 2.44-.928c.493-.205 7.703-2.591 9.5-3.144 7.963-2.448 20.17-5.09 28.416-6.15 4.706-.605 5.234-.66 11.5-1.203 5.341-.464 21.354-.559 25.75-.153m-92.5 100.68v37h55.5v-12.5h-41.333v-18.5h36v-12.5h-36V89.338h40V77.005h-54.167v37m61.5-30.667v6.334h23v61.333h14.334V89.672h23V77.005h-60.334v6.333m70.167 30.667v37h46.167v-13h-31.834v-61h-14.333v37m-147.92 56.431c-.458.032-2.671.137-4.916.234-7.557.327-12.003.701-20 1.684-10.545 1.295-18.778 3.676-20.984 6.069l-.683.741v14.884c0 16.125-.055 15.065.828 15.969 1.772 1.816 7.591 3.723 15.422 5.054 3.14.534 4.553.747 6.167.93.916.104 2.566.295 3.666.423 1.1.129 2.975.312 4.167.407s3.112.251 4.267.345c10.519.865 32.944.868 43.023.007 1.032-.088 3.039-.252 4.46-.363 1.421-.112 3.47-.322 4.553-.467l1.97-.265.628-1.501c.955-2.284 2.607-5.472 3.928-7.582.668-1.065 1.67-2.582 1.762-2.667.05-.046.549-.721 1.109-1.5.559-.779 1.156-1.579 1.325-1.777.17-.199.451-.536.626-.75 3.382-4.137 9.005-9.101 13.474-11.895l.791-.494v-4.22c.001-4.444-.017-4.564-.811-5.418-2.107-2.264-10.549-4.664-20.855-5.93-7.565-.929-10.1-1.151-19.5-1.701-2.877-.169-22.571-.343-24.417-.217m173.17.247c-23.421.895-40.084 3.832-44.042 7.764l-.875.87.004 4.719.003 4.719 1.773 1.25c.975.688 1.855 1.326 1.955 1.419s.52.43.932.748c6.784 5.239 13.751 14.45 17.151 22.678l.522 1.261 2.205.279c3.699.468 9.52.955 15.705 1.316 4.975.289 26.692.289 31.667 0 5.832-.34 12.197-.865 15.583-1.285l3.417-.422c2.069-.253 5.339-.795 8.167-1.354 2.349-.464 6.551-1.583 7.833-2.086 1.415-.555 3.442-1.564 3.786-1.885.198-.185.411-.336.473-.336s.31-.285.552-.634l.439-.634v-29.753l-.875-.87c-1.004-.997-2.897-1.997-5.125-2.706-.413-.131-.989-.316-1.281-.411-1.963-.637-7.4-1.8-10.469-2.24-1.008-.145-1.946-.295-2.083-.333-.455-.127-6.16-.776-11-1.251-8.338-.818-26.063-1.219-36.417-.823m-147.17 3.232c7.662.481 11.276.798 15.334 1.347 1.008.136 2.433.327 3.166.424 1.229.163 2.365.355 5 .843 21.683 4.022 11.719 10.329-19.833 12.553-11.656.822-31.044.789-41.167-.071-1.1-.094-2.975-.252-4.166-.352-17.879-1.499-28.942-5.13-25.321-8.31 1.604-1.408 5.889-2.922 10.821-3.822 2.96-.541 3.784-.68 5-.841l3.166-.419c5.517-.733 13.945-1.378 20.917-1.602 6.091-.195 22.384-.045 27.083.25m172.83.071l5.666.354c4.062.254 8.911.756 14.417 1.49 13.221 1.763 19.429 5.057 14.917 7.915-2.66 1.684-9.378 3.359-17.084 4.26-.779.091-1.566.199-1.75.24-.968.215-9.976.98-15.25 1.294-4.868.291-26.279.291-31.25.001-14.52-.848-24.71-2.29-30.867-4.367-7.457-2.515-6.204-5.394 3.375-7.756 1.34-.33 2.823-.666 3.297-.747 9.175-1.557 15.251-2.191 25.529-2.666 2.108-.097 4.208-.203 4.666-.234 1.828-.126 21.681.05 24.334.216m-107.17 13.123c-9.871.783-21.315 5.621-28.5 12.049-14.796 13.238-20.714 31.728-16.22 50.68 3.396 14.325 13.703 27.091 27.034 33.486 3.159 1.516 4.81 2.153 8.436 3.26 6.161 1.881 14.894 2.371 22 1.235 12.098-1.934 23.76-8.68 31.232-18.064.438-.55.918-1.15 1.066-1.333 8.076-9.954 11.894-25.492 9.605-39.084-1.015-6.021-3.398-12.732-5.964-16.798-.242-.382-.439-.736-.439-.786 0-.196-3.366-5.091-3.911-5.687-.095-.103-.51-.604-.922-1.113-2.459-3.031-8.599-8.414-11.433-10.022a80.24 80.24 0 0 1-1.567-.935c-4.495-2.742-10.914-5.191-16.084-6.136-3.639-.666-4.277-.721-8.833-.769-2.567-.027-5.042-.019-5.5.017m-12.722 22.66c.281.146 4.295 4.05 8.919 8.677l8.408 8.413 8.364-8.372c9.164-9.171 8.945-8.98 10.299-8.981 1.28-.001 1.594.237 5.569 4.23 5.776 5.803 6.23 4.339-4.766 15.354-4.668 4.677-8.488 8.558-8.488 8.625s3.745 3.866 8.322 8.442c9.461 9.458 9.631 9.684 8.681 11.523-.38.737-7.379 7.649-8.097 7.997-1.905.923-1.8 1.002-11.447-8.634l-8.457-8.449-8.543 8.524c-11.102 11.078-9.637 10.658-15.739 4.515-3.944-3.971-4.238-4.392-3.96-5.684.221-1.027.649-1.495 8.977-9.812l8.412-8.401-8.256-8.241c-9.052-9.036-9.115-9.108-9.115-10.52 0-1.222.085-1.332 4.204-5.445 4.263-4.258 4.978-4.658 6.713-3.761m-123.81 6.576c-1.888 1.234-1.716-.43-1.716 16.611v14.829l.453.581c1.142 1.465 4.722 3.084 9.13 4.131.459.109 1.246.297 1.75.419.504.121 1.404.309 2 .418s1.459.273 1.917.364c2.371.473 9.962 1.485 13.5 1.8 10.318.92 14.426 1.082 27.333 1.083 13.659 0 18.907-.235 29.89-1.339.984-.099 1.049-.131.943-.463-.92-2.894-1.847-7.426-2.273-11.107-.45-3.883-.153-12.564.533-15.627.222-.987.281-.964-1.971-.739-18.783 1.884-44.086 1.516-61.372-.891-1.93-.269-5.827-.949-7-1.221-2.557-.593-3.253-.78-4.78-1.279-5.708-1.868-6.622-3.845-2.726-5.896l1.237-.651-.657-.175c-.361-.096-1.07-.281-1.574-.412s-1.499-.434-2.212-.674c-.712-.239-1.312-.435-1.334-.435s-.504.303-1.071.673m280.53.075c-.917.298-2.145.684-2.729.858l-1.063.316 1.276.648c5.701 2.893-.193 6.353-14.067 8.258-4.977.684-5.118.7-10.084 1.184-14.488 1.411-39.06 1.249-53.094-.35-2.264-.258-2.129-.306-1.965.713.743 4.631.976 11.685.51 15.458-.514 4.153-1.107 7.272-1.883 9.901-.268.909-.462 1.677-.432 1.707.073.073 2.68.35 5.281.56 1.146.093 2.271.205 2.5.248 6.107 1.158 37.977 1.112 49.667-.07.87-.088 2.483-.245 3.583-.348 13.608-1.274 24.214-4.011 26.671-6.881l.579-.677v-29.72l-.458-.589c-.476-.611-2.127-1.813-2.444-1.778-.1.011-.931.264-1.848.562m-280.33 38.648c-.459.301-1.077.825-1.375 1.165l-.542.617v14.849c0 14.597.006 14.859.336 15.394 1.306 2.113 7.634 4.331 16.331 5.724l2.583.418c.825.134 2.25.329 3.167.433.916.104 2.566.294 3.666.422 16.856 1.96 43.145 1.96 60 0 1.1-.128 2.75-.318 3.667-.422s2.342-.299 3.167-.433l2.583-.418c7.394-1.184 13.094-2.966 15.542-4.857.837-.647.844-.631-.917-1.805-.848-.566-1.735-1.187-1.97-1.381-.236-.194-.683-.54-.993-.769-5.358-3.958-11.114-10.514-14.817-16.875-1.169-2.009-1.161-2.005-3.114-1.639-1.729.324-9.332 1.06-13.814 1.337-20.296 1.253-43.153.418-57.167-2.09-2.637-.472-3.357-.62-4.917-1.009-8.694-2.169-10.688-4.637-5.671-7.017l.911-.433-1.911-.53c-1.649-.456-2.375-.682-3.662-1.139-.138-.049-.625.157-1.083.458m281.66-.154c-.271.113-1.354.45-2.408.749-1.055.298-2.104.599-2.334.667-.38.114-.316.174.747.692 5.766 2.807.604 6.172-12.497 8.146-.733.11-1.738.268-2.234.351-1.751.293-8.945 1.04-12.599 1.308-6.951.51-10.04.595-21.667.595-11.669 0-13.31-.046-21.333-.59-3.567-.242-9.287-.834-12.167-1.259-.916-.135-1.891-.278-2.166-.317-.484-.068-.539-.002-1.717 2.048-3.736 6.503-9.238 12.618-15.757 17.511-.994.746-1.857 1.359-1.917 1.362-.478.023-.708.481-.472.938.96 1.857 6.038 3.879 13.279 5.289 7.039 1.371 15.794 2.345 26.667 2.969 5.089.292 26.744.292 31.833 0 12.377-.71 21.491-1.809 29.334-3.537 4.09-.902 7.978-2.358 9.491-3.555 1.467-1.161 1.34.393 1.341-16.363l.001-14.837-.513-.622c-1.007-1.222-2.189-1.849-2.912-1.545"/><path d="M191.67.103c-4.789.158-13.77.958-18.5 1.647-.871.127-2.221.316-3 .419-.78.104-1.979.288-2.667.408-.687.121-1.775.309-2.417.417-9.17 1.552-20.3 4.396-29.166 7.454-.917.316-1.93.653-2.25.748-.321.095-1.221.419-2 .72-.78.3-2.354.899-3.5 1.33-2.267.853-6.89 2.752-8.75 3.594l-1.917.866c-8.445 3.795-18.787 9.443-25.833 14.109-1.33.88-2.482 1.628-2.562 1.663-.134.058-3.191 2.164-4.087 2.815-.22.16-.568.403-.775.54-2.045 1.363-11.205 8.378-11.743 8.993-.046.052-.496.431-1 .84-1.152.936-4.455 3.808-5.667 4.927l-2.333 2.156c-1.83 1.692-8.059 7.921-9.751 9.751l-2.156 2.333c-1.119 1.212-3.991 4.515-4.927 5.667-.409.504-.788.954-.84 1-.615.538-7.63 9.698-8.993 11.743-.137.207-.38.555-.54.775-.651.896-2.757 3.953-2.815 4.087-.035.08-.783 1.232-1.663 2.562-4.666 7.046-10.314 17.388-14.109 25.833l-.866 1.917c-.842 1.86-2.741 6.483-3.594 8.75-.431 1.146-1.03 2.72-1.33 3.5-.301.779-.625 1.679-.72 2-.095.32-.432 1.333-.748 2.25C7.41 144.734 4.588 155.76 3.008 165c-.473 2.764-.678 4.034-.823 5.083-.088.642-.277 1.992-.418 3-.559 3.987-.858 6.873-1.38 13.334-.408 5.036-.408 22.13 0 27.166.624 7.728 1.363 14.088 2.207 19 .49 2.853.578 3.343.979 5.417.221 1.146.436 2.271.479 2.5.398 2.153 2.097 9.31 2.69 11.333.121.413.425 1.5.674 2.417.534 1.958 1.166 4.1 1.623 5.5a128 128 0 0 1 .629 2c.267.878 2.114 6.189 2.778 7.987 1.551 4.197 3.767 9.503 6.095 14.596 2.761 6.042 7.423 14.651 11.471 21.185 1.914 3.091 7.253 11.001 8.408 12.457.119.151 1.061 1.4 2.093 2.775 1.031 1.375 2.07 2.728 2.308 3.006.237.278.657.796.932 1.15.481.618 1.306 1.643 1.889 2.345 1.404 1.69 2.941 3.515 3.017 3.582.052.046.617.684 1.257 1.417s1.508 1.708 1.93 2.167l1.991 2.166c1.567 1.709 7.82 7.962 9.666 9.666 2.149 1.984 2.798 2.571 4.25 3.838a89.141 89.141 0 0 1 1.417 1.251c.045.049.795.684 1.666 1.412s1.621 1.365 1.667 1.415.908.75 1.917 1.557c1.008.806 1.947 1.559 2.087 1.672s.703.539 1.25.947c.548.409 1.091.832 1.206.941.116.109.866.668 1.667 1.242s1.494 1.089 1.54 1.144c.18.217 6.232 4.388 8.75 6.029a196.21 196.21 0 0 0 27.166 14.84l2.38 1.067c.484.218.919.396.966.396.046 0 .588.236 1.203.523.615.288 1.568.692 2.118.898.55.205 2.275.863 3.833 1.461 5.936 2.28 9.151 3.361 15.917 5.352 6.983 2.055 17.625 4.417 24.083 5.347 1.009.145 2.284.332 2.834.416 4.062.619 8.376 1.074 15.333 1.619 5.208.408 21.436.406 26.5-.002 8.951-.722 11.296-.989 18.833-2.14 3.065-.468 9.521-1.718 12.417-2.405 2.976-.706 6.543-1.587 7.417-1.832 8.572-2.408 15.818-4.808 21.862-7.242l2.138-.862c.458-.185 1.229-.516 1.713-.735s.913-.398.953-.398c.08 0 1.375-.575 3.042-1.349.574-.266 1.074-.484 1.112-.484.241 0 9.27-4.442 11.18-5.5.458-.254 1.32-.722 1.916-1.041 1.65-.883 4.769-2.659 6.167-3.511.688-.419 1.662-1.002 2.167-1.295 2.54-1.478 9.763-6.307 12.937-8.65.561-.414 1.642-1.203 2.402-1.753s1.464-1.075 1.563-1.167c.1-.092.631-.499 1.181-.906.55-.406 1.037-.781 1.083-.834.046-.052.384-.319.75-.592.732-.544 6.616-5.413 6.75-5.584.046-.059.684-.623 1.417-1.254s1.671-1.46 2.083-1.844l2.25-2.087c1.935-1.794 7.772-7.631 9.566-9.566l2.087-2.25c.384-.412 1.213-1.35 1.844-2.083s1.195-1.371 1.254-1.417c.171-.134 5.04-6.018 5.584-6.75.273-.366.54-.704.592-.75.053-.046.428-.533.834-1.083.407-.55.814-1.081.906-1.181.092-.099.617-.803 1.167-1.563s1.339-1.841 1.753-2.402c2.343-3.174 7.172-10.397 8.65-12.937.293-.505.876-1.479 1.295-2.167.852-1.398 2.628-4.517 3.511-6.167.319-.596.787-1.458 1.041-1.916 1.058-1.91 5.5-10.939 5.5-11.18 0-.038.218-.538.484-1.112.774-1.667 1.349-2.962 1.349-3.042 0-.04.179-.469.398-.953s.55-1.255.735-1.713l.862-2.138c2.434-6.044 4.834-13.29 7.242-21.862.245-.874 1.126-4.441 1.832-7.417.713-3.007 1.981-9.577 2.429-12.583.109-.734.3-1.971.423-2.75.124-.78.31-2.13.414-3 .104-.871.255-2.071.337-2.667.177-1.292.536-5.218.937-10.25.417-5.221.421-21.197.007-26.5-.528-6.749-1.125-12.424-1.621-15.417-.084-.504-.271-1.741-.415-2.75-.446-3.11-1.659-9.407-2.572-13.349-.776-3.352-2.034-8.219-2.774-10.734-1.991-6.766-3.072-9.981-5.352-15.917a649.54 649.54 0 0 1-1.463-3.838 29.185 29.185 0 0 0-.814-1.933c-.241-.51-.438-.971-.438-1.025 0-.053-.216-.571-.48-1.15-.264-.58-.782-1.729-1.151-2.554-4.202-9.402-9.092-18.353-14.839-27.166-1.641-2.518-5.812-8.57-6.029-8.75-.055-.046-.57-.739-1.144-1.54s-1.133-1.551-1.242-1.667c-.109-.115-.532-.658-.941-1.206-.408-.547-.834-1.11-.947-1.25s-.866-1.079-1.672-2.087c-.807-1.009-1.507-1.871-1.557-1.917s-.687-.796-1.415-1.667-1.363-1.621-1.412-1.666a89.141 89.141 0 0 1-1.251-1.417c-1.267-1.452-1.854-2.101-3.838-4.25-1.704-1.846-7.957-8.099-9.666-9.666l-2.166-1.991c-.459-.422-1.434-1.29-2.167-1.93s-1.371-1.205-1.417-1.257c-.067-.076-1.892-1.613-3.582-3.017a112.926 112.926 0 0 0-2.345-1.889 39.78 39.78 0 0 1-1.15-.932c-.278-.238-1.631-1.277-3.006-2.308a441.585 441.585 0 0 1-2.775-2.093c-1.456-1.155-9.366-6.494-12.457-8.408-6.535-4.049-15.185-8.733-21.185-11.47-5.533-2.526-10.127-4.444-14.596-6.096-1.798-.664-7.109-2.511-7.987-2.778a128 128 0 0 1-2-.629c-1.4-.457-3.542-1.089-5.5-1.623-.917-.249-2.004-.553-2.417-.674-2.744-.805-9.376-2.326-13.75-3.154-8.704-1.648-14.485-2.402-24.416-3.184-3.11-.245-17.636-.441-22-.298m20.166 13.222c.963.088 2.763.24 4 .337 6.593.515 14.588 1.615 20 2.753.596.125 1.571.317 2.167.426s1.458.294 1.917.41a59.64 59.64 0 0 0 1.833.424c2.033.431 6.797 1.662 10.083 2.605.779.223 1.904.545 2.5.714 1.192.339 8.336 2.703 9 2.979a89.3 89.3 0 0 0 1.834.699c1.726.641 7.828 3.078 8.75 3.494a721.4 721.4 0 0 0 2.416 1.08c12.348 5.501 24.814 12.849 35.75 21.074a227.21 227.21 0 0 1 2.584 1.96c.137.112.737.587 1.333 1.054s1.277 1.014 1.514 1.216.757.629 1.154.95c7.208 5.81 15.909 14.298 22.98 22.417.24.275.811.949 1.269 1.499.458.549.908 1.082 1 1.185.091.102.366.44.611.751.244.31 1.018 1.277 1.719 2.148l1.473 1.833c3.008 3.781 7.989 10.93 11.148 16 1.312 2.107 3.632 6.004 3.632 6.103 0 .039.174.35.388.692.362.581 1.017 1.769 2.411 4.372.32.596 1.274 2.472 2.121 4.168 1.356 2.719 1.919 3.909 3.696 7.827.522 1.152 2.81 6.632 3.116 7.464.126.343.64 1.712 1.141 3.041 1.693 4.482 4.332 12.755 5.343 16.75.14.55.375 1.45.523 2 .984 3.658 2.572 11.223 3.252 15.5.488 3.064.674 4.299.828 5.5.678 5.275.791 6.387 1.295 12.667.402 5.009.4 20.194-.003 25.166-.777 9.591-1.39 14.336-2.951 22.834-.557 3.029-1.892 8.951-2.556 11.333a77.292 77.292 0 0 0-.441 1.667c-1.069 4.282-4.3 14.257-5.991 18.5-3.155 7.914-6.736 15.785-9.294 20.429-.274.497-.86 1.579-1.302 2.404a64.715 64.715 0 0 1-1.439 2.545c-.351.574-.637 1.081-.637 1.126 0 .046-.375.681-.833 1.412-.459.732-.834 1.371-.834 1.421 0 .113-2.035 3.343-4.147 6.579-1.572 2.411-4.553 6.651-6.209 8.834-2.933 3.865-3.198 4.205-4.946 6.333l-1.163 1.417c-.582.712-2.94 3.504-3.027 3.583-.05.046-.384.421-.743.833-3.738 4.303-11.962 12.527-16.265 16.265-.412.359-.787.693-.833.743-.079.087-2.871 2.445-3.583 3.027l-1.417 1.163c-2.128 1.748-2.468 2.013-6.333 4.946-2.183 1.656-6.423 4.637-8.834 6.209-3.236 2.112-6.466 4.147-6.579 4.147-.05 0-.689.375-1.421.834-.731.458-1.366.833-1.412.833-.045 0-.552.286-1.126.637-.575.35-1.72.998-2.545 1.439-.825.442-1.901 1.024-2.391 1.294s-1.99 1.039-3.333 1.71c-5.644 2.818-10.161 4.822-17.109 7.592-4.243 1.691-14.218 4.922-18.5 5.991-.459.115-1.209.313-1.667.441-6.32 1.761-16.358 3.628-24.917 4.636-8 .941-12.029 1.155-21.833 1.155-9.626 0-14.883-.277-21.917-1.155-4.446-.555-4.693-.59-8.833-1.249-10.723-1.705-23.93-5.221-34.25-9.118a699.981 699.981 0 0 0-3.041-1.141c-.832-.306-6.312-2.594-7.464-3.116-3.918-1.777-5.108-2.34-7.827-3.696a240.114 240.114 0 0 1-4.168-2.121c-2.603-1.394-3.791-2.049-4.372-2.411-.342-.214-.652-.388-.69-.388-.249 0-7-4.157-10.521-6.479-5.025-3.313-12.61-8.924-15.688-11.604a19.11 19.11 0 0 0-.504-.417c-5.729-4.595-14.841-13.395-20.54-19.836l-1.838-2.081c-.242-.275-.963-1.137-1.601-1.916-.638-.78-1.236-1.501-1.328-1.603-.28-.309-1.181-1.419-2.081-2.564a453.79 453.79 0 0 0-1.053-1.334c-10.731-13.416-21.143-32.08-27.612-49.499-.29-.78-.603-1.602-.696-1.829-.271-.66-2.639-7.817-2.979-9.005l-.717-2.5c-.943-3.286-2.174-8.05-2.605-10.083a59.64 59.64 0 0 0-.424-1.833c-.116-.459-.301-1.321-.41-1.917s-.301-1.571-.426-2.167c-.945-4.494-2.046-12.084-2.576-17.75-.677-7.229-.736-8.688-.738-18.083-.002-11.033.248-15.051 1.58-25.417.9-6.999 2.962-17.053 5.008-24.416.958-3.449 3.711-12.118 4.286-13.5.096-.229.513-1.327.928-2.44 2.474-6.641 7.05-16.797 9.826-21.81.203-.367.634-1.154.958-1.75.526-.967 2.797-4.977 3.228-5.698.093-.155.42-.712.729-1.239.308-.527 1.32-2.149 2.25-3.605a305.662 305.662 0 0 0 1.856-2.931c1.042-1.781 7.935-11.267 9.902-13.629.237-.284.544-.66.681-.834 5.44-6.892 14.691-16.554 22.084-23.064a515.45 515.45 0 0 1 1.5-1.318c.559-.488 4.321-3.627 4.814-4.016.174-.137.55-.444.834-.681 4.335-3.61 14.747-10.844 20.154-14.003a194.58 194.58 0 0 0 1.25-.734c.721-.431 4.731-2.702 5.698-3.228.596-.324 1.383-.755 1.75-.958 5.013-2.776 15.169-7.352 21.81-9.826a130.93 130.93 0 0 0 2.44-.928c.493-.205 7.703-2.591 9.5-3.144 7.963-2.448 20.17-5.09 28.416-6.15 4.706-.605 5.234-.66 11.5-1.203 5.341-.464 21.354-.559 25.75-.153m-92.5 100.68v37h55.5v-12.5h-41.333v-18.5h36v-12.5h-36V89.338h40V77.005h-54.167v37m61.5-30.667v6.334h23v61.333h14.334V89.672h23V77.005h-60.334v6.333m70.167 30.667v37h46.167v-13h-31.834v-61h-14.333v37m-147.92 56.431c-.458.032-2.671.137-4.916.234-7.557.327-12.003.701-20 1.684-10.545 1.295-18.778 3.676-20.984 6.069l-.683.741v14.884c0 16.125-.055 15.065.828 15.969 1.772 1.816 7.591 3.723 15.422 5.054 3.14.534 4.553.747 6.167.93.916.104 2.566.295 3.666.423 1.1.129 2.975.312 4.167.407s3.112.251 4.267.345c10.519.865 32.944.868 43.023.007 1.032-.088 3.039-.252 4.46-.363 1.421-.112 3.47-.322 4.553-.467l1.97-.265.628-1.501c.955-2.284 2.607-5.472 3.928-7.582.668-1.065 1.67-2.582 1.762-2.667.05-.046.549-.721 1.109-1.5.559-.779 1.156-1.579 1.325-1.777.17-.199.451-.536.626-.75 3.382-4.137 9.005-9.101 13.474-11.895l.791-.494v-4.22c.001-4.444-.017-4.564-.811-5.418-2.107-2.264-10.549-4.664-20.855-5.93-7.565-.929-10.1-1.151-19.5-1.701-2.877-.169-22.571-.343-24.417-.217m173.17.247c-23.421.895-40.084 3.832-44.042 7.764l-.875.87.004 4.719.003 4.719 1.773 1.25c.975.688 1.855 1.326 1.955 1.419s.52.43.932.748c6.784 5.239 13.751 14.45 17.151 22.678l.522 1.261 2.205.279c3.699.468 9.52.955 15.705 1.316 4.975.289 26.692.289 31.667 0 5.832-.34 12.197-.865 15.583-1.285l3.417-.422c2.069-.253 5.339-.795 8.167-1.354 2.349-.464 6.551-1.583 7.833-2.086 1.415-.555 3.442-1.564 3.786-1.885.198-.185.411-.336.473-.336s.31-.285.552-.634l.439-.634v-29.753l-.875-.87c-1.004-.997-2.897-1.997-5.125-2.706-.413-.131-.989-.316-1.281-.411-1.963-.637-7.4-1.8-10.469-2.24-1.008-.145-1.946-.295-2.083-.333-.455-.127-6.16-.776-11-1.251-8.338-.818-26.063-1.219-36.417-.823m-147.17 3.232c7.662.481 11.276.798 15.334 1.347 1.008.136 2.433.327 3.166.424 1.229.163 2.365.355 5 .843 21.683 4.022 11.719 10.329-19.833 12.553-11.656.822-31.044.789-41.167-.071-1.1-.094-2.975-.252-4.166-.352-17.879-1.499-28.942-5.13-25.321-8.31 1.604-1.408 5.889-2.922 10.821-3.822 2.96-.541 3.784-.68 5-.841l3.166-.419c5.517-.733 13.945-1.378 20.917-1.602 6.091-.195 22.384-.045 27.083.25m172.83.071l5.666.354c4.062.254 8.911.756 14.417 1.49 13.221 1.763 19.429 5.057 14.917 7.915-2.66 1.684-9.378 3.359-17.084 4.26-.779.091-1.566.199-1.75.24-.968.215-9.976.98-15.25 1.294-4.868.291-26.279.291-31.25.001-14.52-.848-24.71-2.29-30.867-4.367-7.457-2.515-6.204-5.394 3.375-7.756 1.34-.33 2.823-.666 3.297-.747 9.175-1.557 15.251-2.191 25.529-2.666 2.108-.097 4.208-.203 4.666-.234 1.828-.126 21.681.05 24.334.216m-107.17 13.123c-9.871.783-21.315 5.621-28.5 12.049-14.796 13.238-20.714 31.728-16.22 50.68 3.396 14.325 13.703 27.091 27.034 33.486 3.159 1.516 4.81 2.153 8.436 3.26 6.161 1.881 14.894 2.371 22 1.235 12.098-1.934 23.76-8.68 31.232-18.064.438-.55.918-1.15 1.066-1.333 8.076-9.954 11.894-25.492 9.605-39.084-1.015-6.021-3.398-12.732-5.964-16.798-.242-.382-.439-.736-.439-.786 0-.196-3.366-5.091-3.911-5.687-.095-.103-.51-.604-.922-1.113-2.459-3.031-8.599-8.414-11.433-10.022a80.24 80.24 0 0 1-1.567-.935c-4.495-2.742-10.914-5.191-16.084-6.136-3.639-.666-4.277-.721-8.833-.769-2.567-.027-5.042-.019-5.5.017m-12.722 22.66c.281.146 4.295 4.05 8.919 8.677l8.408 8.413 8.364-8.372c9.164-9.171 8.945-8.98 10.299-8.981 1.28-.001 1.594.237 5.569 4.23 5.776 5.803 6.23 4.339-4.766 15.354-4.668 4.677-8.488 8.558-8.488 8.625s3.745 3.866 8.322 8.442c9.461 9.458 9.631 9.684 8.681 11.523-.38.737-7.379 7.649-8.097 7.997-1.905.923-1.8 1.002-11.447-8.634l-8.457-8.449-8.543 8.524c-11.102 11.078-9.637 10.658-15.739 4.515-3.944-3.971-4.238-4.392-3.96-5.684.221-1.027.649-1.495 8.977-9.812l8.412-8.401-8.256-8.241c-9.052-9.036-9.115-9.108-9.115-10.52 0-1.222.085-1.332 4.204-5.445 4.263-4.258 4.978-4.658 6.713-3.761m-123.81 6.576c-1.888 1.234-1.716-.43-1.716 16.611v14.829l.453.581c1.142 1.465 4.722 3.084 9.13 4.131.459.109 1.246.297 1.75.419.504.121 1.404.309 2 .418s1.459.273 1.917.364c2.371.473 9.962 1.485 13.5 1.8 10.318.92 14.426 1.082 27.333 1.083 13.659 0 18.907-.235 29.89-1.339.984-.099 1.049-.131.943-.463-.92-2.894-1.847-7.426-2.273-11.107-.45-3.883-.153-12.564.533-15.627.222-.987.281-.964-1.971-.739-18.783 1.884-44.086 1.516-61.372-.891-1.93-.269-5.827-.949-7-1.221-2.557-.593-3.253-.78-4.78-1.279-5.708-1.868-6.622-3.845-2.726-5.896l1.237-.651-.657-.175c-.361-.096-1.07-.281-1.574-.412s-1.499-.434-2.212-.674c-.712-.239-1.312-.435-1.334-.435s-.504.303-1.071.673m280.53.075c-.917.298-2.145.684-2.729.858l-1.063.316 1.276.648c5.701 2.893-.193 6.353-14.067 8.258-4.977.684-5.118.7-10.084 1.184-14.488 1.411-39.06 1.249-53.094-.35-2.264-.258-2.129-.306-1.965.713.743 4.631.976 11.685.51 15.458-.514 4.153-1.107 7.272-1.883 9.901-.268.909-.462 1.677-.432 1.707.073.073 2.68.35 5.281.56 1.146.093 2.271.205 2.5.248 6.107 1.158 37.977 1.112 49.667-.07.87-.088 2.483-.245 3.583-.348 13.608-1.274 24.214-4.011 26.671-6.881l.579-.677v-29.72l-.458-.589c-.476-.611-2.127-1.813-2.444-1.778-.1.011-.931.264-1.848.562m-280.33 38.648c-.459.301-1.077.825-1.375 1.165l-.542.617v14.849c0 14.597.006 14.859.336 15.394 1.306 2.113 7.634 4.331 16.331 5.724l2.583.418c.825.134 2.25.329 3.167.433.916.104 2.566.294 3.666.422 16.856 1.96 43.145 1.96 60 0 1.1-.128 2.75-.318 3.667-.422s2.342-.299 3.167-.433l2.583-.418c7.394-1.184 13.094-2.966 15.542-4.857.837-.647.844-.631-.917-1.805-.848-.566-1.735-1.187-1.97-1.381-.236-.194-.683-.54-.993-.769-5.358-3.958-11.114-10.514-14.817-16.875-1.169-2.009-1.161-2.005-3.114-1.639-1.729.324-9.332 1.06-13.814 1.337-20.296 1.253-43.153.418-57.167-2.09-2.637-.472-3.357-.62-4.917-1.009-8.694-2.169-10.688-4.637-5.671-7.017l.911-.433-1.911-.53c-1.649-.456-2.375-.682-3.662-1.139-.138-.049-.625.157-1.083.458m281.66-.154c-.271.113-1.354.45-2.408.749-1.055.298-2.104.599-2.334.667-.38.114-.316.174.747.692 5.766 2.807.604 6.172-12.497 8.146-.733.11-1.738.268-2.234.351-1.751.293-8.945 1.04-12.599 1.308-6.951.51-10.04.595-21.667.595-11.669 0-13.31-.046-21.333-.59-3.567-.242-9.287-.834-12.167-1.259-.916-.135-1.891-.278-2.166-.317-.484-.068-.539-.002-1.717 2.048-3.736 6.503-9.238 12.618-15.757 17.511-.994.746-1.857 1.359-1.917 1.362-.478.023-.708.481-.472.938.96 1.857 6.038 3.879 13.279 5.289 7.039 1.371 15.794 2.345 26.667 2.969 5.089.292 26.744.292 31.833 0 12.377-.71 21.491-1.809 29.334-3.537 4.09-.902 7.978-2.358 9.491-3.555 1.467-1.161 1.34.393 1.341-16.363l.001-14.837-.513-.622c-1.007-1.222-2.189-1.849-2.912-1.545"/><path d="M191.67.103c-4.789.158-13.77.958-18.5 1.647-.871.127-2.221.316-3 .419-.78.104-1.979.288-2.667.408-.687.121-1.775.309-2.417.417-9.17 1.552-20.3 4.396-29.166 7.454-.917.316-1.93.653-2.25.748-.321.095-1.221.419-2 .72-.78.3-2.354.899-3.5 1.33-2.267.853-6.89 2.752-8.75 3.594l-1.917.866c-8.445 3.795-18.787 9.443-25.833 14.109-1.33.88-2.482 1.628-2.562 1.663-.134.058-3.191 2.164-4.087 2.815-.22.16-.568.403-.775.54-2.045 1.363-11.205 8.378-11.743 8.993-.046.052-.496.431-1 .84-1.152.936-4.455 3.808-5.667 4.927l-2.333 2.156c-1.83 1.692-8.059 7.921-9.751 9.751l-2.156 2.333c-1.119 1.212-3.991 4.515-4.927 5.667-.409.504-.788.954-.84 1-.615.538-7.63 9.698-8.993 11.743-.137.207-.38.555-.54.775-.651.896-2.757 3.953-2.815 4.087-.035.08-.783 1.232-1.663 2.562-4.666 7.046-10.314 17.388-14.109 25.833l-.866 1.917c-.842 1.86-2.741 6.483-3.594 8.75-.431 1.146-1.03 2.72-1.33 3.5-.301.779-.625 1.679-.72 2-.095.32-.432 1.333-.748 2.25C7.41 144.734 4.588 155.76 3.008 165c-.473 2.764-.678 4.034-.823 5.083-.088.642-.277 1.992-.418 3-.559 3.987-.858 6.873-1.38 13.334-.408 5.036-.408 22.13 0 27.166.624 7.728 1.363 14.088 2.207 19 .49 2.853.578 3.343.979 5.417.221 1.146.436 2.271.479 2.5.398 2.153 2.097 9.31 2.69 11.333.121.413.425 1.5.674 2.417.534 1.958 1.166 4.1 1.623 5.5a128 128 0 0 1 .629 2c.267.878 2.114 6.189 2.778 7.987 1.551 4.197 3.767 9.503 6.095 14.596 2.761 6.042 7.423 14.651 11.471 21.185 1.914 3.091 7.253 11.001 8.408 12.457.119.151 1.061 1.4 2.093 2.775 1.031 1.375 2.07 2.728 2.308 3.006.237.278.657.796.932 1.15.481.618 1.306 1.643 1.889 2.345 1.404 1.69 2.941 3.515 3.017 3.582.052.046.617.684 1.257 1.417s1.508 1.708 1.93 2.167l1.991 2.166c1.567 1.709 7.82 7.962 9.666 9.666 2.149 1.984 2.798 2.571 4.25 3.838a89.141 89.141 0 0 1 1.417 1.251c.045.049.795.684 1.666 1.412s1.621 1.365 1.667 1.415.908.75 1.917 1.557c1.008.806 1.947 1.559 2.087 1.672s.703.539 1.25.947c.548.409 1.091.832 1.206.941.116.109.866.668 1.667 1.242s1.494 1.089 1.54 1.144c.18.217 6.232 4.388 8.75 6.029a196.21 196.21 0 0 0 27.166 14.84l2.38 1.067c.484.218.919.396.966.396.046 0 .588.236 1.203.523.615.288 1.568.692 2.118.898.55.205 2.275.863 3.833 1.461 5.936 2.28 9.151 3.361 15.917 5.352 6.983 2.055 17.625 4.417 24.083 5.347 1.009.145 2.284.332 2.834.416 4.062.619 8.376 1.074 15.333 1.619 5.208.408 21.436.406 26.5-.002 8.951-.722 11.296-.989 18.833-2.14 3.065-.468 9.521-1.718 12.417-2.405 2.976-.706 6.543-1.587 7.417-1.832 8.572-2.408 15.818-4.808 21.862-7.242l2.138-.862c.458-.185 1.229-.516 1.713-.735s.913-.398.953-.398c.08 0 1.375-.575 3.042-1.349.574-.266 1.074-.484 1.112-.484.241 0 9.27-4.442 11.18-5.5.458-.254 1.32-.722 1.916-1.041 1.65-.883 4.769-2.659 6.167-3.511.688-.419 1.662-1.002 2.167-1.295 2.54-1.478 9.763-6.307 12.937-8.65.561-.414 1.642-1.203 2.402-1.753s1.464-1.075 1.563-1.167c.1-.092.631-.499 1.181-.906.55-.406 1.037-.781 1.083-.834.046-.052.384-.319.75-.592.732-.544 6.616-5.413 6.75-5.584.046-.059.684-.623 1.417-1.254s1.671-1.46 2.083-1.844l2.25-2.087c1.935-1.794 7.772-7.631 9.566-9.566l2.087-2.25c.384-.412 1.213-1.35 1.844-2.083s1.195-1.371 1.254-1.417c.171-.134 5.04-6.018 5.584-6.75.273-.366.54-.704.592-.75.053-.046.428-.533.834-1.083.407-.55.814-1.081.906-1.181.092-.099.617-.803 1.167-1.563s1.339-1.841 1.753-2.402c2.343-3.174 7.172-10.397 8.65-12.937.293-.505.876-1.479 1.295-2.167.852-1.398 2.628-4.517 3.511-6.167.319-.596.787-1.458 1.041-1.916 1.058-1.91 5.5-10.939 5.5-11.18 0-.038.218-.538.484-1.112.774-1.667 1.349-2.962 1.349-3.042 0-.04.179-.469.398-.953s.55-1.255.735-1.713l.862-2.138c2.434-6.044 4.834-13.29 7.242-21.862.245-.874 1.126-4.441 1.832-7.417.713-3.007 1.981-9.577 2.429-12.583.109-.734.3-1.971.423-2.75.124-.78.31-2.13.414-3 .104-.871.255-2.071.337-2.667.177-1.292.536-5.218.937-10.25.417-5.221.421-21.197.007-26.5-.528-6.749-1.125-12.424-1.621-15.417-.084-.504-.271-1.741-.415-2.75-.446-3.11-1.659-9.407-2.572-13.349-.776-3.352-2.034-8.219-2.774-10.734-1.991-6.766-3.072-9.981-5.352-15.917a649.54 649.54 0 0 1-1.463-3.838 29.185 29.185 0 0 0-.814-1.933c-.241-.51-.438-.971-.438-1.025 0-.053-.216-.571-.48-1.15-.264-.58-.782-1.729-1.151-2.554-4.202-9.402-9.092-18.353-14.839-27.166-1.641-2.518-5.812-8.57-6.029-8.75-.055-.046-.57-.739-1.144-1.54s-1.133-1.551-1.242-1.667c-.109-.115-.532-.658-.941-1.206-.408-.547-.834-1.11-.947-1.25s-.866-1.079-1.672-2.087c-.807-1.009-1.507-1.871-1.557-1.917s-.687-.796-1.415-1.667-1.363-1.621-1.412-1.666a89.141 89.141 0 0 1-1.251-1.417c-1.267-1.452-1.854-2.101-3.838-4.25-1.704-1.846-7.957-8.099-9.666-9.666l-2.166-1.991c-.459-.422-1.434-1.29-2.167-1.93s-1.371-1.205-1.417-1.257c-.067-.076-1.892-1.613-3.582-3.017a112.926 112.926 0 0 0-2.345-1.889 39.78 39.78 0 0 1-1.15-.932c-.278-.238-1.631-1.277-3.006-2.308a441.585 441.585 0 0 1-2.775-2.093c-1.456-1.155-9.366-6.494-12.457-8.408-6.535-4.049-15.185-8.733-21.185-11.47-5.533-2.526-10.127-4.444-14.596-6.096-1.798-.664-7.109-2.511-7.987-2.778a128 128 0 0 1-2-.629c-1.4-.457-3.542-1.089-5.5-1.623-.917-.249-2.004-.553-2.417-.674-2.744-.805-9.376-2.326-13.75-3.154-8.704-1.648-14.485-2.402-24.416-3.184-3.11-.245-17.636-.441-22-.298m20.166 13.222c.963.088 2.763.24 4 .337 6.593.515 14.588 1.615 20 2.753.596.125 1.571.317 2.167.426s1.458.294 1.917.41a59.64 59.64 0 0 0 1.833.424c2.033.431 6.797 1.662 10.083 2.605.779.223 1.904.545 2.5.714 1.192.339 8.336 2.703 9 2.979a89.3 89.3 0 0 0 1.834.699c1.726.641 7.828 3.078 8.75 3.494a721.4 721.4 0 0 0 2.416 1.08c12.348 5.501 24.814 12.849 35.75 21.074a227.21 227.21 0 0 1 2.584 1.96c.137.112.737.587 1.333 1.054s1.277 1.014 1.514 1.216.757.629 1.154.95c7.208 5.81 15.909 14.298 22.98 22.417.24.275.811.949 1.269 1.499.458.549.908 1.082 1 1.185.091.102.366.44.611.751.244.31 1.018 1.277 1.719 2.148l1.473 1.833c3.008 3.781 7.989 10.93 11.148 16 1.312 2.107 3.632 6.004 3.632 6.103 0 .039.174.35.388.692.362.581 1.017 1.769 2.411 4.372.32.596 1.274 2.472 2.121 4.168 1.356 2.719 1.919 3.909 3.696 7.827.522 1.152 2.81 6.632 3.116 7.464.126.343.64 1.712 1.141 3.041 1.693 4.482 4.332 12.755 5.343 16.75.14.55.375 1.45.523 2 .984 3.658 2.572 11.223 3.252 15.5.488 3.064.674 4.299.828 5.5.678 5.275.791 6.387 1.295 12.667.402 5.009.4 20.194-.003 25.166-.777 9.591-1.39 14.336-2.951 22.834-.557 3.029-1.892 8.951-2.556 11.333a77.292 77.292 0 0 0-.441 1.667c-1.069 4.282-4.3 14.257-5.991 18.5-3.155 7.914-6.736 15.785-9.294 20.429-.274.497-.86 1.579-1.302 2.404a64.715 64.715 0 0 1-1.439 2.545c-.351.574-.637 1.081-.637 1.126 0 .046-.375.681-.833 1.412-.459.732-.834 1.371-.834 1.421 0 .113-2.035 3.343-4.147 6.579-1.572 2.411-4.553 6.651-6.209 8.834-2.933 3.865-3.198 4.205-4.946 6.333l-1.163 1.417c-.582.712-2.94 3.504-3.027 3.583-.05.046-.384.421-.743.833-3.738 4.303-11.962 12.527-16.265 16.265-.412.359-.787.693-.833.743-.079.087-2.871 2.445-3.583 3.027l-1.417 1.163c-2.128 1.748-2.468 2.013-6.333 4.946-2.183 1.656-6.423 4.637-8.834 6.209-3.236 2.112-6.466 4.147-6.579 4.147-.05 0-.689.375-1.421.834-.731.458-1.366.833-1.412.833-.045 0-.552.286-1.126.637-.575.35-1.72.998-2.545 1.439-.825.442-1.901 1.024-2.391 1.294s-1.99 1.039-3.333 1.71c-5.644 2.818-10.161 4.822-17.109 7.592-4.243 1.691-14.218 4.922-18.5 5.991-.459.115-1.209.313-1.667.441-6.32 1.761-16.358 3.628-24.917 4.636-8 .941-12.029 1.155-21.833 1.155-9.626 0-14.883-.277-21.917-1.155-4.446-.555-4.693-.59-8.833-1.249-10.723-1.705-23.93-5.221-34.25-9.118a699.981 699.981 0 0 0-3.041-1.141c-.832-.306-6.312-2.594-7.464-3.116-3.918-1.777-5.108-2.34-7.827-3.696a240.114 240.114 0 0 1-4.168-2.121c-2.603-1.394-3.791-2.049-4.372-2.411-.342-.214-.652-.388-.69-.388-.249 0-7-4.157-10.521-6.479-5.025-3.313-12.61-8.924-15.688-11.604a19.11 19.11 0 0 0-.504-.417c-5.729-4.595-14.841-13.395-20.54-19.836l-1.838-2.081c-.242-.275-.963-1.137-1.601-1.916-.638-.78-1.236-1.501-1.328-1.603-.28-.309-1.181-1.419-2.081-2.564a453.79 453.79 0 0 0-1.053-1.334c-10.731-13.416-21.143-32.08-27.612-49.499-.29-.78-.603-1.602-.696-1.829-.271-.66-2.639-7.817-2.979-9.005l-.717-2.5c-.943-3.286-2.174-8.05-2.605-10.083a59.64 59.64 0 0 0-.424-1.833c-.116-.459-.301-1.321-.41-1.917s-.301-1.571-.426-2.167c-.945-4.494-2.046-12.084-2.576-17.75-.677-7.229-.736-8.688-.738-18.083-.002-11.033.248-15.051 1.58-25.417.9-6.999 2.962-17.053 5.008-24.416.958-3.449 3.711-12.118 4.286-13.5.096-.229.513-1.327.928-2.44 2.474-6.641 7.05-16.797 9.826-21.81.203-.367.634-1.154.958-1.75.526-.967 2.797-4.977 3.228-5.698.093-.155.42-.712.729-1.239.308-.527 1.32-2.149 2.25-3.605a305.662 305.662 0 0 0 1.856-2.931c1.042-1.781 7.935-11.267 9.902-13.629.237-.284.544-.66.681-.834 5.44-6.892 14.691-16.554 22.084-23.064a515.45 515.45 0 0 1 1.5-1.318c.559-.488 4.321-3.627 4.814-4.016.174-.137.55-.444.834-.681 4.335-3.61 14.747-10.844 20.154-14.003a194.58 194.58 0 0 0 1.25-.734c.721-.431 4.731-2.702 5.698-3.228.596-.324 1.383-.755 1.75-.958 5.013-2.776 15.169-7.352 21.81-9.826a130.93 130.93 0 0 0 2.44-.928c.493-.205 7.703-2.591 9.5-3.144 7.963-2.448 20.17-5.09 28.416-6.15 4.706-.605 5.234-.66 11.5-1.203 5.341-.464 21.354-.559 25.75-.153m-92.5 100.68v37h55.5v-12.5h-41.333v-18.5h36v-12.5h-36V89.338h40V77.005h-54.167v37m61.5-30.667v6.334h23v61.333h14.334V89.672h23V77.005h-60.334v6.333m70.167 30.667v37h46.167v-13h-31.834v-61h-14.333v37m-147.92 56.431c-.458.032-2.671.137-4.916.234-7.557.327-12.003.701-20 1.684-10.545 1.295-18.778 3.676-20.984 6.069l-.683.741v14.884c0 16.125-.055 15.065.828 15.969 1.772 1.816 7.591 3.723 15.422 5.054 3.14.534 4.553.747 6.167.93.916.104 2.566.295 3.666.423 1.1.129 2.975.312 4.167.407s3.112.251 4.267.345c10.519.865 32.944.868 43.023.007 1.032-.088 3.039-.252 4.46-.363 1.421-.112 3.47-.322 4.553-.467l1.97-.265.628-1.501c.955-2.284 2.607-5.472 3.928-7.582.668-1.065 1.67-2.582 1.762-2.667.05-.046.549-.721 1.109-1.5.559-.779 1.156-1.579 1.325-1.777.17-.199.451-.536.626-.75 3.382-4.137 9.005-9.101 13.474-11.895l.791-.494v-4.22c.001-4.444-.017-4.564-.811-5.418-2.107-2.264-10.549-4.664-20.855-5.93-7.565-.929-10.1-1.151-19.5-1.701-2.877-.169-22.571-.343-24.417-.217m173.17.247c-23.421.895-40.084 3.832-44.042 7.764l-.875.87.004 4.719.003 4.719 1.773 1.25c.975.688 1.855 1.326 1.955 1.419s.52.43.932.748c6.784 5.239 13.751 14.45 17.151 22.678l.522 1.261 2.205.279c3.699.468 9.52.955 15.705 1.316 4.975.289 26.692.289 31.667 0 5.832-.34 12.197-.865 15.583-1.285l3.417-.422c2.069-.253 5.339-.795 8.167-1.354 2.349-.464 6.551-1.583 7.833-2.086 1.415-.555 3.442-1.564 3.786-1.885.198-.185.411-.336.473-.336s.31-.285.552-.634l.439-.634v-29.753l-.875-.87c-1.004-.997-2.897-1.997-5.125-2.706-.413-.131-.989-.316-1.281-.411-1.963-.637-7.4-1.8-10.469-2.24-1.008-.145-1.946-.295-2.083-.333-.455-.127-6.16-.776-11-1.251-8.338-.818-26.063-1.219-36.417-.823m-147.17 3.232c7.662.481 11.276.798 15.334 1.347 1.008.136 2.433.327 3.166.424 1.229.163 2.365.355 5 .843 21.683 4.022 11.719 10.329-19.833 12.553-11.656.822-31.044.789-41.167-.071-1.1-.094-2.975-.252-4.166-.352-17.879-1.499-28.942-5.13-25.321-8.31 1.604-1.408 5.889-2.922 10.821-3.822 2.96-.541 3.784-.68 5-.841l3.166-.419c5.517-.733 13.945-1.378 20.917-1.602 6.091-.195 22.384-.045 27.083.25m172.83.071l5.666.354c4.062.254 8.911.756 14.417 1.49 13.221 1.763 19.429 5.057 14.917 7.915-2.66 1.684-9.378 3.359-17.084 4.26-.779.091-1.566.199-1.75.24-.968.215-9.976.98-15.25 1.294-4.868.291-26.279.291-31.25.001-14.52-.848-24.71-2.29-30.867-4.367-7.457-2.515-6.204-5.394 3.375-7.756 1.34-.33 2.823-.666 3.297-.747 9.175-1.557 15.251-2.191 25.529-2.666 2.108-.097 4.208-.203 4.666-.234 1.828-.126 21.681.05 24.334.216m-107.17 13.123c-9.871.783-21.315 5.621-28.5 12.049-14.796 13.238-20.714 31.728-16.22 50.68 3.396 14.325 13.703 27.091 27.034 33.486 3.159 1.516 4.81 2.153 8.436 3.26 6.161 1.881 14.894 2.371 22 1.235 12.098-1.934 23.76-8.68 31.232-18.064.438-.55.918-1.15 1.066-1.333 8.076-9.954 11.894-25.492 9.605-39.084-1.015-6.021-3.398-12.732-5.964-16.798-.242-.382-.439-.736-.439-.786 0-.196-3.366-5.091-3.911-5.687-.095-.103-.51-.604-.922-1.113-2.459-3.031-8.599-8.414-11.433-10.022a80.24 80.24 0 0 1-1.567-.935c-4.495-2.742-10.914-5.191-16.084-6.136-3.639-.666-4.277-.721-8.833-.769-2.567-.027-5.042-.019-5.5.017m-12.722 22.66c.281.146 4.295 4.05 8.919 8.677l8.408 8.413 8.364-8.372c9.164-9.171 8.945-8.98 10.299-8.981 1.28-.001 1.594.237 5.569 4.23 5.776 5.803 6.23 4.339-4.766 15.354-4.668 4.677-8.488 8.558-8.488 8.625s3.745 3.866 8.322 8.442c9.461 9.458 9.631 9.684 8.681 11.523-.38.737-7.379 7.649-8.097 7.997-1.905.923-1.8 1.002-11.447-8.634l-8.457-8.449-8.543 8.524c-11.102 11.078-9.637 10.658-15.739 4.515-3.944-3.971-4.238-4.392-3.96-5.684.221-1.027.649-1.495 8.977-9.812l8.412-8.401-8.256-8.241c-9.052-9.036-9.115-9.108-9.115-10.52 0-1.222.085-1.332 4.204-5.445 4.263-4.258 4.978-4.658 6.713-3.761m-123.81 6.576c-1.888 1.234-1.716-.43-1.716 16.611v14.829l.453.581c1.142 1.465 4.722 3.084 9.13 4.131.459.109 1.246.297 1.75.419.504.121 1.404.309 2 .418s1.459.273 1.917.364c2.371.473 9.962 1.485 13.5 1.8 10.318.92 14.426 1.082 27.333 1.083 13.659 0 18.907-.235 29.89-1.339.984-.099 1.049-.131.943-.463-.92-2.894-1.847-7.426-2.273-11.107-.45-3.883-.153-12.564.533-15.627.222-.987.281-.964-1.971-.739-18.783 1.884-44.086 1.516-61.372-.891-1.93-.269-5.827-.949-7-1.221-2.557-.593-3.253-.78-4.78-1.279-5.708-1.868-6.622-3.845-2.726-5.896l1.237-.651-.657-.175c-.361-.096-1.07-.281-1.574-.412s-1.499-.434-2.212-.674c-.712-.239-1.312-.435-1.334-.435s-.504.303-1.071.673m280.53.075c-.917.298-2.145.684-2.729.858l-1.063.316 1.276.648c5.701 2.893-.193 6.353-14.067 8.258-4.977.684-5.118.7-10.084 1.184-14.488 1.411-39.06 1.249-53.094-.35-2.264-.258-2.129-.306-1.965.713.743 4.631.976 11.685.51 15.458-.514 4.153-1.107 7.272-1.883 9.901-.268.909-.462 1.677-.432 1.707.073.073 2.68.35 5.281.56 1.146.093 2.271.205 2.5.248 6.107 1.158 37.977 1.112 49.667-.07.87-.088 2.483-.245 3.583-.348 13.608-1.274 24.214-4.011 26.671-6.881l.579-.677v-29.72l-.458-.589c-.476-.611-2.127-1.813-2.444-1.778-.1.011-.931.264-1.848.562m-280.33 38.648c-.459.301-1.077.825-1.375 1.165l-.542.617v14.849c0 14.597.006 14.859.336 15.394 1.306 2.113 7.634 4.331 16.331 5.724l2.583.418c.825.134 2.25.329 3.167.433.916.104 2.566.294 3.666.422 16.856 1.96 43.145 1.96 60 0 1.1-.128 2.75-.318 3.667-.422s2.342-.299 3.167-.433l2.583-.418c7.394-1.184 13.094-2.966 15.542-4.857.837-.647.844-.631-.917-1.805-.848-.566-1.735-1.187-1.97-1.381-.236-.194-.683-.54-.993-.769-5.358-3.958-11.114-10.514-14.817-16.875-1.169-2.009-1.161-2.005-3.114-1.639-1.729.324-9.332 1.06-13.814 1.337-20.296 1.253-43.153.418-57.167-2.09-2.637-.472-3.357-.62-4.917-1.009-8.694-2.169-10.688-4.637-5.671-7.017l.911-.433-1.911-.53c-1.649-.456-2.375-.682-3.662-1.139-.138-.049-.625.157-1.083.458m281.66-.154c-.271.113-1.354.45-2.408.749-1.055.298-2.104.599-2.334.667-.38.114-.316.174.747.692 5.766 2.807.604 6.172-12.497 8.146-.733.11-1.738.268-2.234.351-1.751.293-8.945 1.04-12.599 1.308-6.951.51-10.04.595-21.667.595-11.669 0-13.31-.046-21.333-.59-3.567-.242-9.287-.834-12.167-1.259-.916-.135-1.891-.278-2.166-.317-.484-.068-.539-.002-1.717 2.048-3.736 6.503-9.238 12.618-15.757 17.511-.994.746-1.857 1.359-1.917 1.362-.478.023-.708.481-.472.938.96 1.857 6.038 3.879 13.279 5.289 7.039 1.371 15.794 2.345 26.667 2.969 5.089.292 26.744.292 31.833 0 12.377-.71 21.491-1.809 29.334-3.537 4.09-.902 7.978-2.358 9.491-3.555 1.467-1.161 1.34.393 1.341-16.363l.001-14.837-.513-.622c-1.007-1.222-2.189-1.849-2.912-1.545"/><path d="M191.67.103c-4.789.158-13.77.958-18.5 1.647-.871.127-2.221.316-3 .419-.78.104-1.979.288-2.667.408-.687.121-1.775.309-2.417.417-9.17 1.552-20.3 4.396-29.166 7.454-.917.316-1.93.653-2.25.748-.321.095-1.221.419-2 .72-.78.3-2.354.899-3.5 1.33-2.267.853-6.89 2.752-8.75 3.594l-1.917.866c-8.445 3.795-18.787 9.443-25.833 14.109-1.33.88-2.482 1.628-2.562 1.663-.134.058-3.191 2.164-4.087 2.815-.22.16-.568.403-.775.54-2.045 1.363-11.205 8.378-11.743 8.993-.046.052-.496.431-1 .84-1.152.936-4.455 3.808-5.667 4.927l-2.333 2.156c-1.83 1.692-8.059 7.921-9.751 9.751l-2.156 2.333c-1.119 1.212-3.991 4.515-4.927 5.667-.409.504-.788.954-.84 1-.615.538-7.63 9.698-8.993 11.743-.137.207-.38.555-.54.775-.651.896-2.757 3.953-2.815 4.087-.035.08-.783 1.232-1.663 2.562-4.666 7.046-10.314 17.388-14.109 25.833l-.866 1.917c-.842 1.86-2.741 6.483-3.594 8.75-.431 1.146-1.03 2.72-1.33 3.5-.301.779-.625 1.679-.72 2-.095.32-.432 1.333-.748 2.25C7.41 144.734 4.588 155.76 3.008 165c-.473 2.764-.678 4.034-.823 5.083-.088.642-.277 1.992-.418 3-.559 3.987-.858 6.873-1.38 13.334-.408 5.036-.408 22.13 0 27.166.624 7.728 1.363 14.088 2.207 19 .49 2.853.578 3.343.979 5.417.221 1.146.436 2.271.479 2.5.398 2.153 2.097 9.31 2.69 11.333.121.413.425 1.5.674 2.417.534 1.958 1.166 4.1 1.623 5.5a128 128 0 0 1 .629 2c.267.878 2.114 6.189 2.778 7.987 1.551 4.197 3.767 9.503 6.095 14.596 2.761 6.042 7.423 14.651 11.471 21.185 1.914 3.091 7.253 11.001 8.408 12.457.119.151 1.061 1.4 2.093 2.775 1.031 1.375 2.07 2.728 2.308 3.006.237.278.657.796.932 1.15.481.618 1.306 1.643 1.889 2.345 1.404 1.69 2.941 3.515 3.017 3.582.052.046.617.684 1.257 1.417s1.508 1.708 1.93 2.167l1.991 2.166c1.567 1.709 7.82 7.962 9.666 9.666 2.149 1.984 2.798 2.571 4.25 3.838a89.141 89.141 0 0 1 1.417 1.251c.045.049.795.684 1.666 1.412s1.621 1.365 1.667 1.415.908.75 1.917 1.557c1.008.806 1.947 1.559 2.087 1.672s.703.539 1.25.947c.548.409 1.091.832 1.206.941.116.109.866.668 1.667 1.242s1.494 1.089 1.54 1.144c.18.217 6.232 4.388 8.75 6.029a196.21 196.21 0 0 0 27.166 14.84l2.38 1.067c.484.218.919.396.966.396.046 0 .588.236 1.203.523.615.288 1.568.692 2.118.898.55.205 2.275.863 3.833 1.461 5.936 2.28 9.151 3.361 15.917 5.352 6.983 2.055 17.625 4.417 24.083 5.347 1.009.145 2.284.332 2.834.416 4.062.619 8.376 1.074 15.333 1.619 5.208.408 21.436.406 26.5-.002 8.951-.722 11.296-.989 18.833-2.14 3.065-.468 9.521-1.718 12.417-2.405 2.976-.706 6.543-1.587 7.417-1.832 8.572-2.408 15.818-4.808 21.862-7.242l2.138-.862c.458-.185 1.229-.516 1.713-.735s.913-.398.953-.398c.08 0 1.375-.575 3.042-1.349.574-.266 1.074-.484 1.112-.484.241 0 9.27-4.442 11.18-5.5.458-.254 1.32-.722 1.916-1.041 1.65-.883 4.769-2.659 6.167-3.511.688-.419 1.662-1.002 2.167-1.295 2.54-1.478 9.763-6.307 12.937-8.65.561-.414 1.642-1.203 2.402-1.753s1.464-1.075 1.563-1.167c.1-.092.631-.499 1.181-.906.55-.406 1.037-.781 1.083-.834.046-.052.384-.319.75-.592.732-.544 6.616-5.413 6.75-5.584.046-.059.684-.623 1.417-1.254s1.671-1.46 2.083-1.844l2.25-2.087c1.935-1.794 7.772-7.631 9.566-9.566l2.087-2.25c.384-.412 1.213-1.35 1.844-2.083s1.195-1.371 1.254-1.417c.171-.134 5.04-6.018 5.584-6.75.273-.366.54-.704.592-.75.053-.046.428-.533.834-1.083.407-.55.814-1.081.906-1.181.092-.099.617-.803 1.167-1.563s1.339-1.841 1.753-2.402c2.343-3.174 7.172-10.397 8.65-12.937.293-.505.876-1.479 1.295-2.167.852-1.398 2.628-4.517 3.511-6.167.319-.596.787-1.458 1.041-1.916 1.058-1.91 5.5-10.939 5.5-11.18 0-.038.218-.538.484-1.112.774-1.667 1.349-2.962 1.349-3.042 0-.04.179-.469.398-.953s.55-1.255.735-1.713l.862-2.138c2.434-6.044 4.834-13.29 7.242-21.862.245-.874 1.126-4.441 1.832-7.417.713-3.007 1.981-9.577 2.429-12.583.109-.734.3-1.971.423-2.75.124-.78.31-2.13.414-3 .104-.871.255-2.071.337-2.667.177-1.292.536-5.218.937-10.25.417-5.221.421-21.197.007-26.5-.528-6.749-1.125-12.424-1.621-15.417-.084-.504-.271-1.741-.415-2.75-.446-3.11-1.659-9.407-2.572-13.349-.776-3.352-2.034-8.219-2.774-10.734-1.991-6.766-3.072-9.981-5.352-15.917a649.54 649.54 0 0 1-1.463-3.838 29.185 29.185 0 0 0-.814-1.933c-.241-.51-.438-.971-.438-1.025 0-.053-.216-.571-.48-1.15-.264-.58-.782-1.729-1.151-2.554-4.202-9.402-9.092-18.353-14.839-27.166-1.641-2.518-5.812-8.57-6.029-8.75-.055-.046-.57-.739-1.144-1.54s-1.133-1.551-1.242-1.667c-.109-.115-.532-.658-.941-1.206-.408-.547-.834-1.11-.947-1.25s-.866-1.079-1.672-2.087c-.807-1.009-1.507-1.871-1.557-1.917s-.687-.796-1.415-1.667-1.363-1.621-1.412-1.666a89.141 89.141 0 0 1-1.251-1.417c-1.267-1.452-1.854-2.101-3.838-4.25-1.704-1.846-7.957-8.099-9.666-9.666l-2.166-1.991c-.459-.422-1.434-1.29-2.167-1.93s-1.371-1.205-1.417-1.257c-.067-.076-1.892-1.613-3.582-3.017a112.926 112.926 0 0 0-2.345-1.889 39.78 39.78 0 0 1-1.15-.932c-.278-.238-1.631-1.277-3.006-2.308a441.585 441.585 0 0 1-2.775-2.093c-1.456-1.155-9.366-6.494-12.457-8.408-6.535-4.049-15.185-8.733-21.185-11.47-5.533-2.526-10.127-4.444-14.596-6.096-1.798-.664-7.109-2.511-7.987-2.778a128 128 0 0 1-2-.629c-1.4-.457-3.542-1.089-5.5-1.623-.917-.249-2.004-.553-2.417-.674-2.744-.805-9.376-2.326-13.75-3.154-8.704-1.648-14.485-2.402-24.416-3.184-3.11-.245-17.636-.441-22-.298m20.166 13.222c.963.088 2.763.24 4 .337 6.593.515 14.588 1.615 20 2.753.596.125 1.571.317 2.167.426s1.458.294 1.917.41a59.64 59.64 0 0 0 1.833.424c2.033.431 6.797 1.662 10.083 2.605.779.223 1.904.545 2.5.714 1.192.339 8.336 2.703 9 2.979a89.3 89.3 0 0 0 1.834.699c1.726.641 7.828 3.078 8.75 3.494a721.4 721.4 0 0 0 2.416 1.08c12.348 5.501 24.814 12.849 35.75 21.074a227.21 227.21 0 0 1 2.584 1.96c.137.112.737.587 1.333 1.054s1.277 1.014 1.514 1.216.757.629 1.154.95c7.208 5.81 15.909 14.298 22.98 22.417.24.275.811.949 1.269 1.499.458.549.908 1.082 1 1.185.091.102.366.44.611.751.244.31 1.018 1.277 1.719 2.148l1.473 1.833c3.008 3.781 7.989 10.93 11.148 16 1.312 2.107 3.632 6.004 3.632 6.103 0 .039.174.35.388.692.362.581 1.017 1.769 2.411 4.372.32.596 1.274 2.472 2.121 4.168 1.356 2.719 1.919 3.909 3.696 7.827.522 1.152 2.81 6.632 3.116 7.464.126.343.64 1.712 1.141 3.041 1.693 4.482 4.332 12.755 5.343 16.75.14.55.375 1.45.523 2 .984 3.658 2.572 11.223 3.252 15.5.488 3.064.674 4.299.828 5.5.678 5.275.791 6.387 1.295 12.667.402 5.009.4 20.194-.003 25.166-.777 9.591-1.39 14.336-2.951 22.834-.557 3.029-1.892 8.951-2.556 11.333a77.292 77.292 0 0 0-.441 1.667c-1.069 4.282-4.3 14.257-5.991 18.5-3.155 7.914-6.736 15.785-9.294 20.429-.274.497-.86 1.579-1.302 2.404a64.715 64.715 0 0 1-1.439 2.545c-.351.574-.637 1.081-.637 1.126 0 .046-.375.681-.833 1.412-.459.732-.834 1.371-.834 1.421 0 .113-2.035 3.343-4.147 6.579-1.572 2.411-4.553 6.651-6.209 8.834-2.933 3.865-3.198 4.205-4.946 6.333l-1.163 1.417c-.582.712-2.94 3.504-3.027 3.583-.05.046-.384.421-.743.833-3.738 4.303-11.962 12.527-16.265 16.265-.412.359-.787.693-.833.743-.079.087-2.871 2.445-3.583 3.027l-1.417 1.163c-2.128 1.748-2.468 2.013-6.333 4.946-2.183 1.656-6.423 4.637-8.834 6.209-3.236 2.112-6.466 4.147-6.579 4.147-.05 0-.689.375-1.421.834-.731.458-1.366.833-1.412.833-.045 0-.552.286-1.126.637-.575.35-1.72.998-2.545 1.439-.825.442-1.901 1.024-2.391 1.294s-1.99 1.039-3.333 1.71c-5.644 2.818-10.161 4.822-17.109 7.592-4.243 1.691-14.218 4.922-18.5 5.991-.459.115-1.209.313-1.667.441-6.32 1.761-16.358 3.628-24.917 4.636-8 .941-12.029 1.155-21.833 1.155-9.626 0-14.883-.277-21.917-1.155-4.446-.555-4.693-.59-8.833-1.249-10.723-1.705-23.93-5.221-34.25-9.118a699.981 699.981 0 0 0-3.041-1.141c-.832-.306-6.312-2.594-7.464-3.116-3.918-1.777-5.108-2.34-7.827-3.696a240.114 240.114 0 0 1-4.168-2.121c-2.603-1.394-3.791-2.049-4.372-2.411-.342-.214-.652-.388-.69-.388-.249 0-7-4.157-10.521-6.479-5.025-3.313-12.61-8.924-15.688-11.604a19.11 19.11 0 0 0-.504-.417c-5.729-4.595-14.841-13.395-20.54-19.836l-1.838-2.081c-.242-.275-.963-1.137-1.601-1.916-.638-.78-1.236-1.501-1.328-1.603-.28-.309-1.181-1.419-2.081-2.564a453.79 453.79 0 0 0-1.053-1.334c-10.731-13.416-21.143-32.08-27.612-49.499-.29-.78-.603-1.602-.696-1.829-.271-.66-2.639-7.817-2.979-9.005l-.717-2.5c-.943-3.286-2.174-8.05-2.605-10.083a59.64 59.64 0 0 0-.424-1.833c-.116-.459-.301-1.321-.41-1.917s-.301-1.571-.426-2.167c-.945-4.494-2.046-12.084-2.576-17.75-.677-7.229-.736-8.688-.738-18.083-.002-11.033.248-15.051 1.58-25.417.9-6.999 2.962-17.053 5.008-24.416.958-3.449 3.711-12.118 4.286-13.5.096-.229.513-1.327.928-2.44 2.474-6.641 7.05-16.797 9.826-21.81.203-.367.634-1.154.958-1.75.526-.967 2.797-4.977 3.228-5.698.093-.155.42-.712.729-1.239.308-.527 1.32-2.149 2.25-3.605a305.662 305.662 0 0 0 1.856-2.931c1.042-1.781 7.935-11.267 9.902-13.629.237-.284.544-.66.681-.834 5.44-6.892 14.691-16.554 22.084-23.064a515.45 515.45 0 0 1 1.5-1.318c.559-.488 4.321-3.627 4.814-4.016.174-.137.55-.444.834-.681 4.335-3.61 14.747-10.844 20.154-14.003a194.58 194.58 0 0 0 1.25-.734c.721-.431 4.731-2.702 5.698-3.228.596-.324 1.383-.755 1.75-.958 5.013-2.776 15.169-7.352 21.81-9.826a130.93 130.93 0 0 0 2.44-.928c.493-.205 7.703-2.591 9.5-3.144 7.963-2.448 20.17-5.09 28.416-6.15 4.706-.605 5.234-.66 11.5-1.203 5.341-.464 21.354-.559 25.75-.153m-92.5 100.68v37h55.5v-12.5h-41.333v-18.5h36v-12.5h-36V89.338h40V77.005h-54.167v37m61.5-30.667v6.334h23v61.333h14.334V89.672h23V77.005h-60.334v6.333m70.167 30.667v37h46.167v-13h-31.834v-61h-14.333v37m-147.92 56.431c-.458.032-2.671.137-4.916.234-7.557.327-12.003.701-20 1.684-10.545 1.295-18.778 3.676-20.984 6.069l-.683.741v14.884c0 16.125-.055 15.065.828 15.969 1.772 1.816 7.591 3.723 15.422 5.054 3.14.534 4.553.747 6.167.93.916.104 2.566.295 3.666.423 1.1.129 2.975.312 4.167.407s3.112.251 4.267.345c10.519.865 32.944.868 43.023.007 1.032-.088 3.039-.252 4.46-.363 1.421-.112 3.47-.322 4.553-.467l1.97-.265.628-1.501c.955-2.284 2.607-5.472 3.928-7.582.668-1.065 1.67-2.582 1.762-2.667.05-.046.549-.721 1.109-1.5.559-.779 1.156-1.579 1.325-1.777.17-.199.451-.536.626-.75 3.382-4.137 9.005-9.101 13.474-11.895l.791-.494v-4.22c.001-4.444-.017-4.564-.811-5.418-2.107-2.264-10.549-4.664-20.855-5.93-7.565-.929-10.1-1.151-19.5-1.701-2.877-.169-22.571-.343-24.417-.217m173.17.247c-23.421.895-40.084 3.832-44.042 7.764l-.875.87.004 4.719.003 4.719 1.773 1.25c.975.688 1.855 1.326 1.955 1.419s.52.43.932.748c6.784 5.239 13.751 14.45 17.151 22.678l.522 1.261 2.205.279c3.699.468 9.52.955 15.705 1.316 4.975.289 26.692.289 31.667 0 5.832-.34 12.197-.865 15.583-1.285l3.417-.422c2.069-.253 5.339-.795 8.167-1.354 2.349-.464 6.551-1.583 7.833-2.086 1.415-.555 3.442-1.564 3.786-1.885.198-.185.411-.336.473-.336s.31-.285.552-.634l.439-.634v-29.753l-.875-.87c-1.004-.997-2.897-1.997-5.125-2.706-.413-.131-.989-.316-1.281-.411-1.963-.637-7.4-1.8-10.469-2.24-1.008-.145-1.946-.295-2.083-.333-.455-.127-6.16-.776-11-1.251-8.338-.818-26.063-1.219-36.417-.823m-147.17 3.232c7.662.481 11.276.798 15.334 1.347 1.008.136 2.433.327 3.166.424 1.229.163 2.365.355 5 .843 21.683 4.022 11.719 10.329-19.833 12.553-11.656.822-31.044.789-41.167-.071-1.1-.094-2.975-.252-4.166-.352-17.879-1.499-28.942-5.13-25.321-8.31 1.604-1.408 5.889-2.922 10.821-3.822 2.96-.541 3.784-.68 5-.841l3.166-.419c5.517-.733 13.945-1.378 20.917-1.602 6.091-.195 22.384-.045 27.083.25m172.83.071l5.666.354c4.062.254 8.911.756 14.417 1.49 13.221 1.763 19.429 5.057 14.917 7.915-2.66 1.684-9.378 3.359-17.084 4.26-.779.091-1.566.199-1.75.24-.968.215-9.976.98-15.25 1.294-4.868.291-26.279.291-31.25.001-14.52-.848-24.71-2.29-30.867-4.367-7.457-2.515-6.204-5.394 3.375-7.756 1.34-.33 2.823-.666 3.297-.747 9.175-1.557 15.251-2.191 25.529-2.666 2.108-.097 4.208-.203 4.666-.234 1.828-.126 21.681.05 24.334.216m-107.17 13.123c-9.871.783-21.315 5.621-28.5 12.049-14.796 13.238-20.714 31.728-16.22 50.68 3.396 14.325 13.703 27.091 27.034 33.486 3.159 1.516 4.81 2.153 8.436 3.26 6.161 1.881 14.894 2.371 22 1.235 12.098-1.934 23.76-8.68 31.232-18.064.438-.55.918-1.15 1.066-1.333 8.076-9.954 11.894-25.492 9.605-39.084-1.015-6.021-3.398-12.732-5.964-16.798-.242-.382-.439-.736-.439-.786 0-.196-3.366-5.091-3.911-5.687-.095-.103-.51-.604-.922-1.113-2.459-3.031-8.599-8.414-11.433-10.022a80.24 80.24 0 0 1-1.567-.935c-4.495-2.742-10.914-5.191-16.084-6.136-3.639-.666-4.277-.721-8.833-.769-2.567-.027-5.042-.019-5.5.017m-12.722 22.66c.281.146 4.295 4.05 8.919 8.677l8.408 8.413 8.364-8.372c9.164-9.171 8.945-8.98 10.299-8.981 1.28-.001 1.594.237 5.569 4.23 5.776 5.803 6.23 4.339-4.766 15.354-4.668 4.677-8.488 8.558-8.488 8.625s3.745 3.866 8.322 8.442c9.461 9.458 9.631 9.684 8.681 11.523-.38.737-7.379 7.649-8.097 7.997-1.905.923-1.8 1.002-11.447-8.634l-8.457-8.449-8.543 8.524c-11.102 11.078-9.637 10.658-15.739 4.515-3.944-3.971-4.238-4.392-3.96-5.684.221-1.027.649-1.495 8.977-9.812l8.412-8.401-8.256-8.241c-9.052-9.036-9.115-9.108-9.115-10.52 0-1.222.085-1.332 4.204-5.445 4.263-4.258 4.978-4.658 6.713-3.761m-123.81 6.576c-1.888 1.234-1.716-.43-1.716 16.611v14.829l.453.581c1.142 1.465 4.722 3.084 9.13 4.131.459.109 1.246.297 1.75.419.504.121 1.404.309 2 .418s1.459.273 1.917.364c2.371.473 9.962 1.485 13.5 1.8 10.318.92 14.426 1.082 27.333 1.083 13.659 0 18.907-.235 29.89-1.339.984-.099 1.049-.131.943-.463-.92-2.894-1.847-7.426-2.273-11.107-.45-3.883-.153-12.564.533-15.627.222-.987.281-.964-1.971-.739-18.783 1.884-44.086 1.516-61.372-.891-1.93-.269-5.827-.949-7-1.221-2.557-.593-3.253-.78-4.78-1.279-5.708-1.868-6.622-3.845-2.726-5.896l1.237-.651-.657-.175c-.361-.096-1.07-.281-1.574-.412s-1.499-.434-2.212-.674c-.712-.239-1.312-.435-1.334-.435s-.504.303-1.071.673m280.53.075c-.917.298-2.145.684-2.729.858l-1.063.316 1.276.648c5.701 2.893-.193 6.353-14.067 8.258-4.977.684-5.118.7-10.084 1.184-14.488 1.411-39.06 1.249-53.094-.35-2.264-.258-2.129-.306-1.965.713.743 4.631.976 11.685.51 15.458-.514 4.153-1.107 7.272-1.883 9.901-.268.909-.462 1.677-.432 1.707.073.073 2.68.35 5.281.56 1.146.093 2.271.205 2.5.248 6.107 1.158 37.977 1.112 49.667-.07.87-.088 2.483-.245 3.583-.348 13.608-1.274 24.214-4.011 26.671-6.881l.579-.677v-29.72l-.458-.589c-.476-.611-2.127-1.813-2.444-1.778-.1.011-.931.264-1.848.562m-280.33 38.648c-.459.301-1.077.825-1.375 1.165l-.542.617v14.849c0 14.597.006 14.859.336 15.394 1.306 2.113 7.634 4.331 16.331 5.724l2.583.418c.825.134 2.25.329 3.167.433.916.104 2.566.294 3.666.422 16.856 1.96 43.145 1.96 60 0 1.1-.128 2.75-.318 3.667-.422s2.342-.299 3.167-.433l2.583-.418c7.394-1.184 13.094-2.966 15.542-4.857.837-.647.844-.631-.917-1.805-.848-.566-1.735-1.187-1.97-1.381-.236-.194-.683-.54-.993-.769-5.358-3.958-11.114-10.514-14.817-16.875-1.169-2.009-1.161-2.005-3.114-1.639-1.729.324-9.332 1.06-13.814 1.337-20.296 1.253-43.153.418-57.167-2.09-2.637-.472-3.357-.62-4.917-1.009-8.694-2.169-10.688-4.637-5.671-7.017l.911-.433-1.911-.53c-1.649-.456-2.375-.682-3.662-1.139-.138-.049-.625.157-1.083.458m281.66-.154c-.271.113-1.354.45-2.408.749-1.055.298-2.104.599-2.334.667-.38.114-.316.174.747.692 5.766 2.807.604 6.172-12.497 8.146-.733.11-1.738.268-2.234.351-1.751.293-8.945 1.04-12.599 1.308-6.951.51-10.04.595-21.667.595-11.669 0-13.31-.046-21.333-.59-3.567-.242-9.287-.834-12.167-1.259-.916-.135-1.891-.278-2.166-.317-.484-.068-.539-.002-1.717 2.048-3.736 6.503-9.238 12.618-15.757 17.511-.994.746-1.857 1.359-1.917 1.362-.478.023-.708.481-.472.938.96 1.857 6.038 3.879 13.279 5.289 7.039 1.371 15.794 2.345 26.667 2.969 5.089.292 26.744.292 31.833 0 12.377-.71 21.491-1.809 29.334-3.537 4.09-.902 7.978-2.358 9.491-3.555 1.467-1.161 1.34.393 1.341-16.363l.001-14.837-.513-.622c-1.007-1.222-2.189-1.849-2.912-1.545"/></g></svg>