<svg version="1.1" viewBox="0 0 400 399.09" width="400" height="399.092970521542" xmlns="http://www.w3.org/2000/svg">
<g fill="#fff" fill-rule="evenodd">
<path d="m190.58 0.102c-6.887 0.256-17.916 1.462-25.583 2.798-3.423 0.597-7.747 1.469-10.5 2.119-3.146 0.743-4.954 1.187-5.667 1.392-0.412 0.119-1.2 0.336-1.75 0.483-3.565 0.951-5.294 1.48-10.666 3.262-6.112 2.026-16.427 5.994-17.334 6.667-0.091 0.069-0.466 0.241-0.833 0.383-3.214 1.248-15.214 7.359-18.173 9.253-0.18 0.116-0.439 0.261-0.577 0.323-0.502 0.226-5.265 3.099-5.781 3.486-0.291 0.219-0.57 0.399-0.619 0.399-0.157 0-5.735 3.713-8.35 5.558-3.068 2.165-7.026 5.1-8.576 6.358-0.338 0.275-0.941 0.763-1.339 1.084-9.252 7.46-16.686 14.539-24.919 23.729-0.092 0.103-0.617 0.712-1.167 1.354-0.549 0.642-1.038 1.204-1.086 1.25-0.092 0.088-1.575 1.858-1.996 2.383-0.138 0.172-0.389 0.474-0.558 0.673-1.211 1.421-4.199 5.261-5.858 7.527-0.603 0.825-1.192 1.616-1.309 1.756-1.011 1.225-6.076 8.758-8.045 11.965-0.356 0.58-0.798 1.292-0.982 1.583-0.433 0.683-2.101 3.5-2.583 4.363-0.205 0.367-0.69 1.229-1.076 1.917-7.629 13.554-13.946 28.941-18.166 44.25-0.253 0.916-0.558 2.004-0.677 2.416-0.202 0.698-0.871 3.434-1.263 5.167-0.093 0.412-0.238 1.012-0.321 1.333s-0.302 1.352-0.487 2.292c-0.186 0.939-0.408 2.027-0.494 2.416-1.309 5.904-2.606 15.372-3.35 24.453-0.653 7.974-0.654 22.202-2e-3 29.967 0.611 7.279 1.253 12.615 2.181 18.122 0.276 1.639 0.45 2.609 0.987 5.5 0.085 0.459 0.39 1.921 0.676 3.25 0.767 3.555 0.994 4.556 1.476 6.5 0.471 1.899 0.663 2.6 2.189 8 4.217 14.926 12.608 33.922 20.811 47.115 0.239 0.384 0.726 1.172 1.083 1.75 3.923 6.352 9.434 14.131 14.018 19.786 1.415 1.747 1.68 2.07 1.833 2.245 0.092 0.104 0.54 0.639 0.996 1.189 0.457 0.549 0.869 1.036 0.917 1.082s0.537 0.608 1.087 1.249c0.967 1.128 1.817 2.1 2.171 2.483 0.094 0.101 1.03 1.122 2.079 2.268 3.122 3.408 9.022 9.255 12.253 12.141 0.548 0.49 1.297 1.167 1.664 1.504 1.092 1.005 2.866 2.525 5.166 4.427 1.192 0.985 2.317 1.915 2.501 2.068 0.184 0.152 0.671 0.539 1.083 0.86s0.899 0.712 1.082 0.869c0.583 0.498 4.721 3.572 7.06 5.245 1.862 1.331 8.495 5.788 9.382 6.303 0.158 0.091 1.211 0.735 2.34 1.429 14.043 8.639 28.037 14.944 45.636 20.563 3.321 1.06 9.557 2.715 13.833 3.67 0.596 0.134 1.608 0.36 2.25 0.503s1.767 0.375 2.5 0.516 1.821 0.359 2.417 0.486c0.595 0.126 1.608 0.312 2.25 0.413 0.641 0.101 1.804 0.29 2.583 0.42 4.513 0.751 9.6 1.411 13.417 1.742 1.1 0.095 2.862 0.249 3.916 0.342 4.276 0.377 10.827 0.536 18.334 0.447 9.397-0.113 15.012-0.512 24-1.707 4.765-0.633 11.126-1.743 15.25-2.66 0.641-0.143 1.654-0.367 2.25-0.497 1.451-0.32 8.203-2.028 9.25-2.342 0.458-0.137 1.245-0.369 1.75-0.515 0.504-0.147 1.104-0.326 1.333-0.398s1.092-0.335 1.917-0.583c5.278-1.589 11.882-3.974 18.083-6.53 2.15-0.886 2.703-1.127 5.167-2.25 0.595-0.272 1.42-0.648 1.833-0.836 2.282-1.039 8.807-4.329 11.163-5.628 1.498-0.826 2.747-1.502 2.774-1.502 0.028 0 0.598-0.326 1.265-0.724 0.668-0.398 2.152-1.275 3.298-1.948 1.146-0.674 2.308-1.38 2.583-1.569s0.63-0.418 0.788-0.509c2.761-1.593 13.666-9.11 14.629-10.084 0.046-0.047 0.533-0.417 1.083-0.822 0.55-0.406 1.038-0.783 1.084-0.838 0.045-0.054 0.758-0.621 1.583-1.259 1.671-1.293 5.408-4.356 5.667-4.644 0.091-0.103 0.691-0.636 1.333-1.186 1.394-1.193 1.175-1 3.105-2.749 4.959-4.495 10.939-10.548 15.149-15.335 0.685-0.779 1.289-1.454 1.341-1.5 0.086-0.076 3.615-4.323 4.915-5.916 0.299-0.367 1.04-1.305 1.646-2.084 0.607-0.779 1.424-1.829 1.817-2.333 2.151-2.763 7.08-9.886 10.031-14.5 3.331-5.207 8.358-14.378 11.192-20.417 1.67-3.557 2.028-4.348 2.639-5.833 0.34-0.825 0.674-1.575 0.743-1.667 0.116-0.156 1.798-4.323 2.725-6.75 0.228-0.596 0.603-1.571 0.834-2.166 1.232-3.175 4.227-12.584 5.385-16.917 0.147-0.55 0.365-1.338 0.484-1.75s0.308-1.162 0.419-1.667c0.111-0.504 0.298-1.254 0.415-1.666 0.117-0.413 0.256-0.975 0.308-1.25s0.215-1.025 0.361-1.667c0.389-1.714 1.063-4.876 1.243-5.833 0.085-0.459 0.269-1.434 0.408-2.167s0.335-1.895 0.436-2.581c0.1-0.686 0.206-1.286 0.235-1.333 0.028-0.047 0.175-0.986 0.325-2.086 0.151-1.1 0.378-2.713 0.505-3.583 0.416-2.849 0.973-8.383 1.369-13.584 0.416-5.463 0.416-20.689 1e-3 -26.166-0.376-4.966-0.926-10.412-1.371-13.584-0.604-4.304-0.752-5.258-1.249-8.083-0.69-3.918-0.722-4.084-1.334-6.917-0.771-3.572-0.996-4.563-1.477-6.5-0.325-1.312-0.521-2.053-1.122-4.25-1.631-5.966-4.141-13.706-5.971-18.416-1.364-3.512-2.491-6.303-2.927-7.25-0.254-0.55-0.664-1.488-0.913-2.084-0.44-1.054-0.591-1.391-1.798-4-1.98-4.279-5.827-11.746-7.061-13.705-0.215-0.342-0.391-0.66-0.391-0.708 0-0.094-3.784-6.463-4.409-7.42-4.163-6.381-7.79-11.625-10.028-14.5-2.807-3.607-6.071-7.629-7.911-9.75-3.889-4.481-6.018-6.77-9.994-10.743-2.19-2.188-5.681-5.527-7.348-7.028-3.773-3.396-8.34-7.225-11.477-9.622-0.871-0.665-1.696-1.299-1.833-1.409-2.685-2.141-9.91-7.154-13.948-9.679-0.716-0.447-1.565-0.982-1.886-1.188-0.866-0.555-3.678-2.225-5.666-3.366-1.687-0.967-2.754-1.56-5.25-2.917-1.71-0.929-9.603-4.819-11.25-5.544-0.78-0.343-1.867-0.831-2.417-1.084-1.032-0.475-5.672-2.388-7.583-3.125-0.596-0.23-1.459-0.57-1.917-0.754-1.897-0.765-9.936-3.527-11.75-4.038-0.413-0.116-1.5-0.438-2.417-0.714-0.916-0.276-2.416-0.705-3.333-0.953s-2.004-0.55-2.417-0.672c-0.742-0.22-1.505-0.406-4.416-1.077-0.825-0.191-1.95-0.454-2.5-0.586-1.327-0.318-4.113-0.897-5.225-1.087-0.49-0.083-1.015-0.191-1.166-0.239-0.302-0.095-5.574-0.981-7.443-1.251-0.641-0.093-1.916-0.278-2.833-0.412-2.689-0.392-7.743-0.921-13-1.362-2.996-0.251-18.925-0.456-23.167-0.298m21.584 13.205c1.146 0.102 3.058 0.266 4.25 0.364 10.313 0.847 25.925 3.74 34.583 6.408 0.412 0.127 1.762 0.542 3 0.921 3.63 1.113 8.149 2.647 11.083 3.763 0.642 0.244 1.438 0.543 1.769 0.665 0.99 0.364 3.62 1.436 4.859 1.981 0.345 0.151 1.47 0.637 2.5 1.078 7.491 3.212 17.185 8.308 23.956 12.593 3.918 2.48 7.134 4.652 10.75 7.26 1.833 1.322 3.483 2.53 3.666 2.684 0.184 0.155 0.971 0.777 1.75 1.384 0.779 0.606 1.529 1.194 1.667 1.306 0.137 0.112 0.625 0.503 1.083 0.87 0.458 0.366 0.919 0.741 1.023 0.833 0.104 0.091 0.554 0.474 1 0.85 6.296 5.309 13.076 11.762 17.736 16.879 0.866 0.951 1.691 1.851 1.834 2 0.782 0.816 4.703 5.464 6.491 7.693 0.321 0.401 0.773 0.957 1.005 1.236 0.231 0.28 0.756 0.958 1.166 1.508 0.409 0.55 0.789 1.038 0.843 1.084 0.195 0.166 4.132 5.641 5.752 8 1.327 1.932 3.158 4.76 5.072 7.833 0.321 0.515 3.292 5.619 3.784 6.5 1.484 2.659 4.809 9.176 5.951 11.667 0.4 0.87 0.964 2.102 1.254 2.736 1.036 2.264 3.284 7.762 4.655 11.386 1.515 4.002 4.044 11.898 5.086 15.878 1.016 3.884 1.653 6.575 2.682 11.333 0.449 2.076 1.18 6.22 1.749 9.917 2.475 16.08 2.622 35.287 0.401 52.25-0.534 4.079-1.488 9.771-2.15 12.833-1.029 4.758-1.666 7.449-2.682 11.333-1.042 3.98-3.571 11.876-5.086 15.878-1.554 4.106-3.793 9.542-4.916 11.933-0.403 0.858-0.733 1.592-0.733 1.631 0 0.562-5.72 11.45-8.392 15.975-3.587 6.072-6.097 9.886-10.588 16.083-0.963 1.329-1.793 2.454-1.844 2.5-0.052 0.046-0.431 0.534-0.843 1.084s-0.788 1.037-0.837 1.083c-0.048 0.046-0.347 0.421-0.663 0.833-0.316 0.413-0.614 0.788-0.662 0.834-0.049 0.045-0.538 0.646-1.088 1.333-0.549 0.688-1.037 1.287-1.083 1.333s-1.02 1.171-2.164 2.5c-1.145 1.329-2.307 2.671-2.583 2.982-3.741 4.208-11.823 12.177-15.586 15.37-0.688 0.583-1.288 1.1-1.334 1.149-0.466 0.493-5.177 4.34-8.166 6.669-5.712 4.45-16.241 11.437-21.579 14.32-0.731 0.395-1.481 0.817-1.667 0.938-0.706 0.459-3.984 2.157-7.838 4.06-5.088 2.513-5.715 2.8-10.583 4.848-1.788 0.752-3.719 1.545-4.293 1.763-0.573 0.218-1.548 0.588-2.166 0.823-4.998 1.899-12.132 4.181-17.124 5.477-1.284 0.333-2.709 0.711-3.167 0.84-3.904 1.101-15.244 3.246-20.667 3.909-4.526 0.553-5.699 0.681-7.75 0.845-1.237 0.099-3.187 0.262-4.333 0.363-3.141 0.278-18.504 0.384-21.997 0.153-11.704-0.775-18.177-1.582-27.336-3.411-8.64-1.724-20.384-5.03-27-7.6-0.505-0.196-1.104-0.416-1.334-0.489-3.157-1.007-12.375-5.022-18.083-7.877-5.637-2.818-9.847-5.179-15.292-8.575-0.343-0.215-0.906-0.565-1.25-0.78-1.817-1.133-5.427-3.565-7.708-5.194-5.145-3.675-4.804-3.419-9.35-7.024-1.064-0.843-2.039-1.633-2.167-1.755s-0.646-0.558-1.15-0.968-1.179-0.982-1.5-1.27-1.033-0.919-1.583-1.402c-4.937-4.334-13.065-12.457-16.738-16.729-0.386-0.448-0.79-0.907-0.898-1.019-0.109-0.113-0.348-0.383-0.533-0.602-0.661-0.782-3.668-4.395-3.865-4.644-0.11-0.139-0.86-1.087-1.666-2.105-0.807-1.019-2.217-2.885-3.133-4.146-0.917-1.262-1.742-2.38-1.834-2.485-0.34-0.39-5.416-7.932-5.416-8.048 0-0.045-0.213-0.393-0.473-0.775-2.887-4.234-9.853-17.035-11.897-21.861-0.579-1.366-1.093-2.531-1.584-3.583-1.344-2.882-5.66-14.297-6.207-16.417-0.071-0.275-0.286-0.957-0.478-1.517-1.34-3.912-3.574-12.533-4.767-18.399-0.159-0.78-0.362-1.75-0.452-2.157-0.231-1.047-0.951-5.284-1.234-7.26-0.751-5.237-0.821-5.815-1.318-10.833-0.56-5.662-0.674-8.616-0.674-17.584 0-8.963 0.093-11.325 0.676-17.25 0.487-4.959 0.563-5.583 1.316-10.833 0.273-1.908 0.981-6.061 1.264-7.417 0.106-0.504 0.294-1.404 0.418-2 1.341-6.415 3.25-13.802 4.675-18.09 0.242-0.73 0.499-1.551 0.571-1.826s0.556-1.7 1.077-3.167 1.01-2.854 1.088-3.083c0.332-0.983 1.933-5.144 2.339-6.084 0.079-0.183 0.493-1.196 0.92-2.25 0.426-1.054 0.829-1.991 0.895-2.083 0.067-0.092 0.293-0.579 0.503-1.083 1.029-2.472 4.887-10.383 6.381-13.084 0.406-0.733 0.965-1.746 1.242-2.25 2.195-3.996 4.751-8.159 7.931-12.916 2.593-3.879 3.017-4.501 3.12-4.584 0.057-0.046 0.472-0.608 0.922-1.25 0.45-0.641 0.858-1.204 0.907-1.25 0.05-0.046 0.734-0.945 1.521-2 3.006-4.026 7.04-8.88 10.875-13.083 3.016-3.305 10.054-10.255 13.84-13.667 0.102-0.093 0.711-0.618 1.353-1.167 0.641-0.55 1.241-1.079 1.333-1.176 0.317-0.337 1.923-1.657 5.417-4.456 4.861-3.894 12.617-9.357 17.462-12.298 0.667-0.405 1.754-1.065 2.417-1.467 4.747-2.881 12.01-6.771 16.621-8.902 2.908-1.344 3.856-1.768 6.5-2.904 2.619-1.125 6.566-2.698 7.666-3.055 0.23-0.075 1.054-0.373 1.834-0.664 4.529-1.689 12.101-4.033 17-5.262 11.671-2.928 22.819-4.691 34.166-5.402 1.605-0.101 3.105-0.208 3.334-0.239 1.027-0.138 19.633 0.049 21.5 0.216m1.666 60.037c-10.014 0.752-19.043 3.019-28 7.032-1.93 0.865-5.468 2.645-6.517 3.279-0.311 0.188-0.679 0.393-0.816 0.456-1.124 0.51-8.953 5.717-9.333 6.207-0.046 0.059-0.421 0.365-0.834 0.68-3.022 2.31-7.64 6.596-10.333 9.59-3.518 3.91-5.014 5.816-7.928 10.1l-2.113 3.105-1.847-0.653c-26.252-9.285-55.366 7.399-61.7 35.36-0.563 2.487-0.523 2.396-1.199 2.705-2.334 1.065-7.385 4.316-10.213 6.574-3.706 2.959-7.142 6.298-9.919 9.638-0.457 0.55-0.876 1.037-0.93 1.083-0.206 0.172-3.601 4.954-4.143 5.833-0.31 0.505-0.815 1.307-1.122 1.783-7.882 12.225-11.503 31.654-8.785 47.134 0.372 2.118 0.723 3.902 0.902 4.583 0.084 0.321 0.274 1.109 0.422 1.75 0.479 2.074 2.954 9.242 3.395 9.834 0.068 0.091 0.225 0.429 0.347 0.75 1.055 2.758 6.225 11.7 7.323 12.666 0.053 0.046 0.426 0.534 0.831 1.084 0.714 0.97 1.732 2.205 3.087 3.75 2.314 2.635 6.583 6.598 9.262 8.598 3.851 2.873 5.984 4.207 10.287 6.429 2.672 1.379 2.435 1.377 2.704 0.014 0.681-3.46 2.117-6.509 4.811-10.216 0.204-0.28 0.127-0.351-0.909-0.835-7.243-3.386-14.464-9.352-19.455-16.074-0.613-0.825-1.172-1.575-1.243-1.666-0.072-0.092-0.65-0.992-1.286-2-8.338-13.226-10.654-28.931-6.66-45.167 0.963-3.913 3.554-9.999 5.961-14 0.905-1.503 3.045-4.708 3.283-4.917 0.053-0.046 0.355-0.421 0.672-0.833s0.653-0.832 0.746-0.931c0.093-0.1 0.581-0.68 1.086-1.289 1.01-1.22 3.9-4.098 5.333-5.31 1.816-1.536 2.102-1.765 3.333-2.667 2.869-2.102 5.678-3.728 9.834-5.691 2.198-1.039 3.496-2.684 3.827-4.852 1.502-9.833 4.783-16.73 10.794-22.69 10.969-10.875 25.946-13.206 39.959-6.218 4.551 2.269 8.522 0.986 9.924-3.205 0.195-0.585 0.429-1.139 0.519-1.23 0.107-0.11 0.121-0.057 0.042 0.152-0.085 0.223-0.063 0.283 0.073 0.199 0.107-0.067 0.195-0.192 0.195-0.28 0-0.321 2.914-4.854 4.653-7.238 6.704-9.192 15.026-16.44 25.02-21.792 0.324-0.173 0.884-0.722 1.245-1.22 0.564-0.778 0.732-0.905 1.202-0.905 0.723 0 0.699 0.056-0.326 0.746-1.103 0.743-0.831 0.753 0.646 0.023 17.614-8.703 40.214-8.842 58.458-0.358 1.572 0.731 2.416 0.945 1.242 0.315-0.502-0.27-0.521-0.305-0.191-0.356 0.257-0.04 0.589 0.169 1.118 0.706 0.414 0.42 1.075 0.914 1.468 1.098 1.038 0.486 1.782 0.895 2.943 1.621 10.982 6.861 18.633 14.497 25.507 25.455 2.337 3.727 5.496 10.519 7.015 15.084 0.816 2.45 1.675 5.554 2.331 8.416 0.707 3.088 1.403 7.948 1.588 11.084 0.437 7.438 1.091 8.369 7.016 9.994 14.578 3.999 27.601 15.798 32.742 29.667 0.77 2.078 1.314 3.677 1.789 5.255 0.885 2.943 1.063 3.65 1.132 4.5 0.037 0.459 0.148 1.209 0.247 1.667 0.867 4.025 0.824 12.345-0.091 17.543-0.15 0.848-0.224 1.621-0.165 1.716 0.058 0.095 0.024 0.271-0.076 0.392s-0.262 0.661-0.359 1.201c-0.186 1.029-1.673 5.595-2.519 7.731-1.351 3.414-4.601 9.195-6.532 11.62-2.59 3.252-5.322 6.166-7.386 7.88-0.608 0.505-1.192 1.003-1.299 1.109-0.505 0.497-4.018 2.947-5.585 3.892-7.359 4.445-14.705 6.496-24.254 6.772l-3.912 0.113v6.317 6.316l4.791-0.064c2.636-0.036 5.355-0.152 6.042-0.258 0.688-0.105 1.775-0.273 2.417-0.372 22.737-3.5 42.21-20.573 49.226-43.158 0.385-1.238 0.777-2.494 0.873-2.792 0.095-0.299 0.125-0.711 0.067-0.917-0.071-0.254-0.056-0.303 0.049-0.153 0.111 0.16 0.181 0.069 0.255-0.333 0.056-0.305 0.219-1.08 0.363-1.722 2.862-12.747 1.799-25.946-3.133-38.916-2.81-7.388-8.285-15.666-14.357-21.706-2.778-2.762-7.882-6.923-9.845-8.024-0.274-0.154-1.061-0.623-1.748-1.042-4.03-2.458-7.594-4.114-12.36-5.743l-0.61-0.208-0.186-1.68c-0.237-2.138-0.637-4.969-0.944-6.681-0.53-2.955-0.611-3.369-0.827-4.25-0.123-0.504-0.333-1.366-0.466-1.916-1.038-4.304-4.018-13.177-4.758-14.164-0.07-0.093-0.226-0.432-0.347-0.753-2.217-5.883-8.784-16.175-14.55-22.805-0.701-0.806-6.704-6.806-7.452-7.449-3.872-3.327-7.194-5.838-10.542-7.969-0.527-0.336-1.352-0.861-1.833-1.168-1.446-0.922-3.056-1.776-3.35-1.776-0.151 0-0.275-0.078-0.275-0.173 0-0.2-4.509-2.447-6.944-3.46-4.783-1.992-8.227-3.129-12.89-4.257-2.822-0.683-6.026-1.285-8.583-1.613-4.649-0.596-12.03-0.815-16.417-0.486m46.489 11.06c0.162 0.194 0.136 0.22-0.146 0.147-0.188-0.05-0.343-0.156-0.343-0.237 0-0.225 0.269-0.176 0.489 0.09m-33.322 35.929c-0.222 0.144-0.222 0.162 0 0.162 0.137 0 0.362-0.073 0.5-0.162 0.222-0.143 0.222-0.161 0-0.161-0.138 0-0.363 0.072-0.5 0.161m172.44 14.778c-0.061 0.061-0.106 0.267-0.1 0.458 0.01 0.32 0.023 0.316 0.17-0.052 0.163-0.408 0.13-0.605-0.07-0.406m-0.361 1.222c-0.062 0.197-0.076 0.396-0.03 0.442s0.134-0.078 0.197-0.275 0.076-0.396 0.03-0.442c-0.045-0.046-0.134 0.078-0.197 0.275m-53.342 65.371c0.46 0.657 0.328 1.071-0.158 0.493-0.429-0.51-0.535-0.864-0.259-0.864 0.086 0 0.274 0.167 0.417 0.371m-11.013 2.617c-0.086 0.43-0.143 0.492-0.257 0.287-0.182-0.323 0.012-1.192 0.219-0.985 0.081 0.081 0.098 0.395 0.038 0.698m0.192 1.958-0.123 0.471-0.154-0.406c-0.193-0.505-0.048-0.983 0.217-0.717 0.109 0.109 0.133 0.37 0.06 0.652m-67.42 9.658c-5.363 0.485-11.352 3.206-14.687 6.672-7.844 8.153-3.8 19.612 8.437 23.913 1.008 0.354 1.965 0.644 2.125 0.644 0.277 1e-3 0.292 2.088 0.292 41.501v41.5h7.166 7.167v-4.334-4.333h5.917 5.916v-5.25-5.25h-5.916-5.917v-2-2h5.917 5.916v-5.25-5.25h-5.916-5.917v-24.635-24.635l0.875-0.223c8.123-2.072 13.892-8.351 13.864-15.09-0.041-9.953-11.523-17.223-25.239-15.98m-73.833 8.217c-2.822 0.415-5.574 1.692-7.959 3.694-0.664 0.558-1.209 1.064-1.209 1.125-1e-3 0.061-0.257 0.38-0.57 0.709-3.487 3.679-4.631 10.677-2.583 15.794 4.867 12.155 21.446 13.69 28.163 2.607 1.143-1.885 1.681-3.31 2.077-5.5 1.927-10.654-7.167-20.007-17.919-18.429m80.5 0.255c0.779 0.13 1.679 0.319 2 0.42 0.32 0.101 0.845 0.261 1.166 0.357 0.905 0.268 3.527 1.597 4.084 2.069 3.544 3.008 3.948 5.226 1.468 8.061-5.391 6.163-20.218 5.746-24.726-0.695-3.93-5.615 5.918-11.897 16.008-10.212m-158.17 0.696c-3.02 0.433-3.787 0.632-5.547 1.446-10.018 4.628-12.254 18.118-4.261 25.713 7.062 6.71 18.272 5.621 23.886-2.321 3.291-4.655 3.682-11.972 0.893-16.693-0.163-0.275-0.451-0.784-0.64-1.132-2.257-4.139-9.534-7.7-14.331-7.013m37.583 8.302c-12.567 2.528-17.064 18.217-7.736 26.992 4.769 4.486 11.662 5.57 17.571 2.763 11.673-5.547 12.097-21.953 0.73-28.207-2.805-1.543-7.308-2.202-10.565-1.548m33.667 23.256c-4.329 0.425-8.499 2.369-11.801 5.503l-1.36 1.29 0.997 0.511c3.108 1.593 6.338 4.491 8.869 7.959 1.229 1.683 2.913 5.469 3.532 7.937 0.549 2.191 0.644 3.532 0.774 10.922l0.121 6.868 0.684 0.087c6.847 0.87 16.725 0.419 23.517-1.074 4.497-0.988 9.501-2.74 10.122-3.543 0.341-0.442 0.441-15.429 0.123-18.421-0.945-8.892-7.288-15.955-15.885-17.691-1.7-0.343-16.989-0.613-19.693-0.348m-79.25 1.115c-9.311 1.474-15.754 7.545-17.445 16.436-0.368 1.939-0.538 19.71-0.192 20.168 0.129 0.17 0.866 0.472 1.723 0.706 0.823 0.225 2.21 0.604 3.081 0.843 0.87 0.24 2.033 0.544 2.583 0.677 0.55 0.132 1.412 0.344 1.917 0.47 7.03 1.759 17.995 2.649 24.375 1.98l0.958-0.101v-6.325c0-6.504 0.153-9.453 0.603-11.632 1.455-7.04 5.084-12.214 11.403-16.256 0.684-0.438 1.279-0.826 1.322-0.862 0.146-0.123-1.905-1.887-3.246-2.792-2.679-1.808-5.29-2.799-8.377-3.182-1.811-0.225-17.421-0.333-18.705-0.13m38.417 8.213c-7.228 1.332-13.261 6.473-15.561 13.259-0.987 2.912-1.189 5.484-1.189 15.121v7.955l0.375 0.228c0.206 0.125 0.825 0.352 1.375 0.503 0.55 0.152 1.934 0.541 3.075 0.865 14.338 4.069 29.904 4.446 42.175 1.02 2.588-0.722 6.273-2.218 6.683-2.712 0.206-0.249 0.248-16.707 0.048-18.813-0.776-8.168-7.443-15.476-15.759-17.275-2.479-0.537-18.512-0.651-21.222-0.151m78.67 0.967c1.218 2.908 1.912 6.121 1.914 8.875 1e-3 0.963 0.049 2.144 0.107 2.625l0.105 0.875h16.144 16.143v-6.333-6.333h-17.268c-16.381 0-17.261 0.015-17.145 0.291"/>
<path d="m190.58 0.102c-6.887 0.256-17.916 1.462-25.583 2.798-3.423 0.597-7.747 1.469-10.5 2.119-3.146 0.743-4.954 1.187-5.667 1.392-0.412 0.119-1.2 0.336-1.75 0.483-3.565 0.951-5.294 1.48-10.666 3.262-6.112 2.026-16.427 5.994-17.334 6.667-0.091 0.069-0.466 0.241-0.833 0.383-3.214 1.248-15.214 7.359-18.173 9.253-0.18 0.116-0.439 0.261-0.577 0.323-0.502 0.226-5.265 3.099-5.781 3.486-0.291 0.219-0.57 0.399-0.619 0.399-0.157 0-5.735 3.713-8.35 5.558-3.068 2.165-7.026 5.1-8.576 6.358-0.338 0.275-0.941 0.763-1.339 1.084-9.252 7.46-16.686 14.539-24.919 23.729-0.092 0.103-0.617 0.712-1.167 1.354-0.549 0.642-1.038 1.204-1.086 1.25-0.092 0.088-1.575 1.858-1.996 2.383-0.138 0.172-0.389 0.474-0.558 0.673-1.211 1.421-4.199 5.261-5.858 7.527-0.603 0.825-1.192 1.616-1.309 1.756-1.011 1.225-6.076 8.758-8.045 11.965-0.356 0.58-0.798 1.292-0.982 1.583-0.433 0.683-2.101 3.5-2.583 4.363-0.205 0.367-0.69 1.229-1.076 1.917-7.629 13.554-13.946 28.941-18.166 44.25-0.253 0.916-0.558 2.004-0.677 2.416-0.202 0.698-0.871 3.434-1.263 5.167-0.093 0.412-0.238 1.012-0.321 1.333s-0.302 1.352-0.487 2.292c-0.186 0.939-0.408 2.027-0.494 2.416-1.309 5.904-2.606 15.372-3.35 24.453-0.653 7.974-0.654 22.202-2e-3 29.967 0.611 7.279 1.253 12.615 2.181 18.122 0.276 1.639 0.45 2.609 0.987 5.5 0.085 0.459 0.39 1.921 0.676 3.25 0.767 3.555 0.994 4.556 1.476 6.5 0.471 1.899 0.663 2.6 2.189 8 4.217 14.926 12.608 33.922 20.811 47.115 0.239 0.384 0.726 1.172 1.083 1.75 3.923 6.352 9.434 14.131 14.018 19.786 1.415 1.747 1.68 2.07 1.833 2.245 0.092 0.104 0.54 0.639 0.996 1.189 0.457 0.549 0.869 1.036 0.917 1.082s0.537 0.608 1.087 1.249c0.967 1.128 1.817 2.1 2.171 2.483 0.094 0.101 1.03 1.122 2.079 2.268 3.122 3.408 9.022 9.255 12.253 12.141 0.548 0.49 1.297 1.167 1.664 1.504 1.092 1.005 2.866 2.525 5.166 4.427 1.192 0.985 2.317 1.915 2.501 2.068 0.184 0.152 0.671 0.539 1.083 0.86s0.899 0.712 1.082 0.869c0.583 0.498 4.721 3.572 7.06 5.245 1.862 1.331 8.495 5.788 9.382 6.303 0.158 0.091 1.211 0.735 2.34 1.429 14.043 8.639 28.037 14.944 45.636 20.563 3.321 1.06 9.557 2.715 13.833 3.67 0.596 0.134 1.608 0.36 2.25 0.503s1.767 0.375 2.5 0.516 1.821 0.359 2.417 0.486c0.595 0.126 1.608 0.312 2.25 0.413 0.641 0.101 1.804 0.29 2.583 0.42 4.513 0.751 9.6 1.411 13.417 1.742 1.1 0.095 2.862 0.249 3.916 0.342 4.276 0.377 10.827 0.536 18.334 0.447 9.397-0.113 15.012-0.512 24-1.707 4.765-0.633 11.126-1.743 15.25-2.66 0.641-0.143 1.654-0.367 2.25-0.497 1.451-0.32 8.203-2.028 9.25-2.342 0.458-0.137 1.245-0.369 1.75-0.515 0.504-0.147 1.104-0.326 1.333-0.398s1.092-0.335 1.917-0.583c5.278-1.589 11.882-3.974 18.083-6.53 2.15-0.886 2.703-1.127 5.167-2.25 0.595-0.272 1.42-0.648 1.833-0.836 2.282-1.039 8.807-4.329 11.163-5.628 1.498-0.826 2.747-1.502 2.774-1.502 0.028 0 0.598-0.326 1.265-0.724 0.668-0.398 2.152-1.275 3.298-1.948 1.146-0.674 2.308-1.38 2.583-1.569s0.63-0.418 0.788-0.509c2.761-1.593 13.666-9.11 14.629-10.084 0.046-0.047 0.533-0.417 1.083-0.822 0.55-0.406 1.038-0.783 1.084-0.838 0.045-0.054 0.758-0.621 1.583-1.259 1.671-1.293 5.408-4.356 5.667-4.644 0.091-0.103 0.691-0.636 1.333-1.186 1.394-1.193 1.175-1 3.105-2.749 4.959-4.495 10.939-10.548 15.149-15.335 0.685-0.779 1.289-1.454 1.341-1.5 0.086-0.076 3.615-4.323 4.915-5.916 0.299-0.367 1.04-1.305 1.646-2.084 0.607-0.779 1.424-1.829 1.817-2.333 2.151-2.763 7.08-9.886 10.031-14.5 3.331-5.207 8.358-14.378 11.192-20.417 1.67-3.557 2.028-4.348 2.639-5.833 0.34-0.825 0.674-1.575 0.743-1.667 0.116-0.156 1.798-4.323 2.725-6.75 0.228-0.596 0.603-1.571 0.834-2.166 1.232-3.175 4.227-12.584 5.385-16.917 0.147-0.55 0.365-1.338 0.484-1.75s0.308-1.162 0.419-1.667c0.111-0.504 0.298-1.254 0.415-1.666 0.117-0.413 0.256-0.975 0.308-1.25s0.215-1.025 0.361-1.667c0.389-1.714 1.063-4.876 1.243-5.833 0.085-0.459 0.269-1.434 0.408-2.167s0.335-1.895 0.436-2.581c0.1-0.686 0.206-1.286 0.235-1.333 0.028-0.047 0.175-0.986 0.325-2.086 0.151-1.1 0.378-2.713 0.505-3.583 0.416-2.849 0.973-8.383 1.369-13.584 0.416-5.463 0.416-20.689 1e-3 -26.166-0.376-4.966-0.926-10.412-1.371-13.584-0.604-4.304-0.752-5.258-1.249-8.083-0.69-3.918-0.722-4.084-1.334-6.917-0.771-3.572-0.996-4.563-1.477-6.5-0.325-1.312-0.521-2.053-1.122-4.25-1.631-5.966-4.141-13.706-5.971-18.416-1.364-3.512-2.491-6.303-2.927-7.25-0.254-0.55-0.664-1.488-0.913-2.084-0.44-1.054-0.591-1.391-1.798-4-1.98-4.279-5.827-11.746-7.061-13.705-0.215-0.342-0.391-0.66-0.391-0.708 0-0.094-3.784-6.463-4.409-7.42-4.163-6.381-7.79-11.625-10.028-14.5-2.807-3.607-6.071-7.629-7.911-9.75-3.889-4.481-6.018-6.77-9.994-10.743-2.19-2.188-5.681-5.527-7.348-7.028-3.773-3.396-8.34-7.225-11.477-9.622-0.871-0.665-1.696-1.299-1.833-1.409-2.685-2.141-9.91-7.154-13.948-9.679-0.716-0.447-1.565-0.982-1.886-1.188-0.866-0.555-3.678-2.225-5.666-3.366-1.687-0.967-2.754-1.56-5.25-2.917-1.71-0.929-9.603-4.819-11.25-5.544-0.78-0.343-1.867-0.831-2.417-1.084-1.032-0.475-5.672-2.388-7.583-3.125-0.596-0.23-1.459-0.57-1.917-0.754-1.897-0.765-9.936-3.527-11.75-4.038-0.413-0.116-1.5-0.438-2.417-0.714-0.916-0.276-2.416-0.705-3.333-0.953s-2.004-0.55-2.417-0.672c-0.742-0.22-1.505-0.406-4.416-1.077-0.825-0.191-1.95-0.454-2.5-0.586-1.327-0.318-4.113-0.897-5.225-1.087-0.49-0.083-1.015-0.191-1.166-0.239-0.302-0.095-5.574-0.981-7.443-1.251-0.641-0.093-1.916-0.278-2.833-0.412-2.689-0.392-7.743-0.921-13-1.362-2.996-0.251-18.925-0.456-23.167-0.298m21.584 13.205c1.146 0.102 3.058 0.266 4.25 0.364 10.313 0.847 25.925 3.74 34.583 6.408 0.412 0.127 1.762 0.542 3 0.921 3.63 1.113 8.149 2.647 11.083 3.763 0.642 0.244 1.438 0.543 1.769 0.665 0.99 0.364 3.62 1.436 4.859 1.981 0.345 0.151 1.47 0.637 2.5 1.078 7.491 3.212 17.185 8.308 23.956 12.593 3.918 2.48 7.134 4.652 10.75 7.26 1.833 1.322 3.483 2.53 3.666 2.684 0.184 0.155 0.971 0.777 1.75 1.384 0.779 0.606 1.529 1.194 1.667 1.306 0.137 0.112 0.625 0.503 1.083 0.87 0.458 0.366 0.919 0.741 1.023 0.833 0.104 0.091 0.554 0.474 1 0.85 6.296 5.309 13.076 11.762 17.736 16.879 0.866 0.951 1.691 1.851 1.834 2 0.782 0.816 4.703 5.464 6.491 7.693 0.321 0.401 0.773 0.957 1.005 1.236 0.231 0.28 0.756 0.958 1.166 1.508 0.409 0.55 0.789 1.038 0.843 1.084 0.195 0.166 4.132 5.641 5.752 8 1.327 1.932 3.158 4.76 5.072 7.833 0.321 0.515 3.292 5.619 3.784 6.5 1.484 2.659 4.809 9.176 5.951 11.667 0.4 0.87 0.964 2.102 1.254 2.736 1.036 2.264 3.284 7.762 4.655 11.386 1.515 4.002 4.044 11.898 5.086 15.878 1.016 3.884 1.653 6.575 2.682 11.333 0.449 2.076 1.18 6.22 1.749 9.917 2.475 16.08 2.622 35.287 0.401 52.25-0.534 4.079-1.488 9.771-2.15 12.833-1.029 4.758-1.666 7.449-2.682 11.333-1.042 3.98-3.571 11.876-5.086 15.878-1.554 4.106-3.793 9.542-4.916 11.933-0.403 0.858-0.733 1.592-0.733 1.631 0 0.562-5.72 11.45-8.392 15.975-3.587 6.072-6.097 9.886-10.588 16.083-0.963 1.329-1.793 2.454-1.844 2.5-0.052 0.046-0.431 0.534-0.843 1.084s-0.788 1.037-0.837 1.083c-0.048 0.046-0.347 0.421-0.663 0.833-0.316 0.413-0.614 0.788-0.662 0.834-0.049 0.045-0.538 0.646-1.088 1.333-0.549 0.688-1.037 1.287-1.083 1.333s-1.02 1.171-2.164 2.5c-1.145 1.329-2.307 2.671-2.583 2.982-3.741 4.208-11.823 12.177-15.586 15.37-0.688 0.583-1.288 1.1-1.334 1.149-0.466 0.493-5.177 4.34-8.166 6.669-5.712 4.45-16.241 11.437-21.579 14.32-0.731 0.395-1.481 0.817-1.667 0.938-0.706 0.459-3.984 2.157-7.838 4.06-5.088 2.513-5.715 2.8-10.583 4.848-1.788 0.752-3.719 1.545-4.293 1.763-0.573 0.218-1.548 0.588-2.166 0.823-4.998 1.899-12.132 4.181-17.124 5.477-1.284 0.333-2.709 0.711-3.167 0.84-3.904 1.101-15.244 3.246-20.667 3.909-4.526 0.553-5.699 0.681-7.75 0.845-1.237 0.099-3.187 0.262-4.333 0.363-3.141 0.278-18.504 0.384-21.997 0.153-11.704-0.775-18.177-1.582-27.336-3.411-8.64-1.724-20.384-5.03-27-7.6-0.505-0.196-1.104-0.416-1.334-0.489-3.157-1.007-12.375-5.022-18.083-7.877-5.637-2.818-9.847-5.179-15.292-8.575-0.343-0.215-0.906-0.565-1.25-0.78-1.817-1.133-5.427-3.565-7.708-5.194-5.145-3.675-4.804-3.419-9.35-7.024-1.064-0.843-2.039-1.633-2.167-1.755s-0.646-0.558-1.15-0.968-1.179-0.982-1.5-1.27-1.033-0.919-1.583-1.402c-4.937-4.334-13.065-12.457-16.738-16.729-0.386-0.448-0.79-0.907-0.898-1.019-0.109-0.113-0.348-0.383-0.533-0.602-0.661-0.782-3.668-4.395-3.865-4.644-0.11-0.139-0.86-1.087-1.666-2.105-0.807-1.019-2.217-2.885-3.133-4.146-0.917-1.262-1.742-2.38-1.834-2.485-0.34-0.39-5.416-7.932-5.416-8.048 0-0.045-0.213-0.393-0.473-0.775-2.887-4.234-9.853-17.035-11.897-21.861-0.579-1.366-1.093-2.531-1.584-3.583-1.344-2.882-5.66-14.297-6.207-16.417-0.071-0.275-0.286-0.957-0.478-1.517-1.34-3.912-3.574-12.533-4.767-18.399-0.159-0.78-0.362-1.75-0.452-2.157-0.231-1.047-0.951-5.284-1.234-7.26-0.751-5.237-0.821-5.815-1.318-10.833-0.56-5.662-0.674-8.616-0.674-17.584 0-8.963 0.093-11.325 0.676-17.25 0.487-4.959 0.563-5.583 1.316-10.833 0.273-1.908 0.981-6.061 1.264-7.417 0.106-0.504 0.294-1.404 0.418-2 1.341-6.415 3.25-13.802 4.675-18.09 0.242-0.73 0.499-1.551 0.571-1.826s0.556-1.7 1.077-3.167 1.01-2.854 1.088-3.083c0.332-0.983 1.933-5.144 2.339-6.084 0.079-0.183 0.493-1.196 0.92-2.25 0.426-1.054 0.829-1.991 0.895-2.083 0.067-0.092 0.293-0.579 0.503-1.083 1.029-2.472 4.887-10.383 6.381-13.084 0.406-0.733 0.965-1.746 1.242-2.25 2.195-3.996 4.751-8.159 7.931-12.916 2.593-3.879 3.017-4.501 3.12-4.584 0.057-0.046 0.472-0.608 0.922-1.25 0.45-0.641 0.858-1.204 0.907-1.25 0.05-0.046 0.734-0.945 1.521-2 3.006-4.026 7.04-8.88 10.875-13.083 3.016-3.305 10.054-10.255 13.84-13.667 0.102-0.093 0.711-0.618 1.353-1.167 0.641-0.55 1.241-1.079 1.333-1.176 0.317-0.337 1.923-1.657 5.417-4.456 4.861-3.894 12.617-9.357 17.462-12.298 0.667-0.405 1.754-1.065 2.417-1.467 4.747-2.881 12.01-6.771 16.621-8.902 2.908-1.344 3.856-1.768 6.5-2.904 2.619-1.125 6.566-2.698 7.666-3.055 0.23-0.075 1.054-0.373 1.834-0.664 4.529-1.689 12.101-4.033 17-5.262 11.671-2.928 22.819-4.691 34.166-5.402 1.605-0.101 3.105-0.208 3.334-0.239 1.027-0.138 19.633 0.049 21.5 0.216m1.666 60.037c-10.014 0.752-19.043 3.019-28 7.032-1.93 0.865-5.468 2.645-6.517 3.279-0.311 0.188-0.679 0.393-0.816 0.456-1.124 0.51-8.953 5.717-9.333 6.207-0.046 0.059-0.421 0.365-0.834 0.68-3.022 2.31-7.64 6.596-10.333 9.59-3.518 3.91-5.014 5.816-7.928 10.1l-2.113 3.105-1.847-0.653c-26.252-9.285-55.366 7.399-61.7 35.36-0.563 2.487-0.523 2.396-1.199 2.705-2.334 1.065-7.385 4.316-10.213 6.574-3.706 2.959-7.142 6.298-9.919 9.638-0.457 0.55-0.876 1.037-0.93 1.083-0.206 0.172-3.601 4.954-4.143 5.833-0.31 0.505-0.815 1.307-1.122 1.783-7.882 12.225-11.503 31.654-8.785 47.134 0.372 2.118 0.723 3.902 0.902 4.583 0.084 0.321 0.274 1.109 0.422 1.75 0.479 2.074 2.954 9.242 3.395 9.834 0.068 0.091 0.225 0.429 0.347 0.75 1.055 2.758 6.225 11.7 7.323 12.666 0.053 0.046 0.426 0.534 0.831 1.084 0.714 0.97 1.732 2.205 3.087 3.75 2.314 2.635 6.583 6.598 9.262 8.598 3.851 2.873 5.984 4.207 10.287 6.429 2.672 1.379 2.435 1.377 2.704 0.014 0.681-3.46 2.117-6.509 4.811-10.216 0.204-0.28 0.127-0.351-0.909-0.835-7.243-3.386-14.464-9.352-19.455-16.074-0.613-0.825-1.172-1.575-1.243-1.666-0.072-0.092-0.65-0.992-1.286-2-8.338-13.226-10.654-28.931-6.66-45.167 0.963-3.913 3.554-9.999 5.961-14 0.905-1.503 3.045-4.708 3.283-4.917 0.053-0.046 0.355-0.421 0.672-0.833s0.653-0.832 0.746-0.931c0.093-0.1 0.581-0.68 1.086-1.289 1.01-1.22 3.9-4.098 5.333-5.31 1.816-1.536 2.102-1.765 3.333-2.667 2.869-2.102 5.678-3.728 9.834-5.691 2.198-1.039 3.496-2.684 3.827-4.852 1.502-9.833 4.783-16.73 10.794-22.69 10.969-10.875 25.946-13.206 39.959-6.218 4.551 2.269 8.522 0.986 9.924-3.205 0.195-0.585 0.429-1.139 0.519-1.23 0.107-0.11 0.121-0.057 0.042 0.152-0.085 0.223-0.063 0.283 0.073 0.199 0.107-0.067 0.195-0.192 0.195-0.28 0-0.321 2.914-4.854 4.653-7.238 6.704-9.192 15.026-16.44 25.02-21.792 0.324-0.173 0.884-0.722 1.245-1.22 0.564-0.778 0.732-0.905 1.202-0.905 0.723 0 0.699 0.056-0.326 0.746-1.103 0.743-0.831 0.753 0.646 0.023 17.614-8.703 40.214-8.842 58.458-0.358 1.572 0.731 2.416 0.945 1.242 0.315-0.502-0.27-0.521-0.305-0.191-0.356 0.257-0.04 0.589 0.169 1.118 0.706 0.414 0.42 1.075 0.914 1.468 1.098 1.038 0.486 1.782 0.895 2.943 1.621 10.982 6.861 18.633 14.497 25.507 25.455 2.337 3.727 5.496 10.519 7.015 15.084 0.816 2.45 1.675 5.554 2.331 8.416 0.707 3.088 1.403 7.948 1.588 11.084 0.437 7.438 1.091 8.369 7.016 9.994 14.578 3.999 27.601 15.798 32.742 29.667 0.77 2.078 1.314 3.677 1.789 5.255 0.885 2.943 1.063 3.65 1.132 4.5 0.037 0.459 0.148 1.209 0.247 1.667 0.867 4.025 0.824 12.345-0.091 17.543-0.15 0.848-0.224 1.621-0.165 1.716 0.058 0.095 0.024 0.271-0.076 0.392s-0.262 0.661-0.359 1.201c-0.186 1.029-1.673 5.595-2.519 7.731-1.351 3.414-4.601 9.195-6.532 11.62-2.59 3.252-5.322 6.166-7.386 7.88-0.608 0.505-1.192 1.003-1.299 1.109-0.505 0.497-4.018 2.947-5.585 3.892-7.359 4.445-14.705 6.496-24.254 6.772l-3.912 0.113v6.317 6.316l4.791-0.064c2.636-0.036 5.355-0.152 6.042-0.258 0.688-0.105 1.775-0.273 2.417-0.372 22.737-3.5 42.21-20.573 49.226-43.158 0.385-1.238 0.777-2.494 0.873-2.792 0.095-0.299 0.125-0.711 0.067-0.917-0.071-0.254-0.056-0.303 0.049-0.153 0.111 0.16 0.181 0.069 0.255-0.333 0.056-0.305 0.219-1.08 0.363-1.722 2.862-12.747 1.799-25.946-3.133-38.916-2.81-7.388-8.285-15.666-14.357-21.706-2.778-2.762-7.882-6.923-9.845-8.024-0.274-0.154-1.061-0.623-1.748-1.042-4.03-2.458-7.594-4.114-12.36-5.743l-0.61-0.208-0.186-1.68c-0.237-2.138-0.637-4.969-0.944-6.681-0.53-2.955-0.611-3.369-0.827-4.25-0.123-0.504-0.333-1.366-0.466-1.916-1.038-4.304-4.018-13.177-4.758-14.164-0.07-0.093-0.226-0.432-0.347-0.753-2.217-5.883-8.784-16.175-14.55-22.805-0.701-0.806-6.704-6.806-7.452-7.449-3.872-3.327-7.194-5.838-10.542-7.969-0.527-0.336-1.352-0.861-1.833-1.168-1.446-0.922-3.056-1.776-3.35-1.776-0.151 0-0.275-0.078-0.275-0.173 0-0.2-4.509-2.447-6.944-3.46-4.783-1.992-8.227-3.129-12.89-4.257-2.822-0.683-6.026-1.285-8.583-1.613-4.649-0.596-12.03-0.815-16.417-0.486m46.489 11.06c0.162 0.194 0.136 0.22-0.146 0.147-0.188-0.05-0.343-0.156-0.343-0.237 0-0.225 0.269-0.176 0.489 0.09m-33.322 35.929c-0.222 0.144-0.222 0.162 0 0.162 0.137 0 0.362-0.073 0.5-0.162 0.222-0.143 0.222-0.161 0-0.161-0.138 0-0.363 0.072-0.5 0.161m172.44 14.778c-0.061 0.061-0.106 0.267-0.1 0.458 0.01 0.32 0.023 0.316 0.17-0.052 0.163-0.408 0.13-0.605-0.07-0.406m-0.361 1.222c-0.062 0.197-0.076 0.396-0.03 0.442s0.134-0.078 0.197-0.275 0.076-0.396 0.03-0.442c-0.045-0.046-0.134 0.078-0.197 0.275m-53.342 65.371c0.46 0.657 0.328 1.071-0.158 0.493-0.429-0.51-0.535-0.864-0.259-0.864 0.086 0 0.274 0.167 0.417 0.371m-11.013 2.617c-0.086 0.43-0.143 0.492-0.257 0.287-0.182-0.323 0.012-1.192 0.219-0.985 0.081 0.081 0.098 0.395 0.038 0.698m0.192 1.958-0.123 0.471-0.154-0.406c-0.193-0.505-0.048-0.983 0.217-0.717 0.109 0.109 0.133 0.37 0.06 0.652m-67.42 9.658c-5.363 0.485-11.352 3.206-14.687 6.672-7.844 8.153-3.8 19.612 8.437 23.913 1.008 0.354 1.965 0.644 2.125 0.644 0.277 1e-3 0.292 2.088 0.292 41.501v41.5h7.166 7.167v-4.334-4.333h5.917 5.916v-5.25-5.25h-5.916-5.917v-2-2h5.917 5.916v-5.25-5.25h-5.916-5.917v-24.635-24.635l0.875-0.223c8.123-2.072 13.892-8.351 13.864-15.09-0.041-9.953-11.523-17.223-25.239-15.98m-73.833 8.217c-2.822 0.415-5.574 1.692-7.959 3.694-0.664 0.558-1.209 1.064-1.209 1.125-1e-3 0.061-0.257 0.38-0.57 0.709-3.487 3.679-4.631 10.677-2.583 15.794 4.867 12.155 21.446 13.69 28.163 2.607 1.143-1.885 1.681-3.31 2.077-5.5 1.927-10.654-7.167-20.007-17.919-18.429m80.5 0.255c0.779 0.13 1.679 0.319 2 0.42 0.32 0.101 0.845 0.261 1.166 0.357 0.905 0.268 3.527 1.597 4.084 2.069 3.544 3.008 3.948 5.226 1.468 8.061-5.391 6.163-20.218 5.746-24.726-0.695-3.93-5.615 5.918-11.897 16.008-10.212m-158.17 0.696c-3.02 0.433-3.787 0.632-5.547 1.446-10.018 4.628-12.254 18.118-4.261 25.713 7.062 6.71 18.272 5.621 23.886-2.321 3.291-4.655 3.682-11.972 0.893-16.693-0.163-0.275-0.451-0.784-0.64-1.132-2.257-4.139-9.534-7.7-14.331-7.013m37.583 8.302c-12.567 2.528-17.064 18.217-7.736 26.992 4.769 4.486 11.662 5.57 17.571 2.763 11.673-5.547 12.097-21.953 0.73-28.207-2.805-1.543-7.308-2.202-10.565-1.548m33.667 23.256c-4.329 0.425-8.499 2.369-11.801 5.503l-1.36 1.29 0.997 0.511c3.108 1.593 6.338 4.491 8.869 7.959 1.229 1.683 2.913 5.469 3.532 7.937 0.549 2.191 0.644 3.532 0.774 10.922l0.121 6.868 0.684 0.087c6.847 0.87 16.725 0.419 23.517-1.074 4.497-0.988 9.501-2.74 10.122-3.543 0.341-0.442 0.441-15.429 0.123-18.421-0.945-8.892-7.288-15.955-15.885-17.691-1.7-0.343-16.989-0.613-19.693-0.348m-79.25 1.115c-9.311 1.474-15.754 7.545-17.445 16.436-0.368 1.939-0.538 19.71-0.192 20.168 0.129 0.17 0.866 0.472 1.723 0.706 0.823 0.225 2.21 0.604 3.081 0.843 0.87 0.24 2.033 0.544 2.583 0.677 0.55 0.132 1.412 0.344 1.917 0.47 7.03 1.759 17.995 2.649 24.375 1.98l0.958-0.101v-6.325c0-6.504 0.153-9.453 0.603-11.632 1.455-7.04 5.084-12.214 11.403-16.256 0.684-0.438 1.279-0.826 1.322-0.862 0.146-0.123-1.905-1.887-3.246-2.792-2.679-1.808-5.29-2.799-8.377-3.182-1.811-0.225-17.421-0.333-18.705-0.13m38.417 8.213c-7.228 1.332-13.261 6.473-15.561 13.259-0.987 2.912-1.189 5.484-1.189 15.121v7.955l0.375 0.228c0.206 0.125 0.825 0.352 1.375 0.503 0.55 0.152 1.934 0.541 3.075 0.865 14.338 4.069 29.904 4.446 42.175 1.02 2.588-0.722 6.273-2.218 6.683-2.712 0.206-0.249 0.248-16.707 0.048-18.813-0.776-8.168-7.443-15.476-15.759-17.275-2.479-0.537-18.512-0.651-21.222-0.151m78.67 0.967c1.218 2.908 1.912 6.121 1.914 8.875 1e-3 0.963 0.049 2.144 0.107 2.625l0.105 0.875h16.144 16.143v-6.333-6.333h-17.268c-16.381 0-17.261 0.015-17.145 0.291"/>
<path d="m190.58 0.102c-6.887 0.256-17.916 1.462-25.583 2.798-3.423 0.597-7.747 1.469-10.5 2.119-3.146 0.743-4.954 1.187-5.667 1.392-0.412 0.119-1.2 0.336-1.75 0.483-3.565 0.951-5.294 1.48-10.666 3.262-6.112 2.026-16.427 5.994-17.334 6.667-0.091 0.069-0.466 0.241-0.833 0.383-3.214 1.248-15.214 7.359-18.173 9.253-0.18 0.116-0.439 0.261-0.577 0.323-0.502 0.226-5.265 3.099-5.781 3.486-0.291 0.219-0.57 0.399-0.619 0.399-0.157 0-5.735 3.713-8.35 5.558-3.068 2.165-7.026 5.1-8.576 6.358-0.338 0.275-0.941 0.763-1.339 1.084-9.252 7.46-16.686 14.539-24.919 23.729-0.092 0.103-0.617 0.712-1.167 1.354-0.549 0.642-1.038 1.204-1.086 1.25-0.092 0.088-1.575 1.858-1.996 2.383-0.138 0.172-0.389 0.474-0.558 0.673-1.211 1.421-4.199 5.261-5.858 7.527-0.603 0.825-1.192 1.616-1.309 1.756-1.011 1.225-6.076 8.758-8.045 11.965-0.356 0.58-0.798 1.292-0.982 1.583-0.433 0.683-2.101 3.5-2.583 4.363-0.205 0.367-0.69 1.229-1.076 1.917-7.629 13.554-13.946 28.941-18.166 44.25-0.253 0.916-0.558 2.004-0.677 2.416-0.202 0.698-0.871 3.434-1.263 5.167-0.093 0.412-0.238 1.012-0.321 1.333s-0.302 1.352-0.487 2.292c-0.186 0.939-0.408 2.027-0.494 2.416-1.309 5.904-2.606 15.372-3.35 24.453-0.653 7.974-0.654 22.202-2e-3 29.967 0.611 7.279 1.253 12.615 2.181 18.122 0.276 1.639 0.45 2.609 0.987 5.5 0.085 0.459 0.39 1.921 0.676 3.25 0.767 3.555 0.994 4.556 1.476 6.5 0.471 1.899 0.663 2.6 2.189 8 4.217 14.926 12.608 33.922 20.811 47.115 0.239 0.384 0.726 1.172 1.083 1.75 3.923 6.352 9.434 14.131 14.018 19.786 1.415 1.747 1.68 2.07 1.833 2.245 0.092 0.104 0.54 0.639 0.996 1.189 0.457 0.549 0.869 1.036 0.917 1.082s0.537 0.608 1.087 1.249c0.967 1.128 1.817 2.1 2.171 2.483 0.094 0.101 1.03 1.122 2.079 2.268 3.122 3.408 9.022 9.255 12.253 12.141 0.548 0.49 1.297 1.167 1.664 1.504 1.092 1.005 2.866 2.525 5.166 4.427 1.192 0.985 2.317 1.915 2.501 2.068 0.184 0.152 0.671 0.539 1.083 0.86s0.899 0.712 1.082 0.869c0.583 0.498 4.721 3.572 7.06 5.245 1.862 1.331 8.495 5.788 9.382 6.303 0.158 0.091 1.211 0.735 2.34 1.429 14.043 8.639 28.037 14.944 45.636 20.563 3.321 1.06 9.557 2.715 13.833 3.67 0.596 0.134 1.608 0.36 2.25 0.503s1.767 0.375 2.5 0.516 1.821 0.359 2.417 0.486c0.595 0.126 1.608 0.312 2.25 0.413 0.641 0.101 1.804 0.29 2.583 0.42 4.513 0.751 9.6 1.411 13.417 1.742 1.1 0.095 2.862 0.249 3.916 0.342 4.276 0.377 10.827 0.536 18.334 0.447 9.397-0.113 15.012-0.512 24-1.707 4.765-0.633 11.126-1.743 15.25-2.66 0.641-0.143 1.654-0.367 2.25-0.497 1.451-0.32 8.203-2.028 9.25-2.342 0.458-0.137 1.245-0.369 1.75-0.515 0.504-0.147 1.104-0.326 1.333-0.398s1.092-0.335 1.917-0.583c5.278-1.589 11.882-3.974 18.083-6.53 2.15-0.886 2.703-1.127 5.167-2.25 0.595-0.272 1.42-0.648 1.833-0.836 2.282-1.039 8.807-4.329 11.163-5.628 1.498-0.826 2.747-1.502 2.774-1.502 0.028 0 0.598-0.326 1.265-0.724 0.668-0.398 2.152-1.275 3.298-1.948 1.146-0.674 2.308-1.38 2.583-1.569s0.63-0.418 0.788-0.509c2.761-1.593 13.666-9.11 14.629-10.084 0.046-0.047 0.533-0.417 1.083-0.822 0.55-0.406 1.038-0.783 1.084-0.838 0.045-0.054 0.758-0.621 1.583-1.259 1.671-1.293 5.408-4.356 5.667-4.644 0.091-0.103 0.691-0.636 1.333-1.186 1.394-1.193 1.175-1 3.105-2.749 4.959-4.495 10.939-10.548 15.149-15.335 0.685-0.779 1.289-1.454 1.341-1.5 0.086-0.076 3.615-4.323 4.915-5.916 0.299-0.367 1.04-1.305 1.646-2.084 0.607-0.779 1.424-1.829 1.817-2.333 2.151-2.763 7.08-9.886 10.031-14.5 3.331-5.207 8.358-14.378 11.192-20.417 1.67-3.557 2.028-4.348 2.639-5.833 0.34-0.825 0.674-1.575 0.743-1.667 0.116-0.156 1.798-4.323 2.725-6.75 0.228-0.596 0.603-1.571 0.834-2.166 1.232-3.175 4.227-12.584 5.385-16.917 0.147-0.55 0.365-1.338 0.484-1.75s0.308-1.162 0.419-1.667c0.111-0.504 0.298-1.254 0.415-1.666 0.117-0.413 0.256-0.975 0.308-1.25s0.215-1.025 0.361-1.667c0.389-1.714 1.063-4.876 1.243-5.833 0.085-0.459 0.269-1.434 0.408-2.167s0.335-1.895 0.436-2.581c0.1-0.686 0.206-1.286 0.235-1.333 0.028-0.047 0.175-0.986 0.325-2.086 0.151-1.1 0.378-2.713 0.505-3.583 0.416-2.849 0.973-8.383 1.369-13.584 0.416-5.463 0.416-20.689 1e-3 -26.166-0.376-4.966-0.926-10.412-1.371-13.584-0.604-4.304-0.752-5.258-1.249-8.083-0.69-3.918-0.722-4.084-1.334-6.917-0.771-3.572-0.996-4.563-1.477-6.5-0.325-1.312-0.521-2.053-1.122-4.25-1.631-5.966-4.141-13.706-5.971-18.416-1.364-3.512-2.491-6.303-2.927-7.25-0.254-0.55-0.664-1.488-0.913-2.084-0.44-1.054-0.591-1.391-1.798-4-1.98-4.279-5.827-11.746-7.061-13.705-0.215-0.342-0.391-0.66-0.391-0.708 0-0.094-3.784-6.463-4.409-7.42-4.163-6.381-7.79-11.625-10.028-14.5-2.807-3.607-6.071-7.629-7.911-9.75-3.889-4.481-6.018-6.77-9.994-10.743-2.19-2.188-5.681-5.527-7.348-7.028-3.773-3.396-8.34-7.225-11.477-9.622-0.871-0.665-1.696-1.299-1.833-1.409-2.685-2.141-9.91-7.154-13.948-9.679-0.716-0.447-1.565-0.982-1.886-1.188-0.866-0.555-3.678-2.225-5.666-3.366-1.687-0.967-2.754-1.56-5.25-2.917-1.71-0.929-9.603-4.819-11.25-5.544-0.78-0.343-1.867-0.831-2.417-1.084-1.032-0.475-5.672-2.388-7.583-3.125-0.596-0.23-1.459-0.57-1.917-0.754-1.897-0.765-9.936-3.527-11.75-4.038-0.413-0.116-1.5-0.438-2.417-0.714-0.916-0.276-2.416-0.705-3.333-0.953s-2.004-0.55-2.417-0.672c-0.742-0.22-1.505-0.406-4.416-1.077-0.825-0.191-1.95-0.454-2.5-0.586-1.327-0.318-4.113-0.897-5.225-1.087-0.49-0.083-1.015-0.191-1.166-0.239-0.302-0.095-5.574-0.981-7.443-1.251-0.641-0.093-1.916-0.278-2.833-0.412-2.689-0.392-7.743-0.921-13-1.362-2.996-0.251-18.925-0.456-23.167-0.298m21.584 13.205c1.146 0.102 3.058 0.266 4.25 0.364 10.313 0.847 25.925 3.74 34.583 6.408 0.412 0.127 1.762 0.542 3 0.921 3.63 1.113 8.149 2.647 11.083 3.763 0.642 0.244 1.438 0.543 1.769 0.665 0.99 0.364 3.62 1.436 4.859 1.981 0.345 0.151 1.47 0.637 2.5 1.078 7.491 3.212 17.185 8.308 23.956 12.593 3.918 2.48 7.134 4.652 10.75 7.26 1.833 1.322 3.483 2.53 3.666 2.684 0.184 0.155 0.971 0.777 1.75 1.384 0.779 0.606 1.529 1.194 1.667 1.306 0.137 0.112 0.625 0.503 1.083 0.87 0.458 0.366 0.919 0.741 1.023 0.833 0.104 0.091 0.554 0.474 1 0.85 6.296 5.309 13.076 11.762 17.736 16.879 0.866 0.951 1.691 1.851 1.834 2 0.782 0.816 4.703 5.464 6.491 7.693 0.321 0.401 0.773 0.957 1.005 1.236 0.231 0.28 0.756 0.958 1.166 1.508 0.409 0.55 0.789 1.038 0.843 1.084 0.195 0.166 4.132 5.641 5.752 8 1.327 1.932 3.158 4.76 5.072 7.833 0.321 0.515 3.292 5.619 3.784 6.5 1.484 2.659 4.809 9.176 5.951 11.667 0.4 0.87 0.964 2.102 1.254 2.736 1.036 2.264 3.284 7.762 4.655 11.386 1.515 4.002 4.044 11.898 5.086 15.878 1.016 3.884 1.653 6.575 2.682 11.333 0.449 2.076 1.18 6.22 1.749 9.917 2.475 16.08 2.622 35.287 0.401 52.25-0.534 4.079-1.488 9.771-2.15 12.833-1.029 4.758-1.666 7.449-2.682 11.333-1.042 3.98-3.571 11.876-5.086 15.878-1.554 4.106-3.793 9.542-4.916 11.933-0.403 0.858-0.733 1.592-0.733 1.631 0 0.562-5.72 11.45-8.392 15.975-3.587 6.072-6.097 9.886-10.588 16.083-0.963 1.329-1.793 2.454-1.844 2.5-0.052 0.046-0.431 0.534-0.843 1.084s-0.788 1.037-0.837 1.083c-0.048 0.046-0.347 0.421-0.663 0.833-0.316 0.413-0.614 0.788-0.662 0.834-0.049 0.045-0.538 0.646-1.088 1.333-0.549 0.688-1.037 1.287-1.083 1.333s-1.02 1.171-2.164 2.5c-1.145 1.329-2.307 2.671-2.583 2.982-3.741 4.208-11.823 12.177-15.586 15.37-0.688 0.583-1.288 1.1-1.334 1.149-0.466 0.493-5.177 4.34-8.166 6.669-5.712 4.45-16.241 11.437-21.579 14.32-0.731 0.395-1.481 0.817-1.667 0.938-0.706 0.459-3.984 2.157-7.838 4.06-5.088 2.513-5.715 2.8-10.583 4.848-1.788 0.752-3.719 1.545-4.293 1.763-0.573 0.218-1.548 0.588-2.166 0.823-4.998 1.899-12.132 4.181-17.124 5.477-1.284 0.333-2.709 0.711-3.167 0.84-3.904 1.101-15.244 3.246-20.667 3.909-4.526 0.553-5.699 0.681-7.75 0.845-1.237 0.099-3.187 0.262-4.333 0.363-3.141 0.278-18.504 0.384-21.997 0.153-11.704-0.775-18.177-1.582-27.336-3.411-8.64-1.724-20.384-5.03-27-7.6-0.505-0.196-1.104-0.416-1.334-0.489-3.157-1.007-12.375-5.022-18.083-7.877-5.637-2.818-9.847-5.179-15.292-8.575-0.343-0.215-0.906-0.565-1.25-0.78-1.817-1.133-5.427-3.565-7.708-5.194-5.145-3.675-4.804-3.419-9.35-7.024-1.064-0.843-2.039-1.633-2.167-1.755s-0.646-0.558-1.15-0.968-1.179-0.982-1.5-1.27-1.033-0.919-1.583-1.402c-4.937-4.334-13.065-12.457-16.738-16.729-0.386-0.448-0.79-0.907-0.898-1.019-0.109-0.113-0.348-0.383-0.533-0.602-0.661-0.782-3.668-4.395-3.865-4.644-0.11-0.139-0.86-1.087-1.666-2.105-0.807-1.019-2.217-2.885-3.133-4.146-0.917-1.262-1.742-2.38-1.834-2.485-0.34-0.39-5.416-7.932-5.416-8.048 0-0.045-0.213-0.393-0.473-0.775-2.887-4.234-9.853-17.035-11.897-21.861-0.579-1.366-1.093-2.531-1.584-3.583-1.344-2.882-5.66-14.297-6.207-16.417-0.071-0.275-0.286-0.957-0.478-1.517-1.34-3.912-3.574-12.533-4.767-18.399-0.159-0.78-0.362-1.75-0.452-2.157-0.231-1.047-0.951-5.284-1.234-7.26-0.751-5.237-0.821-5.815-1.318-10.833-0.56-5.662-0.674-8.616-0.674-17.584 0-8.963 0.093-11.325 0.676-17.25 0.487-4.959 0.563-5.583 1.316-10.833 0.273-1.908 0.981-6.061 1.264-7.417 0.106-0.504 0.294-1.404 0.418-2 1.341-6.415 3.25-13.802 4.675-18.09 0.242-0.73 0.499-1.551 0.571-1.826s0.556-1.7 1.077-3.167 1.01-2.854 1.088-3.083c0.332-0.983 1.933-5.144 2.339-6.084 0.079-0.183 0.493-1.196 0.92-2.25 0.426-1.054 0.829-1.991 0.895-2.083 0.067-0.092 0.293-0.579 0.503-1.083 1.029-2.472 4.887-10.383 6.381-13.084 0.406-0.733 0.965-1.746 1.242-2.25 2.195-3.996 4.751-8.159 7.931-12.916 2.593-3.879 3.017-4.501 3.12-4.584 0.057-0.046 0.472-0.608 0.922-1.25 0.45-0.641 0.858-1.204 0.907-1.25 0.05-0.046 0.734-0.945 1.521-2 3.006-4.026 7.04-8.88 10.875-13.083 3.016-3.305 10.054-10.255 13.84-13.667 0.102-0.093 0.711-0.618 1.353-1.167 0.641-0.55 1.241-1.079 1.333-1.176 0.317-0.337 1.923-1.657 5.417-4.456 4.861-3.894 12.617-9.357 17.462-12.298 0.667-0.405 1.754-1.065 2.417-1.467 4.747-2.881 12.01-6.771 16.621-8.902 2.908-1.344 3.856-1.768 6.5-2.904 2.619-1.125 6.566-2.698 7.666-3.055 0.23-0.075 1.054-0.373 1.834-0.664 4.529-1.689 12.101-4.033 17-5.262 11.671-2.928 22.819-4.691 34.166-5.402 1.605-0.101 3.105-0.208 3.334-0.239 1.027-0.138 19.633 0.049 21.5 0.216m1.666 60.037c-10.014 0.752-19.043 3.019-28 7.032-1.93 0.865-5.468 2.645-6.517 3.279-0.311 0.188-0.679 0.393-0.816 0.456-1.124 0.51-8.953 5.717-9.333 6.207-0.046 0.059-0.421 0.365-0.834 0.68-3.022 2.31-7.64 6.596-10.333 9.59-3.518 3.91-5.014 5.816-7.928 10.1l-2.113 3.105-1.847-0.653c-26.252-9.285-55.366 7.399-61.7 35.36-0.563 2.487-0.523 2.396-1.199 2.705-2.334 1.065-7.385 4.316-10.213 6.574-3.706 2.959-7.142 6.298-9.919 9.638-0.457 0.55-0.876 1.037-0.93 1.083-0.206 0.172-3.601 4.954-4.143 5.833-0.31 0.505-0.815 1.307-1.122 1.783-7.882 12.225-11.503 31.654-8.785 47.134 0.372 2.118 0.723 3.902 0.902 4.583 0.084 0.321 0.274 1.109 0.422 1.75 0.479 2.074 2.954 9.242 3.395 9.834 0.068 0.091 0.225 0.429 0.347 0.75 1.055 2.758 6.225 11.7 7.323 12.666 0.053 0.046 0.426 0.534 0.831 1.084 0.714 0.97 1.732 2.205 3.087 3.75 2.314 2.635 6.583 6.598 9.262 8.598 3.851 2.873 5.984 4.207 10.287 6.429 2.672 1.379 2.435 1.377 2.704 0.014 0.681-3.46 2.117-6.509 4.811-10.216 0.204-0.28 0.127-0.351-0.909-0.835-7.243-3.386-14.464-9.352-19.455-16.074-0.613-0.825-1.172-1.575-1.243-1.666-0.072-0.092-0.65-0.992-1.286-2-8.338-13.226-10.654-28.931-6.66-45.167 0.963-3.913 3.554-9.999 5.961-14 0.905-1.503 3.045-4.708 3.283-4.917 0.053-0.046 0.355-0.421 0.672-0.833s0.653-0.832 0.746-0.931c0.093-0.1 0.581-0.68 1.086-1.289 1.01-1.22 3.9-4.098 5.333-5.31 1.816-1.536 2.102-1.765 3.333-2.667 2.869-2.102 5.678-3.728 9.834-5.691 2.198-1.039 3.496-2.684 3.827-4.852 1.502-9.833 4.783-16.73 10.794-22.69 10.969-10.875 25.946-13.206 39.959-6.218 4.551 2.269 8.522 0.986 9.924-3.205 0.195-0.585 0.429-1.139 0.519-1.23 0.107-0.11 0.121-0.057 0.042 0.152-0.085 0.223-0.063 0.283 0.073 0.199 0.107-0.067 0.195-0.192 0.195-0.28 0-0.321 2.914-4.854 4.653-7.238 6.704-9.192 15.026-16.44 25.02-21.792 0.324-0.173 0.884-0.722 1.245-1.22 0.564-0.778 0.732-0.905 1.202-0.905 0.723 0 0.699 0.056-0.326 0.746-1.103 0.743-0.831 0.753 0.646 0.023 17.614-8.703 40.214-8.842 58.458-0.358 1.572 0.731 2.416 0.945 1.242 0.315-0.502-0.27-0.521-0.305-0.191-0.356 0.257-0.04 0.589 0.169 1.118 0.706 0.414 0.42 1.075 0.914 1.468 1.098 1.038 0.486 1.782 0.895 2.943 1.621 10.982 6.861 18.633 14.497 25.507 25.455 2.337 3.727 5.496 10.519 7.015 15.084 0.816 2.45 1.675 5.554 2.331 8.416 0.707 3.088 1.403 7.948 1.588 11.084 0.437 7.438 1.091 8.369 7.016 9.994 14.578 3.999 27.601 15.798 32.742 29.667 0.77 2.078 1.314 3.677 1.789 5.255 0.885 2.943 1.063 3.65 1.132 4.5 0.037 0.459 0.148 1.209 0.247 1.667 0.867 4.025 0.824 12.345-0.091 17.543-0.15 0.848-0.224 1.621-0.165 1.716 0.058 0.095 0.024 0.271-0.076 0.392s-0.262 0.661-0.359 1.201c-0.186 1.029-1.673 5.595-2.519 7.731-1.351 3.414-4.601 9.195-6.532 11.62-2.59 3.252-5.322 6.166-7.386 7.88-0.608 0.505-1.192 1.003-1.299 1.109-0.505 0.497-4.018 2.947-5.585 3.892-7.359 4.445-14.705 6.496-24.254 6.772l-3.912 0.113v6.317 6.316l4.791-0.064c2.636-0.036 5.355-0.152 6.042-0.258 0.688-0.105 1.775-0.273 2.417-0.372 22.737-3.5 42.21-20.573 49.226-43.158 0.385-1.238 0.777-2.494 0.873-2.792 0.095-0.299 0.125-0.711 0.067-0.917-0.071-0.254-0.056-0.303 0.049-0.153 0.111 0.16 0.181 0.069 0.255-0.333 0.056-0.305 0.219-1.08 0.363-1.722 2.862-12.747 1.799-25.946-3.133-38.916-2.81-7.388-8.285-15.666-14.357-21.706-2.778-2.762-7.882-6.923-9.845-8.024-0.274-0.154-1.061-0.623-1.748-1.042-4.03-2.458-7.594-4.114-12.36-5.743l-0.61-0.208-0.186-1.68c-0.237-2.138-0.637-4.969-0.944-6.681-0.53-2.955-0.611-3.369-0.827-4.25-0.123-0.504-0.333-1.366-0.466-1.916-1.038-4.304-4.018-13.177-4.758-14.164-0.07-0.093-0.226-0.432-0.347-0.753-2.217-5.883-8.784-16.175-14.55-22.805-0.701-0.806-6.704-6.806-7.452-7.449-3.872-3.327-7.194-5.838-10.542-7.969-0.527-0.336-1.352-0.861-1.833-1.168-1.446-0.922-3.056-1.776-3.35-1.776-0.151 0-0.275-0.078-0.275-0.173 0-0.2-4.509-2.447-6.944-3.46-4.783-1.992-8.227-3.129-12.89-4.257-2.822-0.683-6.026-1.285-8.583-1.613-4.649-0.596-12.03-0.815-16.417-0.486m46.489 11.06c0.162 0.194 0.136 0.22-0.146 0.147-0.188-0.05-0.343-0.156-0.343-0.237 0-0.225 0.269-0.176 0.489 0.09m-33.322 35.929c-0.222 0.144-0.222 0.162 0 0.162 0.137 0 0.362-0.073 0.5-0.162 0.222-0.143 0.222-0.161 0-0.161-0.138 0-0.363 0.072-0.5 0.161m172.44 14.778c-0.061 0.061-0.106 0.267-0.1 0.458 0.01 0.32 0.023 0.316 0.17-0.052 0.163-0.408 0.13-0.605-0.07-0.406m-0.361 1.222c-0.062 0.197-0.076 0.396-0.03 0.442s0.134-0.078 0.197-0.275 0.076-0.396 0.03-0.442c-0.045-0.046-0.134 0.078-0.197 0.275m-53.342 65.371c0.46 0.657 0.328 1.071-0.158 0.493-0.429-0.51-0.535-0.864-0.259-0.864 0.086 0 0.274 0.167 0.417 0.371m-11.013 2.617c-0.086 0.43-0.143 0.492-0.257 0.287-0.182-0.323 0.012-1.192 0.219-0.985 0.081 0.081 0.098 0.395 0.038 0.698m0.192 1.958-0.123 0.471-0.154-0.406c-0.193-0.505-0.048-0.983 0.217-0.717 0.109 0.109 0.133 0.37 0.06 0.652m-67.42 9.658c-5.363 0.485-11.352 3.206-14.687 6.672-7.844 8.153-3.8 19.612 8.437 23.913 1.008 0.354 1.965 0.644 2.125 0.644 0.277 1e-3 0.292 2.088 0.292 41.501v41.5h7.166 7.167v-4.334-4.333h5.917 5.916v-5.25-5.25h-5.916-5.917v-2-2h5.917 5.916v-5.25-5.25h-5.916-5.917v-24.635-24.635l0.875-0.223c8.123-2.072 13.892-8.351 13.864-15.09-0.041-9.953-11.523-17.223-25.239-15.98m-73.833 8.217c-2.822 0.415-5.574 1.692-7.959 3.694-0.664 0.558-1.209 1.064-1.209 1.125-1e-3 0.061-0.257 0.38-0.57 0.709-3.487 3.679-4.631 10.677-2.583 15.794 4.867 12.155 21.446 13.69 28.163 2.607 1.143-1.885 1.681-3.31 2.077-5.5 1.927-10.654-7.167-20.007-17.919-18.429m80.5 0.255c0.779 0.13 1.679 0.319 2 0.42 0.32 0.101 0.845 0.261 1.166 0.357 0.905 0.268 3.527 1.597 4.084 2.069 3.544 3.008 3.948 5.226 1.468 8.061-5.391 6.163-20.218 5.746-24.726-0.695-3.93-5.615 5.918-11.897 16.008-10.212m-158.17 0.696c-3.02 0.433-3.787 0.632-5.547 1.446-10.018 4.628-12.254 18.118-4.261 25.713 7.062 6.71 18.272 5.621 23.886-2.321 3.291-4.655 3.682-11.972 0.893-16.693-0.163-0.275-0.451-0.784-0.64-1.132-2.257-4.139-9.534-7.7-14.331-7.013m37.583 8.302c-12.567 2.528-17.064 18.217-7.736 26.992 4.769 4.486 11.662 5.57 17.571 2.763 11.673-5.547 12.097-21.953 0.73-28.207-2.805-1.543-7.308-2.202-10.565-1.548m33.667 23.256c-4.329 0.425-8.499 2.369-11.801 5.503l-1.36 1.29 0.997 0.511c3.108 1.593 6.338 4.491 8.869 7.959 1.229 1.683 2.913 5.469 3.532 7.937 0.549 2.191 0.644 3.532 0.774 10.922l0.121 6.868 0.684 0.087c6.847 0.87 16.725 0.419 23.517-1.074 4.497-0.988 9.501-2.74 10.122-3.543 0.341-0.442 0.441-15.429 0.123-18.421-0.945-8.892-7.288-15.955-15.885-17.691-1.7-0.343-16.989-0.613-19.693-0.348m-79.25 1.115c-9.311 1.474-15.754 7.545-17.445 16.436-0.368 1.939-0.538 19.71-0.192 20.168 0.129 0.17 0.866 0.472 1.723 0.706 0.823 0.225 2.21 0.604 3.081 0.843 0.87 0.24 2.033 0.544 2.583 0.677 0.55 0.132 1.412 0.344 1.917 0.47 7.03 1.759 17.995 2.649 24.375 1.98l0.958-0.101v-6.325c0-6.504 0.153-9.453 0.603-11.632 1.455-7.04 5.084-12.214 11.403-16.256 0.684-0.438 1.279-0.826 1.322-0.862 0.146-0.123-1.905-1.887-3.246-2.792-2.679-1.808-5.29-2.799-8.377-3.182-1.811-0.225-17.421-0.333-18.705-0.13m38.417 8.213c-7.228 1.332-13.261 6.473-15.561 13.259-0.987 2.912-1.189 5.484-1.189 15.121v7.955l0.375 0.228c0.206 0.125 0.825 0.352 1.375 0.503 0.55 0.152 1.934 0.541 3.075 0.865 14.338 4.069 29.904 4.446 42.175 1.02 2.588-0.722 6.273-2.218 6.683-2.712 0.206-0.249 0.248-16.707 0.048-18.813-0.776-8.168-7.443-15.476-15.759-17.275-2.479-0.537-18.512-0.651-21.222-0.151m78.67 0.967c1.218 2.908 1.912 6.121 1.914 8.875 1e-3 0.963 0.049 2.144 0.107 2.625l0.105 0.875h16.144 16.143v-6.333-6.333h-17.268c-16.381 0-17.261 0.015-17.145 0.291"/>
<path d="m190.58 0.102c-6.887 0.256-17.916 1.462-25.583 2.798-3.423 0.597-7.747 1.469-10.5 2.119-3.146 0.743-4.954 1.187-5.667 1.392-0.412 0.119-1.2 0.336-1.75 0.483-3.565 0.951-5.294 1.48-10.666 3.262-6.112 2.026-16.427 5.994-17.334 6.667-0.091 0.069-0.466 0.241-0.833 0.383-3.214 1.248-15.214 7.359-18.173 9.253-0.18 0.116-0.439 0.261-0.577 0.323-0.502 0.226-5.265 3.099-5.781 3.486-0.291 0.219-0.57 0.399-0.619 0.399-0.157 0-5.735 3.713-8.35 5.558-3.068 2.165-7.026 5.1-8.576 6.358-0.338 0.275-0.941 0.763-1.339 1.084-9.252 7.46-16.686 14.539-24.919 23.729-0.092 0.103-0.617 0.712-1.167 1.354-0.549 0.642-1.038 1.204-1.086 1.25-0.092 0.088-1.575 1.858-1.996 2.383-0.138 0.172-0.389 0.474-0.558 0.673-1.211 1.421-4.199 5.261-5.858 7.527-0.603 0.825-1.192 1.616-1.309 1.756-1.011 1.225-6.076 8.758-8.045 11.965-0.356 0.58-0.798 1.292-0.982 1.583-0.433 0.683-2.101 3.5-2.583 4.363-0.205 0.367-0.69 1.229-1.076 1.917-7.629 13.554-13.946 28.941-18.166 44.25-0.253 0.916-0.558 2.004-0.677 2.416-0.202 0.698-0.871 3.434-1.263 5.167-0.093 0.412-0.238 1.012-0.321 1.333s-0.302 1.352-0.487 2.292c-0.186 0.939-0.408 2.027-0.494 2.416-1.309 5.904-2.606 15.372-3.35 24.453-0.653 7.974-0.654 22.202-2e-3 29.967 0.611 7.279 1.253 12.615 2.181 18.122 0.276 1.639 0.45 2.609 0.987 5.5 0.085 0.459 0.39 1.921 0.676 3.25 0.767 3.555 0.994 4.556 1.476 6.5 0.471 1.899 0.663 2.6 2.189 8 4.217 14.926 12.608 33.922 20.811 47.115 0.239 0.384 0.726 1.172 1.083 1.75 3.923 6.352 9.434 14.131 14.018 19.786 1.415 1.747 1.68 2.07 1.833 2.245 0.092 0.104 0.54 0.639 0.996 1.189 0.457 0.549 0.869 1.036 0.917 1.082s0.537 0.608 1.087 1.249c0.967 1.128 1.817 2.1 2.171 2.483 0.094 0.101 1.03 1.122 2.079 2.268 3.122 3.408 9.022 9.255 12.253 12.141 0.548 0.49 1.297 1.167 1.664 1.504 1.092 1.005 2.866 2.525 5.166 4.427 1.192 0.985 2.317 1.915 2.501 2.068 0.184 0.152 0.671 0.539 1.083 0.86s0.899 0.712 1.082 0.869c0.583 0.498 4.721 3.572 7.06 5.245 1.862 1.331 8.495 5.788 9.382 6.303 0.158 0.091 1.211 0.735 2.34 1.429 14.043 8.639 28.037 14.944 45.636 20.563 3.321 1.06 9.557 2.715 13.833 3.67 0.596 0.134 1.608 0.36 2.25 0.503s1.767 0.375 2.5 0.516 1.821 0.359 2.417 0.486c0.595 0.126 1.608 0.312 2.25 0.413 0.641 0.101 1.804 0.29 2.583 0.42 4.513 0.751 9.6 1.411 13.417 1.742 1.1 0.095 2.862 0.249 3.916 0.342 4.276 0.377 10.827 0.536 18.334 0.447 9.397-0.113 15.012-0.512 24-1.707 4.765-0.633 11.126-1.743 15.25-2.66 0.641-0.143 1.654-0.367 2.25-0.497 1.451-0.32 8.203-2.028 9.25-2.342 0.458-0.137 1.245-0.369 1.75-0.515 0.504-0.147 1.104-0.326 1.333-0.398s1.092-0.335 1.917-0.583c5.278-1.589 11.882-3.974 18.083-6.53 2.15-0.886 2.703-1.127 5.167-2.25 0.595-0.272 1.42-0.648 1.833-0.836 2.282-1.039 8.807-4.329 11.163-5.628 1.498-0.826 2.747-1.502 2.774-1.502 0.028 0 0.598-0.326 1.265-0.724 0.668-0.398 2.152-1.275 3.298-1.948 1.146-0.674 2.308-1.38 2.583-1.569s0.63-0.418 0.788-0.509c2.761-1.593 13.666-9.11 14.629-10.084 0.046-0.047 0.533-0.417 1.083-0.822 0.55-0.406 1.038-0.783 1.084-0.838 0.045-0.054 0.758-0.621 1.583-1.259 1.671-1.293 5.408-4.356 5.667-4.644 0.091-0.103 0.691-0.636 1.333-1.186 1.394-1.193 1.175-1 3.105-2.749 4.959-4.495 10.939-10.548 15.149-15.335 0.685-0.779 1.289-1.454 1.341-1.5 0.086-0.076 3.615-4.323 4.915-5.916 0.299-0.367 1.04-1.305 1.646-2.084 0.607-0.779 1.424-1.829 1.817-2.333 2.151-2.763 7.08-9.886 10.031-14.5 3.331-5.207 8.358-14.378 11.192-20.417 1.67-3.557 2.028-4.348 2.639-5.833 0.34-0.825 0.674-1.575 0.743-1.667 0.116-0.156 1.798-4.323 2.725-6.75 0.228-0.596 0.603-1.571 0.834-2.166 1.232-3.175 4.227-12.584 5.385-16.917 0.147-0.55 0.365-1.338 0.484-1.75s0.308-1.162 0.419-1.667c0.111-0.504 0.298-1.254 0.415-1.666 0.117-0.413 0.256-0.975 0.308-1.25s0.215-1.025 0.361-1.667c0.389-1.714 1.063-4.876 1.243-5.833 0.085-0.459 0.269-1.434 0.408-2.167s0.335-1.895 0.436-2.581c0.1-0.686 0.206-1.286 0.235-1.333 0.028-0.047 0.175-0.986 0.325-2.086 0.151-1.1 0.378-2.713 0.505-3.583 0.416-2.849 0.973-8.383 1.369-13.584 0.416-5.463 0.416-20.689 1e-3 -26.166-0.376-4.966-0.926-10.412-1.371-13.584-0.604-4.304-0.752-5.258-1.249-8.083-0.69-3.918-0.722-4.084-1.334-6.917-0.771-3.572-0.996-4.563-1.477-6.5-0.325-1.312-0.521-2.053-1.122-4.25-1.631-5.966-4.141-13.706-5.971-18.416-1.364-3.512-2.491-6.303-2.927-7.25-0.254-0.55-0.664-1.488-0.913-2.084-0.44-1.054-0.591-1.391-1.798-4-1.98-4.279-5.827-11.746-7.061-13.705-0.215-0.342-0.391-0.66-0.391-0.708 0-0.094-3.784-6.463-4.409-7.42-4.163-6.381-7.79-11.625-10.028-14.5-2.807-3.607-6.071-7.629-7.911-9.75-3.889-4.481-6.018-6.77-9.994-10.743-2.19-2.188-5.681-5.527-7.348-7.028-3.773-3.396-8.34-7.225-11.477-9.622-0.871-0.665-1.696-1.299-1.833-1.409-2.685-2.141-9.91-7.154-13.948-9.679-0.716-0.447-1.565-0.982-1.886-1.188-0.866-0.555-3.678-2.225-5.666-3.366-1.687-0.967-2.754-1.56-5.25-2.917-1.71-0.929-9.603-4.819-11.25-5.544-0.78-0.343-1.867-0.831-2.417-1.084-1.032-0.475-5.672-2.388-7.583-3.125-0.596-0.23-1.459-0.57-1.917-0.754-1.897-0.765-9.936-3.527-11.75-4.038-0.413-0.116-1.5-0.438-2.417-0.714-0.916-0.276-2.416-0.705-3.333-0.953s-2.004-0.55-2.417-0.672c-0.742-0.22-1.505-0.406-4.416-1.077-0.825-0.191-1.95-0.454-2.5-0.586-1.327-0.318-4.113-0.897-5.225-1.087-0.49-0.083-1.015-0.191-1.166-0.239-0.302-0.095-5.574-0.981-7.443-1.251-0.641-0.093-1.916-0.278-2.833-0.412-2.689-0.392-7.743-0.921-13-1.362-2.996-0.251-18.925-0.456-23.167-0.298m21.584 13.205c1.146 0.102 3.058 0.266 4.25 0.364 10.313 0.847 25.925 3.74 34.583 6.408 0.412 0.127 1.762 0.542 3 0.921 3.63 1.113 8.149 2.647 11.083 3.763 0.642 0.244 1.438 0.543 1.769 0.665 0.99 0.364 3.62 1.436 4.859 1.981 0.345 0.151 1.47 0.637 2.5 1.078 7.491 3.212 17.185 8.308 23.956 12.593 3.918 2.48 7.134 4.652 10.75 7.26 1.833 1.322 3.483 2.53 3.666 2.684 0.184 0.155 0.971 0.777 1.75 1.384 0.779 0.606 1.529 1.194 1.667 1.306 0.137 0.112 0.625 0.503 1.083 0.87 0.458 0.366 0.919 0.741 1.023 0.833 0.104 0.091 0.554 0.474 1 0.85 6.296 5.309 13.076 11.762 17.736 16.879 0.866 0.951 1.691 1.851 1.834 2 0.782 0.816 4.703 5.464 6.491 7.693 0.321 0.401 0.773 0.957 1.005 1.236 0.231 0.28 0.756 0.958 1.166 1.508 0.409 0.55 0.789 1.038 0.843 1.084 0.195 0.166 4.132 5.641 5.752 8 1.327 1.932 3.158 4.76 5.072 7.833 0.321 0.515 3.292 5.619 3.784 6.5 1.484 2.659 4.809 9.176 5.951 11.667 0.4 0.87 0.964 2.102 1.254 2.736 1.036 2.264 3.284 7.762 4.655 11.386 1.515 4.002 4.044 11.898 5.086 15.878 1.016 3.884 1.653 6.575 2.682 11.333 0.449 2.076 1.18 6.22 1.749 9.917 2.475 16.08 2.622 35.287 0.401 52.25-0.534 4.079-1.488 9.771-2.15 12.833-1.029 4.758-1.666 7.449-2.682 11.333-1.042 3.98-3.571 11.876-5.086 15.878-1.554 4.106-3.793 9.542-4.916 11.933-0.403 0.858-0.733 1.592-0.733 1.631 0 0.562-5.72 11.45-8.392 15.975-3.587 6.072-6.097 9.886-10.588 16.083-0.963 1.329-1.793 2.454-1.844 2.5-0.052 0.046-0.431 0.534-0.843 1.084s-0.788 1.037-0.837 1.083c-0.048 0.046-0.347 0.421-0.663 0.833-0.316 0.413-0.614 0.788-0.662 0.834-0.049 0.045-0.538 0.646-1.088 1.333-0.549 0.688-1.037 1.287-1.083 1.333s-1.02 1.171-2.164 2.5c-1.145 1.329-2.307 2.671-2.583 2.982-3.741 4.208-11.823 12.177-15.586 15.37-0.688 0.583-1.288 1.1-1.334 1.149-0.466 0.493-5.177 4.34-8.166 6.669-5.712 4.45-16.241 11.437-21.579 14.32-0.731 0.395-1.481 0.817-1.667 0.938-0.706 0.459-3.984 2.157-7.838 4.06-5.088 2.513-5.715 2.8-10.583 4.848-1.788 0.752-3.719 1.545-4.293 1.763-0.573 0.218-1.548 0.588-2.166 0.823-4.998 1.899-12.132 4.181-17.124 5.477-1.284 0.333-2.709 0.711-3.167 0.84-3.904 1.101-15.244 3.246-20.667 3.909-4.526 0.553-5.699 0.681-7.75 0.845-1.237 0.099-3.187 0.262-4.333 0.363-3.141 0.278-18.504 0.384-21.997 0.153-11.704-0.775-18.177-1.582-27.336-3.411-8.64-1.724-20.384-5.03-27-7.6-0.505-0.196-1.104-0.416-1.334-0.489-3.157-1.007-12.375-5.022-18.083-7.877-5.637-2.818-9.847-5.179-15.292-8.575-0.343-0.215-0.906-0.565-1.25-0.78-1.817-1.133-5.427-3.565-7.708-5.194-5.145-3.675-4.804-3.419-9.35-7.024-1.064-0.843-2.039-1.633-2.167-1.755s-0.646-0.558-1.15-0.968-1.179-0.982-1.5-1.27-1.033-0.919-1.583-1.402c-4.937-4.334-13.065-12.457-16.738-16.729-0.386-0.448-0.79-0.907-0.898-1.019-0.109-0.113-0.348-0.383-0.533-0.602-0.661-0.782-3.668-4.395-3.865-4.644-0.11-0.139-0.86-1.087-1.666-2.105-0.807-1.019-2.217-2.885-3.133-4.146-0.917-1.262-1.742-2.38-1.834-2.485-0.34-0.39-5.416-7.932-5.416-8.048 0-0.045-0.213-0.393-0.473-0.775-2.887-4.234-9.853-17.035-11.897-21.861-0.579-1.366-1.093-2.531-1.584-3.583-1.344-2.882-5.66-14.297-6.207-16.417-0.071-0.275-0.286-0.957-0.478-1.517-1.34-3.912-3.574-12.533-4.767-18.399-0.159-0.78-0.362-1.75-0.452-2.157-0.231-1.047-0.951-5.284-1.234-7.26-0.751-5.237-0.821-5.815-1.318-10.833-0.56-5.662-0.674-8.616-0.674-17.584 0-8.963 0.093-11.325 0.676-17.25 0.487-4.959 0.563-5.583 1.316-10.833 0.273-1.908 0.981-6.061 1.264-7.417 0.106-0.504 0.294-1.404 0.418-2 1.341-6.415 3.25-13.802 4.675-18.09 0.242-0.73 0.499-1.551 0.571-1.826s0.556-1.7 1.077-3.167 1.01-2.854 1.088-3.083c0.332-0.983 1.933-5.144 2.339-6.084 0.079-0.183 0.493-1.196 0.92-2.25 0.426-1.054 0.829-1.991 0.895-2.083 0.067-0.092 0.293-0.579 0.503-1.083 1.029-2.472 4.887-10.383 6.381-13.084 0.406-0.733 0.965-1.746 1.242-2.25 2.195-3.996 4.751-8.159 7.931-12.916 2.593-3.879 3.017-4.501 3.12-4.584 0.057-0.046 0.472-0.608 0.922-1.25 0.45-0.641 0.858-1.204 0.907-1.25 0.05-0.046 0.734-0.945 1.521-2 3.006-4.026 7.04-8.88 10.875-13.083 3.016-3.305 10.054-10.255 13.84-13.667 0.102-0.093 0.711-0.618 1.353-1.167 0.641-0.55 1.241-1.079 1.333-1.176 0.317-0.337 1.923-1.657 5.417-4.456 4.861-3.894 12.617-9.357 17.462-12.298 0.667-0.405 1.754-1.065 2.417-1.467 4.747-2.881 12.01-6.771 16.621-8.902 2.908-1.344 3.856-1.768 6.5-2.904 2.619-1.125 6.566-2.698 7.666-3.055 0.23-0.075 1.054-0.373 1.834-0.664 4.529-1.689 12.101-4.033 17-5.262 11.671-2.928 22.819-4.691 34.166-5.402 1.605-0.101 3.105-0.208 3.334-0.239 1.027-0.138 19.633 0.049 21.5 0.216m1.666 60.037c-10.014 0.752-19.043 3.019-28 7.032-1.93 0.865-5.468 2.645-6.517 3.279-0.311 0.188-0.679 0.393-0.816 0.456-1.124 0.51-8.953 5.717-9.333 6.207-0.046 0.059-0.421 0.365-0.834 0.68-3.022 2.31-7.64 6.596-10.333 9.59-3.518 3.91-5.014 5.816-7.928 10.1l-2.113 3.105-1.847-0.653c-26.252-9.285-55.366 7.399-61.7 35.36-0.563 2.487-0.523 2.396-1.199 2.705-2.334 1.065-7.385 4.316-10.213 6.574-3.706 2.959-7.142 6.298-9.919 9.638-0.457 0.55-0.876 1.037-0.93 1.083-0.206 0.172-3.601 4.954-4.143 5.833-0.31 0.505-0.815 1.307-1.122 1.783-7.882 12.225-11.503 31.654-8.785 47.134 0.372 2.118 0.723 3.902 0.902 4.583 0.084 0.321 0.274 1.109 0.422 1.75 0.479 2.074 2.954 9.242 3.395 9.834 0.068 0.091 0.225 0.429 0.347 0.75 1.055 2.758 6.225 11.7 7.323 12.666 0.053 0.046 0.426 0.534 0.831 1.084 0.714 0.97 1.732 2.205 3.087 3.75 2.314 2.635 6.583 6.598 9.262 8.598 3.851 2.873 5.984 4.207 10.287 6.429 2.672 1.379 2.435 1.377 2.704 0.014 0.681-3.46 2.117-6.509 4.811-10.216 0.204-0.28 0.127-0.351-0.909-0.835-7.243-3.386-14.464-9.352-19.455-16.074-0.613-0.825-1.172-1.575-1.243-1.666-0.072-0.092-0.65-0.992-1.286-2-8.338-13.226-10.654-28.931-6.66-45.167 0.963-3.913 3.554-9.999 5.961-14 0.905-1.503 3.045-4.708 3.283-4.917 0.053-0.046 0.355-0.421 0.672-0.833s0.653-0.832 0.746-0.931c0.093-0.1 0.581-0.68 1.086-1.289 1.01-1.22 3.9-4.098 5.333-5.31 1.816-1.536 2.102-1.765 3.333-2.667 2.869-2.102 5.678-3.728 9.834-5.691 2.198-1.039 3.496-2.684 3.827-4.852 1.502-9.833 4.783-16.73 10.794-22.69 10.969-10.875 25.946-13.206 39.959-6.218 4.551 2.269 8.522 0.986 9.924-3.205 0.195-0.585 0.429-1.139 0.519-1.23 0.107-0.11 0.121-0.057 0.042 0.152-0.085 0.223-0.063 0.283 0.073 0.199 0.107-0.067 0.195-0.192 0.195-0.28 0-0.321 2.914-4.854 4.653-7.238 6.704-9.192 15.026-16.44 25.02-21.792 0.324-0.173 0.884-0.722 1.245-1.22 0.564-0.778 0.732-0.905 1.202-0.905 0.723 0 0.699 0.056-0.326 0.746-1.103 0.743-0.831 0.753 0.646 0.023 17.614-8.703 40.214-8.842 58.458-0.358 1.572 0.731 2.416 0.945 1.242 0.315-0.502-0.27-0.521-0.305-0.191-0.356 0.257-0.04 0.589 0.169 1.118 0.706 0.414 0.42 1.075 0.914 1.468 1.098 1.038 0.486 1.782 0.895 2.943 1.621 10.982 6.861 18.633 14.497 25.507 25.455 2.337 3.727 5.496 10.519 7.015 15.084 0.816 2.45 1.675 5.554 2.331 8.416 0.707 3.088 1.403 7.948 1.588 11.084 0.437 7.438 1.091 8.369 7.016 9.994 14.578 3.999 27.601 15.798 32.742 29.667 0.77 2.078 1.314 3.677 1.789 5.255 0.885 2.943 1.063 3.65 1.132 4.5 0.037 0.459 0.148 1.209 0.247 1.667 0.867 4.025 0.824 12.345-0.091 17.543-0.15 0.848-0.224 1.621-0.165 1.716 0.058 0.095 0.024 0.271-0.076 0.392s-0.262 0.661-0.359 1.201c-0.186 1.029-1.673 5.595-2.519 7.731-1.351 3.414-4.601 9.195-6.532 11.62-2.59 3.252-5.322 6.166-7.386 7.88-0.608 0.505-1.192 1.003-1.299 1.109-0.505 0.497-4.018 2.947-5.585 3.892-7.359 4.445-14.705 6.496-24.254 6.772l-3.912 0.113v6.317 6.316l4.791-0.064c2.636-0.036 5.355-0.152 6.042-0.258 0.688-0.105 1.775-0.273 2.417-0.372 22.737-3.5 42.21-20.573 49.226-43.158 0.385-1.238 0.777-2.494 0.873-2.792 0.095-0.299 0.125-0.711 0.067-0.917-0.071-0.254-0.056-0.303 0.049-0.153 0.111 0.16 0.181 0.069 0.255-0.333 0.056-0.305 0.219-1.08 0.363-1.722 2.862-12.747 1.799-25.946-3.133-38.916-2.81-7.388-8.285-15.666-14.357-21.706-2.778-2.762-7.882-6.923-9.845-8.024-0.274-0.154-1.061-0.623-1.748-1.042-4.03-2.458-7.594-4.114-12.36-5.743l-0.61-0.208-0.186-1.68c-0.237-2.138-0.637-4.969-0.944-6.681-0.53-2.955-0.611-3.369-0.827-4.25-0.123-0.504-0.333-1.366-0.466-1.916-1.038-4.304-4.018-13.177-4.758-14.164-0.07-0.093-0.226-0.432-0.347-0.753-2.217-5.883-8.784-16.175-14.55-22.805-0.701-0.806-6.704-6.806-7.452-7.449-3.872-3.327-7.194-5.838-10.542-7.969-0.527-0.336-1.352-0.861-1.833-1.168-1.446-0.922-3.056-1.776-3.35-1.776-0.151 0-0.275-0.078-0.275-0.173 0-0.2-4.509-2.447-6.944-3.46-4.783-1.992-8.227-3.129-12.89-4.257-2.822-0.683-6.026-1.285-8.583-1.613-4.649-0.596-12.03-0.815-16.417-0.486m46.489 11.06c0.162 0.194 0.136 0.22-0.146 0.147-0.188-0.05-0.343-0.156-0.343-0.237 0-0.225 0.269-0.176 0.489 0.09m-33.322 35.929c-0.222 0.144-0.222 0.162 0 0.162 0.137 0 0.362-0.073 0.5-0.162 0.222-0.143 0.222-0.161 0-0.161-0.138 0-0.363 0.072-0.5 0.161m172.44 14.778c-0.061 0.061-0.106 0.267-0.1 0.458 0.01 0.32 0.023 0.316 0.17-0.052 0.163-0.408 0.13-0.605-0.07-0.406m-0.361 1.222c-0.062 0.197-0.076 0.396-0.03 0.442s0.134-0.078 0.197-0.275 0.076-0.396 0.03-0.442c-0.045-0.046-0.134 0.078-0.197 0.275m-53.342 65.371c0.46 0.657 0.328 1.071-0.158 0.493-0.429-0.51-0.535-0.864-0.259-0.864 0.086 0 0.274 0.167 0.417 0.371m-11.013 2.617c-0.086 0.43-0.143 0.492-0.257 0.287-0.182-0.323 0.012-1.192 0.219-0.985 0.081 0.081 0.098 0.395 0.038 0.698m0.192 1.958-0.123 0.471-0.154-0.406c-0.193-0.505-0.048-0.983 0.217-0.717 0.109 0.109 0.133 0.37 0.06 0.652m-67.42 9.658c-5.363 0.485-11.352 3.206-14.687 6.672-7.844 8.153-3.8 19.612 8.437 23.913 1.008 0.354 1.965 0.644 2.125 0.644 0.277 1e-3 0.292 2.088 0.292 41.501v41.5h7.166 7.167v-4.334-4.333h5.917 5.916v-5.25-5.25h-5.916-5.917v-2-2h5.917 5.916v-5.25-5.25h-5.916-5.917v-24.635-24.635l0.875-0.223c8.123-2.072 13.892-8.351 13.864-15.09-0.041-9.953-11.523-17.223-25.239-15.98m-73.833 8.217c-2.822 0.415-5.574 1.692-7.959 3.694-0.664 0.558-1.209 1.064-1.209 1.125-1e-3 0.061-0.257 0.38-0.57 0.709-3.487 3.679-4.631 10.677-2.583 15.794 4.867 12.155 21.446 13.69 28.163 2.607 1.143-1.885 1.681-3.31 2.077-5.5 1.927-10.654-7.167-20.007-17.919-18.429m80.5 0.255c0.779 0.13 1.679 0.319 2 0.42 0.32 0.101 0.845 0.261 1.166 0.357 0.905 0.268 3.527 1.597 4.084 2.069 3.544 3.008 3.948 5.226 1.468 8.061-5.391 6.163-20.218 5.746-24.726-0.695-3.93-5.615 5.918-11.897 16.008-10.212m-158.17 0.696c-3.02 0.433-3.787 0.632-5.547 1.446-10.018 4.628-12.254 18.118-4.261 25.713 7.062 6.71 18.272 5.621 23.886-2.321 3.291-4.655 3.682-11.972 0.893-16.693-0.163-0.275-0.451-0.784-0.64-1.132-2.257-4.139-9.534-7.7-14.331-7.013m37.583 8.302c-12.567 2.528-17.064 18.217-7.736 26.992 4.769 4.486 11.662 5.57 17.571 2.763 11.673-5.547 12.097-21.953 0.73-28.207-2.805-1.543-7.308-2.202-10.565-1.548m33.667 23.256c-4.329 0.425-8.499 2.369-11.801 5.503l-1.36 1.29 0.997 0.511c3.108 1.593 6.338 4.491 8.869 7.959 1.229 1.683 2.913 5.469 3.532 7.937 0.549 2.191 0.644 3.532 0.774 10.922l0.121 6.868 0.684 0.087c6.847 0.87 16.725 0.419 23.517-1.074 4.497-0.988 9.501-2.74 10.122-3.543 0.341-0.442 0.441-15.429 0.123-18.421-0.945-8.892-7.288-15.955-15.885-17.691-1.7-0.343-16.989-0.613-19.693-0.348m-79.25 1.115c-9.311 1.474-15.754 7.545-17.445 16.436-0.368 1.939-0.538 19.71-0.192 20.168 0.129 0.17 0.866 0.472 1.723 0.706 0.823 0.225 2.21 0.604 3.081 0.843 0.87 0.24 2.033 0.544 2.583 0.677 0.55 0.132 1.412 0.344 1.917 0.47 7.03 1.759 17.995 2.649 24.375 1.98l0.958-0.101v-6.325c0-6.504 0.153-9.453 0.603-11.632 1.455-7.04 5.084-12.214 11.403-16.256 0.684-0.438 1.279-0.826 1.322-0.862 0.146-0.123-1.905-1.887-3.246-2.792-2.679-1.808-5.29-2.799-8.377-3.182-1.811-0.225-17.421-0.333-18.705-0.13m38.417 8.213c-7.228 1.332-13.261 6.473-15.561 13.259-0.987 2.912-1.189 5.484-1.189 15.121v7.955l0.375 0.228c0.206 0.125 0.825 0.352 1.375 0.503 0.55 0.152 1.934 0.541 3.075 0.865 14.338 4.069 29.904 4.446 42.175 1.02 2.588-0.722 6.273-2.218 6.683-2.712 0.206-0.249 0.248-16.707 0.048-18.813-0.776-8.168-7.443-15.476-15.759-17.275-2.479-0.537-18.512-0.651-21.222-0.151m78.67 0.967c1.218 2.908 1.912 6.121 1.914 8.875 1e-3 0.963 0.049 2.144 0.107 2.625l0.105 0.875h16.144 16.143v-6.333-6.333h-17.268c-16.381 0-17.261 0.015-17.145 0.291"/>
<path d="m190.58 0.102c-6.887 0.256-17.916 1.462-25.583 2.798-3.423 0.597-7.747 1.469-10.5 2.119-3.146 0.743-4.954 1.187-5.667 1.392-0.412 0.119-1.2 0.336-1.75 0.483-3.565 0.951-5.294 1.48-10.666 3.262-6.112 2.026-16.427 5.994-17.334 6.667-0.091 0.069-0.466 0.241-0.833 0.383-3.214 1.248-15.214 7.359-18.173 9.253-0.18 0.116-0.439 0.261-0.577 0.323-0.502 0.226-5.265 3.099-5.781 3.486-0.291 0.219-0.57 0.399-0.619 0.399-0.157 0-5.735 3.713-8.35 5.558-3.068 2.165-7.026 5.1-8.576 6.358-0.338 0.275-0.941 0.763-1.339 1.084-9.252 7.46-16.686 14.539-24.919 23.729-0.092 0.103-0.617 0.712-1.167 1.354-0.549 0.642-1.038 1.204-1.086 1.25-0.092 0.088-1.575 1.858-1.996 2.383-0.138 0.172-0.389 0.474-0.558 0.673-1.211 1.421-4.199 5.261-5.858 7.527-0.603 0.825-1.192 1.616-1.309 1.756-1.011 1.225-6.076 8.758-8.045 11.965-0.356 0.58-0.798 1.292-0.982 1.583-0.433 0.683-2.101 3.5-2.583 4.363-0.205 0.367-0.69 1.229-1.076 1.917-7.629 13.554-13.946 28.941-18.166 44.25-0.253 0.916-0.558 2.004-0.677 2.416-0.202 0.698-0.871 3.434-1.263 5.167-0.093 0.412-0.238 1.012-0.321 1.333s-0.302 1.352-0.487 2.292c-0.186 0.939-0.408 2.027-0.494 2.416-1.309 5.904-2.606 15.372-3.35 24.453-0.653 7.974-0.654 22.202-2e-3 29.967 0.611 7.279 1.253 12.615 2.181 18.122 0.276 1.639 0.45 2.609 0.987 5.5 0.085 0.459 0.39 1.921 0.676 3.25 0.767 3.555 0.994 4.556 1.476 6.5 0.471 1.899 0.663 2.6 2.189 8 4.217 14.926 12.608 33.922 20.811 47.115 0.239 0.384 0.726 1.172 1.083 1.75 3.923 6.352 9.434 14.131 14.018 19.786 1.415 1.747 1.68 2.07 1.833 2.245 0.092 0.104 0.54 0.639 0.996 1.189 0.457 0.549 0.869 1.036 0.917 1.082s0.537 0.608 1.087 1.249c0.967 1.128 1.817 2.1 2.171 2.483 0.094 0.101 1.03 1.122 2.079 2.268 3.122 3.408 9.022 9.255 12.253 12.141 0.548 0.49 1.297 1.167 1.664 1.504 1.092 1.005 2.866 2.525 5.166 4.427 1.192 0.985 2.317 1.915 2.501 2.068 0.184 0.152 0.671 0.539 1.083 0.86s0.899 0.712 1.082 0.869c0.583 0.498 4.721 3.572 7.06 5.245 1.862 1.331 8.495 5.788 9.382 6.303 0.158 0.091 1.211 0.735 2.34 1.429 14.043 8.639 28.037 14.944 45.636 20.563 3.321 1.06 9.557 2.715 13.833 3.67 0.596 0.134 1.608 0.36 2.25 0.503s1.767 0.375 2.5 0.516 1.821 0.359 2.417 0.486c0.595 0.126 1.608 0.312 2.25 0.413 0.641 0.101 1.804 0.29 2.583 0.42 4.513 0.751 9.6 1.411 13.417 1.742 1.1 0.095 2.862 0.249 3.916 0.342 4.276 0.377 10.827 0.536 18.334 0.447 9.397-0.113 15.012-0.512 24-1.707 4.765-0.633 11.126-1.743 15.25-2.66 0.641-0.143 1.654-0.367 2.25-0.497 1.451-0.32 8.203-2.028 9.25-2.342 0.458-0.137 1.245-0.369 1.75-0.515 0.504-0.147 1.104-0.326 1.333-0.398s1.092-0.335 1.917-0.583c5.278-1.589 11.882-3.974 18.083-6.53 2.15-0.886 2.703-1.127 5.167-2.25 0.595-0.272 1.42-0.648 1.833-0.836 2.282-1.039 8.807-4.329 11.163-5.628 1.498-0.826 2.747-1.502 2.774-1.502 0.028 0 0.598-0.326 1.265-0.724 0.668-0.398 2.152-1.275 3.298-1.948 1.146-0.674 2.308-1.38 2.583-1.569s0.63-0.418 0.788-0.509c2.761-1.593 13.666-9.11 14.629-10.084 0.046-0.047 0.533-0.417 1.083-0.822 0.55-0.406 1.038-0.783 1.084-0.838 0.045-0.054 0.758-0.621 1.583-1.259 1.671-1.293 5.408-4.356 5.667-4.644 0.091-0.103 0.691-0.636 1.333-1.186 1.394-1.193 1.175-1 3.105-2.749 4.959-4.495 10.939-10.548 15.149-15.335 0.685-0.779 1.289-1.454 1.341-1.5 0.086-0.076 3.615-4.323 4.915-5.916 0.299-0.367 1.04-1.305 1.646-2.084 0.607-0.779 1.424-1.829 1.817-2.333 2.151-2.763 7.08-9.886 10.031-14.5 3.331-5.207 8.358-14.378 11.192-20.417 1.67-3.557 2.028-4.348 2.639-5.833 0.34-0.825 0.674-1.575 0.743-1.667 0.116-0.156 1.798-4.323 2.725-6.75 0.228-0.596 0.603-1.571 0.834-2.166 1.232-3.175 4.227-12.584 5.385-16.917 0.147-0.55 0.365-1.338 0.484-1.75s0.308-1.162 0.419-1.667c0.111-0.504 0.298-1.254 0.415-1.666 0.117-0.413 0.256-0.975 0.308-1.25s0.215-1.025 0.361-1.667c0.389-1.714 1.063-4.876 1.243-5.833 0.085-0.459 0.269-1.434 0.408-2.167s0.335-1.895 0.436-2.581c0.1-0.686 0.206-1.286 0.235-1.333 0.028-0.047 0.175-0.986 0.325-2.086 0.151-1.1 0.378-2.713 0.505-3.583 0.416-2.849 0.973-8.383 1.369-13.584 0.416-5.463 0.416-20.689 1e-3 -26.166-0.376-4.966-0.926-10.412-1.371-13.584-0.604-4.304-0.752-5.258-1.249-8.083-0.69-3.918-0.722-4.084-1.334-6.917-0.771-3.572-0.996-4.563-1.477-6.5-0.325-1.312-0.521-2.053-1.122-4.25-1.631-5.966-4.141-13.706-5.971-18.416-1.364-3.512-2.491-6.303-2.927-7.25-0.254-0.55-0.664-1.488-0.913-2.084-0.44-1.054-0.591-1.391-1.798-4-1.98-4.279-5.827-11.746-7.061-13.705-0.215-0.342-0.391-0.66-0.391-0.708 0-0.094-3.784-6.463-4.409-7.42-4.163-6.381-7.79-11.625-10.028-14.5-2.807-3.607-6.071-7.629-7.911-9.75-3.889-4.481-6.018-6.77-9.994-10.743-2.19-2.188-5.681-5.527-7.348-7.028-3.773-3.396-8.34-7.225-11.477-9.622-0.871-0.665-1.696-1.299-1.833-1.409-2.685-2.141-9.91-7.154-13.948-9.679-0.716-0.447-1.565-0.982-1.886-1.188-0.866-0.555-3.678-2.225-5.666-3.366-1.687-0.967-2.754-1.56-5.25-2.917-1.71-0.929-9.603-4.819-11.25-5.544-0.78-0.343-1.867-0.831-2.417-1.084-1.032-0.475-5.672-2.388-7.583-3.125-0.596-0.23-1.459-0.57-1.917-0.754-1.897-0.765-9.936-3.527-11.75-4.038-0.413-0.116-1.5-0.438-2.417-0.714-0.916-0.276-2.416-0.705-3.333-0.953s-2.004-0.55-2.417-0.672c-0.742-0.22-1.505-0.406-4.416-1.077-0.825-0.191-1.95-0.454-2.5-0.586-1.327-0.318-4.113-0.897-5.225-1.087-0.49-0.083-1.015-0.191-1.166-0.239-0.302-0.095-5.574-0.981-7.443-1.251-0.641-0.093-1.916-0.278-2.833-0.412-2.689-0.392-7.743-0.921-13-1.362-2.996-0.251-18.925-0.456-23.167-0.298m21.584 13.205c1.146 0.102 3.058 0.266 4.25 0.364 10.313 0.847 25.925 3.74 34.583 6.408 0.412 0.127 1.762 0.542 3 0.921 3.63 1.113 8.149 2.647 11.083 3.763 0.642 0.244 1.438 0.543 1.769 0.665 0.99 0.364 3.62 1.436 4.859 1.981 0.345 0.151 1.47 0.637 2.5 1.078 7.491 3.212 17.185 8.308 23.956 12.593 3.918 2.48 7.134 4.652 10.75 7.26 1.833 1.322 3.483 2.53 3.666 2.684 0.184 0.155 0.971 0.777 1.75 1.384 0.779 0.606 1.529 1.194 1.667 1.306 0.137 0.112 0.625 0.503 1.083 0.87 0.458 0.366 0.919 0.741 1.023 0.833 0.104 0.091 0.554 0.474 1 0.85 6.296 5.309 13.076 11.762 17.736 16.879 0.866 0.951 1.691 1.851 1.834 2 0.782 0.816 4.703 5.464 6.491 7.693 0.321 0.401 0.773 0.957 1.005 1.236 0.231 0.28 0.756 0.958 1.166 1.508 0.409 0.55 0.789 1.038 0.843 1.084 0.195 0.166 4.132 5.641 5.752 8 1.327 1.932 3.158 4.76 5.072 7.833 0.321 0.515 3.292 5.619 3.784 6.5 1.484 2.659 4.809 9.176 5.951 11.667 0.4 0.87 0.964 2.102 1.254 2.736 1.036 2.264 3.284 7.762 4.655 11.386 1.515 4.002 4.044 11.898 5.086 15.878 1.016 3.884 1.653 6.575 2.682 11.333 0.449 2.076 1.18 6.22 1.749 9.917 2.475 16.08 2.622 35.287 0.401 52.25-0.534 4.079-1.488 9.771-2.15 12.833-1.029 4.758-1.666 7.449-2.682 11.333-1.042 3.98-3.571 11.876-5.086 15.878-1.554 4.106-3.793 9.542-4.916 11.933-0.403 0.858-0.733 1.592-0.733 1.631 0 0.562-5.72 11.45-8.392 15.975-3.587 6.072-6.097 9.886-10.588 16.083-0.963 1.329-1.793 2.454-1.844 2.5-0.052 0.046-0.431 0.534-0.843 1.084s-0.788 1.037-0.837 1.083c-0.048 0.046-0.347 0.421-0.663 0.833-0.316 0.413-0.614 0.788-0.662 0.834-0.049 0.045-0.538 0.646-1.088 1.333-0.549 0.688-1.037 1.287-1.083 1.333s-1.02 1.171-2.164 2.5c-1.145 1.329-2.307 2.671-2.583 2.982-3.741 4.208-11.823 12.177-15.586 15.37-0.688 0.583-1.288 1.1-1.334 1.149-0.466 0.493-5.177 4.34-8.166 6.669-5.712 4.45-16.241 11.437-21.579 14.32-0.731 0.395-1.481 0.817-1.667 0.938-0.706 0.459-3.984 2.157-7.838 4.06-5.088 2.513-5.715 2.8-10.583 4.848-1.788 0.752-3.719 1.545-4.293 1.763-0.573 0.218-1.548 0.588-2.166 0.823-4.998 1.899-12.132 4.181-17.124 5.477-1.284 0.333-2.709 0.711-3.167 0.84-3.904 1.101-15.244 3.246-20.667 3.909-4.526 0.553-5.699 0.681-7.75 0.845-1.237 0.099-3.187 0.262-4.333 0.363-3.141 0.278-18.504 0.384-21.997 0.153-11.704-0.775-18.177-1.582-27.336-3.411-8.64-1.724-20.384-5.03-27-7.6-0.505-0.196-1.104-0.416-1.334-0.489-3.157-1.007-12.375-5.022-18.083-7.877-5.637-2.818-9.847-5.179-15.292-8.575-0.343-0.215-0.906-0.565-1.25-0.78-1.817-1.133-5.427-3.565-7.708-5.194-5.145-3.675-4.804-3.419-9.35-7.024-1.064-0.843-2.039-1.633-2.167-1.755s-0.646-0.558-1.15-0.968-1.179-0.982-1.5-1.27-1.033-0.919-1.583-1.402c-4.937-4.334-13.065-12.457-16.738-16.729-0.386-0.448-0.79-0.907-0.898-1.019-0.109-0.113-0.348-0.383-0.533-0.602-0.661-0.782-3.668-4.395-3.865-4.644-0.11-0.139-0.86-1.087-1.666-2.105-0.807-1.019-2.217-2.885-3.133-4.146-0.917-1.262-1.742-2.38-1.834-2.485-0.34-0.39-5.416-7.932-5.416-8.048 0-0.045-0.213-0.393-0.473-0.775-2.887-4.234-9.853-17.035-11.897-21.861-0.579-1.366-1.093-2.531-1.584-3.583-1.344-2.882-5.66-14.297-6.207-16.417-0.071-0.275-0.286-0.957-0.478-1.517-1.34-3.912-3.574-12.533-4.767-18.399-0.159-0.78-0.362-1.75-0.452-2.157-0.231-1.047-0.951-5.284-1.234-7.26-0.751-5.237-0.821-5.815-1.318-10.833-0.56-5.662-0.674-8.616-0.674-17.584 0-8.963 0.093-11.325 0.676-17.25 0.487-4.959 0.563-5.583 1.316-10.833 0.273-1.908 0.981-6.061 1.264-7.417 0.106-0.504 0.294-1.404 0.418-2 1.341-6.415 3.25-13.802 4.675-18.09 0.242-0.73 0.499-1.551 0.571-1.826s0.556-1.7 1.077-3.167 1.01-2.854 1.088-3.083c0.332-0.983 1.933-5.144 2.339-6.084 0.079-0.183 0.493-1.196 0.92-2.25 0.426-1.054 0.829-1.991 0.895-2.083 0.067-0.092 0.293-0.579 0.503-1.083 1.029-2.472 4.887-10.383 6.381-13.084 0.406-0.733 0.965-1.746 1.242-2.25 2.195-3.996 4.751-8.159 7.931-12.916 2.593-3.879 3.017-4.501 3.12-4.584 0.057-0.046 0.472-0.608 0.922-1.25 0.45-0.641 0.858-1.204 0.907-1.25 0.05-0.046 0.734-0.945 1.521-2 3.006-4.026 7.04-8.88 10.875-13.083 3.016-3.305 10.054-10.255 13.84-13.667 0.102-0.093 0.711-0.618 1.353-1.167 0.641-0.55 1.241-1.079 1.333-1.176 0.317-0.337 1.923-1.657 5.417-4.456 4.861-3.894 12.617-9.357 17.462-12.298 0.667-0.405 1.754-1.065 2.417-1.467 4.747-2.881 12.01-6.771 16.621-8.902 2.908-1.344 3.856-1.768 6.5-2.904 2.619-1.125 6.566-2.698 7.666-3.055 0.23-0.075 1.054-0.373 1.834-0.664 4.529-1.689 12.101-4.033 17-5.262 11.671-2.928 22.819-4.691 34.166-5.402 1.605-0.101 3.105-0.208 3.334-0.239 1.027-0.138 19.633 0.049 21.5 0.216m1.666 60.037c-10.014 0.752-19.043 3.019-28 7.032-1.93 0.865-5.468 2.645-6.517 3.279-0.311 0.188-0.679 0.393-0.816 0.456-1.124 0.51-8.953 5.717-9.333 6.207-0.046 0.059-0.421 0.365-0.834 0.68-3.022 2.31-7.64 6.596-10.333 9.59-3.518 3.91-5.014 5.816-7.928 10.1l-2.113 3.105-1.847-0.653c-26.252-9.285-55.366 7.399-61.7 35.36-0.563 2.487-0.523 2.396-1.199 2.705-2.334 1.065-7.385 4.316-10.213 6.574-3.706 2.959-7.142 6.298-9.919 9.638-0.457 0.55-0.876 1.037-0.93 1.083-0.206 0.172-3.601 4.954-4.143 5.833-0.31 0.505-0.815 1.307-1.122 1.783-7.882 12.225-11.503 31.654-8.785 47.134 0.372 2.118 0.723 3.902 0.902 4.583 0.084 0.321 0.274 1.109 0.422 1.75 0.479 2.074 2.954 9.242 3.395 9.834 0.068 0.091 0.225 0.429 0.347 0.75 1.055 2.758 6.225 11.7 7.323 12.666 0.053 0.046 0.426 0.534 0.831 1.084 0.714 0.97 1.732 2.205 3.087 3.75 2.314 2.635 6.583 6.598 9.262 8.598 3.851 2.873 5.984 4.207 10.287 6.429 2.672 1.379 2.435 1.377 2.704 0.014 0.681-3.46 2.117-6.509 4.811-10.216 0.204-0.28 0.127-0.351-0.909-0.835-7.243-3.386-14.464-9.352-19.455-16.074-0.613-0.825-1.172-1.575-1.243-1.666-0.072-0.092-0.65-0.992-1.286-2-8.338-13.226-10.654-28.931-6.66-45.167 0.963-3.913 3.554-9.999 5.961-14 0.905-1.503 3.045-4.708 3.283-4.917 0.053-0.046 0.355-0.421 0.672-0.833s0.653-0.832 0.746-0.931c0.093-0.1 0.581-0.68 1.086-1.289 1.01-1.22 3.9-4.098 5.333-5.31 1.816-1.536 2.102-1.765 3.333-2.667 2.869-2.102 5.678-3.728 9.834-5.691 2.198-1.039 3.496-2.684 3.827-4.852 1.502-9.833 4.783-16.73 10.794-22.69 10.969-10.875 25.946-13.206 39.959-6.218 4.551 2.269 8.522 0.986 9.924-3.205 0.195-0.585 0.429-1.139 0.519-1.23 0.107-0.11 0.121-0.057 0.042 0.152-0.085 0.223-0.063 0.283 0.073 0.199 0.107-0.067 0.195-0.192 0.195-0.28 0-0.321 2.914-4.854 4.653-7.238 6.704-9.192 15.026-16.44 25.02-21.792 0.324-0.173 0.884-0.722 1.245-1.22 0.564-0.778 0.732-0.905 1.202-0.905 0.723 0 0.699 0.056-0.326 0.746-1.103 0.743-0.831 0.753 0.646 0.023 17.614-8.703 40.214-8.842 58.458-0.358 1.572 0.731 2.416 0.945 1.242 0.315-0.502-0.27-0.521-0.305-0.191-0.356 0.257-0.04 0.589 0.169 1.118 0.706 0.414 0.42 1.075 0.914 1.468 1.098 1.038 0.486 1.782 0.895 2.943 1.621 10.982 6.861 18.633 14.497 25.507 25.455 2.337 3.727 5.496 10.519 7.015 15.084 0.816 2.45 1.675 5.554 2.331 8.416 0.707 3.088 1.403 7.948 1.588 11.084 0.437 7.438 1.091 8.369 7.016 9.994 14.578 3.999 27.601 15.798 32.742 29.667 0.77 2.078 1.314 3.677 1.789 5.255 0.885 2.943 1.063 3.65 1.132 4.5 0.037 0.459 0.148 1.209 0.247 1.667 0.867 4.025 0.824 12.345-0.091 17.543-0.15 0.848-0.224 1.621-0.165 1.716 0.058 0.095 0.024 0.271-0.076 0.392s-0.262 0.661-0.359 1.201c-0.186 1.029-1.673 5.595-2.519 7.731-1.351 3.414-4.601 9.195-6.532 11.62-2.59 3.252-5.322 6.166-7.386 7.88-0.608 0.505-1.192 1.003-1.299 1.109-0.505 0.497-4.018 2.947-5.585 3.892-7.359 4.445-14.705 6.496-24.254 6.772l-3.912 0.113v6.317 6.316l4.791-0.064c2.636-0.036 5.355-0.152 6.042-0.258 0.688-0.105 1.775-0.273 2.417-0.372 22.737-3.5 42.21-20.573 49.226-43.158 0.385-1.238 0.777-2.494 0.873-2.792 0.095-0.299 0.125-0.711 0.067-0.917-0.071-0.254-0.056-0.303 0.049-0.153 0.111 0.16 0.181 0.069 0.255-0.333 0.056-0.305 0.219-1.08 0.363-1.722 2.862-12.747 1.799-25.946-3.133-38.916-2.81-7.388-8.285-15.666-14.357-21.706-2.778-2.762-7.882-6.923-9.845-8.024-0.274-0.154-1.061-0.623-1.748-1.042-4.03-2.458-7.594-4.114-12.36-5.743l-0.61-0.208-0.186-1.68c-0.237-2.138-0.637-4.969-0.944-6.681-0.53-2.955-0.611-3.369-0.827-4.25-0.123-0.504-0.333-1.366-0.466-1.916-1.038-4.304-4.018-13.177-4.758-14.164-0.07-0.093-0.226-0.432-0.347-0.753-2.217-5.883-8.784-16.175-14.55-22.805-0.701-0.806-6.704-6.806-7.452-7.449-3.872-3.327-7.194-5.838-10.542-7.969-0.527-0.336-1.352-0.861-1.833-1.168-1.446-0.922-3.056-1.776-3.35-1.776-0.151 0-0.275-0.078-0.275-0.173 0-0.2-4.509-2.447-6.944-3.46-4.783-1.992-8.227-3.129-12.89-4.257-2.822-0.683-6.026-1.285-8.583-1.613-4.649-0.596-12.03-0.815-16.417-0.486m46.489 11.06c0.162 0.194 0.136 0.22-0.146 0.147-0.188-0.05-0.343-0.156-0.343-0.237 0-0.225 0.269-0.176 0.489 0.09m-33.322 35.929c-0.222 0.144-0.222 0.162 0 0.162 0.137 0 0.362-0.073 0.5-0.162 0.222-0.143 0.222-0.161 0-0.161-0.138 0-0.363 0.072-0.5 0.161m172.44 14.778c-0.061 0.061-0.106 0.267-0.1 0.458 0.01 0.32 0.023 0.316 0.17-0.052 0.163-0.408 0.13-0.605-0.07-0.406m-0.361 1.222c-0.062 0.197-0.076 0.396-0.03 0.442s0.134-0.078 0.197-0.275 0.076-0.396 0.03-0.442c-0.045-0.046-0.134 0.078-0.197 0.275m-53.342 65.371c0.46 0.657 0.328 1.071-0.158 0.493-0.429-0.51-0.535-0.864-0.259-0.864 0.086 0 0.274 0.167 0.417 0.371m-11.013 2.617c-0.086 0.43-0.143 0.492-0.257 0.287-0.182-0.323 0.012-1.192 0.219-0.985 0.081 0.081 0.098 0.395 0.038 0.698m0.192 1.958-0.123 0.471-0.154-0.406c-0.193-0.505-0.048-0.983 0.217-0.717 0.109 0.109 0.133 0.37 0.06 0.652m-67.42 9.658c-5.363 0.485-11.352 3.206-14.687 6.672-7.844 8.153-3.8 19.612 8.437 23.913 1.008 0.354 1.965 0.644 2.125 0.644 0.277 1e-3 0.292 2.088 0.292 41.501v41.5h7.166 7.167v-4.334-4.333h5.917 5.916v-5.25-5.25h-5.916-5.917v-2-2h5.917 5.916v-5.25-5.25h-5.916-5.917v-24.635-24.635l0.875-0.223c8.123-2.072 13.892-8.351 13.864-15.09-0.041-9.953-11.523-17.223-25.239-15.98m-73.833 8.217c-2.822 0.415-5.574 1.692-7.959 3.694-0.664 0.558-1.209 1.064-1.209 1.125-1e-3 0.061-0.257 0.38-0.57 0.709-3.487 3.679-4.631 10.677-2.583 15.794 4.867 12.155 21.446 13.69 28.163 2.607 1.143-1.885 1.681-3.31 2.077-5.5 1.927-10.654-7.167-20.007-17.919-18.429m80.5 0.255c0.779 0.13 1.679 0.319 2 0.42 0.32 0.101 0.845 0.261 1.166 0.357 0.905 0.268 3.527 1.597 4.084 2.069 3.544 3.008 3.948 5.226 1.468 8.061-5.391 6.163-20.218 5.746-24.726-0.695-3.93-5.615 5.918-11.897 16.008-10.212m-158.17 0.696c-3.02 0.433-3.787 0.632-5.547 1.446-10.018 4.628-12.254 18.118-4.261 25.713 7.062 6.71 18.272 5.621 23.886-2.321 3.291-4.655 3.682-11.972 0.893-16.693-0.163-0.275-0.451-0.784-0.64-1.132-2.257-4.139-9.534-7.7-14.331-7.013m37.583 8.302c-12.567 2.528-17.064 18.217-7.736 26.992 4.769 4.486 11.662 5.57 17.571 2.763 11.673-5.547 12.097-21.953 0.73-28.207-2.805-1.543-7.308-2.202-10.565-1.548m33.667 23.256c-4.329 0.425-8.499 2.369-11.801 5.503l-1.36 1.29 0.997 0.511c3.108 1.593 6.338 4.491 8.869 7.959 1.229 1.683 2.913 5.469 3.532 7.937 0.549 2.191 0.644 3.532 0.774 10.922l0.121 6.868 0.684 0.087c6.847 0.87 16.725 0.419 23.517-1.074 4.497-0.988 9.501-2.74 10.122-3.543 0.341-0.442 0.441-15.429 0.123-18.421-0.945-8.892-7.288-15.955-15.885-17.691-1.7-0.343-16.989-0.613-19.693-0.348m-79.25 1.115c-9.311 1.474-15.754 7.545-17.445 16.436-0.368 1.939-0.538 19.71-0.192 20.168 0.129 0.17 0.866 0.472 1.723 0.706 0.823 0.225 2.21 0.604 3.081 0.843 0.87 0.24 2.033 0.544 2.583 0.677 0.55 0.132 1.412 0.344 1.917 0.47 7.03 1.759 17.995 2.649 24.375 1.98l0.958-0.101v-6.325c0-6.504 0.153-9.453 0.603-11.632 1.455-7.04 5.084-12.214 11.403-16.256 0.684-0.438 1.279-0.826 1.322-0.862 0.146-0.123-1.905-1.887-3.246-2.792-2.679-1.808-5.29-2.799-8.377-3.182-1.811-0.225-17.421-0.333-18.705-0.13m38.417 8.213c-7.228 1.332-13.261 6.473-15.561 13.259-0.987 2.912-1.189 5.484-1.189 15.121v7.955l0.375 0.228c0.206 0.125 0.825 0.352 1.375 0.503 0.55 0.152 1.934 0.541 3.075 0.865 14.338 4.069 29.904 4.446 42.175 1.02 2.588-0.722 6.273-2.218 6.683-2.712 0.206-0.249 0.248-16.707 0.048-18.813-0.776-8.168-7.443-15.476-15.759-17.275-2.479-0.537-18.512-0.651-21.222-0.151m78.67 0.967c1.218 2.908 1.912 6.121 1.914 8.875 1e-3 0.963 0.049 2.144 0.107 2.625l0.105 0.875h16.144 16.143v-6.333-6.333h-17.268c-16.381 0-17.261 0.015-17.145 0.291"/>
</g>
</svg>
