<svg width="400" height="400" viewBox="0 0 400 359.84" xmlns="http://www.w3.org/2000/svg"><g fill-rule="evenodd" fill="#fff"><path d="M172.17.103c-8.456.402-15.025 1.114-23.667 2.563-1.384.232-6.708 1.284-7.583 1.499-.367.09-1.342.318-2.167.506-6.427 1.47-14.525 3.895-20.75 6.216-7.151 2.666-11.68 4.624-18.167 7.855-4.795 2.389-9.802 5.13-12.5 6.844-.32.203-1.258.771-2.083 1.26-15.494 9.191-31.836 23.617-45.394 40.071-4.704 5.708-10.296 13.768-14.684 21.166-2.853 4.809-3.719 6.396-6.143 11.25-2.335 4.676-2.785 5.632-4.233 9a516.044 516.044 0 0 1-1.043 2.417c-1.825 4.164-4.735 12.376-6.409 18.083-.282.963-.586 1.977-.675 2.254-.484 1.499-2.483 9.761-2.982 12.33-.748 3.844-.856 4.428-1.182 6.416a422.254 422.254 0 0 1-.501 3c-.362 2.07-.926 6.947-1.331 11.5-1.233 13.865-.717 29.464 1.431 43.25.505 3.239 1.662 9.517 2.058 11.167C6.42 228.144 7.44 231.731 9.92 239c1.21 3.548 3.07 8.39 4.009 10.442.132.289.241.565.241.613 0 .049.217.562.484 1.142.266.579.592 1.315.725 1.636 2.975 7.18 9.658 19.268 15.2 27.492 2.576 3.824 8.378 11.708 9.081 12.342.051.045.39.458.754.916.364.459.701.871.751.917.049.046.65.758 1.335 1.583s1.479 1.763 1.764 2.084c5.649 6.354 11.765 12.479 17.072 17.097.413.359.788.694.834.744.067.074 3.423 2.88 4.75 3.972.183.151 1.008.796 1.833 1.434s1.537 1.2 1.583 1.248c.31.329 5.739 4.273 8.141 5.915C82.091 331.046 91.706 337 92.08 337c.053 0 .376.175.718.389 1.654 1.035 13.058 6.778 13.459 6.778.031 0 .568.229 1.193.51s1.286.578 1.47.659c4.346 1.938 13.851 5.398 18.75 6.825.687.2 1.437.43 1.666.51 3.031 1.066 13.631 3.535 19.25 4.483 7.341 1.239 11.667 1.761 19.75 2.381 3.435.264 19.72.264 23.25 0 8.743-.653 17.235-1.759 23.5-3.061.917-.19 2.154-.445 2.75-.565 8.235-1.664 19.375-5.032 28.084-8.49 17.795-7.066 32.971-15.996 48.331-28.441.742-.601 4.044-3.421 4.669-3.986.366-.332 1.529-1.382 2.583-2.332 3.246-2.929 9.812-9.575 12.671-12.827a79.09 79.09 0 0 1 1.338-1.5c1.11-1.002 8.724-10.622 11.015-13.916l1.564-2.25c2.907-4.184 8.412-12.952 8.412-13.398 0-.06.188-.407.418-.772.23-.364.652-1.094.936-1.621.285-.528.726-1.334.979-1.793.575-1.039 3.495-6.875 4.003-8 .207-.458.704-1.534 1.103-2.39.4-.856.728-1.582.728-1.613s.254-.606.565-1.279c2.111-4.57 6.234-16.038 7.688-21.384l.772-2.834c.695-2.55 1.152-4.396 2.042-8.25.634-2.747 1.714-8.533 2.193-11.75 2.541-17.073 2.632-36.781.244-52.666-1.232-8.196-2.719-15.383-4.518-21.834a454.006 454.006 0 0 1-.758-2.75c-4.98-18.468-15.872-40.411-28.377-57.165a453.47 453.47 0 0 0-4.029-5.246c-2.484-3.012-4.738-5.707-4.886-5.839a17.36 17.36 0 0 1-.838-.916c-3.662-4.214-10.661-11.246-15.009-15.084a81.406 81.406 0 0 1-1.61-1.446c-.227-.22-3.898-3.283-5.729-4.781-11.34-9.272-27.45-18.933-41.5-24.885a286.85 286.85 0 0 1-2.667-1.14c-2.585-1.17-12.012-4.521-15.917-5.658-.687-.201-1.437-.43-1.666-.511s-1.805-.519-3.5-.975c-11.712-3.147-21.815-4.84-35-5.864-2.081-.162-17.635-.333-20-.22m17.083 11.809c2.292.135 4.571.287 5.066.337.494.051 1.656.167 2.583.258 3.31.324 8.937 1.066 11.268 1.486 2.798.505 7.318 1.381 7.75 1.503.275.077 1.25.307 2.166.511 5.461 1.214 17.675 4.829 19.123 5.66.159.092.369.166.465.166.168 0 3.814 1.435 7.746 3.047 3.424 1.405 10.78 4.926 14.125 6.761.527.289 1.389.759 1.916 1.044 4.427 2.396 12.706 7.671 17.125 10.91 1.931 1.416 6.636 5.004 7.329 5.59.186.158.938.789 1.671 1.404a164.45 164.45 0 0 1 1.838 1.556c.277.241 1.025.888 1.662 1.438.636.55 1.609 1.412 2.162 1.916 1.84 1.675 9.821 9.662 11.042 11.05.662.752 1.377 1.555 1.588 1.784 1.515 1.64 5.2 6.107 8.042 9.75 3.851 4.937 10.691 15.444 13.398 20.584.072.137.341.625.597 1.083 15.358 27.49 22.509 61.952 19.679 94.833-1.503 17.456-5.518 33.709-12.497 50.584a68.081 68.081 0 0 1-.793 1.833c-.19.412-.49 1.088-.667 1.5-.987 2.304-4.553 9.532-5.631 11.417-.21.366-.645 1.154-.966 1.75-.75 1.388-4.939 8.338-6.081 10.087-1.572 2.409-6.337 9.188-6.616 9.413-.057.045-.844 1.058-1.75 2.25-.906 1.191-1.691 2.204-1.745 2.25-.054.045-.844.983-1.755 2.083-.912 1.1-1.894 2.262-2.184 2.583s-1.264 1.409-2.165 2.417c-14.92 16.698-35.083 31.386-55.824 40.666-.275.123-1.025.462-1.667.753-4.399 1.995-14.11 5.553-19.083 6.991a173.4 173.4 0 0 0-2.034.601c-.907.278-7.995 2.072-9.716 2.459-3.134.704-7.903 1.58-11.417 2.095-3.806.559-4.685.673-6.583.852-1.009.096-2.584.249-3.5.34-12.801 1.276-30.378.594-43.084-1.672l-2.833-.504a79.626 79.626 0 0 1-2.583-.493c-.367-.084-1.417-.314-2.334-.512-7.62-1.647-15.07-3.842-23.333-6.874-7.247-2.659-17.266-7.392-24.375-11.515a161.764 161.764 0 0 1-4.792-2.854c-4.238-2.612-11.669-7.753-14.432-9.984a92.967 92.967 0 0 0-1.076-.849c-6.275-4.87-13.91-11.919-19.593-18.09-2.548-2.766-2.873-3.138-6.712-7.66a78.632 78.632 0 0 1-1.266-1.583c-.502-.642-.954-1.205-1.004-1.25-.496-.452-5.628-7.587-7.553-10.5a293.029 293.029 0 0 0-1.777-2.671c-.423-.611-2.436-3.93-3.788-6.246-2.068-3.54-2.705-4.723-4.806-8.917-2.915-5.82-4.894-10.274-6.593-14.833-.358-.963-.724-1.9-.812-2.083-.59-1.23-3.614-10.559-4.429-13.667-2.766-10.539-4.437-19.502-5.157-27.667-.056-.641-.174-1.841-.261-2.666-.794-7.519-.792-21.473.004-29.084.091-.871.242-2.333.334-3.25.323-3.192.992-8.262 1.329-10.083.094-.504.326-1.779.517-2.833.726-4.025 1.587-7.772 3.235-14.084.293-1.124 1.378-4.782 1.754-5.916.168-.505.38-1.18.472-1.5.232-.808 1.957-5.699 2.44-6.917l1.313-3.333c4.733-12.046 14.479-29.57 20.575-37 .075-.092.807-1.067 1.627-2.167s1.529-2.038 1.576-2.083c.047-.046.533-.646 1.08-1.334 1.133-1.422 4.198-5.088 5.081-6.076a196.66 196.66 0 0 1 7.251-7.69c2.429-2.44 3.953-3.878 8.005-7.556 1.353-1.229 6.679-5.613 8-6.586.366-.27.704-.535.75-.588.045-.054.495-.395 1-.759a36.308 36.308 0 0 0 1.166-.867c1.008-.833 6.108-4.379 8.667-6.027l2.667-1.716c3.259-2.097 8.732-5.137 13.833-7.684 3.139-1.567 4.267-2.102 6.833-3.242.504-.223 1.221-.545 1.593-.714 3.609-1.64 12.653-4.964 16.991-6.244a69.02 69.02 0 0 0 1.916-.589c2.232-.782 11.855-3.121 15.75-3.828l2.75-.502c11.347-2.078 26.397-2.96 38.417-2.253m-23.5 39.927c-10.668.579-21.56 2.66-31.417 6-1.236.419-6.108 2.209-6.583 2.419-.275.122-.967.414-1.538.649-2.028.835-4.53 2-7.624 3.547-4.977 2.489-11.16 6.214-14.861 8.953-.379.28-.856.622-1.061.76-6.068 4.069-15.783 13.16-21.599 20.21-.698.847-1.418 1.716-1.599 1.932-.396.472-3.463 4.514-3.763 4.96-.116.173-.48.689-.807 1.148-4.818 6.736-10.555 17.494-13.153 24.666-.167.459-.356.909-.421 1-.339.475-2.887 8.445-3.809 11.917-1.783 6.711-2.764 12.488-3.55 20.917-.269 2.878-.269 15.788 0 18.666.357 3.831.534 5.476.707 6.584l.504 3.25c.606 3.912 2.098 10.593 3.06 13.701l.942 3.049c2.012 6.511 6.275 16.447 9.146 21.317.28.475.509.891.509.924 0 .381 4.325 7.155 7.081 11.092 3.037 4.337 7.566 9.645 12.168 14.259 3.156 3.164 4.069 4.021 7.185 6.747 13.54 11.839 33.992 22.042 51.066 25.476.413.083 1.5.303 2.417.49 11.738 2.391 25.465 3.098 28.081 1.446 3.663-2.312 2.861-8.302-1.266-9.46-.744-.209-2-.297-5.189-.364-3.922-.082-7.698-.357-10.459-.761-8.745-1.28-16.239-3.051-24.334-5.75-2.607-.869-7.837-2.762-8.5-3.075a63.473 63.473 0 0 0-1.833-.765c-8.716-3.523-20.75-12.035-29.668-20.982-2.845-2.855-3.551-3.604-5.249-5.576-.504-.585-.993-1.148-1.086-1.25a33.79 33.79 0 0 1-.834-1.018c-.365-.459-.707-.871-.76-.917-.711-.613-5.025-6.685-7.399-10.417-2.168-3.406-5.576-9.835-7.156-13.5-.158-.366-.354-.816-.436-1-1.462-3.281-2.906-7.3-4.581-12.75-3.721-12.103-5.237-29.941-3.583-42.166.093-.688.249-1.888.347-2.667.2-1.599.906-5.863 1.158-7 2.868-12.938 6.904-23.31 13.132-33.75 2.561-4.292 6.822-10.363 9.299-13.25l1.5-1.75c10.111-11.801 24.129-22.356 37.399-28.159l2-.878c1.734-.765 1.921-.843 3.417-1.426 2.562-.997 6.513-2.344 9-3.066 2.446-.71 5.987-1.592 8.833-2.2 2.41-.515 7.303-1.246 10.167-1.519 1.008-.096 2.021-.21 2.25-.253 2.473-.468 14.872-.366 19.99.164 6.926.717 14.125 2.129 20.093 3.944 3.114.946 8.178 2.706 9.5 3.301.184.082 1.271.542 2.417 1.022 9.232 3.866 22.532 12.266 28.599 18.062.101.096.845.775 1.655 1.508 3.361 3.044 8.464 8.457 11.157 11.837.364.456.709.867.767.913.211.166 3.952 5.288 4.93 6.75 3.399 5.08 6.694 11.022 9.058 16.333a90.56 90.56 0 0 1 1.773 4.209c.854 2.155 2.135 5.702 2.483 6.875 1.559 5.259 2.292 8.124 3.051 11.916.545 2.721 1.027 5.583 1.027 6.095 0 .314-.203.322-8.125.323-9.757 0-9.708-.012-9.708 2.544 0 1.911.523 2.79 7.12 11.955.495.688 1.64 2.3 2.544 3.583 9.991 14.183 10.234 14.507 11.248 15.038.72.377 2.038.343 2.838-.072.85-.442 1.905-1.8 6.583-8.474.871-1.242 2.033-2.889 2.583-3.659s1.784-2.51 2.742-3.866c.958-1.357 2.566-3.629 3.573-5.05s2.226-3.146 2.709-3.833a59.5 59.5 0 0 1 1.015-1.417c1.906-2.311 2.202-5.466.603-6.409-.558-.33-.822-.341-7.961-.341h-7.384l-.104-.792c-.726-5.564-1.757-10.551-3.523-17.041-.916-3.367-3.096-9.653-4.249-12.25-.082-.184-.461-1.084-.843-2-1.101-2.638-3.481-7.578-4.659-9.667-2.959-5.252-2.887-5.131-4.834-8.083-2.229-3.38-5.244-7.64-5.662-8-.054-.046-.506-.609-1.005-1.25-2.782-3.577-5.652-6.722-10.279-11.264-2.758-2.707-3.841-3.695-6.381-5.82a49.878 49.878 0 0 1-1.077-.919c-.888-.834-6.462-4.981-8.768-6.524-1.804-1.206-5.788-3.723-5.894-3.723-.032 0-.763-.423-1.622-.94-3.432-2.064-9.591-5.03-14.813-7.134-15.631-6.297-33.278-9.186-50.417-8.254m5.274 32.006c-.704.282-1.367.844-1.825 1.548l-.449.69v11.084c0 12.213-.075 11.265.989 12.474 1.428 1.623 7.045 1.494 8.33-.19.961-1.261.931-.865.927-12.321-.004-12.342.055-11.968-2.077-13.108-.727-.389-5.042-.518-5.895-.177m30.726 53.038c-2.502 2.587-3.453 3.628-5.656 6.191-1.257 1.462-2.855 3.374-3.552 4.25s-1.658 2.08-2.135 2.676c-2.464 3.077-8.614 11.742-11.474 16.167a112.59 112.59 0 0 1-1.093 1.666c-.445.649-3.177 5.07-4.252 6.88-.532.896-1.029 1.667-1.104 1.714-.075.046-1.36-.95-2.855-2.213-1.494-1.264-3.054-2.559-3.465-2.878-.411-.32-.829-.657-.928-.75-3.426-3.209-19.134-14.14-23.569-16.402-.138-.07-.607-.335-1.042-.588-.435-.254-.792-.408-.792-.343 0 .76 7.155 10.862 10.858 15.33 1.843 2.224 4.984 5.957 5.398 6.415.29.322 1.232 1.373 2.093 2.335 3.691 4.13 6.592 7.149 11.968 12.456 2.622 2.589 4.805 4.708 4.851 4.709s.776-1.142 1.623-2.54a656.054 656.054 0 0 1 2.672-4.375c.623-1.008 1.646-2.733 2.274-3.833s1.497-2.6 1.932-3.333c2.3-3.88 6.664-12.181 9.111-17.334 1.429-3.008 2.554-5.435 2.554-5.511 0-.034.182-.459.405-.942.645-1.399 2.157-5.037 2.999-7.213.426-1.1.855-2.188.953-2.417.71-1.647 3.233-9.312 3.552-10.792.167-.774-.015-.682-1.326.675m-115.46 28.338c-1.912.595-2.455 1.712-2.455 5.049 0 3.237.574 4.32 2.584 4.877.958.265 20.817.258 21.875-.008 3.664-.923 3.748-8.846.105-9.934-.953-.285-21.188-.27-22.109.016m126.13 46.782c-8.555 1.543-14.71 7.374-17.063 16.164-1.074 4.014-.569 4.666 3.612 4.666 3.622 0 3.771-.097 4.846-3.148 2.96-8.402 10.649-12.083 18.452-8.835 7.615 3.17 9.02 13.842 2.862 21.733-.071.092-.358.467-.637.834-1.153 1.516-1.465 1.895-2.739 3.33-1.537 1.731-7.211 8.004-10.333 11.424-.55.603-1.301 1.43-1.667 1.837a730.514 730.514 0 0 1-3.75 4.155c-.138.147-.925 1.01-1.75 1.918l-2.5 2.748c-4.112 4.512-4.635 5.121-4.977 5.788-.393.767-.403 6.29-.013 6.847.639.912-.347.87 20.273.867 20.498-.003 19.513.04 20.201-.884.468-.63.616-4.851.205-5.837-.567-1.356.388-1.275-15.075-1.276l-13.72-.001 1.544-1.708c.849-.94 1.586-1.746 1.638-1.792s1.063-1.171 2.248-2.5 2.235-2.491 2.334-2.583 1.187-1.292 2.419-2.667 2.515-2.8 2.851-3.166c.336-.367 1.385-1.53 2.332-2.584.946-1.054 1.763-1.954 1.814-2s.73-.796 1.509-1.666c.779-.871 1.691-1.884 2.028-2.25.336-.367.935-1.079 1.332-1.584.397-.504.851-1.06 1.011-1.236.159-.175.497-.625.75-1 .254-.374.504-.718.555-.764.847-.752 3.13-5.026 4.14-7.75 3.656-9.856-.755-21.193-9.8-25.19-.513-.227-1.082-.481-1.266-.565-3.153-1.451-9.537-2.07-13.666-1.325m69.791 1.011c-.828.248-1.257.801-5.367 6.903-11.791 17.506-18.171 26.995-22.578 33.583-1.747 2.612-3.224 4.787-3.281 4.833-1.02.818-1.606 7.144-.808 8.735.637 1.273-.646 1.177 16.338 1.226l15.155.045v6.255c0 8.262-.317 7.74 4.692 7.738 4.767-.001 4.461.526 4.468-7.695l.006-6.28 3.459-.053c4.735-.074 4.878-.203 4.871-4.375-.007-3.934-.207-4.096-5.074-4.096h-3.256v-22.742c0-24.197.031-23.304-.817-23.88-.501-.341-6.799-.5-7.808-.197m-.541 31.153V260h-10.667c-5.867 0-10.667-.041-10.667-.092 0-.05.626-1.006 1.391-2.125.765-1.118 3.179-4.695 5.365-7.95 10.02-14.92 11.565-17.22 12.95-19.291.813-1.215 1.511-2.209 1.553-2.209.041 0 .075 7.125.075 15.834"/><path d="M172.17.103c-8.456.402-15.025 1.114-23.667 2.563-1.384.232-6.708 1.284-7.583 1.499-.367.09-1.342.318-2.167.506-6.427 1.47-14.525 3.895-20.75 6.216-7.151 2.666-11.68 4.624-18.167 7.855-4.795 2.389-9.802 5.13-12.5 6.844-.32.203-1.258.771-2.083 1.26-15.494 9.191-31.836 23.617-45.394 40.071-4.704 5.708-10.296 13.768-14.684 21.166-2.853 4.809-3.719 6.396-6.143 11.25-2.335 4.676-2.785 5.632-4.233 9a516.044 516.044 0 0 1-1.043 2.417c-1.825 4.164-4.735 12.376-6.409 18.083-.282.963-.586 1.977-.675 2.254-.484 1.499-2.483 9.761-2.982 12.33-.748 3.844-.856 4.428-1.182 6.416a422.254 422.254 0 0 1-.501 3c-.362 2.07-.926 6.947-1.331 11.5-1.233 13.865-.717 29.464 1.431 43.25.505 3.239 1.662 9.517 2.058 11.167C6.42 228.144 7.44 231.731 9.92 239c1.21 3.548 3.07 8.39 4.009 10.442.132.289.241.565.241.613 0 .049.217.562.484 1.142.266.579.592 1.315.725 1.636 2.975 7.18 9.658 19.268 15.2 27.492 2.576 3.824 8.378 11.708 9.081 12.342.051.045.39.458.754.916.364.459.701.871.751.917.049.046.65.758 1.335 1.583s1.479 1.763 1.764 2.084c5.649 6.354 11.765 12.479 17.072 17.097.413.359.788.694.834.744.067.074 3.423 2.88 4.75 3.972.183.151 1.008.796 1.833 1.434s1.537 1.2 1.583 1.248c.31.329 5.739 4.273 8.141 5.915C82.091 331.046 91.706 337 92.08 337c.053 0 .376.175.718.389 1.654 1.035 13.058 6.778 13.459 6.778.031 0 .568.229 1.193.51s1.286.578 1.47.659c4.346 1.938 13.851 5.398 18.75 6.825.687.2 1.437.43 1.666.51 3.031 1.066 13.631 3.535 19.25 4.483 7.341 1.239 11.667 1.761 19.75 2.381 3.435.264 19.72.264 23.25 0 8.743-.653 17.235-1.759 23.5-3.061.917-.19 2.154-.445 2.75-.565 8.235-1.664 19.375-5.032 28.084-8.49 17.795-7.066 32.971-15.996 48.331-28.441.742-.601 4.044-3.421 4.669-3.986.366-.332 1.529-1.382 2.583-2.332 3.246-2.929 9.812-9.575 12.671-12.827a79.09 79.09 0 0 1 1.338-1.5c1.11-1.002 8.724-10.622 11.015-13.916l1.564-2.25c2.907-4.184 8.412-12.952 8.412-13.398 0-.06.188-.407.418-.772.23-.364.652-1.094.936-1.621.285-.528.726-1.334.979-1.793.575-1.039 3.495-6.875 4.003-8 .207-.458.704-1.534 1.103-2.39.4-.856.728-1.582.728-1.613s.254-.606.565-1.279c2.111-4.57 6.234-16.038 7.688-21.384l.772-2.834c.695-2.55 1.152-4.396 2.042-8.25.634-2.747 1.714-8.533 2.193-11.75 2.541-17.073 2.632-36.781.244-52.666-1.232-8.196-2.719-15.383-4.518-21.834a454.006 454.006 0 0 1-.758-2.75c-4.98-18.468-15.872-40.411-28.377-57.165a453.47 453.47 0 0 0-4.029-5.246c-2.484-3.012-4.738-5.707-4.886-5.839a17.36 17.36 0 0 1-.838-.916c-3.662-4.214-10.661-11.246-15.009-15.084a81.406 81.406 0 0 1-1.61-1.446c-.227-.22-3.898-3.283-5.729-4.781-11.34-9.272-27.45-18.933-41.5-24.885a286.85 286.85 0 0 1-2.667-1.14c-2.585-1.17-12.012-4.521-15.917-5.658-.687-.201-1.437-.43-1.666-.511s-1.805-.519-3.5-.975c-11.712-3.147-21.815-4.84-35-5.864-2.081-.162-17.635-.333-20-.22m17.083 11.809c2.292.135 4.571.287 5.066.337.494.051 1.656.167 2.583.258 3.31.324 8.937 1.066 11.268 1.486 2.798.505 7.318 1.381 7.75 1.503.275.077 1.25.307 2.166.511 5.461 1.214 17.675 4.829 19.123 5.66.159.092.369.166.465.166.168 0 3.814 1.435 7.746 3.047 3.424 1.405 10.78 4.926 14.125 6.761.527.289 1.389.759 1.916 1.044 4.427 2.396 12.706 7.671 17.125 10.91 1.931 1.416 6.636 5.004 7.329 5.59.186.158.938.789 1.671 1.404a164.45 164.45 0 0 1 1.838 1.556c.277.241 1.025.888 1.662 1.438.636.55 1.609 1.412 2.162 1.916 1.84 1.675 9.821 9.662 11.042 11.05.662.752 1.377 1.555 1.588 1.784 1.515 1.64 5.2 6.107 8.042 9.75 3.851 4.937 10.691 15.444 13.398 20.584.072.137.341.625.597 1.083 15.358 27.49 22.509 61.952 19.679 94.833-1.503 17.456-5.518 33.709-12.497 50.584a68.081 68.081 0 0 1-.793 1.833c-.19.412-.49 1.088-.667 1.5-.987 2.304-4.553 9.532-5.631 11.417-.21.366-.645 1.154-.966 1.75-.75 1.388-4.939 8.338-6.081 10.087-1.572 2.409-6.337 9.188-6.616 9.413-.057.045-.844 1.058-1.75 2.25-.906 1.191-1.691 2.204-1.745 2.25-.054.045-.844.983-1.755 2.083-.912 1.1-1.894 2.262-2.184 2.583s-1.264 1.409-2.165 2.417c-14.92 16.698-35.083 31.386-55.824 40.666-.275.123-1.025.462-1.667.753-4.399 1.995-14.11 5.553-19.083 6.991a173.4 173.4 0 0 0-2.034.601c-.907.278-7.995 2.072-9.716 2.459-3.134.704-7.903 1.58-11.417 2.095-3.806.559-4.685.673-6.583.852-1.009.096-2.584.249-3.5.34-12.801 1.276-30.378.594-43.084-1.672l-2.833-.504a79.626 79.626 0 0 1-2.583-.493c-.367-.084-1.417-.314-2.334-.512-7.62-1.647-15.07-3.842-23.333-6.874-7.247-2.659-17.266-7.392-24.375-11.515a161.764 161.764 0 0 1-4.792-2.854c-4.238-2.612-11.669-7.753-14.432-9.984a92.967 92.967 0 0 0-1.076-.849c-6.275-4.87-13.91-11.919-19.593-18.09-2.548-2.766-2.873-3.138-6.712-7.66a78.632 78.632 0 0 1-1.266-1.583c-.502-.642-.954-1.205-1.004-1.25-.496-.452-5.628-7.587-7.553-10.5a293.029 293.029 0 0 0-1.777-2.671c-.423-.611-2.436-3.93-3.788-6.246-2.068-3.54-2.705-4.723-4.806-8.917-2.915-5.82-4.894-10.274-6.593-14.833-.358-.963-.724-1.9-.812-2.083-.59-1.23-3.614-10.559-4.429-13.667-2.766-10.539-4.437-19.502-5.157-27.667-.056-.641-.174-1.841-.261-2.666-.794-7.519-.792-21.473.004-29.084.091-.871.242-2.333.334-3.25.323-3.192.992-8.262 1.329-10.083.094-.504.326-1.779.517-2.833.726-4.025 1.587-7.772 3.235-14.084.293-1.124 1.378-4.782 1.754-5.916.168-.505.38-1.18.472-1.5.232-.808 1.957-5.699 2.44-6.917l1.313-3.333c4.733-12.046 14.479-29.57 20.575-37 .075-.092.807-1.067 1.627-2.167s1.529-2.038 1.576-2.083c.047-.046.533-.646 1.08-1.334 1.133-1.422 4.198-5.088 5.081-6.076a196.66 196.66 0 0 1 7.251-7.69c2.429-2.44 3.953-3.878 8.005-7.556 1.353-1.229 6.679-5.613 8-6.586.366-.27.704-.535.75-.588.045-.054.495-.395 1-.759a36.308 36.308 0 0 0 1.166-.867c1.008-.833 6.108-4.379 8.667-6.027l2.667-1.716c3.259-2.097 8.732-5.137 13.833-7.684 3.139-1.567 4.267-2.102 6.833-3.242.504-.223 1.221-.545 1.593-.714 3.609-1.64 12.653-4.964 16.991-6.244a69.02 69.02 0 0 0 1.916-.589c2.232-.782 11.855-3.121 15.75-3.828l2.75-.502c11.347-2.078 26.397-2.96 38.417-2.253m-23.5 39.927c-10.668.579-21.56 2.66-31.417 6-1.236.419-6.108 2.209-6.583 2.419-.275.122-.967.414-1.538.649-2.028.835-4.53 2-7.624 3.547-4.977 2.489-11.16 6.214-14.861 8.953-.379.28-.856.622-1.061.76-6.068 4.069-15.783 13.16-21.599 20.21-.698.847-1.418 1.716-1.599 1.932-.396.472-3.463 4.514-3.763 4.96-.116.173-.48.689-.807 1.148-4.818 6.736-10.555 17.494-13.153 24.666-.167.459-.356.909-.421 1-.339.475-2.887 8.445-3.809 11.917-1.783 6.711-2.764 12.488-3.55 20.917-.269 2.878-.269 15.788 0 18.666.357 3.831.534 5.476.707 6.584l.504 3.25c.606 3.912 2.098 10.593 3.06 13.701l.942 3.049c2.012 6.511 6.275 16.447 9.146 21.317.28.475.509.891.509.924 0 .381 4.325 7.155 7.081 11.092 3.037 4.337 7.566 9.645 12.168 14.259 3.156 3.164 4.069 4.021 7.185 6.747 13.54 11.839 33.992 22.042 51.066 25.476.413.083 1.5.303 2.417.49 11.738 2.391 25.465 3.098 28.081 1.446 3.663-2.312 2.861-8.302-1.266-9.46-.744-.209-2-.297-5.189-.364-3.922-.082-7.698-.357-10.459-.761-8.745-1.28-16.239-3.051-24.334-5.75-2.607-.869-7.837-2.762-8.5-3.075a63.473 63.473 0 0 0-1.833-.765c-8.716-3.523-20.75-12.035-29.668-20.982-2.845-2.855-3.551-3.604-5.249-5.576-.504-.585-.993-1.148-1.086-1.25a33.79 33.79 0 0 1-.834-1.018c-.365-.459-.707-.871-.76-.917-.711-.613-5.025-6.685-7.399-10.417-2.168-3.406-5.576-9.835-7.156-13.5-.158-.366-.354-.816-.436-1-1.462-3.281-2.906-7.3-4.581-12.75-3.721-12.103-5.237-29.941-3.583-42.166.093-.688.249-1.888.347-2.667.2-1.599.906-5.863 1.158-7 2.868-12.938 6.904-23.31 13.132-33.75 2.561-4.292 6.822-10.363 9.299-13.25l1.5-1.75c10.111-11.801 24.129-22.356 37.399-28.159l2-.878c1.734-.765 1.921-.843 3.417-1.426 2.562-.997 6.513-2.344 9-3.066 2.446-.71 5.987-1.592 8.833-2.2 2.41-.515 7.303-1.246 10.167-1.519 1.008-.096 2.021-.21 2.25-.253 2.473-.468 14.872-.366 19.99.164 6.926.717 14.125 2.129 20.093 3.944 3.114.946 8.178 2.706 9.5 3.301.184.082 1.271.542 2.417 1.022 9.232 3.866 22.532 12.266 28.599 18.062.101.096.845.775 1.655 1.508 3.361 3.044 8.464 8.457 11.157 11.837.364.456.709.867.767.913.211.166 3.952 5.288 4.93 6.75 3.399 5.08 6.694 11.022 9.058 16.333a90.56 90.56 0 0 1 1.773 4.209c.854 2.155 2.135 5.702 2.483 6.875 1.559 5.259 2.292 8.124 3.051 11.916.545 2.721 1.027 5.583 1.027 6.095 0 .314-.203.322-8.125.323-9.757 0-9.708-.012-9.708 2.544 0 1.911.523 2.79 7.12 11.955.495.688 1.64 2.3 2.544 3.583 9.991 14.183 10.234 14.507 11.248 15.038.72.377 2.038.343 2.838-.072.85-.442 1.905-1.8 6.583-8.474.871-1.242 2.033-2.889 2.583-3.659s1.784-2.51 2.742-3.866c.958-1.357 2.566-3.629 3.573-5.05s2.226-3.146 2.709-3.833a59.5 59.5 0 0 1 1.015-1.417c1.906-2.311 2.202-5.466.603-6.409-.558-.33-.822-.341-7.961-.341h-7.384l-.104-.792c-.726-5.564-1.757-10.551-3.523-17.041-.916-3.367-3.096-9.653-4.249-12.25-.082-.184-.461-1.084-.843-2-1.101-2.638-3.481-7.578-4.659-9.667-2.959-5.252-2.887-5.131-4.834-8.083-2.229-3.38-5.244-7.64-5.662-8-.054-.046-.506-.609-1.005-1.25-2.782-3.577-5.652-6.722-10.279-11.264-2.758-2.707-3.841-3.695-6.381-5.82a49.878 49.878 0 0 1-1.077-.919c-.888-.834-6.462-4.981-8.768-6.524-1.804-1.206-5.788-3.723-5.894-3.723-.032 0-.763-.423-1.622-.94-3.432-2.064-9.591-5.03-14.813-7.134-15.631-6.297-33.278-9.186-50.417-8.254m5.274 32.006c-.704.282-1.367.844-1.825 1.548l-.449.69v11.084c0 12.213-.075 11.265.989 12.474 1.428 1.623 7.045 1.494 8.33-.19.961-1.261.931-.865.927-12.321-.004-12.342.055-11.968-2.077-13.108-.727-.389-5.042-.518-5.895-.177m30.726 53.038c-2.502 2.587-3.453 3.628-5.656 6.191-1.257 1.462-2.855 3.374-3.552 4.25s-1.658 2.08-2.135 2.676c-2.464 3.077-8.614 11.742-11.474 16.167a112.59 112.59 0 0 1-1.093 1.666c-.445.649-3.177 5.07-4.252 6.88-.532.896-1.029 1.667-1.104 1.714-.075.046-1.36-.95-2.855-2.213-1.494-1.264-3.054-2.559-3.465-2.878-.411-.32-.829-.657-.928-.75-3.426-3.209-19.134-14.14-23.569-16.402-.138-.07-.607-.335-1.042-.588-.435-.254-.792-.408-.792-.343 0 .76 7.155 10.862 10.858 15.33 1.843 2.224 4.984 5.957 5.398 6.415.29.322 1.232 1.373 2.093 2.335 3.691 4.13 6.592 7.149 11.968 12.456 2.622 2.589 4.805 4.708 4.851 4.709s.776-1.142 1.623-2.54a656.054 656.054 0 0 1 2.672-4.375c.623-1.008 1.646-2.733 2.274-3.833s1.497-2.6 1.932-3.333c2.3-3.88 6.664-12.181 9.111-17.334 1.429-3.008 2.554-5.435 2.554-5.511 0-.034.182-.459.405-.942.645-1.399 2.157-5.037 2.999-7.213.426-1.1.855-2.188.953-2.417.71-1.647 3.233-9.312 3.552-10.792.167-.774-.015-.682-1.326.675m-115.46 28.338c-1.912.595-2.455 1.712-2.455 5.049 0 3.237.574 4.32 2.584 4.877.958.265 20.817.258 21.875-.008 3.664-.923 3.748-8.846.105-9.934-.953-.285-21.188-.27-22.109.016m126.13 46.782c-8.555 1.543-14.71 7.374-17.063 16.164-1.074 4.014-.569 4.666 3.612 4.666 3.622 0 3.771-.097 4.846-3.148 2.96-8.402 10.649-12.083 18.452-8.835 7.615 3.17 9.02 13.842 2.862 21.733-.071.092-.358.467-.637.834-1.153 1.516-1.465 1.895-2.739 3.33-1.537 1.731-7.211 8.004-10.333 11.424-.55.603-1.301 1.43-1.667 1.837a730.514 730.514 0 0 1-3.75 4.155c-.138.147-.925 1.01-1.75 1.918l-2.5 2.748c-4.112 4.512-4.635 5.121-4.977 5.788-.393.767-.403 6.29-.013 6.847.639.912-.347.87 20.273.867 20.498-.003 19.513.04 20.201-.884.468-.63.616-4.851.205-5.837-.567-1.356.388-1.275-15.075-1.276l-13.72-.001 1.544-1.708c.849-.94 1.586-1.746 1.638-1.792s1.063-1.171 2.248-2.5 2.235-2.491 2.334-2.583 1.187-1.292 2.419-2.667 2.515-2.8 2.851-3.166c.336-.367 1.385-1.53 2.332-2.584.946-1.054 1.763-1.954 1.814-2s.73-.796 1.509-1.666c.779-.871 1.691-1.884 2.028-2.25.336-.367.935-1.079 1.332-1.584.397-.504.851-1.06 1.011-1.236.159-.175.497-.625.75-1 .254-.374.504-.718.555-.764.847-.752 3.13-5.026 4.14-7.75 3.656-9.856-.755-21.193-9.8-25.19-.513-.227-1.082-.481-1.266-.565-3.153-1.451-9.537-2.07-13.666-1.325m69.791 1.011c-.828.248-1.257.801-5.367 6.903-11.791 17.506-18.171 26.995-22.578 33.583-1.747 2.612-3.224 4.787-3.281 4.833-1.02.818-1.606 7.144-.808 8.735.637 1.273-.646 1.177 16.338 1.226l15.155.045v6.255c0 8.262-.317 7.74 4.692 7.738 4.767-.001 4.461.526 4.468-7.695l.006-6.28 3.459-.053c4.735-.074 4.878-.203 4.871-4.375-.007-3.934-.207-4.096-5.074-4.096h-3.256v-22.742c0-24.197.031-23.304-.817-23.88-.501-.341-6.799-.5-7.808-.197m-.541 31.153V260h-10.667c-5.867 0-10.667-.041-10.667-.092 0-.05.626-1.006 1.391-2.125.765-1.118 3.179-4.695 5.365-7.95 10.02-14.92 11.565-17.22 12.95-19.291.813-1.215 1.511-2.209 1.553-2.209.041 0 .075 7.125.075 15.834"/><path d="M172.17.103c-8.456.402-15.025 1.114-23.667 2.563-1.384.232-6.708 1.284-7.583 1.499-.367.09-1.342.318-2.167.506-6.427 1.47-14.525 3.895-20.75 6.216-7.151 2.666-11.68 4.624-18.167 7.855-4.795 2.389-9.802 5.13-12.5 6.844-.32.203-1.258.771-2.083 1.26-15.494 9.191-31.836 23.617-45.394 40.071-4.704 5.708-10.296 13.768-14.684 21.166-2.853 4.809-3.719 6.396-6.143 11.25-2.335 4.676-2.785 5.632-4.233 9a516.044 516.044 0 0 1-1.043 2.417c-1.825 4.164-4.735 12.376-6.409 18.083-.282.963-.586 1.977-.675 2.254-.484 1.499-2.483 9.761-2.982 12.33-.748 3.844-.856 4.428-1.182 6.416a422.254 422.254 0 0 1-.501 3c-.362 2.07-.926 6.947-1.331 11.5-1.233 13.865-.717 29.464 1.431 43.25.505 3.239 1.662 9.517 2.058 11.167C6.42 228.144 7.44 231.731 9.92 239c1.21 3.548 3.07 8.39 4.009 10.442.132.289.241.565.241.613 0 .049.217.562.484 1.142.266.579.592 1.315.725 1.636 2.975 7.18 9.658 19.268 15.2 27.492 2.576 3.824 8.378 11.708 9.081 12.342.051.045.39.458.754.916.364.459.701.871.751.917.049.046.65.758 1.335 1.583s1.479 1.763 1.764 2.084c5.649 6.354 11.765 12.479 17.072 17.097.413.359.788.694.834.744.067.074 3.423 2.88 4.75 3.972.183.151 1.008.796 1.833 1.434s1.537 1.2 1.583 1.248c.31.329 5.739 4.273 8.141 5.915C82.091 331.046 91.706 337 92.08 337c.053 0 .376.175.718.389 1.654 1.035 13.058 6.778 13.459 6.778.031 0 .568.229 1.193.51s1.286.578 1.47.659c4.346 1.938 13.851 5.398 18.75 6.825.687.2 1.437.43 1.666.51 3.031 1.066 13.631 3.535 19.25 4.483 7.341 1.239 11.667 1.761 19.75 2.381 3.435.264 19.72.264 23.25 0 8.743-.653 17.235-1.759 23.5-3.061.917-.19 2.154-.445 2.75-.565 8.235-1.664 19.375-5.032 28.084-8.49 17.795-7.066 32.971-15.996 48.331-28.441.742-.601 4.044-3.421 4.669-3.986.366-.332 1.529-1.382 2.583-2.332 3.246-2.929 9.812-9.575 12.671-12.827a79.09 79.09 0 0 1 1.338-1.5c1.11-1.002 8.724-10.622 11.015-13.916l1.564-2.25c2.907-4.184 8.412-12.952 8.412-13.398 0-.06.188-.407.418-.772.23-.364.652-1.094.936-1.621.285-.528.726-1.334.979-1.793.575-1.039 3.495-6.875 4.003-8 .207-.458.704-1.534 1.103-2.39.4-.856.728-1.582.728-1.613s.254-.606.565-1.279c2.111-4.57 6.234-16.038 7.688-21.384l.772-2.834c.695-2.55 1.152-4.396 2.042-8.25.634-2.747 1.714-8.533 2.193-11.75 2.541-17.073 2.632-36.781.244-52.666-1.232-8.196-2.719-15.383-4.518-21.834a454.006 454.006 0 0 1-.758-2.75c-4.98-18.468-15.872-40.411-28.377-57.165a453.47 453.47 0 0 0-4.029-5.246c-2.484-3.012-4.738-5.707-4.886-5.839a17.36 17.36 0 0 1-.838-.916c-3.662-4.214-10.661-11.246-15.009-15.084a81.406 81.406 0 0 1-1.61-1.446c-.227-.22-3.898-3.283-5.729-4.781-11.34-9.272-27.45-18.933-41.5-24.885a286.85 286.85 0 0 1-2.667-1.14c-2.585-1.17-12.012-4.521-15.917-5.658-.687-.201-1.437-.43-1.666-.511s-1.805-.519-3.5-.975c-11.712-3.147-21.815-4.84-35-5.864-2.081-.162-17.635-.333-20-.22m17.083 11.809c2.292.135 4.571.287 5.066.337.494.051 1.656.167 2.583.258 3.31.324 8.937 1.066 11.268 1.486 2.798.505 7.318 1.381 7.75 1.503.275.077 1.25.307 2.166.511 5.461 1.214 17.675 4.829 19.123 5.66.159.092.369.166.465.166.168 0 3.814 1.435 7.746 3.047 3.424 1.405 10.78 4.926 14.125 6.761.527.289 1.389.759 1.916 1.044 4.427 2.396 12.706 7.671 17.125 10.91 1.931 1.416 6.636 5.004 7.329 5.59.186.158.938.789 1.671 1.404a164.45 164.45 0 0 1 1.838 1.556c.277.241 1.025.888 1.662 1.438.636.55 1.609 1.412 2.162 1.916 1.84 1.675 9.821 9.662 11.042 11.05.662.752 1.377 1.555 1.588 1.784 1.515 1.64 5.2 6.107 8.042 9.75 3.851 4.937 10.691 15.444 13.398 20.584.072.137.341.625.597 1.083 15.358 27.49 22.509 61.952 19.679 94.833-1.503 17.456-5.518 33.709-12.497 50.584a68.081 68.081 0 0 1-.793 1.833c-.19.412-.49 1.088-.667 1.5-.987 2.304-4.553 9.532-5.631 11.417-.21.366-.645 1.154-.966 1.75-.75 1.388-4.939 8.338-6.081 10.087-1.572 2.409-6.337 9.188-6.616 9.413-.057.045-.844 1.058-1.75 2.25-.906 1.191-1.691 2.204-1.745 2.25-.054.045-.844.983-1.755 2.083-.912 1.1-1.894 2.262-2.184 2.583s-1.264 1.409-2.165 2.417c-14.92 16.698-35.083 31.386-55.824 40.666-.275.123-1.025.462-1.667.753-4.399 1.995-14.11 5.553-19.083 6.991a173.4 173.4 0 0 0-2.034.601c-.907.278-7.995 2.072-9.716 2.459-3.134.704-7.903 1.58-11.417 2.095-3.806.559-4.685.673-6.583.852-1.009.096-2.584.249-3.5.34-12.801 1.276-30.378.594-43.084-1.672l-2.833-.504a79.626 79.626 0 0 1-2.583-.493c-.367-.084-1.417-.314-2.334-.512-7.62-1.647-15.07-3.842-23.333-6.874-7.247-2.659-17.266-7.392-24.375-11.515a161.764 161.764 0 0 1-4.792-2.854c-4.238-2.612-11.669-7.753-14.432-9.984a92.967 92.967 0 0 0-1.076-.849c-6.275-4.87-13.91-11.919-19.593-18.09-2.548-2.766-2.873-3.138-6.712-7.66a78.632 78.632 0 0 1-1.266-1.583c-.502-.642-.954-1.205-1.004-1.25-.496-.452-5.628-7.587-7.553-10.5a293.029 293.029 0 0 0-1.777-2.671c-.423-.611-2.436-3.93-3.788-6.246-2.068-3.54-2.705-4.723-4.806-8.917-2.915-5.82-4.894-10.274-6.593-14.833-.358-.963-.724-1.9-.812-2.083-.59-1.23-3.614-10.559-4.429-13.667-2.766-10.539-4.437-19.502-5.157-27.667-.056-.641-.174-1.841-.261-2.666-.794-7.519-.792-21.473.004-29.084.091-.871.242-2.333.334-3.25.323-3.192.992-8.262 1.329-10.083.094-.504.326-1.779.517-2.833.726-4.025 1.587-7.772 3.235-14.084.293-1.124 1.378-4.782 1.754-5.916.168-.505.38-1.18.472-1.5.232-.808 1.957-5.699 2.44-6.917l1.313-3.333c4.733-12.046 14.479-29.57 20.575-37 .075-.092.807-1.067 1.627-2.167s1.529-2.038 1.576-2.083c.047-.046.533-.646 1.08-1.334 1.133-1.422 4.198-5.088 5.081-6.076a196.66 196.66 0 0 1 7.251-7.69c2.429-2.44 3.953-3.878 8.005-7.556 1.353-1.229 6.679-5.613 8-6.586.366-.27.704-.535.75-.588.045-.054.495-.395 1-.759a36.308 36.308 0 0 0 1.166-.867c1.008-.833 6.108-4.379 8.667-6.027l2.667-1.716c3.259-2.097 8.732-5.137 13.833-7.684 3.139-1.567 4.267-2.102 6.833-3.242.504-.223 1.221-.545 1.593-.714 3.609-1.64 12.653-4.964 16.991-6.244a69.02 69.02 0 0 0 1.916-.589c2.232-.782 11.855-3.121 15.75-3.828l2.75-.502c11.347-2.078 26.397-2.96 38.417-2.253m-23.5 39.927c-10.668.579-21.56 2.66-31.417 6-1.236.419-6.108 2.209-6.583 2.419-.275.122-.967.414-1.538.649-2.028.835-4.53 2-7.624 3.547-4.977 2.489-11.16 6.214-14.861 8.953-.379.28-.856.622-1.061.76-6.068 4.069-15.783 13.16-21.599 20.21-.698.847-1.418 1.716-1.599 1.932-.396.472-3.463 4.514-3.763 4.96-.116.173-.48.689-.807 1.148-4.818 6.736-10.555 17.494-13.153 24.666-.167.459-.356.909-.421 1-.339.475-2.887 8.445-3.809 11.917-1.783 6.711-2.764 12.488-3.55 20.917-.269 2.878-.269 15.788 0 18.666.357 3.831.534 5.476.707 6.584l.504 3.25c.606 3.912 2.098 10.593 3.06 13.701l.942 3.049c2.012 6.511 6.275 16.447 9.146 21.317.28.475.509.891.509.924 0 .381 4.325 7.155 7.081 11.092 3.037 4.337 7.566 9.645 12.168 14.259 3.156 3.164 4.069 4.021 7.185 6.747 13.54 11.839 33.992 22.042 51.066 25.476.413.083 1.5.303 2.417.49 11.738 2.391 25.465 3.098 28.081 1.446 3.663-2.312 2.861-8.302-1.266-9.46-.744-.209-2-.297-5.189-.364-3.922-.082-7.698-.357-10.459-.761-8.745-1.28-16.239-3.051-24.334-5.75-2.607-.869-7.837-2.762-8.5-3.075a63.473 63.473 0 0 0-1.833-.765c-8.716-3.523-20.75-12.035-29.668-20.982-2.845-2.855-3.551-3.604-5.249-5.576-.504-.585-.993-1.148-1.086-1.25a33.79 33.79 0 0 1-.834-1.018c-.365-.459-.707-.871-.76-.917-.711-.613-5.025-6.685-7.399-10.417-2.168-3.406-5.576-9.835-7.156-13.5-.158-.366-.354-.816-.436-1-1.462-3.281-2.906-7.3-4.581-12.75-3.721-12.103-5.237-29.941-3.583-42.166.093-.688.249-1.888.347-2.667.2-1.599.906-5.863 1.158-7 2.868-12.938 6.904-23.31 13.132-33.75 2.561-4.292 6.822-10.363 9.299-13.25l1.5-1.75c10.111-11.801 24.129-22.356 37.399-28.159l2-.878c1.734-.765 1.921-.843 3.417-1.426 2.562-.997 6.513-2.344 9-3.066 2.446-.71 5.987-1.592 8.833-2.2 2.41-.515 7.303-1.246 10.167-1.519 1.008-.096 2.021-.21 2.25-.253 2.473-.468 14.872-.366 19.99.164 6.926.717 14.125 2.129 20.093 3.944 3.114.946 8.178 2.706 9.5 3.301.184.082 1.271.542 2.417 1.022 9.232 3.866 22.532 12.266 28.599 18.062.101.096.845.775 1.655 1.508 3.361 3.044 8.464 8.457 11.157 11.837.364.456.709.867.767.913.211.166 3.952 5.288 4.93 6.75 3.399 5.08 6.694 11.022 9.058 16.333a90.56 90.56 0 0 1 1.773 4.209c.854 2.155 2.135 5.702 2.483 6.875 1.559 5.259 2.292 8.124 3.051 11.916.545 2.721 1.027 5.583 1.027 6.095 0 .314-.203.322-8.125.323-9.757 0-9.708-.012-9.708 2.544 0 1.911.523 2.79 7.12 11.955.495.688 1.64 2.3 2.544 3.583 9.991 14.183 10.234 14.507 11.248 15.038.72.377 2.038.343 2.838-.072.85-.442 1.905-1.8 6.583-8.474.871-1.242 2.033-2.889 2.583-3.659s1.784-2.51 2.742-3.866c.958-1.357 2.566-3.629 3.573-5.05s2.226-3.146 2.709-3.833a59.5 59.5 0 0 1 1.015-1.417c1.906-2.311 2.202-5.466.603-6.409-.558-.33-.822-.341-7.961-.341h-7.384l-.104-.792c-.726-5.564-1.757-10.551-3.523-17.041-.916-3.367-3.096-9.653-4.249-12.25-.082-.184-.461-1.084-.843-2-1.101-2.638-3.481-7.578-4.659-9.667-2.959-5.252-2.887-5.131-4.834-8.083-2.229-3.38-5.244-7.64-5.662-8-.054-.046-.506-.609-1.005-1.25-2.782-3.577-5.652-6.722-10.279-11.264-2.758-2.707-3.841-3.695-6.381-5.82a49.878 49.878 0 0 1-1.077-.919c-.888-.834-6.462-4.981-8.768-6.524-1.804-1.206-5.788-3.723-5.894-3.723-.032 0-.763-.423-1.622-.94-3.432-2.064-9.591-5.03-14.813-7.134-15.631-6.297-33.278-9.186-50.417-8.254m5.274 32.006c-.704.282-1.367.844-1.825 1.548l-.449.69v11.084c0 12.213-.075 11.265.989 12.474 1.428 1.623 7.045 1.494 8.33-.19.961-1.261.931-.865.927-12.321-.004-12.342.055-11.968-2.077-13.108-.727-.389-5.042-.518-5.895-.177m30.726 53.038c-2.502 2.587-3.453 3.628-5.656 6.191-1.257 1.462-2.855 3.374-3.552 4.25s-1.658 2.08-2.135 2.676c-2.464 3.077-8.614 11.742-11.474 16.167a112.59 112.59 0 0 1-1.093 1.666c-.445.649-3.177 5.07-4.252 6.88-.532.896-1.029 1.667-1.104 1.714-.075.046-1.36-.95-2.855-2.213-1.494-1.264-3.054-2.559-3.465-2.878-.411-.32-.829-.657-.928-.75-3.426-3.209-19.134-14.14-23.569-16.402-.138-.07-.607-.335-1.042-.588-.435-.254-.792-.408-.792-.343 0 .76 7.155 10.862 10.858 15.33 1.843 2.224 4.984 5.957 5.398 6.415.29.322 1.232 1.373 2.093 2.335 3.691 4.13 6.592 7.149 11.968 12.456 2.622 2.589 4.805 4.708 4.851 4.709s.776-1.142 1.623-2.54a656.054 656.054 0 0 1 2.672-4.375c.623-1.008 1.646-2.733 2.274-3.833s1.497-2.6 1.932-3.333c2.3-3.88 6.664-12.181 9.111-17.334 1.429-3.008 2.554-5.435 2.554-5.511 0-.034.182-.459.405-.942.645-1.399 2.157-5.037 2.999-7.213.426-1.1.855-2.188.953-2.417.71-1.647 3.233-9.312 3.552-10.792.167-.774-.015-.682-1.326.675m-115.46 28.338c-1.912.595-2.455 1.712-2.455 5.049 0 3.237.574 4.32 2.584 4.877.958.265 20.817.258 21.875-.008 3.664-.923 3.748-8.846.105-9.934-.953-.285-21.188-.27-22.109.016m126.13 46.782c-8.555 1.543-14.71 7.374-17.063 16.164-1.074 4.014-.569 4.666 3.612 4.666 3.622 0 3.771-.097 4.846-3.148 2.96-8.402 10.649-12.083 18.452-8.835 7.615 3.17 9.02 13.842 2.862 21.733-.071.092-.358.467-.637.834-1.153 1.516-1.465 1.895-2.739 3.33-1.537 1.731-7.211 8.004-10.333 11.424-.55.603-1.301 1.43-1.667 1.837a730.514 730.514 0 0 1-3.75 4.155c-.138.147-.925 1.01-1.75 1.918l-2.5 2.748c-4.112 4.512-4.635 5.121-4.977 5.788-.393.767-.403 6.29-.013 6.847.639.912-.347.87 20.273.867 20.498-.003 19.513.04 20.201-.884.468-.63.616-4.851.205-5.837-.567-1.356.388-1.275-15.075-1.276l-13.72-.001 1.544-1.708c.849-.94 1.586-1.746 1.638-1.792s1.063-1.171 2.248-2.5 2.235-2.491 2.334-2.583 1.187-1.292 2.419-2.667 2.515-2.8 2.851-3.166c.336-.367 1.385-1.53 2.332-2.584.946-1.054 1.763-1.954 1.814-2s.73-.796 1.509-1.666c.779-.871 1.691-1.884 2.028-2.25.336-.367.935-1.079 1.332-1.584.397-.504.851-1.06 1.011-1.236.159-.175.497-.625.75-1 .254-.374.504-.718.555-.764.847-.752 3.13-5.026 4.14-7.75 3.656-9.856-.755-21.193-9.8-25.19-.513-.227-1.082-.481-1.266-.565-3.153-1.451-9.537-2.07-13.666-1.325m69.791 1.011c-.828.248-1.257.801-5.367 6.903-11.791 17.506-18.171 26.995-22.578 33.583-1.747 2.612-3.224 4.787-3.281 4.833-1.02.818-1.606 7.144-.808 8.735.637 1.273-.646 1.177 16.338 1.226l15.155.045v6.255c0 8.262-.317 7.74 4.692 7.738 4.767-.001 4.461.526 4.468-7.695l.006-6.28 3.459-.053c4.735-.074 4.878-.203 4.871-4.375-.007-3.934-.207-4.096-5.074-4.096h-3.256v-22.742c0-24.197.031-23.304-.817-23.88-.501-.341-6.799-.5-7.808-.197m-.541 31.153V260h-10.667c-5.867 0-10.667-.041-10.667-.092 0-.05.626-1.006 1.391-2.125.765-1.118 3.179-4.695 5.365-7.95 10.02-14.92 11.565-17.22 12.95-19.291.813-1.215 1.511-2.209 1.553-2.209.041 0 .075 7.125.075 15.834"/></g></svg>