<svg enable-background="new 0 0 36 36" viewBox="0 0 36 36" xmlns="http://www.w3.org/2000/svg" width="{{ .width }}" height="{{ .height }}">
    <path d="m1.7 18.9c-.6 0-1-.4-1-1v-5.6c0-3 2.4-5.4 5.4-5.4.6 0 1 .4 1 1s-.4 1-1 1c-1.9 0-3.4 1.5-3.4 3.4v5.6c0 .6-.5 1-1 1z"
          fill="{{ .fill }}"/>
    <path d="m27.7 31.9h-22c-2.8 0-5-2.2-5-5v-9.5c0-.6.4-1 1-1s1 .4 1 1v9.5c0 1.7 1.3 3 3 3h22c1.7 0 3-1.3 3-3v-2.5c0-.6.4-1 1-1s1 .4 1 1v2.5c0 2.8-2.3 5-5 5z"
          fill="{{ .fill }}"/>
    <path d="m26.2 21c-.4 0-.7-.1-1-.2-.6-.3-1.5-1-1.5-3v-1.9c0-.6.4-1 1-1s1 .4 1 1v1.9c0 .8.2 1.1.3 1.2s.5 0 1.1-.5l5.1-4.2c.6-.5.9-1.1.9-1.7 0-.6-.3-1.3-.9-1.7l-5.1-4.2c-.6-.5-1-.5-1.1-.5-.1.1-.3.4-.3 1.2v1.5c0 .6-.4 1-1 1s-1-.4-1-1v-1.6c0-2 .9-2.7 1.5-3 .6-.2 1.8-.5 3.3.7l5.1 4.2c1.1.9 1.7 2 1.7 3.3s-.6 2.4-1.7 3.3l-5.1 4.2c-.9.7-1.7 1-2.3 1z"
          fill="{{ .fill }}"/>
    <path d="m9.3 25.2c-.6 0-1-.4-1-1v-1.3c0-13.3 8.8-15 16.5-15 .6 0 1 .4 1 1s-.4 1-1 1c-10.3 0-14.5 3.8-14.5 13v1.3c0 .6-.4 1-1 1z"
          fill="{{ .fill }}"/>
    <path d="m15.9 20.9c-.1 0-.2 0-.3-.1-.5-.2-.8-.8-.6-1.3 1.6-4.7 7.2-4.7 9.5-4.7.6 0 1 .4 1 1s-.4 1-1 1c-2.1 0-6.5 0-7.7 3.3-.1.5-.5.8-.9.8z"
          fill="{{ .fill }}"/>
</svg>
