<svg viewBox="0 0 400 399.09" width="400" height="399.093" xmlns="http://www.w3.org/2000/svg"><g fill="#fff" fill-rule="evenodd"><path d="M190.58.102c-6.887.256-17.916 1.462-25.583 2.798-3.423.597-7.747 1.469-10.5 2.119-3.146.743-4.954 1.187-5.667 1.392-.412.119-1.2.336-1.75.483-3.565.951-5.294 1.48-10.666 3.262-6.112 2.026-16.427 5.994-17.334 6.667-.091.069-.466.241-.833.383-3.214 1.248-15.214 7.359-18.173 9.253-.18.116-.439.261-.577.323-.502.226-5.265 3.099-5.781 3.486-.291.219-.57.399-.619.399-.157 0-5.735 3.713-8.35 5.558-3.068 2.165-7.026 5.1-8.576 6.358-.338.275-.941.763-1.339 1.084-9.252 7.46-16.686 14.539-24.919 23.729-.092.103-.617.712-1.167 1.354A63.092 63.092 0 0 1 47.66 70c-.092.088-1.575 1.858-1.996 2.383-.138.172-.389.474-.558.673-1.211 1.421-4.199 5.261-5.858 7.527a74.286 74.286 0 0 1-1.309 1.756c-1.011 1.225-6.076 8.758-8.045 11.965-.356.58-.798 1.292-.982 1.583-.433.683-2.101 3.5-2.583 4.363l-1.076 1.917c-7.629 13.554-13.946 28.941-18.166 44.25-.253.916-.558 2.004-.677 2.416-.202.698-.871 3.434-1.263 5.167-.093.412-.238 1.012-.321 1.333s-.302 1.352-.487 2.292c-.186.939-.408 2.027-.494 2.416-1.309 5.904-2.606 15.372-3.35 24.453-.653 7.974-.654 22.202-.002 29.967.611 7.279 1.253 12.615 2.181 18.122.276 1.639.45 2.609.987 5.5.085.459.39 1.921.676 3.25.767 3.555.994 4.556 1.476 6.5.471 1.899.663 2.6 2.189 8 4.217 14.926 12.608 33.922 20.811 47.115.239.384.726 1.172 1.083 1.75 3.923 6.352 9.434 14.131 14.018 19.786 1.415 1.747 1.68 2.07 1.833 2.245.092.104.54.639.996 1.189.457.549.869 1.036.917 1.082s.537.608 1.087 1.249a119.45 119.45 0 0 0 2.171 2.483c.094.101 1.03 1.122 2.079 2.268 3.122 3.408 9.022 9.255 12.253 12.141.548.49 1.297 1.167 1.664 1.504 1.092 1.005 2.866 2.525 5.166 4.427l2.501 2.068c.184.152.671.539 1.083.86s.899.712 1.082.869c.583.498 4.721 3.572 7.06 5.245 1.862 1.331 8.495 5.788 9.382 6.303.158.091 1.211.735 2.34 1.429 14.043 8.639 28.037 14.944 45.636 20.563 3.321 1.06 9.557 2.715 13.833 3.67l2.25.503c.642.143 1.767.375 2.5.516s1.821.359 2.417.486c.595.126 1.608.312 2.25.413.641.101 1.804.29 2.583.42 4.513.751 9.6 1.411 13.417 1.742 1.1.095 2.862.249 3.916.342 4.276.377 10.827.536 18.334.447 9.397-.113 15.012-.512 24-1.707 4.765-.633 11.126-1.743 15.25-2.66.641-.143 1.654-.367 2.25-.497 1.451-.32 8.203-2.028 9.25-2.342.458-.137 1.245-.369 1.75-.515.504-.147 1.104-.326 1.333-.398s1.092-.335 1.917-.583c5.278-1.589 11.882-3.974 18.083-6.53 2.15-.886 2.703-1.127 5.167-2.25l1.833-.836c2.282-1.039 8.807-4.329 11.163-5.628 1.498-.826 2.747-1.502 2.774-1.502.028 0 .598-.326 1.265-.724.668-.398 2.152-1.275 3.298-1.948 1.146-.674 2.308-1.38 2.583-1.569s.63-.418.788-.509c2.761-1.593 13.666-9.11 14.629-10.084.046-.047.533-.417 1.083-.822.55-.406 1.038-.783 1.084-.838.045-.054.758-.621 1.583-1.259 1.671-1.293 5.408-4.356 5.667-4.644.091-.103.691-.636 1.333-1.186 1.394-1.193 1.175-1 3.105-2.749 4.959-4.495 10.939-10.548 15.149-15.335a70.59 70.59 0 0 1 1.341-1.5c.086-.076 3.615-4.323 4.915-5.916.299-.367 1.04-1.305 1.646-2.084L358.72 320c2.151-2.763 7.08-9.886 10.031-14.5 3.331-5.207 8.358-14.378 11.192-20.417 1.67-3.557 2.028-4.348 2.639-5.833.34-.825.674-1.575.743-1.667.116-.156 1.798-4.323 2.725-6.75.228-.596.603-1.571.834-2.166 1.232-3.175 4.227-12.584 5.385-16.917.147-.55.365-1.338.484-1.75s.308-1.162.419-1.667c.111-.504.298-1.254.415-1.666.117-.413.256-.975.308-1.25s.215-1.025.361-1.667c.389-1.714 1.063-4.876 1.243-5.833.085-.459.269-1.434.408-2.167s.335-1.895.436-2.581c.1-.686.206-1.286.235-1.333.028-.047.175-.986.325-2.086.151-1.1.378-2.713.505-3.583.416-2.849.973-8.383 1.369-13.584.416-5.463.416-20.689.001-26.166-.376-4.966-.926-10.412-1.371-13.584-.604-4.304-.752-5.258-1.249-8.083-.69-3.918-.722-4.084-1.334-6.917-.771-3.572-.996-4.563-1.477-6.5a153.332 153.332 0 0 0-1.122-4.25c-1.631-5.966-4.141-13.706-5.971-18.416-1.364-3.512-2.491-6.303-2.927-7.25a74.889 74.889 0 0 1-.913-2.084c-.44-1.054-.591-1.391-1.798-4-1.98-4.279-5.827-11.746-7.061-13.705-.215-.342-.391-.66-.391-.708 0-.094-3.784-6.463-4.409-7.42-4.163-6.381-7.79-11.625-10.028-14.5-2.807-3.607-6.071-7.629-7.911-9.75-3.889-4.481-6.018-6.77-9.994-10.743-2.19-2.188-5.681-5.527-7.348-7.028-3.773-3.396-8.34-7.225-11.477-9.622a222.145 222.145 0 0 1-1.833-1.409c-2.685-2.141-9.91-7.154-13.948-9.679-.716-.447-1.565-.982-1.886-1.188-.866-.555-3.678-2.225-5.666-3.366a228.306 228.306 0 0 0-5.25-2.917c-1.71-.929-9.603-4.819-11.25-5.544a193.95 193.95 0 0 1-2.417-1.084c-1.032-.475-5.672-2.388-7.583-3.125-.596-.23-1.459-.57-1.917-.754-1.897-.765-9.936-3.527-11.75-4.038-.413-.116-1.5-.438-2.417-.714-.916-.276-2.416-.705-3.333-.953s-2.004-.55-2.417-.672c-.742-.22-1.505-.406-4.416-1.077a410.65 410.65 0 0 1-2.5-.586c-1.327-.318-4.113-.897-5.225-1.087-.49-.083-1.015-.191-1.166-.239-.302-.095-5.574-.981-7.443-1.251l-2.833-.412c-2.689-.392-7.743-.921-13-1.362-2.996-.251-18.925-.456-23.167-.298m21.584 13.205c1.146.102 3.058.266 4.25.364 10.313.847 25.925 3.74 34.583 6.408.412.127 1.762.542 3 .921 3.63 1.113 8.149 2.647 11.083 3.763.642.244 1.438.543 1.769.665.99.364 3.62 1.436 4.859 1.981.345.151 1.47.637 2.5 1.078 7.491 3.212 17.185 8.308 23.956 12.593a203.922 203.922 0 0 1 10.75 7.26c1.833 1.322 3.483 2.53 3.666 2.684.184.155.971.777 1.75 1.384.779.606 1.529 1.194 1.667 1.306.137.112.625.503 1.083.87.458.366.919.741 1.023.833.104.091.554.474 1 .85 6.296 5.309 13.076 11.762 17.736 16.879.866.951 1.691 1.851 1.834 2 .782.816 4.703 5.464 6.491 7.693.321.401.773.957 1.005 1.236.231.28.756.958 1.166 1.508.409.55.789 1.038.843 1.084.195.166 4.132 5.641 5.752 8 1.327 1.932 3.158 4.76 5.072 7.833.321.515 3.292 5.619 3.784 6.5 1.484 2.659 4.809 9.176 5.951 11.667.4.87.964 2.102 1.254 2.736 1.036 2.264 3.284 7.762 4.655 11.386 1.515 4.002 4.044 11.898 5.086 15.878 1.016 3.884 1.653 6.575 2.682 11.333.449 2.076 1.18 6.22 1.749 9.917 2.475 16.08 2.622 35.287.401 52.25-.534 4.079-1.488 9.771-2.15 12.833-1.029 4.758-1.666 7.449-2.682 11.333-1.042 3.98-3.571 11.876-5.086 15.878-1.554 4.106-3.793 9.542-4.916 11.933-.403.858-.733 1.592-.733 1.631 0 .562-5.72 11.45-8.392 15.975-3.587 6.072-6.097 9.886-10.588 16.083-.963 1.329-1.793 2.454-1.844 2.5-.052.046-.431.534-.843 1.084s-.788 1.037-.837 1.083a18.61 18.61 0 0 0-.663.833c-.316.413-.614.788-.662.834-.049.045-.538.646-1.088 1.333-.549.688-1.037 1.287-1.083 1.333s-1.02 1.171-2.164 2.5a501.958 501.958 0 0 1-2.583 2.982c-3.741 4.208-11.823 12.177-15.586 15.37-.688.583-1.288 1.1-1.334 1.149-.466.493-5.177 4.34-8.166 6.669-5.712 4.45-16.241 11.437-21.579 14.32-.731.395-1.481.817-1.667.938-.706.459-3.984 2.157-7.838 4.06-5.088 2.513-5.715 2.8-10.583 4.848-1.788.752-3.719 1.545-4.293 1.763l-2.166.823c-4.998 1.899-12.132 4.181-17.124 5.477-1.284.333-2.709.711-3.167.84-3.904 1.101-15.244 3.246-20.667 3.909-4.526.553-5.699.681-7.75.845-1.237.099-3.187.262-4.333.363-3.141.278-18.504.384-21.997.153-11.704-.775-18.177-1.582-27.336-3.411-8.64-1.724-20.384-5.03-27-7.6a31.483 31.483 0 0 0-1.334-.489c-3.157-1.007-12.375-5.022-18.083-7.877-5.637-2.818-9.847-5.179-15.292-8.575l-1.25-.78c-1.817-1.133-5.427-3.565-7.708-5.194-5.145-3.675-4.804-3.419-9.35-7.024-1.064-.843-2.039-1.633-2.167-1.755s-.646-.558-1.15-.968-1.179-.982-1.5-1.27-1.033-.919-1.583-1.402c-4.937-4.334-13.065-12.457-16.738-16.729-.386-.448-.79-.907-.898-1.019a15.89 15.89 0 0 1-.533-.602 769.803 769.803 0 0 1-3.865-4.644l-1.666-2.105a152.533 152.533 0 0 1-3.133-4.146c-.917-1.262-1.742-2.38-1.834-2.485-.34-.39-5.416-7.932-5.416-8.048 0-.045-.213-.393-.473-.775-2.887-4.234-9.853-17.035-11.897-21.861a109.658 109.658 0 0 0-1.584-3.583c-1.344-2.882-5.66-14.297-6.207-16.417a27.747 27.747 0 0 0-.478-1.517c-1.34-3.912-3.574-12.533-4.767-18.399-.159-.78-.362-1.75-.452-2.157-.231-1.047-.951-5.284-1.234-7.26-.751-5.237-.821-5.815-1.318-10.833-.56-5.662-.674-8.616-.674-17.584 0-8.963.093-11.325.676-17.25.487-4.959.563-5.583 1.316-10.833.273-1.908.981-6.061 1.264-7.417l.418-2c1.341-6.415 3.25-13.802 4.675-18.09.242-.73.499-1.551.571-1.826s.556-1.7 1.077-3.167 1.01-2.854 1.088-3.083c.332-.983 1.933-5.144 2.339-6.084.079-.183.493-1.196.92-2.25.426-1.054.829-1.991.895-2.083.067-.092.293-.579.503-1.083 1.029-2.472 4.887-10.383 6.381-13.084.406-.733.965-1.746 1.242-2.25 2.195-3.996 4.751-8.159 7.931-12.916 2.593-3.879 3.017-4.501 3.12-4.584.057-.046.472-.608.922-1.25.45-.641.858-1.204.907-1.25.05-.046.734-.945 1.521-2 3.006-4.026 7.04-8.88 10.875-13.083 3.016-3.305 10.054-10.255 13.84-13.667.102-.093.711-.618 1.353-1.167.641-.55 1.241-1.079 1.333-1.176.317-.337 1.923-1.657 5.417-4.456 4.861-3.894 12.617-9.357 17.462-12.298l2.417-1.467c4.747-2.881 12.01-6.771 16.621-8.902a205.25 205.25 0 0 1 6.5-2.904c2.619-1.125 6.566-2.698 7.666-3.055.23-.075 1.054-.373 1.834-.664 4.529-1.689 12.101-4.033 17-5.262 11.671-2.928 22.819-4.691 34.166-5.402 1.605-.101 3.105-.208 3.334-.239 1.027-.138 19.633.049 21.5.216m1.666 60.037c-10.014.752-19.043 3.019-28 7.032-1.93.865-5.468 2.645-6.517 3.279-.311.188-.679.393-.816.456-1.124.51-8.953 5.717-9.333 6.207-.046.059-.421.365-.834.68-3.022 2.31-7.64 6.596-10.333 9.59-3.518 3.91-5.014 5.816-7.928 10.1l-2.113 3.105-1.847-.653c-26.252-9.285-55.366 7.399-61.7 35.36-.563 2.487-.523 2.396-1.199 2.705-2.334 1.065-7.385 4.316-10.213 6.574-3.706 2.959-7.142 6.298-9.919 9.638-.457.55-.876 1.037-.93 1.083-.206.172-3.601 4.954-4.143 5.833-.31.505-.815 1.307-1.122 1.783-7.882 12.225-11.503 31.654-8.785 47.134.372 2.118.723 3.902.902 4.583.084.321.274 1.109.422 1.75.479 2.074 2.954 9.242 3.395 9.834.068.091.225.429.347.75 1.055 2.758 6.225 11.7 7.323 12.666.053.046.426.534.831 1.084.714.97 1.732 2.205 3.087 3.75 2.314 2.635 6.583 6.598 9.262 8.598 3.851 2.873 5.984 4.207 10.287 6.429 2.672 1.379 2.435 1.377 2.704.014.681-3.46 2.117-6.509 4.811-10.216.204-.28.127-.351-.909-.835-7.243-3.386-14.464-9.352-19.455-16.074a284.256 284.256 0 0 0-1.243-1.666c-.072-.092-.65-.992-1.286-2-8.338-13.226-10.654-28.931-6.66-45.167.963-3.913 3.554-9.999 5.961-14 .905-1.503 3.045-4.708 3.283-4.917.053-.046.355-.421.672-.833s.653-.832.746-.931c.093-.1.581-.68 1.086-1.289 1.01-1.22 3.9-4.098 5.333-5.31 1.816-1.536 2.102-1.765 3.333-2.667 2.869-2.102 5.678-3.728 9.834-5.691 2.198-1.039 3.496-2.684 3.827-4.852 1.502-9.833 4.783-16.73 10.794-22.69 10.969-10.875 25.946-13.206 39.959-6.218 4.551 2.269 8.522.986 9.924-3.205.195-.585.429-1.139.519-1.23.107-.11.121-.057.042.152-.085.223-.063.283.073.199.107-.067.195-.192.195-.28 0-.321 2.914-4.854 4.653-7.238 6.704-9.192 15.026-16.44 25.02-21.792.324-.173.884-.722 1.245-1.22.564-.778.732-.905 1.202-.905.723 0 .699.056-.326.746-1.103.743-.831.753.646.023 17.614-8.703 40.214-8.842 58.458-.358 1.572.731 2.416.945 1.242.315-.502-.27-.521-.305-.191-.356.257-.04.589.169 1.118.706.414.42 1.075.914 1.468 1.098 1.038.486 1.782.895 2.943 1.621 10.982 6.861 18.633 14.497 25.507 25.455 2.337 3.727 5.496 10.519 7.015 15.084.816 2.45 1.675 5.554 2.331 8.416.707 3.088 1.403 7.948 1.588 11.084.437 7.438 1.091 8.369 7.016 9.994 14.578 3.999 27.601 15.798 32.742 29.667.77 2.078 1.314 3.677 1.789 5.255.885 2.943 1.063 3.65 1.132 4.5.037.459.148 1.209.247 1.667.867 4.025.824 12.345-.091 17.543-.15.848-.224 1.621-.165 1.716.058.095.024.271-.076.392s-.262.661-.359 1.201c-.186 1.029-1.673 5.595-2.519 7.731-1.351 3.414-4.601 9.195-6.532 11.62-2.59 3.252-5.322 6.166-7.386 7.88a41.007 41.007 0 0 0-1.299 1.109c-.505.497-4.018 2.947-5.585 3.892-7.359 4.445-14.705 6.496-24.254 6.772l-3.912.113v12.633l4.791-.064c2.636-.036 5.355-.152 6.042-.258l2.417-.372c22.737-3.5 42.21-20.573 49.226-43.158.385-1.238.777-2.494.873-2.792.095-.299.125-.711.067-.917-.071-.254-.056-.303.049-.153.111.16.181.069.255-.333.056-.305.219-1.08.363-1.722 2.862-12.747 1.799-25.946-3.133-38.916-2.81-7.388-8.285-15.666-14.357-21.706-2.778-2.762-7.882-6.923-9.845-8.024a82.664 82.664 0 0 1-1.748-1.042c-4.03-2.458-7.594-4.114-12.36-5.743l-.61-.208-.186-1.68c-.237-2.138-.637-4.969-.944-6.681-.53-2.955-.611-3.369-.827-4.25l-.466-1.916c-1.038-4.304-4.018-13.177-4.758-14.164-.07-.093-.226-.432-.347-.753-2.217-5.883-8.784-16.175-14.55-22.805-.701-.806-6.704-6.806-7.452-7.449-3.872-3.327-7.194-5.838-10.542-7.969l-1.833-1.168c-1.446-.922-3.056-1.776-3.35-1.776-.151 0-.275-.078-.275-.173 0-.2-4.509-2.447-6.944-3.46-4.783-1.992-8.227-3.129-12.89-4.257-2.822-.683-6.026-1.285-8.583-1.613-4.649-.596-12.03-.815-16.417-.486m46.489 11.06c.162.194.136.22-.146.147-.188-.05-.343-.156-.343-.237 0-.225.269-.176.489.09m-33.322 35.929c-.222.144-.222.162 0 .162.137 0 .362-.073.5-.162.222-.143.222-.161 0-.161-.138 0-.363.072-.5.161m172.44 14.778c-.061.061-.106.267-.1.458.01.32.023.316.17-.052.163-.408.13-.605-.07-.406m-.361 1.222c-.062.197-.076.396-.03.442s.134-.078.197-.275.076-.396.03-.442c-.045-.046-.134.078-.197.275m-53.342 65.371c.46.657.328 1.071-.158.493-.429-.51-.535-.864-.259-.864.086 0 .274.167.417.371m-11.013 2.617c-.086.43-.143.492-.257.287-.182-.323.012-1.192.219-.985.081.081.098.395.038.698m.192 1.958l-.123.471-.154-.406c-.193-.505-.048-.983.217-.717.109.109.133.37.06.652m-67.42 9.658c-5.363.485-11.352 3.206-14.687 6.672-7.844 8.153-3.8 19.612 8.437 23.913 1.008.354 1.965.644 2.125.644.277.001.292 2.088.292 41.501v41.5h14.333V321.5h11.833V311h-11.833v-4h11.833v-10.5h-11.833v-49.27l.875-.223c8.123-2.072 13.892-8.351 13.864-15.09-.041-9.953-11.523-17.223-25.239-15.98m-73.833 8.217c-2.822.415-5.574 1.692-7.959 3.694-.664.558-1.209 1.064-1.209 1.125-.001.061-.257.38-.57.709-3.487 3.679-4.631 10.677-2.583 15.794 4.867 12.155 21.446 13.69 28.163 2.607 1.143-1.885 1.681-3.31 2.077-5.5 1.927-10.654-7.167-20.007-17.919-18.429m80.5.255c.779.13 1.679.319 2 .42.32.101.845.261 1.166.357.905.268 3.527 1.597 4.084 2.069 3.544 3.008 3.948 5.226 1.468 8.061-5.391 6.163-20.218 5.746-24.726-.695-3.93-5.615 5.918-11.897 16.008-10.212m-158.17.696c-3.02.433-3.787.632-5.547 1.446-10.018 4.628-12.254 18.118-4.261 25.713 7.062 6.71 18.272 5.621 23.886-2.321 3.291-4.655 3.682-11.972.893-16.693a42.32 42.32 0 0 1-.64-1.132c-2.257-4.139-9.534-7.7-14.331-7.013m37.583 8.302c-12.567 2.528-17.064 18.217-7.736 26.992 4.769 4.486 11.662 5.57 17.571 2.763 11.673-5.547 12.097-21.953.73-28.207-2.805-1.543-7.308-2.202-10.565-1.548m33.667 23.256c-4.329.425-8.499 2.369-11.801 5.503l-1.36 1.29.997.511c3.108 1.593 6.338 4.491 8.869 7.959 1.229 1.683 2.913 5.469 3.532 7.937.549 2.191.644 3.532.774 10.922l.121 6.868.684.087c6.847.87 16.725.419 23.517-1.074 4.497-.988 9.501-2.74 10.122-3.543.341-.442.441-15.429.123-18.421-.945-8.892-7.288-15.955-15.885-17.691-1.7-.343-16.989-.613-19.693-.348m-79.25 1.115c-9.311 1.474-15.754 7.545-17.445 16.436-.368 1.939-.538 19.71-.192 20.168.129.17.866.472 1.723.706l3.081.843c.87.24 2.033.544 2.583.677.55.132 1.412.344 1.917.47 7.03 1.759 17.995 2.649 24.375 1.98l.958-.101v-6.325c0-6.504.153-9.453.603-11.632 1.455-7.04 5.084-12.214 11.403-16.256a54.081 54.081 0 0 0 1.322-.862c.146-.123-1.905-1.887-3.246-2.792-2.679-1.808-5.29-2.799-8.377-3.182-1.811-.225-17.421-.333-18.705-.13m38.417 8.213c-7.228 1.332-13.261 6.473-15.561 13.259-.987 2.912-1.189 5.484-1.189 15.121v7.955l.375.228c.206.125.825.352 1.375.503.55.152 1.934.541 3.075.865 14.338 4.069 29.904 4.446 42.175 1.02 2.588-.722 6.273-2.218 6.683-2.712.206-.249.248-16.707.048-18.813-.776-8.168-7.443-15.476-15.759-17.275-2.479-.537-18.512-.651-21.222-.151m78.67.967c1.218 2.908 1.912 6.121 1.914 8.875.001.963.049 2.144.107 2.625l.105.875h32.287v-12.666h-17.268c-16.381 0-17.261.015-17.145.291"/><path d="M190.58.102c-6.887.256-17.916 1.462-25.583 2.798-3.423.597-7.747 1.469-10.5 2.119-3.146.743-4.954 1.187-5.667 1.392-.412.119-1.2.336-1.75.483-3.565.951-5.294 1.48-10.666 3.262-6.112 2.026-16.427 5.994-17.334 6.667-.091.069-.466.241-.833.383-3.214 1.248-15.214 7.359-18.173 9.253-.18.116-.439.261-.577.323-.502.226-5.265 3.099-5.781 3.486-.291.219-.57.399-.619.399-.157 0-5.735 3.713-8.35 5.558-3.068 2.165-7.026 5.1-8.576 6.358-.338.275-.941.763-1.339 1.084-9.252 7.46-16.686 14.539-24.919 23.729-.092.103-.617.712-1.167 1.354A63.092 63.092 0 0 1 47.66 70c-.092.088-1.575 1.858-1.996 2.383-.138.172-.389.474-.558.673-1.211 1.421-4.199 5.261-5.858 7.527a74.286 74.286 0 0 1-1.309 1.756c-1.011 1.225-6.076 8.758-8.045 11.965-.356.58-.798 1.292-.982 1.583-.433.683-2.101 3.5-2.583 4.363l-1.076 1.917c-7.629 13.554-13.946 28.941-18.166 44.25-.253.916-.558 2.004-.677 2.416-.202.698-.871 3.434-1.263 5.167-.093.412-.238 1.012-.321 1.333s-.302 1.352-.487 2.292c-.186.939-.408 2.027-.494 2.416-1.309 5.904-2.606 15.372-3.35 24.453-.653 7.974-.654 22.202-.002 29.967.611 7.279 1.253 12.615 2.181 18.122.276 1.639.45 2.609.987 5.5.085.459.39 1.921.676 3.25.767 3.555.994 4.556 1.476 6.5.471 1.899.663 2.6 2.189 8 4.217 14.926 12.608 33.922 20.811 47.115.239.384.726 1.172 1.083 1.75 3.923 6.352 9.434 14.131 14.018 19.786 1.415 1.747 1.68 2.07 1.833 2.245.092.104.54.639.996 1.189.457.549.869 1.036.917 1.082s.537.608 1.087 1.249a119.45 119.45 0 0 0 2.171 2.483c.094.101 1.03 1.122 2.079 2.268 3.122 3.408 9.022 9.255 12.253 12.141.548.49 1.297 1.167 1.664 1.504 1.092 1.005 2.866 2.525 5.166 4.427l2.501 2.068c.184.152.671.539 1.083.86s.899.712 1.082.869c.583.498 4.721 3.572 7.06 5.245 1.862 1.331 8.495 5.788 9.382 6.303.158.091 1.211.735 2.34 1.429 14.043 8.639 28.037 14.944 45.636 20.563 3.321 1.06 9.557 2.715 13.833 3.67l2.25.503c.642.143 1.767.375 2.5.516s1.821.359 2.417.486c.595.126 1.608.312 2.25.413.641.101 1.804.29 2.583.42 4.513.751 9.6 1.411 13.417 1.742 1.1.095 2.862.249 3.916.342 4.276.377 10.827.536 18.334.447 9.397-.113 15.012-.512 24-1.707 4.765-.633 11.126-1.743 15.25-2.66.641-.143 1.654-.367 2.25-.497 1.451-.32 8.203-2.028 9.25-2.342.458-.137 1.245-.369 1.75-.515.504-.147 1.104-.326 1.333-.398s1.092-.335 1.917-.583c5.278-1.589 11.882-3.974 18.083-6.53 2.15-.886 2.703-1.127 5.167-2.25l1.833-.836c2.282-1.039 8.807-4.329 11.163-5.628 1.498-.826 2.747-1.502 2.774-1.502.028 0 .598-.326 1.265-.724.668-.398 2.152-1.275 3.298-1.948 1.146-.674 2.308-1.38 2.583-1.569s.63-.418.788-.509c2.761-1.593 13.666-9.11 14.629-10.084.046-.047.533-.417 1.083-.822.55-.406 1.038-.783 1.084-.838.045-.054.758-.621 1.583-1.259 1.671-1.293 5.408-4.356 5.667-4.644.091-.103.691-.636 1.333-1.186 1.394-1.193 1.175-1 3.105-2.749 4.959-4.495 10.939-10.548 15.149-15.335a70.59 70.59 0 0 1 1.341-1.5c.086-.076 3.615-4.323 4.915-5.916.299-.367 1.04-1.305 1.646-2.084L358.72 320c2.151-2.763 7.08-9.886 10.031-14.5 3.331-5.207 8.358-14.378 11.192-20.417 1.67-3.557 2.028-4.348 2.639-5.833.34-.825.674-1.575.743-1.667.116-.156 1.798-4.323 2.725-6.75.228-.596.603-1.571.834-2.166 1.232-3.175 4.227-12.584 5.385-16.917.147-.55.365-1.338.484-1.75s.308-1.162.419-1.667c.111-.504.298-1.254.415-1.666.117-.413.256-.975.308-1.25s.215-1.025.361-1.667c.389-1.714 1.063-4.876 1.243-5.833.085-.459.269-1.434.408-2.167s.335-1.895.436-2.581c.1-.686.206-1.286.235-1.333.028-.047.175-.986.325-2.086.151-1.1.378-2.713.505-3.583.416-2.849.973-8.383 1.369-13.584.416-5.463.416-20.689.001-26.166-.376-4.966-.926-10.412-1.371-13.584-.604-4.304-.752-5.258-1.249-8.083-.69-3.918-.722-4.084-1.334-6.917-.771-3.572-.996-4.563-1.477-6.5a153.332 153.332 0 0 0-1.122-4.25c-1.631-5.966-4.141-13.706-5.971-18.416-1.364-3.512-2.491-6.303-2.927-7.25a74.889 74.889 0 0 1-.913-2.084c-.44-1.054-.591-1.391-1.798-4-1.98-4.279-5.827-11.746-7.061-13.705-.215-.342-.391-.66-.391-.708 0-.094-3.784-6.463-4.409-7.42-4.163-6.381-7.79-11.625-10.028-14.5-2.807-3.607-6.071-7.629-7.911-9.75-3.889-4.481-6.018-6.77-9.994-10.743-2.19-2.188-5.681-5.527-7.348-7.028-3.773-3.396-8.34-7.225-11.477-9.622a222.145 222.145 0 0 1-1.833-1.409c-2.685-2.141-9.91-7.154-13.948-9.679-.716-.447-1.565-.982-1.886-1.188-.866-.555-3.678-2.225-5.666-3.366a228.306 228.306 0 0 0-5.25-2.917c-1.71-.929-9.603-4.819-11.25-5.544a193.95 193.95 0 0 1-2.417-1.084c-1.032-.475-5.672-2.388-7.583-3.125-.596-.23-1.459-.57-1.917-.754-1.897-.765-9.936-3.527-11.75-4.038-.413-.116-1.5-.438-2.417-.714-.916-.276-2.416-.705-3.333-.953s-2.004-.55-2.417-.672c-.742-.22-1.505-.406-4.416-1.077a410.65 410.65 0 0 1-2.5-.586c-1.327-.318-4.113-.897-5.225-1.087-.49-.083-1.015-.191-1.166-.239-.302-.095-5.574-.981-7.443-1.251l-2.833-.412c-2.689-.392-7.743-.921-13-1.362-2.996-.251-18.925-.456-23.167-.298m21.584 13.205c1.146.102 3.058.266 4.25.364 10.313.847 25.925 3.74 34.583 6.408.412.127 1.762.542 3 .921 3.63 1.113 8.149 2.647 11.083 3.763.642.244 1.438.543 1.769.665.99.364 3.62 1.436 4.859 1.981.345.151 1.47.637 2.5 1.078 7.491 3.212 17.185 8.308 23.956 12.593a203.922 203.922 0 0 1 10.75 7.26c1.833 1.322 3.483 2.53 3.666 2.684.184.155.971.777 1.75 1.384.779.606 1.529 1.194 1.667 1.306.137.112.625.503 1.083.87.458.366.919.741 1.023.833.104.091.554.474 1 .85 6.296 5.309 13.076 11.762 17.736 16.879.866.951 1.691 1.851 1.834 2 .782.816 4.703 5.464 6.491 7.693.321.401.773.957 1.005 1.236.231.28.756.958 1.166 1.508.409.55.789 1.038.843 1.084.195.166 4.132 5.641 5.752 8 1.327 1.932 3.158 4.76 5.072 7.833.321.515 3.292 5.619 3.784 6.5 1.484 2.659 4.809 9.176 5.951 11.667.4.87.964 2.102 1.254 2.736 1.036 2.264 3.284 7.762 4.655 11.386 1.515 4.002 4.044 11.898 5.086 15.878 1.016 3.884 1.653 6.575 2.682 11.333.449 2.076 1.18 6.22 1.749 9.917 2.475 16.08 2.622 35.287.401 52.25-.534 4.079-1.488 9.771-2.15 12.833-1.029 4.758-1.666 7.449-2.682 11.333-1.042 3.98-3.571 11.876-5.086 15.878-1.554 4.106-3.793 9.542-4.916 11.933-.403.858-.733 1.592-.733 1.631 0 .562-5.72 11.45-8.392 15.975-3.587 6.072-6.097 9.886-10.588 16.083-.963 1.329-1.793 2.454-1.844 2.5-.052.046-.431.534-.843 1.084s-.788 1.037-.837 1.083a18.61 18.61 0 0 0-.663.833c-.316.413-.614.788-.662.834-.049.045-.538.646-1.088 1.333-.549.688-1.037 1.287-1.083 1.333s-1.02 1.171-2.164 2.5a501.958 501.958 0 0 1-2.583 2.982c-3.741 4.208-11.823 12.177-15.586 15.37-.688.583-1.288 1.1-1.334 1.149-.466.493-5.177 4.34-8.166 6.669-5.712 4.45-16.241 11.437-21.579 14.32-.731.395-1.481.817-1.667.938-.706.459-3.984 2.157-7.838 4.06-5.088 2.513-5.715 2.8-10.583 4.848-1.788.752-3.719 1.545-4.293 1.763l-2.166.823c-4.998 1.899-12.132 4.181-17.124 5.477-1.284.333-2.709.711-3.167.84-3.904 1.101-15.244 3.246-20.667 3.909-4.526.553-5.699.681-7.75.845-1.237.099-3.187.262-4.333.363-3.141.278-18.504.384-21.997.153-11.704-.775-18.177-1.582-27.336-3.411-8.64-1.724-20.384-5.03-27-7.6a31.483 31.483 0 0 0-1.334-.489c-3.157-1.007-12.375-5.022-18.083-7.877-5.637-2.818-9.847-5.179-15.292-8.575l-1.25-.78c-1.817-1.133-5.427-3.565-7.708-5.194-5.145-3.675-4.804-3.419-9.35-7.024-1.064-.843-2.039-1.633-2.167-1.755s-.646-.558-1.15-.968-1.179-.982-1.5-1.27-1.033-.919-1.583-1.402c-4.937-4.334-13.065-12.457-16.738-16.729-.386-.448-.79-.907-.898-1.019a15.89 15.89 0 0 1-.533-.602 769.803 769.803 0 0 1-3.865-4.644l-1.666-2.105a152.533 152.533 0 0 1-3.133-4.146c-.917-1.262-1.742-2.38-1.834-2.485-.34-.39-5.416-7.932-5.416-8.048 0-.045-.213-.393-.473-.775-2.887-4.234-9.853-17.035-11.897-21.861a109.658 109.658 0 0 0-1.584-3.583c-1.344-2.882-5.66-14.297-6.207-16.417a27.747 27.747 0 0 0-.478-1.517c-1.34-3.912-3.574-12.533-4.767-18.399-.159-.78-.362-1.75-.452-2.157-.231-1.047-.951-5.284-1.234-7.26-.751-5.237-.821-5.815-1.318-10.833-.56-5.662-.674-8.616-.674-17.584 0-8.963.093-11.325.676-17.25.487-4.959.563-5.583 1.316-10.833.273-1.908.981-6.061 1.264-7.417l.418-2c1.341-6.415 3.25-13.802 4.675-18.09.242-.73.499-1.551.571-1.826s.556-1.7 1.077-3.167 1.01-2.854 1.088-3.083c.332-.983 1.933-5.144 2.339-6.084.079-.183.493-1.196.92-2.25.426-1.054.829-1.991.895-2.083.067-.092.293-.579.503-1.083 1.029-2.472 4.887-10.383 6.381-13.084.406-.733.965-1.746 1.242-2.25 2.195-3.996 4.751-8.159 7.931-12.916 2.593-3.879 3.017-4.501 3.12-4.584.057-.046.472-.608.922-1.25.45-.641.858-1.204.907-1.25.05-.046.734-.945 1.521-2 3.006-4.026 7.04-8.88 10.875-13.083 3.016-3.305 10.054-10.255 13.84-13.667.102-.093.711-.618 1.353-1.167.641-.55 1.241-1.079 1.333-1.176.317-.337 1.923-1.657 5.417-4.456 4.861-3.894 12.617-9.357 17.462-12.298l2.417-1.467c4.747-2.881 12.01-6.771 16.621-8.902a205.25 205.25 0 0 1 6.5-2.904c2.619-1.125 6.566-2.698 7.666-3.055.23-.075 1.054-.373 1.834-.664 4.529-1.689 12.101-4.033 17-5.262 11.671-2.928 22.819-4.691 34.166-5.402 1.605-.101 3.105-.208 3.334-.239 1.027-.138 19.633.049 21.5.216m1.666 60.037c-10.014.752-19.043 3.019-28 7.032-1.93.865-5.468 2.645-6.517 3.279-.311.188-.679.393-.816.456-1.124.51-8.953 5.717-9.333 6.207-.046.059-.421.365-.834.68-3.022 2.31-7.64 6.596-10.333 9.59-3.518 3.91-5.014 5.816-7.928 10.1l-2.113 3.105-1.847-.653c-26.252-9.285-55.366 7.399-61.7 35.36-.563 2.487-.523 2.396-1.199 2.705-2.334 1.065-7.385 4.316-10.213 6.574-3.706 2.959-7.142 6.298-9.919 9.638-.457.55-.876 1.037-.93 1.083-.206.172-3.601 4.954-4.143 5.833-.31.505-.815 1.307-1.122 1.783-7.882 12.225-11.503 31.654-8.785 47.134.372 2.118.723 3.902.902 4.583.084.321.274 1.109.422 1.75.479 2.074 2.954 9.242 3.395 9.834.068.091.225.429.347.75 1.055 2.758 6.225 11.7 7.323 12.666.053.046.426.534.831 1.084.714.97 1.732 2.205 3.087 3.75 2.314 2.635 6.583 6.598 9.262 8.598 3.851 2.873 5.984 4.207 10.287 6.429 2.672 1.379 2.435 1.377 2.704.014.681-3.46 2.117-6.509 4.811-10.216.204-.28.127-.351-.909-.835-7.243-3.386-14.464-9.352-19.455-16.074a284.256 284.256 0 0 0-1.243-1.666c-.072-.092-.65-.992-1.286-2-8.338-13.226-10.654-28.931-6.66-45.167.963-3.913 3.554-9.999 5.961-14 .905-1.503 3.045-4.708 3.283-4.917.053-.046.355-.421.672-.833s.653-.832.746-.931c.093-.1.581-.68 1.086-1.289 1.01-1.22 3.9-4.098 5.333-5.31 1.816-1.536 2.102-1.765 3.333-2.667 2.869-2.102 5.678-3.728 9.834-5.691 2.198-1.039 3.496-2.684 3.827-4.852 1.502-9.833 4.783-16.73 10.794-22.69 10.969-10.875 25.946-13.206 39.959-6.218 4.551 2.269 8.522.986 9.924-3.205.195-.585.429-1.139.519-1.23.107-.11.121-.057.042.152-.085.223-.063.283.073.199.107-.067.195-.192.195-.28 0-.321 2.914-4.854 4.653-7.238 6.704-9.192 15.026-16.44 25.02-21.792.324-.173.884-.722 1.245-1.22.564-.778.732-.905 1.202-.905.723 0 .699.056-.326.746-1.103.743-.831.753.646.023 17.614-8.703 40.214-8.842 58.458-.358 1.572.731 2.416.945 1.242.315-.502-.27-.521-.305-.191-.356.257-.04.589.169 1.118.706.414.42 1.075.914 1.468 1.098 1.038.486 1.782.895 2.943 1.621 10.982 6.861 18.633 14.497 25.507 25.455 2.337 3.727 5.496 10.519 7.015 15.084.816 2.45 1.675 5.554 2.331 8.416.707 3.088 1.403 7.948 1.588 11.084.437 7.438 1.091 8.369 7.016 9.994 14.578 3.999 27.601 15.798 32.742 29.667.77 2.078 1.314 3.677 1.789 5.255.885 2.943 1.063 3.65 1.132 4.5.037.459.148 1.209.247 1.667.867 4.025.824 12.345-.091 17.543-.15.848-.224 1.621-.165 1.716.058.095.024.271-.076.392s-.262.661-.359 1.201c-.186 1.029-1.673 5.595-2.519 7.731-1.351 3.414-4.601 9.195-6.532 11.62-2.59 3.252-5.322 6.166-7.386 7.88a41.007 41.007 0 0 0-1.299 1.109c-.505.497-4.018 2.947-5.585 3.892-7.359 4.445-14.705 6.496-24.254 6.772l-3.912.113v12.633l4.791-.064c2.636-.036 5.355-.152 6.042-.258l2.417-.372c22.737-3.5 42.21-20.573 49.226-43.158.385-1.238.777-2.494.873-2.792.095-.299.125-.711.067-.917-.071-.254-.056-.303.049-.153.111.16.181.069.255-.333.056-.305.219-1.08.363-1.722 2.862-12.747 1.799-25.946-3.133-38.916-2.81-7.388-8.285-15.666-14.357-21.706-2.778-2.762-7.882-6.923-9.845-8.024a82.664 82.664 0 0 1-1.748-1.042c-4.03-2.458-7.594-4.114-12.36-5.743l-.61-.208-.186-1.68c-.237-2.138-.637-4.969-.944-6.681-.53-2.955-.611-3.369-.827-4.25l-.466-1.916c-1.038-4.304-4.018-13.177-4.758-14.164-.07-.093-.226-.432-.347-.753-2.217-5.883-8.784-16.175-14.55-22.805-.701-.806-6.704-6.806-7.452-7.449-3.872-3.327-7.194-5.838-10.542-7.969l-1.833-1.168c-1.446-.922-3.056-1.776-3.35-1.776-.151 0-.275-.078-.275-.173 0-.2-4.509-2.447-6.944-3.46-4.783-1.992-8.227-3.129-12.89-4.257-2.822-.683-6.026-1.285-8.583-1.613-4.649-.596-12.03-.815-16.417-.486m46.489 11.06c.162.194.136.22-.146.147-.188-.05-.343-.156-.343-.237 0-.225.269-.176.489.09m-33.322 35.929c-.222.144-.222.162 0 .162.137 0 .362-.073.5-.162.222-.143.222-.161 0-.161-.138 0-.363.072-.5.161m172.44 14.778c-.061.061-.106.267-.1.458.01.32.023.316.17-.052.163-.408.13-.605-.07-.406m-.361 1.222c-.062.197-.076.396-.03.442s.134-.078.197-.275.076-.396.03-.442c-.045-.046-.134.078-.197.275m-53.342 65.371c.46.657.328 1.071-.158.493-.429-.51-.535-.864-.259-.864.086 0 .274.167.417.371m-11.013 2.617c-.086.43-.143.492-.257.287-.182-.323.012-1.192.219-.985.081.081.098.395.038.698m.192 1.958l-.123.471-.154-.406c-.193-.505-.048-.983.217-.717.109.109.133.37.06.652m-67.42 9.658c-5.363.485-11.352 3.206-14.687 6.672-7.844 8.153-3.8 19.612 8.437 23.913 1.008.354 1.965.644 2.125.644.277.001.292 2.088.292 41.501v41.5h14.333V321.5h11.833V311h-11.833v-4h11.833v-10.5h-11.833v-49.27l.875-.223c8.123-2.072 13.892-8.351 13.864-15.09-.041-9.953-11.523-17.223-25.239-15.98m-73.833 8.217c-2.822.415-5.574 1.692-7.959 3.694-.664.558-1.209 1.064-1.209 1.125-.001.061-.257.38-.57.709-3.487 3.679-4.631 10.677-2.583 15.794 4.867 12.155 21.446 13.69 28.163 2.607 1.143-1.885 1.681-3.31 2.077-5.5 1.927-10.654-7.167-20.007-17.919-18.429m80.5.255c.779.13 1.679.319 2 .42.32.101.845.261 1.166.357.905.268 3.527 1.597 4.084 2.069 3.544 3.008 3.948 5.226 1.468 8.061-5.391 6.163-20.218 5.746-24.726-.695-3.93-5.615 5.918-11.897 16.008-10.212m-158.17.696c-3.02.433-3.787.632-5.547 1.446-10.018 4.628-12.254 18.118-4.261 25.713 7.062 6.71 18.272 5.621 23.886-2.321 3.291-4.655 3.682-11.972.893-16.693a42.32 42.32 0 0 1-.64-1.132c-2.257-4.139-9.534-7.7-14.331-7.013m37.583 8.302c-12.567 2.528-17.064 18.217-7.736 26.992 4.769 4.486 11.662 5.57 17.571 2.763 11.673-5.547 12.097-21.953.73-28.207-2.805-1.543-7.308-2.202-10.565-1.548m33.667 23.256c-4.329.425-8.499 2.369-11.801 5.503l-1.36 1.29.997.511c3.108 1.593 6.338 4.491 8.869 7.959 1.229 1.683 2.913 5.469 3.532 7.937.549 2.191.644 3.532.774 10.922l.121 6.868.684.087c6.847.87 16.725.419 23.517-1.074 4.497-.988 9.501-2.74 10.122-3.543.341-.442.441-15.429.123-18.421-.945-8.892-7.288-15.955-15.885-17.691-1.7-.343-16.989-.613-19.693-.348m-79.25 1.115c-9.311 1.474-15.754 7.545-17.445 16.436-.368 1.939-.538 19.71-.192 20.168.129.17.866.472 1.723.706l3.081.843c.87.24 2.033.544 2.583.677.55.132 1.412.344 1.917.47 7.03 1.759 17.995 2.649 24.375 1.98l.958-.101v-6.325c0-6.504.153-9.453.603-11.632 1.455-7.04 5.084-12.214 11.403-16.256a54.081 54.081 0 0 0 1.322-.862c.146-.123-1.905-1.887-3.246-2.792-2.679-1.808-5.29-2.799-8.377-3.182-1.811-.225-17.421-.333-18.705-.13m38.417 8.213c-7.228 1.332-13.261 6.473-15.561 13.259-.987 2.912-1.189 5.484-1.189 15.121v7.955l.375.228c.206.125.825.352 1.375.503.55.152 1.934.541 3.075.865 14.338 4.069 29.904 4.446 42.175 1.02 2.588-.722 6.273-2.218 6.683-2.712.206-.249.248-16.707.048-18.813-.776-8.168-7.443-15.476-15.759-17.275-2.479-.537-18.512-.651-21.222-.151m78.67.967c1.218 2.908 1.912 6.121 1.914 8.875.001.963.049 2.144.107 2.625l.105.875h32.287v-12.666h-17.268c-16.381 0-17.261.015-17.145.291"/><path d="M190.58.102c-6.887.256-17.916 1.462-25.583 2.798-3.423.597-7.747 1.469-10.5 2.119-3.146.743-4.954 1.187-5.667 1.392-.412.119-1.2.336-1.75.483-3.565.951-5.294 1.48-10.666 3.262-6.112 2.026-16.427 5.994-17.334 6.667-.091.069-.466.241-.833.383-3.214 1.248-15.214 7.359-18.173 9.253-.18.116-.439.261-.577.323-.502.226-5.265 3.099-5.781 3.486-.291.219-.57.399-.619.399-.157 0-5.735 3.713-8.35 5.558-3.068 2.165-7.026 5.1-8.576 6.358-.338.275-.941.763-1.339 1.084-9.252 7.46-16.686 14.539-24.919 23.729-.092.103-.617.712-1.167 1.354A63.092 63.092 0 0 1 47.66 70c-.092.088-1.575 1.858-1.996 2.383-.138.172-.389.474-.558.673-1.211 1.421-4.199 5.261-5.858 7.527a74.286 74.286 0 0 1-1.309 1.756c-1.011 1.225-6.076 8.758-8.045 11.965-.356.58-.798 1.292-.982 1.583-.433.683-2.101 3.5-2.583 4.363l-1.076 1.917c-7.629 13.554-13.946 28.941-18.166 44.25-.253.916-.558 2.004-.677 2.416-.202.698-.871 3.434-1.263 5.167-.093.412-.238 1.012-.321 1.333s-.302 1.352-.487 2.292c-.186.939-.408 2.027-.494 2.416-1.309 5.904-2.606 15.372-3.35 24.453-.653 7.974-.654 22.202-.002 29.967.611 7.279 1.253 12.615 2.181 18.122.276 1.639.45 2.609.987 5.5.085.459.39 1.921.676 3.25.767 3.555.994 4.556 1.476 6.5.471 1.899.663 2.6 2.189 8 4.217 14.926 12.608 33.922 20.811 47.115.239.384.726 1.172 1.083 1.75 3.923 6.352 9.434 14.131 14.018 19.786 1.415 1.747 1.68 2.07 1.833 2.245.092.104.54.639.996 1.189.457.549.869 1.036.917 1.082s.537.608 1.087 1.249a119.45 119.45 0 0 0 2.171 2.483c.094.101 1.03 1.122 2.079 2.268 3.122 3.408 9.022 9.255 12.253 12.141.548.49 1.297 1.167 1.664 1.504 1.092 1.005 2.866 2.525 5.166 4.427l2.501 2.068c.184.152.671.539 1.083.86s.899.712 1.082.869c.583.498 4.721 3.572 7.06 5.245 1.862 1.331 8.495 5.788 9.382 6.303.158.091 1.211.735 2.34 1.429 14.043 8.639 28.037 14.944 45.636 20.563 3.321 1.06 9.557 2.715 13.833 3.67l2.25.503c.642.143 1.767.375 2.5.516s1.821.359 2.417.486c.595.126 1.608.312 2.25.413.641.101 1.804.29 2.583.42 4.513.751 9.6 1.411 13.417 1.742 1.1.095 2.862.249 3.916.342 4.276.377 10.827.536 18.334.447 9.397-.113 15.012-.512 24-1.707 4.765-.633 11.126-1.743 15.25-2.66.641-.143 1.654-.367 2.25-.497 1.451-.32 8.203-2.028 9.25-2.342.458-.137 1.245-.369 1.75-.515.504-.147 1.104-.326 1.333-.398s1.092-.335 1.917-.583c5.278-1.589 11.882-3.974 18.083-6.53 2.15-.886 2.703-1.127 5.167-2.25l1.833-.836c2.282-1.039 8.807-4.329 11.163-5.628 1.498-.826 2.747-1.502 2.774-1.502.028 0 .598-.326 1.265-.724.668-.398 2.152-1.275 3.298-1.948 1.146-.674 2.308-1.38 2.583-1.569s.63-.418.788-.509c2.761-1.593 13.666-9.11 14.629-10.084.046-.047.533-.417 1.083-.822.55-.406 1.038-.783 1.084-.838.045-.054.758-.621 1.583-1.259 1.671-1.293 5.408-4.356 5.667-4.644.091-.103.691-.636 1.333-1.186 1.394-1.193 1.175-1 3.105-2.749 4.959-4.495 10.939-10.548 15.149-15.335a70.59 70.59 0 0 1 1.341-1.5c.086-.076 3.615-4.323 4.915-5.916.299-.367 1.04-1.305 1.646-2.084L358.72 320c2.151-2.763 7.08-9.886 10.031-14.5 3.331-5.207 8.358-14.378 11.192-20.417 1.67-3.557 2.028-4.348 2.639-5.833.34-.825.674-1.575.743-1.667.116-.156 1.798-4.323 2.725-6.75.228-.596.603-1.571.834-2.166 1.232-3.175 4.227-12.584 5.385-16.917.147-.55.365-1.338.484-1.75s.308-1.162.419-1.667c.111-.504.298-1.254.415-1.666.117-.413.256-.975.308-1.25s.215-1.025.361-1.667c.389-1.714 1.063-4.876 1.243-5.833.085-.459.269-1.434.408-2.167s.335-1.895.436-2.581c.1-.686.206-1.286.235-1.333.028-.047.175-.986.325-2.086.151-1.1.378-2.713.505-3.583.416-2.849.973-8.383 1.369-13.584.416-5.463.416-20.689.001-26.166-.376-4.966-.926-10.412-1.371-13.584-.604-4.304-.752-5.258-1.249-8.083-.69-3.918-.722-4.084-1.334-6.917-.771-3.572-.996-4.563-1.477-6.5a153.332 153.332 0 0 0-1.122-4.25c-1.631-5.966-4.141-13.706-5.971-18.416-1.364-3.512-2.491-6.303-2.927-7.25a74.889 74.889 0 0 1-.913-2.084c-.44-1.054-.591-1.391-1.798-4-1.98-4.279-5.827-11.746-7.061-13.705-.215-.342-.391-.66-.391-.708 0-.094-3.784-6.463-4.409-7.42-4.163-6.381-7.79-11.625-10.028-14.5-2.807-3.607-6.071-7.629-7.911-9.75-3.889-4.481-6.018-6.77-9.994-10.743-2.19-2.188-5.681-5.527-7.348-7.028-3.773-3.396-8.34-7.225-11.477-9.622a222.145 222.145 0 0 1-1.833-1.409c-2.685-2.141-9.91-7.154-13.948-9.679-.716-.447-1.565-.982-1.886-1.188-.866-.555-3.678-2.225-5.666-3.366a228.306 228.306 0 0 0-5.25-2.917c-1.71-.929-9.603-4.819-11.25-5.544a193.95 193.95 0 0 1-2.417-1.084c-1.032-.475-5.672-2.388-7.583-3.125-.596-.23-1.459-.57-1.917-.754-1.897-.765-9.936-3.527-11.75-4.038-.413-.116-1.5-.438-2.417-.714-.916-.276-2.416-.705-3.333-.953s-2.004-.55-2.417-.672c-.742-.22-1.505-.406-4.416-1.077a410.65 410.65 0 0 1-2.5-.586c-1.327-.318-4.113-.897-5.225-1.087-.49-.083-1.015-.191-1.166-.239-.302-.095-5.574-.981-7.443-1.251l-2.833-.412c-2.689-.392-7.743-.921-13-1.362-2.996-.251-18.925-.456-23.167-.298m21.584 13.205c1.146.102 3.058.266 4.25.364 10.313.847 25.925 3.74 34.583 6.408.412.127 1.762.542 3 .921 3.63 1.113 8.149 2.647 11.083 3.763.642.244 1.438.543 1.769.665.99.364 3.62 1.436 4.859 1.981.345.151 1.47.637 2.5 1.078 7.491 3.212 17.185 8.308 23.956 12.593a203.922 203.922 0 0 1 10.75 7.26c1.833 1.322 3.483 2.53 3.666 2.684.184.155.971.777 1.75 1.384.779.606 1.529 1.194 1.667 1.306.137.112.625.503 1.083.87.458.366.919.741 1.023.833.104.091.554.474 1 .85 6.296 5.309 13.076 11.762 17.736 16.879.866.951 1.691 1.851 1.834 2 .782.816 4.703 5.464 6.491 7.693.321.401.773.957 1.005 1.236.231.28.756.958 1.166 1.508.409.55.789 1.038.843 1.084.195.166 4.132 5.641 5.752 8 1.327 1.932 3.158 4.76 5.072 7.833.321.515 3.292 5.619 3.784 6.5 1.484 2.659 4.809 9.176 5.951 11.667.4.87.964 2.102 1.254 2.736 1.036 2.264 3.284 7.762 4.655 11.386 1.515 4.002 4.044 11.898 5.086 15.878 1.016 3.884 1.653 6.575 2.682 11.333.449 2.076 1.18 6.22 1.749 9.917 2.475 16.08 2.622 35.287.401 52.25-.534 4.079-1.488 9.771-2.15 12.833-1.029 4.758-1.666 7.449-2.682 11.333-1.042 3.98-3.571 11.876-5.086 15.878-1.554 4.106-3.793 9.542-4.916 11.933-.403.858-.733 1.592-.733 1.631 0 .562-5.72 11.45-8.392 15.975-3.587 6.072-6.097 9.886-10.588 16.083-.963 1.329-1.793 2.454-1.844 2.5-.052.046-.431.534-.843 1.084s-.788 1.037-.837 1.083a18.61 18.61 0 0 0-.663.833c-.316.413-.614.788-.662.834-.049.045-.538.646-1.088 1.333-.549.688-1.037 1.287-1.083 1.333s-1.02 1.171-2.164 2.5a501.958 501.958 0 0 1-2.583 2.982c-3.741 4.208-11.823 12.177-15.586 15.37-.688.583-1.288 1.1-1.334 1.149-.466.493-5.177 4.34-8.166 6.669-5.712 4.45-16.241 11.437-21.579 14.32-.731.395-1.481.817-1.667.938-.706.459-3.984 2.157-7.838 4.06-5.088 2.513-5.715 2.8-10.583 4.848-1.788.752-3.719 1.545-4.293 1.763l-2.166.823c-4.998 1.899-12.132 4.181-17.124 5.477-1.284.333-2.709.711-3.167.84-3.904 1.101-15.244 3.246-20.667 3.909-4.526.553-5.699.681-7.75.845-1.237.099-3.187.262-4.333.363-3.141.278-18.504.384-21.997.153-11.704-.775-18.177-1.582-27.336-3.411-8.64-1.724-20.384-5.03-27-7.6a31.483 31.483 0 0 0-1.334-.489c-3.157-1.007-12.375-5.022-18.083-7.877-5.637-2.818-9.847-5.179-15.292-8.575l-1.25-.78c-1.817-1.133-5.427-3.565-7.708-5.194-5.145-3.675-4.804-3.419-9.35-7.024-1.064-.843-2.039-1.633-2.167-1.755s-.646-.558-1.15-.968-1.179-.982-1.5-1.27-1.033-.919-1.583-1.402c-4.937-4.334-13.065-12.457-16.738-16.729-.386-.448-.79-.907-.898-1.019a15.89 15.89 0 0 1-.533-.602 769.803 769.803 0 0 1-3.865-4.644l-1.666-2.105a152.533 152.533 0 0 1-3.133-4.146c-.917-1.262-1.742-2.38-1.834-2.485-.34-.39-5.416-7.932-5.416-8.048 0-.045-.213-.393-.473-.775-2.887-4.234-9.853-17.035-11.897-21.861a109.658 109.658 0 0 0-1.584-3.583c-1.344-2.882-5.66-14.297-6.207-16.417a27.747 27.747 0 0 0-.478-1.517c-1.34-3.912-3.574-12.533-4.767-18.399-.159-.78-.362-1.75-.452-2.157-.231-1.047-.951-5.284-1.234-7.26-.751-5.237-.821-5.815-1.318-10.833-.56-5.662-.674-8.616-.674-17.584 0-8.963.093-11.325.676-17.25.487-4.959.563-5.583 1.316-10.833.273-1.908.981-6.061 1.264-7.417l.418-2c1.341-6.415 3.25-13.802 4.675-18.09.242-.73.499-1.551.571-1.826s.556-1.7 1.077-3.167 1.01-2.854 1.088-3.083c.332-.983 1.933-5.144 2.339-6.084.079-.183.493-1.196.92-2.25.426-1.054.829-1.991.895-2.083.067-.092.293-.579.503-1.083 1.029-2.472 4.887-10.383 6.381-13.084.406-.733.965-1.746 1.242-2.25 2.195-3.996 4.751-8.159 7.931-12.916 2.593-3.879 3.017-4.501 3.12-4.584.057-.046.472-.608.922-1.25.45-.641.858-1.204.907-1.25.05-.046.734-.945 1.521-2 3.006-4.026 7.04-8.88 10.875-13.083 3.016-3.305 10.054-10.255 13.84-13.667.102-.093.711-.618 1.353-1.167.641-.55 1.241-1.079 1.333-1.176.317-.337 1.923-1.657 5.417-4.456 4.861-3.894 12.617-9.357 17.462-12.298l2.417-1.467c4.747-2.881 12.01-6.771 16.621-8.902a205.25 205.25 0 0 1 6.5-2.904c2.619-1.125 6.566-2.698 7.666-3.055.23-.075 1.054-.373 1.834-.664 4.529-1.689 12.101-4.033 17-5.262 11.671-2.928 22.819-4.691 34.166-5.402 1.605-.101 3.105-.208 3.334-.239 1.027-.138 19.633.049 21.5.216m1.666 60.037c-10.014.752-19.043 3.019-28 7.032-1.93.865-5.468 2.645-6.517 3.279-.311.188-.679.393-.816.456-1.124.51-8.953 5.717-9.333 6.207-.046.059-.421.365-.834.68-3.022 2.31-7.64 6.596-10.333 9.59-3.518 3.91-5.014 5.816-7.928 10.1l-2.113 3.105-1.847-.653c-26.252-9.285-55.366 7.399-61.7 35.36-.563 2.487-.523 2.396-1.199 2.705-2.334 1.065-7.385 4.316-10.213 6.574-3.706 2.959-7.142 6.298-9.919 9.638-.457.55-.876 1.037-.93 1.083-.206.172-3.601 4.954-4.143 5.833-.31.505-.815 1.307-1.122 1.783-7.882 12.225-11.503 31.654-8.785 47.134.372 2.118.723 3.902.902 4.583.084.321.274 1.109.422 1.75.479 2.074 2.954 9.242 3.395 9.834.068.091.225.429.347.75 1.055 2.758 6.225 11.7 7.323 12.666.053.046.426.534.831 1.084.714.97 1.732 2.205 3.087 3.75 2.314 2.635 6.583 6.598 9.262 8.598 3.851 2.873 5.984 4.207 10.287 6.429 2.672 1.379 2.435 1.377 2.704.014.681-3.46 2.117-6.509 4.811-10.216.204-.28.127-.351-.909-.835-7.243-3.386-14.464-9.352-19.455-16.074a284.256 284.256 0 0 0-1.243-1.666c-.072-.092-.65-.992-1.286-2-8.338-13.226-10.654-28.931-6.66-45.167.963-3.913 3.554-9.999 5.961-14 .905-1.503 3.045-4.708 3.283-4.917.053-.046.355-.421.672-.833s.653-.832.746-.931c.093-.1.581-.68 1.086-1.289 1.01-1.22 3.9-4.098 5.333-5.31 1.816-1.536 2.102-1.765 3.333-2.667 2.869-2.102 5.678-3.728 9.834-5.691 2.198-1.039 3.496-2.684 3.827-4.852 1.502-9.833 4.783-16.73 10.794-22.69 10.969-10.875 25.946-13.206 39.959-6.218 4.551 2.269 8.522.986 9.924-3.205.195-.585.429-1.139.519-1.23.107-.11.121-.057.042.152-.085.223-.063.283.073.199.107-.067.195-.192.195-.28 0-.321 2.914-4.854 4.653-7.238 6.704-9.192 15.026-16.44 25.02-21.792.324-.173.884-.722 1.245-1.22.564-.778.732-.905 1.202-.905.723 0 .699.056-.326.746-1.103.743-.831.753.646.023 17.614-8.703 40.214-8.842 58.458-.358 1.572.731 2.416.945 1.242.315-.502-.27-.521-.305-.191-.356.257-.04.589.169 1.118.706.414.42 1.075.914 1.468 1.098 1.038.486 1.782.895 2.943 1.621 10.982 6.861 18.633 14.497 25.507 25.455 2.337 3.727 5.496 10.519 7.015 15.084.816 2.45 1.675 5.554 2.331 8.416.707 3.088 1.403 7.948 1.588 11.084.437 7.438 1.091 8.369 7.016 9.994 14.578 3.999 27.601 15.798 32.742 29.667.77 2.078 1.314 3.677 1.789 5.255.885 2.943 1.063 3.65 1.132 4.5.037.459.148 1.209.247 1.667.867 4.025.824 12.345-.091 17.543-.15.848-.224 1.621-.165 1.716.058.095.024.271-.076.392s-.262.661-.359 1.201c-.186 1.029-1.673 5.595-2.519 7.731-1.351 3.414-4.601 9.195-6.532 11.62-2.59 3.252-5.322 6.166-7.386 7.88a41.007 41.007 0 0 0-1.299 1.109c-.505.497-4.018 2.947-5.585 3.892-7.359 4.445-14.705 6.496-24.254 6.772l-3.912.113v12.633l4.791-.064c2.636-.036 5.355-.152 6.042-.258l2.417-.372c22.737-3.5 42.21-20.573 49.226-43.158.385-1.238.777-2.494.873-2.792.095-.299.125-.711.067-.917-.071-.254-.056-.303.049-.153.111.16.181.069.255-.333.056-.305.219-1.08.363-1.722 2.862-12.747 1.799-25.946-3.133-38.916-2.81-7.388-8.285-15.666-14.357-21.706-2.778-2.762-7.882-6.923-9.845-8.024a82.664 82.664 0 0 1-1.748-1.042c-4.03-2.458-7.594-4.114-12.36-5.743l-.61-.208-.186-1.68c-.237-2.138-.637-4.969-.944-6.681-.53-2.955-.611-3.369-.827-4.25l-.466-1.916c-1.038-4.304-4.018-13.177-4.758-14.164-.07-.093-.226-.432-.347-.753-2.217-5.883-8.784-16.175-14.55-22.805-.701-.806-6.704-6.806-7.452-7.449-3.872-3.327-7.194-5.838-10.542-7.969l-1.833-1.168c-1.446-.922-3.056-1.776-3.35-1.776-.151 0-.275-.078-.275-.173 0-.2-4.509-2.447-6.944-3.46-4.783-1.992-8.227-3.129-12.89-4.257-2.822-.683-6.026-1.285-8.583-1.613-4.649-.596-12.03-.815-16.417-.486m46.489 11.06c.162.194.136.22-.146.147-.188-.05-.343-.156-.343-.237 0-.225.269-.176.489.09m-33.322 35.929c-.222.144-.222.162 0 .162.137 0 .362-.073.5-.162.222-.143.222-.161 0-.161-.138 0-.363.072-.5.161m172.44 14.778c-.061.061-.106.267-.1.458.01.32.023.316.17-.052.163-.408.13-.605-.07-.406m-.361 1.222c-.062.197-.076.396-.03.442s.134-.078.197-.275.076-.396.03-.442c-.045-.046-.134.078-.197.275m-53.342 65.371c.46.657.328 1.071-.158.493-.429-.51-.535-.864-.259-.864.086 0 .274.167.417.371m-11.013 2.617c-.086.43-.143.492-.257.287-.182-.323.012-1.192.219-.985.081.081.098.395.038.698m.192 1.958l-.123.471-.154-.406c-.193-.505-.048-.983.217-.717.109.109.133.37.06.652m-67.42 9.658c-5.363.485-11.352 3.206-14.687 6.672-7.844 8.153-3.8 19.612 8.437 23.913 1.008.354 1.965.644 2.125.644.277.001.292 2.088.292 41.501v41.5h14.333V321.5h11.833V311h-11.833v-4h11.833v-10.5h-11.833v-49.27l.875-.223c8.123-2.072 13.892-8.351 13.864-15.09-.041-9.953-11.523-17.223-25.239-15.98m-73.833 8.217c-2.822.415-5.574 1.692-7.959 3.694-.664.558-1.209 1.064-1.209 1.125-.001.061-.257.38-.57.709-3.487 3.679-4.631 10.677-2.583 15.794 4.867 12.155 21.446 13.69 28.163 2.607 1.143-1.885 1.681-3.31 2.077-5.5 1.927-10.654-7.167-20.007-17.919-18.429m80.5.255c.779.13 1.679.319 2 .42.32.101.845.261 1.166.357.905.268 3.527 1.597 4.084 2.069 3.544 3.008 3.948 5.226 1.468 8.061-5.391 6.163-20.218 5.746-24.726-.695-3.93-5.615 5.918-11.897 16.008-10.212m-158.17.696c-3.02.433-3.787.632-5.547 1.446-10.018 4.628-12.254 18.118-4.261 25.713 7.062 6.71 18.272 5.621 23.886-2.321 3.291-4.655 3.682-11.972.893-16.693a42.32 42.32 0 0 1-.64-1.132c-2.257-4.139-9.534-7.7-14.331-7.013m37.583 8.302c-12.567 2.528-17.064 18.217-7.736 26.992 4.769 4.486 11.662 5.57 17.571 2.763 11.673-5.547 12.097-21.953.73-28.207-2.805-1.543-7.308-2.202-10.565-1.548m33.667 23.256c-4.329.425-8.499 2.369-11.801 5.503l-1.36 1.29.997.511c3.108 1.593 6.338 4.491 8.869 7.959 1.229 1.683 2.913 5.469 3.532 7.937.549 2.191.644 3.532.774 10.922l.121 6.868.684.087c6.847.87 16.725.419 23.517-1.074 4.497-.988 9.501-2.74 10.122-3.543.341-.442.441-15.429.123-18.421-.945-8.892-7.288-15.955-15.885-17.691-1.7-.343-16.989-.613-19.693-.348m-79.25 1.115c-9.311 1.474-15.754 7.545-17.445 16.436-.368 1.939-.538 19.71-.192 20.168.129.17.866.472 1.723.706l3.081.843c.87.24 2.033.544 2.583.677.55.132 1.412.344 1.917.47 7.03 1.759 17.995 2.649 24.375 1.98l.958-.101v-6.325c0-6.504.153-9.453.603-11.632 1.455-7.04 5.084-12.214 11.403-16.256a54.081 54.081 0 0 0 1.322-.862c.146-.123-1.905-1.887-3.246-2.792-2.679-1.808-5.29-2.799-8.377-3.182-1.811-.225-17.421-.333-18.705-.13m38.417 8.213c-7.228 1.332-13.261 6.473-15.561 13.259-.987 2.912-1.189 5.484-1.189 15.121v7.955l.375.228c.206.125.825.352 1.375.503.55.152 1.934.541 3.075.865 14.338 4.069 29.904 4.446 42.175 1.02 2.588-.722 6.273-2.218 6.683-2.712.206-.249.248-16.707.048-18.813-.776-8.168-7.443-15.476-15.759-17.275-2.479-.537-18.512-.651-21.222-.151m78.67.967c1.218 2.908 1.912 6.121 1.914 8.875.001.963.049 2.144.107 2.625l.105.875h32.287v-12.666h-17.268c-16.381 0-17.261.015-17.145.291"/><path d="M190.58.102c-6.887.256-17.916 1.462-25.583 2.798-3.423.597-7.747 1.469-10.5 2.119-3.146.743-4.954 1.187-5.667 1.392-.412.119-1.2.336-1.75.483-3.565.951-5.294 1.48-10.666 3.262-6.112 2.026-16.427 5.994-17.334 6.667-.091.069-.466.241-.833.383-3.214 1.248-15.214 7.359-18.173 9.253-.18.116-.439.261-.577.323-.502.226-5.265 3.099-5.781 3.486-.291.219-.57.399-.619.399-.157 0-5.735 3.713-8.35 5.558-3.068 2.165-7.026 5.1-8.576 6.358-.338.275-.941.763-1.339 1.084-9.252 7.46-16.686 14.539-24.919 23.729-.092.103-.617.712-1.167 1.354A63.092 63.092 0 0 1 47.66 70c-.092.088-1.575 1.858-1.996 2.383-.138.172-.389.474-.558.673-1.211 1.421-4.199 5.261-5.858 7.527a74.286 74.286 0 0 1-1.309 1.756c-1.011 1.225-6.076 8.758-8.045 11.965-.356.58-.798 1.292-.982 1.583-.433.683-2.101 3.5-2.583 4.363l-1.076 1.917c-7.629 13.554-13.946 28.941-18.166 44.25-.253.916-.558 2.004-.677 2.416-.202.698-.871 3.434-1.263 5.167-.093.412-.238 1.012-.321 1.333s-.302 1.352-.487 2.292c-.186.939-.408 2.027-.494 2.416-1.309 5.904-2.606 15.372-3.35 24.453-.653 7.974-.654 22.202-.002 29.967.611 7.279 1.253 12.615 2.181 18.122.276 1.639.45 2.609.987 5.5.085.459.39 1.921.676 3.25.767 3.555.994 4.556 1.476 6.5.471 1.899.663 2.6 2.189 8 4.217 14.926 12.608 33.922 20.811 47.115.239.384.726 1.172 1.083 1.75 3.923 6.352 9.434 14.131 14.018 19.786 1.415 1.747 1.68 2.07 1.833 2.245.092.104.54.639.996 1.189.457.549.869 1.036.917 1.082s.537.608 1.087 1.249a119.45 119.45 0 0 0 2.171 2.483c.094.101 1.03 1.122 2.079 2.268 3.122 3.408 9.022 9.255 12.253 12.141.548.49 1.297 1.167 1.664 1.504 1.092 1.005 2.866 2.525 5.166 4.427l2.501 2.068c.184.152.671.539 1.083.86s.899.712 1.082.869c.583.498 4.721 3.572 7.06 5.245 1.862 1.331 8.495 5.788 9.382 6.303.158.091 1.211.735 2.34 1.429 14.043 8.639 28.037 14.944 45.636 20.563 3.321 1.06 9.557 2.715 13.833 3.67l2.25.503c.642.143 1.767.375 2.5.516s1.821.359 2.417.486c.595.126 1.608.312 2.25.413.641.101 1.804.29 2.583.42 4.513.751 9.6 1.411 13.417 1.742 1.1.095 2.862.249 3.916.342 4.276.377 10.827.536 18.334.447 9.397-.113 15.012-.512 24-1.707 4.765-.633 11.126-1.743 15.25-2.66.641-.143 1.654-.367 2.25-.497 1.451-.32 8.203-2.028 9.25-2.342.458-.137 1.245-.369 1.75-.515.504-.147 1.104-.326 1.333-.398s1.092-.335 1.917-.583c5.278-1.589 11.882-3.974 18.083-6.53 2.15-.886 2.703-1.127 5.167-2.25l1.833-.836c2.282-1.039 8.807-4.329 11.163-5.628 1.498-.826 2.747-1.502 2.774-1.502.028 0 .598-.326 1.265-.724.668-.398 2.152-1.275 3.298-1.948 1.146-.674 2.308-1.38 2.583-1.569s.63-.418.788-.509c2.761-1.593 13.666-9.11 14.629-10.084.046-.047.533-.417 1.083-.822.55-.406 1.038-.783 1.084-.838.045-.054.758-.621 1.583-1.259 1.671-1.293 5.408-4.356 5.667-4.644.091-.103.691-.636 1.333-1.186 1.394-1.193 1.175-1 3.105-2.749 4.959-4.495 10.939-10.548 15.149-15.335a70.59 70.59 0 0 1 1.341-1.5c.086-.076 3.615-4.323 4.915-5.916.299-.367 1.04-1.305 1.646-2.084L358.72 320c2.151-2.763 7.08-9.886 10.031-14.5 3.331-5.207 8.358-14.378 11.192-20.417 1.67-3.557 2.028-4.348 2.639-5.833.34-.825.674-1.575.743-1.667.116-.156 1.798-4.323 2.725-6.75.228-.596.603-1.571.834-2.166 1.232-3.175 4.227-12.584 5.385-16.917.147-.55.365-1.338.484-1.75s.308-1.162.419-1.667c.111-.504.298-1.254.415-1.666.117-.413.256-.975.308-1.25s.215-1.025.361-1.667c.389-1.714 1.063-4.876 1.243-5.833.085-.459.269-1.434.408-2.167s.335-1.895.436-2.581c.1-.686.206-1.286.235-1.333.028-.047.175-.986.325-2.086.151-1.1.378-2.713.505-3.583.416-2.849.973-8.383 1.369-13.584.416-5.463.416-20.689.001-26.166-.376-4.966-.926-10.412-1.371-13.584-.604-4.304-.752-5.258-1.249-8.083-.69-3.918-.722-4.084-1.334-6.917-.771-3.572-.996-4.563-1.477-6.5a153.332 153.332 0 0 0-1.122-4.25c-1.631-5.966-4.141-13.706-5.971-18.416-1.364-3.512-2.491-6.303-2.927-7.25a74.889 74.889 0 0 1-.913-2.084c-.44-1.054-.591-1.391-1.798-4-1.98-4.279-5.827-11.746-7.061-13.705-.215-.342-.391-.66-.391-.708 0-.094-3.784-6.463-4.409-7.42-4.163-6.381-7.79-11.625-10.028-14.5-2.807-3.607-6.071-7.629-7.911-9.75-3.889-4.481-6.018-6.77-9.994-10.743-2.19-2.188-5.681-5.527-7.348-7.028-3.773-3.396-8.34-7.225-11.477-9.622a222.145 222.145 0 0 1-1.833-1.409c-2.685-2.141-9.91-7.154-13.948-9.679-.716-.447-1.565-.982-1.886-1.188-.866-.555-3.678-2.225-5.666-3.366a228.306 228.306 0 0 0-5.25-2.917c-1.71-.929-9.603-4.819-11.25-5.544a193.95 193.95 0 0 1-2.417-1.084c-1.032-.475-5.672-2.388-7.583-3.125-.596-.23-1.459-.57-1.917-.754-1.897-.765-9.936-3.527-11.75-4.038-.413-.116-1.5-.438-2.417-.714-.916-.276-2.416-.705-3.333-.953s-2.004-.55-2.417-.672c-.742-.22-1.505-.406-4.416-1.077a410.65 410.65 0 0 1-2.5-.586c-1.327-.318-4.113-.897-5.225-1.087-.49-.083-1.015-.191-1.166-.239-.302-.095-5.574-.981-7.443-1.251l-2.833-.412c-2.689-.392-7.743-.921-13-1.362-2.996-.251-18.925-.456-23.167-.298m21.584 13.205c1.146.102 3.058.266 4.25.364 10.313.847 25.925 3.74 34.583 6.408.412.127 1.762.542 3 .921 3.63 1.113 8.149 2.647 11.083 3.763.642.244 1.438.543 1.769.665.99.364 3.62 1.436 4.859 1.981.345.151 1.47.637 2.5 1.078 7.491 3.212 17.185 8.308 23.956 12.593a203.922 203.922 0 0 1 10.75 7.26c1.833 1.322 3.483 2.53 3.666 2.684.184.155.971.777 1.75 1.384.779.606 1.529 1.194 1.667 1.306.137.112.625.503 1.083.87.458.366.919.741 1.023.833.104.091.554.474 1 .85 6.296 5.309 13.076 11.762 17.736 16.879.866.951 1.691 1.851 1.834 2 .782.816 4.703 5.464 6.491 7.693.321.401.773.957 1.005 1.236.231.28.756.958 1.166 1.508.409.55.789 1.038.843 1.084.195.166 4.132 5.641 5.752 8 1.327 1.932 3.158 4.76 5.072 7.833.321.515 3.292 5.619 3.784 6.5 1.484 2.659 4.809 9.176 5.951 11.667.4.87.964 2.102 1.254 2.736 1.036 2.264 3.284 7.762 4.655 11.386 1.515 4.002 4.044 11.898 5.086 15.878 1.016 3.884 1.653 6.575 2.682 11.333.449 2.076 1.18 6.22 1.749 9.917 2.475 16.08 2.622 35.287.401 52.25-.534 4.079-1.488 9.771-2.15 12.833-1.029 4.758-1.666 7.449-2.682 11.333-1.042 3.98-3.571 11.876-5.086 15.878-1.554 4.106-3.793 9.542-4.916 11.933-.403.858-.733 1.592-.733 1.631 0 .562-5.72 11.45-8.392 15.975-3.587 6.072-6.097 9.886-10.588 16.083-.963 1.329-1.793 2.454-1.844 2.5-.052.046-.431.534-.843 1.084s-.788 1.037-.837 1.083a18.61 18.61 0 0 0-.663.833c-.316.413-.614.788-.662.834-.049.045-.538.646-1.088 1.333-.549.688-1.037 1.287-1.083 1.333s-1.02 1.171-2.164 2.5a501.958 501.958 0 0 1-2.583 2.982c-3.741 4.208-11.823 12.177-15.586 15.37-.688.583-1.288 1.1-1.334 1.149-.466.493-5.177 4.34-8.166 6.669-5.712 4.45-16.241 11.437-21.579 14.32-.731.395-1.481.817-1.667.938-.706.459-3.984 2.157-7.838 4.06-5.088 2.513-5.715 2.8-10.583 4.848-1.788.752-3.719 1.545-4.293 1.763l-2.166.823c-4.998 1.899-12.132 4.181-17.124 5.477-1.284.333-2.709.711-3.167.84-3.904 1.101-15.244 3.246-20.667 3.909-4.526.553-5.699.681-7.75.845-1.237.099-3.187.262-4.333.363-3.141.278-18.504.384-21.997.153-11.704-.775-18.177-1.582-27.336-3.411-8.64-1.724-20.384-5.03-27-7.6a31.483 31.483 0 0 0-1.334-.489c-3.157-1.007-12.375-5.022-18.083-7.877-5.637-2.818-9.847-5.179-15.292-8.575l-1.25-.78c-1.817-1.133-5.427-3.565-7.708-5.194-5.145-3.675-4.804-3.419-9.35-7.024-1.064-.843-2.039-1.633-2.167-1.755s-.646-.558-1.15-.968-1.179-.982-1.5-1.27-1.033-.919-1.583-1.402c-4.937-4.334-13.065-12.457-16.738-16.729-.386-.448-.79-.907-.898-1.019a15.89 15.89 0 0 1-.533-.602 769.803 769.803 0 0 1-3.865-4.644l-1.666-2.105a152.533 152.533 0 0 1-3.133-4.146c-.917-1.262-1.742-2.38-1.834-2.485-.34-.39-5.416-7.932-5.416-8.048 0-.045-.213-.393-.473-.775-2.887-4.234-9.853-17.035-11.897-21.861a109.658 109.658 0 0 0-1.584-3.583c-1.344-2.882-5.66-14.297-6.207-16.417a27.747 27.747 0 0 0-.478-1.517c-1.34-3.912-3.574-12.533-4.767-18.399-.159-.78-.362-1.75-.452-2.157-.231-1.047-.951-5.284-1.234-7.26-.751-5.237-.821-5.815-1.318-10.833-.56-5.662-.674-8.616-.674-17.584 0-8.963.093-11.325.676-17.25.487-4.959.563-5.583 1.316-10.833.273-1.908.981-6.061 1.264-7.417l.418-2c1.341-6.415 3.25-13.802 4.675-18.09.242-.73.499-1.551.571-1.826s.556-1.7 1.077-3.167 1.01-2.854 1.088-3.083c.332-.983 1.933-5.144 2.339-6.084.079-.183.493-1.196.92-2.25.426-1.054.829-1.991.895-2.083.067-.092.293-.579.503-1.083 1.029-2.472 4.887-10.383 6.381-13.084.406-.733.965-1.746 1.242-2.25 2.195-3.996 4.751-8.159 7.931-12.916 2.593-3.879 3.017-4.501 3.12-4.584.057-.046.472-.608.922-1.25.45-.641.858-1.204.907-1.25.05-.046.734-.945 1.521-2 3.006-4.026 7.04-8.88 10.875-13.083 3.016-3.305 10.054-10.255 13.84-13.667.102-.093.711-.618 1.353-1.167.641-.55 1.241-1.079 1.333-1.176.317-.337 1.923-1.657 5.417-4.456 4.861-3.894 12.617-9.357 17.462-12.298l2.417-1.467c4.747-2.881 12.01-6.771 16.621-8.902a205.25 205.25 0 0 1 6.5-2.904c2.619-1.125 6.566-2.698 7.666-3.055.23-.075 1.054-.373 1.834-.664 4.529-1.689 12.101-4.033 17-5.262 11.671-2.928 22.819-4.691 34.166-5.402 1.605-.101 3.105-.208 3.334-.239 1.027-.138 19.633.049 21.5.216m1.666 60.037c-10.014.752-19.043 3.019-28 7.032-1.93.865-5.468 2.645-6.517 3.279-.311.188-.679.393-.816.456-1.124.51-8.953 5.717-9.333 6.207-.046.059-.421.365-.834.68-3.022 2.31-7.64 6.596-10.333 9.59-3.518 3.91-5.014 5.816-7.928 10.1l-2.113 3.105-1.847-.653c-26.252-9.285-55.366 7.399-61.7 35.36-.563 2.487-.523 2.396-1.199 2.705-2.334 1.065-7.385 4.316-10.213 6.574-3.706 2.959-7.142 6.298-9.919 9.638-.457.55-.876 1.037-.93 1.083-.206.172-3.601 4.954-4.143 5.833-.31.505-.815 1.307-1.122 1.783-7.882 12.225-11.503 31.654-8.785 47.134.372 2.118.723 3.902.902 4.583.084.321.274 1.109.422 1.75.479 2.074 2.954 9.242 3.395 9.834.068.091.225.429.347.75 1.055 2.758 6.225 11.7 7.323 12.666.053.046.426.534.831 1.084.714.97 1.732 2.205 3.087 3.75 2.314 2.635 6.583 6.598 9.262 8.598 3.851 2.873 5.984 4.207 10.287 6.429 2.672 1.379 2.435 1.377 2.704.014.681-3.46 2.117-6.509 4.811-10.216.204-.28.127-.351-.909-.835-7.243-3.386-14.464-9.352-19.455-16.074a284.256 284.256 0 0 0-1.243-1.666c-.072-.092-.65-.992-1.286-2-8.338-13.226-10.654-28.931-6.66-45.167.963-3.913 3.554-9.999 5.961-14 .905-1.503 3.045-4.708 3.283-4.917.053-.046.355-.421.672-.833s.653-.832.746-.931c.093-.1.581-.68 1.086-1.289 1.01-1.22 3.9-4.098 5.333-5.31 1.816-1.536 2.102-1.765 3.333-2.667 2.869-2.102 5.678-3.728 9.834-5.691 2.198-1.039 3.496-2.684 3.827-4.852 1.502-9.833 4.783-16.73 10.794-22.69 10.969-10.875 25.946-13.206 39.959-6.218 4.551 2.269 8.522.986 9.924-3.205.195-.585.429-1.139.519-1.23.107-.11.121-.057.042.152-.085.223-.063.283.073.199.107-.067.195-.192.195-.28 0-.321 2.914-4.854 4.653-7.238 6.704-9.192 15.026-16.44 25.02-21.792.324-.173.884-.722 1.245-1.22.564-.778.732-.905 1.202-.905.723 0 .699.056-.326.746-1.103.743-.831.753.646.023 17.614-8.703 40.214-8.842 58.458-.358 1.572.731 2.416.945 1.242.315-.502-.27-.521-.305-.191-.356.257-.04.589.169 1.118.706.414.42 1.075.914 1.468 1.098 1.038.486 1.782.895 2.943 1.621 10.982 6.861 18.633 14.497 25.507 25.455 2.337 3.727 5.496 10.519 7.015 15.084.816 2.45 1.675 5.554 2.331 8.416.707 3.088 1.403 7.948 1.588 11.084.437 7.438 1.091 8.369 7.016 9.994 14.578 3.999 27.601 15.798 32.742 29.667.77 2.078 1.314 3.677 1.789 5.255.885 2.943 1.063 3.65 1.132 4.5.037.459.148 1.209.247 1.667.867 4.025.824 12.345-.091 17.543-.15.848-.224 1.621-.165 1.716.058.095.024.271-.076.392s-.262.661-.359 1.201c-.186 1.029-1.673 5.595-2.519 7.731-1.351 3.414-4.601 9.195-6.532 11.62-2.59 3.252-5.322 6.166-7.386 7.88a41.007 41.007 0 0 0-1.299 1.109c-.505.497-4.018 2.947-5.585 3.892-7.359 4.445-14.705 6.496-24.254 6.772l-3.912.113v12.633l4.791-.064c2.636-.036 5.355-.152 6.042-.258l2.417-.372c22.737-3.5 42.21-20.573 49.226-43.158.385-1.238.777-2.494.873-2.792.095-.299.125-.711.067-.917-.071-.254-.056-.303.049-.153.111.16.181.069.255-.333.056-.305.219-1.08.363-1.722 2.862-12.747 1.799-25.946-3.133-38.916-2.81-7.388-8.285-15.666-14.357-21.706-2.778-2.762-7.882-6.923-9.845-8.024a82.664 82.664 0 0 1-1.748-1.042c-4.03-2.458-7.594-4.114-12.36-5.743l-.61-.208-.186-1.68c-.237-2.138-.637-4.969-.944-6.681-.53-2.955-.611-3.369-.827-4.25l-.466-1.916c-1.038-4.304-4.018-13.177-4.758-14.164-.07-.093-.226-.432-.347-.753-2.217-5.883-8.784-16.175-14.55-22.805-.701-.806-6.704-6.806-7.452-7.449-3.872-3.327-7.194-5.838-10.542-7.969l-1.833-1.168c-1.446-.922-3.056-1.776-3.35-1.776-.151 0-.275-.078-.275-.173 0-.2-4.509-2.447-6.944-3.46-4.783-1.992-8.227-3.129-12.89-4.257-2.822-.683-6.026-1.285-8.583-1.613-4.649-.596-12.03-.815-16.417-.486m46.489 11.06c.162.194.136.22-.146.147-.188-.05-.343-.156-.343-.237 0-.225.269-.176.489.09m-33.322 35.929c-.222.144-.222.162 0 .162.137 0 .362-.073.5-.162.222-.143.222-.161 0-.161-.138 0-.363.072-.5.161m172.44 14.778c-.061.061-.106.267-.1.458.01.32.023.316.17-.052.163-.408.13-.605-.07-.406m-.361 1.222c-.062.197-.076.396-.03.442s.134-.078.197-.275.076-.396.03-.442c-.045-.046-.134.078-.197.275m-53.342 65.371c.46.657.328 1.071-.158.493-.429-.51-.535-.864-.259-.864.086 0 .274.167.417.371m-11.013 2.617c-.086.43-.143.492-.257.287-.182-.323.012-1.192.219-.985.081.081.098.395.038.698m.192 1.958l-.123.471-.154-.406c-.193-.505-.048-.983.217-.717.109.109.133.37.06.652m-67.42 9.658c-5.363.485-11.352 3.206-14.687 6.672-7.844 8.153-3.8 19.612 8.437 23.913 1.008.354 1.965.644 2.125.644.277.001.292 2.088.292 41.501v41.5h14.333V321.5h11.833V311h-11.833v-4h11.833v-10.5h-11.833v-49.27l.875-.223c8.123-2.072 13.892-8.351 13.864-15.09-.041-9.953-11.523-17.223-25.239-15.98m-73.833 8.217c-2.822.415-5.574 1.692-7.959 3.694-.664.558-1.209 1.064-1.209 1.125-.001.061-.257.38-.57.709-3.487 3.679-4.631 10.677-2.583 15.794 4.867 12.155 21.446 13.69 28.163 2.607 1.143-1.885 1.681-3.31 2.077-5.5 1.927-10.654-7.167-20.007-17.919-18.429m80.5.255c.779.13 1.679.319 2 .42.32.101.845.261 1.166.357.905.268 3.527 1.597 4.084 2.069 3.544 3.008 3.948 5.226 1.468 8.061-5.391 6.163-20.218 5.746-24.726-.695-3.93-5.615 5.918-11.897 16.008-10.212m-158.17.696c-3.02.433-3.787.632-5.547 1.446-10.018 4.628-12.254 18.118-4.261 25.713 7.062 6.71 18.272 5.621 23.886-2.321 3.291-4.655 3.682-11.972.893-16.693a42.32 42.32 0 0 1-.64-1.132c-2.257-4.139-9.534-7.7-14.331-7.013m37.583 8.302c-12.567 2.528-17.064 18.217-7.736 26.992 4.769 4.486 11.662 5.57 17.571 2.763 11.673-5.547 12.097-21.953.73-28.207-2.805-1.543-7.308-2.202-10.565-1.548m33.667 23.256c-4.329.425-8.499 2.369-11.801 5.503l-1.36 1.29.997.511c3.108 1.593 6.338 4.491 8.869 7.959 1.229 1.683 2.913 5.469 3.532 7.937.549 2.191.644 3.532.774 10.922l.121 6.868.684.087c6.847.87 16.725.419 23.517-1.074 4.497-.988 9.501-2.74 10.122-3.543.341-.442.441-15.429.123-18.421-.945-8.892-7.288-15.955-15.885-17.691-1.7-.343-16.989-.613-19.693-.348m-79.25 1.115c-9.311 1.474-15.754 7.545-17.445 16.436-.368 1.939-.538 19.71-.192 20.168.129.17.866.472 1.723.706l3.081.843c.87.24 2.033.544 2.583.677.55.132 1.412.344 1.917.47 7.03 1.759 17.995 2.649 24.375 1.98l.958-.101v-6.325c0-6.504.153-9.453.603-11.632 1.455-7.04 5.084-12.214 11.403-16.256a54.081 54.081 0 0 0 1.322-.862c.146-.123-1.905-1.887-3.246-2.792-2.679-1.808-5.29-2.799-8.377-3.182-1.811-.225-17.421-.333-18.705-.13m38.417 8.213c-7.228 1.332-13.261 6.473-15.561 13.259-.987 2.912-1.189 5.484-1.189 15.121v7.955l.375.228c.206.125.825.352 1.375.503.55.152 1.934.541 3.075.865 14.338 4.069 29.904 4.446 42.175 1.02 2.588-.722 6.273-2.218 6.683-2.712.206-.249.248-16.707.048-18.813-.776-8.168-7.443-15.476-15.759-17.275-2.479-.537-18.512-.651-21.222-.151m78.67.967c1.218 2.908 1.912 6.121 1.914 8.875.001.963.049 2.144.107 2.625l.105.875h32.287v-12.666h-17.268c-16.381 0-17.261.015-17.145.291"/><path d="M190.58.102c-6.887.256-17.916 1.462-25.583 2.798-3.423.597-7.747 1.469-10.5 2.119-3.146.743-4.954 1.187-5.667 1.392-.412.119-1.2.336-1.75.483-3.565.951-5.294 1.48-10.666 3.262-6.112 2.026-16.427 5.994-17.334 6.667-.091.069-.466.241-.833.383-3.214 1.248-15.214 7.359-18.173 9.253-.18.116-.439.261-.577.323-.502.226-5.265 3.099-5.781 3.486-.291.219-.57.399-.619.399-.157 0-5.735 3.713-8.35 5.558-3.068 2.165-7.026 5.1-8.576 6.358-.338.275-.941.763-1.339 1.084-9.252 7.46-16.686 14.539-24.919 23.729-.092.103-.617.712-1.167 1.354A63.092 63.092 0 0 1 47.66 70c-.092.088-1.575 1.858-1.996 2.383-.138.172-.389.474-.558.673-1.211 1.421-4.199 5.261-5.858 7.527a74.286 74.286 0 0 1-1.309 1.756c-1.011 1.225-6.076 8.758-8.045 11.965-.356.58-.798 1.292-.982 1.583-.433.683-2.101 3.5-2.583 4.363l-1.076 1.917c-7.629 13.554-13.946 28.941-18.166 44.25-.253.916-.558 2.004-.677 2.416-.202.698-.871 3.434-1.263 5.167-.093.412-.238 1.012-.321 1.333s-.302 1.352-.487 2.292c-.186.939-.408 2.027-.494 2.416-1.309 5.904-2.606 15.372-3.35 24.453-.653 7.974-.654 22.202-.002 29.967.611 7.279 1.253 12.615 2.181 18.122.276 1.639.45 2.609.987 5.5.085.459.39 1.921.676 3.25.767 3.555.994 4.556 1.476 6.5.471 1.899.663 2.6 2.189 8 4.217 14.926 12.608 33.922 20.811 47.115.239.384.726 1.172 1.083 1.75 3.923 6.352 9.434 14.131 14.018 19.786 1.415 1.747 1.68 2.07 1.833 2.245.092.104.54.639.996 1.189.457.549.869 1.036.917 1.082s.537.608 1.087 1.249a119.45 119.45 0 0 0 2.171 2.483c.094.101 1.03 1.122 2.079 2.268 3.122 3.408 9.022 9.255 12.253 12.141.548.49 1.297 1.167 1.664 1.504 1.092 1.005 2.866 2.525 5.166 4.427l2.501 2.068c.184.152.671.539 1.083.86s.899.712 1.082.869c.583.498 4.721 3.572 7.06 5.245 1.862 1.331 8.495 5.788 9.382 6.303.158.091 1.211.735 2.34 1.429 14.043 8.639 28.037 14.944 45.636 20.563 3.321 1.06 9.557 2.715 13.833 3.67l2.25.503c.642.143 1.767.375 2.5.516s1.821.359 2.417.486c.595.126 1.608.312 2.25.413.641.101 1.804.29 2.583.42 4.513.751 9.6 1.411 13.417 1.742 1.1.095 2.862.249 3.916.342 4.276.377 10.827.536 18.334.447 9.397-.113 15.012-.512 24-1.707 4.765-.633 11.126-1.743 15.25-2.66.641-.143 1.654-.367 2.25-.497 1.451-.32 8.203-2.028 9.25-2.342.458-.137 1.245-.369 1.75-.515.504-.147 1.104-.326 1.333-.398s1.092-.335 1.917-.583c5.278-1.589 11.882-3.974 18.083-6.53 2.15-.886 2.703-1.127 5.167-2.25l1.833-.836c2.282-1.039 8.807-4.329 11.163-5.628 1.498-.826 2.747-1.502 2.774-1.502.028 0 .598-.326 1.265-.724.668-.398 2.152-1.275 3.298-1.948 1.146-.674 2.308-1.38 2.583-1.569s.63-.418.788-.509c2.761-1.593 13.666-9.11 14.629-10.084.046-.047.533-.417 1.083-.822.55-.406 1.038-.783 1.084-.838.045-.054.758-.621 1.583-1.259 1.671-1.293 5.408-4.356 5.667-4.644.091-.103.691-.636 1.333-1.186 1.394-1.193 1.175-1 3.105-2.749 4.959-4.495 10.939-10.548 15.149-15.335a70.59 70.59 0 0 1 1.341-1.5c.086-.076 3.615-4.323 4.915-5.916.299-.367 1.04-1.305 1.646-2.084L358.72 320c2.151-2.763 7.08-9.886 10.031-14.5 3.331-5.207 8.358-14.378 11.192-20.417 1.67-3.557 2.028-4.348 2.639-5.833.34-.825.674-1.575.743-1.667.116-.156 1.798-4.323 2.725-6.75.228-.596.603-1.571.834-2.166 1.232-3.175 4.227-12.584 5.385-16.917.147-.55.365-1.338.484-1.75s.308-1.162.419-1.667c.111-.504.298-1.254.415-1.666.117-.413.256-.975.308-1.25s.215-1.025.361-1.667c.389-1.714 1.063-4.876 1.243-5.833.085-.459.269-1.434.408-2.167s.335-1.895.436-2.581c.1-.686.206-1.286.235-1.333.028-.047.175-.986.325-2.086.151-1.1.378-2.713.505-3.583.416-2.849.973-8.383 1.369-13.584.416-5.463.416-20.689.001-26.166-.376-4.966-.926-10.412-1.371-13.584-.604-4.304-.752-5.258-1.249-8.083-.69-3.918-.722-4.084-1.334-6.917-.771-3.572-.996-4.563-1.477-6.5a153.332 153.332 0 0 0-1.122-4.25c-1.631-5.966-4.141-13.706-5.971-18.416-1.364-3.512-2.491-6.303-2.927-7.25a74.889 74.889 0 0 1-.913-2.084c-.44-1.054-.591-1.391-1.798-4-1.98-4.279-5.827-11.746-7.061-13.705-.215-.342-.391-.66-.391-.708 0-.094-3.784-6.463-4.409-7.42-4.163-6.381-7.79-11.625-10.028-14.5-2.807-3.607-6.071-7.629-7.911-9.75-3.889-4.481-6.018-6.77-9.994-10.743-2.19-2.188-5.681-5.527-7.348-7.028-3.773-3.396-8.34-7.225-11.477-9.622a222.145 222.145 0 0 1-1.833-1.409c-2.685-2.141-9.91-7.154-13.948-9.679-.716-.447-1.565-.982-1.886-1.188-.866-.555-3.678-2.225-5.666-3.366a228.306 228.306 0 0 0-5.25-2.917c-1.71-.929-9.603-4.819-11.25-5.544a193.95 193.95 0 0 1-2.417-1.084c-1.032-.475-5.672-2.388-7.583-3.125-.596-.23-1.459-.57-1.917-.754-1.897-.765-9.936-3.527-11.75-4.038-.413-.116-1.5-.438-2.417-.714-.916-.276-2.416-.705-3.333-.953s-2.004-.55-2.417-.672c-.742-.22-1.505-.406-4.416-1.077a410.65 410.65 0 0 1-2.5-.586c-1.327-.318-4.113-.897-5.225-1.087-.49-.083-1.015-.191-1.166-.239-.302-.095-5.574-.981-7.443-1.251l-2.833-.412c-2.689-.392-7.743-.921-13-1.362-2.996-.251-18.925-.456-23.167-.298m21.584 13.205c1.146.102 3.058.266 4.25.364 10.313.847 25.925 3.74 34.583 6.408.412.127 1.762.542 3 .921 3.63 1.113 8.149 2.647 11.083 3.763.642.244 1.438.543 1.769.665.99.364 3.62 1.436 4.859 1.981.345.151 1.47.637 2.5 1.078 7.491 3.212 17.185 8.308 23.956 12.593a203.922 203.922 0 0 1 10.75 7.26c1.833 1.322 3.483 2.53 3.666 2.684.184.155.971.777 1.75 1.384.779.606 1.529 1.194 1.667 1.306.137.112.625.503 1.083.87.458.366.919.741 1.023.833.104.091.554.474 1 .85 6.296 5.309 13.076 11.762 17.736 16.879.866.951 1.691 1.851 1.834 2 .782.816 4.703 5.464 6.491 7.693.321.401.773.957 1.005 1.236.231.28.756.958 1.166 1.508.409.55.789 1.038.843 1.084.195.166 4.132 5.641 5.752 8 1.327 1.932 3.158 4.76 5.072 7.833.321.515 3.292 5.619 3.784 6.5 1.484 2.659 4.809 9.176 5.951 11.667.4.87.964 2.102 1.254 2.736 1.036 2.264 3.284 7.762 4.655 11.386 1.515 4.002 4.044 11.898 5.086 15.878 1.016 3.884 1.653 6.575 2.682 11.333.449 2.076 1.18 6.22 1.749 9.917 2.475 16.08 2.622 35.287.401 52.25-.534 4.079-1.488 9.771-2.15 12.833-1.029 4.758-1.666 7.449-2.682 11.333-1.042 3.98-3.571 11.876-5.086 15.878-1.554 4.106-3.793 9.542-4.916 11.933-.403.858-.733 1.592-.733 1.631 0 .562-5.72 11.45-8.392 15.975-3.587 6.072-6.097 9.886-10.588 16.083-.963 1.329-1.793 2.454-1.844 2.5-.052.046-.431.534-.843 1.084s-.788 1.037-.837 1.083a18.61 18.61 0 0 0-.663.833c-.316.413-.614.788-.662.834-.049.045-.538.646-1.088 1.333-.549.688-1.037 1.287-1.083 1.333s-1.02 1.171-2.164 2.5a501.958 501.958 0 0 1-2.583 2.982c-3.741 4.208-11.823 12.177-15.586 15.37-.688.583-1.288 1.1-1.334 1.149-.466.493-5.177 4.34-8.166 6.669-5.712 4.45-16.241 11.437-21.579 14.32-.731.395-1.481.817-1.667.938-.706.459-3.984 2.157-7.838 4.06-5.088 2.513-5.715 2.8-10.583 4.848-1.788.752-3.719 1.545-4.293 1.763l-2.166.823c-4.998 1.899-12.132 4.181-17.124 5.477-1.284.333-2.709.711-3.167.84-3.904 1.101-15.244 3.246-20.667 3.909-4.526.553-5.699.681-7.75.845-1.237.099-3.187.262-4.333.363-3.141.278-18.504.384-21.997.153-11.704-.775-18.177-1.582-27.336-3.411-8.64-1.724-20.384-5.03-27-7.6a31.483 31.483 0 0 0-1.334-.489c-3.157-1.007-12.375-5.022-18.083-7.877-5.637-2.818-9.847-5.179-15.292-8.575l-1.25-.78c-1.817-1.133-5.427-3.565-7.708-5.194-5.145-3.675-4.804-3.419-9.35-7.024-1.064-.843-2.039-1.633-2.167-1.755s-.646-.558-1.15-.968-1.179-.982-1.5-1.27-1.033-.919-1.583-1.402c-4.937-4.334-13.065-12.457-16.738-16.729-.386-.448-.79-.907-.898-1.019a15.89 15.89 0 0 1-.533-.602 769.803 769.803 0 0 1-3.865-4.644l-1.666-2.105a152.533 152.533 0 0 1-3.133-4.146c-.917-1.262-1.742-2.38-1.834-2.485-.34-.39-5.416-7.932-5.416-8.048 0-.045-.213-.393-.473-.775-2.887-4.234-9.853-17.035-11.897-21.861a109.658 109.658 0 0 0-1.584-3.583c-1.344-2.882-5.66-14.297-6.207-16.417a27.747 27.747 0 0 0-.478-1.517c-1.34-3.912-3.574-12.533-4.767-18.399-.159-.78-.362-1.75-.452-2.157-.231-1.047-.951-5.284-1.234-7.26-.751-5.237-.821-5.815-1.318-10.833-.56-5.662-.674-8.616-.674-17.584 0-8.963.093-11.325.676-17.25.487-4.959.563-5.583 1.316-10.833.273-1.908.981-6.061 1.264-7.417l.418-2c1.341-6.415 3.25-13.802 4.675-18.09.242-.73.499-1.551.571-1.826s.556-1.7 1.077-3.167 1.01-2.854 1.088-3.083c.332-.983 1.933-5.144 2.339-6.084.079-.183.493-1.196.92-2.25.426-1.054.829-1.991.895-2.083.067-.092.293-.579.503-1.083 1.029-2.472 4.887-10.383 6.381-13.084.406-.733.965-1.746 1.242-2.25 2.195-3.996 4.751-8.159 7.931-12.916 2.593-3.879 3.017-4.501 3.12-4.584.057-.046.472-.608.922-1.25.45-.641.858-1.204.907-1.25.05-.046.734-.945 1.521-2 3.006-4.026 7.04-8.88 10.875-13.083 3.016-3.305 10.054-10.255 13.84-13.667.102-.093.711-.618 1.353-1.167.641-.55 1.241-1.079 1.333-1.176.317-.337 1.923-1.657 5.417-4.456 4.861-3.894 12.617-9.357 17.462-12.298l2.417-1.467c4.747-2.881 12.01-6.771 16.621-8.902a205.25 205.25 0 0 1 6.5-2.904c2.619-1.125 6.566-2.698 7.666-3.055.23-.075 1.054-.373 1.834-.664 4.529-1.689 12.101-4.033 17-5.262 11.671-2.928 22.819-4.691 34.166-5.402 1.605-.101 3.105-.208 3.334-.239 1.027-.138 19.633.049 21.5.216m1.666 60.037c-10.014.752-19.043 3.019-28 7.032-1.93.865-5.468 2.645-6.517 3.279-.311.188-.679.393-.816.456-1.124.51-8.953 5.717-9.333 6.207-.046.059-.421.365-.834.68-3.022 2.31-7.64 6.596-10.333 9.59-3.518 3.91-5.014 5.816-7.928 10.1l-2.113 3.105-1.847-.653c-26.252-9.285-55.366 7.399-61.7 35.36-.563 2.487-.523 2.396-1.199 2.705-2.334 1.065-7.385 4.316-10.213 6.574-3.706 2.959-7.142 6.298-9.919 9.638-.457.55-.876 1.037-.93 1.083-.206.172-3.601 4.954-4.143 5.833-.31.505-.815 1.307-1.122 1.783-7.882 12.225-11.503 31.654-8.785 47.134.372 2.118.723 3.902.902 4.583.084.321.274 1.109.422 1.75.479 2.074 2.954 9.242 3.395 9.834.068.091.225.429.347.75 1.055 2.758 6.225 11.7 7.323 12.666.053.046.426.534.831 1.084.714.97 1.732 2.205 3.087 3.75 2.314 2.635 6.583 6.598 9.262 8.598 3.851 2.873 5.984 4.207 10.287 6.429 2.672 1.379 2.435 1.377 2.704.014.681-3.46 2.117-6.509 4.811-10.216.204-.28.127-.351-.909-.835-7.243-3.386-14.464-9.352-19.455-16.074a284.256 284.256 0 0 0-1.243-1.666c-.072-.092-.65-.992-1.286-2-8.338-13.226-10.654-28.931-6.66-45.167.963-3.913 3.554-9.999 5.961-14 .905-1.503 3.045-4.708 3.283-4.917.053-.046.355-.421.672-.833s.653-.832.746-.931c.093-.1.581-.68 1.086-1.289 1.01-1.22 3.9-4.098 5.333-5.31 1.816-1.536 2.102-1.765 3.333-2.667 2.869-2.102 5.678-3.728 9.834-5.691 2.198-1.039 3.496-2.684 3.827-4.852 1.502-9.833 4.783-16.73 10.794-22.69 10.969-10.875 25.946-13.206 39.959-6.218 4.551 2.269 8.522.986 9.924-3.205.195-.585.429-1.139.519-1.23.107-.11.121-.057.042.152-.085.223-.063.283.073.199.107-.067.195-.192.195-.28 0-.321 2.914-4.854 4.653-7.238 6.704-9.192 15.026-16.44 25.02-21.792.324-.173.884-.722 1.245-1.22.564-.778.732-.905 1.202-.905.723 0 .699.056-.326.746-1.103.743-.831.753.646.023 17.614-8.703 40.214-8.842 58.458-.358 1.572.731 2.416.945 1.242.315-.502-.27-.521-.305-.191-.356.257-.04.589.169 1.118.706.414.42 1.075.914 1.468 1.098 1.038.486 1.782.895 2.943 1.621 10.982 6.861 18.633 14.497 25.507 25.455 2.337 3.727 5.496 10.519 7.015 15.084.816 2.45 1.675 5.554 2.331 8.416.707 3.088 1.403 7.948 1.588 11.084.437 7.438 1.091 8.369 7.016 9.994 14.578 3.999 27.601 15.798 32.742 29.667.77 2.078 1.314 3.677 1.789 5.255.885 2.943 1.063 3.65 1.132 4.5.037.459.148 1.209.247 1.667.867 4.025.824 12.345-.091 17.543-.15.848-.224 1.621-.165 1.716.058.095.024.271-.076.392s-.262.661-.359 1.201c-.186 1.029-1.673 5.595-2.519 7.731-1.351 3.414-4.601 9.195-6.532 11.62-2.59 3.252-5.322 6.166-7.386 7.88a41.007 41.007 0 0 0-1.299 1.109c-.505.497-4.018 2.947-5.585 3.892-7.359 4.445-14.705 6.496-24.254 6.772l-3.912.113v12.633l4.791-.064c2.636-.036 5.355-.152 6.042-.258l2.417-.372c22.737-3.5 42.21-20.573 49.226-43.158.385-1.238.777-2.494.873-2.792.095-.299.125-.711.067-.917-.071-.254-.056-.303.049-.153.111.16.181.069.255-.333.056-.305.219-1.08.363-1.722 2.862-12.747 1.799-25.946-3.133-38.916-2.81-7.388-8.285-15.666-14.357-21.706-2.778-2.762-7.882-6.923-9.845-8.024a82.664 82.664 0 0 1-1.748-1.042c-4.03-2.458-7.594-4.114-12.36-5.743l-.61-.208-.186-1.68c-.237-2.138-.637-4.969-.944-6.681-.53-2.955-.611-3.369-.827-4.25l-.466-1.916c-1.038-4.304-4.018-13.177-4.758-14.164-.07-.093-.226-.432-.347-.753-2.217-5.883-8.784-16.175-14.55-22.805-.701-.806-6.704-6.806-7.452-7.449-3.872-3.327-7.194-5.838-10.542-7.969l-1.833-1.168c-1.446-.922-3.056-1.776-3.35-1.776-.151 0-.275-.078-.275-.173 0-.2-4.509-2.447-6.944-3.46-4.783-1.992-8.227-3.129-12.89-4.257-2.822-.683-6.026-1.285-8.583-1.613-4.649-.596-12.03-.815-16.417-.486m46.489 11.06c.162.194.136.22-.146.147-.188-.05-.343-.156-.343-.237 0-.225.269-.176.489.09m-33.322 35.929c-.222.144-.222.162 0 .162.137 0 .362-.073.5-.162.222-.143.222-.161 0-.161-.138 0-.363.072-.5.161m172.44 14.778c-.061.061-.106.267-.1.458.01.32.023.316.17-.052.163-.408.13-.605-.07-.406m-.361 1.222c-.062.197-.076.396-.03.442s.134-.078.197-.275.076-.396.03-.442c-.045-.046-.134.078-.197.275m-53.342 65.371c.46.657.328 1.071-.158.493-.429-.51-.535-.864-.259-.864.086 0 .274.167.417.371m-11.013 2.617c-.086.43-.143.492-.257.287-.182-.323.012-1.192.219-.985.081.081.098.395.038.698m.192 1.958l-.123.471-.154-.406c-.193-.505-.048-.983.217-.717.109.109.133.37.06.652m-67.42 9.658c-5.363.485-11.352 3.206-14.687 6.672-7.844 8.153-3.8 19.612 8.437 23.913 1.008.354 1.965.644 2.125.644.277.001.292 2.088.292 41.501v41.5h14.333V321.5h11.833V311h-11.833v-4h11.833v-10.5h-11.833v-49.27l.875-.223c8.123-2.072 13.892-8.351 13.864-15.09-.041-9.953-11.523-17.223-25.239-15.98m-73.833 8.217c-2.822.415-5.574 1.692-7.959 3.694-.664.558-1.209 1.064-1.209 1.125-.001.061-.257.38-.57.709-3.487 3.679-4.631 10.677-2.583 15.794 4.867 12.155 21.446 13.69 28.163 2.607 1.143-1.885 1.681-3.31 2.077-5.5 1.927-10.654-7.167-20.007-17.919-18.429m80.5.255c.779.13 1.679.319 2 .42.32.101.845.261 1.166.357.905.268 3.527 1.597 4.084 2.069 3.544 3.008 3.948 5.226 1.468 8.061-5.391 6.163-20.218 5.746-24.726-.695-3.93-5.615 5.918-11.897 16.008-10.212m-158.17.696c-3.02.433-3.787.632-5.547 1.446-10.018 4.628-12.254 18.118-4.261 25.713 7.062 6.71 18.272 5.621 23.886-2.321 3.291-4.655 3.682-11.972.893-16.693a42.32 42.32 0 0 1-.64-1.132c-2.257-4.139-9.534-7.7-14.331-7.013m37.583 8.302c-12.567 2.528-17.064 18.217-7.736 26.992 4.769 4.486 11.662 5.57 17.571 2.763 11.673-5.547 12.097-21.953.73-28.207-2.805-1.543-7.308-2.202-10.565-1.548m33.667 23.256c-4.329.425-8.499 2.369-11.801 5.503l-1.36 1.29.997.511c3.108 1.593 6.338 4.491 8.869 7.959 1.229 1.683 2.913 5.469 3.532 7.937.549 2.191.644 3.532.774 10.922l.121 6.868.684.087c6.847.87 16.725.419 23.517-1.074 4.497-.988 9.501-2.74 10.122-3.543.341-.442.441-15.429.123-18.421-.945-8.892-7.288-15.955-15.885-17.691-1.7-.343-16.989-.613-19.693-.348m-79.25 1.115c-9.311 1.474-15.754 7.545-17.445 16.436-.368 1.939-.538 19.71-.192 20.168.129.17.866.472 1.723.706l3.081.843c.87.24 2.033.544 2.583.677.55.132 1.412.344 1.917.47 7.03 1.759 17.995 2.649 24.375 1.98l.958-.101v-6.325c0-6.504.153-9.453.603-11.632 1.455-7.04 5.084-12.214 11.403-16.256a54.081 54.081 0 0 0 1.322-.862c.146-.123-1.905-1.887-3.246-2.792-2.679-1.808-5.29-2.799-8.377-3.182-1.811-.225-17.421-.333-18.705-.13m38.417 8.213c-7.228 1.332-13.261 6.473-15.561 13.259-.987 2.912-1.189 5.484-1.189 15.121v7.955l.375.228c.206.125.825.352 1.375.503.55.152 1.934.541 3.075.865 14.338 4.069 29.904 4.446 42.175 1.02 2.588-.722 6.273-2.218 6.683-2.712.206-.249.248-16.707.048-18.813-.776-8.168-7.443-15.476-15.759-17.275-2.479-.537-18.512-.651-21.222-.151m78.67.967c1.218 2.908 1.912 6.121 1.914 8.875.001.963.049 2.144.107 2.625l.105.875h32.287v-12.666h-17.268c-16.381 0-17.261.015-17.145.291"/></g></svg>