<svg enable-background="new 0 0 36 36" viewBox="0 0 36 36" xmlns="http://www.w3.org/2000/svg" xmlns:xlink="http://www.w3.org/1999/xlink" width="{{ .width }}" height="{{ .height }}">
    <defs>
        <circle id="a" cx="20.9" cy="6.9" r="1.6"/>
        <clipPath id="b">
            <use overflow="visible" xlink:href="#a"/>
        </clipPath>
    </defs>
    <g clip-path="url(#b)" fill="{{ .fill }}">
        <path d="m14.3.3h13.2v13.2h-13.2z"/>
    </g>
    <path d="m26.7 7.4c-.6 0-1-.4-1-1 0-1.9-2.1-4-4-4-.6 0-1-.4-1-1s .4-1 1-1c3 0 6 3 6 6 0 .5-.5 1-1 1z" fill="{{ .fill }}"/>
    <path
        d="m29.7 35.6h-23.4c-2.8 0-5-2.2-5-4.8v-.4c0-2.6 2.2-4.8 5-4.8h1.8c.6 0 1 .4 1 1s-.4 1-1 1h-1.8c-1.7 0-3 1.3-3 2.8v.4c0 1.5 1.3 2.8 3 2.8h23.5c1.7 0 3-1.3 3-2.8v-.4c0-1.5-1.3-2.8-3-2.8h-2.1c-.6 0-1-.4-1-1s .4-1 1-1h2.1c2.8 0 5 2.2 5 4.8v.4c-.1 2.6-2.3 4.8-5.1 4.8z"
        fill="{{ .fill }}"/>
    <path
        d="m17.9 30.6c0 0 0 0 0 0-1.3 0-2.4-.6-3.3-1.7l-4.2-5.1c-1.3-1.5-1-2.7-.7-3.2.3-.6 1-1.5 3-1.5h1.5c.6 0 1 .4 1 1s-.4 1-1 1h-1.5c-.8 0-1.1.2-1.2.3-.1.1 0 .5.5 1.1l4.2 5.1c1 1.2 2.5 1.2 3.5 0l4.2-5.1c.5-.6.5-1 .5-1.1-.1-.1-.4-.3-1.2-.3h-1.9c-.6 0-1-.4-1-1s .4-1 1-1h1.9c2 0 2.7.9 3 1.5.3.6.5 1.7-.7 3.2l-4.3 5.2c-.9 1-2 1.6-3.3 1.6z"
        fill="{{ .fill }}"/>
    <path d="m21.3 21.1c-.6 0-1-.4-1-1v-9.1c0-.6.4-1 1-1s1 .4 1 1v9.1c0 .5-.5 1-1 1zm-7 0c-.6 0-1-.4-1-1v-13.5c0-1.7 1.3-3 3-3h1.3c.6 0 1 .4 1 1s-.4 1-1 1h-1.3c-.6 0-1 .4-1 1v13.5c0 .5-.5 1-1 1z" fill="{{ .fill }}"/>
</svg>
