<svg viewBox="0 0 400 400" width="400" height="400" xmlns="http://www.w3.org/2000/svg"><g fill="#fff" fill-rule="evenodd"><path d="M192.5.101c-4.695.138-14.558.988-19.167 1.652-.87.125-2.221.313-3 .416-.779.104-1.979.288-2.666.408-.688.121-1.775.308-2.417.416-1.165.195-2.558.455-4.917.919C150.4 5.865 138.75 9.222 129 12.941c-2.797 1.067-8.827 3.537-9.083 3.72-.092.066-.473.238-.847.383-3.41 1.323-15.663 7.578-19.787 10.103-.617.377-1.156.686-1.198.686-.128 0-6.562 4.054-8.972 5.654-2.894 1.92-8.263 5.771-10.921 7.833-2.121 1.646-6.544 5.174-6.692 5.338-.046.05-.608.542-1.249 1.092-4.5 3.859-7.409 6.555-11.677 10.824-4.269 4.268-6.965 7.177-10.824 11.677a54.075 54.075 0 0 1-1.091 1.249c-.051.046-.937 1.133-1.97 2.417a2873.257 2873.257 0 0 1-2.11 2.618c-5.255 6.477-12.437 17.274-17.382 26.132L24.451 104c-1.452 2.587-5.168 9.976-6.369 12.667-.43.962-.933 2.083-1.117 2.49-.476 1.049-2.94 6.94-3.204 7.66-.122.33-.407 1.087-.635 1.683-2.908 7.611-5.381 15.395-7.068 22.25-.136.55-.434 1.75-.663 2.667a78.212 78.212 0 0 0-.569 2.416c-.084.413-.269 1.275-.41 1.917s-.367 1.729-.503 2.417l-.495 2.5C2.246 168.581 1.242 176.253.497 185c-.801 9.409-.562 26.52.497 35.583.086.734.239 2.084.341 3 1.009 9.054 2.819 18.558 5.398 28.337.415 1.574 1.778 6.292 2.189 7.58.753 2.359 2.499 7.561 2.825 8.417.21.55.659 1.75.998 2.666.588 1.588 1.709 4.428 2.171 5.5l.395.917c.099.229.527 1.242.951 2.25 1.343 3.192 1.795 4.17 4.165 9 1.034 2.108 2.308 4.621 2.832 5.583.523.963 1.212 2.238 1.531 2.834.319.595.636 1.158.706 1.25.069.091.332.541.584 1 .509.927 2.744 4.716 3.812 6.463 1.604 2.623 5.827 8.951 7.448 11.161 1.864 2.54 3.731 5.046 3.819 5.126.051.045.425.533.831 1.083s.782 1.037.836 1.083c.055.046.36.421.678.834.319.412.739.937.934 1.166.195.23 1.128 1.355 2.073 2.5.946 1.146 1.957 2.346 2.248 2.667.292.321 1.155 1.296 1.92 2.167 2.544 2.896 10.483 10.992 13.571 13.838 2.062 1.901 5.402 4.821 7.417 6.483 1.146.946 2.271 1.879 2.5 2.074s.754.615 1.166.934c.413.318.788.623.834.678.045.054.533.43 1.083.836s1.037.78 1.083.831.984.757 2.084 1.571c1.1.813 2.375 1.759 2.833 2.103 1.168.876 3.35 2.364 6.75 4.603 4.245 2.796 4.365 2.872 6.917 4.381a909.77 909.77 0 0 1 3.127 1.857c.437.263.832.477.878.477.047 0 .396.197.777.438 3.057 1.929 12.616 6.707 18.468 9.229.687.297 1.55.672 1.916.834.367.162 1.079.461 1.584.664.504.204 1.066.433 1.25.51.302.128 1.57.629 3.583 1.415 3.125 1.221 11.188 3.973 13.917 4.751l1.916.547c3.295.942 4.093 1.155 7.584 2.019 3.23.801 6.131 1.47 7.416 1.713.23.043 1.167.225 2.084.404 6.169 1.207 13.566 2.274 19.416 2.801 8.242.742 8.379.747 19.167.747 10.941 0 15.183-.206 22.5-1.091.779-.094 1.979-.238 2.667-.319 7.908-.938 20.833-3.46 26.833-5.236.412-.123 1.5-.428 2.417-.679a71.878 71.878 0 0 0 2.333-.674c.367-.119 1.342-.418 2.167-.663 1.866-.556 7.655-2.479 9-2.991.55-.209 1.75-.658 2.666-.997 1.942-.72 9.594-3.877 11.417-4.712l2-.913c1.957-.892 8.329-4.078 10.406-5.204 1.278-.693 2.345-1.259 2.372-1.259s.54-.3 1.139-.667 1.12-.667 1.158-.667c.079 0 4.33-2.491 5.368-3.146 5.057-3.191 7.37-4.725 11.224-7.443a180.01 180.01 0 0 0 2.833-2.023 458.03 458.03 0 0 1 2.917-2.237c2.408-1.838 6.874-5.396 7.083-5.642.046-.054.571-.5 1.167-.992 1.397-1.152 4.244-3.678 6.583-5.839 3.119-2.883 10.672-10.617 13.349-13.67.358-.408.764-.858.901-1.001.137-.142.812-.933 1.499-1.758.688-.824 1.296-1.536 1.351-1.582.056-.046 1.184-1.433 2.507-3.083 9.454-11.789 17.149-23.845 23.636-37.028 1.314-2.669 1.882-3.881 3.623-7.718.526-1.16 2.812-6.638 3.115-7.463.126-.344.428-1.15.672-1.791a189.838 189.838 0 0 0 2.042-5.584c.875-2.478 2.1-6.2 2.387-7.25.075-.275.36-1.25.633-2.166 1.771-5.95 2.789-10.115 4.258-17.417.744-3.697 1.774-9.909 2.1-12.667.092-.779.277-2.316.411-3.416s.324-2.975.422-4.167.254-3.029.346-4.083c.354-4.051.536-11.568.439-18.084-.156-10.376-.974-19.723-2.537-29l-.419-2.5a99.05 99.05 0 0 0-.41-2.25l-.488-2.5c-.722-3.688-2.186-9.892-3.089-13.083l-.657-2.333c-1.362-4.863-3.545-11.434-5.274-15.874-.223-.573-.586-1.51-.806-2.084-.745-1.939-2.645-6.541-2.77-6.709-.069-.092-.307-.617-.53-1.167-.946-2.329-4.814-10.234-6.972-14.246-.97-1.804-3.547-6.302-4.489-7.837l-1.019-1.667c-2.996-4.904-8.26-12.564-11.519-16.762-.575-.74-1.27-1.64-1.545-2a126.37 126.37 0 0 0-2.117-2.654c-1.031-1.257-4.125-4.934-4.542-5.399a179.385 179.385 0 0 1-1.577-1.771c-2.049-2.312-4.757-5.159-7.763-8.164-3.542-3.54-6.079-5.929-9.483-8.928a61.156 61.156 0 0 1-.833-.744c-.173-.16-4.28-3.608-5.019-4.212a120.502 120.502 0 0 0-2.434-1.952l-1.75-1.329c-.724-.55-1.353-1.04-1.399-1.089-.364-.393-7.797-5.662-7.987-5.662a.24.24 0 0 1-.207-.133c-.076-.181-6.699-4.534-6.899-4.534-.053 0-.335-.178-.626-.396a14.31 14.31 0 0 0-1.23-.792c-.385-.217-1.318-.761-2.074-1.208-5.341-3.157-13.394-7.353-18.56-9.671a798.91 798.91 0 0 1-3-1.352c-.834-.38-3.273-1.388-6.25-2.584-10.399-4.176-23.168-7.963-34-10.084-.688-.134-1.625-.32-2.084-.412-6.252-1.259-15.51-2.435-24.333-3.091-3.351-.249-16.233-.441-20.75-.309m16.583 13.15c5.526.279 11.172.762 14.631 1.251.661.094 1.803.249 2.536.346 1.815.239 6.222.947 7.75 1.244 6.396 1.246 12.19 2.575 16 3.672.779.225 1.717.49 2.083.589.367.1.967.28 1.334.4.366.121 1.904.605 3.416 1.077 1.513.472 3.238 1.035 3.834 1.252.595.216 1.87.671 2.833 1.01 2.324.819 8.452 3.233 9.917 3.907.641.295 1.504.671 1.916.835 1.27.503 5.421 2.475 8.834 4.194 3.063 1.544 4.143 2.114 6.333 3.343.504.282 1.254.702 1.667.931 1.044.582 5.118 2.986 5.875 3.467.343.219.925.585 1.291.814.367.23.975.621 1.352.869.377.249.828.53 1.001.625.603.33 6.233 4.179 7.645 5.226l1.91 1.416c2.45 1.818 6.564 5.041 7.698 6.031.105.092.331.279.502.417a123.46 123.46 0 0 1 2.392 2.001c.046.047.683.609 1.416 1.25 4.99 4.366 11.983 11.274 16.002 15.809 1.188 1.341 3.797 4.364 4.249 4.923.321.398.658.808.75.912 1.076 1.226 5.642 7.081 6.58 8.438.222.321.448.621.501.667.249.214 5.051 7.203 5.749 8.366.094.156.706 1.131 1.361 2.167 3.968 6.277 12.559 22.395 12.559 23.562 0 .047.216.551.481 1.12 2.231 4.799 5.887 14.771 7.772 21.201 1.04 3.55 1.679 5.875 2.012 7.334.126.55.338 1.412.471 1.916 1.111 4.218 2.73 12.63 3.416 17.75.52 3.879.677 5.177.844 7 .102 1.1.259 2.75.35 3.667 1.079 10.83.697 28.702-.848 39.63a227.63 227.63 0 0 0-.341 2.537c-.094.733-.278 1.97-.407 2.75-.13.779-.32 1.941-.422 2.583s-.288 1.692-.414 2.333c-.125.642-.342 1.767-.482 2.5-1.758 9.199-4.937 20.274-8.515 29.667-.245.642-.583 1.542-.752 2-1.807 4.899-8.781 19.758-10.169 21.667-.067.091-.404.691-.75 1.333-.345.642-1.386 2.441-2.312 3.999l-1.851 3.116a151.94 151.94 0 0 1-1.416 2.228 515.743 515.743 0 0 0-1.5 2.34c-1.142 1.807-5.512 7.93-7.346 10.293-.772.994-1.554 2.011-1.738 2.26-.707.957-5.715 7.02-5.931 7.181-.062.045-.393.42-.735.833-2.876 3.463-12.404 12.999-16.917 16.93-.413.359-.788.696-.833.748-.046.052-1.246 1.055-2.667 2.229s-2.771 2.295-3 2.491c-1.624 1.388-11.348 8.602-11.595 8.602-.039 0-.577.36-1.196.8-1.945 1.383-4.966 3.277-9.542 5.984-5.103 3.017-11.236 6.248-16.167 8.514-2.826 1.299-9.205 4.018-10.792 4.6-.344.125-1.15.428-1.791.672-2.337.889-6.79 2.458-8.334 2.936-6.422 1.99-9.665 2.888-15.083 4.177-3.585.852-7.877 1.719-10.667 2.154-.687.107-1.812.295-2.5.417-.687.122-1.85.301-2.583.399-3.737.499-5.158.672-6.833.834-1.009.097-2.621.255-3.584.35-8.695.856-23.971.856-32.666 0-.963-.095-2.575-.253-3.584-.35-14.731-1.423-31.488-5.4-46-10.917a225.65 225.65 0 0 0-1.774-.667c-1.134-.416-6.452-2.637-8.642-3.608-4.762-2.113-12.078-5.827-15.889-8.067-.993-.584-1.831-1.061-1.862-1.061s-.661-.375-1.4-.834c-.739-.458-1.387-.833-1.441-.833-.053 0-.336-.179-.628-.399a10.92 10.92 0 0 0-1.114-.715c-.659-.359-1.729-1.04-4.5-2.864-1.867-1.23-9.5-6.643-9.666-6.855-.046-.058-.534-.438-1.084-.844s-1.037-.778-1.083-.826c-.046-.049-.421-.35-.833-.668s-.899-.705-1.083-.859c-.184-.153-1.084-.893-2.001-1.644-9.052-7.411-17.998-16.357-25.409-25.409a633.432 633.432 0 0 0-1.644-2.001c-.154-.184-.541-.671-.859-1.083s-.619-.787-.668-.833c-.048-.046-.42-.533-.826-1.083s-.785-1.038-.842-1.084c-.164-.132-4.648-6.399-6.022-8.416-2.357-3.462-6.932-10.965-8.741-14.334a988.238 988.238 0 0 0-1.395-2.583c-.702-1.291-3.646-7.214-4.391-8.833l-.945-2.052c-.551-1.194-3.384-7.951-3.752-8.948-.118-.321-.415-1.109-.659-1.75-2.456-6.458-5.139-15.16-6.681-21.667-.326-1.375-.701-2.95-.835-3.5-.293-1.208-1.474-7.206-1.738-8.833-.105-.642-.296-1.805-.426-2.584-.129-.779-.318-2.054-.419-2.833s-.285-2.167-.41-3.083c-.124-.917-.312-2.567-.416-3.667-.105-1.1-.263-2.713-.351-3.583-.837-8.254-.833-23.83.009-32.334.095-.962.253-2.575.35-3.583s.285-2.658.418-3.667c.132-1.008.321-2.471.42-3.25s.281-1.979.404-2.666c.124-.688.31-1.813.415-2.5.105-.688.291-1.738.414-2.334s.345-1.721.493-2.5c.149-.779.339-1.716.425-2.083.085-.367.388-1.717.673-3 .472-2.126 1.168-4.918 1.994-8.007.738-2.757 3.52-11.553 4.138-13.082.092-.226.443-1.161.782-2.078 1.271-3.442 3.298-8.438 4.349-10.72.309-.671.562-1.247.562-1.278 0-.277 4.466-9.276 5.874-11.835l1.463-2.667c2.438-4.458 7.152-11.894 10.724-16.916 1.043-1.466 4.444-6.02 4.607-6.167.05-.046.614-.758 1.252-1.583 1.127-1.457 4.164-5.15 4.721-5.741.152-.162.49-.548.752-.86 3.597-4.275 11.464-12.236 16.776-16.977.87-.776 1.724-1.526 1.898-1.667.174-.14.439-.368.589-.505 1.595-1.464 5.714-4.765 9.957-7.978 4.249-3.218 10.762-7.617 15.054-10.166.504-.299 1.404-.842 2-1.207s1.233-.739 1.416-.83a12.3 12.3 0 0 0 .668-.368c.44-.265 2.697-1.521 4.166-2.319 3.192-1.736 11.387-5.731 13.298-6.485.477-.188.943-.402 1.035-.475.164-.131 6.902-2.835 9.5-3.813 5.229-1.967 14.111-4.72 18.917-5.863 4.043-.961 6.086-1.418 8.916-1.994 5.393-1.097 12.643-2.2 17.5-2.661l3.75-.36c6.309-.613 17.054-.785 24.75-.397m-98.25 83.751c-5.045.869-9.54 5.179-10.773 10.331-.377 1.573-.584 96.144-.219 99.576.631 5.922 4.23 10.204 10.076 11.985 1.163.355 1.23.356 20.916.356h19.75l1.334-.393c4.755-1.401 7.95-4.487 9.53-9.203l.47-1.404v-100.5l-.458-1.351c-1.72-5.074-5.71-8.59-10.658-9.393-1.241-.201-38.8-.205-39.968-.004m72.834-.061c-5.166.827-9.175 4.475-10.964 9.976-.326 1.003-.534 97.177-.215 99.607.785 5.989 5.732 10.744 11.929 11.467 2.03.237 36.152.24 38.087.003 6.346-.775 11.136-5.457 11.986-11.714.312-2.304.24-96.134-.077-98.084-.866-5.341-4.417-9.268-9.996-11.057-.633-.203-39.54-.392-40.75-.198m72.75.509c-6.515.931-11.265 5.795-11.93 12.217-.333 3.208-.119 97.411.223 98.583 1.584 5.422 5.234 8.968 10.455 10.155 1.01.23 3.511.262 20.451.261h19.301l1.5-.404c4.994-1.347 8.547-4.836 9.852-9.679.305-1.131.314-2.68.314-50.666v-49.5l-.47-1.404c-1.303-3.892-3.532-6.48-7.139-8.292-.834-.419-1.09-.511-2.807-1.016-.874-.256-38.07-.495-39.75-.255m-104.88 6.439c1.548.767 2.632 1.876 3.469 3.544l.577 1.15.045 48.917c.03 32.93-.011 49.179-.126 49.721-.489 2.306-2.218 4.264-4.691 5.316l-.894.38h-38l-1.276-.551c-1.631-.704-3.065-2.072-3.847-3.671l-.544-1.112-.043-49.074c-.048-54.296-.131-50.101 1.036-51.926 1.006-1.573 3.007-3.011 4.59-3.299.23-.042 8.967-.067 19.417-.055l19 .021 1.287.639m71.353-.472c2.64.687 4.741 3.014 5.261 5.826.309 1.669.247 95.176-.064 96.642-.484 2.286-1.967 4.175-4.056 5.168l-1.114.53h-38.834l-.956-.448c-2.364-1.108-3.856-2.944-4.293-5.283-.232-1.244-.231-95.635.001-96.871.494-2.629 3.003-5.226 5.499-5.691 1.257-.235 37.627-.115 38.556.127m71.755.521c2.246.563 3.95 1.945 4.987 4.045l.618 1.25v97.684l-.522 1.083c-.664 1.377-1.543 2.388-2.759 3.174-1.915 1.237-.819 1.181-21.886 1.126l-18.833-.05-1.25-.622c-1.893-.943-3.047-2.167-3.762-3.991l-.406-1.038.042-48.758.043-48.758.535-1.095c1.017-2.077 2.615-3.398 4.838-3.998 1.644-.443 36.606-.49 38.355-.052m-107.65 21.682c-1.531 1.064-1.37 3.462.278 4.15.817.342 32.637.342 33.454 0 1.6-.668 1.834-3.19.38-4.088-.804-.498-33.401-.557-34.112-.062m-73.1.311c-1.561.771-1.415 3.481.225 4.175.924.392 32.923.33 33.713-.065 1.512-.755 1.512-3.327 0-4.082-.842-.421-33.088-.447-33.938-.028m144.82.634c-1.021.936-.862 2.979.285 3.657.716.422 33.448.428 34.163.005 1.366-.806 1.351-3.238-.025-4.002-.306-.169-3.825-.214-17.096-.219L259.331 126l-.616.565m-72.316 9.766c-.951.384-1.445 1.89-1.001 3.051.529 1.386-.888 1.285 18.003 1.285h16.763l.532-.476c1.028-.917.816-3.166-.354-3.772-.554-.286-33.242-.371-33.943-.088m-73.174.383c-1.407.789-1.461 3.412-.085 4.148.74.396 33.636.319 34.224-.08 1.271-.863 1.214-3.168-.098-3.968-.644-.392-33.347-.489-34.041-.1m145.07.38c-1.293.702-1.313 3.071-.033 3.915.576.379 33.303.52 34.106.146 1.444-.671 1.444-3.472 0-4.144-.666-.309-33.497-.23-34.073.083m-71.884 9.717c-2.031 1.238-1.191 4.356 1.173 4.356 1.338 0 2.25-.942 2.25-2.324 0-1.847-1.889-2.968-3.423-2.032m5.629.26c-.865.793-.93 2.419-.129 3.255 1.476 1.541 3.987.606 3.987-1.483 0-2.095-2.335-3.168-3.858-1.772m7.02-.305c-2.264 1.117-1.631 4.412.844 4.395.945-.007 1.413-.211 1.895-.828 1.463-1.872-.635-4.604-2.739-3.567m6.262.221c-.793.792-.688 3.312.165 3.966.198.152 2.106.204 7.647.208l7.382.006.409-.409c.365-.365.409-.55.407-1.709-.005-2.718.547-2.549-8.328-2.549h-7.195l-.487.487m-91.574-.019c-2.496.856-1.925 4.534.703 4.531 1.642-.001 2.783-1.696 2.149-3.193-.435-1.029-1.837-1.687-2.852-1.338m5.653.094c-.284.129-.678.495-.875.814-1.605 2.597 2.159 5.043 3.875 2.517 1.319-1.94-.822-4.318-3-3.331m6.054.294c-2.191 1.634-.171 5.22 2.284 4.055 1.653-.784 1.887-3.039.424-4.081-.646-.46-2.076-.446-2.708.026m6.637.068c-.637.637-.633 2.803.007 3.563l.432.513h14.785l.458-.394c.761-.655.798-2.942.06-3.734l-.346-.372h-14.972l-.424.424m132.49-.044c-2.182 1.227-1.315 4.287 1.216 4.287 2.467 0 3.05-3.458.748-4.438-.745-.318-1.19-.284-1.964.151m-5.998-.011c-2.153 1.248-1.381 4.362 1.082 4.362 2.359 0 3.208-2.941 1.226-4.248-.539-.355-1.785-.417-2.308-.114m12.484.035c-2.139.931-1.609 4.177.715 4.38 2.537.222 3.582-3.179 1.315-4.277-.812-.393-1.308-.418-2.03-.103m6.681-.045c-.64.35-.75.666-.75 2.154 0 1.179.059 1.524.319 1.844l.318.393H292.695l.418-.486c.639-.743.534-3.094-.165-3.695l-.468-.402-7.199.005c-4.888.003-7.306.063-7.532.187M201.9 196.341c-4.206.818-5.693 5.749-2.64 8.754 1.842 1.812 4.843 1.894 6.828.186 3.851-3.314.764-9.903-4.188-8.94m71.79.668c-3.791.763-5.278 5.73-2.558 8.546 2.422 2.509 6.626 1.967 8.192-1.055a5.157 5.157 0 0 0-5.634-7.491m-145.32.783c-5.337 2.174-3.871 9.875 1.88 9.875 5.41 0 6.995-7.309 2.104-9.702-1.027-.503-2.968-.587-3.984-.173m113.55 37.71c-2.492.376-3.339.547-4.917.994-.687.195-1.475.415-1.75.49-1.093.295-3.747 1.41-5.217 2.19-2.861 1.52-3.887 2.292-17.866 13.437-.138.109-.963.772-1.834 1.472a557.99 557.99 0 0 1-4.458 3.564c-1.926 1.526-1.956 1.596-1.06 2.47.356.347 1.89 1.85 3.408 3.339 3.132 3.075 3.163 3.087 4.444 1.708.046-.05.533-.463 1.083-.92.55-.456 1.037-.871 1.083-.922.327-.364 6.663-5.342 7.834-6.153.32-.223.62-.451.666-.506.225-.273 6.137-4.259 7.291-4.915l1.817-1.044c8.894-5.121 14.857-6.028 22.089-3.362 1.722.635 4.879 2.308 5.303 2.809.046.055.384.32.75.59 7.047 5.194 10.092 14.367 7.775 23.424-2.603 10.173-14.294 17.456-24.895 15.508-5.672-1.042-14.763-6.09-23.463-13.029-5.216-4.16-7.519-6.154-12.683-10.979a448.643 448.643 0 0 1-3.009-2.917c-5.256-5.126-8.396-8.034-10.453-9.683a11.908 11.908 0 0 1-.667-.577 21.331 21.331 0 0 0-1.105-.917c-.458-.361-.87-.695-.916-.743-.115-.118-1.974-1.635-2.755-2.247a266.531 266.531 0 0 1-4.245-3.476 41.018 41.018 0 0 0-1.167-.938 20.094 20.094 0 0 1-.941-.762c-1.617-1.537-7.286-4.577-10.699-5.739-19.491-6.633-40.671 4.645-43.818 23.332l-.295 1.75-47.747.084v-8.31l-.439-.345c-.979-.77-2.129-.381-5.143 1.738-14.366 10.098-14.918 10.527-14.918 11.578 0 1.294.709 1.97 5.245 5.005.205.137.553.378.773.536 12.116 8.666 12.09 8.65 13.32 8.38 1.147-.252 1.162-.317 1.162-4.922v-4.161h47.795l.108.792c3.045 22.456 29.46 34.089 49.239 21.686 1.407-.882 5.125-3.627 10.964-8.092.263-.201 1.527-1.162 2.811-2.135a901.492 901.492 0 0 0 2.833-2.157c.742-.574 2.685-2.045 3.917-2.964a56.451 56.451 0 0 0 1.378-1.054c.163-.135.875-.668 1.584-1.185.708-.517 1.342-.987 1.409-1.045s-1.476-1.702-3.429-3.654l-3.551-3.548-1.238 1.032c-.68.567-1.274 1.081-1.32 1.141s-.796.701-1.667 1.425c-.87.723-1.658 1.396-1.75 1.495-.091.1-.578.519-1.081.931-.504.412-1.104.913-1.334 1.112-.23.2-.906.742-1.501 1.204-17.003 13.178-25.158 15.55-35.539 10.338-9.241-4.641-14.543-16.045-11.656-25.072.088-.275.283-.917.433-1.427 3.204-10.881 16.859-17.811 27.787-14.101 2.697.916 6.389 2.778 9.641 4.863 5.353 3.431 12.725 8.764 14.167 10.248a57.5 57.5 0 0 0 1.167.999 77.784 77.784 0 0 1 1.833 1.597l2 1.826c.688.627 2.449 2.271 3.914 3.651 5.307 5.003 9.266 8.549 11.641 10.428.173.137.401.328.505.423.312.284 6.449 4.954 7.44 5.661.835.595 5.553 4.074 7.583 5.591 8.716 6.513 17.991 8.997 27.378 7.332 1.828-.324 6.001-1.54 6.812-1.985.171-.093.91-.45 1.644-.793 9.112-4.26 15.941-13.566 17.505-23.854l.107-.709H320.503v4.161c0 4.605.015 4.67 1.162 4.922.818.179 3.621-1.2 4.809-2.367.122-.12.367-.295.544-.39s1.427-.968 2.779-1.941c1.351-.972 3.918-2.79 5.706-4.04 7.407-5.18 7.391-4.803.4-9.812-2.3-1.648-4.511-3.204-4.913-3.457-.401-.254-.83-.562-.954-.685-.123-.123-.279-.224-.347-.224s-.27-.137-.451-.305a7.124 7.124 0 0 0-.823-.624 95.217 95.217 0 0 1-2.329-1.638c-2.889-2.08-4.173-2.518-5.144-1.754l-.439.345v8.311l-41.416-.085-.194-1.279c-2.545-16.701-19.495-28.607-36.973-25.969"/><path d="M192.5.101c-4.695.138-14.558.988-19.167 1.652-.87.125-2.221.313-3 .416-.779.104-1.979.288-2.666.408-.688.121-1.775.308-2.417.416-1.165.195-2.558.455-4.917.919C150.4 5.865 138.75 9.222 129 12.941c-2.797 1.067-8.827 3.537-9.083 3.72-.092.066-.473.238-.847.383-3.41 1.323-15.663 7.578-19.787 10.103-.617.377-1.156.686-1.198.686-.128 0-6.562 4.054-8.972 5.654-2.894 1.92-8.263 5.771-10.921 7.833-2.121 1.646-6.544 5.174-6.692 5.338-.046.05-.608.542-1.249 1.092-4.5 3.859-7.409 6.555-11.677 10.824-4.269 4.268-6.965 7.177-10.824 11.677a54.075 54.075 0 0 1-1.091 1.249c-.051.046-.937 1.133-1.97 2.417a2873.257 2873.257 0 0 1-2.11 2.618c-5.255 6.477-12.437 17.274-17.382 26.132L24.451 104c-1.452 2.587-5.168 9.976-6.369 12.667-.43.962-.933 2.083-1.117 2.49-.476 1.049-2.94 6.94-3.204 7.66-.122.33-.407 1.087-.635 1.683-2.908 7.611-5.381 15.395-7.068 22.25-.136.55-.434 1.75-.663 2.667a78.212 78.212 0 0 0-.569 2.416c-.084.413-.269 1.275-.41 1.917s-.367 1.729-.503 2.417l-.495 2.5C2.246 168.581 1.242 176.253.497 185c-.801 9.409-.562 26.52.497 35.583.086.734.239 2.084.341 3 1.009 9.054 2.819 18.558 5.398 28.337.415 1.574 1.778 6.292 2.189 7.58.753 2.359 2.499 7.561 2.825 8.417.21.55.659 1.75.998 2.666.588 1.588 1.709 4.428 2.171 5.5l.395.917c.099.229.527 1.242.951 2.25 1.343 3.192 1.795 4.17 4.165 9 1.034 2.108 2.308 4.621 2.832 5.583.523.963 1.212 2.238 1.531 2.834.319.595.636 1.158.706 1.25.069.091.332.541.584 1 .509.927 2.744 4.716 3.812 6.463 1.604 2.623 5.827 8.951 7.448 11.161 1.864 2.54 3.731 5.046 3.819 5.126.051.045.425.533.831 1.083s.782 1.037.836 1.083c.055.046.36.421.678.834.319.412.739.937.934 1.166.195.23 1.128 1.355 2.073 2.5.946 1.146 1.957 2.346 2.248 2.667.292.321 1.155 1.296 1.92 2.167 2.544 2.896 10.483 10.992 13.571 13.838 2.062 1.901 5.402 4.821 7.417 6.483 1.146.946 2.271 1.879 2.5 2.074s.754.615 1.166.934c.413.318.788.623.834.678.045.054.533.43 1.083.836s1.037.78 1.083.831.984.757 2.084 1.571c1.1.813 2.375 1.759 2.833 2.103 1.168.876 3.35 2.364 6.75 4.603 4.245 2.796 4.365 2.872 6.917 4.381a909.77 909.77 0 0 1 3.127 1.857c.437.263.832.477.878.477.047 0 .396.197.777.438 3.057 1.929 12.616 6.707 18.468 9.229.687.297 1.55.672 1.916.834.367.162 1.079.461 1.584.664.504.204 1.066.433 1.25.51.302.128 1.57.629 3.583 1.415 3.125 1.221 11.188 3.973 13.917 4.751l1.916.547c3.295.942 4.093 1.155 7.584 2.019 3.23.801 6.131 1.47 7.416 1.713.23.043 1.167.225 2.084.404 6.169 1.207 13.566 2.274 19.416 2.801 8.242.742 8.379.747 19.167.747 10.941 0 15.183-.206 22.5-1.091.779-.094 1.979-.238 2.667-.319 7.908-.938 20.833-3.46 26.833-5.236.412-.123 1.5-.428 2.417-.679a71.878 71.878 0 0 0 2.333-.674c.367-.119 1.342-.418 2.167-.663 1.866-.556 7.655-2.479 9-2.991.55-.209 1.75-.658 2.666-.997 1.942-.72 9.594-3.877 11.417-4.712l2-.913c1.957-.892 8.329-4.078 10.406-5.204 1.278-.693 2.345-1.259 2.372-1.259s.54-.3 1.139-.667 1.12-.667 1.158-.667c.079 0 4.33-2.491 5.368-3.146 5.057-3.191 7.37-4.725 11.224-7.443a180.01 180.01 0 0 0 2.833-2.023 458.03 458.03 0 0 1 2.917-2.237c2.408-1.838 6.874-5.396 7.083-5.642.046-.054.571-.5 1.167-.992 1.397-1.152 4.244-3.678 6.583-5.839 3.119-2.883 10.672-10.617 13.349-13.67.358-.408.764-.858.901-1.001.137-.142.812-.933 1.499-1.758.688-.824 1.296-1.536 1.351-1.582.056-.046 1.184-1.433 2.507-3.083 9.454-11.789 17.149-23.845 23.636-37.028 1.314-2.669 1.882-3.881 3.623-7.718.526-1.16 2.812-6.638 3.115-7.463.126-.344.428-1.15.672-1.791a189.838 189.838 0 0 0 2.042-5.584c.875-2.478 2.1-6.2 2.387-7.25.075-.275.36-1.25.633-2.166 1.771-5.95 2.789-10.115 4.258-17.417.744-3.697 1.774-9.909 2.1-12.667.092-.779.277-2.316.411-3.416s.324-2.975.422-4.167.254-3.029.346-4.083c.354-4.051.536-11.568.439-18.084-.156-10.376-.974-19.723-2.537-29l-.419-2.5a99.05 99.05 0 0 0-.41-2.25l-.488-2.5c-.722-3.688-2.186-9.892-3.089-13.083l-.657-2.333c-1.362-4.863-3.545-11.434-5.274-15.874-.223-.573-.586-1.51-.806-2.084-.745-1.939-2.645-6.541-2.77-6.709-.069-.092-.307-.617-.53-1.167-.946-2.329-4.814-10.234-6.972-14.246-.97-1.804-3.547-6.302-4.489-7.837l-1.019-1.667c-2.996-4.904-8.26-12.564-11.519-16.762-.575-.74-1.27-1.64-1.545-2a126.37 126.37 0 0 0-2.117-2.654c-1.031-1.257-4.125-4.934-4.542-5.399a179.385 179.385 0 0 1-1.577-1.771c-2.049-2.312-4.757-5.159-7.763-8.164-3.542-3.54-6.079-5.929-9.483-8.928a61.156 61.156 0 0 1-.833-.744c-.173-.16-4.28-3.608-5.019-4.212a120.502 120.502 0 0 0-2.434-1.952l-1.75-1.329c-.724-.55-1.353-1.04-1.399-1.089-.364-.393-7.797-5.662-7.987-5.662a.24.24 0 0 1-.207-.133c-.076-.181-6.699-4.534-6.899-4.534-.053 0-.335-.178-.626-.396a14.31 14.31 0 0 0-1.23-.792c-.385-.217-1.318-.761-2.074-1.208-5.341-3.157-13.394-7.353-18.56-9.671a798.91 798.91 0 0 1-3-1.352c-.834-.38-3.273-1.388-6.25-2.584-10.399-4.176-23.168-7.963-34-10.084-.688-.134-1.625-.32-2.084-.412-6.252-1.259-15.51-2.435-24.333-3.091-3.351-.249-16.233-.441-20.75-.309m16.583 13.15c5.526.279 11.172.762 14.631 1.251.661.094 1.803.249 2.536.346 1.815.239 6.222.947 7.75 1.244 6.396 1.246 12.19 2.575 16 3.672.779.225 1.717.49 2.083.589.367.1.967.28 1.334.4.366.121 1.904.605 3.416 1.077 1.513.472 3.238 1.035 3.834 1.252.595.216 1.87.671 2.833 1.01 2.324.819 8.452 3.233 9.917 3.907.641.295 1.504.671 1.916.835 1.27.503 5.421 2.475 8.834 4.194 3.063 1.544 4.143 2.114 6.333 3.343.504.282 1.254.702 1.667.931 1.044.582 5.118 2.986 5.875 3.467.343.219.925.585 1.291.814.367.23.975.621 1.352.869.377.249.828.53 1.001.625.603.33 6.233 4.179 7.645 5.226l1.91 1.416c2.45 1.818 6.564 5.041 7.698 6.031.105.092.331.279.502.417a123.46 123.46 0 0 1 2.392 2.001c.046.047.683.609 1.416 1.25 4.99 4.366 11.983 11.274 16.002 15.809 1.188 1.341 3.797 4.364 4.249 4.923.321.398.658.808.75.912 1.076 1.226 5.642 7.081 6.58 8.438.222.321.448.621.501.667.249.214 5.051 7.203 5.749 8.366.094.156.706 1.131 1.361 2.167 3.968 6.277 12.559 22.395 12.559 23.562 0 .047.216.551.481 1.12 2.231 4.799 5.887 14.771 7.772 21.201 1.04 3.55 1.679 5.875 2.012 7.334.126.55.338 1.412.471 1.916 1.111 4.218 2.73 12.63 3.416 17.75.52 3.879.677 5.177.844 7 .102 1.1.259 2.75.35 3.667 1.079 10.83.697 28.702-.848 39.63a227.63 227.63 0 0 0-.341 2.537c-.094.733-.278 1.97-.407 2.75-.13.779-.32 1.941-.422 2.583s-.288 1.692-.414 2.333c-.125.642-.342 1.767-.482 2.5-1.758 9.199-4.937 20.274-8.515 29.667-.245.642-.583 1.542-.752 2-1.807 4.899-8.781 19.758-10.169 21.667-.067.091-.404.691-.75 1.333-.345.642-1.386 2.441-2.312 3.999l-1.851 3.116a151.94 151.94 0 0 1-1.416 2.228 515.743 515.743 0 0 0-1.5 2.34c-1.142 1.807-5.512 7.93-7.346 10.293-.772.994-1.554 2.011-1.738 2.26-.707.957-5.715 7.02-5.931 7.181-.062.045-.393.42-.735.833-2.876 3.463-12.404 12.999-16.917 16.93-.413.359-.788.696-.833.748-.046.052-1.246 1.055-2.667 2.229s-2.771 2.295-3 2.491c-1.624 1.388-11.348 8.602-11.595 8.602-.039 0-.577.36-1.196.8-1.945 1.383-4.966 3.277-9.542 5.984-5.103 3.017-11.236 6.248-16.167 8.514-2.826 1.299-9.205 4.018-10.792 4.6-.344.125-1.15.428-1.791.672-2.337.889-6.79 2.458-8.334 2.936-6.422 1.99-9.665 2.888-15.083 4.177-3.585.852-7.877 1.719-10.667 2.154-.687.107-1.812.295-2.5.417-.687.122-1.85.301-2.583.399-3.737.499-5.158.672-6.833.834-1.009.097-2.621.255-3.584.35-8.695.856-23.971.856-32.666 0-.963-.095-2.575-.253-3.584-.35-14.731-1.423-31.488-5.4-46-10.917a225.65 225.65 0 0 0-1.774-.667c-1.134-.416-6.452-2.637-8.642-3.608-4.762-2.113-12.078-5.827-15.889-8.067-.993-.584-1.831-1.061-1.862-1.061s-.661-.375-1.4-.834c-.739-.458-1.387-.833-1.441-.833-.053 0-.336-.179-.628-.399a10.92 10.92 0 0 0-1.114-.715c-.659-.359-1.729-1.04-4.5-2.864-1.867-1.23-9.5-6.643-9.666-6.855-.046-.058-.534-.438-1.084-.844s-1.037-.778-1.083-.826c-.046-.049-.421-.35-.833-.668s-.899-.705-1.083-.859c-.184-.153-1.084-.893-2.001-1.644-9.052-7.411-17.998-16.357-25.409-25.409a633.432 633.432 0 0 0-1.644-2.001c-.154-.184-.541-.671-.859-1.083s-.619-.787-.668-.833c-.048-.046-.42-.533-.826-1.083s-.785-1.038-.842-1.084c-.164-.132-4.648-6.399-6.022-8.416-2.357-3.462-6.932-10.965-8.741-14.334a988.238 988.238 0 0 0-1.395-2.583c-.702-1.291-3.646-7.214-4.391-8.833l-.945-2.052c-.551-1.194-3.384-7.951-3.752-8.948-.118-.321-.415-1.109-.659-1.75-2.456-6.458-5.139-15.16-6.681-21.667-.326-1.375-.701-2.95-.835-3.5-.293-1.208-1.474-7.206-1.738-8.833-.105-.642-.296-1.805-.426-2.584-.129-.779-.318-2.054-.419-2.833s-.285-2.167-.41-3.083c-.124-.917-.312-2.567-.416-3.667-.105-1.1-.263-2.713-.351-3.583-.837-8.254-.833-23.83.009-32.334.095-.962.253-2.575.35-3.583s.285-2.658.418-3.667c.132-1.008.321-2.471.42-3.25s.281-1.979.404-2.666c.124-.688.31-1.813.415-2.5.105-.688.291-1.738.414-2.334s.345-1.721.493-2.5c.149-.779.339-1.716.425-2.083.085-.367.388-1.717.673-3 .472-2.126 1.168-4.918 1.994-8.007.738-2.757 3.52-11.553 4.138-13.082.092-.226.443-1.161.782-2.078 1.271-3.442 3.298-8.438 4.349-10.72.309-.671.562-1.247.562-1.278 0-.277 4.466-9.276 5.874-11.835l1.463-2.667c2.438-4.458 7.152-11.894 10.724-16.916 1.043-1.466 4.444-6.02 4.607-6.167.05-.046.614-.758 1.252-1.583 1.127-1.457 4.164-5.15 4.721-5.741.152-.162.49-.548.752-.86 3.597-4.275 11.464-12.236 16.776-16.977.87-.776 1.724-1.526 1.898-1.667.174-.14.439-.368.589-.505 1.595-1.464 5.714-4.765 9.957-7.978 4.249-3.218 10.762-7.617 15.054-10.166.504-.299 1.404-.842 2-1.207s1.233-.739 1.416-.83a12.3 12.3 0 0 0 .668-.368c.44-.265 2.697-1.521 4.166-2.319 3.192-1.736 11.387-5.731 13.298-6.485.477-.188.943-.402 1.035-.475.164-.131 6.902-2.835 9.5-3.813 5.229-1.967 14.111-4.72 18.917-5.863 4.043-.961 6.086-1.418 8.916-1.994 5.393-1.097 12.643-2.2 17.5-2.661l3.75-.36c6.309-.613 17.054-.785 24.75-.397m-98.25 83.751c-5.045.869-9.54 5.179-10.773 10.331-.377 1.573-.584 96.144-.219 99.576.631 5.922 4.23 10.204 10.076 11.985 1.163.355 1.23.356 20.916.356h19.75l1.334-.393c4.755-1.401 7.95-4.487 9.53-9.203l.47-1.404v-100.5l-.458-1.351c-1.72-5.074-5.71-8.59-10.658-9.393-1.241-.201-38.8-.205-39.968-.004m72.834-.061c-5.166.827-9.175 4.475-10.964 9.976-.326 1.003-.534 97.177-.215 99.607.785 5.989 5.732 10.744 11.929 11.467 2.03.237 36.152.24 38.087.003 6.346-.775 11.136-5.457 11.986-11.714.312-2.304.24-96.134-.077-98.084-.866-5.341-4.417-9.268-9.996-11.057-.633-.203-39.54-.392-40.75-.198m72.75.509c-6.515.931-11.265 5.795-11.93 12.217-.333 3.208-.119 97.411.223 98.583 1.584 5.422 5.234 8.968 10.455 10.155 1.01.23 3.511.262 20.451.261h19.301l1.5-.404c4.994-1.347 8.547-4.836 9.852-9.679.305-1.131.314-2.68.314-50.666v-49.5l-.47-1.404c-1.303-3.892-3.532-6.48-7.139-8.292-.834-.419-1.09-.511-2.807-1.016-.874-.256-38.07-.495-39.75-.255m-104.88 6.439c1.548.767 2.632 1.876 3.469 3.544l.577 1.15.045 48.917c.03 32.93-.011 49.179-.126 49.721-.489 2.306-2.218 4.264-4.691 5.316l-.894.38h-38l-1.276-.551c-1.631-.704-3.065-2.072-3.847-3.671l-.544-1.112-.043-49.074c-.048-54.296-.131-50.101 1.036-51.926 1.006-1.573 3.007-3.011 4.59-3.299.23-.042 8.967-.067 19.417-.055l19 .021 1.287.639m71.353-.472c2.64.687 4.741 3.014 5.261 5.826.309 1.669.247 95.176-.064 96.642-.484 2.286-1.967 4.175-4.056 5.168l-1.114.53h-38.834l-.956-.448c-2.364-1.108-3.856-2.944-4.293-5.283-.232-1.244-.231-95.635.001-96.871.494-2.629 3.003-5.226 5.499-5.691 1.257-.235 37.627-.115 38.556.127m71.755.521c2.246.563 3.95 1.945 4.987 4.045l.618 1.25v97.684l-.522 1.083c-.664 1.377-1.543 2.388-2.759 3.174-1.915 1.237-.819 1.181-21.886 1.126l-18.833-.05-1.25-.622c-1.893-.943-3.047-2.167-3.762-3.991l-.406-1.038.042-48.758.043-48.758.535-1.095c1.017-2.077 2.615-3.398 4.838-3.998 1.644-.443 36.606-.49 38.355-.052m-107.65 21.682c-1.531 1.064-1.37 3.462.278 4.15.817.342 32.637.342 33.454 0 1.6-.668 1.834-3.19.38-4.088-.804-.498-33.401-.557-34.112-.062m-73.1.311c-1.561.771-1.415 3.481.225 4.175.924.392 32.923.33 33.713-.065 1.512-.755 1.512-3.327 0-4.082-.842-.421-33.088-.447-33.938-.028m144.82.634c-1.021.936-.862 2.979.285 3.657.716.422 33.448.428 34.163.005 1.366-.806 1.351-3.238-.025-4.002-.306-.169-3.825-.214-17.096-.219L259.331 126l-.616.565m-72.316 9.766c-.951.384-1.445 1.89-1.001 3.051.529 1.386-.888 1.285 18.003 1.285h16.763l.532-.476c1.028-.917.816-3.166-.354-3.772-.554-.286-33.242-.371-33.943-.088m-73.174.383c-1.407.789-1.461 3.412-.085 4.148.74.396 33.636.319 34.224-.08 1.271-.863 1.214-3.168-.098-3.968-.644-.392-33.347-.489-34.041-.1m145.07.38c-1.293.702-1.313 3.071-.033 3.915.576.379 33.303.52 34.106.146 1.444-.671 1.444-3.472 0-4.144-.666-.309-33.497-.23-34.073.083m-71.884 9.717c-2.031 1.238-1.191 4.356 1.173 4.356 1.338 0 2.25-.942 2.25-2.324 0-1.847-1.889-2.968-3.423-2.032m5.629.26c-.865.793-.93 2.419-.129 3.255 1.476 1.541 3.987.606 3.987-1.483 0-2.095-2.335-3.168-3.858-1.772m7.02-.305c-2.264 1.117-1.631 4.412.844 4.395.945-.007 1.413-.211 1.895-.828 1.463-1.872-.635-4.604-2.739-3.567m6.262.221c-.793.792-.688 3.312.165 3.966.198.152 2.106.204 7.647.208l7.382.006.409-.409c.365-.365.409-.55.407-1.709-.005-2.718.547-2.549-8.328-2.549h-7.195l-.487.487m-91.574-.019c-2.496.856-1.925 4.534.703 4.531 1.642-.001 2.783-1.696 2.149-3.193-.435-1.029-1.837-1.687-2.852-1.338m5.653.094c-.284.129-.678.495-.875.814-1.605 2.597 2.159 5.043 3.875 2.517 1.319-1.94-.822-4.318-3-3.331m6.054.294c-2.191 1.634-.171 5.22 2.284 4.055 1.653-.784 1.887-3.039.424-4.081-.646-.46-2.076-.446-2.708.026m6.637.068c-.637.637-.633 2.803.007 3.563l.432.513h14.785l.458-.394c.761-.655.798-2.942.06-3.734l-.346-.372h-14.972l-.424.424m132.49-.044c-2.182 1.227-1.315 4.287 1.216 4.287 2.467 0 3.05-3.458.748-4.438-.745-.318-1.19-.284-1.964.151m-5.998-.011c-2.153 1.248-1.381 4.362 1.082 4.362 2.359 0 3.208-2.941 1.226-4.248-.539-.355-1.785-.417-2.308-.114m12.484.035c-2.139.931-1.609 4.177.715 4.38 2.537.222 3.582-3.179 1.315-4.277-.812-.393-1.308-.418-2.03-.103m6.681-.045c-.64.35-.75.666-.75 2.154 0 1.179.059 1.524.319 1.844l.318.393H292.695l.418-.486c.639-.743.534-3.094-.165-3.695l-.468-.402-7.199.005c-4.888.003-7.306.063-7.532.187M201.9 196.341c-4.206.818-5.693 5.749-2.64 8.754 1.842 1.812 4.843 1.894 6.828.186 3.851-3.314.764-9.903-4.188-8.94m71.79.668c-3.791.763-5.278 5.73-2.558 8.546 2.422 2.509 6.626 1.967 8.192-1.055a5.157 5.157 0 0 0-5.634-7.491m-145.32.783c-5.337 2.174-3.871 9.875 1.88 9.875 5.41 0 6.995-7.309 2.104-9.702-1.027-.503-2.968-.587-3.984-.173m113.55 37.71c-2.492.376-3.339.547-4.917.994-.687.195-1.475.415-1.75.49-1.093.295-3.747 1.41-5.217 2.19-2.861 1.52-3.887 2.292-17.866 13.437-.138.109-.963.772-1.834 1.472a557.99 557.99 0 0 1-4.458 3.564c-1.926 1.526-1.956 1.596-1.06 2.47.356.347 1.89 1.85 3.408 3.339 3.132 3.075 3.163 3.087 4.444 1.708.046-.05.533-.463 1.083-.92.55-.456 1.037-.871 1.083-.922.327-.364 6.663-5.342 7.834-6.153.32-.223.62-.451.666-.506.225-.273 6.137-4.259 7.291-4.915l1.817-1.044c8.894-5.121 14.857-6.028 22.089-3.362 1.722.635 4.879 2.308 5.303 2.809.046.055.384.32.75.59 7.047 5.194 10.092 14.367 7.775 23.424-2.603 10.173-14.294 17.456-24.895 15.508-5.672-1.042-14.763-6.09-23.463-13.029-5.216-4.16-7.519-6.154-12.683-10.979a448.643 448.643 0 0 1-3.009-2.917c-5.256-5.126-8.396-8.034-10.453-9.683a11.908 11.908 0 0 1-.667-.577 21.331 21.331 0 0 0-1.105-.917c-.458-.361-.87-.695-.916-.743-.115-.118-1.974-1.635-2.755-2.247a266.531 266.531 0 0 1-4.245-3.476 41.018 41.018 0 0 0-1.167-.938 20.094 20.094 0 0 1-.941-.762c-1.617-1.537-7.286-4.577-10.699-5.739-19.491-6.633-40.671 4.645-43.818 23.332l-.295 1.75-47.747.084v-8.31l-.439-.345c-.979-.77-2.129-.381-5.143 1.738-14.366 10.098-14.918 10.527-14.918 11.578 0 1.294.709 1.97 5.245 5.005.205.137.553.378.773.536 12.116 8.666 12.09 8.65 13.32 8.38 1.147-.252 1.162-.317 1.162-4.922v-4.161h47.795l.108.792c3.045 22.456 29.46 34.089 49.239 21.686 1.407-.882 5.125-3.627 10.964-8.092.263-.201 1.527-1.162 2.811-2.135a901.492 901.492 0 0 0 2.833-2.157c.742-.574 2.685-2.045 3.917-2.964a56.451 56.451 0 0 0 1.378-1.054c.163-.135.875-.668 1.584-1.185.708-.517 1.342-.987 1.409-1.045s-1.476-1.702-3.429-3.654l-3.551-3.548-1.238 1.032c-.68.567-1.274 1.081-1.32 1.141s-.796.701-1.667 1.425c-.87.723-1.658 1.396-1.75 1.495-.091.1-.578.519-1.081.931-.504.412-1.104.913-1.334 1.112-.23.2-.906.742-1.501 1.204-17.003 13.178-25.158 15.55-35.539 10.338-9.241-4.641-14.543-16.045-11.656-25.072.088-.275.283-.917.433-1.427 3.204-10.881 16.859-17.811 27.787-14.101 2.697.916 6.389 2.778 9.641 4.863 5.353 3.431 12.725 8.764 14.167 10.248a57.5 57.5 0 0 0 1.167.999 77.784 77.784 0 0 1 1.833 1.597l2 1.826c.688.627 2.449 2.271 3.914 3.651 5.307 5.003 9.266 8.549 11.641 10.428.173.137.401.328.505.423.312.284 6.449 4.954 7.44 5.661.835.595 5.553 4.074 7.583 5.591 8.716 6.513 17.991 8.997 27.378 7.332 1.828-.324 6.001-1.54 6.812-1.985.171-.093.91-.45 1.644-.793 9.112-4.26 15.941-13.566 17.505-23.854l.107-.709H320.503v4.161c0 4.605.015 4.67 1.162 4.922.818.179 3.621-1.2 4.809-2.367.122-.12.367-.295.544-.39s1.427-.968 2.779-1.941c1.351-.972 3.918-2.79 5.706-4.04 7.407-5.18 7.391-4.803.4-9.812-2.3-1.648-4.511-3.204-4.913-3.457-.401-.254-.83-.562-.954-.685-.123-.123-.279-.224-.347-.224s-.27-.137-.451-.305a7.124 7.124 0 0 0-.823-.624 95.217 95.217 0 0 1-2.329-1.638c-2.889-2.08-4.173-2.518-5.144-1.754l-.439.345v8.311l-41.416-.085-.194-1.279c-2.545-16.701-19.495-28.607-36.973-25.969"/><path d="M192.5.101c-4.695.138-14.558.988-19.167 1.652-.87.125-2.221.313-3 .416-.779.104-1.979.288-2.666.408-.688.121-1.775.308-2.417.416-1.165.195-2.558.455-4.917.919C150.4 5.865 138.75 9.222 129 12.941c-2.797 1.067-8.827 3.537-9.083 3.72-.092.066-.473.238-.847.383-3.41 1.323-15.663 7.578-19.787 10.103-.617.377-1.156.686-1.198.686-.128 0-6.562 4.054-8.972 5.654-2.894 1.92-8.263 5.771-10.921 7.833-2.121 1.646-6.544 5.174-6.692 5.338-.046.05-.608.542-1.249 1.092-4.5 3.859-7.409 6.555-11.677 10.824-4.269 4.268-6.965 7.177-10.824 11.677a54.075 54.075 0 0 1-1.091 1.249c-.051.046-.937 1.133-1.97 2.417a2873.257 2873.257 0 0 1-2.11 2.618c-5.255 6.477-12.437 17.274-17.382 26.132L24.451 104c-1.452 2.587-5.168 9.976-6.369 12.667-.43.962-.933 2.083-1.117 2.49-.476 1.049-2.94 6.94-3.204 7.66-.122.33-.407 1.087-.635 1.683-2.908 7.611-5.381 15.395-7.068 22.25-.136.55-.434 1.75-.663 2.667a78.212 78.212 0 0 0-.569 2.416c-.084.413-.269 1.275-.41 1.917s-.367 1.729-.503 2.417l-.495 2.5C2.246 168.581 1.242 176.253.497 185c-.801 9.409-.562 26.52.497 35.583.086.734.239 2.084.341 3 1.009 9.054 2.819 18.558 5.398 28.337.415 1.574 1.778 6.292 2.189 7.58.753 2.359 2.499 7.561 2.825 8.417.21.55.659 1.75.998 2.666.588 1.588 1.709 4.428 2.171 5.5l.395.917c.099.229.527 1.242.951 2.25 1.343 3.192 1.795 4.17 4.165 9 1.034 2.108 2.308 4.621 2.832 5.583.523.963 1.212 2.238 1.531 2.834.319.595.636 1.158.706 1.25.069.091.332.541.584 1 .509.927 2.744 4.716 3.812 6.463 1.604 2.623 5.827 8.951 7.448 11.161 1.864 2.54 3.731 5.046 3.819 5.126.051.045.425.533.831 1.083s.782 1.037.836 1.083c.055.046.36.421.678.834.319.412.739.937.934 1.166.195.23 1.128 1.355 2.073 2.5.946 1.146 1.957 2.346 2.248 2.667.292.321 1.155 1.296 1.92 2.167 2.544 2.896 10.483 10.992 13.571 13.838 2.062 1.901 5.402 4.821 7.417 6.483 1.146.946 2.271 1.879 2.5 2.074s.754.615 1.166.934c.413.318.788.623.834.678.045.054.533.43 1.083.836s1.037.78 1.083.831.984.757 2.084 1.571c1.1.813 2.375 1.759 2.833 2.103 1.168.876 3.35 2.364 6.75 4.603 4.245 2.796 4.365 2.872 6.917 4.381a909.77 909.77 0 0 1 3.127 1.857c.437.263.832.477.878.477.047 0 .396.197.777.438 3.057 1.929 12.616 6.707 18.468 9.229.687.297 1.55.672 1.916.834.367.162 1.079.461 1.584.664.504.204 1.066.433 1.25.51.302.128 1.57.629 3.583 1.415 3.125 1.221 11.188 3.973 13.917 4.751l1.916.547c3.295.942 4.093 1.155 7.584 2.019 3.23.801 6.131 1.47 7.416 1.713.23.043 1.167.225 2.084.404 6.169 1.207 13.566 2.274 19.416 2.801 8.242.742 8.379.747 19.167.747 10.941 0 15.183-.206 22.5-1.091.779-.094 1.979-.238 2.667-.319 7.908-.938 20.833-3.46 26.833-5.236.412-.123 1.5-.428 2.417-.679a71.878 71.878 0 0 0 2.333-.674c.367-.119 1.342-.418 2.167-.663 1.866-.556 7.655-2.479 9-2.991.55-.209 1.75-.658 2.666-.997 1.942-.72 9.594-3.877 11.417-4.712l2-.913c1.957-.892 8.329-4.078 10.406-5.204 1.278-.693 2.345-1.259 2.372-1.259s.54-.3 1.139-.667 1.12-.667 1.158-.667c.079 0 4.33-2.491 5.368-3.146 5.057-3.191 7.37-4.725 11.224-7.443a180.01 180.01 0 0 0 2.833-2.023 458.03 458.03 0 0 1 2.917-2.237c2.408-1.838 6.874-5.396 7.083-5.642.046-.054.571-.5 1.167-.992 1.397-1.152 4.244-3.678 6.583-5.839 3.119-2.883 10.672-10.617 13.349-13.67.358-.408.764-.858.901-1.001.137-.142.812-.933 1.499-1.758.688-.824 1.296-1.536 1.351-1.582.056-.046 1.184-1.433 2.507-3.083 9.454-11.789 17.149-23.845 23.636-37.028 1.314-2.669 1.882-3.881 3.623-7.718.526-1.16 2.812-6.638 3.115-7.463.126-.344.428-1.15.672-1.791a189.838 189.838 0 0 0 2.042-5.584c.875-2.478 2.1-6.2 2.387-7.25.075-.275.36-1.25.633-2.166 1.771-5.95 2.789-10.115 4.258-17.417.744-3.697 1.774-9.909 2.1-12.667.092-.779.277-2.316.411-3.416s.324-2.975.422-4.167.254-3.029.346-4.083c.354-4.051.536-11.568.439-18.084-.156-10.376-.974-19.723-2.537-29l-.419-2.5a99.05 99.05 0 0 0-.41-2.25l-.488-2.5c-.722-3.688-2.186-9.892-3.089-13.083l-.657-2.333c-1.362-4.863-3.545-11.434-5.274-15.874-.223-.573-.586-1.51-.806-2.084-.745-1.939-2.645-6.541-2.77-6.709-.069-.092-.307-.617-.53-1.167-.946-2.329-4.814-10.234-6.972-14.246-.97-1.804-3.547-6.302-4.489-7.837l-1.019-1.667c-2.996-4.904-8.26-12.564-11.519-16.762-.575-.74-1.27-1.64-1.545-2a126.37 126.37 0 0 0-2.117-2.654c-1.031-1.257-4.125-4.934-4.542-5.399a179.385 179.385 0 0 1-1.577-1.771c-2.049-2.312-4.757-5.159-7.763-8.164-3.542-3.54-6.079-5.929-9.483-8.928a61.156 61.156 0 0 1-.833-.744c-.173-.16-4.28-3.608-5.019-4.212a120.502 120.502 0 0 0-2.434-1.952l-1.75-1.329c-.724-.55-1.353-1.04-1.399-1.089-.364-.393-7.797-5.662-7.987-5.662a.24.24 0 0 1-.207-.133c-.076-.181-6.699-4.534-6.899-4.534-.053 0-.335-.178-.626-.396a14.31 14.31 0 0 0-1.23-.792c-.385-.217-1.318-.761-2.074-1.208-5.341-3.157-13.394-7.353-18.56-9.671a798.91 798.91 0 0 1-3-1.352c-.834-.38-3.273-1.388-6.25-2.584-10.399-4.176-23.168-7.963-34-10.084-.688-.134-1.625-.32-2.084-.412-6.252-1.259-15.51-2.435-24.333-3.091-3.351-.249-16.233-.441-20.75-.309m16.583 13.15c5.526.279 11.172.762 14.631 1.251.661.094 1.803.249 2.536.346 1.815.239 6.222.947 7.75 1.244 6.396 1.246 12.19 2.575 16 3.672.779.225 1.717.49 2.083.589.367.1.967.28 1.334.4.366.121 1.904.605 3.416 1.077 1.513.472 3.238 1.035 3.834 1.252.595.216 1.87.671 2.833 1.01 2.324.819 8.452 3.233 9.917 3.907.641.295 1.504.671 1.916.835 1.27.503 5.421 2.475 8.834 4.194 3.063 1.544 4.143 2.114 6.333 3.343.504.282 1.254.702 1.667.931 1.044.582 5.118 2.986 5.875 3.467.343.219.925.585 1.291.814.367.23.975.621 1.352.869.377.249.828.53 1.001.625.603.33 6.233 4.179 7.645 5.226l1.91 1.416c2.45 1.818 6.564 5.041 7.698 6.031.105.092.331.279.502.417a123.46 123.46 0 0 1 2.392 2.001c.046.047.683.609 1.416 1.25 4.99 4.366 11.983 11.274 16.002 15.809 1.188 1.341 3.797 4.364 4.249 4.923.321.398.658.808.75.912 1.076 1.226 5.642 7.081 6.58 8.438.222.321.448.621.501.667.249.214 5.051 7.203 5.749 8.366.094.156.706 1.131 1.361 2.167 3.968 6.277 12.559 22.395 12.559 23.562 0 .047.216.551.481 1.12 2.231 4.799 5.887 14.771 7.772 21.201 1.04 3.55 1.679 5.875 2.012 7.334.126.55.338 1.412.471 1.916 1.111 4.218 2.73 12.63 3.416 17.75.52 3.879.677 5.177.844 7 .102 1.1.259 2.75.35 3.667 1.079 10.83.697 28.702-.848 39.63a227.63 227.63 0 0 0-.341 2.537c-.094.733-.278 1.97-.407 2.75-.13.779-.32 1.941-.422 2.583s-.288 1.692-.414 2.333c-.125.642-.342 1.767-.482 2.5-1.758 9.199-4.937 20.274-8.515 29.667-.245.642-.583 1.542-.752 2-1.807 4.899-8.781 19.758-10.169 21.667-.067.091-.404.691-.75 1.333-.345.642-1.386 2.441-2.312 3.999l-1.851 3.116a151.94 151.94 0 0 1-1.416 2.228 515.743 515.743 0 0 0-1.5 2.34c-1.142 1.807-5.512 7.93-7.346 10.293-.772.994-1.554 2.011-1.738 2.26-.707.957-5.715 7.02-5.931 7.181-.062.045-.393.42-.735.833-2.876 3.463-12.404 12.999-16.917 16.93-.413.359-.788.696-.833.748-.046.052-1.246 1.055-2.667 2.229s-2.771 2.295-3 2.491c-1.624 1.388-11.348 8.602-11.595 8.602-.039 0-.577.36-1.196.8-1.945 1.383-4.966 3.277-9.542 5.984-5.103 3.017-11.236 6.248-16.167 8.514-2.826 1.299-9.205 4.018-10.792 4.6-.344.125-1.15.428-1.791.672-2.337.889-6.79 2.458-8.334 2.936-6.422 1.99-9.665 2.888-15.083 4.177-3.585.852-7.877 1.719-10.667 2.154-.687.107-1.812.295-2.5.417-.687.122-1.85.301-2.583.399-3.737.499-5.158.672-6.833.834-1.009.097-2.621.255-3.584.35-8.695.856-23.971.856-32.666 0-.963-.095-2.575-.253-3.584-.35-14.731-1.423-31.488-5.4-46-10.917a225.65 225.65 0 0 0-1.774-.667c-1.134-.416-6.452-2.637-8.642-3.608-4.762-2.113-12.078-5.827-15.889-8.067-.993-.584-1.831-1.061-1.862-1.061s-.661-.375-1.4-.834c-.739-.458-1.387-.833-1.441-.833-.053 0-.336-.179-.628-.399a10.92 10.92 0 0 0-1.114-.715c-.659-.359-1.729-1.04-4.5-2.864-1.867-1.23-9.5-6.643-9.666-6.855-.046-.058-.534-.438-1.084-.844s-1.037-.778-1.083-.826c-.046-.049-.421-.35-.833-.668s-.899-.705-1.083-.859c-.184-.153-1.084-.893-2.001-1.644-9.052-7.411-17.998-16.357-25.409-25.409a633.432 633.432 0 0 0-1.644-2.001c-.154-.184-.541-.671-.859-1.083s-.619-.787-.668-.833c-.048-.046-.42-.533-.826-1.083s-.785-1.038-.842-1.084c-.164-.132-4.648-6.399-6.022-8.416-2.357-3.462-6.932-10.965-8.741-14.334a988.238 988.238 0 0 0-1.395-2.583c-.702-1.291-3.646-7.214-4.391-8.833l-.945-2.052c-.551-1.194-3.384-7.951-3.752-8.948-.118-.321-.415-1.109-.659-1.75-2.456-6.458-5.139-15.16-6.681-21.667-.326-1.375-.701-2.95-.835-3.5-.293-1.208-1.474-7.206-1.738-8.833-.105-.642-.296-1.805-.426-2.584-.129-.779-.318-2.054-.419-2.833s-.285-2.167-.41-3.083c-.124-.917-.312-2.567-.416-3.667-.105-1.1-.263-2.713-.351-3.583-.837-8.254-.833-23.83.009-32.334.095-.962.253-2.575.35-3.583s.285-2.658.418-3.667c.132-1.008.321-2.471.42-3.25s.281-1.979.404-2.666c.124-.688.31-1.813.415-2.5.105-.688.291-1.738.414-2.334s.345-1.721.493-2.5c.149-.779.339-1.716.425-2.083.085-.367.388-1.717.673-3 .472-2.126 1.168-4.918 1.994-8.007.738-2.757 3.52-11.553 4.138-13.082.092-.226.443-1.161.782-2.078 1.271-3.442 3.298-8.438 4.349-10.72.309-.671.562-1.247.562-1.278 0-.277 4.466-9.276 5.874-11.835l1.463-2.667c2.438-4.458 7.152-11.894 10.724-16.916 1.043-1.466 4.444-6.02 4.607-6.167.05-.046.614-.758 1.252-1.583 1.127-1.457 4.164-5.15 4.721-5.741.152-.162.49-.548.752-.86 3.597-4.275 11.464-12.236 16.776-16.977.87-.776 1.724-1.526 1.898-1.667.174-.14.439-.368.589-.505 1.595-1.464 5.714-4.765 9.957-7.978 4.249-3.218 10.762-7.617 15.054-10.166.504-.299 1.404-.842 2-1.207s1.233-.739 1.416-.83a12.3 12.3 0 0 0 .668-.368c.44-.265 2.697-1.521 4.166-2.319 3.192-1.736 11.387-5.731 13.298-6.485.477-.188.943-.402 1.035-.475.164-.131 6.902-2.835 9.5-3.813 5.229-1.967 14.111-4.72 18.917-5.863 4.043-.961 6.086-1.418 8.916-1.994 5.393-1.097 12.643-2.2 17.5-2.661l3.75-.36c6.309-.613 17.054-.785 24.75-.397m-98.25 83.751c-5.045.869-9.54 5.179-10.773 10.331-.377 1.573-.584 96.144-.219 99.576.631 5.922 4.23 10.204 10.076 11.985 1.163.355 1.23.356 20.916.356h19.75l1.334-.393c4.755-1.401 7.95-4.487 9.53-9.203l.47-1.404v-100.5l-.458-1.351c-1.72-5.074-5.71-8.59-10.658-9.393-1.241-.201-38.8-.205-39.968-.004m72.834-.061c-5.166.827-9.175 4.475-10.964 9.976-.326 1.003-.534 97.177-.215 99.607.785 5.989 5.732 10.744 11.929 11.467 2.03.237 36.152.24 38.087.003 6.346-.775 11.136-5.457 11.986-11.714.312-2.304.24-96.134-.077-98.084-.866-5.341-4.417-9.268-9.996-11.057-.633-.203-39.54-.392-40.75-.198m72.75.509c-6.515.931-11.265 5.795-11.93 12.217-.333 3.208-.119 97.411.223 98.583 1.584 5.422 5.234 8.968 10.455 10.155 1.01.23 3.511.262 20.451.261h19.301l1.5-.404c4.994-1.347 8.547-4.836 9.852-9.679.305-1.131.314-2.68.314-50.666v-49.5l-.47-1.404c-1.303-3.892-3.532-6.48-7.139-8.292-.834-.419-1.09-.511-2.807-1.016-.874-.256-38.07-.495-39.75-.255m-104.88 6.439c1.548.767 2.632 1.876 3.469 3.544l.577 1.15.045 48.917c.03 32.93-.011 49.179-.126 49.721-.489 2.306-2.218 4.264-4.691 5.316l-.894.38h-38l-1.276-.551c-1.631-.704-3.065-2.072-3.847-3.671l-.544-1.112-.043-49.074c-.048-54.296-.131-50.101 1.036-51.926 1.006-1.573 3.007-3.011 4.59-3.299.23-.042 8.967-.067 19.417-.055l19 .021 1.287.639m71.353-.472c2.64.687 4.741 3.014 5.261 5.826.309 1.669.247 95.176-.064 96.642-.484 2.286-1.967 4.175-4.056 5.168l-1.114.53h-38.834l-.956-.448c-2.364-1.108-3.856-2.944-4.293-5.283-.232-1.244-.231-95.635.001-96.871.494-2.629 3.003-5.226 5.499-5.691 1.257-.235 37.627-.115 38.556.127m71.755.521c2.246.563 3.95 1.945 4.987 4.045l.618 1.25v97.684l-.522 1.083c-.664 1.377-1.543 2.388-2.759 3.174-1.915 1.237-.819 1.181-21.886 1.126l-18.833-.05-1.25-.622c-1.893-.943-3.047-2.167-3.762-3.991l-.406-1.038.042-48.758.043-48.758.535-1.095c1.017-2.077 2.615-3.398 4.838-3.998 1.644-.443 36.606-.49 38.355-.052m-107.65 21.682c-1.531 1.064-1.37 3.462.278 4.15.817.342 32.637.342 33.454 0 1.6-.668 1.834-3.19.38-4.088-.804-.498-33.401-.557-34.112-.062m-73.1.311c-1.561.771-1.415 3.481.225 4.175.924.392 32.923.33 33.713-.065 1.512-.755 1.512-3.327 0-4.082-.842-.421-33.088-.447-33.938-.028m144.82.634c-1.021.936-.862 2.979.285 3.657.716.422 33.448.428 34.163.005 1.366-.806 1.351-3.238-.025-4.002-.306-.169-3.825-.214-17.096-.219L259.331 126l-.616.565m-72.316 9.766c-.951.384-1.445 1.89-1.001 3.051.529 1.386-.888 1.285 18.003 1.285h16.763l.532-.476c1.028-.917.816-3.166-.354-3.772-.554-.286-33.242-.371-33.943-.088m-73.174.383c-1.407.789-1.461 3.412-.085 4.148.74.396 33.636.319 34.224-.08 1.271-.863 1.214-3.168-.098-3.968-.644-.392-33.347-.489-34.041-.1m145.07.38c-1.293.702-1.313 3.071-.033 3.915.576.379 33.303.52 34.106.146 1.444-.671 1.444-3.472 0-4.144-.666-.309-33.497-.23-34.073.083m-71.884 9.717c-2.031 1.238-1.191 4.356 1.173 4.356 1.338 0 2.25-.942 2.25-2.324 0-1.847-1.889-2.968-3.423-2.032m5.629.26c-.865.793-.93 2.419-.129 3.255 1.476 1.541 3.987.606 3.987-1.483 0-2.095-2.335-3.168-3.858-1.772m7.02-.305c-2.264 1.117-1.631 4.412.844 4.395.945-.007 1.413-.211 1.895-.828 1.463-1.872-.635-4.604-2.739-3.567m6.262.221c-.793.792-.688 3.312.165 3.966.198.152 2.106.204 7.647.208l7.382.006.409-.409c.365-.365.409-.55.407-1.709-.005-2.718.547-2.549-8.328-2.549h-7.195l-.487.487m-91.574-.019c-2.496.856-1.925 4.534.703 4.531 1.642-.001 2.783-1.696 2.149-3.193-.435-1.029-1.837-1.687-2.852-1.338m5.653.094c-.284.129-.678.495-.875.814-1.605 2.597 2.159 5.043 3.875 2.517 1.319-1.94-.822-4.318-3-3.331m6.054.294c-2.191 1.634-.171 5.22 2.284 4.055 1.653-.784 1.887-3.039.424-4.081-.646-.46-2.076-.446-2.708.026m6.637.068c-.637.637-.633 2.803.007 3.563l.432.513h14.785l.458-.394c.761-.655.798-2.942.06-3.734l-.346-.372h-14.972l-.424.424m132.49-.044c-2.182 1.227-1.315 4.287 1.216 4.287 2.467 0 3.05-3.458.748-4.438-.745-.318-1.19-.284-1.964.151m-5.998-.011c-2.153 1.248-1.381 4.362 1.082 4.362 2.359 0 3.208-2.941 1.226-4.248-.539-.355-1.785-.417-2.308-.114m12.484.035c-2.139.931-1.609 4.177.715 4.38 2.537.222 3.582-3.179 1.315-4.277-.812-.393-1.308-.418-2.03-.103m6.681-.045c-.64.35-.75.666-.75 2.154 0 1.179.059 1.524.319 1.844l.318.393H292.695l.418-.486c.639-.743.534-3.094-.165-3.695l-.468-.402-7.199.005c-4.888.003-7.306.063-7.532.187M201.9 196.341c-4.206.818-5.693 5.749-2.64 8.754 1.842 1.812 4.843 1.894 6.828.186 3.851-3.314.764-9.903-4.188-8.94m71.79.668c-3.791.763-5.278 5.73-2.558 8.546 2.422 2.509 6.626 1.967 8.192-1.055a5.157 5.157 0 0 0-5.634-7.491m-145.32.783c-5.337 2.174-3.871 9.875 1.88 9.875 5.41 0 6.995-7.309 2.104-9.702-1.027-.503-2.968-.587-3.984-.173m113.55 37.71c-2.492.376-3.339.547-4.917.994-.687.195-1.475.415-1.75.49-1.093.295-3.747 1.41-5.217 2.19-2.861 1.52-3.887 2.292-17.866 13.437-.138.109-.963.772-1.834 1.472a557.99 557.99 0 0 1-4.458 3.564c-1.926 1.526-1.956 1.596-1.06 2.47.356.347 1.89 1.85 3.408 3.339 3.132 3.075 3.163 3.087 4.444 1.708.046-.05.533-.463 1.083-.92.55-.456 1.037-.871 1.083-.922.327-.364 6.663-5.342 7.834-6.153.32-.223.62-.451.666-.506.225-.273 6.137-4.259 7.291-4.915l1.817-1.044c8.894-5.121 14.857-6.028 22.089-3.362 1.722.635 4.879 2.308 5.303 2.809.046.055.384.32.75.59 7.047 5.194 10.092 14.367 7.775 23.424-2.603 10.173-14.294 17.456-24.895 15.508-5.672-1.042-14.763-6.09-23.463-13.029-5.216-4.16-7.519-6.154-12.683-10.979a448.643 448.643 0 0 1-3.009-2.917c-5.256-5.126-8.396-8.034-10.453-9.683a11.908 11.908 0 0 1-.667-.577 21.331 21.331 0 0 0-1.105-.917c-.458-.361-.87-.695-.916-.743-.115-.118-1.974-1.635-2.755-2.247a266.531 266.531 0 0 1-4.245-3.476 41.018 41.018 0 0 0-1.167-.938 20.094 20.094 0 0 1-.941-.762c-1.617-1.537-7.286-4.577-10.699-5.739-19.491-6.633-40.671 4.645-43.818 23.332l-.295 1.75-47.747.084v-8.31l-.439-.345c-.979-.77-2.129-.381-5.143 1.738-14.366 10.098-14.918 10.527-14.918 11.578 0 1.294.709 1.97 5.245 5.005.205.137.553.378.773.536 12.116 8.666 12.09 8.65 13.32 8.38 1.147-.252 1.162-.317 1.162-4.922v-4.161h47.795l.108.792c3.045 22.456 29.46 34.089 49.239 21.686 1.407-.882 5.125-3.627 10.964-8.092.263-.201 1.527-1.162 2.811-2.135a901.492 901.492 0 0 0 2.833-2.157c.742-.574 2.685-2.045 3.917-2.964a56.451 56.451 0 0 0 1.378-1.054c.163-.135.875-.668 1.584-1.185.708-.517 1.342-.987 1.409-1.045s-1.476-1.702-3.429-3.654l-3.551-3.548-1.238 1.032c-.68.567-1.274 1.081-1.32 1.141s-.796.701-1.667 1.425c-.87.723-1.658 1.396-1.75 1.495-.091.1-.578.519-1.081.931-.504.412-1.104.913-1.334 1.112-.23.2-.906.742-1.501 1.204-17.003 13.178-25.158 15.55-35.539 10.338-9.241-4.641-14.543-16.045-11.656-25.072.088-.275.283-.917.433-1.427 3.204-10.881 16.859-17.811 27.787-14.101 2.697.916 6.389 2.778 9.641 4.863 5.353 3.431 12.725 8.764 14.167 10.248a57.5 57.5 0 0 0 1.167.999 77.784 77.784 0 0 1 1.833 1.597l2 1.826c.688.627 2.449 2.271 3.914 3.651 5.307 5.003 9.266 8.549 11.641 10.428.173.137.401.328.505.423.312.284 6.449 4.954 7.44 5.661.835.595 5.553 4.074 7.583 5.591 8.716 6.513 17.991 8.997 27.378 7.332 1.828-.324 6.001-1.54 6.812-1.985.171-.093.91-.45 1.644-.793 9.112-4.26 15.941-13.566 17.505-23.854l.107-.709H320.503v4.161c0 4.605.015 4.67 1.162 4.922.818.179 3.621-1.2 4.809-2.367.122-.12.367-.295.544-.39s1.427-.968 2.779-1.941c1.351-.972 3.918-2.79 5.706-4.04 7.407-5.18 7.391-4.803.4-9.812-2.3-1.648-4.511-3.204-4.913-3.457-.401-.254-.83-.562-.954-.685-.123-.123-.279-.224-.347-.224s-.27-.137-.451-.305a7.124 7.124 0 0 0-.823-.624 95.217 95.217 0 0 1-2.329-1.638c-2.889-2.08-4.173-2.518-5.144-1.754l-.439.345v8.311l-41.416-.085-.194-1.279c-2.545-16.701-19.495-28.607-36.973-25.969"/><path d="M192.5.101c-4.695.138-14.558.988-19.167 1.652-.87.125-2.221.313-3 .416-.779.104-1.979.288-2.666.408-.688.121-1.775.308-2.417.416-1.165.195-2.558.455-4.917.919C150.4 5.865 138.75 9.222 129 12.941c-2.797 1.067-8.827 3.537-9.083 3.72-.092.066-.473.238-.847.383-3.41 1.323-15.663 7.578-19.787 10.103-.617.377-1.156.686-1.198.686-.128 0-6.562 4.054-8.972 5.654-2.894 1.92-8.263 5.771-10.921 7.833-2.121 1.646-6.544 5.174-6.692 5.338-.046.05-.608.542-1.249 1.092-4.5 3.859-7.409 6.555-11.677 10.824-4.269 4.268-6.965 7.177-10.824 11.677a54.075 54.075 0 0 1-1.091 1.249c-.051.046-.937 1.133-1.97 2.417a2873.257 2873.257 0 0 1-2.11 2.618c-5.255 6.477-12.437 17.274-17.382 26.132L24.451 104c-1.452 2.587-5.168 9.976-6.369 12.667-.43.962-.933 2.083-1.117 2.49-.476 1.049-2.94 6.94-3.204 7.66-.122.33-.407 1.087-.635 1.683-2.908 7.611-5.381 15.395-7.068 22.25-.136.55-.434 1.75-.663 2.667a78.212 78.212 0 0 0-.569 2.416c-.084.413-.269 1.275-.41 1.917s-.367 1.729-.503 2.417l-.495 2.5C2.246 168.581 1.242 176.253.497 185c-.801 9.409-.562 26.52.497 35.583.086.734.239 2.084.341 3 1.009 9.054 2.819 18.558 5.398 28.337.415 1.574 1.778 6.292 2.189 7.58.753 2.359 2.499 7.561 2.825 8.417.21.55.659 1.75.998 2.666.588 1.588 1.709 4.428 2.171 5.5l.395.917c.099.229.527 1.242.951 2.25 1.343 3.192 1.795 4.17 4.165 9 1.034 2.108 2.308 4.621 2.832 5.583.523.963 1.212 2.238 1.531 2.834.319.595.636 1.158.706 1.25.069.091.332.541.584 1 .509.927 2.744 4.716 3.812 6.463 1.604 2.623 5.827 8.951 7.448 11.161 1.864 2.54 3.731 5.046 3.819 5.126.051.045.425.533.831 1.083s.782 1.037.836 1.083c.055.046.36.421.678.834.319.412.739.937.934 1.166.195.23 1.128 1.355 2.073 2.5.946 1.146 1.957 2.346 2.248 2.667.292.321 1.155 1.296 1.92 2.167 2.544 2.896 10.483 10.992 13.571 13.838 2.062 1.901 5.402 4.821 7.417 6.483 1.146.946 2.271 1.879 2.5 2.074s.754.615 1.166.934c.413.318.788.623.834.678.045.054.533.43 1.083.836s1.037.78 1.083.831.984.757 2.084 1.571c1.1.813 2.375 1.759 2.833 2.103 1.168.876 3.35 2.364 6.75 4.603 4.245 2.796 4.365 2.872 6.917 4.381a909.77 909.77 0 0 1 3.127 1.857c.437.263.832.477.878.477.047 0 .396.197.777.438 3.057 1.929 12.616 6.707 18.468 9.229.687.297 1.55.672 1.916.834.367.162 1.079.461 1.584.664.504.204 1.066.433 1.25.51.302.128 1.57.629 3.583 1.415 3.125 1.221 11.188 3.973 13.917 4.751l1.916.547c3.295.942 4.093 1.155 7.584 2.019 3.23.801 6.131 1.47 7.416 1.713.23.043 1.167.225 2.084.404 6.169 1.207 13.566 2.274 19.416 2.801 8.242.742 8.379.747 19.167.747 10.941 0 15.183-.206 22.5-1.091.779-.094 1.979-.238 2.667-.319 7.908-.938 20.833-3.46 26.833-5.236.412-.123 1.5-.428 2.417-.679a71.878 71.878 0 0 0 2.333-.674c.367-.119 1.342-.418 2.167-.663 1.866-.556 7.655-2.479 9-2.991.55-.209 1.75-.658 2.666-.997 1.942-.72 9.594-3.877 11.417-4.712l2-.913c1.957-.892 8.329-4.078 10.406-5.204 1.278-.693 2.345-1.259 2.372-1.259s.54-.3 1.139-.667 1.12-.667 1.158-.667c.079 0 4.33-2.491 5.368-3.146 5.057-3.191 7.37-4.725 11.224-7.443a180.01 180.01 0 0 0 2.833-2.023 458.03 458.03 0 0 1 2.917-2.237c2.408-1.838 6.874-5.396 7.083-5.642.046-.054.571-.5 1.167-.992 1.397-1.152 4.244-3.678 6.583-5.839 3.119-2.883 10.672-10.617 13.349-13.67.358-.408.764-.858.901-1.001.137-.142.812-.933 1.499-1.758.688-.824 1.296-1.536 1.351-1.582.056-.046 1.184-1.433 2.507-3.083 9.454-11.789 17.149-23.845 23.636-37.028 1.314-2.669 1.882-3.881 3.623-7.718.526-1.16 2.812-6.638 3.115-7.463.126-.344.428-1.15.672-1.791a189.838 189.838 0 0 0 2.042-5.584c.875-2.478 2.1-6.2 2.387-7.25.075-.275.36-1.25.633-2.166 1.771-5.95 2.789-10.115 4.258-17.417.744-3.697 1.774-9.909 2.1-12.667.092-.779.277-2.316.411-3.416s.324-2.975.422-4.167.254-3.029.346-4.083c.354-4.051.536-11.568.439-18.084-.156-10.376-.974-19.723-2.537-29l-.419-2.5a99.05 99.05 0 0 0-.41-2.25l-.488-2.5c-.722-3.688-2.186-9.892-3.089-13.083l-.657-2.333c-1.362-4.863-3.545-11.434-5.274-15.874-.223-.573-.586-1.51-.806-2.084-.745-1.939-2.645-6.541-2.77-6.709-.069-.092-.307-.617-.53-1.167-.946-2.329-4.814-10.234-6.972-14.246-.97-1.804-3.547-6.302-4.489-7.837l-1.019-1.667c-2.996-4.904-8.26-12.564-11.519-16.762-.575-.74-1.27-1.64-1.545-2a126.37 126.37 0 0 0-2.117-2.654c-1.031-1.257-4.125-4.934-4.542-5.399a179.385 179.385 0 0 1-1.577-1.771c-2.049-2.312-4.757-5.159-7.763-8.164-3.542-3.54-6.079-5.929-9.483-8.928a61.156 61.156 0 0 1-.833-.744c-.173-.16-4.28-3.608-5.019-4.212a120.502 120.502 0 0 0-2.434-1.952l-1.75-1.329c-.724-.55-1.353-1.04-1.399-1.089-.364-.393-7.797-5.662-7.987-5.662a.24.24 0 0 1-.207-.133c-.076-.181-6.699-4.534-6.899-4.534-.053 0-.335-.178-.626-.396a14.31 14.31 0 0 0-1.23-.792c-.385-.217-1.318-.761-2.074-1.208-5.341-3.157-13.394-7.353-18.56-9.671a798.91 798.91 0 0 1-3-1.352c-.834-.38-3.273-1.388-6.25-2.584-10.399-4.176-23.168-7.963-34-10.084-.688-.134-1.625-.32-2.084-.412-6.252-1.259-15.51-2.435-24.333-3.091-3.351-.249-16.233-.441-20.75-.309m16.583 13.15c5.526.279 11.172.762 14.631 1.251.661.094 1.803.249 2.536.346 1.815.239 6.222.947 7.75 1.244 6.396 1.246 12.19 2.575 16 3.672.779.225 1.717.49 2.083.589.367.1.967.28 1.334.4.366.121 1.904.605 3.416 1.077 1.513.472 3.238 1.035 3.834 1.252.595.216 1.87.671 2.833 1.01 2.324.819 8.452 3.233 9.917 3.907.641.295 1.504.671 1.916.835 1.27.503 5.421 2.475 8.834 4.194 3.063 1.544 4.143 2.114 6.333 3.343.504.282 1.254.702 1.667.931 1.044.582 5.118 2.986 5.875 3.467.343.219.925.585 1.291.814.367.23.975.621 1.352.869.377.249.828.53 1.001.625.603.33 6.233 4.179 7.645 5.226l1.91 1.416c2.45 1.818 6.564 5.041 7.698 6.031.105.092.331.279.502.417a123.46 123.46 0 0 1 2.392 2.001c.046.047.683.609 1.416 1.25 4.99 4.366 11.983 11.274 16.002 15.809 1.188 1.341 3.797 4.364 4.249 4.923.321.398.658.808.75.912 1.076 1.226 5.642 7.081 6.58 8.438.222.321.448.621.501.667.249.214 5.051 7.203 5.749 8.366.094.156.706 1.131 1.361 2.167 3.968 6.277 12.559 22.395 12.559 23.562 0 .047.216.551.481 1.12 2.231 4.799 5.887 14.771 7.772 21.201 1.04 3.55 1.679 5.875 2.012 7.334.126.55.338 1.412.471 1.916 1.111 4.218 2.73 12.63 3.416 17.75.52 3.879.677 5.177.844 7 .102 1.1.259 2.75.35 3.667 1.079 10.83.697 28.702-.848 39.63a227.63 227.63 0 0 0-.341 2.537c-.094.733-.278 1.97-.407 2.75-.13.779-.32 1.941-.422 2.583s-.288 1.692-.414 2.333c-.125.642-.342 1.767-.482 2.5-1.758 9.199-4.937 20.274-8.515 29.667-.245.642-.583 1.542-.752 2-1.807 4.899-8.781 19.758-10.169 21.667-.067.091-.404.691-.75 1.333-.345.642-1.386 2.441-2.312 3.999l-1.851 3.116a151.94 151.94 0 0 1-1.416 2.228 515.743 515.743 0 0 0-1.5 2.34c-1.142 1.807-5.512 7.93-7.346 10.293-.772.994-1.554 2.011-1.738 2.26-.707.957-5.715 7.02-5.931 7.181-.062.045-.393.42-.735.833-2.876 3.463-12.404 12.999-16.917 16.93-.413.359-.788.696-.833.748-.046.052-1.246 1.055-2.667 2.229s-2.771 2.295-3 2.491c-1.624 1.388-11.348 8.602-11.595 8.602-.039 0-.577.36-1.196.8-1.945 1.383-4.966 3.277-9.542 5.984-5.103 3.017-11.236 6.248-16.167 8.514-2.826 1.299-9.205 4.018-10.792 4.6-.344.125-1.15.428-1.791.672-2.337.889-6.79 2.458-8.334 2.936-6.422 1.99-9.665 2.888-15.083 4.177-3.585.852-7.877 1.719-10.667 2.154-.687.107-1.812.295-2.5.417-.687.122-1.85.301-2.583.399-3.737.499-5.158.672-6.833.834-1.009.097-2.621.255-3.584.35-8.695.856-23.971.856-32.666 0-.963-.095-2.575-.253-3.584-.35-14.731-1.423-31.488-5.4-46-10.917a225.65 225.65 0 0 0-1.774-.667c-1.134-.416-6.452-2.637-8.642-3.608-4.762-2.113-12.078-5.827-15.889-8.067-.993-.584-1.831-1.061-1.862-1.061s-.661-.375-1.4-.834c-.739-.458-1.387-.833-1.441-.833-.053 0-.336-.179-.628-.399a10.92 10.92 0 0 0-1.114-.715c-.659-.359-1.729-1.04-4.5-2.864-1.867-1.23-9.5-6.643-9.666-6.855-.046-.058-.534-.438-1.084-.844s-1.037-.778-1.083-.826c-.046-.049-.421-.35-.833-.668s-.899-.705-1.083-.859c-.184-.153-1.084-.893-2.001-1.644-9.052-7.411-17.998-16.357-25.409-25.409a633.432 633.432 0 0 0-1.644-2.001c-.154-.184-.541-.671-.859-1.083s-.619-.787-.668-.833c-.048-.046-.42-.533-.826-1.083s-.785-1.038-.842-1.084c-.164-.132-4.648-6.399-6.022-8.416-2.357-3.462-6.932-10.965-8.741-14.334a988.238 988.238 0 0 0-1.395-2.583c-.702-1.291-3.646-7.214-4.391-8.833l-.945-2.052c-.551-1.194-3.384-7.951-3.752-8.948-.118-.321-.415-1.109-.659-1.75-2.456-6.458-5.139-15.16-6.681-21.667-.326-1.375-.701-2.95-.835-3.5-.293-1.208-1.474-7.206-1.738-8.833-.105-.642-.296-1.805-.426-2.584-.129-.779-.318-2.054-.419-2.833s-.285-2.167-.41-3.083c-.124-.917-.312-2.567-.416-3.667-.105-1.1-.263-2.713-.351-3.583-.837-8.254-.833-23.83.009-32.334.095-.962.253-2.575.35-3.583s.285-2.658.418-3.667c.132-1.008.321-2.471.42-3.25s.281-1.979.404-2.666c.124-.688.31-1.813.415-2.5.105-.688.291-1.738.414-2.334s.345-1.721.493-2.5c.149-.779.339-1.716.425-2.083.085-.367.388-1.717.673-3 .472-2.126 1.168-4.918 1.994-8.007.738-2.757 3.52-11.553 4.138-13.082.092-.226.443-1.161.782-2.078 1.271-3.442 3.298-8.438 4.349-10.72.309-.671.562-1.247.562-1.278 0-.277 4.466-9.276 5.874-11.835l1.463-2.667c2.438-4.458 7.152-11.894 10.724-16.916 1.043-1.466 4.444-6.02 4.607-6.167.05-.046.614-.758 1.252-1.583 1.127-1.457 4.164-5.15 4.721-5.741.152-.162.49-.548.752-.86 3.597-4.275 11.464-12.236 16.776-16.977.87-.776 1.724-1.526 1.898-1.667.174-.14.439-.368.589-.505 1.595-1.464 5.714-4.765 9.957-7.978 4.249-3.218 10.762-7.617 15.054-10.166.504-.299 1.404-.842 2-1.207s1.233-.739 1.416-.83a12.3 12.3 0 0 0 .668-.368c.44-.265 2.697-1.521 4.166-2.319 3.192-1.736 11.387-5.731 13.298-6.485.477-.188.943-.402 1.035-.475.164-.131 6.902-2.835 9.5-3.813 5.229-1.967 14.111-4.72 18.917-5.863 4.043-.961 6.086-1.418 8.916-1.994 5.393-1.097 12.643-2.2 17.5-2.661l3.75-.36c6.309-.613 17.054-.785 24.75-.397m-98.25 83.751c-5.045.869-9.54 5.179-10.773 10.331-.377 1.573-.584 96.144-.219 99.576.631 5.922 4.23 10.204 10.076 11.985 1.163.355 1.23.356 20.916.356h19.75l1.334-.393c4.755-1.401 7.95-4.487 9.53-9.203l.47-1.404v-100.5l-.458-1.351c-1.72-5.074-5.71-8.59-10.658-9.393-1.241-.201-38.8-.205-39.968-.004m72.834-.061c-5.166.827-9.175 4.475-10.964 9.976-.326 1.003-.534 97.177-.215 99.607.785 5.989 5.732 10.744 11.929 11.467 2.03.237 36.152.24 38.087.003 6.346-.775 11.136-5.457 11.986-11.714.312-2.304.24-96.134-.077-98.084-.866-5.341-4.417-9.268-9.996-11.057-.633-.203-39.54-.392-40.75-.198m72.75.509c-6.515.931-11.265 5.795-11.93 12.217-.333 3.208-.119 97.411.223 98.583 1.584 5.422 5.234 8.968 10.455 10.155 1.01.23 3.511.262 20.451.261h19.301l1.5-.404c4.994-1.347 8.547-4.836 9.852-9.679.305-1.131.314-2.68.314-50.666v-49.5l-.47-1.404c-1.303-3.892-3.532-6.48-7.139-8.292-.834-.419-1.09-.511-2.807-1.016-.874-.256-38.07-.495-39.75-.255m-104.88 6.439c1.548.767 2.632 1.876 3.469 3.544l.577 1.15.045 48.917c.03 32.93-.011 49.179-.126 49.721-.489 2.306-2.218 4.264-4.691 5.316l-.894.38h-38l-1.276-.551c-1.631-.704-3.065-2.072-3.847-3.671l-.544-1.112-.043-49.074c-.048-54.296-.131-50.101 1.036-51.926 1.006-1.573 3.007-3.011 4.59-3.299.23-.042 8.967-.067 19.417-.055l19 .021 1.287.639m71.353-.472c2.64.687 4.741 3.014 5.261 5.826.309 1.669.247 95.176-.064 96.642-.484 2.286-1.967 4.175-4.056 5.168l-1.114.53h-38.834l-.956-.448c-2.364-1.108-3.856-2.944-4.293-5.283-.232-1.244-.231-95.635.001-96.871.494-2.629 3.003-5.226 5.499-5.691 1.257-.235 37.627-.115 38.556.127m71.755.521c2.246.563 3.95 1.945 4.987 4.045l.618 1.25v97.684l-.522 1.083c-.664 1.377-1.543 2.388-2.759 3.174-1.915 1.237-.819 1.181-21.886 1.126l-18.833-.05-1.25-.622c-1.893-.943-3.047-2.167-3.762-3.991l-.406-1.038.042-48.758.043-48.758.535-1.095c1.017-2.077 2.615-3.398 4.838-3.998 1.644-.443 36.606-.49 38.355-.052m-107.65 21.682c-1.531 1.064-1.37 3.462.278 4.15.817.342 32.637.342 33.454 0 1.6-.668 1.834-3.19.38-4.088-.804-.498-33.401-.557-34.112-.062m-73.1.311c-1.561.771-1.415 3.481.225 4.175.924.392 32.923.33 33.713-.065 1.512-.755 1.512-3.327 0-4.082-.842-.421-33.088-.447-33.938-.028m144.82.634c-1.021.936-.862 2.979.285 3.657.716.422 33.448.428 34.163.005 1.366-.806 1.351-3.238-.025-4.002-.306-.169-3.825-.214-17.096-.219L259.331 126l-.616.565m-72.316 9.766c-.951.384-1.445 1.89-1.001 3.051.529 1.386-.888 1.285 18.003 1.285h16.763l.532-.476c1.028-.917.816-3.166-.354-3.772-.554-.286-33.242-.371-33.943-.088m-73.174.383c-1.407.789-1.461 3.412-.085 4.148.74.396 33.636.319 34.224-.08 1.271-.863 1.214-3.168-.098-3.968-.644-.392-33.347-.489-34.041-.1m145.07.38c-1.293.702-1.313 3.071-.033 3.915.576.379 33.303.52 34.106.146 1.444-.671 1.444-3.472 0-4.144-.666-.309-33.497-.23-34.073.083m-71.884 9.717c-2.031 1.238-1.191 4.356 1.173 4.356 1.338 0 2.25-.942 2.25-2.324 0-1.847-1.889-2.968-3.423-2.032m5.629.26c-.865.793-.93 2.419-.129 3.255 1.476 1.541 3.987.606 3.987-1.483 0-2.095-2.335-3.168-3.858-1.772m7.02-.305c-2.264 1.117-1.631 4.412.844 4.395.945-.007 1.413-.211 1.895-.828 1.463-1.872-.635-4.604-2.739-3.567m6.262.221c-.793.792-.688 3.312.165 3.966.198.152 2.106.204 7.647.208l7.382.006.409-.409c.365-.365.409-.55.407-1.709-.005-2.718.547-2.549-8.328-2.549h-7.195l-.487.487m-91.574-.019c-2.496.856-1.925 4.534.703 4.531 1.642-.001 2.783-1.696 2.149-3.193-.435-1.029-1.837-1.687-2.852-1.338m5.653.094c-.284.129-.678.495-.875.814-1.605 2.597 2.159 5.043 3.875 2.517 1.319-1.94-.822-4.318-3-3.331m6.054.294c-2.191 1.634-.171 5.22 2.284 4.055 1.653-.784 1.887-3.039.424-4.081-.646-.46-2.076-.446-2.708.026m6.637.068c-.637.637-.633 2.803.007 3.563l.432.513h14.785l.458-.394c.761-.655.798-2.942.06-3.734l-.346-.372h-14.972l-.424.424m132.49-.044c-2.182 1.227-1.315 4.287 1.216 4.287 2.467 0 3.05-3.458.748-4.438-.745-.318-1.19-.284-1.964.151m-5.998-.011c-2.153 1.248-1.381 4.362 1.082 4.362 2.359 0 3.208-2.941 1.226-4.248-.539-.355-1.785-.417-2.308-.114m12.484.035c-2.139.931-1.609 4.177.715 4.38 2.537.222 3.582-3.179 1.315-4.277-.812-.393-1.308-.418-2.03-.103m6.681-.045c-.64.35-.75.666-.75 2.154 0 1.179.059 1.524.319 1.844l.318.393H292.695l.418-.486c.639-.743.534-3.094-.165-3.695l-.468-.402-7.199.005c-4.888.003-7.306.063-7.532.187M201.9 196.341c-4.206.818-5.693 5.749-2.64 8.754 1.842 1.812 4.843 1.894 6.828.186 3.851-3.314.764-9.903-4.188-8.94m71.79.668c-3.791.763-5.278 5.73-2.558 8.546 2.422 2.509 6.626 1.967 8.192-1.055a5.157 5.157 0 0 0-5.634-7.491m-145.32.783c-5.337 2.174-3.871 9.875 1.88 9.875 5.41 0 6.995-7.309 2.104-9.702-1.027-.503-2.968-.587-3.984-.173m113.55 37.71c-2.492.376-3.339.547-4.917.994-.687.195-1.475.415-1.75.49-1.093.295-3.747 1.41-5.217 2.19-2.861 1.52-3.887 2.292-17.866 13.437-.138.109-.963.772-1.834 1.472a557.99 557.99 0 0 1-4.458 3.564c-1.926 1.526-1.956 1.596-1.06 2.47.356.347 1.89 1.85 3.408 3.339 3.132 3.075 3.163 3.087 4.444 1.708.046-.05.533-.463 1.083-.92.55-.456 1.037-.871 1.083-.922.327-.364 6.663-5.342 7.834-6.153.32-.223.62-.451.666-.506.225-.273 6.137-4.259 7.291-4.915l1.817-1.044c8.894-5.121 14.857-6.028 22.089-3.362 1.722.635 4.879 2.308 5.303 2.809.046.055.384.32.75.59 7.047 5.194 10.092 14.367 7.775 23.424-2.603 10.173-14.294 17.456-24.895 15.508-5.672-1.042-14.763-6.09-23.463-13.029-5.216-4.16-7.519-6.154-12.683-10.979a448.643 448.643 0 0 1-3.009-2.917c-5.256-5.126-8.396-8.034-10.453-9.683a11.908 11.908 0 0 1-.667-.577 21.331 21.331 0 0 0-1.105-.917c-.458-.361-.87-.695-.916-.743-.115-.118-1.974-1.635-2.755-2.247a266.531 266.531 0 0 1-4.245-3.476 41.018 41.018 0 0 0-1.167-.938 20.094 20.094 0 0 1-.941-.762c-1.617-1.537-7.286-4.577-10.699-5.739-19.491-6.633-40.671 4.645-43.818 23.332l-.295 1.75-47.747.084v-8.31l-.439-.345c-.979-.77-2.129-.381-5.143 1.738-14.366 10.098-14.918 10.527-14.918 11.578 0 1.294.709 1.97 5.245 5.005.205.137.553.378.773.536 12.116 8.666 12.09 8.65 13.32 8.38 1.147-.252 1.162-.317 1.162-4.922v-4.161h47.795l.108.792c3.045 22.456 29.46 34.089 49.239 21.686 1.407-.882 5.125-3.627 10.964-8.092.263-.201 1.527-1.162 2.811-2.135a901.492 901.492 0 0 0 2.833-2.157c.742-.574 2.685-2.045 3.917-2.964a56.451 56.451 0 0 0 1.378-1.054c.163-.135.875-.668 1.584-1.185.708-.517 1.342-.987 1.409-1.045s-1.476-1.702-3.429-3.654l-3.551-3.548-1.238 1.032c-.68.567-1.274 1.081-1.32 1.141s-.796.701-1.667 1.425c-.87.723-1.658 1.396-1.75 1.495-.091.1-.578.519-1.081.931-.504.412-1.104.913-1.334 1.112-.23.2-.906.742-1.501 1.204-17.003 13.178-25.158 15.55-35.539 10.338-9.241-4.641-14.543-16.045-11.656-25.072.088-.275.283-.917.433-1.427 3.204-10.881 16.859-17.811 27.787-14.101 2.697.916 6.389 2.778 9.641 4.863 5.353 3.431 12.725 8.764 14.167 10.248a57.5 57.5 0 0 0 1.167.999 77.784 77.784 0 0 1 1.833 1.597l2 1.826c.688.627 2.449 2.271 3.914 3.651 5.307 5.003 9.266 8.549 11.641 10.428.173.137.401.328.505.423.312.284 6.449 4.954 7.44 5.661.835.595 5.553 4.074 7.583 5.591 8.716 6.513 17.991 8.997 27.378 7.332 1.828-.324 6.001-1.54 6.812-1.985.171-.093.91-.45 1.644-.793 9.112-4.26 15.941-13.566 17.505-23.854l.107-.709H320.503v4.161c0 4.605.015 4.67 1.162 4.922.818.179 3.621-1.2 4.809-2.367.122-.12.367-.295.544-.39s1.427-.968 2.779-1.941c1.351-.972 3.918-2.79 5.706-4.04 7.407-5.18 7.391-4.803.4-9.812-2.3-1.648-4.511-3.204-4.913-3.457-.401-.254-.83-.562-.954-.685-.123-.123-.279-.224-.347-.224s-.27-.137-.451-.305a7.124 7.124 0 0 0-.823-.624 95.217 95.217 0 0 1-2.329-1.638c-2.889-2.08-4.173-2.518-5.144-1.754l-.439.345v8.311l-41.416-.085-.194-1.279c-2.545-16.701-19.495-28.607-36.973-25.969"/><path d="M192.5.101c-4.695.138-14.558.988-19.167 1.652-.87.125-2.221.313-3 .416-.779.104-1.979.288-2.666.408-.688.121-1.775.308-2.417.416-1.165.195-2.558.455-4.917.919C150.4 5.865 138.75 9.222 129 12.941c-2.797 1.067-8.827 3.537-9.083 3.72-.092.066-.473.238-.847.383-3.41 1.323-15.663 7.578-19.787 10.103-.617.377-1.156.686-1.198.686-.128 0-6.562 4.054-8.972 5.654-2.894 1.92-8.263 5.771-10.921 7.833-2.121 1.646-6.544 5.174-6.692 5.338-.046.05-.608.542-1.249 1.092-4.5 3.859-7.409 6.555-11.677 10.824-4.269 4.268-6.965 7.177-10.824 11.677a54.075 54.075 0 0 1-1.091 1.249c-.051.046-.937 1.133-1.97 2.417a2873.257 2873.257 0 0 1-2.11 2.618c-5.255 6.477-12.437 17.274-17.382 26.132L24.451 104c-1.452 2.587-5.168 9.976-6.369 12.667-.43.962-.933 2.083-1.117 2.49-.476 1.049-2.94 6.94-3.204 7.66-.122.33-.407 1.087-.635 1.683-2.908 7.611-5.381 15.395-7.068 22.25-.136.55-.434 1.75-.663 2.667a78.212 78.212 0 0 0-.569 2.416c-.084.413-.269 1.275-.41 1.917s-.367 1.729-.503 2.417l-.495 2.5C2.246 168.581 1.242 176.253.497 185c-.801 9.409-.562 26.52.497 35.583.086.734.239 2.084.341 3 1.009 9.054 2.819 18.558 5.398 28.337.415 1.574 1.778 6.292 2.189 7.58.753 2.359 2.499 7.561 2.825 8.417.21.55.659 1.75.998 2.666.588 1.588 1.709 4.428 2.171 5.5l.395.917c.099.229.527 1.242.951 2.25 1.343 3.192 1.795 4.17 4.165 9 1.034 2.108 2.308 4.621 2.832 5.583.523.963 1.212 2.238 1.531 2.834.319.595.636 1.158.706 1.25.069.091.332.541.584 1 .509.927 2.744 4.716 3.812 6.463 1.604 2.623 5.827 8.951 7.448 11.161 1.864 2.54 3.731 5.046 3.819 5.126.051.045.425.533.831 1.083s.782 1.037.836 1.083c.055.046.36.421.678.834.319.412.739.937.934 1.166.195.23 1.128 1.355 2.073 2.5.946 1.146 1.957 2.346 2.248 2.667.292.321 1.155 1.296 1.92 2.167 2.544 2.896 10.483 10.992 13.571 13.838 2.062 1.901 5.402 4.821 7.417 6.483 1.146.946 2.271 1.879 2.5 2.074s.754.615 1.166.934c.413.318.788.623.834.678.045.054.533.43 1.083.836s1.037.78 1.083.831.984.757 2.084 1.571c1.1.813 2.375 1.759 2.833 2.103 1.168.876 3.35 2.364 6.75 4.603 4.245 2.796 4.365 2.872 6.917 4.381a909.77 909.77 0 0 1 3.127 1.857c.437.263.832.477.878.477.047 0 .396.197.777.438 3.057 1.929 12.616 6.707 18.468 9.229.687.297 1.55.672 1.916.834.367.162 1.079.461 1.584.664.504.204 1.066.433 1.25.51.302.128 1.57.629 3.583 1.415 3.125 1.221 11.188 3.973 13.917 4.751l1.916.547c3.295.942 4.093 1.155 7.584 2.019 3.23.801 6.131 1.47 7.416 1.713.23.043 1.167.225 2.084.404 6.169 1.207 13.566 2.274 19.416 2.801 8.242.742 8.379.747 19.167.747 10.941 0 15.183-.206 22.5-1.091.779-.094 1.979-.238 2.667-.319 7.908-.938 20.833-3.46 26.833-5.236.412-.123 1.5-.428 2.417-.679a71.878 71.878 0 0 0 2.333-.674c.367-.119 1.342-.418 2.167-.663 1.866-.556 7.655-2.479 9-2.991.55-.209 1.75-.658 2.666-.997 1.942-.72 9.594-3.877 11.417-4.712l2-.913c1.957-.892 8.329-4.078 10.406-5.204 1.278-.693 2.345-1.259 2.372-1.259s.54-.3 1.139-.667 1.12-.667 1.158-.667c.079 0 4.33-2.491 5.368-3.146 5.057-3.191 7.37-4.725 11.224-7.443a180.01 180.01 0 0 0 2.833-2.023 458.03 458.03 0 0 1 2.917-2.237c2.408-1.838 6.874-5.396 7.083-5.642.046-.054.571-.5 1.167-.992 1.397-1.152 4.244-3.678 6.583-5.839 3.119-2.883 10.672-10.617 13.349-13.67.358-.408.764-.858.901-1.001.137-.142.812-.933 1.499-1.758.688-.824 1.296-1.536 1.351-1.582.056-.046 1.184-1.433 2.507-3.083 9.454-11.789 17.149-23.845 23.636-37.028 1.314-2.669 1.882-3.881 3.623-7.718.526-1.16 2.812-6.638 3.115-7.463.126-.344.428-1.15.672-1.791a189.838 189.838 0 0 0 2.042-5.584c.875-2.478 2.1-6.2 2.387-7.25.075-.275.36-1.25.633-2.166 1.771-5.95 2.789-10.115 4.258-17.417.744-3.697 1.774-9.909 2.1-12.667.092-.779.277-2.316.411-3.416s.324-2.975.422-4.167.254-3.029.346-4.083c.354-4.051.536-11.568.439-18.084-.156-10.376-.974-19.723-2.537-29l-.419-2.5a99.05 99.05 0 0 0-.41-2.25l-.488-2.5c-.722-3.688-2.186-9.892-3.089-13.083l-.657-2.333c-1.362-4.863-3.545-11.434-5.274-15.874-.223-.573-.586-1.51-.806-2.084-.745-1.939-2.645-6.541-2.77-6.709-.069-.092-.307-.617-.53-1.167-.946-2.329-4.814-10.234-6.972-14.246-.97-1.804-3.547-6.302-4.489-7.837l-1.019-1.667c-2.996-4.904-8.26-12.564-11.519-16.762-.575-.74-1.27-1.64-1.545-2a126.37 126.37 0 0 0-2.117-2.654c-1.031-1.257-4.125-4.934-4.542-5.399a179.385 179.385 0 0 1-1.577-1.771c-2.049-2.312-4.757-5.159-7.763-8.164-3.542-3.54-6.079-5.929-9.483-8.928a61.156 61.156 0 0 1-.833-.744c-.173-.16-4.28-3.608-5.019-4.212a120.502 120.502 0 0 0-2.434-1.952l-1.75-1.329c-.724-.55-1.353-1.04-1.399-1.089-.364-.393-7.797-5.662-7.987-5.662a.24.24 0 0 1-.207-.133c-.076-.181-6.699-4.534-6.899-4.534-.053 0-.335-.178-.626-.396a14.31 14.31 0 0 0-1.23-.792c-.385-.217-1.318-.761-2.074-1.208-5.341-3.157-13.394-7.353-18.56-9.671a798.91 798.91 0 0 1-3-1.352c-.834-.38-3.273-1.388-6.25-2.584-10.399-4.176-23.168-7.963-34-10.084-.688-.134-1.625-.32-2.084-.412-6.252-1.259-15.51-2.435-24.333-3.091-3.351-.249-16.233-.441-20.75-.309m16.583 13.15c5.526.279 11.172.762 14.631 1.251.661.094 1.803.249 2.536.346 1.815.239 6.222.947 7.75 1.244 6.396 1.246 12.19 2.575 16 3.672.779.225 1.717.49 2.083.589.367.1.967.28 1.334.4.366.121 1.904.605 3.416 1.077 1.513.472 3.238 1.035 3.834 1.252.595.216 1.87.671 2.833 1.01 2.324.819 8.452 3.233 9.917 3.907.641.295 1.504.671 1.916.835 1.27.503 5.421 2.475 8.834 4.194 3.063 1.544 4.143 2.114 6.333 3.343.504.282 1.254.702 1.667.931 1.044.582 5.118 2.986 5.875 3.467.343.219.925.585 1.291.814.367.23.975.621 1.352.869.377.249.828.53 1.001.625.603.33 6.233 4.179 7.645 5.226l1.91 1.416c2.45 1.818 6.564 5.041 7.698 6.031.105.092.331.279.502.417a123.46 123.46 0 0 1 2.392 2.001c.046.047.683.609 1.416 1.25 4.99 4.366 11.983 11.274 16.002 15.809 1.188 1.341 3.797 4.364 4.249 4.923.321.398.658.808.75.912 1.076 1.226 5.642 7.081 6.58 8.438.222.321.448.621.501.667.249.214 5.051 7.203 5.749 8.366.094.156.706 1.131 1.361 2.167 3.968 6.277 12.559 22.395 12.559 23.562 0 .047.216.551.481 1.12 2.231 4.799 5.887 14.771 7.772 21.201 1.04 3.55 1.679 5.875 2.012 7.334.126.55.338 1.412.471 1.916 1.111 4.218 2.73 12.63 3.416 17.75.52 3.879.677 5.177.844 7 .102 1.1.259 2.75.35 3.667 1.079 10.83.697 28.702-.848 39.63a227.63 227.63 0 0 0-.341 2.537c-.094.733-.278 1.97-.407 2.75-.13.779-.32 1.941-.422 2.583s-.288 1.692-.414 2.333c-.125.642-.342 1.767-.482 2.5-1.758 9.199-4.937 20.274-8.515 29.667-.245.642-.583 1.542-.752 2-1.807 4.899-8.781 19.758-10.169 21.667-.067.091-.404.691-.75 1.333-.345.642-1.386 2.441-2.312 3.999l-1.851 3.116a151.94 151.94 0 0 1-1.416 2.228 515.743 515.743 0 0 0-1.5 2.34c-1.142 1.807-5.512 7.93-7.346 10.293-.772.994-1.554 2.011-1.738 2.26-.707.957-5.715 7.02-5.931 7.181-.062.045-.393.42-.735.833-2.876 3.463-12.404 12.999-16.917 16.93-.413.359-.788.696-.833.748-.046.052-1.246 1.055-2.667 2.229s-2.771 2.295-3 2.491c-1.624 1.388-11.348 8.602-11.595 8.602-.039 0-.577.36-1.196.8-1.945 1.383-4.966 3.277-9.542 5.984-5.103 3.017-11.236 6.248-16.167 8.514-2.826 1.299-9.205 4.018-10.792 4.6-.344.125-1.15.428-1.791.672-2.337.889-6.79 2.458-8.334 2.936-6.422 1.99-9.665 2.888-15.083 4.177-3.585.852-7.877 1.719-10.667 2.154-.687.107-1.812.295-2.5.417-.687.122-1.85.301-2.583.399-3.737.499-5.158.672-6.833.834-1.009.097-2.621.255-3.584.35-8.695.856-23.971.856-32.666 0-.963-.095-2.575-.253-3.584-.35-14.731-1.423-31.488-5.4-46-10.917a225.65 225.65 0 0 0-1.774-.667c-1.134-.416-6.452-2.637-8.642-3.608-4.762-2.113-12.078-5.827-15.889-8.067-.993-.584-1.831-1.061-1.862-1.061s-.661-.375-1.4-.834c-.739-.458-1.387-.833-1.441-.833-.053 0-.336-.179-.628-.399a10.92 10.92 0 0 0-1.114-.715c-.659-.359-1.729-1.04-4.5-2.864-1.867-1.23-9.5-6.643-9.666-6.855-.046-.058-.534-.438-1.084-.844s-1.037-.778-1.083-.826c-.046-.049-.421-.35-.833-.668s-.899-.705-1.083-.859c-.184-.153-1.084-.893-2.001-1.644-9.052-7.411-17.998-16.357-25.409-25.409a633.432 633.432 0 0 0-1.644-2.001c-.154-.184-.541-.671-.859-1.083s-.619-.787-.668-.833c-.048-.046-.42-.533-.826-1.083s-.785-1.038-.842-1.084c-.164-.132-4.648-6.399-6.022-8.416-2.357-3.462-6.932-10.965-8.741-14.334a988.238 988.238 0 0 0-1.395-2.583c-.702-1.291-3.646-7.214-4.391-8.833l-.945-2.052c-.551-1.194-3.384-7.951-3.752-8.948-.118-.321-.415-1.109-.659-1.75-2.456-6.458-5.139-15.16-6.681-21.667-.326-1.375-.701-2.95-.835-3.5-.293-1.208-1.474-7.206-1.738-8.833-.105-.642-.296-1.805-.426-2.584-.129-.779-.318-2.054-.419-2.833s-.285-2.167-.41-3.083c-.124-.917-.312-2.567-.416-3.667-.105-1.1-.263-2.713-.351-3.583-.837-8.254-.833-23.83.009-32.334.095-.962.253-2.575.35-3.583s.285-2.658.418-3.667c.132-1.008.321-2.471.42-3.25s.281-1.979.404-2.666c.124-.688.31-1.813.415-2.5.105-.688.291-1.738.414-2.334s.345-1.721.493-2.5c.149-.779.339-1.716.425-2.083.085-.367.388-1.717.673-3 .472-2.126 1.168-4.918 1.994-8.007.738-2.757 3.52-11.553 4.138-13.082.092-.226.443-1.161.782-2.078 1.271-3.442 3.298-8.438 4.349-10.72.309-.671.562-1.247.562-1.278 0-.277 4.466-9.276 5.874-11.835l1.463-2.667c2.438-4.458 7.152-11.894 10.724-16.916 1.043-1.466 4.444-6.02 4.607-6.167.05-.046.614-.758 1.252-1.583 1.127-1.457 4.164-5.15 4.721-5.741.152-.162.49-.548.752-.86 3.597-4.275 11.464-12.236 16.776-16.977.87-.776 1.724-1.526 1.898-1.667.174-.14.439-.368.589-.505 1.595-1.464 5.714-4.765 9.957-7.978 4.249-3.218 10.762-7.617 15.054-10.166.504-.299 1.404-.842 2-1.207s1.233-.739 1.416-.83a12.3 12.3 0 0 0 .668-.368c.44-.265 2.697-1.521 4.166-2.319 3.192-1.736 11.387-5.731 13.298-6.485.477-.188.943-.402 1.035-.475.164-.131 6.902-2.835 9.5-3.813 5.229-1.967 14.111-4.72 18.917-5.863 4.043-.961 6.086-1.418 8.916-1.994 5.393-1.097 12.643-2.2 17.5-2.661l3.75-.36c6.309-.613 17.054-.785 24.75-.397m-98.25 83.751c-5.045.869-9.54 5.179-10.773 10.331-.377 1.573-.584 96.144-.219 99.576.631 5.922 4.23 10.204 10.076 11.985 1.163.355 1.23.356 20.916.356h19.75l1.334-.393c4.755-1.401 7.95-4.487 9.53-9.203l.47-1.404v-100.5l-.458-1.351c-1.72-5.074-5.71-8.59-10.658-9.393-1.241-.201-38.8-.205-39.968-.004m72.834-.061c-5.166.827-9.175 4.475-10.964 9.976-.326 1.003-.534 97.177-.215 99.607.785 5.989 5.732 10.744 11.929 11.467 2.03.237 36.152.24 38.087.003 6.346-.775 11.136-5.457 11.986-11.714.312-2.304.24-96.134-.077-98.084-.866-5.341-4.417-9.268-9.996-11.057-.633-.203-39.54-.392-40.75-.198m72.75.509c-6.515.931-11.265 5.795-11.93 12.217-.333 3.208-.119 97.411.223 98.583 1.584 5.422 5.234 8.968 10.455 10.155 1.01.23 3.511.262 20.451.261h19.301l1.5-.404c4.994-1.347 8.547-4.836 9.852-9.679.305-1.131.314-2.68.314-50.666v-49.5l-.47-1.404c-1.303-3.892-3.532-6.48-7.139-8.292-.834-.419-1.09-.511-2.807-1.016-.874-.256-38.07-.495-39.75-.255m-104.88 6.439c1.548.767 2.632 1.876 3.469 3.544l.577 1.15.045 48.917c.03 32.93-.011 49.179-.126 49.721-.489 2.306-2.218 4.264-4.691 5.316l-.894.38h-38l-1.276-.551c-1.631-.704-3.065-2.072-3.847-3.671l-.544-1.112-.043-49.074c-.048-54.296-.131-50.101 1.036-51.926 1.006-1.573 3.007-3.011 4.59-3.299.23-.042 8.967-.067 19.417-.055l19 .021 1.287.639m71.353-.472c2.64.687 4.741 3.014 5.261 5.826.309 1.669.247 95.176-.064 96.642-.484 2.286-1.967 4.175-4.056 5.168l-1.114.53h-38.834l-.956-.448c-2.364-1.108-3.856-2.944-4.293-5.283-.232-1.244-.231-95.635.001-96.871.494-2.629 3.003-5.226 5.499-5.691 1.257-.235 37.627-.115 38.556.127m71.755.521c2.246.563 3.95 1.945 4.987 4.045l.618 1.25v97.684l-.522 1.083c-.664 1.377-1.543 2.388-2.759 3.174-1.915 1.237-.819 1.181-21.886 1.126l-18.833-.05-1.25-.622c-1.893-.943-3.047-2.167-3.762-3.991l-.406-1.038.042-48.758.043-48.758.535-1.095c1.017-2.077 2.615-3.398 4.838-3.998 1.644-.443 36.606-.49 38.355-.052m-107.65 21.682c-1.531 1.064-1.37 3.462.278 4.15.817.342 32.637.342 33.454 0 1.6-.668 1.834-3.19.38-4.088-.804-.498-33.401-.557-34.112-.062m-73.1.311c-1.561.771-1.415 3.481.225 4.175.924.392 32.923.33 33.713-.065 1.512-.755 1.512-3.327 0-4.082-.842-.421-33.088-.447-33.938-.028m144.82.634c-1.021.936-.862 2.979.285 3.657.716.422 33.448.428 34.163.005 1.366-.806 1.351-3.238-.025-4.002-.306-.169-3.825-.214-17.096-.219L259.331 126l-.616.565m-72.316 9.766c-.951.384-1.445 1.89-1.001 3.051.529 1.386-.888 1.285 18.003 1.285h16.763l.532-.476c1.028-.917.816-3.166-.354-3.772-.554-.286-33.242-.371-33.943-.088m-73.174.383c-1.407.789-1.461 3.412-.085 4.148.74.396 33.636.319 34.224-.08 1.271-.863 1.214-3.168-.098-3.968-.644-.392-33.347-.489-34.041-.1m145.07.38c-1.293.702-1.313 3.071-.033 3.915.576.379 33.303.52 34.106.146 1.444-.671 1.444-3.472 0-4.144-.666-.309-33.497-.23-34.073.083m-71.884 9.717c-2.031 1.238-1.191 4.356 1.173 4.356 1.338 0 2.25-.942 2.25-2.324 0-1.847-1.889-2.968-3.423-2.032m5.629.26c-.865.793-.93 2.419-.129 3.255 1.476 1.541 3.987.606 3.987-1.483 0-2.095-2.335-3.168-3.858-1.772m7.02-.305c-2.264 1.117-1.631 4.412.844 4.395.945-.007 1.413-.211 1.895-.828 1.463-1.872-.635-4.604-2.739-3.567m6.262.221c-.793.792-.688 3.312.165 3.966.198.152 2.106.204 7.647.208l7.382.006.409-.409c.365-.365.409-.55.407-1.709-.005-2.718.547-2.549-8.328-2.549h-7.195l-.487.487m-91.574-.019c-2.496.856-1.925 4.534.703 4.531 1.642-.001 2.783-1.696 2.149-3.193-.435-1.029-1.837-1.687-2.852-1.338m5.653.094c-.284.129-.678.495-.875.814-1.605 2.597 2.159 5.043 3.875 2.517 1.319-1.94-.822-4.318-3-3.331m6.054.294c-2.191 1.634-.171 5.22 2.284 4.055 1.653-.784 1.887-3.039.424-4.081-.646-.46-2.076-.446-2.708.026m6.637.068c-.637.637-.633 2.803.007 3.563l.432.513h14.785l.458-.394c.761-.655.798-2.942.06-3.734l-.346-.372h-14.972l-.424.424m132.49-.044c-2.182 1.227-1.315 4.287 1.216 4.287 2.467 0 3.05-3.458.748-4.438-.745-.318-1.19-.284-1.964.151m-5.998-.011c-2.153 1.248-1.381 4.362 1.082 4.362 2.359 0 3.208-2.941 1.226-4.248-.539-.355-1.785-.417-2.308-.114m12.484.035c-2.139.931-1.609 4.177.715 4.38 2.537.222 3.582-3.179 1.315-4.277-.812-.393-1.308-.418-2.03-.103m6.681-.045c-.64.35-.75.666-.75 2.154 0 1.179.059 1.524.319 1.844l.318.393H292.695l.418-.486c.639-.743.534-3.094-.165-3.695l-.468-.402-7.199.005c-4.888.003-7.306.063-7.532.187M201.9 196.341c-4.206.818-5.693 5.749-2.64 8.754 1.842 1.812 4.843 1.894 6.828.186 3.851-3.314.764-9.903-4.188-8.94m71.79.668c-3.791.763-5.278 5.73-2.558 8.546 2.422 2.509 6.626 1.967 8.192-1.055a5.157 5.157 0 0 0-5.634-7.491m-145.32.783c-5.337 2.174-3.871 9.875 1.88 9.875 5.41 0 6.995-7.309 2.104-9.702-1.027-.503-2.968-.587-3.984-.173m113.55 37.71c-2.492.376-3.339.547-4.917.994-.687.195-1.475.415-1.75.49-1.093.295-3.747 1.41-5.217 2.19-2.861 1.52-3.887 2.292-17.866 13.437-.138.109-.963.772-1.834 1.472a557.99 557.99 0 0 1-4.458 3.564c-1.926 1.526-1.956 1.596-1.06 2.47.356.347 1.89 1.85 3.408 3.339 3.132 3.075 3.163 3.087 4.444 1.708.046-.05.533-.463 1.083-.92.55-.456 1.037-.871 1.083-.922.327-.364 6.663-5.342 7.834-6.153.32-.223.62-.451.666-.506.225-.273 6.137-4.259 7.291-4.915l1.817-1.044c8.894-5.121 14.857-6.028 22.089-3.362 1.722.635 4.879 2.308 5.303 2.809.046.055.384.32.75.59 7.047 5.194 10.092 14.367 7.775 23.424-2.603 10.173-14.294 17.456-24.895 15.508-5.672-1.042-14.763-6.09-23.463-13.029-5.216-4.16-7.519-6.154-12.683-10.979a448.643 448.643 0 0 1-3.009-2.917c-5.256-5.126-8.396-8.034-10.453-9.683a11.908 11.908 0 0 1-.667-.577 21.331 21.331 0 0 0-1.105-.917c-.458-.361-.87-.695-.916-.743-.115-.118-1.974-1.635-2.755-2.247a266.531 266.531 0 0 1-4.245-3.476 41.018 41.018 0 0 0-1.167-.938 20.094 20.094 0 0 1-.941-.762c-1.617-1.537-7.286-4.577-10.699-5.739-19.491-6.633-40.671 4.645-43.818 23.332l-.295 1.75-47.747.084v-8.31l-.439-.345c-.979-.77-2.129-.381-5.143 1.738-14.366 10.098-14.918 10.527-14.918 11.578 0 1.294.709 1.97 5.245 5.005.205.137.553.378.773.536 12.116 8.666 12.09 8.65 13.32 8.38 1.147-.252 1.162-.317 1.162-4.922v-4.161h47.795l.108.792c3.045 22.456 29.46 34.089 49.239 21.686 1.407-.882 5.125-3.627 10.964-8.092.263-.201 1.527-1.162 2.811-2.135a901.492 901.492 0 0 0 2.833-2.157c.742-.574 2.685-2.045 3.917-2.964a56.451 56.451 0 0 0 1.378-1.054c.163-.135.875-.668 1.584-1.185.708-.517 1.342-.987 1.409-1.045s-1.476-1.702-3.429-3.654l-3.551-3.548-1.238 1.032c-.68.567-1.274 1.081-1.32 1.141s-.796.701-1.667 1.425c-.87.723-1.658 1.396-1.75 1.495-.091.1-.578.519-1.081.931-.504.412-1.104.913-1.334 1.112-.23.2-.906.742-1.501 1.204-17.003 13.178-25.158 15.55-35.539 10.338-9.241-4.641-14.543-16.045-11.656-25.072.088-.275.283-.917.433-1.427 3.204-10.881 16.859-17.811 27.787-14.101 2.697.916 6.389 2.778 9.641 4.863 5.353 3.431 12.725 8.764 14.167 10.248a57.5 57.5 0 0 0 1.167.999 77.784 77.784 0 0 1 1.833 1.597l2 1.826c.688.627 2.449 2.271 3.914 3.651 5.307 5.003 9.266 8.549 11.641 10.428.173.137.401.328.505.423.312.284 6.449 4.954 7.44 5.661.835.595 5.553 4.074 7.583 5.591 8.716 6.513 17.991 8.997 27.378 7.332 1.828-.324 6.001-1.54 6.812-1.985.171-.093.91-.45 1.644-.793 9.112-4.26 15.941-13.566 17.505-23.854l.107-.709H320.503v4.161c0 4.605.015 4.67 1.162 4.922.818.179 3.621-1.2 4.809-2.367.122-.12.367-.295.544-.39s1.427-.968 2.779-1.941c1.351-.972 3.918-2.79 5.706-4.04 7.407-5.18 7.391-4.803.4-9.812-2.3-1.648-4.511-3.204-4.913-3.457-.401-.254-.83-.562-.954-.685-.123-.123-.279-.224-.347-.224s-.27-.137-.451-.305a7.124 7.124 0 0 0-.823-.624 95.217 95.217 0 0 1-2.329-1.638c-2.889-2.08-4.173-2.518-5.144-1.754l-.439.345v8.311l-41.416-.085-.194-1.279c-2.545-16.701-19.495-28.607-36.973-25.969"/></g></svg>