<svg version="1.1" viewBox="0 0 400 400" width="400" height="400" xmlns="http://www.w3.org/2000/svg">
<g fill="#fff" fill-rule="evenodd">
<path d="m192.5 0.101c-4.695 0.138-14.558 0.988-19.167 1.652-0.87 0.125-2.221 0.313-3 0.416-0.779 0.104-1.979 0.288-2.666 0.408-0.688 0.121-1.775 0.308-2.417 0.416-1.165 0.195-2.558 0.455-4.917 0.919-9.933 1.953-21.583 5.31-31.333 9.029-2.797 1.067-8.827 3.537-9.083 3.72-0.092 0.066-0.473 0.238-0.847 0.383-3.41 1.323-15.663 7.578-19.787 10.103-0.617 0.377-1.156 0.686-1.198 0.686-0.128 0-6.562 4.054-8.972 5.654-2.894 1.92-8.263 5.771-10.921 7.833-2.121 1.646-6.544 5.174-6.692 5.338-0.046 0.05-0.608 0.542-1.249 1.092-4.5 3.859-7.409 6.555-11.677 10.824-4.269 4.268-6.965 7.177-10.824 11.677-0.55 0.641-1.041 1.203-1.091 1.249-0.051 0.046-0.937 1.133-1.97 2.417-1.033 1.283-1.983 2.461-2.11 2.618-5.255 6.477-12.437 17.274-17.382 26.132-0.23 0.412-0.566 1.012-0.746 1.333-1.452 2.587-5.168 9.976-6.369 12.667-0.43 0.962-0.933 2.083-1.117 2.49-0.476 1.049-2.94 6.94-3.204 7.66-0.122 0.33-0.407 1.087-0.635 1.683-2.908 7.611-5.381 15.395-7.068 22.25-0.136 0.55-0.434 1.75-0.663 2.667-0.229 0.916-0.485 2.004-0.569 2.416-0.084 0.413-0.269 1.275-0.41 1.917s-0.367 1.729-0.503 2.417c-0.136 0.687-0.358 1.812-0.495 2.5-1.172 5.914-2.176 13.586-2.921 22.333-0.801 9.409-0.562 26.52 0.497 35.583 0.086 0.734 0.239 2.084 0.341 3 1.009 9.054 2.819 18.558 5.398 28.337 0.415 1.574 1.778 6.292 2.189 7.58 0.753 2.359 2.499 7.561 2.825 8.417 0.21 0.55 0.659 1.75 0.998 2.666 0.588 1.588 1.709 4.428 2.171 5.5 0.119 0.275 0.296 0.688 0.395 0.917s0.527 1.242 0.951 2.25c1.343 3.192 1.795 4.17 4.165 9 1.034 2.108 2.308 4.621 2.832 5.583 0.523 0.963 1.212 2.238 1.531 2.834 0.319 0.595 0.636 1.158 0.706 1.25 0.069 0.091 0.332 0.541 0.584 1 0.509 0.927 2.744 4.716 3.812 6.463 1.604 2.623 5.827 8.951 7.448 11.161 1.864 2.54 3.731 5.046 3.819 5.126 0.051 0.045 0.425 0.533 0.831 1.083s0.782 1.037 0.836 1.083c0.055 0.046 0.36 0.421 0.678 0.834 0.319 0.412 0.739 0.937 0.934 1.166 0.195 0.23 1.128 1.355 2.073 2.5 0.946 1.146 1.957 2.346 2.248 2.667 0.292 0.321 1.155 1.296 1.92 2.167 2.544 2.896 10.483 10.992 13.571 13.838 2.062 1.901 5.402 4.821 7.417 6.483 1.146 0.946 2.271 1.879 2.5 2.074s0.754 0.615 1.166 0.934c0.413 0.318 0.788 0.623 0.834 0.678 0.045 0.054 0.533 0.43 1.083 0.836s1.037 0.78 1.083 0.831 0.984 0.757 2.084 1.571c1.1 0.813 2.375 1.759 2.833 2.103 1.168 0.876 3.35 2.364 6.75 4.603 4.245 2.796 4.365 2.872 6.917 4.381 1.283 0.759 2.69 1.595 3.127 1.857 0.437 0.263 0.832 0.477 0.878 0.477 0.047 0 0.396 0.197 0.777 0.438 3.057 1.929 12.616 6.707 18.468 9.229 0.687 0.297 1.55 0.672 1.916 0.834 0.367 0.162 1.079 0.461 1.584 0.664 0.504 0.204 1.066 0.433 1.25 0.51 0.302 0.128 1.57 0.629 3.583 1.415 3.125 1.221 11.188 3.973 13.917 4.751 0.275 0.078 1.137 0.325 1.916 0.547 3.295 0.942 4.093 1.155 7.584 2.019 3.23 0.801 6.131 1.47 7.416 1.713 0.23 0.043 1.167 0.225 2.084 0.404 6.169 1.207 13.566 2.274 19.416 2.801 8.242 0.742 8.379 0.747 19.167 0.747 10.941 0 15.183-0.206 22.5-1.091 0.779-0.094 1.979-0.238 2.667-0.319 7.908-0.938 20.833-3.46 26.833-5.236 0.412-0.123 1.5-0.428 2.417-0.679 0.916-0.251 1.966-0.554 2.333-0.674 0.367-0.119 1.342-0.418 2.167-0.663 1.866-0.556 7.655-2.479 9-2.991 0.55-0.209 1.75-0.658 2.666-0.997 1.942-0.72 9.594-3.877 11.417-4.712 0.688-0.314 1.587-0.725 2-0.913 1.957-0.892 8.329-4.078 10.406-5.204 1.278-0.693 2.345-1.259 2.372-1.259s0.54-0.3 1.139-0.667 1.12-0.667 1.158-0.667c0.079 0 4.33-2.491 5.368-3.146 5.057-3.191 7.37-4.725 11.224-7.443 1.42-1.002 2.695-1.912 2.833-2.023 0.137-0.111 1.45-1.117 2.917-2.237 2.408-1.838 6.874-5.396 7.083-5.642 0.046-0.054 0.571-0.5 1.167-0.992 1.397-1.152 4.244-3.678 6.583-5.839 3.119-2.883 10.672-10.617 13.349-13.67 0.358-0.408 0.764-0.858 0.901-1.001 0.137-0.142 0.812-0.933 1.499-1.758 0.688-0.824 1.296-1.536 1.351-1.582 0.056-0.046 1.184-1.433 2.507-3.083 9.454-11.789 17.149-23.845 23.636-37.028 1.314-2.669 1.882-3.881 3.623-7.718 0.526-1.16 2.812-6.638 3.115-7.463 0.126-0.344 0.428-1.15 0.672-1.791 0.857-2.253 1.138-3.022 2.042-5.584 0.875-2.478 2.1-6.2 2.387-7.25 0.075-0.275 0.36-1.25 0.633-2.166 1.771-5.95 2.789-10.115 4.258-17.417 0.744-3.697 1.774-9.909 2.1-12.667 0.092-0.779 0.277-2.316 0.411-3.416s0.324-2.975 0.422-4.167 0.254-3.029 0.346-4.083c0.354-4.051 0.536-11.568 0.439-18.084-0.156-10.376-0.974-19.723-2.537-29-0.139-0.825-0.327-1.95-0.419-2.5-0.091-0.55-0.276-1.562-0.41-2.25-0.134-0.687-0.354-1.812-0.488-2.5-0.722-3.688-2.186-9.892-3.089-13.083-0.181-0.642-0.477-1.692-0.657-2.333-1.362-4.863-3.545-11.434-5.274-15.874-0.223-0.573-0.586-1.51-0.806-2.084-0.745-1.939-2.645-6.541-2.77-6.709-0.069-0.092-0.307-0.617-0.53-1.167-0.946-2.329-4.814-10.234-6.972-14.246-0.97-1.804-3.547-6.302-4.489-7.837-0.085-0.138-0.543-0.888-1.019-1.667-2.996-4.904-8.26-12.564-11.519-16.762-0.575-0.74-1.27-1.64-1.545-2-0.454-0.593-1.409-1.791-2.117-2.654-1.031-1.257-4.125-4.934-4.542-5.399-0.28-0.311-0.583-0.649-0.675-0.753-0.091-0.103-0.497-0.562-0.902-1.018-2.049-2.312-4.757-5.159-7.763-8.164-3.542-3.54-6.079-5.929-9.483-8.928-0.357-0.315-0.732-0.649-0.833-0.744-0.173-0.16-4.28-3.608-5.019-4.212-1.009-0.826-2.052-1.662-2.434-1.952-0.239-0.182-1.026-0.78-1.75-1.329-0.724-0.55-1.353-1.04-1.399-1.089-0.364-0.393-7.797-5.662-7.987-5.662-0.083 0-0.177-0.06-0.207-0.133-0.076-0.181-6.699-4.534-6.899-4.534-0.053 0-0.335-0.178-0.626-0.396-0.292-0.218-0.846-0.574-1.23-0.792-0.385-0.217-1.318-0.761-2.074-1.208-5.341-3.157-13.394-7.353-18.56-9.671-1.192-0.535-2.542-1.143-3-1.352-0.834-0.38-3.273-1.388-6.25-2.584-10.399-4.176-23.168-7.963-34-10.084-0.688-0.134-1.625-0.32-2.084-0.412-6.252-1.259-15.51-2.435-24.333-3.091-3.351-0.249-16.233-0.441-20.75-0.309m16.583 13.15c5.526 0.279 11.172 0.762 14.631 1.251 0.661 0.094 1.803 0.249 2.536 0.346 1.815 0.239 6.222 0.947 7.75 1.244 6.396 1.246 12.19 2.575 16 3.672 0.779 0.225 1.717 0.49 2.083 0.589 0.367 0.1 0.967 0.28 1.334 0.4 0.366 0.121 1.904 0.605 3.416 1.077 1.513 0.472 3.238 1.035 3.834 1.252 0.595 0.216 1.87 0.671 2.833 1.01 2.324 0.819 8.452 3.233 9.917 3.907 0.641 0.295 1.504 0.671 1.916 0.835 1.27 0.503 5.421 2.475 8.834 4.194 3.063 1.544 4.143 2.114 6.333 3.343 0.504 0.282 1.254 0.702 1.667 0.931 1.044 0.582 5.118 2.986 5.875 3.467 0.343 0.219 0.925 0.585 1.291 0.814 0.367 0.23 0.975 0.621 1.352 0.869 0.377 0.249 0.828 0.53 1.001 0.625 0.603 0.33 6.233 4.179 7.645 5.226 0.78 0.579 1.64 1.216 1.91 1.416 2.45 1.818 6.564 5.041 7.698 6.031 0.105 0.092 0.331 0.279 0.502 0.417 0.486 0.389 2.299 1.907 2.392 2.001 0.046 0.047 0.683 0.609 1.416 1.25 4.99 4.366 11.983 11.274 16.002 15.809 1.188 1.341 3.797 4.364 4.249 4.923 0.321 0.398 0.658 0.808 0.75 0.912 1.076 1.226 5.642 7.081 6.58 8.438 0.222 0.321 0.448 0.621 0.501 0.667 0.249 0.214 5.051 7.203 5.749 8.366 0.094 0.156 0.706 1.131 1.361 2.167 3.968 6.277 12.559 22.395 12.559 23.562 0 0.047 0.216 0.551 0.481 1.12 2.231 4.799 5.887 14.771 7.772 21.201 1.04 3.55 1.679 5.875 2.012 7.334 0.126 0.55 0.338 1.412 0.471 1.916 1.111 4.218 2.73 12.63 3.416 17.75 0.52 3.879 0.677 5.177 0.844 7 0.102 1.1 0.259 2.75 0.35 3.667 1.079 10.83 0.697 28.702-0.848 39.63-0.094 0.662-0.247 1.803-0.341 2.537-0.094 0.733-0.278 1.97-0.407 2.75-0.13 0.779-0.32 1.941-0.422 2.583s-0.288 1.692-0.414 2.333c-0.125 0.642-0.342 1.767-0.482 2.5-1.758 9.199-4.937 20.274-8.515 29.667-0.245 0.642-0.583 1.542-0.752 2-1.807 4.899-8.781 19.758-10.169 21.667-0.067 0.091-0.404 0.691-0.75 1.333-0.345 0.642-1.386 2.441-2.312 3.999-0.926 1.557-1.759 2.96-1.851 3.116-0.091 0.157-0.729 1.159-1.416 2.228-0.688 1.069-1.363 2.122-1.5 2.34-1.142 1.807-5.512 7.93-7.346 10.293-0.772 0.994-1.554 2.011-1.738 2.26-0.707 0.957-5.715 7.02-5.931 7.181-0.062 0.045-0.393 0.42-0.735 0.833-2.876 3.463-12.404 12.999-16.917 16.93-0.413 0.359-0.788 0.696-0.833 0.748-0.046 0.052-1.246 1.055-2.667 2.229s-2.771 2.295-3 2.491c-1.624 1.388-11.348 8.602-11.595 8.602-0.039 0-0.577 0.36-1.196 0.8-1.945 1.383-4.966 3.277-9.542 5.984-5.103 3.017-11.236 6.248-16.167 8.514-2.826 1.299-9.205 4.018-10.792 4.6-0.344 0.125-1.15 0.428-1.791 0.672-2.337 0.889-6.79 2.458-8.334 2.936-6.422 1.99-9.665 2.888-15.083 4.177-3.585 0.852-7.877 1.719-10.667 2.154-0.687 0.107-1.812 0.295-2.5 0.417-0.687 0.122-1.85 0.301-2.583 0.399-3.737 0.499-5.158 0.672-6.833 0.834-1.009 0.097-2.621 0.255-3.584 0.35-8.695 0.856-23.971 0.856-32.666 0-0.963-0.095-2.575-0.253-3.584-0.35-14.731-1.423-31.488-5.4-46-10.917-0.641-0.244-1.44-0.544-1.774-0.667-1.134-0.416-6.452-2.637-8.642-3.608-4.762-2.113-12.078-5.827-15.889-8.067-0.993-0.584-1.831-1.061-1.862-1.061s-0.661-0.375-1.4-0.834c-0.739-0.458-1.387-0.833-1.441-0.833-0.053 0-0.336-0.179-0.628-0.399-0.292-0.219-0.793-0.541-1.114-0.715-0.659-0.359-1.729-1.04-4.5-2.864-1.867-1.23-9.5-6.643-9.666-6.855-0.046-0.058-0.534-0.438-1.084-0.844s-1.037-0.778-1.083-0.826c-0.046-0.049-0.421-0.35-0.833-0.668s-0.899-0.705-1.083-0.859c-0.184-0.153-1.084-0.893-2.001-1.644-9.052-7.411-17.998-16.357-25.409-25.409-0.751-0.917-1.491-1.817-1.644-2.001-0.154-0.184-0.541-0.671-0.859-1.083s-0.619-0.787-0.668-0.833c-0.048-0.046-0.42-0.533-0.826-1.083s-0.785-1.038-0.842-1.084c-0.164-0.132-4.648-6.399-6.022-8.416-2.357-3.462-6.932-10.965-8.741-14.334-0.394-0.733-1.022-1.895-1.395-2.583-0.702-1.291-3.646-7.214-4.391-8.833-0.232-0.505-0.658-1.428-0.945-2.052-0.551-1.194-3.384-7.951-3.752-8.948-0.118-0.321-0.415-1.109-0.659-1.75-2.456-6.458-5.139-15.16-6.681-21.667-0.326-1.375-0.701-2.95-0.835-3.5-0.293-1.208-1.474-7.206-1.738-8.833-0.105-0.642-0.296-1.805-0.426-2.584-0.129-0.779-0.318-2.054-0.419-2.833s-0.285-2.167-0.41-3.083c-0.124-0.917-0.312-2.567-0.416-3.667-0.105-1.1-0.263-2.713-0.351-3.583-0.837-8.254-0.833-23.83 9e-3 -32.334 0.095-0.962 0.253-2.575 0.35-3.583s0.285-2.658 0.418-3.667c0.132-1.008 0.321-2.471 0.42-3.25s0.281-1.979 0.404-2.666c0.124-0.688 0.31-1.813 0.415-2.5 0.105-0.688 0.291-1.738 0.414-2.334s0.345-1.721 0.493-2.5c0.149-0.779 0.339-1.716 0.425-2.083 0.085-0.367 0.388-1.717 0.673-3 0.472-2.126 1.168-4.918 1.994-8.007 0.738-2.757 3.52-11.553 4.138-13.082 0.092-0.226 0.443-1.161 0.782-2.078 1.271-3.442 3.298-8.438 4.349-10.72 0.309-0.671 0.562-1.247 0.562-1.278 0-0.277 4.466-9.276 5.874-11.835 0.504-0.917 1.162-2.117 1.463-2.667 2.438-4.458 7.152-11.894 10.724-16.916 1.043-1.466 4.444-6.02 4.607-6.167 0.05-0.046 0.614-0.758 1.252-1.583 1.127-1.457 4.164-5.15 4.721-5.741 0.152-0.162 0.49-0.548 0.752-0.86 3.597-4.275 11.464-12.236 16.776-16.977 0.87-0.776 1.724-1.526 1.898-1.667 0.174-0.14 0.439-0.368 0.589-0.505 1.595-1.464 5.714-4.765 9.957-7.978 4.249-3.218 10.762-7.617 15.054-10.166 0.504-0.299 1.404-0.842 2-1.207s1.233-0.739 1.416-0.83c0.184-0.092 0.484-0.258 0.668-0.368 0.44-0.265 2.697-1.521 4.166-2.319 3.192-1.736 11.387-5.731 13.298-6.485 0.477-0.188 0.943-0.402 1.035-0.475 0.164-0.131 6.902-2.835 9.5-3.813 5.229-1.967 14.111-4.72 18.917-5.863 4.043-0.961 6.086-1.418 8.916-1.994 5.393-1.097 12.643-2.2 17.5-2.661 1.009-0.096 2.696-0.258 3.75-0.36 6.309-0.613 17.054-0.785 24.75-0.397m-98.25 83.751c-5.045 0.869-9.54 5.179-10.773 10.331-0.377 1.573-0.584 96.144-0.219 99.576 0.631 5.922 4.23 10.204 10.076 11.985 1.163 0.355 1.23 0.356 20.916 0.356h19.75l1.334-0.393c4.755-1.401 7.95-4.487 9.53-9.203l0.47-1.404v-50.25-50.25l-0.458-1.351c-1.72-5.074-5.71-8.59-10.658-9.393-1.241-0.201-38.8-0.205-39.968-4e-3m72.834-0.061c-5.166 0.827-9.175 4.475-10.964 9.976-0.326 1.003-0.534 97.177-0.215 99.607 0.785 5.989 5.732 10.744 11.929 11.467 2.03 0.237 36.152 0.24 38.087 3e-3 6.346-0.775 11.136-5.457 11.986-11.714 0.312-2.304 0.24-96.134-0.077-98.084-0.866-5.341-4.417-9.268-9.996-11.057-0.633-0.203-39.54-0.392-40.75-0.198m72.75 0.509c-6.515 0.931-11.265 5.795-11.93 12.217-0.333 3.208-0.119 97.411 0.223 98.583 1.584 5.422 5.234 8.968 10.455 10.155 1.01 0.23 3.511 0.262 20.451 0.261h19.301l1.5-0.404c4.994-1.347 8.547-4.836 9.852-9.679 0.305-1.131 0.314-2.68 0.314-50.666v-49.5l-0.47-1.404c-1.303-3.892-3.532-6.48-7.139-8.292-0.834-0.419-1.09-0.511-2.807-1.016-0.874-0.256-38.07-0.495-39.75-0.255m-104.88 6.439c1.548 0.767 2.632 1.876 3.469 3.544l0.577 1.15 0.045 48.917c0.03 32.93-0.011 49.179-0.126 49.721-0.489 2.306-2.218 4.264-4.691 5.316l-0.894 0.38h-19-19l-1.276-0.551c-1.631-0.704-3.065-2.072-3.847-3.671l-0.544-1.112-0.043-49.074c-0.048-54.296-0.131-50.101 1.036-51.926 1.006-1.573 3.007-3.011 4.59-3.299 0.23-0.042 8.967-0.067 19.417-0.055l19 0.021 1.287 0.639m71.353-0.472c2.64 0.687 4.741 3.014 5.261 5.826 0.309 1.669 0.247 95.176-0.064 96.642-0.484 2.286-1.967 4.175-4.056 5.168l-1.114 0.53h-19.417-19.417l-0.956-0.448c-2.364-1.108-3.856-2.944-4.293-5.283-0.232-1.244-0.231-95.635 1e-3 -96.871 0.494-2.629 3.003-5.226 5.499-5.691 1.257-0.235 37.627-0.115 38.556 0.127m71.755 0.521c2.246 0.563 3.95 1.945 4.987 4.045l0.618 1.25v48.842 48.842l-0.522 1.083c-0.664 1.377-1.543 2.388-2.759 3.174-1.915 1.237-0.819 1.181-21.886 1.126l-18.833-0.05-1.25-0.622c-1.893-0.943-3.047-2.167-3.762-3.991l-0.406-1.038 0.042-48.758 0.043-48.758 0.535-1.095c1.017-2.077 2.615-3.398 4.838-3.998 1.644-0.443 36.606-0.49 38.355-0.052m-107.65 21.682c-1.531 1.064-1.37 3.462 0.278 4.15 0.817 0.342 32.637 0.342 33.454 0 1.6-0.668 1.834-3.19 0.38-4.088-0.804-0.498-33.401-0.557-34.112-0.062m-73.1 0.311c-1.561 0.771-1.415 3.481 0.225 4.175 0.924 0.392 32.923 0.33 33.713-0.065 1.512-0.755 1.512-3.327 0-4.082-0.842-0.421-33.088-0.447-33.938-0.028m144.82 0.634c-1.021 0.936-0.862 2.979 0.285 3.657 0.716 0.422 33.448 0.428 34.163 5e-3 1.366-0.806 1.351-3.238-0.025-4.002-0.306-0.169-3.825-0.214-17.096-0.219l-16.711-6e-3 -0.616 0.565m-72.316 9.766c-0.951 0.384-1.445 1.89-1.001 3.051 0.529 1.386-0.888 1.285 18.003 1.285h16.763l0.532-0.476c1.028-0.917 0.816-3.166-0.354-3.772-0.554-0.286-33.242-0.371-33.943-0.088m-73.174 0.383c-1.407 0.789-1.461 3.412-0.085 4.148 0.74 0.396 33.636 0.319 34.224-0.08 1.271-0.863 1.214-3.168-0.098-3.968-0.644-0.392-33.347-0.489-34.041-0.1m145.07 0.38c-1.293 0.702-1.313 3.071-0.033 3.915 0.576 0.379 33.303 0.52 34.106 0.146 1.444-0.671 1.444-3.472 0-4.144-0.666-0.309-33.497-0.23-34.073 0.083m-71.884 9.717c-2.031 1.238-1.191 4.356 1.173 4.356 1.338 0 2.25-0.942 2.25-2.324 0-1.847-1.889-2.968-3.423-2.032m5.629 0.26c-0.865 0.793-0.93 2.419-0.129 3.255 1.476 1.541 3.987 0.606 3.987-1.483 0-2.095-2.335-3.168-3.858-1.772m7.02-0.305c-2.264 1.117-1.631 4.412 0.844 4.395 0.945-7e-3 1.413-0.211 1.895-0.828 1.463-1.872-0.635-4.604-2.739-3.567m6.262 0.221c-0.793 0.792-0.688 3.312 0.165 3.966 0.198 0.152 2.106 0.204 7.647 0.208l7.382 6e-3 0.409-0.409c0.365-0.365 0.409-0.55 0.407-1.709-5e-3 -2.718 0.547-2.549-8.328-2.549h-7.195l-0.487 0.487m-91.574-0.019c-2.496 0.856-1.925 4.534 0.703 4.531 1.642-1e-3 2.783-1.696 2.149-3.193-0.435-1.029-1.837-1.687-2.852-1.338m5.653 0.094c-0.284 0.129-0.678 0.495-0.875 0.814-1.605 2.597 2.159 5.043 3.875 2.517 1.319-1.94-0.822-4.318-3-3.331m6.054 0.294c-2.191 1.634-0.171 5.22 2.284 4.055 1.653-0.784 1.887-3.039 0.424-4.081-0.646-0.46-2.076-0.446-2.708 0.026m6.637 0.068c-0.637 0.637-0.633 2.803 7e-3 3.563l0.432 0.513h7.392 7.393l0.458-0.394c0.761-0.655 0.798-2.942 0.06-3.734l-0.346-0.372h-7.486-7.486l-0.424 0.424m132.49-0.044c-2.182 1.227-1.315 4.287 1.216 4.287 2.467 0 3.05-3.458 0.748-4.438-0.745-0.318-1.19-0.284-1.964 0.151m-5.998-0.011c-2.153 1.248-1.381 4.362 1.082 4.362 2.359 0 3.208-2.941 1.226-4.248-0.539-0.355-1.785-0.417-2.308-0.114m12.484 0.035c-2.139 0.931-1.609 4.177 0.715 4.38 2.537 0.222 3.582-3.179 1.315-4.277-0.812-0.393-1.308-0.418-2.03-0.103m6.681-0.045c-0.64 0.35-0.75 0.666-0.75 2.154 0 1.179 0.059 1.524 0.319 1.844l0.318 0.393h7.529 7.53l0.418-0.486c0.639-0.743 0.534-3.094-0.165-3.695l-0.468-0.402-7.199 5e-3c-4.888 3e-3 -7.306 0.063-7.532 0.187m-75.849 48.982c-4.206 0.818-5.693 5.749-2.64 8.754 1.842 1.812 4.843 1.894 6.828 0.186 3.851-3.314 0.764-9.903-4.188-8.94m71.79 0.668c-3.791 0.763-5.278 5.73-2.558 8.546 2.422 2.509 6.626 1.967 8.192-1.055 2.046-3.947-1.278-8.367-5.634-7.491m-145.32 0.783c-5.337 2.174-3.871 9.875 1.88 9.875 5.41 0 6.995-7.309 2.104-9.702-1.027-0.503-2.968-0.587-3.984-0.173m113.55 37.71c-2.492 0.376-3.339 0.547-4.917 0.994-0.687 0.195-1.475 0.415-1.75 0.49-1.093 0.295-3.747 1.41-5.217 2.19-2.861 1.52-3.887 2.292-17.866 13.437-0.138 0.109-0.963 0.772-1.834 1.472-2.39 1.923-2.615 2.103-4.458 3.564-1.926 1.526-1.956 1.596-1.06 2.47 0.356 0.347 1.89 1.85 3.408 3.339 3.132 3.075 3.163 3.087 4.444 1.708 0.046-0.05 0.533-0.463 1.083-0.92 0.55-0.456 1.037-0.871 1.083-0.922 0.327-0.364 6.663-5.342 7.834-6.153 0.32-0.223 0.62-0.451 0.666-0.506 0.225-0.273 6.137-4.259 7.291-4.915 0.161-0.092 0.979-0.562 1.817-1.044 8.894-5.121 14.857-6.028 22.089-3.362 1.722 0.635 4.879 2.308 5.303 2.809 0.046 0.055 0.384 0.32 0.75 0.59 7.047 5.194 10.092 14.367 7.775 23.424-2.603 10.173-14.294 17.456-24.895 15.508-5.672-1.042-14.763-6.09-23.463-13.029-5.216-4.16-7.519-6.154-12.683-10.979-0.245-0.229-1.599-1.542-3.009-2.917-5.256-5.126-8.396-8.034-10.453-9.683-0.218-0.174-0.518-0.434-0.667-0.577-0.149-0.144-0.646-0.556-1.105-0.917-0.458-0.361-0.87-0.695-0.916-0.743-0.115-0.118-1.974-1.635-2.755-2.247-0.699-0.548-3.581-2.908-4.245-3.476-0.229-0.196-0.755-0.618-1.167-0.938-0.412-0.319-0.836-0.662-0.941-0.762-1.617-1.537-7.286-4.577-10.699-5.739-19.491-6.633-40.671 4.645-43.818 23.332l-0.295 1.75-47.747 0.084v-4.155-4.155l-0.439-0.345c-0.979-0.77-2.129-0.381-5.143 1.738-14.366 10.098-14.918 10.527-14.918 11.578 0 1.294 0.709 1.97 5.245 5.005 0.205 0.137 0.553 0.378 0.773 0.536 12.116 8.666 12.09 8.65 13.32 8.38 1.147-0.252 1.162-0.317 1.162-4.922v-4.161h23.898 23.897l0.108 0.792c3.045 22.456 29.46 34.089 49.239 21.686 1.407-0.882 5.125-3.627 10.964-8.092 0.263-0.201 1.527-1.162 2.811-2.135 1.283-0.974 2.558-1.945 2.833-2.157 0.742-0.574 2.685-2.045 3.917-2.964 0.595-0.445 1.216-0.919 1.378-1.054 0.163-0.135 0.875-0.668 1.584-1.185 0.708-0.517 1.342-0.987 1.409-1.045s-1.476-1.702-3.429-3.654l-3.551-3.548-1.238 1.032c-0.68 0.567-1.274 1.081-1.32 1.141s-0.796 0.701-1.667 1.425c-0.87 0.723-1.658 1.396-1.75 1.495-0.091 0.1-0.578 0.519-1.081 0.931-0.504 0.412-1.104 0.913-1.334 1.112-0.23 0.2-0.906 0.742-1.501 1.204-17.003 13.178-25.158 15.55-35.539 10.338-9.241-4.641-14.543-16.045-11.656-25.072 0.088-0.275 0.283-0.917 0.433-1.427 3.204-10.881 16.859-17.811 27.787-14.101 2.697 0.916 6.389 2.778 9.641 4.863 5.353 3.431 12.725 8.764 14.167 10.248 0.046 0.047 0.571 0.497 1.167 0.999 0.595 0.502 1.421 1.221 1.833 1.597 0.412 0.377 1.313 1.198 2 1.826 0.688 0.627 2.449 2.271 3.914 3.651 5.307 5.003 9.266 8.549 11.641 10.428 0.173 0.137 0.401 0.328 0.505 0.423 0.312 0.284 6.449 4.954 7.44 5.661 0.835 0.595 5.553 4.074 7.583 5.591 8.716 6.513 17.991 8.997 27.378 7.332 1.828-0.324 6.001-1.54 6.812-1.985 0.171-0.093 0.91-0.45 1.644-0.793 9.112-4.26 15.941-13.566 17.505-23.854l0.107-0.709h20.736 20.735v4.161c0 4.605 0.015 4.67 1.162 4.922 0.818 0.179 3.621-1.2 4.809-2.367 0.122-0.12 0.367-0.295 0.544-0.39s1.427-0.968 2.779-1.941c1.351-0.972 3.918-2.79 5.706-4.04 7.407-5.18 7.391-4.803 0.4-9.812-2.3-1.648-4.511-3.204-4.913-3.457-0.401-0.254-0.83-0.562-0.954-0.685-0.123-0.123-0.279-0.224-0.347-0.224s-0.27-0.137-0.451-0.305c-0.18-0.168-0.55-0.448-0.823-0.624-0.272-0.175-1.32-0.912-2.329-1.638-2.889-2.08-4.173-2.518-5.144-1.754l-0.439 0.345v4.155 4.156l-41.416-0.085-0.194-1.279c-2.545-16.701-19.495-28.607-36.973-25.969"/>
<path d="m192.5 0.101c-4.695 0.138-14.558 0.988-19.167 1.652-0.87 0.125-2.221 0.313-3 0.416-0.779 0.104-1.979 0.288-2.666 0.408-0.688 0.121-1.775 0.308-2.417 0.416-1.165 0.195-2.558 0.455-4.917 0.919-9.933 1.953-21.583 5.31-31.333 9.029-2.797 1.067-8.827 3.537-9.083 3.72-0.092 0.066-0.473 0.238-0.847 0.383-3.41 1.323-15.663 7.578-19.787 10.103-0.617 0.377-1.156 0.686-1.198 0.686-0.128 0-6.562 4.054-8.972 5.654-2.894 1.92-8.263 5.771-10.921 7.833-2.121 1.646-6.544 5.174-6.692 5.338-0.046 0.05-0.608 0.542-1.249 1.092-4.5 3.859-7.409 6.555-11.677 10.824-4.269 4.268-6.965 7.177-10.824 11.677-0.55 0.641-1.041 1.203-1.091 1.249-0.051 0.046-0.937 1.133-1.97 2.417-1.033 1.283-1.983 2.461-2.11 2.618-5.255 6.477-12.437 17.274-17.382 26.132-0.23 0.412-0.566 1.012-0.746 1.333-1.452 2.587-5.168 9.976-6.369 12.667-0.43 0.962-0.933 2.083-1.117 2.49-0.476 1.049-2.94 6.94-3.204 7.66-0.122 0.33-0.407 1.087-0.635 1.683-2.908 7.611-5.381 15.395-7.068 22.25-0.136 0.55-0.434 1.75-0.663 2.667-0.229 0.916-0.485 2.004-0.569 2.416-0.084 0.413-0.269 1.275-0.41 1.917s-0.367 1.729-0.503 2.417c-0.136 0.687-0.358 1.812-0.495 2.5-1.172 5.914-2.176 13.586-2.921 22.333-0.801 9.409-0.562 26.52 0.497 35.583 0.086 0.734 0.239 2.084 0.341 3 1.009 9.054 2.819 18.558 5.398 28.337 0.415 1.574 1.778 6.292 2.189 7.58 0.753 2.359 2.499 7.561 2.825 8.417 0.21 0.55 0.659 1.75 0.998 2.666 0.588 1.588 1.709 4.428 2.171 5.5 0.119 0.275 0.296 0.688 0.395 0.917s0.527 1.242 0.951 2.25c1.343 3.192 1.795 4.17 4.165 9 1.034 2.108 2.308 4.621 2.832 5.583 0.523 0.963 1.212 2.238 1.531 2.834 0.319 0.595 0.636 1.158 0.706 1.25 0.069 0.091 0.332 0.541 0.584 1 0.509 0.927 2.744 4.716 3.812 6.463 1.604 2.623 5.827 8.951 7.448 11.161 1.864 2.54 3.731 5.046 3.819 5.126 0.051 0.045 0.425 0.533 0.831 1.083s0.782 1.037 0.836 1.083c0.055 0.046 0.36 0.421 0.678 0.834 0.319 0.412 0.739 0.937 0.934 1.166 0.195 0.23 1.128 1.355 2.073 2.5 0.946 1.146 1.957 2.346 2.248 2.667 0.292 0.321 1.155 1.296 1.92 2.167 2.544 2.896 10.483 10.992 13.571 13.838 2.062 1.901 5.402 4.821 7.417 6.483 1.146 0.946 2.271 1.879 2.5 2.074s0.754 0.615 1.166 0.934c0.413 0.318 0.788 0.623 0.834 0.678 0.045 0.054 0.533 0.43 1.083 0.836s1.037 0.78 1.083 0.831 0.984 0.757 2.084 1.571c1.1 0.813 2.375 1.759 2.833 2.103 1.168 0.876 3.35 2.364 6.75 4.603 4.245 2.796 4.365 2.872 6.917 4.381 1.283 0.759 2.69 1.595 3.127 1.857 0.437 0.263 0.832 0.477 0.878 0.477 0.047 0 0.396 0.197 0.777 0.438 3.057 1.929 12.616 6.707 18.468 9.229 0.687 0.297 1.55 0.672 1.916 0.834 0.367 0.162 1.079 0.461 1.584 0.664 0.504 0.204 1.066 0.433 1.25 0.51 0.302 0.128 1.57 0.629 3.583 1.415 3.125 1.221 11.188 3.973 13.917 4.751 0.275 0.078 1.137 0.325 1.916 0.547 3.295 0.942 4.093 1.155 7.584 2.019 3.23 0.801 6.131 1.47 7.416 1.713 0.23 0.043 1.167 0.225 2.084 0.404 6.169 1.207 13.566 2.274 19.416 2.801 8.242 0.742 8.379 0.747 19.167 0.747 10.941 0 15.183-0.206 22.5-1.091 0.779-0.094 1.979-0.238 2.667-0.319 7.908-0.938 20.833-3.46 26.833-5.236 0.412-0.123 1.5-0.428 2.417-0.679 0.916-0.251 1.966-0.554 2.333-0.674 0.367-0.119 1.342-0.418 2.167-0.663 1.866-0.556 7.655-2.479 9-2.991 0.55-0.209 1.75-0.658 2.666-0.997 1.942-0.72 9.594-3.877 11.417-4.712 0.688-0.314 1.587-0.725 2-0.913 1.957-0.892 8.329-4.078 10.406-5.204 1.278-0.693 2.345-1.259 2.372-1.259s0.54-0.3 1.139-0.667 1.12-0.667 1.158-0.667c0.079 0 4.33-2.491 5.368-3.146 5.057-3.191 7.37-4.725 11.224-7.443 1.42-1.002 2.695-1.912 2.833-2.023 0.137-0.111 1.45-1.117 2.917-2.237 2.408-1.838 6.874-5.396 7.083-5.642 0.046-0.054 0.571-0.5 1.167-0.992 1.397-1.152 4.244-3.678 6.583-5.839 3.119-2.883 10.672-10.617 13.349-13.67 0.358-0.408 0.764-0.858 0.901-1.001 0.137-0.142 0.812-0.933 1.499-1.758 0.688-0.824 1.296-1.536 1.351-1.582 0.056-0.046 1.184-1.433 2.507-3.083 9.454-11.789 17.149-23.845 23.636-37.028 1.314-2.669 1.882-3.881 3.623-7.718 0.526-1.16 2.812-6.638 3.115-7.463 0.126-0.344 0.428-1.15 0.672-1.791 0.857-2.253 1.138-3.022 2.042-5.584 0.875-2.478 2.1-6.2 2.387-7.25 0.075-0.275 0.36-1.25 0.633-2.166 1.771-5.95 2.789-10.115 4.258-17.417 0.744-3.697 1.774-9.909 2.1-12.667 0.092-0.779 0.277-2.316 0.411-3.416s0.324-2.975 0.422-4.167 0.254-3.029 0.346-4.083c0.354-4.051 0.536-11.568 0.439-18.084-0.156-10.376-0.974-19.723-2.537-29-0.139-0.825-0.327-1.95-0.419-2.5-0.091-0.55-0.276-1.562-0.41-2.25-0.134-0.687-0.354-1.812-0.488-2.5-0.722-3.688-2.186-9.892-3.089-13.083-0.181-0.642-0.477-1.692-0.657-2.333-1.362-4.863-3.545-11.434-5.274-15.874-0.223-0.573-0.586-1.51-0.806-2.084-0.745-1.939-2.645-6.541-2.77-6.709-0.069-0.092-0.307-0.617-0.53-1.167-0.946-2.329-4.814-10.234-6.972-14.246-0.97-1.804-3.547-6.302-4.489-7.837-0.085-0.138-0.543-0.888-1.019-1.667-2.996-4.904-8.26-12.564-11.519-16.762-0.575-0.74-1.27-1.64-1.545-2-0.454-0.593-1.409-1.791-2.117-2.654-1.031-1.257-4.125-4.934-4.542-5.399-0.28-0.311-0.583-0.649-0.675-0.753-0.091-0.103-0.497-0.562-0.902-1.018-2.049-2.312-4.757-5.159-7.763-8.164-3.542-3.54-6.079-5.929-9.483-8.928-0.357-0.315-0.732-0.649-0.833-0.744-0.173-0.16-4.28-3.608-5.019-4.212-1.009-0.826-2.052-1.662-2.434-1.952-0.239-0.182-1.026-0.78-1.75-1.329-0.724-0.55-1.353-1.04-1.399-1.089-0.364-0.393-7.797-5.662-7.987-5.662-0.083 0-0.177-0.06-0.207-0.133-0.076-0.181-6.699-4.534-6.899-4.534-0.053 0-0.335-0.178-0.626-0.396-0.292-0.218-0.846-0.574-1.23-0.792-0.385-0.217-1.318-0.761-2.074-1.208-5.341-3.157-13.394-7.353-18.56-9.671-1.192-0.535-2.542-1.143-3-1.352-0.834-0.38-3.273-1.388-6.25-2.584-10.399-4.176-23.168-7.963-34-10.084-0.688-0.134-1.625-0.32-2.084-0.412-6.252-1.259-15.51-2.435-24.333-3.091-3.351-0.249-16.233-0.441-20.75-0.309m16.583 13.15c5.526 0.279 11.172 0.762 14.631 1.251 0.661 0.094 1.803 0.249 2.536 0.346 1.815 0.239 6.222 0.947 7.75 1.244 6.396 1.246 12.19 2.575 16 3.672 0.779 0.225 1.717 0.49 2.083 0.589 0.367 0.1 0.967 0.28 1.334 0.4 0.366 0.121 1.904 0.605 3.416 1.077 1.513 0.472 3.238 1.035 3.834 1.252 0.595 0.216 1.87 0.671 2.833 1.01 2.324 0.819 8.452 3.233 9.917 3.907 0.641 0.295 1.504 0.671 1.916 0.835 1.27 0.503 5.421 2.475 8.834 4.194 3.063 1.544 4.143 2.114 6.333 3.343 0.504 0.282 1.254 0.702 1.667 0.931 1.044 0.582 5.118 2.986 5.875 3.467 0.343 0.219 0.925 0.585 1.291 0.814 0.367 0.23 0.975 0.621 1.352 0.869 0.377 0.249 0.828 0.53 1.001 0.625 0.603 0.33 6.233 4.179 7.645 5.226 0.78 0.579 1.64 1.216 1.91 1.416 2.45 1.818 6.564 5.041 7.698 6.031 0.105 0.092 0.331 0.279 0.502 0.417 0.486 0.389 2.299 1.907 2.392 2.001 0.046 0.047 0.683 0.609 1.416 1.25 4.99 4.366 11.983 11.274 16.002 15.809 1.188 1.341 3.797 4.364 4.249 4.923 0.321 0.398 0.658 0.808 0.75 0.912 1.076 1.226 5.642 7.081 6.58 8.438 0.222 0.321 0.448 0.621 0.501 0.667 0.249 0.214 5.051 7.203 5.749 8.366 0.094 0.156 0.706 1.131 1.361 2.167 3.968 6.277 12.559 22.395 12.559 23.562 0 0.047 0.216 0.551 0.481 1.12 2.231 4.799 5.887 14.771 7.772 21.201 1.04 3.55 1.679 5.875 2.012 7.334 0.126 0.55 0.338 1.412 0.471 1.916 1.111 4.218 2.73 12.63 3.416 17.75 0.52 3.879 0.677 5.177 0.844 7 0.102 1.1 0.259 2.75 0.35 3.667 1.079 10.83 0.697 28.702-0.848 39.63-0.094 0.662-0.247 1.803-0.341 2.537-0.094 0.733-0.278 1.97-0.407 2.75-0.13 0.779-0.32 1.941-0.422 2.583s-0.288 1.692-0.414 2.333c-0.125 0.642-0.342 1.767-0.482 2.5-1.758 9.199-4.937 20.274-8.515 29.667-0.245 0.642-0.583 1.542-0.752 2-1.807 4.899-8.781 19.758-10.169 21.667-0.067 0.091-0.404 0.691-0.75 1.333-0.345 0.642-1.386 2.441-2.312 3.999-0.926 1.557-1.759 2.96-1.851 3.116-0.091 0.157-0.729 1.159-1.416 2.228-0.688 1.069-1.363 2.122-1.5 2.34-1.142 1.807-5.512 7.93-7.346 10.293-0.772 0.994-1.554 2.011-1.738 2.26-0.707 0.957-5.715 7.02-5.931 7.181-0.062 0.045-0.393 0.42-0.735 0.833-2.876 3.463-12.404 12.999-16.917 16.93-0.413 0.359-0.788 0.696-0.833 0.748-0.046 0.052-1.246 1.055-2.667 2.229s-2.771 2.295-3 2.491c-1.624 1.388-11.348 8.602-11.595 8.602-0.039 0-0.577 0.36-1.196 0.8-1.945 1.383-4.966 3.277-9.542 5.984-5.103 3.017-11.236 6.248-16.167 8.514-2.826 1.299-9.205 4.018-10.792 4.6-0.344 0.125-1.15 0.428-1.791 0.672-2.337 0.889-6.79 2.458-8.334 2.936-6.422 1.99-9.665 2.888-15.083 4.177-3.585 0.852-7.877 1.719-10.667 2.154-0.687 0.107-1.812 0.295-2.5 0.417-0.687 0.122-1.85 0.301-2.583 0.399-3.737 0.499-5.158 0.672-6.833 0.834-1.009 0.097-2.621 0.255-3.584 0.35-8.695 0.856-23.971 0.856-32.666 0-0.963-0.095-2.575-0.253-3.584-0.35-14.731-1.423-31.488-5.4-46-10.917-0.641-0.244-1.44-0.544-1.774-0.667-1.134-0.416-6.452-2.637-8.642-3.608-4.762-2.113-12.078-5.827-15.889-8.067-0.993-0.584-1.831-1.061-1.862-1.061s-0.661-0.375-1.4-0.834c-0.739-0.458-1.387-0.833-1.441-0.833-0.053 0-0.336-0.179-0.628-0.399-0.292-0.219-0.793-0.541-1.114-0.715-0.659-0.359-1.729-1.04-4.5-2.864-1.867-1.23-9.5-6.643-9.666-6.855-0.046-0.058-0.534-0.438-1.084-0.844s-1.037-0.778-1.083-0.826c-0.046-0.049-0.421-0.35-0.833-0.668s-0.899-0.705-1.083-0.859c-0.184-0.153-1.084-0.893-2.001-1.644-9.052-7.411-17.998-16.357-25.409-25.409-0.751-0.917-1.491-1.817-1.644-2.001-0.154-0.184-0.541-0.671-0.859-1.083s-0.619-0.787-0.668-0.833c-0.048-0.046-0.42-0.533-0.826-1.083s-0.785-1.038-0.842-1.084c-0.164-0.132-4.648-6.399-6.022-8.416-2.357-3.462-6.932-10.965-8.741-14.334-0.394-0.733-1.022-1.895-1.395-2.583-0.702-1.291-3.646-7.214-4.391-8.833-0.232-0.505-0.658-1.428-0.945-2.052-0.551-1.194-3.384-7.951-3.752-8.948-0.118-0.321-0.415-1.109-0.659-1.75-2.456-6.458-5.139-15.16-6.681-21.667-0.326-1.375-0.701-2.95-0.835-3.5-0.293-1.208-1.474-7.206-1.738-8.833-0.105-0.642-0.296-1.805-0.426-2.584-0.129-0.779-0.318-2.054-0.419-2.833s-0.285-2.167-0.41-3.083c-0.124-0.917-0.312-2.567-0.416-3.667-0.105-1.1-0.263-2.713-0.351-3.583-0.837-8.254-0.833-23.83 9e-3 -32.334 0.095-0.962 0.253-2.575 0.35-3.583s0.285-2.658 0.418-3.667c0.132-1.008 0.321-2.471 0.42-3.25s0.281-1.979 0.404-2.666c0.124-0.688 0.31-1.813 0.415-2.5 0.105-0.688 0.291-1.738 0.414-2.334s0.345-1.721 0.493-2.5c0.149-0.779 0.339-1.716 0.425-2.083 0.085-0.367 0.388-1.717 0.673-3 0.472-2.126 1.168-4.918 1.994-8.007 0.738-2.757 3.52-11.553 4.138-13.082 0.092-0.226 0.443-1.161 0.782-2.078 1.271-3.442 3.298-8.438 4.349-10.72 0.309-0.671 0.562-1.247 0.562-1.278 0-0.277 4.466-9.276 5.874-11.835 0.504-0.917 1.162-2.117 1.463-2.667 2.438-4.458 7.152-11.894 10.724-16.916 1.043-1.466 4.444-6.02 4.607-6.167 0.05-0.046 0.614-0.758 1.252-1.583 1.127-1.457 4.164-5.15 4.721-5.741 0.152-0.162 0.49-0.548 0.752-0.86 3.597-4.275 11.464-12.236 16.776-16.977 0.87-0.776 1.724-1.526 1.898-1.667 0.174-0.14 0.439-0.368 0.589-0.505 1.595-1.464 5.714-4.765 9.957-7.978 4.249-3.218 10.762-7.617 15.054-10.166 0.504-0.299 1.404-0.842 2-1.207s1.233-0.739 1.416-0.83c0.184-0.092 0.484-0.258 0.668-0.368 0.44-0.265 2.697-1.521 4.166-2.319 3.192-1.736 11.387-5.731 13.298-6.485 0.477-0.188 0.943-0.402 1.035-0.475 0.164-0.131 6.902-2.835 9.5-3.813 5.229-1.967 14.111-4.72 18.917-5.863 4.043-0.961 6.086-1.418 8.916-1.994 5.393-1.097 12.643-2.2 17.5-2.661 1.009-0.096 2.696-0.258 3.75-0.36 6.309-0.613 17.054-0.785 24.75-0.397m-98.25 83.751c-5.045 0.869-9.54 5.179-10.773 10.331-0.377 1.573-0.584 96.144-0.219 99.576 0.631 5.922 4.23 10.204 10.076 11.985 1.163 0.355 1.23 0.356 20.916 0.356h19.75l1.334-0.393c4.755-1.401 7.95-4.487 9.53-9.203l0.47-1.404v-50.25-50.25l-0.458-1.351c-1.72-5.074-5.71-8.59-10.658-9.393-1.241-0.201-38.8-0.205-39.968-4e-3m72.834-0.061c-5.166 0.827-9.175 4.475-10.964 9.976-0.326 1.003-0.534 97.177-0.215 99.607 0.785 5.989 5.732 10.744 11.929 11.467 2.03 0.237 36.152 0.24 38.087 3e-3 6.346-0.775 11.136-5.457 11.986-11.714 0.312-2.304 0.24-96.134-0.077-98.084-0.866-5.341-4.417-9.268-9.996-11.057-0.633-0.203-39.54-0.392-40.75-0.198m72.75 0.509c-6.515 0.931-11.265 5.795-11.93 12.217-0.333 3.208-0.119 97.411 0.223 98.583 1.584 5.422 5.234 8.968 10.455 10.155 1.01 0.23 3.511 0.262 20.451 0.261h19.301l1.5-0.404c4.994-1.347 8.547-4.836 9.852-9.679 0.305-1.131 0.314-2.68 0.314-50.666v-49.5l-0.47-1.404c-1.303-3.892-3.532-6.48-7.139-8.292-0.834-0.419-1.09-0.511-2.807-1.016-0.874-0.256-38.07-0.495-39.75-0.255m-104.88 6.439c1.548 0.767 2.632 1.876 3.469 3.544l0.577 1.15 0.045 48.917c0.03 32.93-0.011 49.179-0.126 49.721-0.489 2.306-2.218 4.264-4.691 5.316l-0.894 0.38h-19-19l-1.276-0.551c-1.631-0.704-3.065-2.072-3.847-3.671l-0.544-1.112-0.043-49.074c-0.048-54.296-0.131-50.101 1.036-51.926 1.006-1.573 3.007-3.011 4.59-3.299 0.23-0.042 8.967-0.067 19.417-0.055l19 0.021 1.287 0.639m71.353-0.472c2.64 0.687 4.741 3.014 5.261 5.826 0.309 1.669 0.247 95.176-0.064 96.642-0.484 2.286-1.967 4.175-4.056 5.168l-1.114 0.53h-19.417-19.417l-0.956-0.448c-2.364-1.108-3.856-2.944-4.293-5.283-0.232-1.244-0.231-95.635 1e-3 -96.871 0.494-2.629 3.003-5.226 5.499-5.691 1.257-0.235 37.627-0.115 38.556 0.127m71.755 0.521c2.246 0.563 3.95 1.945 4.987 4.045l0.618 1.25v48.842 48.842l-0.522 1.083c-0.664 1.377-1.543 2.388-2.759 3.174-1.915 1.237-0.819 1.181-21.886 1.126l-18.833-0.05-1.25-0.622c-1.893-0.943-3.047-2.167-3.762-3.991l-0.406-1.038 0.042-48.758 0.043-48.758 0.535-1.095c1.017-2.077 2.615-3.398 4.838-3.998 1.644-0.443 36.606-0.49 38.355-0.052m-107.65 21.682c-1.531 1.064-1.37 3.462 0.278 4.15 0.817 0.342 32.637 0.342 33.454 0 1.6-0.668 1.834-3.19 0.38-4.088-0.804-0.498-33.401-0.557-34.112-0.062m-73.1 0.311c-1.561 0.771-1.415 3.481 0.225 4.175 0.924 0.392 32.923 0.33 33.713-0.065 1.512-0.755 1.512-3.327 0-4.082-0.842-0.421-33.088-0.447-33.938-0.028m144.82 0.634c-1.021 0.936-0.862 2.979 0.285 3.657 0.716 0.422 33.448 0.428 34.163 5e-3 1.366-0.806 1.351-3.238-0.025-4.002-0.306-0.169-3.825-0.214-17.096-0.219l-16.711-6e-3 -0.616 0.565m-72.316 9.766c-0.951 0.384-1.445 1.89-1.001 3.051 0.529 1.386-0.888 1.285 18.003 1.285h16.763l0.532-0.476c1.028-0.917 0.816-3.166-0.354-3.772-0.554-0.286-33.242-0.371-33.943-0.088m-73.174 0.383c-1.407 0.789-1.461 3.412-0.085 4.148 0.74 0.396 33.636 0.319 34.224-0.08 1.271-0.863 1.214-3.168-0.098-3.968-0.644-0.392-33.347-0.489-34.041-0.1m145.07 0.38c-1.293 0.702-1.313 3.071-0.033 3.915 0.576 0.379 33.303 0.52 34.106 0.146 1.444-0.671 1.444-3.472 0-4.144-0.666-0.309-33.497-0.23-34.073 0.083m-71.884 9.717c-2.031 1.238-1.191 4.356 1.173 4.356 1.338 0 2.25-0.942 2.25-2.324 0-1.847-1.889-2.968-3.423-2.032m5.629 0.26c-0.865 0.793-0.93 2.419-0.129 3.255 1.476 1.541 3.987 0.606 3.987-1.483 0-2.095-2.335-3.168-3.858-1.772m7.02-0.305c-2.264 1.117-1.631 4.412 0.844 4.395 0.945-7e-3 1.413-0.211 1.895-0.828 1.463-1.872-0.635-4.604-2.739-3.567m6.262 0.221c-0.793 0.792-0.688 3.312 0.165 3.966 0.198 0.152 2.106 0.204 7.647 0.208l7.382 6e-3 0.409-0.409c0.365-0.365 0.409-0.55 0.407-1.709-5e-3 -2.718 0.547-2.549-8.328-2.549h-7.195l-0.487 0.487m-91.574-0.019c-2.496 0.856-1.925 4.534 0.703 4.531 1.642-1e-3 2.783-1.696 2.149-3.193-0.435-1.029-1.837-1.687-2.852-1.338m5.653 0.094c-0.284 0.129-0.678 0.495-0.875 0.814-1.605 2.597 2.159 5.043 3.875 2.517 1.319-1.94-0.822-4.318-3-3.331m6.054 0.294c-2.191 1.634-0.171 5.22 2.284 4.055 1.653-0.784 1.887-3.039 0.424-4.081-0.646-0.46-2.076-0.446-2.708 0.026m6.637 0.068c-0.637 0.637-0.633 2.803 7e-3 3.563l0.432 0.513h7.392 7.393l0.458-0.394c0.761-0.655 0.798-2.942 0.06-3.734l-0.346-0.372h-7.486-7.486l-0.424 0.424m132.49-0.044c-2.182 1.227-1.315 4.287 1.216 4.287 2.467 0 3.05-3.458 0.748-4.438-0.745-0.318-1.19-0.284-1.964 0.151m-5.998-0.011c-2.153 1.248-1.381 4.362 1.082 4.362 2.359 0 3.208-2.941 1.226-4.248-0.539-0.355-1.785-0.417-2.308-0.114m12.484 0.035c-2.139 0.931-1.609 4.177 0.715 4.38 2.537 0.222 3.582-3.179 1.315-4.277-0.812-0.393-1.308-0.418-2.03-0.103m6.681-0.045c-0.64 0.35-0.75 0.666-0.75 2.154 0 1.179 0.059 1.524 0.319 1.844l0.318 0.393h7.529 7.53l0.418-0.486c0.639-0.743 0.534-3.094-0.165-3.695l-0.468-0.402-7.199 5e-3c-4.888 3e-3 -7.306 0.063-7.532 0.187m-75.849 48.982c-4.206 0.818-5.693 5.749-2.64 8.754 1.842 1.812 4.843 1.894 6.828 0.186 3.851-3.314 0.764-9.903-4.188-8.94m71.79 0.668c-3.791 0.763-5.278 5.73-2.558 8.546 2.422 2.509 6.626 1.967 8.192-1.055 2.046-3.947-1.278-8.367-5.634-7.491m-145.32 0.783c-5.337 2.174-3.871 9.875 1.88 9.875 5.41 0 6.995-7.309 2.104-9.702-1.027-0.503-2.968-0.587-3.984-0.173m113.55 37.71c-2.492 0.376-3.339 0.547-4.917 0.994-0.687 0.195-1.475 0.415-1.75 0.49-1.093 0.295-3.747 1.41-5.217 2.19-2.861 1.52-3.887 2.292-17.866 13.437-0.138 0.109-0.963 0.772-1.834 1.472-2.39 1.923-2.615 2.103-4.458 3.564-1.926 1.526-1.956 1.596-1.06 2.47 0.356 0.347 1.89 1.85 3.408 3.339 3.132 3.075 3.163 3.087 4.444 1.708 0.046-0.05 0.533-0.463 1.083-0.92 0.55-0.456 1.037-0.871 1.083-0.922 0.327-0.364 6.663-5.342 7.834-6.153 0.32-0.223 0.62-0.451 0.666-0.506 0.225-0.273 6.137-4.259 7.291-4.915 0.161-0.092 0.979-0.562 1.817-1.044 8.894-5.121 14.857-6.028 22.089-3.362 1.722 0.635 4.879 2.308 5.303 2.809 0.046 0.055 0.384 0.32 0.75 0.59 7.047 5.194 10.092 14.367 7.775 23.424-2.603 10.173-14.294 17.456-24.895 15.508-5.672-1.042-14.763-6.09-23.463-13.029-5.216-4.16-7.519-6.154-12.683-10.979-0.245-0.229-1.599-1.542-3.009-2.917-5.256-5.126-8.396-8.034-10.453-9.683-0.218-0.174-0.518-0.434-0.667-0.577-0.149-0.144-0.646-0.556-1.105-0.917-0.458-0.361-0.87-0.695-0.916-0.743-0.115-0.118-1.974-1.635-2.755-2.247-0.699-0.548-3.581-2.908-4.245-3.476-0.229-0.196-0.755-0.618-1.167-0.938-0.412-0.319-0.836-0.662-0.941-0.762-1.617-1.537-7.286-4.577-10.699-5.739-19.491-6.633-40.671 4.645-43.818 23.332l-0.295 1.75-47.747 0.084v-4.155-4.155l-0.439-0.345c-0.979-0.77-2.129-0.381-5.143 1.738-14.366 10.098-14.918 10.527-14.918 11.578 0 1.294 0.709 1.97 5.245 5.005 0.205 0.137 0.553 0.378 0.773 0.536 12.116 8.666 12.09 8.65 13.32 8.38 1.147-0.252 1.162-0.317 1.162-4.922v-4.161h23.898 23.897l0.108 0.792c3.045 22.456 29.46 34.089 49.239 21.686 1.407-0.882 5.125-3.627 10.964-8.092 0.263-0.201 1.527-1.162 2.811-2.135 1.283-0.974 2.558-1.945 2.833-2.157 0.742-0.574 2.685-2.045 3.917-2.964 0.595-0.445 1.216-0.919 1.378-1.054 0.163-0.135 0.875-0.668 1.584-1.185 0.708-0.517 1.342-0.987 1.409-1.045s-1.476-1.702-3.429-3.654l-3.551-3.548-1.238 1.032c-0.68 0.567-1.274 1.081-1.32 1.141s-0.796 0.701-1.667 1.425c-0.87 0.723-1.658 1.396-1.75 1.495-0.091 0.1-0.578 0.519-1.081 0.931-0.504 0.412-1.104 0.913-1.334 1.112-0.23 0.2-0.906 0.742-1.501 1.204-17.003 13.178-25.158 15.55-35.539 10.338-9.241-4.641-14.543-16.045-11.656-25.072 0.088-0.275 0.283-0.917 0.433-1.427 3.204-10.881 16.859-17.811 27.787-14.101 2.697 0.916 6.389 2.778 9.641 4.863 5.353 3.431 12.725 8.764 14.167 10.248 0.046 0.047 0.571 0.497 1.167 0.999 0.595 0.502 1.421 1.221 1.833 1.597 0.412 0.377 1.313 1.198 2 1.826 0.688 0.627 2.449 2.271 3.914 3.651 5.307 5.003 9.266 8.549 11.641 10.428 0.173 0.137 0.401 0.328 0.505 0.423 0.312 0.284 6.449 4.954 7.44 5.661 0.835 0.595 5.553 4.074 7.583 5.591 8.716 6.513 17.991 8.997 27.378 7.332 1.828-0.324 6.001-1.54 6.812-1.985 0.171-0.093 0.91-0.45 1.644-0.793 9.112-4.26 15.941-13.566 17.505-23.854l0.107-0.709h20.736 20.735v4.161c0 4.605 0.015 4.67 1.162 4.922 0.818 0.179 3.621-1.2 4.809-2.367 0.122-0.12 0.367-0.295 0.544-0.39s1.427-0.968 2.779-1.941c1.351-0.972 3.918-2.79 5.706-4.04 7.407-5.18 7.391-4.803 0.4-9.812-2.3-1.648-4.511-3.204-4.913-3.457-0.401-0.254-0.83-0.562-0.954-0.685-0.123-0.123-0.279-0.224-0.347-0.224s-0.27-0.137-0.451-0.305c-0.18-0.168-0.55-0.448-0.823-0.624-0.272-0.175-1.32-0.912-2.329-1.638-2.889-2.08-4.173-2.518-5.144-1.754l-0.439 0.345v4.155 4.156l-41.416-0.085-0.194-1.279c-2.545-16.701-19.495-28.607-36.973-25.969"/>
<path d="m192.5 0.101c-4.695 0.138-14.558 0.988-19.167 1.652-0.87 0.125-2.221 0.313-3 0.416-0.779 0.104-1.979 0.288-2.666 0.408-0.688 0.121-1.775 0.308-2.417 0.416-1.165 0.195-2.558 0.455-4.917 0.919-9.933 1.953-21.583 5.31-31.333 9.029-2.797 1.067-8.827 3.537-9.083 3.72-0.092 0.066-0.473 0.238-0.847 0.383-3.41 1.323-15.663 7.578-19.787 10.103-0.617 0.377-1.156 0.686-1.198 0.686-0.128 0-6.562 4.054-8.972 5.654-2.894 1.92-8.263 5.771-10.921 7.833-2.121 1.646-6.544 5.174-6.692 5.338-0.046 0.05-0.608 0.542-1.249 1.092-4.5 3.859-7.409 6.555-11.677 10.824-4.269 4.268-6.965 7.177-10.824 11.677-0.55 0.641-1.041 1.203-1.091 1.249-0.051 0.046-0.937 1.133-1.97 2.417-1.033 1.283-1.983 2.461-2.11 2.618-5.255 6.477-12.437 17.274-17.382 26.132-0.23 0.412-0.566 1.012-0.746 1.333-1.452 2.587-5.168 9.976-6.369 12.667-0.43 0.962-0.933 2.083-1.117 2.49-0.476 1.049-2.94 6.94-3.204 7.66-0.122 0.33-0.407 1.087-0.635 1.683-2.908 7.611-5.381 15.395-7.068 22.25-0.136 0.55-0.434 1.75-0.663 2.667-0.229 0.916-0.485 2.004-0.569 2.416-0.084 0.413-0.269 1.275-0.41 1.917s-0.367 1.729-0.503 2.417c-0.136 0.687-0.358 1.812-0.495 2.5-1.172 5.914-2.176 13.586-2.921 22.333-0.801 9.409-0.562 26.52 0.497 35.583 0.086 0.734 0.239 2.084 0.341 3 1.009 9.054 2.819 18.558 5.398 28.337 0.415 1.574 1.778 6.292 2.189 7.58 0.753 2.359 2.499 7.561 2.825 8.417 0.21 0.55 0.659 1.75 0.998 2.666 0.588 1.588 1.709 4.428 2.171 5.5 0.119 0.275 0.296 0.688 0.395 0.917s0.527 1.242 0.951 2.25c1.343 3.192 1.795 4.17 4.165 9 1.034 2.108 2.308 4.621 2.832 5.583 0.523 0.963 1.212 2.238 1.531 2.834 0.319 0.595 0.636 1.158 0.706 1.25 0.069 0.091 0.332 0.541 0.584 1 0.509 0.927 2.744 4.716 3.812 6.463 1.604 2.623 5.827 8.951 7.448 11.161 1.864 2.54 3.731 5.046 3.819 5.126 0.051 0.045 0.425 0.533 0.831 1.083s0.782 1.037 0.836 1.083c0.055 0.046 0.36 0.421 0.678 0.834 0.319 0.412 0.739 0.937 0.934 1.166 0.195 0.23 1.128 1.355 2.073 2.5 0.946 1.146 1.957 2.346 2.248 2.667 0.292 0.321 1.155 1.296 1.92 2.167 2.544 2.896 10.483 10.992 13.571 13.838 2.062 1.901 5.402 4.821 7.417 6.483 1.146 0.946 2.271 1.879 2.5 2.074s0.754 0.615 1.166 0.934c0.413 0.318 0.788 0.623 0.834 0.678 0.045 0.054 0.533 0.43 1.083 0.836s1.037 0.78 1.083 0.831 0.984 0.757 2.084 1.571c1.1 0.813 2.375 1.759 2.833 2.103 1.168 0.876 3.35 2.364 6.75 4.603 4.245 2.796 4.365 2.872 6.917 4.381 1.283 0.759 2.69 1.595 3.127 1.857 0.437 0.263 0.832 0.477 0.878 0.477 0.047 0 0.396 0.197 0.777 0.438 3.057 1.929 12.616 6.707 18.468 9.229 0.687 0.297 1.55 0.672 1.916 0.834 0.367 0.162 1.079 0.461 1.584 0.664 0.504 0.204 1.066 0.433 1.25 0.51 0.302 0.128 1.57 0.629 3.583 1.415 3.125 1.221 11.188 3.973 13.917 4.751 0.275 0.078 1.137 0.325 1.916 0.547 3.295 0.942 4.093 1.155 7.584 2.019 3.23 0.801 6.131 1.47 7.416 1.713 0.23 0.043 1.167 0.225 2.084 0.404 6.169 1.207 13.566 2.274 19.416 2.801 8.242 0.742 8.379 0.747 19.167 0.747 10.941 0 15.183-0.206 22.5-1.091 0.779-0.094 1.979-0.238 2.667-0.319 7.908-0.938 20.833-3.46 26.833-5.236 0.412-0.123 1.5-0.428 2.417-0.679 0.916-0.251 1.966-0.554 2.333-0.674 0.367-0.119 1.342-0.418 2.167-0.663 1.866-0.556 7.655-2.479 9-2.991 0.55-0.209 1.75-0.658 2.666-0.997 1.942-0.72 9.594-3.877 11.417-4.712 0.688-0.314 1.587-0.725 2-0.913 1.957-0.892 8.329-4.078 10.406-5.204 1.278-0.693 2.345-1.259 2.372-1.259s0.54-0.3 1.139-0.667 1.12-0.667 1.158-0.667c0.079 0 4.33-2.491 5.368-3.146 5.057-3.191 7.37-4.725 11.224-7.443 1.42-1.002 2.695-1.912 2.833-2.023 0.137-0.111 1.45-1.117 2.917-2.237 2.408-1.838 6.874-5.396 7.083-5.642 0.046-0.054 0.571-0.5 1.167-0.992 1.397-1.152 4.244-3.678 6.583-5.839 3.119-2.883 10.672-10.617 13.349-13.67 0.358-0.408 0.764-0.858 0.901-1.001 0.137-0.142 0.812-0.933 1.499-1.758 0.688-0.824 1.296-1.536 1.351-1.582 0.056-0.046 1.184-1.433 2.507-3.083 9.454-11.789 17.149-23.845 23.636-37.028 1.314-2.669 1.882-3.881 3.623-7.718 0.526-1.16 2.812-6.638 3.115-7.463 0.126-0.344 0.428-1.15 0.672-1.791 0.857-2.253 1.138-3.022 2.042-5.584 0.875-2.478 2.1-6.2 2.387-7.25 0.075-0.275 0.36-1.25 0.633-2.166 1.771-5.95 2.789-10.115 4.258-17.417 0.744-3.697 1.774-9.909 2.1-12.667 0.092-0.779 0.277-2.316 0.411-3.416s0.324-2.975 0.422-4.167 0.254-3.029 0.346-4.083c0.354-4.051 0.536-11.568 0.439-18.084-0.156-10.376-0.974-19.723-2.537-29-0.139-0.825-0.327-1.95-0.419-2.5-0.091-0.55-0.276-1.562-0.41-2.25-0.134-0.687-0.354-1.812-0.488-2.5-0.722-3.688-2.186-9.892-3.089-13.083-0.181-0.642-0.477-1.692-0.657-2.333-1.362-4.863-3.545-11.434-5.274-15.874-0.223-0.573-0.586-1.51-0.806-2.084-0.745-1.939-2.645-6.541-2.77-6.709-0.069-0.092-0.307-0.617-0.53-1.167-0.946-2.329-4.814-10.234-6.972-14.246-0.97-1.804-3.547-6.302-4.489-7.837-0.085-0.138-0.543-0.888-1.019-1.667-2.996-4.904-8.26-12.564-11.519-16.762-0.575-0.74-1.27-1.64-1.545-2-0.454-0.593-1.409-1.791-2.117-2.654-1.031-1.257-4.125-4.934-4.542-5.399-0.28-0.311-0.583-0.649-0.675-0.753-0.091-0.103-0.497-0.562-0.902-1.018-2.049-2.312-4.757-5.159-7.763-8.164-3.542-3.54-6.079-5.929-9.483-8.928-0.357-0.315-0.732-0.649-0.833-0.744-0.173-0.16-4.28-3.608-5.019-4.212-1.009-0.826-2.052-1.662-2.434-1.952-0.239-0.182-1.026-0.78-1.75-1.329-0.724-0.55-1.353-1.04-1.399-1.089-0.364-0.393-7.797-5.662-7.987-5.662-0.083 0-0.177-0.06-0.207-0.133-0.076-0.181-6.699-4.534-6.899-4.534-0.053 0-0.335-0.178-0.626-0.396-0.292-0.218-0.846-0.574-1.23-0.792-0.385-0.217-1.318-0.761-2.074-1.208-5.341-3.157-13.394-7.353-18.56-9.671-1.192-0.535-2.542-1.143-3-1.352-0.834-0.38-3.273-1.388-6.25-2.584-10.399-4.176-23.168-7.963-34-10.084-0.688-0.134-1.625-0.32-2.084-0.412-6.252-1.259-15.51-2.435-24.333-3.091-3.351-0.249-16.233-0.441-20.75-0.309m16.583 13.15c5.526 0.279 11.172 0.762 14.631 1.251 0.661 0.094 1.803 0.249 2.536 0.346 1.815 0.239 6.222 0.947 7.75 1.244 6.396 1.246 12.19 2.575 16 3.672 0.779 0.225 1.717 0.49 2.083 0.589 0.367 0.1 0.967 0.28 1.334 0.4 0.366 0.121 1.904 0.605 3.416 1.077 1.513 0.472 3.238 1.035 3.834 1.252 0.595 0.216 1.87 0.671 2.833 1.01 2.324 0.819 8.452 3.233 9.917 3.907 0.641 0.295 1.504 0.671 1.916 0.835 1.27 0.503 5.421 2.475 8.834 4.194 3.063 1.544 4.143 2.114 6.333 3.343 0.504 0.282 1.254 0.702 1.667 0.931 1.044 0.582 5.118 2.986 5.875 3.467 0.343 0.219 0.925 0.585 1.291 0.814 0.367 0.23 0.975 0.621 1.352 0.869 0.377 0.249 0.828 0.53 1.001 0.625 0.603 0.33 6.233 4.179 7.645 5.226 0.78 0.579 1.64 1.216 1.91 1.416 2.45 1.818 6.564 5.041 7.698 6.031 0.105 0.092 0.331 0.279 0.502 0.417 0.486 0.389 2.299 1.907 2.392 2.001 0.046 0.047 0.683 0.609 1.416 1.25 4.99 4.366 11.983 11.274 16.002 15.809 1.188 1.341 3.797 4.364 4.249 4.923 0.321 0.398 0.658 0.808 0.75 0.912 1.076 1.226 5.642 7.081 6.58 8.438 0.222 0.321 0.448 0.621 0.501 0.667 0.249 0.214 5.051 7.203 5.749 8.366 0.094 0.156 0.706 1.131 1.361 2.167 3.968 6.277 12.559 22.395 12.559 23.562 0 0.047 0.216 0.551 0.481 1.12 2.231 4.799 5.887 14.771 7.772 21.201 1.04 3.55 1.679 5.875 2.012 7.334 0.126 0.55 0.338 1.412 0.471 1.916 1.111 4.218 2.73 12.63 3.416 17.75 0.52 3.879 0.677 5.177 0.844 7 0.102 1.1 0.259 2.75 0.35 3.667 1.079 10.83 0.697 28.702-0.848 39.63-0.094 0.662-0.247 1.803-0.341 2.537-0.094 0.733-0.278 1.97-0.407 2.75-0.13 0.779-0.32 1.941-0.422 2.583s-0.288 1.692-0.414 2.333c-0.125 0.642-0.342 1.767-0.482 2.5-1.758 9.199-4.937 20.274-8.515 29.667-0.245 0.642-0.583 1.542-0.752 2-1.807 4.899-8.781 19.758-10.169 21.667-0.067 0.091-0.404 0.691-0.75 1.333-0.345 0.642-1.386 2.441-2.312 3.999-0.926 1.557-1.759 2.96-1.851 3.116-0.091 0.157-0.729 1.159-1.416 2.228-0.688 1.069-1.363 2.122-1.5 2.34-1.142 1.807-5.512 7.93-7.346 10.293-0.772 0.994-1.554 2.011-1.738 2.26-0.707 0.957-5.715 7.02-5.931 7.181-0.062 0.045-0.393 0.42-0.735 0.833-2.876 3.463-12.404 12.999-16.917 16.93-0.413 0.359-0.788 0.696-0.833 0.748-0.046 0.052-1.246 1.055-2.667 2.229s-2.771 2.295-3 2.491c-1.624 1.388-11.348 8.602-11.595 8.602-0.039 0-0.577 0.36-1.196 0.8-1.945 1.383-4.966 3.277-9.542 5.984-5.103 3.017-11.236 6.248-16.167 8.514-2.826 1.299-9.205 4.018-10.792 4.6-0.344 0.125-1.15 0.428-1.791 0.672-2.337 0.889-6.79 2.458-8.334 2.936-6.422 1.99-9.665 2.888-15.083 4.177-3.585 0.852-7.877 1.719-10.667 2.154-0.687 0.107-1.812 0.295-2.5 0.417-0.687 0.122-1.85 0.301-2.583 0.399-3.737 0.499-5.158 0.672-6.833 0.834-1.009 0.097-2.621 0.255-3.584 0.35-8.695 0.856-23.971 0.856-32.666 0-0.963-0.095-2.575-0.253-3.584-0.35-14.731-1.423-31.488-5.4-46-10.917-0.641-0.244-1.44-0.544-1.774-0.667-1.134-0.416-6.452-2.637-8.642-3.608-4.762-2.113-12.078-5.827-15.889-8.067-0.993-0.584-1.831-1.061-1.862-1.061s-0.661-0.375-1.4-0.834c-0.739-0.458-1.387-0.833-1.441-0.833-0.053 0-0.336-0.179-0.628-0.399-0.292-0.219-0.793-0.541-1.114-0.715-0.659-0.359-1.729-1.04-4.5-2.864-1.867-1.23-9.5-6.643-9.666-6.855-0.046-0.058-0.534-0.438-1.084-0.844s-1.037-0.778-1.083-0.826c-0.046-0.049-0.421-0.35-0.833-0.668s-0.899-0.705-1.083-0.859c-0.184-0.153-1.084-0.893-2.001-1.644-9.052-7.411-17.998-16.357-25.409-25.409-0.751-0.917-1.491-1.817-1.644-2.001-0.154-0.184-0.541-0.671-0.859-1.083s-0.619-0.787-0.668-0.833c-0.048-0.046-0.42-0.533-0.826-1.083s-0.785-1.038-0.842-1.084c-0.164-0.132-4.648-6.399-6.022-8.416-2.357-3.462-6.932-10.965-8.741-14.334-0.394-0.733-1.022-1.895-1.395-2.583-0.702-1.291-3.646-7.214-4.391-8.833-0.232-0.505-0.658-1.428-0.945-2.052-0.551-1.194-3.384-7.951-3.752-8.948-0.118-0.321-0.415-1.109-0.659-1.75-2.456-6.458-5.139-15.16-6.681-21.667-0.326-1.375-0.701-2.95-0.835-3.5-0.293-1.208-1.474-7.206-1.738-8.833-0.105-0.642-0.296-1.805-0.426-2.584-0.129-0.779-0.318-2.054-0.419-2.833s-0.285-2.167-0.41-3.083c-0.124-0.917-0.312-2.567-0.416-3.667-0.105-1.1-0.263-2.713-0.351-3.583-0.837-8.254-0.833-23.83 9e-3 -32.334 0.095-0.962 0.253-2.575 0.35-3.583s0.285-2.658 0.418-3.667c0.132-1.008 0.321-2.471 0.42-3.25s0.281-1.979 0.404-2.666c0.124-0.688 0.31-1.813 0.415-2.5 0.105-0.688 0.291-1.738 0.414-2.334s0.345-1.721 0.493-2.5c0.149-0.779 0.339-1.716 0.425-2.083 0.085-0.367 0.388-1.717 0.673-3 0.472-2.126 1.168-4.918 1.994-8.007 0.738-2.757 3.52-11.553 4.138-13.082 0.092-0.226 0.443-1.161 0.782-2.078 1.271-3.442 3.298-8.438 4.349-10.72 0.309-0.671 0.562-1.247 0.562-1.278 0-0.277 4.466-9.276 5.874-11.835 0.504-0.917 1.162-2.117 1.463-2.667 2.438-4.458 7.152-11.894 10.724-16.916 1.043-1.466 4.444-6.02 4.607-6.167 0.05-0.046 0.614-0.758 1.252-1.583 1.127-1.457 4.164-5.15 4.721-5.741 0.152-0.162 0.49-0.548 0.752-0.86 3.597-4.275 11.464-12.236 16.776-16.977 0.87-0.776 1.724-1.526 1.898-1.667 0.174-0.14 0.439-0.368 0.589-0.505 1.595-1.464 5.714-4.765 9.957-7.978 4.249-3.218 10.762-7.617 15.054-10.166 0.504-0.299 1.404-0.842 2-1.207s1.233-0.739 1.416-0.83c0.184-0.092 0.484-0.258 0.668-0.368 0.44-0.265 2.697-1.521 4.166-2.319 3.192-1.736 11.387-5.731 13.298-6.485 0.477-0.188 0.943-0.402 1.035-0.475 0.164-0.131 6.902-2.835 9.5-3.813 5.229-1.967 14.111-4.72 18.917-5.863 4.043-0.961 6.086-1.418 8.916-1.994 5.393-1.097 12.643-2.2 17.5-2.661 1.009-0.096 2.696-0.258 3.75-0.36 6.309-0.613 17.054-0.785 24.75-0.397m-98.25 83.751c-5.045 0.869-9.54 5.179-10.773 10.331-0.377 1.573-0.584 96.144-0.219 99.576 0.631 5.922 4.23 10.204 10.076 11.985 1.163 0.355 1.23 0.356 20.916 0.356h19.75l1.334-0.393c4.755-1.401 7.95-4.487 9.53-9.203l0.47-1.404v-50.25-50.25l-0.458-1.351c-1.72-5.074-5.71-8.59-10.658-9.393-1.241-0.201-38.8-0.205-39.968-4e-3m72.834-0.061c-5.166 0.827-9.175 4.475-10.964 9.976-0.326 1.003-0.534 97.177-0.215 99.607 0.785 5.989 5.732 10.744 11.929 11.467 2.03 0.237 36.152 0.24 38.087 3e-3 6.346-0.775 11.136-5.457 11.986-11.714 0.312-2.304 0.24-96.134-0.077-98.084-0.866-5.341-4.417-9.268-9.996-11.057-0.633-0.203-39.54-0.392-40.75-0.198m72.75 0.509c-6.515 0.931-11.265 5.795-11.93 12.217-0.333 3.208-0.119 97.411 0.223 98.583 1.584 5.422 5.234 8.968 10.455 10.155 1.01 0.23 3.511 0.262 20.451 0.261h19.301l1.5-0.404c4.994-1.347 8.547-4.836 9.852-9.679 0.305-1.131 0.314-2.68 0.314-50.666v-49.5l-0.47-1.404c-1.303-3.892-3.532-6.48-7.139-8.292-0.834-0.419-1.09-0.511-2.807-1.016-0.874-0.256-38.07-0.495-39.75-0.255m-104.88 6.439c1.548 0.767 2.632 1.876 3.469 3.544l0.577 1.15 0.045 48.917c0.03 32.93-0.011 49.179-0.126 49.721-0.489 2.306-2.218 4.264-4.691 5.316l-0.894 0.38h-19-19l-1.276-0.551c-1.631-0.704-3.065-2.072-3.847-3.671l-0.544-1.112-0.043-49.074c-0.048-54.296-0.131-50.101 1.036-51.926 1.006-1.573 3.007-3.011 4.59-3.299 0.23-0.042 8.967-0.067 19.417-0.055l19 0.021 1.287 0.639m71.353-0.472c2.64 0.687 4.741 3.014 5.261 5.826 0.309 1.669 0.247 95.176-0.064 96.642-0.484 2.286-1.967 4.175-4.056 5.168l-1.114 0.53h-19.417-19.417l-0.956-0.448c-2.364-1.108-3.856-2.944-4.293-5.283-0.232-1.244-0.231-95.635 1e-3 -96.871 0.494-2.629 3.003-5.226 5.499-5.691 1.257-0.235 37.627-0.115 38.556 0.127m71.755 0.521c2.246 0.563 3.95 1.945 4.987 4.045l0.618 1.25v48.842 48.842l-0.522 1.083c-0.664 1.377-1.543 2.388-2.759 3.174-1.915 1.237-0.819 1.181-21.886 1.126l-18.833-0.05-1.25-0.622c-1.893-0.943-3.047-2.167-3.762-3.991l-0.406-1.038 0.042-48.758 0.043-48.758 0.535-1.095c1.017-2.077 2.615-3.398 4.838-3.998 1.644-0.443 36.606-0.49 38.355-0.052m-107.65 21.682c-1.531 1.064-1.37 3.462 0.278 4.15 0.817 0.342 32.637 0.342 33.454 0 1.6-0.668 1.834-3.19 0.38-4.088-0.804-0.498-33.401-0.557-34.112-0.062m-73.1 0.311c-1.561 0.771-1.415 3.481 0.225 4.175 0.924 0.392 32.923 0.33 33.713-0.065 1.512-0.755 1.512-3.327 0-4.082-0.842-0.421-33.088-0.447-33.938-0.028m144.82 0.634c-1.021 0.936-0.862 2.979 0.285 3.657 0.716 0.422 33.448 0.428 34.163 5e-3 1.366-0.806 1.351-3.238-0.025-4.002-0.306-0.169-3.825-0.214-17.096-0.219l-16.711-6e-3 -0.616 0.565m-72.316 9.766c-0.951 0.384-1.445 1.89-1.001 3.051 0.529 1.386-0.888 1.285 18.003 1.285h16.763l0.532-0.476c1.028-0.917 0.816-3.166-0.354-3.772-0.554-0.286-33.242-0.371-33.943-0.088m-73.174 0.383c-1.407 0.789-1.461 3.412-0.085 4.148 0.74 0.396 33.636 0.319 34.224-0.08 1.271-0.863 1.214-3.168-0.098-3.968-0.644-0.392-33.347-0.489-34.041-0.1m145.07 0.38c-1.293 0.702-1.313 3.071-0.033 3.915 0.576 0.379 33.303 0.52 34.106 0.146 1.444-0.671 1.444-3.472 0-4.144-0.666-0.309-33.497-0.23-34.073 0.083m-71.884 9.717c-2.031 1.238-1.191 4.356 1.173 4.356 1.338 0 2.25-0.942 2.25-2.324 0-1.847-1.889-2.968-3.423-2.032m5.629 0.26c-0.865 0.793-0.93 2.419-0.129 3.255 1.476 1.541 3.987 0.606 3.987-1.483 0-2.095-2.335-3.168-3.858-1.772m7.02-0.305c-2.264 1.117-1.631 4.412 0.844 4.395 0.945-7e-3 1.413-0.211 1.895-0.828 1.463-1.872-0.635-4.604-2.739-3.567m6.262 0.221c-0.793 0.792-0.688 3.312 0.165 3.966 0.198 0.152 2.106 0.204 7.647 0.208l7.382 6e-3 0.409-0.409c0.365-0.365 0.409-0.55 0.407-1.709-5e-3 -2.718 0.547-2.549-8.328-2.549h-7.195l-0.487 0.487m-91.574-0.019c-2.496 0.856-1.925 4.534 0.703 4.531 1.642-1e-3 2.783-1.696 2.149-3.193-0.435-1.029-1.837-1.687-2.852-1.338m5.653 0.094c-0.284 0.129-0.678 0.495-0.875 0.814-1.605 2.597 2.159 5.043 3.875 2.517 1.319-1.94-0.822-4.318-3-3.331m6.054 0.294c-2.191 1.634-0.171 5.22 2.284 4.055 1.653-0.784 1.887-3.039 0.424-4.081-0.646-0.46-2.076-0.446-2.708 0.026m6.637 0.068c-0.637 0.637-0.633 2.803 7e-3 3.563l0.432 0.513h7.392 7.393l0.458-0.394c0.761-0.655 0.798-2.942 0.06-3.734l-0.346-0.372h-7.486-7.486l-0.424 0.424m132.49-0.044c-2.182 1.227-1.315 4.287 1.216 4.287 2.467 0 3.05-3.458 0.748-4.438-0.745-0.318-1.19-0.284-1.964 0.151m-5.998-0.011c-2.153 1.248-1.381 4.362 1.082 4.362 2.359 0 3.208-2.941 1.226-4.248-0.539-0.355-1.785-0.417-2.308-0.114m12.484 0.035c-2.139 0.931-1.609 4.177 0.715 4.38 2.537 0.222 3.582-3.179 1.315-4.277-0.812-0.393-1.308-0.418-2.03-0.103m6.681-0.045c-0.64 0.35-0.75 0.666-0.75 2.154 0 1.179 0.059 1.524 0.319 1.844l0.318 0.393h7.529 7.53l0.418-0.486c0.639-0.743 0.534-3.094-0.165-3.695l-0.468-0.402-7.199 5e-3c-4.888 3e-3 -7.306 0.063-7.532 0.187m-75.849 48.982c-4.206 0.818-5.693 5.749-2.64 8.754 1.842 1.812 4.843 1.894 6.828 0.186 3.851-3.314 0.764-9.903-4.188-8.94m71.79 0.668c-3.791 0.763-5.278 5.73-2.558 8.546 2.422 2.509 6.626 1.967 8.192-1.055 2.046-3.947-1.278-8.367-5.634-7.491m-145.32 0.783c-5.337 2.174-3.871 9.875 1.88 9.875 5.41 0 6.995-7.309 2.104-9.702-1.027-0.503-2.968-0.587-3.984-0.173m113.55 37.71c-2.492 0.376-3.339 0.547-4.917 0.994-0.687 0.195-1.475 0.415-1.75 0.49-1.093 0.295-3.747 1.41-5.217 2.19-2.861 1.52-3.887 2.292-17.866 13.437-0.138 0.109-0.963 0.772-1.834 1.472-2.39 1.923-2.615 2.103-4.458 3.564-1.926 1.526-1.956 1.596-1.06 2.47 0.356 0.347 1.89 1.85 3.408 3.339 3.132 3.075 3.163 3.087 4.444 1.708 0.046-0.05 0.533-0.463 1.083-0.92 0.55-0.456 1.037-0.871 1.083-0.922 0.327-0.364 6.663-5.342 7.834-6.153 0.32-0.223 0.62-0.451 0.666-0.506 0.225-0.273 6.137-4.259 7.291-4.915 0.161-0.092 0.979-0.562 1.817-1.044 8.894-5.121 14.857-6.028 22.089-3.362 1.722 0.635 4.879 2.308 5.303 2.809 0.046 0.055 0.384 0.32 0.75 0.59 7.047 5.194 10.092 14.367 7.775 23.424-2.603 10.173-14.294 17.456-24.895 15.508-5.672-1.042-14.763-6.09-23.463-13.029-5.216-4.16-7.519-6.154-12.683-10.979-0.245-0.229-1.599-1.542-3.009-2.917-5.256-5.126-8.396-8.034-10.453-9.683-0.218-0.174-0.518-0.434-0.667-0.577-0.149-0.144-0.646-0.556-1.105-0.917-0.458-0.361-0.87-0.695-0.916-0.743-0.115-0.118-1.974-1.635-2.755-2.247-0.699-0.548-3.581-2.908-4.245-3.476-0.229-0.196-0.755-0.618-1.167-0.938-0.412-0.319-0.836-0.662-0.941-0.762-1.617-1.537-7.286-4.577-10.699-5.739-19.491-6.633-40.671 4.645-43.818 23.332l-0.295 1.75-47.747 0.084v-4.155-4.155l-0.439-0.345c-0.979-0.77-2.129-0.381-5.143 1.738-14.366 10.098-14.918 10.527-14.918 11.578 0 1.294 0.709 1.97 5.245 5.005 0.205 0.137 0.553 0.378 0.773 0.536 12.116 8.666 12.09 8.65 13.32 8.38 1.147-0.252 1.162-0.317 1.162-4.922v-4.161h23.898 23.897l0.108 0.792c3.045 22.456 29.46 34.089 49.239 21.686 1.407-0.882 5.125-3.627 10.964-8.092 0.263-0.201 1.527-1.162 2.811-2.135 1.283-0.974 2.558-1.945 2.833-2.157 0.742-0.574 2.685-2.045 3.917-2.964 0.595-0.445 1.216-0.919 1.378-1.054 0.163-0.135 0.875-0.668 1.584-1.185 0.708-0.517 1.342-0.987 1.409-1.045s-1.476-1.702-3.429-3.654l-3.551-3.548-1.238 1.032c-0.68 0.567-1.274 1.081-1.32 1.141s-0.796 0.701-1.667 1.425c-0.87 0.723-1.658 1.396-1.75 1.495-0.091 0.1-0.578 0.519-1.081 0.931-0.504 0.412-1.104 0.913-1.334 1.112-0.23 0.2-0.906 0.742-1.501 1.204-17.003 13.178-25.158 15.55-35.539 10.338-9.241-4.641-14.543-16.045-11.656-25.072 0.088-0.275 0.283-0.917 0.433-1.427 3.204-10.881 16.859-17.811 27.787-14.101 2.697 0.916 6.389 2.778 9.641 4.863 5.353 3.431 12.725 8.764 14.167 10.248 0.046 0.047 0.571 0.497 1.167 0.999 0.595 0.502 1.421 1.221 1.833 1.597 0.412 0.377 1.313 1.198 2 1.826 0.688 0.627 2.449 2.271 3.914 3.651 5.307 5.003 9.266 8.549 11.641 10.428 0.173 0.137 0.401 0.328 0.505 0.423 0.312 0.284 6.449 4.954 7.44 5.661 0.835 0.595 5.553 4.074 7.583 5.591 8.716 6.513 17.991 8.997 27.378 7.332 1.828-0.324 6.001-1.54 6.812-1.985 0.171-0.093 0.91-0.45 1.644-0.793 9.112-4.26 15.941-13.566 17.505-23.854l0.107-0.709h20.736 20.735v4.161c0 4.605 0.015 4.67 1.162 4.922 0.818 0.179 3.621-1.2 4.809-2.367 0.122-0.12 0.367-0.295 0.544-0.39s1.427-0.968 2.779-1.941c1.351-0.972 3.918-2.79 5.706-4.04 7.407-5.18 7.391-4.803 0.4-9.812-2.3-1.648-4.511-3.204-4.913-3.457-0.401-0.254-0.83-0.562-0.954-0.685-0.123-0.123-0.279-0.224-0.347-0.224s-0.27-0.137-0.451-0.305c-0.18-0.168-0.55-0.448-0.823-0.624-0.272-0.175-1.32-0.912-2.329-1.638-2.889-2.08-4.173-2.518-5.144-1.754l-0.439 0.345v4.155 4.156l-41.416-0.085-0.194-1.279c-2.545-16.701-19.495-28.607-36.973-25.969"/>
<path d="m192.5 0.101c-4.695 0.138-14.558 0.988-19.167 1.652-0.87 0.125-2.221 0.313-3 0.416-0.779 0.104-1.979 0.288-2.666 0.408-0.688 0.121-1.775 0.308-2.417 0.416-1.165 0.195-2.558 0.455-4.917 0.919-9.933 1.953-21.583 5.31-31.333 9.029-2.797 1.067-8.827 3.537-9.083 3.72-0.092 0.066-0.473 0.238-0.847 0.383-3.41 1.323-15.663 7.578-19.787 10.103-0.617 0.377-1.156 0.686-1.198 0.686-0.128 0-6.562 4.054-8.972 5.654-2.894 1.92-8.263 5.771-10.921 7.833-2.121 1.646-6.544 5.174-6.692 5.338-0.046 0.05-0.608 0.542-1.249 1.092-4.5 3.859-7.409 6.555-11.677 10.824-4.269 4.268-6.965 7.177-10.824 11.677-0.55 0.641-1.041 1.203-1.091 1.249-0.051 0.046-0.937 1.133-1.97 2.417-1.033 1.283-1.983 2.461-2.11 2.618-5.255 6.477-12.437 17.274-17.382 26.132-0.23 0.412-0.566 1.012-0.746 1.333-1.452 2.587-5.168 9.976-6.369 12.667-0.43 0.962-0.933 2.083-1.117 2.49-0.476 1.049-2.94 6.94-3.204 7.66-0.122 0.33-0.407 1.087-0.635 1.683-2.908 7.611-5.381 15.395-7.068 22.25-0.136 0.55-0.434 1.75-0.663 2.667-0.229 0.916-0.485 2.004-0.569 2.416-0.084 0.413-0.269 1.275-0.41 1.917s-0.367 1.729-0.503 2.417c-0.136 0.687-0.358 1.812-0.495 2.5-1.172 5.914-2.176 13.586-2.921 22.333-0.801 9.409-0.562 26.52 0.497 35.583 0.086 0.734 0.239 2.084 0.341 3 1.009 9.054 2.819 18.558 5.398 28.337 0.415 1.574 1.778 6.292 2.189 7.58 0.753 2.359 2.499 7.561 2.825 8.417 0.21 0.55 0.659 1.75 0.998 2.666 0.588 1.588 1.709 4.428 2.171 5.5 0.119 0.275 0.296 0.688 0.395 0.917s0.527 1.242 0.951 2.25c1.343 3.192 1.795 4.17 4.165 9 1.034 2.108 2.308 4.621 2.832 5.583 0.523 0.963 1.212 2.238 1.531 2.834 0.319 0.595 0.636 1.158 0.706 1.25 0.069 0.091 0.332 0.541 0.584 1 0.509 0.927 2.744 4.716 3.812 6.463 1.604 2.623 5.827 8.951 7.448 11.161 1.864 2.54 3.731 5.046 3.819 5.126 0.051 0.045 0.425 0.533 0.831 1.083s0.782 1.037 0.836 1.083c0.055 0.046 0.36 0.421 0.678 0.834 0.319 0.412 0.739 0.937 0.934 1.166 0.195 0.23 1.128 1.355 2.073 2.5 0.946 1.146 1.957 2.346 2.248 2.667 0.292 0.321 1.155 1.296 1.92 2.167 2.544 2.896 10.483 10.992 13.571 13.838 2.062 1.901 5.402 4.821 7.417 6.483 1.146 0.946 2.271 1.879 2.5 2.074s0.754 0.615 1.166 0.934c0.413 0.318 0.788 0.623 0.834 0.678 0.045 0.054 0.533 0.43 1.083 0.836s1.037 0.78 1.083 0.831 0.984 0.757 2.084 1.571c1.1 0.813 2.375 1.759 2.833 2.103 1.168 0.876 3.35 2.364 6.75 4.603 4.245 2.796 4.365 2.872 6.917 4.381 1.283 0.759 2.69 1.595 3.127 1.857 0.437 0.263 0.832 0.477 0.878 0.477 0.047 0 0.396 0.197 0.777 0.438 3.057 1.929 12.616 6.707 18.468 9.229 0.687 0.297 1.55 0.672 1.916 0.834 0.367 0.162 1.079 0.461 1.584 0.664 0.504 0.204 1.066 0.433 1.25 0.51 0.302 0.128 1.57 0.629 3.583 1.415 3.125 1.221 11.188 3.973 13.917 4.751 0.275 0.078 1.137 0.325 1.916 0.547 3.295 0.942 4.093 1.155 7.584 2.019 3.23 0.801 6.131 1.47 7.416 1.713 0.23 0.043 1.167 0.225 2.084 0.404 6.169 1.207 13.566 2.274 19.416 2.801 8.242 0.742 8.379 0.747 19.167 0.747 10.941 0 15.183-0.206 22.5-1.091 0.779-0.094 1.979-0.238 2.667-0.319 7.908-0.938 20.833-3.46 26.833-5.236 0.412-0.123 1.5-0.428 2.417-0.679 0.916-0.251 1.966-0.554 2.333-0.674 0.367-0.119 1.342-0.418 2.167-0.663 1.866-0.556 7.655-2.479 9-2.991 0.55-0.209 1.75-0.658 2.666-0.997 1.942-0.72 9.594-3.877 11.417-4.712 0.688-0.314 1.587-0.725 2-0.913 1.957-0.892 8.329-4.078 10.406-5.204 1.278-0.693 2.345-1.259 2.372-1.259s0.54-0.3 1.139-0.667 1.12-0.667 1.158-0.667c0.079 0 4.33-2.491 5.368-3.146 5.057-3.191 7.37-4.725 11.224-7.443 1.42-1.002 2.695-1.912 2.833-2.023 0.137-0.111 1.45-1.117 2.917-2.237 2.408-1.838 6.874-5.396 7.083-5.642 0.046-0.054 0.571-0.5 1.167-0.992 1.397-1.152 4.244-3.678 6.583-5.839 3.119-2.883 10.672-10.617 13.349-13.67 0.358-0.408 0.764-0.858 0.901-1.001 0.137-0.142 0.812-0.933 1.499-1.758 0.688-0.824 1.296-1.536 1.351-1.582 0.056-0.046 1.184-1.433 2.507-3.083 9.454-11.789 17.149-23.845 23.636-37.028 1.314-2.669 1.882-3.881 3.623-7.718 0.526-1.16 2.812-6.638 3.115-7.463 0.126-0.344 0.428-1.15 0.672-1.791 0.857-2.253 1.138-3.022 2.042-5.584 0.875-2.478 2.1-6.2 2.387-7.25 0.075-0.275 0.36-1.25 0.633-2.166 1.771-5.95 2.789-10.115 4.258-17.417 0.744-3.697 1.774-9.909 2.1-12.667 0.092-0.779 0.277-2.316 0.411-3.416s0.324-2.975 0.422-4.167 0.254-3.029 0.346-4.083c0.354-4.051 0.536-11.568 0.439-18.084-0.156-10.376-0.974-19.723-2.537-29-0.139-0.825-0.327-1.95-0.419-2.5-0.091-0.55-0.276-1.562-0.41-2.25-0.134-0.687-0.354-1.812-0.488-2.5-0.722-3.688-2.186-9.892-3.089-13.083-0.181-0.642-0.477-1.692-0.657-2.333-1.362-4.863-3.545-11.434-5.274-15.874-0.223-0.573-0.586-1.51-0.806-2.084-0.745-1.939-2.645-6.541-2.77-6.709-0.069-0.092-0.307-0.617-0.53-1.167-0.946-2.329-4.814-10.234-6.972-14.246-0.97-1.804-3.547-6.302-4.489-7.837-0.085-0.138-0.543-0.888-1.019-1.667-2.996-4.904-8.26-12.564-11.519-16.762-0.575-0.74-1.27-1.64-1.545-2-0.454-0.593-1.409-1.791-2.117-2.654-1.031-1.257-4.125-4.934-4.542-5.399-0.28-0.311-0.583-0.649-0.675-0.753-0.091-0.103-0.497-0.562-0.902-1.018-2.049-2.312-4.757-5.159-7.763-8.164-3.542-3.54-6.079-5.929-9.483-8.928-0.357-0.315-0.732-0.649-0.833-0.744-0.173-0.16-4.28-3.608-5.019-4.212-1.009-0.826-2.052-1.662-2.434-1.952-0.239-0.182-1.026-0.78-1.75-1.329-0.724-0.55-1.353-1.04-1.399-1.089-0.364-0.393-7.797-5.662-7.987-5.662-0.083 0-0.177-0.06-0.207-0.133-0.076-0.181-6.699-4.534-6.899-4.534-0.053 0-0.335-0.178-0.626-0.396-0.292-0.218-0.846-0.574-1.23-0.792-0.385-0.217-1.318-0.761-2.074-1.208-5.341-3.157-13.394-7.353-18.56-9.671-1.192-0.535-2.542-1.143-3-1.352-0.834-0.38-3.273-1.388-6.25-2.584-10.399-4.176-23.168-7.963-34-10.084-0.688-0.134-1.625-0.32-2.084-0.412-6.252-1.259-15.51-2.435-24.333-3.091-3.351-0.249-16.233-0.441-20.75-0.309m16.583 13.15c5.526 0.279 11.172 0.762 14.631 1.251 0.661 0.094 1.803 0.249 2.536 0.346 1.815 0.239 6.222 0.947 7.75 1.244 6.396 1.246 12.19 2.575 16 3.672 0.779 0.225 1.717 0.49 2.083 0.589 0.367 0.1 0.967 0.28 1.334 0.4 0.366 0.121 1.904 0.605 3.416 1.077 1.513 0.472 3.238 1.035 3.834 1.252 0.595 0.216 1.87 0.671 2.833 1.01 2.324 0.819 8.452 3.233 9.917 3.907 0.641 0.295 1.504 0.671 1.916 0.835 1.27 0.503 5.421 2.475 8.834 4.194 3.063 1.544 4.143 2.114 6.333 3.343 0.504 0.282 1.254 0.702 1.667 0.931 1.044 0.582 5.118 2.986 5.875 3.467 0.343 0.219 0.925 0.585 1.291 0.814 0.367 0.23 0.975 0.621 1.352 0.869 0.377 0.249 0.828 0.53 1.001 0.625 0.603 0.33 6.233 4.179 7.645 5.226 0.78 0.579 1.64 1.216 1.91 1.416 2.45 1.818 6.564 5.041 7.698 6.031 0.105 0.092 0.331 0.279 0.502 0.417 0.486 0.389 2.299 1.907 2.392 2.001 0.046 0.047 0.683 0.609 1.416 1.25 4.99 4.366 11.983 11.274 16.002 15.809 1.188 1.341 3.797 4.364 4.249 4.923 0.321 0.398 0.658 0.808 0.75 0.912 1.076 1.226 5.642 7.081 6.58 8.438 0.222 0.321 0.448 0.621 0.501 0.667 0.249 0.214 5.051 7.203 5.749 8.366 0.094 0.156 0.706 1.131 1.361 2.167 3.968 6.277 12.559 22.395 12.559 23.562 0 0.047 0.216 0.551 0.481 1.12 2.231 4.799 5.887 14.771 7.772 21.201 1.04 3.55 1.679 5.875 2.012 7.334 0.126 0.55 0.338 1.412 0.471 1.916 1.111 4.218 2.73 12.63 3.416 17.75 0.52 3.879 0.677 5.177 0.844 7 0.102 1.1 0.259 2.75 0.35 3.667 1.079 10.83 0.697 28.702-0.848 39.63-0.094 0.662-0.247 1.803-0.341 2.537-0.094 0.733-0.278 1.97-0.407 2.75-0.13 0.779-0.32 1.941-0.422 2.583s-0.288 1.692-0.414 2.333c-0.125 0.642-0.342 1.767-0.482 2.5-1.758 9.199-4.937 20.274-8.515 29.667-0.245 0.642-0.583 1.542-0.752 2-1.807 4.899-8.781 19.758-10.169 21.667-0.067 0.091-0.404 0.691-0.75 1.333-0.345 0.642-1.386 2.441-2.312 3.999-0.926 1.557-1.759 2.96-1.851 3.116-0.091 0.157-0.729 1.159-1.416 2.228-0.688 1.069-1.363 2.122-1.5 2.34-1.142 1.807-5.512 7.93-7.346 10.293-0.772 0.994-1.554 2.011-1.738 2.26-0.707 0.957-5.715 7.02-5.931 7.181-0.062 0.045-0.393 0.42-0.735 0.833-2.876 3.463-12.404 12.999-16.917 16.93-0.413 0.359-0.788 0.696-0.833 0.748-0.046 0.052-1.246 1.055-2.667 2.229s-2.771 2.295-3 2.491c-1.624 1.388-11.348 8.602-11.595 8.602-0.039 0-0.577 0.36-1.196 0.8-1.945 1.383-4.966 3.277-9.542 5.984-5.103 3.017-11.236 6.248-16.167 8.514-2.826 1.299-9.205 4.018-10.792 4.6-0.344 0.125-1.15 0.428-1.791 0.672-2.337 0.889-6.79 2.458-8.334 2.936-6.422 1.99-9.665 2.888-15.083 4.177-3.585 0.852-7.877 1.719-10.667 2.154-0.687 0.107-1.812 0.295-2.5 0.417-0.687 0.122-1.85 0.301-2.583 0.399-3.737 0.499-5.158 0.672-6.833 0.834-1.009 0.097-2.621 0.255-3.584 0.35-8.695 0.856-23.971 0.856-32.666 0-0.963-0.095-2.575-0.253-3.584-0.35-14.731-1.423-31.488-5.4-46-10.917-0.641-0.244-1.44-0.544-1.774-0.667-1.134-0.416-6.452-2.637-8.642-3.608-4.762-2.113-12.078-5.827-15.889-8.067-0.993-0.584-1.831-1.061-1.862-1.061s-0.661-0.375-1.4-0.834c-0.739-0.458-1.387-0.833-1.441-0.833-0.053 0-0.336-0.179-0.628-0.399-0.292-0.219-0.793-0.541-1.114-0.715-0.659-0.359-1.729-1.04-4.5-2.864-1.867-1.23-9.5-6.643-9.666-6.855-0.046-0.058-0.534-0.438-1.084-0.844s-1.037-0.778-1.083-0.826c-0.046-0.049-0.421-0.35-0.833-0.668s-0.899-0.705-1.083-0.859c-0.184-0.153-1.084-0.893-2.001-1.644-9.052-7.411-17.998-16.357-25.409-25.409-0.751-0.917-1.491-1.817-1.644-2.001-0.154-0.184-0.541-0.671-0.859-1.083s-0.619-0.787-0.668-0.833c-0.048-0.046-0.42-0.533-0.826-1.083s-0.785-1.038-0.842-1.084c-0.164-0.132-4.648-6.399-6.022-8.416-2.357-3.462-6.932-10.965-8.741-14.334-0.394-0.733-1.022-1.895-1.395-2.583-0.702-1.291-3.646-7.214-4.391-8.833-0.232-0.505-0.658-1.428-0.945-2.052-0.551-1.194-3.384-7.951-3.752-8.948-0.118-0.321-0.415-1.109-0.659-1.75-2.456-6.458-5.139-15.16-6.681-21.667-0.326-1.375-0.701-2.95-0.835-3.5-0.293-1.208-1.474-7.206-1.738-8.833-0.105-0.642-0.296-1.805-0.426-2.584-0.129-0.779-0.318-2.054-0.419-2.833s-0.285-2.167-0.41-3.083c-0.124-0.917-0.312-2.567-0.416-3.667-0.105-1.1-0.263-2.713-0.351-3.583-0.837-8.254-0.833-23.83 9e-3 -32.334 0.095-0.962 0.253-2.575 0.35-3.583s0.285-2.658 0.418-3.667c0.132-1.008 0.321-2.471 0.42-3.25s0.281-1.979 0.404-2.666c0.124-0.688 0.31-1.813 0.415-2.5 0.105-0.688 0.291-1.738 0.414-2.334s0.345-1.721 0.493-2.5c0.149-0.779 0.339-1.716 0.425-2.083 0.085-0.367 0.388-1.717 0.673-3 0.472-2.126 1.168-4.918 1.994-8.007 0.738-2.757 3.52-11.553 4.138-13.082 0.092-0.226 0.443-1.161 0.782-2.078 1.271-3.442 3.298-8.438 4.349-10.72 0.309-0.671 0.562-1.247 0.562-1.278 0-0.277 4.466-9.276 5.874-11.835 0.504-0.917 1.162-2.117 1.463-2.667 2.438-4.458 7.152-11.894 10.724-16.916 1.043-1.466 4.444-6.02 4.607-6.167 0.05-0.046 0.614-0.758 1.252-1.583 1.127-1.457 4.164-5.15 4.721-5.741 0.152-0.162 0.49-0.548 0.752-0.86 3.597-4.275 11.464-12.236 16.776-16.977 0.87-0.776 1.724-1.526 1.898-1.667 0.174-0.14 0.439-0.368 0.589-0.505 1.595-1.464 5.714-4.765 9.957-7.978 4.249-3.218 10.762-7.617 15.054-10.166 0.504-0.299 1.404-0.842 2-1.207s1.233-0.739 1.416-0.83c0.184-0.092 0.484-0.258 0.668-0.368 0.44-0.265 2.697-1.521 4.166-2.319 3.192-1.736 11.387-5.731 13.298-6.485 0.477-0.188 0.943-0.402 1.035-0.475 0.164-0.131 6.902-2.835 9.5-3.813 5.229-1.967 14.111-4.72 18.917-5.863 4.043-0.961 6.086-1.418 8.916-1.994 5.393-1.097 12.643-2.2 17.5-2.661 1.009-0.096 2.696-0.258 3.75-0.36 6.309-0.613 17.054-0.785 24.75-0.397m-98.25 83.751c-5.045 0.869-9.54 5.179-10.773 10.331-0.377 1.573-0.584 96.144-0.219 99.576 0.631 5.922 4.23 10.204 10.076 11.985 1.163 0.355 1.23 0.356 20.916 0.356h19.75l1.334-0.393c4.755-1.401 7.95-4.487 9.53-9.203l0.47-1.404v-50.25-50.25l-0.458-1.351c-1.72-5.074-5.71-8.59-10.658-9.393-1.241-0.201-38.8-0.205-39.968-4e-3m72.834-0.061c-5.166 0.827-9.175 4.475-10.964 9.976-0.326 1.003-0.534 97.177-0.215 99.607 0.785 5.989 5.732 10.744 11.929 11.467 2.03 0.237 36.152 0.24 38.087 3e-3 6.346-0.775 11.136-5.457 11.986-11.714 0.312-2.304 0.24-96.134-0.077-98.084-0.866-5.341-4.417-9.268-9.996-11.057-0.633-0.203-39.54-0.392-40.75-0.198m72.75 0.509c-6.515 0.931-11.265 5.795-11.93 12.217-0.333 3.208-0.119 97.411 0.223 98.583 1.584 5.422 5.234 8.968 10.455 10.155 1.01 0.23 3.511 0.262 20.451 0.261h19.301l1.5-0.404c4.994-1.347 8.547-4.836 9.852-9.679 0.305-1.131 0.314-2.68 0.314-50.666v-49.5l-0.47-1.404c-1.303-3.892-3.532-6.48-7.139-8.292-0.834-0.419-1.09-0.511-2.807-1.016-0.874-0.256-38.07-0.495-39.75-0.255m-104.88 6.439c1.548 0.767 2.632 1.876 3.469 3.544l0.577 1.15 0.045 48.917c0.03 32.93-0.011 49.179-0.126 49.721-0.489 2.306-2.218 4.264-4.691 5.316l-0.894 0.38h-19-19l-1.276-0.551c-1.631-0.704-3.065-2.072-3.847-3.671l-0.544-1.112-0.043-49.074c-0.048-54.296-0.131-50.101 1.036-51.926 1.006-1.573 3.007-3.011 4.59-3.299 0.23-0.042 8.967-0.067 19.417-0.055l19 0.021 1.287 0.639m71.353-0.472c2.64 0.687 4.741 3.014 5.261 5.826 0.309 1.669 0.247 95.176-0.064 96.642-0.484 2.286-1.967 4.175-4.056 5.168l-1.114 0.53h-19.417-19.417l-0.956-0.448c-2.364-1.108-3.856-2.944-4.293-5.283-0.232-1.244-0.231-95.635 1e-3 -96.871 0.494-2.629 3.003-5.226 5.499-5.691 1.257-0.235 37.627-0.115 38.556 0.127m71.755 0.521c2.246 0.563 3.95 1.945 4.987 4.045l0.618 1.25v48.842 48.842l-0.522 1.083c-0.664 1.377-1.543 2.388-2.759 3.174-1.915 1.237-0.819 1.181-21.886 1.126l-18.833-0.05-1.25-0.622c-1.893-0.943-3.047-2.167-3.762-3.991l-0.406-1.038 0.042-48.758 0.043-48.758 0.535-1.095c1.017-2.077 2.615-3.398 4.838-3.998 1.644-0.443 36.606-0.49 38.355-0.052m-107.65 21.682c-1.531 1.064-1.37 3.462 0.278 4.15 0.817 0.342 32.637 0.342 33.454 0 1.6-0.668 1.834-3.19 0.38-4.088-0.804-0.498-33.401-0.557-34.112-0.062m-73.1 0.311c-1.561 0.771-1.415 3.481 0.225 4.175 0.924 0.392 32.923 0.33 33.713-0.065 1.512-0.755 1.512-3.327 0-4.082-0.842-0.421-33.088-0.447-33.938-0.028m144.82 0.634c-1.021 0.936-0.862 2.979 0.285 3.657 0.716 0.422 33.448 0.428 34.163 5e-3 1.366-0.806 1.351-3.238-0.025-4.002-0.306-0.169-3.825-0.214-17.096-0.219l-16.711-6e-3 -0.616 0.565m-72.316 9.766c-0.951 0.384-1.445 1.89-1.001 3.051 0.529 1.386-0.888 1.285 18.003 1.285h16.763l0.532-0.476c1.028-0.917 0.816-3.166-0.354-3.772-0.554-0.286-33.242-0.371-33.943-0.088m-73.174 0.383c-1.407 0.789-1.461 3.412-0.085 4.148 0.74 0.396 33.636 0.319 34.224-0.08 1.271-0.863 1.214-3.168-0.098-3.968-0.644-0.392-33.347-0.489-34.041-0.1m145.07 0.38c-1.293 0.702-1.313 3.071-0.033 3.915 0.576 0.379 33.303 0.52 34.106 0.146 1.444-0.671 1.444-3.472 0-4.144-0.666-0.309-33.497-0.23-34.073 0.083m-71.884 9.717c-2.031 1.238-1.191 4.356 1.173 4.356 1.338 0 2.25-0.942 2.25-2.324 0-1.847-1.889-2.968-3.423-2.032m5.629 0.26c-0.865 0.793-0.93 2.419-0.129 3.255 1.476 1.541 3.987 0.606 3.987-1.483 0-2.095-2.335-3.168-3.858-1.772m7.02-0.305c-2.264 1.117-1.631 4.412 0.844 4.395 0.945-7e-3 1.413-0.211 1.895-0.828 1.463-1.872-0.635-4.604-2.739-3.567m6.262 0.221c-0.793 0.792-0.688 3.312 0.165 3.966 0.198 0.152 2.106 0.204 7.647 0.208l7.382 6e-3 0.409-0.409c0.365-0.365 0.409-0.55 0.407-1.709-5e-3 -2.718 0.547-2.549-8.328-2.549h-7.195l-0.487 0.487m-91.574-0.019c-2.496 0.856-1.925 4.534 0.703 4.531 1.642-1e-3 2.783-1.696 2.149-3.193-0.435-1.029-1.837-1.687-2.852-1.338m5.653 0.094c-0.284 0.129-0.678 0.495-0.875 0.814-1.605 2.597 2.159 5.043 3.875 2.517 1.319-1.94-0.822-4.318-3-3.331m6.054 0.294c-2.191 1.634-0.171 5.22 2.284 4.055 1.653-0.784 1.887-3.039 0.424-4.081-0.646-0.46-2.076-0.446-2.708 0.026m6.637 0.068c-0.637 0.637-0.633 2.803 7e-3 3.563l0.432 0.513h7.392 7.393l0.458-0.394c0.761-0.655 0.798-2.942 0.06-3.734l-0.346-0.372h-7.486-7.486l-0.424 0.424m132.49-0.044c-2.182 1.227-1.315 4.287 1.216 4.287 2.467 0 3.05-3.458 0.748-4.438-0.745-0.318-1.19-0.284-1.964 0.151m-5.998-0.011c-2.153 1.248-1.381 4.362 1.082 4.362 2.359 0 3.208-2.941 1.226-4.248-0.539-0.355-1.785-0.417-2.308-0.114m12.484 0.035c-2.139 0.931-1.609 4.177 0.715 4.38 2.537 0.222 3.582-3.179 1.315-4.277-0.812-0.393-1.308-0.418-2.03-0.103m6.681-0.045c-0.64 0.35-0.75 0.666-0.75 2.154 0 1.179 0.059 1.524 0.319 1.844l0.318 0.393h7.529 7.53l0.418-0.486c0.639-0.743 0.534-3.094-0.165-3.695l-0.468-0.402-7.199 5e-3c-4.888 3e-3 -7.306 0.063-7.532 0.187m-75.849 48.982c-4.206 0.818-5.693 5.749-2.64 8.754 1.842 1.812 4.843 1.894 6.828 0.186 3.851-3.314 0.764-9.903-4.188-8.94m71.79 0.668c-3.791 0.763-5.278 5.73-2.558 8.546 2.422 2.509 6.626 1.967 8.192-1.055 2.046-3.947-1.278-8.367-5.634-7.491m-145.32 0.783c-5.337 2.174-3.871 9.875 1.88 9.875 5.41 0 6.995-7.309 2.104-9.702-1.027-0.503-2.968-0.587-3.984-0.173m113.55 37.71c-2.492 0.376-3.339 0.547-4.917 0.994-0.687 0.195-1.475 0.415-1.75 0.49-1.093 0.295-3.747 1.41-5.217 2.19-2.861 1.52-3.887 2.292-17.866 13.437-0.138 0.109-0.963 0.772-1.834 1.472-2.39 1.923-2.615 2.103-4.458 3.564-1.926 1.526-1.956 1.596-1.06 2.47 0.356 0.347 1.89 1.85 3.408 3.339 3.132 3.075 3.163 3.087 4.444 1.708 0.046-0.05 0.533-0.463 1.083-0.92 0.55-0.456 1.037-0.871 1.083-0.922 0.327-0.364 6.663-5.342 7.834-6.153 0.32-0.223 0.62-0.451 0.666-0.506 0.225-0.273 6.137-4.259 7.291-4.915 0.161-0.092 0.979-0.562 1.817-1.044 8.894-5.121 14.857-6.028 22.089-3.362 1.722 0.635 4.879 2.308 5.303 2.809 0.046 0.055 0.384 0.32 0.75 0.59 7.047 5.194 10.092 14.367 7.775 23.424-2.603 10.173-14.294 17.456-24.895 15.508-5.672-1.042-14.763-6.09-23.463-13.029-5.216-4.16-7.519-6.154-12.683-10.979-0.245-0.229-1.599-1.542-3.009-2.917-5.256-5.126-8.396-8.034-10.453-9.683-0.218-0.174-0.518-0.434-0.667-0.577-0.149-0.144-0.646-0.556-1.105-0.917-0.458-0.361-0.87-0.695-0.916-0.743-0.115-0.118-1.974-1.635-2.755-2.247-0.699-0.548-3.581-2.908-4.245-3.476-0.229-0.196-0.755-0.618-1.167-0.938-0.412-0.319-0.836-0.662-0.941-0.762-1.617-1.537-7.286-4.577-10.699-5.739-19.491-6.633-40.671 4.645-43.818 23.332l-0.295 1.75-47.747 0.084v-4.155-4.155l-0.439-0.345c-0.979-0.77-2.129-0.381-5.143 1.738-14.366 10.098-14.918 10.527-14.918 11.578 0 1.294 0.709 1.97 5.245 5.005 0.205 0.137 0.553 0.378 0.773 0.536 12.116 8.666 12.09 8.65 13.32 8.38 1.147-0.252 1.162-0.317 1.162-4.922v-4.161h23.898 23.897l0.108 0.792c3.045 22.456 29.46 34.089 49.239 21.686 1.407-0.882 5.125-3.627 10.964-8.092 0.263-0.201 1.527-1.162 2.811-2.135 1.283-0.974 2.558-1.945 2.833-2.157 0.742-0.574 2.685-2.045 3.917-2.964 0.595-0.445 1.216-0.919 1.378-1.054 0.163-0.135 0.875-0.668 1.584-1.185 0.708-0.517 1.342-0.987 1.409-1.045s-1.476-1.702-3.429-3.654l-3.551-3.548-1.238 1.032c-0.68 0.567-1.274 1.081-1.32 1.141s-0.796 0.701-1.667 1.425c-0.87 0.723-1.658 1.396-1.75 1.495-0.091 0.1-0.578 0.519-1.081 0.931-0.504 0.412-1.104 0.913-1.334 1.112-0.23 0.2-0.906 0.742-1.501 1.204-17.003 13.178-25.158 15.55-35.539 10.338-9.241-4.641-14.543-16.045-11.656-25.072 0.088-0.275 0.283-0.917 0.433-1.427 3.204-10.881 16.859-17.811 27.787-14.101 2.697 0.916 6.389 2.778 9.641 4.863 5.353 3.431 12.725 8.764 14.167 10.248 0.046 0.047 0.571 0.497 1.167 0.999 0.595 0.502 1.421 1.221 1.833 1.597 0.412 0.377 1.313 1.198 2 1.826 0.688 0.627 2.449 2.271 3.914 3.651 5.307 5.003 9.266 8.549 11.641 10.428 0.173 0.137 0.401 0.328 0.505 0.423 0.312 0.284 6.449 4.954 7.44 5.661 0.835 0.595 5.553 4.074 7.583 5.591 8.716 6.513 17.991 8.997 27.378 7.332 1.828-0.324 6.001-1.54 6.812-1.985 0.171-0.093 0.91-0.45 1.644-0.793 9.112-4.26 15.941-13.566 17.505-23.854l0.107-0.709h20.736 20.735v4.161c0 4.605 0.015 4.67 1.162 4.922 0.818 0.179 3.621-1.2 4.809-2.367 0.122-0.12 0.367-0.295 0.544-0.39s1.427-0.968 2.779-1.941c1.351-0.972 3.918-2.79 5.706-4.04 7.407-5.18 7.391-4.803 0.4-9.812-2.3-1.648-4.511-3.204-4.913-3.457-0.401-0.254-0.83-0.562-0.954-0.685-0.123-0.123-0.279-0.224-0.347-0.224s-0.27-0.137-0.451-0.305c-0.18-0.168-0.55-0.448-0.823-0.624-0.272-0.175-1.32-0.912-2.329-1.638-2.889-2.08-4.173-2.518-5.144-1.754l-0.439 0.345v4.155 4.156l-41.416-0.085-0.194-1.279c-2.545-16.701-19.495-28.607-36.973-25.969"/>
<path d="m192.5 0.101c-4.695 0.138-14.558 0.988-19.167 1.652-0.87 0.125-2.221 0.313-3 0.416-0.779 0.104-1.979 0.288-2.666 0.408-0.688 0.121-1.775 0.308-2.417 0.416-1.165 0.195-2.558 0.455-4.917 0.919-9.933 1.953-21.583 5.31-31.333 9.029-2.797 1.067-8.827 3.537-9.083 3.72-0.092 0.066-0.473 0.238-0.847 0.383-3.41 1.323-15.663 7.578-19.787 10.103-0.617 0.377-1.156 0.686-1.198 0.686-0.128 0-6.562 4.054-8.972 5.654-2.894 1.92-8.263 5.771-10.921 7.833-2.121 1.646-6.544 5.174-6.692 5.338-0.046 0.05-0.608 0.542-1.249 1.092-4.5 3.859-7.409 6.555-11.677 10.824-4.269 4.268-6.965 7.177-10.824 11.677-0.55 0.641-1.041 1.203-1.091 1.249-0.051 0.046-0.937 1.133-1.97 2.417-1.033 1.283-1.983 2.461-2.11 2.618-5.255 6.477-12.437 17.274-17.382 26.132-0.23 0.412-0.566 1.012-0.746 1.333-1.452 2.587-5.168 9.976-6.369 12.667-0.43 0.962-0.933 2.083-1.117 2.49-0.476 1.049-2.94 6.94-3.204 7.66-0.122 0.33-0.407 1.087-0.635 1.683-2.908 7.611-5.381 15.395-7.068 22.25-0.136 0.55-0.434 1.75-0.663 2.667-0.229 0.916-0.485 2.004-0.569 2.416-0.084 0.413-0.269 1.275-0.41 1.917s-0.367 1.729-0.503 2.417c-0.136 0.687-0.358 1.812-0.495 2.5-1.172 5.914-2.176 13.586-2.921 22.333-0.801 9.409-0.562 26.52 0.497 35.583 0.086 0.734 0.239 2.084 0.341 3 1.009 9.054 2.819 18.558 5.398 28.337 0.415 1.574 1.778 6.292 2.189 7.58 0.753 2.359 2.499 7.561 2.825 8.417 0.21 0.55 0.659 1.75 0.998 2.666 0.588 1.588 1.709 4.428 2.171 5.5 0.119 0.275 0.296 0.688 0.395 0.917s0.527 1.242 0.951 2.25c1.343 3.192 1.795 4.17 4.165 9 1.034 2.108 2.308 4.621 2.832 5.583 0.523 0.963 1.212 2.238 1.531 2.834 0.319 0.595 0.636 1.158 0.706 1.25 0.069 0.091 0.332 0.541 0.584 1 0.509 0.927 2.744 4.716 3.812 6.463 1.604 2.623 5.827 8.951 7.448 11.161 1.864 2.54 3.731 5.046 3.819 5.126 0.051 0.045 0.425 0.533 0.831 1.083s0.782 1.037 0.836 1.083c0.055 0.046 0.36 0.421 0.678 0.834 0.319 0.412 0.739 0.937 0.934 1.166 0.195 0.23 1.128 1.355 2.073 2.5 0.946 1.146 1.957 2.346 2.248 2.667 0.292 0.321 1.155 1.296 1.92 2.167 2.544 2.896 10.483 10.992 13.571 13.838 2.062 1.901 5.402 4.821 7.417 6.483 1.146 0.946 2.271 1.879 2.5 2.074s0.754 0.615 1.166 0.934c0.413 0.318 0.788 0.623 0.834 0.678 0.045 0.054 0.533 0.43 1.083 0.836s1.037 0.78 1.083 0.831 0.984 0.757 2.084 1.571c1.1 0.813 2.375 1.759 2.833 2.103 1.168 0.876 3.35 2.364 6.75 4.603 4.245 2.796 4.365 2.872 6.917 4.381 1.283 0.759 2.69 1.595 3.127 1.857 0.437 0.263 0.832 0.477 0.878 0.477 0.047 0 0.396 0.197 0.777 0.438 3.057 1.929 12.616 6.707 18.468 9.229 0.687 0.297 1.55 0.672 1.916 0.834 0.367 0.162 1.079 0.461 1.584 0.664 0.504 0.204 1.066 0.433 1.25 0.51 0.302 0.128 1.57 0.629 3.583 1.415 3.125 1.221 11.188 3.973 13.917 4.751 0.275 0.078 1.137 0.325 1.916 0.547 3.295 0.942 4.093 1.155 7.584 2.019 3.23 0.801 6.131 1.47 7.416 1.713 0.23 0.043 1.167 0.225 2.084 0.404 6.169 1.207 13.566 2.274 19.416 2.801 8.242 0.742 8.379 0.747 19.167 0.747 10.941 0 15.183-0.206 22.5-1.091 0.779-0.094 1.979-0.238 2.667-0.319 7.908-0.938 20.833-3.46 26.833-5.236 0.412-0.123 1.5-0.428 2.417-0.679 0.916-0.251 1.966-0.554 2.333-0.674 0.367-0.119 1.342-0.418 2.167-0.663 1.866-0.556 7.655-2.479 9-2.991 0.55-0.209 1.75-0.658 2.666-0.997 1.942-0.72 9.594-3.877 11.417-4.712 0.688-0.314 1.587-0.725 2-0.913 1.957-0.892 8.329-4.078 10.406-5.204 1.278-0.693 2.345-1.259 2.372-1.259s0.54-0.3 1.139-0.667 1.12-0.667 1.158-0.667c0.079 0 4.33-2.491 5.368-3.146 5.057-3.191 7.37-4.725 11.224-7.443 1.42-1.002 2.695-1.912 2.833-2.023 0.137-0.111 1.45-1.117 2.917-2.237 2.408-1.838 6.874-5.396 7.083-5.642 0.046-0.054 0.571-0.5 1.167-0.992 1.397-1.152 4.244-3.678 6.583-5.839 3.119-2.883 10.672-10.617 13.349-13.67 0.358-0.408 0.764-0.858 0.901-1.001 0.137-0.142 0.812-0.933 1.499-1.758 0.688-0.824 1.296-1.536 1.351-1.582 0.056-0.046 1.184-1.433 2.507-3.083 9.454-11.789 17.149-23.845 23.636-37.028 1.314-2.669 1.882-3.881 3.623-7.718 0.526-1.16 2.812-6.638 3.115-7.463 0.126-0.344 0.428-1.15 0.672-1.791 0.857-2.253 1.138-3.022 2.042-5.584 0.875-2.478 2.1-6.2 2.387-7.25 0.075-0.275 0.36-1.25 0.633-2.166 1.771-5.95 2.789-10.115 4.258-17.417 0.744-3.697 1.774-9.909 2.1-12.667 0.092-0.779 0.277-2.316 0.411-3.416s0.324-2.975 0.422-4.167 0.254-3.029 0.346-4.083c0.354-4.051 0.536-11.568 0.439-18.084-0.156-10.376-0.974-19.723-2.537-29-0.139-0.825-0.327-1.95-0.419-2.5-0.091-0.55-0.276-1.562-0.41-2.25-0.134-0.687-0.354-1.812-0.488-2.5-0.722-3.688-2.186-9.892-3.089-13.083-0.181-0.642-0.477-1.692-0.657-2.333-1.362-4.863-3.545-11.434-5.274-15.874-0.223-0.573-0.586-1.51-0.806-2.084-0.745-1.939-2.645-6.541-2.77-6.709-0.069-0.092-0.307-0.617-0.53-1.167-0.946-2.329-4.814-10.234-6.972-14.246-0.97-1.804-3.547-6.302-4.489-7.837-0.085-0.138-0.543-0.888-1.019-1.667-2.996-4.904-8.26-12.564-11.519-16.762-0.575-0.74-1.27-1.64-1.545-2-0.454-0.593-1.409-1.791-2.117-2.654-1.031-1.257-4.125-4.934-4.542-5.399-0.28-0.311-0.583-0.649-0.675-0.753-0.091-0.103-0.497-0.562-0.902-1.018-2.049-2.312-4.757-5.159-7.763-8.164-3.542-3.54-6.079-5.929-9.483-8.928-0.357-0.315-0.732-0.649-0.833-0.744-0.173-0.16-4.28-3.608-5.019-4.212-1.009-0.826-2.052-1.662-2.434-1.952-0.239-0.182-1.026-0.78-1.75-1.329-0.724-0.55-1.353-1.04-1.399-1.089-0.364-0.393-7.797-5.662-7.987-5.662-0.083 0-0.177-0.06-0.207-0.133-0.076-0.181-6.699-4.534-6.899-4.534-0.053 0-0.335-0.178-0.626-0.396-0.292-0.218-0.846-0.574-1.23-0.792-0.385-0.217-1.318-0.761-2.074-1.208-5.341-3.157-13.394-7.353-18.56-9.671-1.192-0.535-2.542-1.143-3-1.352-0.834-0.38-3.273-1.388-6.25-2.584-10.399-4.176-23.168-7.963-34-10.084-0.688-0.134-1.625-0.32-2.084-0.412-6.252-1.259-15.51-2.435-24.333-3.091-3.351-0.249-16.233-0.441-20.75-0.309m16.583 13.15c5.526 0.279 11.172 0.762 14.631 1.251 0.661 0.094 1.803 0.249 2.536 0.346 1.815 0.239 6.222 0.947 7.75 1.244 6.396 1.246 12.19 2.575 16 3.672 0.779 0.225 1.717 0.49 2.083 0.589 0.367 0.1 0.967 0.28 1.334 0.4 0.366 0.121 1.904 0.605 3.416 1.077 1.513 0.472 3.238 1.035 3.834 1.252 0.595 0.216 1.87 0.671 2.833 1.01 2.324 0.819 8.452 3.233 9.917 3.907 0.641 0.295 1.504 0.671 1.916 0.835 1.27 0.503 5.421 2.475 8.834 4.194 3.063 1.544 4.143 2.114 6.333 3.343 0.504 0.282 1.254 0.702 1.667 0.931 1.044 0.582 5.118 2.986 5.875 3.467 0.343 0.219 0.925 0.585 1.291 0.814 0.367 0.23 0.975 0.621 1.352 0.869 0.377 0.249 0.828 0.53 1.001 0.625 0.603 0.33 6.233 4.179 7.645 5.226 0.78 0.579 1.64 1.216 1.91 1.416 2.45 1.818 6.564 5.041 7.698 6.031 0.105 0.092 0.331 0.279 0.502 0.417 0.486 0.389 2.299 1.907 2.392 2.001 0.046 0.047 0.683 0.609 1.416 1.25 4.99 4.366 11.983 11.274 16.002 15.809 1.188 1.341 3.797 4.364 4.249 4.923 0.321 0.398 0.658 0.808 0.75 0.912 1.076 1.226 5.642 7.081 6.58 8.438 0.222 0.321 0.448 0.621 0.501 0.667 0.249 0.214 5.051 7.203 5.749 8.366 0.094 0.156 0.706 1.131 1.361 2.167 3.968 6.277 12.559 22.395 12.559 23.562 0 0.047 0.216 0.551 0.481 1.12 2.231 4.799 5.887 14.771 7.772 21.201 1.04 3.55 1.679 5.875 2.012 7.334 0.126 0.55 0.338 1.412 0.471 1.916 1.111 4.218 2.73 12.63 3.416 17.75 0.52 3.879 0.677 5.177 0.844 7 0.102 1.1 0.259 2.75 0.35 3.667 1.079 10.83 0.697 28.702-0.848 39.63-0.094 0.662-0.247 1.803-0.341 2.537-0.094 0.733-0.278 1.97-0.407 2.75-0.13 0.779-0.32 1.941-0.422 2.583s-0.288 1.692-0.414 2.333c-0.125 0.642-0.342 1.767-0.482 2.5-1.758 9.199-4.937 20.274-8.515 29.667-0.245 0.642-0.583 1.542-0.752 2-1.807 4.899-8.781 19.758-10.169 21.667-0.067 0.091-0.404 0.691-0.75 1.333-0.345 0.642-1.386 2.441-2.312 3.999-0.926 1.557-1.759 2.96-1.851 3.116-0.091 0.157-0.729 1.159-1.416 2.228-0.688 1.069-1.363 2.122-1.5 2.34-1.142 1.807-5.512 7.93-7.346 10.293-0.772 0.994-1.554 2.011-1.738 2.26-0.707 0.957-5.715 7.02-5.931 7.181-0.062 0.045-0.393 0.42-0.735 0.833-2.876 3.463-12.404 12.999-16.917 16.93-0.413 0.359-0.788 0.696-0.833 0.748-0.046 0.052-1.246 1.055-2.667 2.229s-2.771 2.295-3 2.491c-1.624 1.388-11.348 8.602-11.595 8.602-0.039 0-0.577 0.36-1.196 0.8-1.945 1.383-4.966 3.277-9.542 5.984-5.103 3.017-11.236 6.248-16.167 8.514-2.826 1.299-9.205 4.018-10.792 4.6-0.344 0.125-1.15 0.428-1.791 0.672-2.337 0.889-6.79 2.458-8.334 2.936-6.422 1.99-9.665 2.888-15.083 4.177-3.585 0.852-7.877 1.719-10.667 2.154-0.687 0.107-1.812 0.295-2.5 0.417-0.687 0.122-1.85 0.301-2.583 0.399-3.737 0.499-5.158 0.672-6.833 0.834-1.009 0.097-2.621 0.255-3.584 0.35-8.695 0.856-23.971 0.856-32.666 0-0.963-0.095-2.575-0.253-3.584-0.35-14.731-1.423-31.488-5.4-46-10.917-0.641-0.244-1.44-0.544-1.774-0.667-1.134-0.416-6.452-2.637-8.642-3.608-4.762-2.113-12.078-5.827-15.889-8.067-0.993-0.584-1.831-1.061-1.862-1.061s-0.661-0.375-1.4-0.834c-0.739-0.458-1.387-0.833-1.441-0.833-0.053 0-0.336-0.179-0.628-0.399-0.292-0.219-0.793-0.541-1.114-0.715-0.659-0.359-1.729-1.04-4.5-2.864-1.867-1.23-9.5-6.643-9.666-6.855-0.046-0.058-0.534-0.438-1.084-0.844s-1.037-0.778-1.083-0.826c-0.046-0.049-0.421-0.35-0.833-0.668s-0.899-0.705-1.083-0.859c-0.184-0.153-1.084-0.893-2.001-1.644-9.052-7.411-17.998-16.357-25.409-25.409-0.751-0.917-1.491-1.817-1.644-2.001-0.154-0.184-0.541-0.671-0.859-1.083s-0.619-0.787-0.668-0.833c-0.048-0.046-0.42-0.533-0.826-1.083s-0.785-1.038-0.842-1.084c-0.164-0.132-4.648-6.399-6.022-8.416-2.357-3.462-6.932-10.965-8.741-14.334-0.394-0.733-1.022-1.895-1.395-2.583-0.702-1.291-3.646-7.214-4.391-8.833-0.232-0.505-0.658-1.428-0.945-2.052-0.551-1.194-3.384-7.951-3.752-8.948-0.118-0.321-0.415-1.109-0.659-1.75-2.456-6.458-5.139-15.16-6.681-21.667-0.326-1.375-0.701-2.95-0.835-3.5-0.293-1.208-1.474-7.206-1.738-8.833-0.105-0.642-0.296-1.805-0.426-2.584-0.129-0.779-0.318-2.054-0.419-2.833s-0.285-2.167-0.41-3.083c-0.124-0.917-0.312-2.567-0.416-3.667-0.105-1.1-0.263-2.713-0.351-3.583-0.837-8.254-0.833-23.83 9e-3 -32.334 0.095-0.962 0.253-2.575 0.35-3.583s0.285-2.658 0.418-3.667c0.132-1.008 0.321-2.471 0.42-3.25s0.281-1.979 0.404-2.666c0.124-0.688 0.31-1.813 0.415-2.5 0.105-0.688 0.291-1.738 0.414-2.334s0.345-1.721 0.493-2.5c0.149-0.779 0.339-1.716 0.425-2.083 0.085-0.367 0.388-1.717 0.673-3 0.472-2.126 1.168-4.918 1.994-8.007 0.738-2.757 3.52-11.553 4.138-13.082 0.092-0.226 0.443-1.161 0.782-2.078 1.271-3.442 3.298-8.438 4.349-10.72 0.309-0.671 0.562-1.247 0.562-1.278 0-0.277 4.466-9.276 5.874-11.835 0.504-0.917 1.162-2.117 1.463-2.667 2.438-4.458 7.152-11.894 10.724-16.916 1.043-1.466 4.444-6.02 4.607-6.167 0.05-0.046 0.614-0.758 1.252-1.583 1.127-1.457 4.164-5.15 4.721-5.741 0.152-0.162 0.49-0.548 0.752-0.86 3.597-4.275 11.464-12.236 16.776-16.977 0.87-0.776 1.724-1.526 1.898-1.667 0.174-0.14 0.439-0.368 0.589-0.505 1.595-1.464 5.714-4.765 9.957-7.978 4.249-3.218 10.762-7.617 15.054-10.166 0.504-0.299 1.404-0.842 2-1.207s1.233-0.739 1.416-0.83c0.184-0.092 0.484-0.258 0.668-0.368 0.44-0.265 2.697-1.521 4.166-2.319 3.192-1.736 11.387-5.731 13.298-6.485 0.477-0.188 0.943-0.402 1.035-0.475 0.164-0.131 6.902-2.835 9.5-3.813 5.229-1.967 14.111-4.72 18.917-5.863 4.043-0.961 6.086-1.418 8.916-1.994 5.393-1.097 12.643-2.2 17.5-2.661 1.009-0.096 2.696-0.258 3.75-0.36 6.309-0.613 17.054-0.785 24.75-0.397m-98.25 83.751c-5.045 0.869-9.54 5.179-10.773 10.331-0.377 1.573-0.584 96.144-0.219 99.576 0.631 5.922 4.23 10.204 10.076 11.985 1.163 0.355 1.23 0.356 20.916 0.356h19.75l1.334-0.393c4.755-1.401 7.95-4.487 9.53-9.203l0.47-1.404v-50.25-50.25l-0.458-1.351c-1.72-5.074-5.71-8.59-10.658-9.393-1.241-0.201-38.8-0.205-39.968-4e-3m72.834-0.061c-5.166 0.827-9.175 4.475-10.964 9.976-0.326 1.003-0.534 97.177-0.215 99.607 0.785 5.989 5.732 10.744 11.929 11.467 2.03 0.237 36.152 0.24 38.087 3e-3 6.346-0.775 11.136-5.457 11.986-11.714 0.312-2.304 0.24-96.134-0.077-98.084-0.866-5.341-4.417-9.268-9.996-11.057-0.633-0.203-39.54-0.392-40.75-0.198m72.75 0.509c-6.515 0.931-11.265 5.795-11.93 12.217-0.333 3.208-0.119 97.411 0.223 98.583 1.584 5.422 5.234 8.968 10.455 10.155 1.01 0.23 3.511 0.262 20.451 0.261h19.301l1.5-0.404c4.994-1.347 8.547-4.836 9.852-9.679 0.305-1.131 0.314-2.68 0.314-50.666v-49.5l-0.47-1.404c-1.303-3.892-3.532-6.48-7.139-8.292-0.834-0.419-1.09-0.511-2.807-1.016-0.874-0.256-38.07-0.495-39.75-0.255m-104.88 6.439c1.548 0.767 2.632 1.876 3.469 3.544l0.577 1.15 0.045 48.917c0.03 32.93-0.011 49.179-0.126 49.721-0.489 2.306-2.218 4.264-4.691 5.316l-0.894 0.38h-19-19l-1.276-0.551c-1.631-0.704-3.065-2.072-3.847-3.671l-0.544-1.112-0.043-49.074c-0.048-54.296-0.131-50.101 1.036-51.926 1.006-1.573 3.007-3.011 4.59-3.299 0.23-0.042 8.967-0.067 19.417-0.055l19 0.021 1.287 0.639m71.353-0.472c2.64 0.687 4.741 3.014 5.261 5.826 0.309 1.669 0.247 95.176-0.064 96.642-0.484 2.286-1.967 4.175-4.056 5.168l-1.114 0.53h-19.417-19.417l-0.956-0.448c-2.364-1.108-3.856-2.944-4.293-5.283-0.232-1.244-0.231-95.635 1e-3 -96.871 0.494-2.629 3.003-5.226 5.499-5.691 1.257-0.235 37.627-0.115 38.556 0.127m71.755 0.521c2.246 0.563 3.95 1.945 4.987 4.045l0.618 1.25v48.842 48.842l-0.522 1.083c-0.664 1.377-1.543 2.388-2.759 3.174-1.915 1.237-0.819 1.181-21.886 1.126l-18.833-0.05-1.25-0.622c-1.893-0.943-3.047-2.167-3.762-3.991l-0.406-1.038 0.042-48.758 0.043-48.758 0.535-1.095c1.017-2.077 2.615-3.398 4.838-3.998 1.644-0.443 36.606-0.49 38.355-0.052m-107.65 21.682c-1.531 1.064-1.37 3.462 0.278 4.15 0.817 0.342 32.637 0.342 33.454 0 1.6-0.668 1.834-3.19 0.38-4.088-0.804-0.498-33.401-0.557-34.112-0.062m-73.1 0.311c-1.561 0.771-1.415 3.481 0.225 4.175 0.924 0.392 32.923 0.33 33.713-0.065 1.512-0.755 1.512-3.327 0-4.082-0.842-0.421-33.088-0.447-33.938-0.028m144.82 0.634c-1.021 0.936-0.862 2.979 0.285 3.657 0.716 0.422 33.448 0.428 34.163 5e-3 1.366-0.806 1.351-3.238-0.025-4.002-0.306-0.169-3.825-0.214-17.096-0.219l-16.711-6e-3 -0.616 0.565m-72.316 9.766c-0.951 0.384-1.445 1.89-1.001 3.051 0.529 1.386-0.888 1.285 18.003 1.285h16.763l0.532-0.476c1.028-0.917 0.816-3.166-0.354-3.772-0.554-0.286-33.242-0.371-33.943-0.088m-73.174 0.383c-1.407 0.789-1.461 3.412-0.085 4.148 0.74 0.396 33.636 0.319 34.224-0.08 1.271-0.863 1.214-3.168-0.098-3.968-0.644-0.392-33.347-0.489-34.041-0.1m145.07 0.38c-1.293 0.702-1.313 3.071-0.033 3.915 0.576 0.379 33.303 0.52 34.106 0.146 1.444-0.671 1.444-3.472 0-4.144-0.666-0.309-33.497-0.23-34.073 0.083m-71.884 9.717c-2.031 1.238-1.191 4.356 1.173 4.356 1.338 0 2.25-0.942 2.25-2.324 0-1.847-1.889-2.968-3.423-2.032m5.629 0.26c-0.865 0.793-0.93 2.419-0.129 3.255 1.476 1.541 3.987 0.606 3.987-1.483 0-2.095-2.335-3.168-3.858-1.772m7.02-0.305c-2.264 1.117-1.631 4.412 0.844 4.395 0.945-7e-3 1.413-0.211 1.895-0.828 1.463-1.872-0.635-4.604-2.739-3.567m6.262 0.221c-0.793 0.792-0.688 3.312 0.165 3.966 0.198 0.152 2.106 0.204 7.647 0.208l7.382 6e-3 0.409-0.409c0.365-0.365 0.409-0.55 0.407-1.709-5e-3 -2.718 0.547-2.549-8.328-2.549h-7.195l-0.487 0.487m-91.574-0.019c-2.496 0.856-1.925 4.534 0.703 4.531 1.642-1e-3 2.783-1.696 2.149-3.193-0.435-1.029-1.837-1.687-2.852-1.338m5.653 0.094c-0.284 0.129-0.678 0.495-0.875 0.814-1.605 2.597 2.159 5.043 3.875 2.517 1.319-1.94-0.822-4.318-3-3.331m6.054 0.294c-2.191 1.634-0.171 5.22 2.284 4.055 1.653-0.784 1.887-3.039 0.424-4.081-0.646-0.46-2.076-0.446-2.708 0.026m6.637 0.068c-0.637 0.637-0.633 2.803 7e-3 3.563l0.432 0.513h7.392 7.393l0.458-0.394c0.761-0.655 0.798-2.942 0.06-3.734l-0.346-0.372h-7.486-7.486l-0.424 0.424m132.49-0.044c-2.182 1.227-1.315 4.287 1.216 4.287 2.467 0 3.05-3.458 0.748-4.438-0.745-0.318-1.19-0.284-1.964 0.151m-5.998-0.011c-2.153 1.248-1.381 4.362 1.082 4.362 2.359 0 3.208-2.941 1.226-4.248-0.539-0.355-1.785-0.417-2.308-0.114m12.484 0.035c-2.139 0.931-1.609 4.177 0.715 4.38 2.537 0.222 3.582-3.179 1.315-4.277-0.812-0.393-1.308-0.418-2.03-0.103m6.681-0.045c-0.64 0.35-0.75 0.666-0.75 2.154 0 1.179 0.059 1.524 0.319 1.844l0.318 0.393h7.529 7.53l0.418-0.486c0.639-0.743 0.534-3.094-0.165-3.695l-0.468-0.402-7.199 5e-3c-4.888 3e-3 -7.306 0.063-7.532 0.187m-75.849 48.982c-4.206 0.818-5.693 5.749-2.64 8.754 1.842 1.812 4.843 1.894 6.828 0.186 3.851-3.314 0.764-9.903-4.188-8.94m71.79 0.668c-3.791 0.763-5.278 5.73-2.558 8.546 2.422 2.509 6.626 1.967 8.192-1.055 2.046-3.947-1.278-8.367-5.634-7.491m-145.32 0.783c-5.337 2.174-3.871 9.875 1.88 9.875 5.41 0 6.995-7.309 2.104-9.702-1.027-0.503-2.968-0.587-3.984-0.173m113.55 37.71c-2.492 0.376-3.339 0.547-4.917 0.994-0.687 0.195-1.475 0.415-1.75 0.49-1.093 0.295-3.747 1.41-5.217 2.19-2.861 1.52-3.887 2.292-17.866 13.437-0.138 0.109-0.963 0.772-1.834 1.472-2.39 1.923-2.615 2.103-4.458 3.564-1.926 1.526-1.956 1.596-1.06 2.47 0.356 0.347 1.89 1.85 3.408 3.339 3.132 3.075 3.163 3.087 4.444 1.708 0.046-0.05 0.533-0.463 1.083-0.92 0.55-0.456 1.037-0.871 1.083-0.922 0.327-0.364 6.663-5.342 7.834-6.153 0.32-0.223 0.62-0.451 0.666-0.506 0.225-0.273 6.137-4.259 7.291-4.915 0.161-0.092 0.979-0.562 1.817-1.044 8.894-5.121 14.857-6.028 22.089-3.362 1.722 0.635 4.879 2.308 5.303 2.809 0.046 0.055 0.384 0.32 0.75 0.59 7.047 5.194 10.092 14.367 7.775 23.424-2.603 10.173-14.294 17.456-24.895 15.508-5.672-1.042-14.763-6.09-23.463-13.029-5.216-4.16-7.519-6.154-12.683-10.979-0.245-0.229-1.599-1.542-3.009-2.917-5.256-5.126-8.396-8.034-10.453-9.683-0.218-0.174-0.518-0.434-0.667-0.577-0.149-0.144-0.646-0.556-1.105-0.917-0.458-0.361-0.87-0.695-0.916-0.743-0.115-0.118-1.974-1.635-2.755-2.247-0.699-0.548-3.581-2.908-4.245-3.476-0.229-0.196-0.755-0.618-1.167-0.938-0.412-0.319-0.836-0.662-0.941-0.762-1.617-1.537-7.286-4.577-10.699-5.739-19.491-6.633-40.671 4.645-43.818 23.332l-0.295 1.75-47.747 0.084v-4.155-4.155l-0.439-0.345c-0.979-0.77-2.129-0.381-5.143 1.738-14.366 10.098-14.918 10.527-14.918 11.578 0 1.294 0.709 1.97 5.245 5.005 0.205 0.137 0.553 0.378 0.773 0.536 12.116 8.666 12.09 8.65 13.32 8.38 1.147-0.252 1.162-0.317 1.162-4.922v-4.161h23.898 23.897l0.108 0.792c3.045 22.456 29.46 34.089 49.239 21.686 1.407-0.882 5.125-3.627 10.964-8.092 0.263-0.201 1.527-1.162 2.811-2.135 1.283-0.974 2.558-1.945 2.833-2.157 0.742-0.574 2.685-2.045 3.917-2.964 0.595-0.445 1.216-0.919 1.378-1.054 0.163-0.135 0.875-0.668 1.584-1.185 0.708-0.517 1.342-0.987 1.409-1.045s-1.476-1.702-3.429-3.654l-3.551-3.548-1.238 1.032c-0.68 0.567-1.274 1.081-1.32 1.141s-0.796 0.701-1.667 1.425c-0.87 0.723-1.658 1.396-1.75 1.495-0.091 0.1-0.578 0.519-1.081 0.931-0.504 0.412-1.104 0.913-1.334 1.112-0.23 0.2-0.906 0.742-1.501 1.204-17.003 13.178-25.158 15.55-35.539 10.338-9.241-4.641-14.543-16.045-11.656-25.072 0.088-0.275 0.283-0.917 0.433-1.427 3.204-10.881 16.859-17.811 27.787-14.101 2.697 0.916 6.389 2.778 9.641 4.863 5.353 3.431 12.725 8.764 14.167 10.248 0.046 0.047 0.571 0.497 1.167 0.999 0.595 0.502 1.421 1.221 1.833 1.597 0.412 0.377 1.313 1.198 2 1.826 0.688 0.627 2.449 2.271 3.914 3.651 5.307 5.003 9.266 8.549 11.641 10.428 0.173 0.137 0.401 0.328 0.505 0.423 0.312 0.284 6.449 4.954 7.44 5.661 0.835 0.595 5.553 4.074 7.583 5.591 8.716 6.513 17.991 8.997 27.378 7.332 1.828-0.324 6.001-1.54 6.812-1.985 0.171-0.093 0.91-0.45 1.644-0.793 9.112-4.26 15.941-13.566 17.505-23.854l0.107-0.709h20.736 20.735v4.161c0 4.605 0.015 4.67 1.162 4.922 0.818 0.179 3.621-1.2 4.809-2.367 0.122-0.12 0.367-0.295 0.544-0.39s1.427-0.968 2.779-1.941c1.351-0.972 3.918-2.79 5.706-4.04 7.407-5.18 7.391-4.803 0.4-9.812-2.3-1.648-4.511-3.204-4.913-3.457-0.401-0.254-0.83-0.562-0.954-0.685-0.123-0.123-0.279-0.224-0.347-0.224s-0.27-0.137-0.451-0.305c-0.18-0.168-0.55-0.448-0.823-0.624-0.272-0.175-1.32-0.912-2.329-1.638-2.889-2.08-4.173-2.518-5.144-1.754l-0.439 0.345v4.155 4.156l-41.416-0.085-0.194-1.279c-2.545-16.701-19.495-28.607-36.973-25.969"/>
</g>
</svg>
