<svg version="1.1" viewBox="0 0 400 400" width="400" height="400" xmlns="http://www.w3.org/2000/svg">
<g fill="#fff" fill-rule="evenodd">
<path d="m191.67 0.103c-4.789 0.158-13.77 0.958-18.5 1.647-0.871 0.127-2.221 0.316-3 0.419-0.78 0.104-1.979 0.288-2.667 0.408-0.687 0.121-1.775 0.309-2.417 0.417-9.17 1.552-20.3 4.396-29.166 7.454-0.917 0.316-1.93 0.653-2.25 0.748-0.321 0.095-1.221 0.419-2 0.72-0.78 0.3-2.354 0.899-3.5 1.33-2.267 0.853-6.89 2.752-8.75 3.594-0.642 0.291-1.505 0.68-1.917 0.866-8.445 3.795-18.787 9.443-25.833 14.109-1.33 0.88-2.482 1.628-2.562 1.663-0.134 0.058-3.191 2.164-4.087 2.815-0.22 0.16-0.568 0.403-0.775 0.54-2.045 1.363-11.205 8.378-11.743 8.993-0.046 0.052-0.496 0.431-1 0.84-1.152 0.936-4.455 3.808-5.667 4.927-0.504 0.465-1.554 1.435-2.333 2.156-1.83 1.692-8.059 7.921-9.751 9.751-0.721 0.779-1.691 1.829-2.156 2.333-1.119 1.212-3.991 4.515-4.927 5.667-0.409 0.504-0.788 0.954-0.84 1-0.615 0.538-7.63 9.698-8.993 11.743-0.137 0.207-0.38 0.555-0.54 0.775-0.651 0.896-2.757 3.953-2.815 4.087-0.035 0.08-0.783 1.232-1.663 2.562-4.666 7.046-10.314 17.388-14.109 25.833-0.186 0.412-0.575 1.275-0.866 1.917-0.842 1.86-2.741 6.483-3.594 8.75-0.431 1.146-1.03 2.72-1.33 3.5-0.301 0.779-0.625 1.679-0.72 2-0.095 0.32-0.432 1.333-0.748 2.25-3.041 8.817-5.863 19.843-7.443 29.083-0.473 2.764-0.678 4.034-0.823 5.083-0.088 0.642-0.277 1.992-0.418 3-0.559 3.987-0.858 6.873-1.38 13.334-0.408 5.036-0.408 22.13 0 27.166 0.624 7.728 1.363 14.088 2.207 19 0.49 2.853 0.578 3.343 0.979 5.417 0.221 1.146 0.436 2.271 0.479 2.5 0.398 2.153 2.097 9.31 2.69 11.333 0.121 0.413 0.425 1.5 0.674 2.417 0.534 1.958 1.166 4.1 1.623 5.5 0.179 0.55 0.462 1.45 0.629 2 0.267 0.878 2.114 6.189 2.778 7.987 1.551 4.197 3.767 9.503 6.095 14.596 2.761 6.042 7.423 14.651 11.471 21.185 1.914 3.091 7.253 11.001 8.408 12.457 0.119 0.151 1.061 1.4 2.093 2.775 1.031 1.375 2.07 2.728 2.308 3.006 0.237 0.278 0.657 0.796 0.932 1.15 0.481 0.618 1.306 1.643 1.889 2.345 1.404 1.69 2.941 3.515 3.017 3.582 0.052 0.046 0.617 0.684 1.257 1.417s1.508 1.708 1.93 2.167c0.422 0.458 1.318 1.433 1.991 2.166 1.567 1.709 7.82 7.962 9.666 9.666 2.149 1.984 2.798 2.571 4.25 3.838 0.733 0.639 1.371 1.203 1.417 1.251 0.045 0.049 0.795 0.684 1.666 1.412s1.621 1.365 1.667 1.415 0.908 0.75 1.917 1.557c1.008 0.806 1.947 1.559 2.087 1.672s0.703 0.539 1.25 0.947c0.548 0.409 1.091 0.832 1.206 0.941 0.116 0.109 0.866 0.668 1.667 1.242s1.494 1.089 1.54 1.144c0.18 0.217 6.232 4.388 8.75 6.029 8.775 5.723 17.758 10.629 27.166 14.84 0.825 0.369 1.896 0.85 2.38 1.067 0.484 0.218 0.919 0.396 0.966 0.396 0.046 0 0.588 0.236 1.203 0.523 0.615 0.288 1.568 0.692 2.118 0.898 0.55 0.205 2.275 0.863 3.833 1.461 5.936 2.28 9.151 3.361 15.917 5.352 6.983 2.055 17.625 4.417 24.083 5.347 1.009 0.145 2.284 0.332 2.834 0.416 4.062 0.619 8.376 1.074 15.333 1.619 5.208 0.408 21.436 0.406 26.5-2e-3 8.951-0.722 11.296-0.989 18.833-2.14 3.065-0.468 9.521-1.718 12.417-2.405 2.976-0.706 6.543-1.587 7.417-1.832 8.572-2.408 15.818-4.808 21.862-7.242 0.718-0.289 1.679-0.677 2.138-0.862 0.458-0.185 1.229-0.516 1.713-0.735s0.913-0.398 0.953-0.398c0.08 0 1.375-0.575 3.042-1.349 0.574-0.266 1.074-0.484 1.112-0.484 0.241 0 9.27-4.442 11.18-5.5 0.458-0.254 1.32-0.722 1.916-1.041 1.65-0.883 4.769-2.659 6.167-3.511 0.688-0.419 1.662-1.002 2.167-1.295 2.54-1.478 9.763-6.307 12.937-8.65 0.561-0.414 1.642-1.203 2.402-1.753s1.464-1.075 1.563-1.167c0.1-0.092 0.631-0.499 1.181-0.906 0.55-0.406 1.037-0.781 1.083-0.834 0.046-0.052 0.384-0.319 0.75-0.592 0.732-0.544 6.616-5.413 6.75-5.584 0.046-0.059 0.684-0.623 1.417-1.254s1.671-1.46 2.083-1.844c0.413-0.383 1.425-1.322 2.25-2.087 1.935-1.794 7.772-7.631 9.566-9.566 0.765-0.825 1.704-1.837 2.087-2.25 0.384-0.412 1.213-1.35 1.844-2.083s1.195-1.371 1.254-1.417c0.171-0.134 5.04-6.018 5.584-6.75 0.273-0.366 0.54-0.704 0.592-0.75 0.053-0.046 0.428-0.533 0.834-1.083 0.407-0.55 0.814-1.081 0.906-1.181 0.092-0.099 0.617-0.803 1.167-1.563s1.339-1.841 1.753-2.402c2.343-3.174 7.172-10.397 8.65-12.937 0.293-0.505 0.876-1.479 1.295-2.167 0.852-1.398 2.628-4.517 3.511-6.167 0.319-0.596 0.787-1.458 1.041-1.916 1.058-1.91 5.5-10.939 5.5-11.18 0-0.038 0.218-0.538 0.484-1.112 0.774-1.667 1.349-2.962 1.349-3.042 0-0.04 0.179-0.469 0.398-0.953s0.55-1.255 0.735-1.713c0.185-0.459 0.573-1.42 0.862-2.138 2.434-6.044 4.834-13.29 7.242-21.862 0.245-0.874 1.126-4.441 1.832-7.417 0.713-3.007 1.981-9.577 2.429-12.583 0.109-0.734 0.3-1.971 0.423-2.75 0.124-0.78 0.31-2.13 0.414-3 0.104-0.871 0.255-2.071 0.337-2.667 0.177-1.292 0.536-5.218 0.937-10.25 0.417-5.221 0.421-21.197 7e-3 -26.5-0.528-6.749-1.125-12.424-1.621-15.417-0.084-0.504-0.271-1.741-0.415-2.75-0.446-3.11-1.659-9.407-2.572-13.349-0.776-3.352-2.034-8.219-2.774-10.734-1.991-6.766-3.072-9.981-5.352-15.917-0.598-1.558-1.257-3.285-1.463-3.838-0.206-0.554-0.572-1.423-0.814-1.933-0.241-0.51-0.438-0.971-0.438-1.025 0-0.053-0.216-0.571-0.48-1.15-0.264-0.58-0.782-1.729-1.151-2.554-4.202-9.402-9.092-18.353-14.839-27.166-1.641-2.518-5.812-8.57-6.029-8.75-0.055-0.046-0.57-0.739-1.144-1.54s-1.133-1.551-1.242-1.667c-0.109-0.115-0.532-0.658-0.941-1.206-0.408-0.547-0.834-1.11-0.947-1.25s-0.866-1.079-1.672-2.087c-0.807-1.009-1.507-1.871-1.557-1.917s-0.687-0.796-1.415-1.667-1.363-1.621-1.412-1.666c-0.048-0.046-0.612-0.684-1.251-1.417-1.267-1.452-1.854-2.101-3.838-4.25-1.704-1.846-7.957-8.099-9.666-9.666-0.733-0.673-1.708-1.569-2.166-1.991-0.459-0.422-1.434-1.29-2.167-1.93s-1.371-1.205-1.417-1.257c-0.067-0.076-1.892-1.613-3.582-3.017-0.702-0.583-1.727-1.408-2.345-1.889-0.354-0.275-0.872-0.695-1.15-0.932-0.278-0.238-1.631-1.277-3.006-2.308-1.375-1.032-2.624-1.974-2.775-2.093-1.456-1.155-9.366-6.494-12.457-8.408-6.535-4.049-15.185-8.733-21.185-11.47-5.533-2.526-10.127-4.444-14.596-6.096-1.798-0.664-7.109-2.511-7.987-2.778-0.55-0.167-1.45-0.45-2-0.629-1.4-0.457-3.542-1.089-5.5-1.623-0.917-0.249-2.004-0.553-2.417-0.674-2.744-0.805-9.376-2.326-13.75-3.154-8.704-1.648-14.485-2.402-24.416-3.184-3.11-0.245-17.636-0.441-22-0.298m20.166 13.222c0.963 0.088 2.763 0.24 4 0.337 6.593 0.515 14.588 1.615 20 2.753 0.596 0.125 1.571 0.317 2.167 0.426s1.458 0.294 1.917 0.41c0.458 0.116 1.283 0.307 1.833 0.424 2.033 0.431 6.797 1.662 10.083 2.605 0.779 0.223 1.904 0.545 2.5 0.714 1.192 0.339 8.336 2.703 9 2.979 0.23 0.095 1.054 0.409 1.834 0.699 1.726 0.641 7.828 3.078 8.75 3.494 0.366 0.165 1.454 0.652 2.416 1.08 12.348 5.501 24.814 12.849 35.75 21.074 1.284 0.965 2.446 1.847 2.584 1.96 0.137 0.112 0.737 0.587 1.333 1.054s1.277 1.014 1.514 1.216 0.757 0.629 1.154 0.95c7.208 5.81 15.909 14.298 22.98 22.417 0.24 0.275 0.811 0.949 1.269 1.499 0.458 0.549 0.908 1.082 1 1.185 0.091 0.102 0.366 0.44 0.611 0.751 0.244 0.31 1.018 1.277 1.719 2.148s1.364 1.696 1.473 1.833c3.008 3.781 7.989 10.93 11.148 16 1.312 2.107 3.632 6.004 3.632 6.103 0 0.039 0.174 0.35 0.388 0.692 0.362 0.581 1.017 1.769 2.411 4.372 0.32 0.596 1.274 2.472 2.121 4.168 1.356 2.719 1.919 3.909 3.696 7.827 0.522 1.152 2.81 6.632 3.116 7.464 0.126 0.343 0.64 1.712 1.141 3.041 1.693 4.482 4.332 12.755 5.343 16.75 0.14 0.55 0.375 1.45 0.523 2 0.984 3.658 2.572 11.223 3.252 15.5 0.488 3.064 0.674 4.299 0.828 5.5 0.678 5.275 0.791 6.387 1.295 12.667 0.402 5.009 0.4 20.194-3e-3 25.166-0.777 9.591-1.39 14.336-2.951 22.834-0.557 3.029-1.892 8.951-2.556 11.333-0.128 0.458-0.326 1.208-0.441 1.667-1.069 4.282-4.3 14.257-5.991 18.5-3.155 7.914-6.736 15.785-9.294 20.429-0.274 0.497-0.86 1.579-1.302 2.404-0.441 0.825-1.089 1.97-1.439 2.545-0.351 0.574-0.637 1.081-0.637 1.126 0 0.046-0.375 0.681-0.833 1.412-0.459 0.732-0.834 1.371-0.834 1.421 0 0.113-2.035 3.343-4.147 6.579-1.572 2.411-4.553 6.651-6.209 8.834-2.933 3.865-3.198 4.205-4.946 6.333-0.49 0.596-1.013 1.233-1.163 1.417-0.582 0.712-2.94 3.504-3.027 3.583-0.05 0.046-0.384 0.421-0.743 0.833-3.738 4.303-11.962 12.527-16.265 16.265-0.412 0.359-0.787 0.693-0.833 0.743-0.079 0.087-2.871 2.445-3.583 3.027-0.184 0.15-0.821 0.673-1.417 1.163-2.128 1.748-2.468 2.013-6.333 4.946-2.183 1.656-6.423 4.637-8.834 6.209-3.236 2.112-6.466 4.147-6.579 4.147-0.05 0-0.689 0.375-1.421 0.834-0.731 0.458-1.366 0.833-1.412 0.833-0.045 0-0.552 0.286-1.126 0.637-0.575 0.35-1.72 0.998-2.545 1.439-0.825 0.442-1.901 1.024-2.391 1.294s-1.99 1.039-3.333 1.71c-5.644 2.818-10.161 4.822-17.109 7.592-4.243 1.691-14.218 4.922-18.5 5.991-0.459 0.115-1.209 0.313-1.667 0.441-6.32 1.761-16.358 3.628-24.917 4.636-8 0.941-12.029 1.155-21.833 1.155-9.626 0-14.883-0.277-21.917-1.155-4.446-0.555-4.693-0.59-8.833-1.249-10.723-1.705-23.93-5.221-34.25-9.118-1.329-0.501-2.698-1.015-3.041-1.141-0.832-0.306-6.312-2.594-7.464-3.116-3.918-1.777-5.108-2.34-7.827-3.696-1.696-0.847-3.572-1.801-4.168-2.121-2.603-1.394-3.791-2.049-4.372-2.411-0.342-0.214-0.652-0.388-0.69-0.388-0.249 0-7-4.157-10.521-6.479-5.025-3.313-12.61-8.924-15.688-11.604-0.106-0.092-0.332-0.28-0.504-0.417-5.729-4.595-14.841-13.395-20.54-19.836-0.769-0.87-1.596-1.806-1.838-2.081s-0.963-1.137-1.601-1.916c-0.638-0.78-1.236-1.501-1.328-1.603-0.28-0.309-1.181-1.419-2.081-2.564-0.469-0.596-0.943-1.196-1.053-1.334-10.731-13.416-21.143-32.08-27.612-49.499-0.29-0.78-0.603-1.602-0.696-1.829-0.271-0.66-2.639-7.817-2.979-9.005-0.171-0.596-0.494-1.721-0.717-2.5-0.943-3.286-2.174-8.05-2.605-10.083-0.117-0.55-0.308-1.375-0.424-1.833-0.116-0.459-0.301-1.321-0.41-1.917s-0.301-1.571-0.426-2.167c-0.945-4.494-2.046-12.084-2.576-17.75-0.677-7.229-0.736-8.688-0.738-18.083-2e-3 -11.033 0.248-15.051 1.58-25.417 0.9-6.999 2.962-17.053 5.008-24.416 0.958-3.449 3.711-12.118 4.286-13.5 0.096-0.229 0.513-1.327 0.928-2.44 2.474-6.641 7.05-16.797 9.826-21.81 0.203-0.367 0.634-1.154 0.958-1.75 0.526-0.967 2.797-4.977 3.228-5.698 0.093-0.155 0.42-0.712 0.729-1.239 0.308-0.527 1.32-2.149 2.25-3.605 0.929-1.456 1.764-2.775 1.856-2.931 1.042-1.781 7.935-11.267 9.902-13.629 0.237-0.284 0.544-0.66 0.681-0.834 5.44-6.892 14.691-16.554 22.084-23.064 0.55-0.485 1.225-1.078 1.5-1.318 0.559-0.488 4.321-3.627 4.814-4.016 0.174-0.137 0.55-0.444 0.834-0.681 4.335-3.61 14.747-10.844 20.154-14.003 0.533-0.311 1.095-0.641 1.25-0.734 0.721-0.431 4.731-2.702 5.698-3.228 0.596-0.324 1.383-0.755 1.75-0.958 5.013-2.776 15.169-7.352 21.81-9.826 1.113-0.415 2.211-0.832 2.44-0.928 0.493-0.205 7.703-2.591 9.5-3.144 7.963-2.448 20.17-5.09 28.416-6.15 4.706-0.605 5.234-0.66 11.5-1.203 5.341-0.464 21.354-0.559 25.75-0.153m-92.5 100.68v37h27.75 27.75v-6.25-6.25h-20.666-20.667v-9.25-9.25h18 18v-6.25-6.25h-18-18v-9.083-9.084h20 20v-6.166-6.167h-27.083-27.084v37m61.5-30.667v6.334h11.5 11.5v30.666 30.667h7.167 7.167v-30.667-30.666h11.5 11.5v-6.334-6.333h-30.167-30.167v6.333m70.167 30.667v37h23.083 23.084v-6.5-6.5h-15.917-15.917v-30.5-30.5h-7.166-7.167v37m-147.92 56.431c-0.458 0.032-2.671 0.137-4.916 0.234-7.557 0.327-12.003 0.701-20 1.684-10.545 1.295-18.778 3.676-20.984 6.069l-0.683 0.741v14.884c0 16.125-0.055 15.065 0.828 15.969 1.772 1.816 7.591 3.723 15.422 5.054 3.14 0.534 4.553 0.747 6.167 0.93 0.916 0.104 2.566 0.295 3.666 0.423 1.1 0.129 2.975 0.312 4.167 0.407s3.112 0.251 4.267 0.345c10.519 0.865 32.944 0.868 43.023 7e-3 1.032-0.088 3.039-0.252 4.46-0.363 1.421-0.112 3.47-0.322 4.553-0.467l1.97-0.265 0.628-1.501c0.955-2.284 2.607-5.472 3.928-7.582 0.668-1.065 1.67-2.582 1.762-2.667 0.05-0.046 0.549-0.721 1.109-1.5 0.559-0.779 1.156-1.579 1.325-1.777 0.17-0.199 0.451-0.536 0.626-0.75 3.382-4.137 9.005-9.101 13.474-11.895l0.791-0.494v-4.22c1e-3 -4.444-0.017-4.564-0.811-5.418-2.107-2.264-10.549-4.664-20.855-5.93-7.565-0.929-10.1-1.151-19.5-1.701-2.877-0.169-22.571-0.343-24.417-0.217m173.17 0.247c-23.421 0.895-40.084 3.832-44.042 7.764l-0.875 0.87 4e-3 4.719 3e-3 4.719 1.773 1.25c0.975 0.688 1.855 1.326 1.955 1.419s0.52 0.43 0.932 0.748c6.784 5.239 13.751 14.45 17.151 22.678l0.522 1.261 2.205 0.279c3.699 0.468 9.52 0.955 15.705 1.316 4.975 0.289 26.692 0.289 31.667 0 5.832-0.34 12.197-0.865 15.583-1.285 1.054-0.131 2.592-0.321 3.417-0.422 2.069-0.253 5.339-0.795 8.167-1.354 2.349-0.464 6.551-1.583 7.833-2.086 1.415-0.555 3.442-1.564 3.786-1.885 0.198-0.185 0.411-0.336 0.473-0.336s0.31-0.285 0.552-0.634l0.439-0.634v-14.876-14.877l-0.875-0.87c-1.004-0.997-2.897-1.997-5.125-2.706-0.413-0.131-0.989-0.316-1.281-0.411-1.963-0.637-7.4-1.8-10.469-2.24-1.008-0.145-1.946-0.295-2.083-0.333-0.455-0.127-6.16-0.776-11-1.251-8.338-0.818-26.063-1.219-36.417-0.823m-147.17 3.232c7.662 0.481 11.276 0.798 15.334 1.347 1.008 0.136 2.433 0.327 3.166 0.424 1.229 0.163 2.365 0.355 5 0.843 21.683 4.022 11.719 10.329-19.833 12.553-11.656 0.822-31.044 0.789-41.167-0.071-1.1-0.094-2.975-0.252-4.166-0.352-17.879-1.499-28.942-5.13-25.321-8.31 1.604-1.408 5.889-2.922 10.821-3.822 2.96-0.541 3.784-0.68 5-0.841 0.733-0.097 2.158-0.286 3.166-0.419 5.517-0.733 13.945-1.378 20.917-1.602 6.091-0.195 22.384-0.045 27.083 0.25m172.83 0.071c1.558 0.097 4.108 0.256 5.666 0.354 4.062 0.254 8.911 0.756 14.417 1.49 13.221 1.763 19.429 5.057 14.917 7.915-2.66 1.684-9.378 3.359-17.084 4.26-0.779 0.091-1.566 0.199-1.75 0.24-0.968 0.215-9.976 0.98-15.25 1.294-4.868 0.291-26.279 0.291-31.25 1e-3 -14.52-0.848-24.71-2.29-30.867-4.367-7.457-2.515-6.204-5.394 3.375-7.756 1.34-0.33 2.823-0.666 3.297-0.747 9.175-1.557 15.251-2.191 25.529-2.666 2.108-0.097 4.208-0.203 4.666-0.234 1.828-0.126 21.681 0.05 24.334 0.216m-107.17 13.123c-9.871 0.783-21.315 5.621-28.5 12.049-14.796 13.238-20.714 31.728-16.22 50.68 3.396 14.325 13.703 27.091 27.034 33.486 3.159 1.516 4.81 2.153 8.436 3.26 6.161 1.881 14.894 2.371 22 1.235 12.098-1.934 23.76-8.68 31.232-18.064 0.438-0.55 0.918-1.15 1.066-1.333 8.076-9.954 11.894-25.492 9.605-39.084-1.015-6.021-3.398-12.732-5.964-16.798-0.242-0.382-0.439-0.736-0.439-0.786 0-0.196-3.366-5.091-3.911-5.687-0.095-0.103-0.51-0.604-0.922-1.113-2.459-3.031-8.599-8.414-11.433-10.022-0.266-0.151-0.972-0.572-1.567-0.935-4.495-2.742-10.914-5.191-16.084-6.136-3.639-0.666-4.277-0.721-8.833-0.769-2.567-0.027-5.042-0.019-5.5 0.017m-12.722 22.66c0.281 0.146 4.295 4.05 8.919 8.677l8.408 8.413 8.364-8.372c9.164-9.171 8.945-8.98 10.299-8.981 1.28-1e-3 1.594 0.237 5.569 4.23 5.776 5.803 6.23 4.339-4.766 15.354-4.668 4.677-8.488 8.558-8.488 8.625s3.745 3.866 8.322 8.442c9.461 9.458 9.631 9.684 8.681 11.523-0.38 0.737-7.379 7.649-8.097 7.997-1.905 0.923-1.8 1.002-11.447-8.634l-8.457-8.449-8.543 8.524c-11.102 11.078-9.637 10.658-15.739 4.515-3.944-3.971-4.238-4.392-3.96-5.684 0.221-1.027 0.649-1.495 8.977-9.812l8.412-8.401-8.256-8.241c-9.052-9.036-9.115-9.108-9.115-10.52 0-1.222 0.085-1.332 4.204-5.445 4.263-4.258 4.978-4.658 6.713-3.761m-123.81 6.576c-1.888 1.234-1.716-0.43-1.716 16.611v14.829l0.453 0.581c1.142 1.465 4.722 3.084 9.13 4.131 0.459 0.109 1.246 0.297 1.75 0.419 0.504 0.121 1.404 0.309 2 0.418s1.459 0.273 1.917 0.364c2.371 0.473 9.962 1.485 13.5 1.8 10.318 0.92 14.426 1.082 27.333 1.083 13.659 0 18.907-0.235 29.89-1.339 0.984-0.099 1.049-0.131 0.943-0.463-0.92-2.894-1.847-7.426-2.273-11.107-0.45-3.883-0.153-12.564 0.533-15.627 0.222-0.987 0.281-0.964-1.971-0.739-18.783 1.884-44.086 1.516-61.372-0.891-1.93-0.269-5.827-0.949-7-1.221-2.557-0.593-3.253-0.78-4.78-1.279-5.708-1.868-6.622-3.845-2.726-5.896l1.237-0.651-0.657-0.175c-0.361-0.096-1.07-0.281-1.574-0.412s-1.499-0.434-2.212-0.674c-0.712-0.239-1.312-0.435-1.334-0.435s-0.504 0.303-1.071 0.673m280.53 0.075c-0.917 0.298-2.145 0.684-2.729 0.858l-1.063 0.316 1.276 0.648c5.701 2.893-0.193 6.353-14.067 8.258-4.977 0.684-5.118 0.7-10.084 1.184-14.488 1.411-39.06 1.249-53.094-0.35-2.264-0.258-2.129-0.306-1.965 0.713 0.743 4.631 0.976 11.685 0.51 15.458-0.514 4.153-1.107 7.272-1.883 9.901-0.268 0.909-0.462 1.677-0.432 1.707 0.073 0.073 2.68 0.35 5.281 0.56 1.146 0.093 2.271 0.205 2.5 0.248 6.107 1.158 37.977 1.112 49.667-0.07 0.87-0.088 2.483-0.245 3.583-0.348 13.608-1.274 24.214-4.011 26.671-6.881l0.579-0.677v-14.86-14.86l-0.458-0.589c-0.476-0.611-2.127-1.813-2.444-1.778-0.1 0.011-0.931 0.264-1.848 0.562m-280.33 38.648c-0.459 0.301-1.077 0.825-1.375 1.165l-0.542 0.617v14.849c0 14.597 6e-3 14.859 0.336 15.394 1.306 2.113 7.634 4.331 16.331 5.724 0.595 0.096 1.758 0.284 2.583 0.418s2.25 0.329 3.167 0.433c0.916 0.104 2.566 0.294 3.666 0.422 16.856 1.96 43.145 1.96 60 0 1.1-0.128 2.75-0.318 3.667-0.422s2.342-0.299 3.167-0.433 1.987-0.322 2.583-0.418c7.394-1.184 13.094-2.966 15.542-4.857 0.837-0.647 0.844-0.631-0.917-1.805-0.848-0.566-1.735-1.187-1.97-1.381-0.236-0.194-0.683-0.54-0.993-0.769-5.358-3.958-11.114-10.514-14.817-16.875-1.169-2.009-1.161-2.005-3.114-1.639-1.729 0.324-9.332 1.06-13.814 1.337-20.296 1.253-43.153 0.418-57.167-2.09-2.637-0.472-3.357-0.62-4.917-1.009-8.694-2.169-10.688-4.637-5.671-7.017l0.911-0.433-1.911-0.53c-1.649-0.456-2.375-0.682-3.662-1.139-0.138-0.049-0.625 0.157-1.083 0.458m281.66-0.154c-0.271 0.113-1.354 0.45-2.408 0.749-1.055 0.298-2.104 0.599-2.334 0.667-0.38 0.114-0.316 0.174 0.747 0.692 5.766 2.807 0.604 6.172-12.497 8.146-0.733 0.11-1.738 0.268-2.234 0.351-1.751 0.293-8.945 1.04-12.599 1.308-6.951 0.51-10.04 0.595-21.667 0.595-11.669 0-13.31-0.046-21.333-0.59-3.567-0.242-9.287-0.834-12.167-1.259-0.916-0.135-1.891-0.278-2.166-0.317-0.484-0.068-0.539-2e-3 -1.717 2.048-3.736 6.503-9.238 12.618-15.757 17.511-0.994 0.746-1.857 1.359-1.917 1.362-0.478 0.023-0.708 0.481-0.472 0.938 0.96 1.857 6.038 3.879 13.279 5.289 7.039 1.371 15.794 2.345 26.667 2.969 5.089 0.292 26.744 0.292 31.833 0 12.377-0.71 21.491-1.809 29.334-3.537 4.09-0.902 7.978-2.358 9.491-3.555 1.467-1.161 1.34 0.393 1.341-16.363l1e-3 -14.837-0.513-0.622c-1.007-1.222-2.189-1.849-2.912-1.545"/>
<path d="m191.67 0.103c-4.789 0.158-13.77 0.958-18.5 1.647-0.871 0.127-2.221 0.316-3 0.419-0.78 0.104-1.979 0.288-2.667 0.408-0.687 0.121-1.775 0.309-2.417 0.417-9.17 1.552-20.3 4.396-29.166 7.454-0.917 0.316-1.93 0.653-2.25 0.748-0.321 0.095-1.221 0.419-2 0.72-0.78 0.3-2.354 0.899-3.5 1.33-2.267 0.853-6.89 2.752-8.75 3.594-0.642 0.291-1.505 0.68-1.917 0.866-8.445 3.795-18.787 9.443-25.833 14.109-1.33 0.88-2.482 1.628-2.562 1.663-0.134 0.058-3.191 2.164-4.087 2.815-0.22 0.16-0.568 0.403-0.775 0.54-2.045 1.363-11.205 8.378-11.743 8.993-0.046 0.052-0.496 0.431-1 0.84-1.152 0.936-4.455 3.808-5.667 4.927-0.504 0.465-1.554 1.435-2.333 2.156-1.83 1.692-8.059 7.921-9.751 9.751-0.721 0.779-1.691 1.829-2.156 2.333-1.119 1.212-3.991 4.515-4.927 5.667-0.409 0.504-0.788 0.954-0.84 1-0.615 0.538-7.63 9.698-8.993 11.743-0.137 0.207-0.38 0.555-0.54 0.775-0.651 0.896-2.757 3.953-2.815 4.087-0.035 0.08-0.783 1.232-1.663 2.562-4.666 7.046-10.314 17.388-14.109 25.833-0.186 0.412-0.575 1.275-0.866 1.917-0.842 1.86-2.741 6.483-3.594 8.75-0.431 1.146-1.03 2.72-1.33 3.5-0.301 0.779-0.625 1.679-0.72 2-0.095 0.32-0.432 1.333-0.748 2.25-3.041 8.817-5.863 19.843-7.443 29.083-0.473 2.764-0.678 4.034-0.823 5.083-0.088 0.642-0.277 1.992-0.418 3-0.559 3.987-0.858 6.873-1.38 13.334-0.408 5.036-0.408 22.13 0 27.166 0.624 7.728 1.363 14.088 2.207 19 0.49 2.853 0.578 3.343 0.979 5.417 0.221 1.146 0.436 2.271 0.479 2.5 0.398 2.153 2.097 9.31 2.69 11.333 0.121 0.413 0.425 1.5 0.674 2.417 0.534 1.958 1.166 4.1 1.623 5.5 0.179 0.55 0.462 1.45 0.629 2 0.267 0.878 2.114 6.189 2.778 7.987 1.551 4.197 3.767 9.503 6.095 14.596 2.761 6.042 7.423 14.651 11.471 21.185 1.914 3.091 7.253 11.001 8.408 12.457 0.119 0.151 1.061 1.4 2.093 2.775 1.031 1.375 2.07 2.728 2.308 3.006 0.237 0.278 0.657 0.796 0.932 1.15 0.481 0.618 1.306 1.643 1.889 2.345 1.404 1.69 2.941 3.515 3.017 3.582 0.052 0.046 0.617 0.684 1.257 1.417s1.508 1.708 1.93 2.167c0.422 0.458 1.318 1.433 1.991 2.166 1.567 1.709 7.82 7.962 9.666 9.666 2.149 1.984 2.798 2.571 4.25 3.838 0.733 0.639 1.371 1.203 1.417 1.251 0.045 0.049 0.795 0.684 1.666 1.412s1.621 1.365 1.667 1.415 0.908 0.75 1.917 1.557c1.008 0.806 1.947 1.559 2.087 1.672s0.703 0.539 1.25 0.947c0.548 0.409 1.091 0.832 1.206 0.941 0.116 0.109 0.866 0.668 1.667 1.242s1.494 1.089 1.54 1.144c0.18 0.217 6.232 4.388 8.75 6.029 8.775 5.723 17.758 10.629 27.166 14.84 0.825 0.369 1.896 0.85 2.38 1.067 0.484 0.218 0.919 0.396 0.966 0.396 0.046 0 0.588 0.236 1.203 0.523 0.615 0.288 1.568 0.692 2.118 0.898 0.55 0.205 2.275 0.863 3.833 1.461 5.936 2.28 9.151 3.361 15.917 5.352 6.983 2.055 17.625 4.417 24.083 5.347 1.009 0.145 2.284 0.332 2.834 0.416 4.062 0.619 8.376 1.074 15.333 1.619 5.208 0.408 21.436 0.406 26.5-2e-3 8.951-0.722 11.296-0.989 18.833-2.14 3.065-0.468 9.521-1.718 12.417-2.405 2.976-0.706 6.543-1.587 7.417-1.832 8.572-2.408 15.818-4.808 21.862-7.242 0.718-0.289 1.679-0.677 2.138-0.862 0.458-0.185 1.229-0.516 1.713-0.735s0.913-0.398 0.953-0.398c0.08 0 1.375-0.575 3.042-1.349 0.574-0.266 1.074-0.484 1.112-0.484 0.241 0 9.27-4.442 11.18-5.5 0.458-0.254 1.32-0.722 1.916-1.041 1.65-0.883 4.769-2.659 6.167-3.511 0.688-0.419 1.662-1.002 2.167-1.295 2.54-1.478 9.763-6.307 12.937-8.65 0.561-0.414 1.642-1.203 2.402-1.753s1.464-1.075 1.563-1.167c0.1-0.092 0.631-0.499 1.181-0.906 0.55-0.406 1.037-0.781 1.083-0.834 0.046-0.052 0.384-0.319 0.75-0.592 0.732-0.544 6.616-5.413 6.75-5.584 0.046-0.059 0.684-0.623 1.417-1.254s1.671-1.46 2.083-1.844c0.413-0.383 1.425-1.322 2.25-2.087 1.935-1.794 7.772-7.631 9.566-9.566 0.765-0.825 1.704-1.837 2.087-2.25 0.384-0.412 1.213-1.35 1.844-2.083s1.195-1.371 1.254-1.417c0.171-0.134 5.04-6.018 5.584-6.75 0.273-0.366 0.54-0.704 0.592-0.75 0.053-0.046 0.428-0.533 0.834-1.083 0.407-0.55 0.814-1.081 0.906-1.181 0.092-0.099 0.617-0.803 1.167-1.563s1.339-1.841 1.753-2.402c2.343-3.174 7.172-10.397 8.65-12.937 0.293-0.505 0.876-1.479 1.295-2.167 0.852-1.398 2.628-4.517 3.511-6.167 0.319-0.596 0.787-1.458 1.041-1.916 1.058-1.91 5.5-10.939 5.5-11.18 0-0.038 0.218-0.538 0.484-1.112 0.774-1.667 1.349-2.962 1.349-3.042 0-0.04 0.179-0.469 0.398-0.953s0.55-1.255 0.735-1.713c0.185-0.459 0.573-1.42 0.862-2.138 2.434-6.044 4.834-13.29 7.242-21.862 0.245-0.874 1.126-4.441 1.832-7.417 0.713-3.007 1.981-9.577 2.429-12.583 0.109-0.734 0.3-1.971 0.423-2.75 0.124-0.78 0.31-2.13 0.414-3 0.104-0.871 0.255-2.071 0.337-2.667 0.177-1.292 0.536-5.218 0.937-10.25 0.417-5.221 0.421-21.197 7e-3 -26.5-0.528-6.749-1.125-12.424-1.621-15.417-0.084-0.504-0.271-1.741-0.415-2.75-0.446-3.11-1.659-9.407-2.572-13.349-0.776-3.352-2.034-8.219-2.774-10.734-1.991-6.766-3.072-9.981-5.352-15.917-0.598-1.558-1.257-3.285-1.463-3.838-0.206-0.554-0.572-1.423-0.814-1.933-0.241-0.51-0.438-0.971-0.438-1.025 0-0.053-0.216-0.571-0.48-1.15-0.264-0.58-0.782-1.729-1.151-2.554-4.202-9.402-9.092-18.353-14.839-27.166-1.641-2.518-5.812-8.57-6.029-8.75-0.055-0.046-0.57-0.739-1.144-1.54s-1.133-1.551-1.242-1.667c-0.109-0.115-0.532-0.658-0.941-1.206-0.408-0.547-0.834-1.11-0.947-1.25s-0.866-1.079-1.672-2.087c-0.807-1.009-1.507-1.871-1.557-1.917s-0.687-0.796-1.415-1.667-1.363-1.621-1.412-1.666c-0.048-0.046-0.612-0.684-1.251-1.417-1.267-1.452-1.854-2.101-3.838-4.25-1.704-1.846-7.957-8.099-9.666-9.666-0.733-0.673-1.708-1.569-2.166-1.991-0.459-0.422-1.434-1.29-2.167-1.93s-1.371-1.205-1.417-1.257c-0.067-0.076-1.892-1.613-3.582-3.017-0.702-0.583-1.727-1.408-2.345-1.889-0.354-0.275-0.872-0.695-1.15-0.932-0.278-0.238-1.631-1.277-3.006-2.308-1.375-1.032-2.624-1.974-2.775-2.093-1.456-1.155-9.366-6.494-12.457-8.408-6.535-4.049-15.185-8.733-21.185-11.47-5.533-2.526-10.127-4.444-14.596-6.096-1.798-0.664-7.109-2.511-7.987-2.778-0.55-0.167-1.45-0.45-2-0.629-1.4-0.457-3.542-1.089-5.5-1.623-0.917-0.249-2.004-0.553-2.417-0.674-2.744-0.805-9.376-2.326-13.75-3.154-8.704-1.648-14.485-2.402-24.416-3.184-3.11-0.245-17.636-0.441-22-0.298m20.166 13.222c0.963 0.088 2.763 0.24 4 0.337 6.593 0.515 14.588 1.615 20 2.753 0.596 0.125 1.571 0.317 2.167 0.426s1.458 0.294 1.917 0.41c0.458 0.116 1.283 0.307 1.833 0.424 2.033 0.431 6.797 1.662 10.083 2.605 0.779 0.223 1.904 0.545 2.5 0.714 1.192 0.339 8.336 2.703 9 2.979 0.23 0.095 1.054 0.409 1.834 0.699 1.726 0.641 7.828 3.078 8.75 3.494 0.366 0.165 1.454 0.652 2.416 1.08 12.348 5.501 24.814 12.849 35.75 21.074 1.284 0.965 2.446 1.847 2.584 1.96 0.137 0.112 0.737 0.587 1.333 1.054s1.277 1.014 1.514 1.216 0.757 0.629 1.154 0.95c7.208 5.81 15.909 14.298 22.98 22.417 0.24 0.275 0.811 0.949 1.269 1.499 0.458 0.549 0.908 1.082 1 1.185 0.091 0.102 0.366 0.44 0.611 0.751 0.244 0.31 1.018 1.277 1.719 2.148s1.364 1.696 1.473 1.833c3.008 3.781 7.989 10.93 11.148 16 1.312 2.107 3.632 6.004 3.632 6.103 0 0.039 0.174 0.35 0.388 0.692 0.362 0.581 1.017 1.769 2.411 4.372 0.32 0.596 1.274 2.472 2.121 4.168 1.356 2.719 1.919 3.909 3.696 7.827 0.522 1.152 2.81 6.632 3.116 7.464 0.126 0.343 0.64 1.712 1.141 3.041 1.693 4.482 4.332 12.755 5.343 16.75 0.14 0.55 0.375 1.45 0.523 2 0.984 3.658 2.572 11.223 3.252 15.5 0.488 3.064 0.674 4.299 0.828 5.5 0.678 5.275 0.791 6.387 1.295 12.667 0.402 5.009 0.4 20.194-3e-3 25.166-0.777 9.591-1.39 14.336-2.951 22.834-0.557 3.029-1.892 8.951-2.556 11.333-0.128 0.458-0.326 1.208-0.441 1.667-1.069 4.282-4.3 14.257-5.991 18.5-3.155 7.914-6.736 15.785-9.294 20.429-0.274 0.497-0.86 1.579-1.302 2.404-0.441 0.825-1.089 1.97-1.439 2.545-0.351 0.574-0.637 1.081-0.637 1.126 0 0.046-0.375 0.681-0.833 1.412-0.459 0.732-0.834 1.371-0.834 1.421 0 0.113-2.035 3.343-4.147 6.579-1.572 2.411-4.553 6.651-6.209 8.834-2.933 3.865-3.198 4.205-4.946 6.333-0.49 0.596-1.013 1.233-1.163 1.417-0.582 0.712-2.94 3.504-3.027 3.583-0.05 0.046-0.384 0.421-0.743 0.833-3.738 4.303-11.962 12.527-16.265 16.265-0.412 0.359-0.787 0.693-0.833 0.743-0.079 0.087-2.871 2.445-3.583 3.027-0.184 0.15-0.821 0.673-1.417 1.163-2.128 1.748-2.468 2.013-6.333 4.946-2.183 1.656-6.423 4.637-8.834 6.209-3.236 2.112-6.466 4.147-6.579 4.147-0.05 0-0.689 0.375-1.421 0.834-0.731 0.458-1.366 0.833-1.412 0.833-0.045 0-0.552 0.286-1.126 0.637-0.575 0.35-1.72 0.998-2.545 1.439-0.825 0.442-1.901 1.024-2.391 1.294s-1.99 1.039-3.333 1.71c-5.644 2.818-10.161 4.822-17.109 7.592-4.243 1.691-14.218 4.922-18.5 5.991-0.459 0.115-1.209 0.313-1.667 0.441-6.32 1.761-16.358 3.628-24.917 4.636-8 0.941-12.029 1.155-21.833 1.155-9.626 0-14.883-0.277-21.917-1.155-4.446-0.555-4.693-0.59-8.833-1.249-10.723-1.705-23.93-5.221-34.25-9.118-1.329-0.501-2.698-1.015-3.041-1.141-0.832-0.306-6.312-2.594-7.464-3.116-3.918-1.777-5.108-2.34-7.827-3.696-1.696-0.847-3.572-1.801-4.168-2.121-2.603-1.394-3.791-2.049-4.372-2.411-0.342-0.214-0.652-0.388-0.69-0.388-0.249 0-7-4.157-10.521-6.479-5.025-3.313-12.61-8.924-15.688-11.604-0.106-0.092-0.332-0.28-0.504-0.417-5.729-4.595-14.841-13.395-20.54-19.836-0.769-0.87-1.596-1.806-1.838-2.081s-0.963-1.137-1.601-1.916c-0.638-0.78-1.236-1.501-1.328-1.603-0.28-0.309-1.181-1.419-2.081-2.564-0.469-0.596-0.943-1.196-1.053-1.334-10.731-13.416-21.143-32.08-27.612-49.499-0.29-0.78-0.603-1.602-0.696-1.829-0.271-0.66-2.639-7.817-2.979-9.005-0.171-0.596-0.494-1.721-0.717-2.5-0.943-3.286-2.174-8.05-2.605-10.083-0.117-0.55-0.308-1.375-0.424-1.833-0.116-0.459-0.301-1.321-0.41-1.917s-0.301-1.571-0.426-2.167c-0.945-4.494-2.046-12.084-2.576-17.75-0.677-7.229-0.736-8.688-0.738-18.083-2e-3 -11.033 0.248-15.051 1.58-25.417 0.9-6.999 2.962-17.053 5.008-24.416 0.958-3.449 3.711-12.118 4.286-13.5 0.096-0.229 0.513-1.327 0.928-2.44 2.474-6.641 7.05-16.797 9.826-21.81 0.203-0.367 0.634-1.154 0.958-1.75 0.526-0.967 2.797-4.977 3.228-5.698 0.093-0.155 0.42-0.712 0.729-1.239 0.308-0.527 1.32-2.149 2.25-3.605 0.929-1.456 1.764-2.775 1.856-2.931 1.042-1.781 7.935-11.267 9.902-13.629 0.237-0.284 0.544-0.66 0.681-0.834 5.44-6.892 14.691-16.554 22.084-23.064 0.55-0.485 1.225-1.078 1.5-1.318 0.559-0.488 4.321-3.627 4.814-4.016 0.174-0.137 0.55-0.444 0.834-0.681 4.335-3.61 14.747-10.844 20.154-14.003 0.533-0.311 1.095-0.641 1.25-0.734 0.721-0.431 4.731-2.702 5.698-3.228 0.596-0.324 1.383-0.755 1.75-0.958 5.013-2.776 15.169-7.352 21.81-9.826 1.113-0.415 2.211-0.832 2.44-0.928 0.493-0.205 7.703-2.591 9.5-3.144 7.963-2.448 20.17-5.09 28.416-6.15 4.706-0.605 5.234-0.66 11.5-1.203 5.341-0.464 21.354-0.559 25.75-0.153m-92.5 100.68v37h27.75 27.75v-6.25-6.25h-20.666-20.667v-9.25-9.25h18 18v-6.25-6.25h-18-18v-9.083-9.084h20 20v-6.166-6.167h-27.083-27.084v37m61.5-30.667v6.334h11.5 11.5v30.666 30.667h7.167 7.167v-30.667-30.666h11.5 11.5v-6.334-6.333h-30.167-30.167v6.333m70.167 30.667v37h23.083 23.084v-6.5-6.5h-15.917-15.917v-30.5-30.5h-7.166-7.167v37m-147.92 56.431c-0.458 0.032-2.671 0.137-4.916 0.234-7.557 0.327-12.003 0.701-20 1.684-10.545 1.295-18.778 3.676-20.984 6.069l-0.683 0.741v14.884c0 16.125-0.055 15.065 0.828 15.969 1.772 1.816 7.591 3.723 15.422 5.054 3.14 0.534 4.553 0.747 6.167 0.93 0.916 0.104 2.566 0.295 3.666 0.423 1.1 0.129 2.975 0.312 4.167 0.407s3.112 0.251 4.267 0.345c10.519 0.865 32.944 0.868 43.023 7e-3 1.032-0.088 3.039-0.252 4.46-0.363 1.421-0.112 3.47-0.322 4.553-0.467l1.97-0.265 0.628-1.501c0.955-2.284 2.607-5.472 3.928-7.582 0.668-1.065 1.67-2.582 1.762-2.667 0.05-0.046 0.549-0.721 1.109-1.5 0.559-0.779 1.156-1.579 1.325-1.777 0.17-0.199 0.451-0.536 0.626-0.75 3.382-4.137 9.005-9.101 13.474-11.895l0.791-0.494v-4.22c1e-3 -4.444-0.017-4.564-0.811-5.418-2.107-2.264-10.549-4.664-20.855-5.93-7.565-0.929-10.1-1.151-19.5-1.701-2.877-0.169-22.571-0.343-24.417-0.217m173.17 0.247c-23.421 0.895-40.084 3.832-44.042 7.764l-0.875 0.87 4e-3 4.719 3e-3 4.719 1.773 1.25c0.975 0.688 1.855 1.326 1.955 1.419s0.52 0.43 0.932 0.748c6.784 5.239 13.751 14.45 17.151 22.678l0.522 1.261 2.205 0.279c3.699 0.468 9.52 0.955 15.705 1.316 4.975 0.289 26.692 0.289 31.667 0 5.832-0.34 12.197-0.865 15.583-1.285 1.054-0.131 2.592-0.321 3.417-0.422 2.069-0.253 5.339-0.795 8.167-1.354 2.349-0.464 6.551-1.583 7.833-2.086 1.415-0.555 3.442-1.564 3.786-1.885 0.198-0.185 0.411-0.336 0.473-0.336s0.31-0.285 0.552-0.634l0.439-0.634v-14.876-14.877l-0.875-0.87c-1.004-0.997-2.897-1.997-5.125-2.706-0.413-0.131-0.989-0.316-1.281-0.411-1.963-0.637-7.4-1.8-10.469-2.24-1.008-0.145-1.946-0.295-2.083-0.333-0.455-0.127-6.16-0.776-11-1.251-8.338-0.818-26.063-1.219-36.417-0.823m-147.17 3.232c7.662 0.481 11.276 0.798 15.334 1.347 1.008 0.136 2.433 0.327 3.166 0.424 1.229 0.163 2.365 0.355 5 0.843 21.683 4.022 11.719 10.329-19.833 12.553-11.656 0.822-31.044 0.789-41.167-0.071-1.1-0.094-2.975-0.252-4.166-0.352-17.879-1.499-28.942-5.13-25.321-8.31 1.604-1.408 5.889-2.922 10.821-3.822 2.96-0.541 3.784-0.68 5-0.841 0.733-0.097 2.158-0.286 3.166-0.419 5.517-0.733 13.945-1.378 20.917-1.602 6.091-0.195 22.384-0.045 27.083 0.25m172.83 0.071c1.558 0.097 4.108 0.256 5.666 0.354 4.062 0.254 8.911 0.756 14.417 1.49 13.221 1.763 19.429 5.057 14.917 7.915-2.66 1.684-9.378 3.359-17.084 4.26-0.779 0.091-1.566 0.199-1.75 0.24-0.968 0.215-9.976 0.98-15.25 1.294-4.868 0.291-26.279 0.291-31.25 1e-3 -14.52-0.848-24.71-2.29-30.867-4.367-7.457-2.515-6.204-5.394 3.375-7.756 1.34-0.33 2.823-0.666 3.297-0.747 9.175-1.557 15.251-2.191 25.529-2.666 2.108-0.097 4.208-0.203 4.666-0.234 1.828-0.126 21.681 0.05 24.334 0.216m-107.17 13.123c-9.871 0.783-21.315 5.621-28.5 12.049-14.796 13.238-20.714 31.728-16.22 50.68 3.396 14.325 13.703 27.091 27.034 33.486 3.159 1.516 4.81 2.153 8.436 3.26 6.161 1.881 14.894 2.371 22 1.235 12.098-1.934 23.76-8.68 31.232-18.064 0.438-0.55 0.918-1.15 1.066-1.333 8.076-9.954 11.894-25.492 9.605-39.084-1.015-6.021-3.398-12.732-5.964-16.798-0.242-0.382-0.439-0.736-0.439-0.786 0-0.196-3.366-5.091-3.911-5.687-0.095-0.103-0.51-0.604-0.922-1.113-2.459-3.031-8.599-8.414-11.433-10.022-0.266-0.151-0.972-0.572-1.567-0.935-4.495-2.742-10.914-5.191-16.084-6.136-3.639-0.666-4.277-0.721-8.833-0.769-2.567-0.027-5.042-0.019-5.5 0.017m-12.722 22.66c0.281 0.146 4.295 4.05 8.919 8.677l8.408 8.413 8.364-8.372c9.164-9.171 8.945-8.98 10.299-8.981 1.28-1e-3 1.594 0.237 5.569 4.23 5.776 5.803 6.23 4.339-4.766 15.354-4.668 4.677-8.488 8.558-8.488 8.625s3.745 3.866 8.322 8.442c9.461 9.458 9.631 9.684 8.681 11.523-0.38 0.737-7.379 7.649-8.097 7.997-1.905 0.923-1.8 1.002-11.447-8.634l-8.457-8.449-8.543 8.524c-11.102 11.078-9.637 10.658-15.739 4.515-3.944-3.971-4.238-4.392-3.96-5.684 0.221-1.027 0.649-1.495 8.977-9.812l8.412-8.401-8.256-8.241c-9.052-9.036-9.115-9.108-9.115-10.52 0-1.222 0.085-1.332 4.204-5.445 4.263-4.258 4.978-4.658 6.713-3.761m-123.81 6.576c-1.888 1.234-1.716-0.43-1.716 16.611v14.829l0.453 0.581c1.142 1.465 4.722 3.084 9.13 4.131 0.459 0.109 1.246 0.297 1.75 0.419 0.504 0.121 1.404 0.309 2 0.418s1.459 0.273 1.917 0.364c2.371 0.473 9.962 1.485 13.5 1.8 10.318 0.92 14.426 1.082 27.333 1.083 13.659 0 18.907-0.235 29.89-1.339 0.984-0.099 1.049-0.131 0.943-0.463-0.92-2.894-1.847-7.426-2.273-11.107-0.45-3.883-0.153-12.564 0.533-15.627 0.222-0.987 0.281-0.964-1.971-0.739-18.783 1.884-44.086 1.516-61.372-0.891-1.93-0.269-5.827-0.949-7-1.221-2.557-0.593-3.253-0.78-4.78-1.279-5.708-1.868-6.622-3.845-2.726-5.896l1.237-0.651-0.657-0.175c-0.361-0.096-1.07-0.281-1.574-0.412s-1.499-0.434-2.212-0.674c-0.712-0.239-1.312-0.435-1.334-0.435s-0.504 0.303-1.071 0.673m280.53 0.075c-0.917 0.298-2.145 0.684-2.729 0.858l-1.063 0.316 1.276 0.648c5.701 2.893-0.193 6.353-14.067 8.258-4.977 0.684-5.118 0.7-10.084 1.184-14.488 1.411-39.06 1.249-53.094-0.35-2.264-0.258-2.129-0.306-1.965 0.713 0.743 4.631 0.976 11.685 0.51 15.458-0.514 4.153-1.107 7.272-1.883 9.901-0.268 0.909-0.462 1.677-0.432 1.707 0.073 0.073 2.68 0.35 5.281 0.56 1.146 0.093 2.271 0.205 2.5 0.248 6.107 1.158 37.977 1.112 49.667-0.07 0.87-0.088 2.483-0.245 3.583-0.348 13.608-1.274 24.214-4.011 26.671-6.881l0.579-0.677v-14.86-14.86l-0.458-0.589c-0.476-0.611-2.127-1.813-2.444-1.778-0.1 0.011-0.931 0.264-1.848 0.562m-280.33 38.648c-0.459 0.301-1.077 0.825-1.375 1.165l-0.542 0.617v14.849c0 14.597 6e-3 14.859 0.336 15.394 1.306 2.113 7.634 4.331 16.331 5.724 0.595 0.096 1.758 0.284 2.583 0.418s2.25 0.329 3.167 0.433c0.916 0.104 2.566 0.294 3.666 0.422 16.856 1.96 43.145 1.96 60 0 1.1-0.128 2.75-0.318 3.667-0.422s2.342-0.299 3.167-0.433 1.987-0.322 2.583-0.418c7.394-1.184 13.094-2.966 15.542-4.857 0.837-0.647 0.844-0.631-0.917-1.805-0.848-0.566-1.735-1.187-1.97-1.381-0.236-0.194-0.683-0.54-0.993-0.769-5.358-3.958-11.114-10.514-14.817-16.875-1.169-2.009-1.161-2.005-3.114-1.639-1.729 0.324-9.332 1.06-13.814 1.337-20.296 1.253-43.153 0.418-57.167-2.09-2.637-0.472-3.357-0.62-4.917-1.009-8.694-2.169-10.688-4.637-5.671-7.017l0.911-0.433-1.911-0.53c-1.649-0.456-2.375-0.682-3.662-1.139-0.138-0.049-0.625 0.157-1.083 0.458m281.66-0.154c-0.271 0.113-1.354 0.45-2.408 0.749-1.055 0.298-2.104 0.599-2.334 0.667-0.38 0.114-0.316 0.174 0.747 0.692 5.766 2.807 0.604 6.172-12.497 8.146-0.733 0.11-1.738 0.268-2.234 0.351-1.751 0.293-8.945 1.04-12.599 1.308-6.951 0.51-10.04 0.595-21.667 0.595-11.669 0-13.31-0.046-21.333-0.59-3.567-0.242-9.287-0.834-12.167-1.259-0.916-0.135-1.891-0.278-2.166-0.317-0.484-0.068-0.539-2e-3 -1.717 2.048-3.736 6.503-9.238 12.618-15.757 17.511-0.994 0.746-1.857 1.359-1.917 1.362-0.478 0.023-0.708 0.481-0.472 0.938 0.96 1.857 6.038 3.879 13.279 5.289 7.039 1.371 15.794 2.345 26.667 2.969 5.089 0.292 26.744 0.292 31.833 0 12.377-0.71 21.491-1.809 29.334-3.537 4.09-0.902 7.978-2.358 9.491-3.555 1.467-1.161 1.34 0.393 1.341-16.363l1e-3 -14.837-0.513-0.622c-1.007-1.222-2.189-1.849-2.912-1.545"/>
<path d="m191.67 0.103c-4.789 0.158-13.77 0.958-18.5 1.647-0.871 0.127-2.221 0.316-3 0.419-0.78 0.104-1.979 0.288-2.667 0.408-0.687 0.121-1.775 0.309-2.417 0.417-9.17 1.552-20.3 4.396-29.166 7.454-0.917 0.316-1.93 0.653-2.25 0.748-0.321 0.095-1.221 0.419-2 0.72-0.78 0.3-2.354 0.899-3.5 1.33-2.267 0.853-6.89 2.752-8.75 3.594-0.642 0.291-1.505 0.68-1.917 0.866-8.445 3.795-18.787 9.443-25.833 14.109-1.33 0.88-2.482 1.628-2.562 1.663-0.134 0.058-3.191 2.164-4.087 2.815-0.22 0.16-0.568 0.403-0.775 0.54-2.045 1.363-11.205 8.378-11.743 8.993-0.046 0.052-0.496 0.431-1 0.84-1.152 0.936-4.455 3.808-5.667 4.927-0.504 0.465-1.554 1.435-2.333 2.156-1.83 1.692-8.059 7.921-9.751 9.751-0.721 0.779-1.691 1.829-2.156 2.333-1.119 1.212-3.991 4.515-4.927 5.667-0.409 0.504-0.788 0.954-0.84 1-0.615 0.538-7.63 9.698-8.993 11.743-0.137 0.207-0.38 0.555-0.54 0.775-0.651 0.896-2.757 3.953-2.815 4.087-0.035 0.08-0.783 1.232-1.663 2.562-4.666 7.046-10.314 17.388-14.109 25.833-0.186 0.412-0.575 1.275-0.866 1.917-0.842 1.86-2.741 6.483-3.594 8.75-0.431 1.146-1.03 2.72-1.33 3.5-0.301 0.779-0.625 1.679-0.72 2-0.095 0.32-0.432 1.333-0.748 2.25-3.041 8.817-5.863 19.843-7.443 29.083-0.473 2.764-0.678 4.034-0.823 5.083-0.088 0.642-0.277 1.992-0.418 3-0.559 3.987-0.858 6.873-1.38 13.334-0.408 5.036-0.408 22.13 0 27.166 0.624 7.728 1.363 14.088 2.207 19 0.49 2.853 0.578 3.343 0.979 5.417 0.221 1.146 0.436 2.271 0.479 2.5 0.398 2.153 2.097 9.31 2.69 11.333 0.121 0.413 0.425 1.5 0.674 2.417 0.534 1.958 1.166 4.1 1.623 5.5 0.179 0.55 0.462 1.45 0.629 2 0.267 0.878 2.114 6.189 2.778 7.987 1.551 4.197 3.767 9.503 6.095 14.596 2.761 6.042 7.423 14.651 11.471 21.185 1.914 3.091 7.253 11.001 8.408 12.457 0.119 0.151 1.061 1.4 2.093 2.775 1.031 1.375 2.07 2.728 2.308 3.006 0.237 0.278 0.657 0.796 0.932 1.15 0.481 0.618 1.306 1.643 1.889 2.345 1.404 1.69 2.941 3.515 3.017 3.582 0.052 0.046 0.617 0.684 1.257 1.417s1.508 1.708 1.93 2.167c0.422 0.458 1.318 1.433 1.991 2.166 1.567 1.709 7.82 7.962 9.666 9.666 2.149 1.984 2.798 2.571 4.25 3.838 0.733 0.639 1.371 1.203 1.417 1.251 0.045 0.049 0.795 0.684 1.666 1.412s1.621 1.365 1.667 1.415 0.908 0.75 1.917 1.557c1.008 0.806 1.947 1.559 2.087 1.672s0.703 0.539 1.25 0.947c0.548 0.409 1.091 0.832 1.206 0.941 0.116 0.109 0.866 0.668 1.667 1.242s1.494 1.089 1.54 1.144c0.18 0.217 6.232 4.388 8.75 6.029 8.775 5.723 17.758 10.629 27.166 14.84 0.825 0.369 1.896 0.85 2.38 1.067 0.484 0.218 0.919 0.396 0.966 0.396 0.046 0 0.588 0.236 1.203 0.523 0.615 0.288 1.568 0.692 2.118 0.898 0.55 0.205 2.275 0.863 3.833 1.461 5.936 2.28 9.151 3.361 15.917 5.352 6.983 2.055 17.625 4.417 24.083 5.347 1.009 0.145 2.284 0.332 2.834 0.416 4.062 0.619 8.376 1.074 15.333 1.619 5.208 0.408 21.436 0.406 26.5-2e-3 8.951-0.722 11.296-0.989 18.833-2.14 3.065-0.468 9.521-1.718 12.417-2.405 2.976-0.706 6.543-1.587 7.417-1.832 8.572-2.408 15.818-4.808 21.862-7.242 0.718-0.289 1.679-0.677 2.138-0.862 0.458-0.185 1.229-0.516 1.713-0.735s0.913-0.398 0.953-0.398c0.08 0 1.375-0.575 3.042-1.349 0.574-0.266 1.074-0.484 1.112-0.484 0.241 0 9.27-4.442 11.18-5.5 0.458-0.254 1.32-0.722 1.916-1.041 1.65-0.883 4.769-2.659 6.167-3.511 0.688-0.419 1.662-1.002 2.167-1.295 2.54-1.478 9.763-6.307 12.937-8.65 0.561-0.414 1.642-1.203 2.402-1.753s1.464-1.075 1.563-1.167c0.1-0.092 0.631-0.499 1.181-0.906 0.55-0.406 1.037-0.781 1.083-0.834 0.046-0.052 0.384-0.319 0.75-0.592 0.732-0.544 6.616-5.413 6.75-5.584 0.046-0.059 0.684-0.623 1.417-1.254s1.671-1.46 2.083-1.844c0.413-0.383 1.425-1.322 2.25-2.087 1.935-1.794 7.772-7.631 9.566-9.566 0.765-0.825 1.704-1.837 2.087-2.25 0.384-0.412 1.213-1.35 1.844-2.083s1.195-1.371 1.254-1.417c0.171-0.134 5.04-6.018 5.584-6.75 0.273-0.366 0.54-0.704 0.592-0.75 0.053-0.046 0.428-0.533 0.834-1.083 0.407-0.55 0.814-1.081 0.906-1.181 0.092-0.099 0.617-0.803 1.167-1.563s1.339-1.841 1.753-2.402c2.343-3.174 7.172-10.397 8.65-12.937 0.293-0.505 0.876-1.479 1.295-2.167 0.852-1.398 2.628-4.517 3.511-6.167 0.319-0.596 0.787-1.458 1.041-1.916 1.058-1.91 5.5-10.939 5.5-11.18 0-0.038 0.218-0.538 0.484-1.112 0.774-1.667 1.349-2.962 1.349-3.042 0-0.04 0.179-0.469 0.398-0.953s0.55-1.255 0.735-1.713c0.185-0.459 0.573-1.42 0.862-2.138 2.434-6.044 4.834-13.29 7.242-21.862 0.245-0.874 1.126-4.441 1.832-7.417 0.713-3.007 1.981-9.577 2.429-12.583 0.109-0.734 0.3-1.971 0.423-2.75 0.124-0.78 0.31-2.13 0.414-3 0.104-0.871 0.255-2.071 0.337-2.667 0.177-1.292 0.536-5.218 0.937-10.25 0.417-5.221 0.421-21.197 7e-3 -26.5-0.528-6.749-1.125-12.424-1.621-15.417-0.084-0.504-0.271-1.741-0.415-2.75-0.446-3.11-1.659-9.407-2.572-13.349-0.776-3.352-2.034-8.219-2.774-10.734-1.991-6.766-3.072-9.981-5.352-15.917-0.598-1.558-1.257-3.285-1.463-3.838-0.206-0.554-0.572-1.423-0.814-1.933-0.241-0.51-0.438-0.971-0.438-1.025 0-0.053-0.216-0.571-0.48-1.15-0.264-0.58-0.782-1.729-1.151-2.554-4.202-9.402-9.092-18.353-14.839-27.166-1.641-2.518-5.812-8.57-6.029-8.75-0.055-0.046-0.57-0.739-1.144-1.54s-1.133-1.551-1.242-1.667c-0.109-0.115-0.532-0.658-0.941-1.206-0.408-0.547-0.834-1.11-0.947-1.25s-0.866-1.079-1.672-2.087c-0.807-1.009-1.507-1.871-1.557-1.917s-0.687-0.796-1.415-1.667-1.363-1.621-1.412-1.666c-0.048-0.046-0.612-0.684-1.251-1.417-1.267-1.452-1.854-2.101-3.838-4.25-1.704-1.846-7.957-8.099-9.666-9.666-0.733-0.673-1.708-1.569-2.166-1.991-0.459-0.422-1.434-1.29-2.167-1.93s-1.371-1.205-1.417-1.257c-0.067-0.076-1.892-1.613-3.582-3.017-0.702-0.583-1.727-1.408-2.345-1.889-0.354-0.275-0.872-0.695-1.15-0.932-0.278-0.238-1.631-1.277-3.006-2.308-1.375-1.032-2.624-1.974-2.775-2.093-1.456-1.155-9.366-6.494-12.457-8.408-6.535-4.049-15.185-8.733-21.185-11.47-5.533-2.526-10.127-4.444-14.596-6.096-1.798-0.664-7.109-2.511-7.987-2.778-0.55-0.167-1.45-0.45-2-0.629-1.4-0.457-3.542-1.089-5.5-1.623-0.917-0.249-2.004-0.553-2.417-0.674-2.744-0.805-9.376-2.326-13.75-3.154-8.704-1.648-14.485-2.402-24.416-3.184-3.11-0.245-17.636-0.441-22-0.298m20.166 13.222c0.963 0.088 2.763 0.24 4 0.337 6.593 0.515 14.588 1.615 20 2.753 0.596 0.125 1.571 0.317 2.167 0.426s1.458 0.294 1.917 0.41c0.458 0.116 1.283 0.307 1.833 0.424 2.033 0.431 6.797 1.662 10.083 2.605 0.779 0.223 1.904 0.545 2.5 0.714 1.192 0.339 8.336 2.703 9 2.979 0.23 0.095 1.054 0.409 1.834 0.699 1.726 0.641 7.828 3.078 8.75 3.494 0.366 0.165 1.454 0.652 2.416 1.08 12.348 5.501 24.814 12.849 35.75 21.074 1.284 0.965 2.446 1.847 2.584 1.96 0.137 0.112 0.737 0.587 1.333 1.054s1.277 1.014 1.514 1.216 0.757 0.629 1.154 0.95c7.208 5.81 15.909 14.298 22.98 22.417 0.24 0.275 0.811 0.949 1.269 1.499 0.458 0.549 0.908 1.082 1 1.185 0.091 0.102 0.366 0.44 0.611 0.751 0.244 0.31 1.018 1.277 1.719 2.148s1.364 1.696 1.473 1.833c3.008 3.781 7.989 10.93 11.148 16 1.312 2.107 3.632 6.004 3.632 6.103 0 0.039 0.174 0.35 0.388 0.692 0.362 0.581 1.017 1.769 2.411 4.372 0.32 0.596 1.274 2.472 2.121 4.168 1.356 2.719 1.919 3.909 3.696 7.827 0.522 1.152 2.81 6.632 3.116 7.464 0.126 0.343 0.64 1.712 1.141 3.041 1.693 4.482 4.332 12.755 5.343 16.75 0.14 0.55 0.375 1.45 0.523 2 0.984 3.658 2.572 11.223 3.252 15.5 0.488 3.064 0.674 4.299 0.828 5.5 0.678 5.275 0.791 6.387 1.295 12.667 0.402 5.009 0.4 20.194-3e-3 25.166-0.777 9.591-1.39 14.336-2.951 22.834-0.557 3.029-1.892 8.951-2.556 11.333-0.128 0.458-0.326 1.208-0.441 1.667-1.069 4.282-4.3 14.257-5.991 18.5-3.155 7.914-6.736 15.785-9.294 20.429-0.274 0.497-0.86 1.579-1.302 2.404-0.441 0.825-1.089 1.97-1.439 2.545-0.351 0.574-0.637 1.081-0.637 1.126 0 0.046-0.375 0.681-0.833 1.412-0.459 0.732-0.834 1.371-0.834 1.421 0 0.113-2.035 3.343-4.147 6.579-1.572 2.411-4.553 6.651-6.209 8.834-2.933 3.865-3.198 4.205-4.946 6.333-0.49 0.596-1.013 1.233-1.163 1.417-0.582 0.712-2.94 3.504-3.027 3.583-0.05 0.046-0.384 0.421-0.743 0.833-3.738 4.303-11.962 12.527-16.265 16.265-0.412 0.359-0.787 0.693-0.833 0.743-0.079 0.087-2.871 2.445-3.583 3.027-0.184 0.15-0.821 0.673-1.417 1.163-2.128 1.748-2.468 2.013-6.333 4.946-2.183 1.656-6.423 4.637-8.834 6.209-3.236 2.112-6.466 4.147-6.579 4.147-0.05 0-0.689 0.375-1.421 0.834-0.731 0.458-1.366 0.833-1.412 0.833-0.045 0-0.552 0.286-1.126 0.637-0.575 0.35-1.72 0.998-2.545 1.439-0.825 0.442-1.901 1.024-2.391 1.294s-1.99 1.039-3.333 1.71c-5.644 2.818-10.161 4.822-17.109 7.592-4.243 1.691-14.218 4.922-18.5 5.991-0.459 0.115-1.209 0.313-1.667 0.441-6.32 1.761-16.358 3.628-24.917 4.636-8 0.941-12.029 1.155-21.833 1.155-9.626 0-14.883-0.277-21.917-1.155-4.446-0.555-4.693-0.59-8.833-1.249-10.723-1.705-23.93-5.221-34.25-9.118-1.329-0.501-2.698-1.015-3.041-1.141-0.832-0.306-6.312-2.594-7.464-3.116-3.918-1.777-5.108-2.34-7.827-3.696-1.696-0.847-3.572-1.801-4.168-2.121-2.603-1.394-3.791-2.049-4.372-2.411-0.342-0.214-0.652-0.388-0.69-0.388-0.249 0-7-4.157-10.521-6.479-5.025-3.313-12.61-8.924-15.688-11.604-0.106-0.092-0.332-0.28-0.504-0.417-5.729-4.595-14.841-13.395-20.54-19.836-0.769-0.87-1.596-1.806-1.838-2.081s-0.963-1.137-1.601-1.916c-0.638-0.78-1.236-1.501-1.328-1.603-0.28-0.309-1.181-1.419-2.081-2.564-0.469-0.596-0.943-1.196-1.053-1.334-10.731-13.416-21.143-32.08-27.612-49.499-0.29-0.78-0.603-1.602-0.696-1.829-0.271-0.66-2.639-7.817-2.979-9.005-0.171-0.596-0.494-1.721-0.717-2.5-0.943-3.286-2.174-8.05-2.605-10.083-0.117-0.55-0.308-1.375-0.424-1.833-0.116-0.459-0.301-1.321-0.41-1.917s-0.301-1.571-0.426-2.167c-0.945-4.494-2.046-12.084-2.576-17.75-0.677-7.229-0.736-8.688-0.738-18.083-2e-3 -11.033 0.248-15.051 1.58-25.417 0.9-6.999 2.962-17.053 5.008-24.416 0.958-3.449 3.711-12.118 4.286-13.5 0.096-0.229 0.513-1.327 0.928-2.44 2.474-6.641 7.05-16.797 9.826-21.81 0.203-0.367 0.634-1.154 0.958-1.75 0.526-0.967 2.797-4.977 3.228-5.698 0.093-0.155 0.42-0.712 0.729-1.239 0.308-0.527 1.32-2.149 2.25-3.605 0.929-1.456 1.764-2.775 1.856-2.931 1.042-1.781 7.935-11.267 9.902-13.629 0.237-0.284 0.544-0.66 0.681-0.834 5.44-6.892 14.691-16.554 22.084-23.064 0.55-0.485 1.225-1.078 1.5-1.318 0.559-0.488 4.321-3.627 4.814-4.016 0.174-0.137 0.55-0.444 0.834-0.681 4.335-3.61 14.747-10.844 20.154-14.003 0.533-0.311 1.095-0.641 1.25-0.734 0.721-0.431 4.731-2.702 5.698-3.228 0.596-0.324 1.383-0.755 1.75-0.958 5.013-2.776 15.169-7.352 21.81-9.826 1.113-0.415 2.211-0.832 2.44-0.928 0.493-0.205 7.703-2.591 9.5-3.144 7.963-2.448 20.17-5.09 28.416-6.15 4.706-0.605 5.234-0.66 11.5-1.203 5.341-0.464 21.354-0.559 25.75-0.153m-92.5 100.68v37h27.75 27.75v-6.25-6.25h-20.666-20.667v-9.25-9.25h18 18v-6.25-6.25h-18-18v-9.083-9.084h20 20v-6.166-6.167h-27.083-27.084v37m61.5-30.667v6.334h11.5 11.5v30.666 30.667h7.167 7.167v-30.667-30.666h11.5 11.5v-6.334-6.333h-30.167-30.167v6.333m70.167 30.667v37h23.083 23.084v-6.5-6.5h-15.917-15.917v-30.5-30.5h-7.166-7.167v37m-147.92 56.431c-0.458 0.032-2.671 0.137-4.916 0.234-7.557 0.327-12.003 0.701-20 1.684-10.545 1.295-18.778 3.676-20.984 6.069l-0.683 0.741v14.884c0 16.125-0.055 15.065 0.828 15.969 1.772 1.816 7.591 3.723 15.422 5.054 3.14 0.534 4.553 0.747 6.167 0.93 0.916 0.104 2.566 0.295 3.666 0.423 1.1 0.129 2.975 0.312 4.167 0.407s3.112 0.251 4.267 0.345c10.519 0.865 32.944 0.868 43.023 7e-3 1.032-0.088 3.039-0.252 4.46-0.363 1.421-0.112 3.47-0.322 4.553-0.467l1.97-0.265 0.628-1.501c0.955-2.284 2.607-5.472 3.928-7.582 0.668-1.065 1.67-2.582 1.762-2.667 0.05-0.046 0.549-0.721 1.109-1.5 0.559-0.779 1.156-1.579 1.325-1.777 0.17-0.199 0.451-0.536 0.626-0.75 3.382-4.137 9.005-9.101 13.474-11.895l0.791-0.494v-4.22c1e-3 -4.444-0.017-4.564-0.811-5.418-2.107-2.264-10.549-4.664-20.855-5.93-7.565-0.929-10.1-1.151-19.5-1.701-2.877-0.169-22.571-0.343-24.417-0.217m173.17 0.247c-23.421 0.895-40.084 3.832-44.042 7.764l-0.875 0.87 4e-3 4.719 3e-3 4.719 1.773 1.25c0.975 0.688 1.855 1.326 1.955 1.419s0.52 0.43 0.932 0.748c6.784 5.239 13.751 14.45 17.151 22.678l0.522 1.261 2.205 0.279c3.699 0.468 9.52 0.955 15.705 1.316 4.975 0.289 26.692 0.289 31.667 0 5.832-0.34 12.197-0.865 15.583-1.285 1.054-0.131 2.592-0.321 3.417-0.422 2.069-0.253 5.339-0.795 8.167-1.354 2.349-0.464 6.551-1.583 7.833-2.086 1.415-0.555 3.442-1.564 3.786-1.885 0.198-0.185 0.411-0.336 0.473-0.336s0.31-0.285 0.552-0.634l0.439-0.634v-14.876-14.877l-0.875-0.87c-1.004-0.997-2.897-1.997-5.125-2.706-0.413-0.131-0.989-0.316-1.281-0.411-1.963-0.637-7.4-1.8-10.469-2.24-1.008-0.145-1.946-0.295-2.083-0.333-0.455-0.127-6.16-0.776-11-1.251-8.338-0.818-26.063-1.219-36.417-0.823m-147.17 3.232c7.662 0.481 11.276 0.798 15.334 1.347 1.008 0.136 2.433 0.327 3.166 0.424 1.229 0.163 2.365 0.355 5 0.843 21.683 4.022 11.719 10.329-19.833 12.553-11.656 0.822-31.044 0.789-41.167-0.071-1.1-0.094-2.975-0.252-4.166-0.352-17.879-1.499-28.942-5.13-25.321-8.31 1.604-1.408 5.889-2.922 10.821-3.822 2.96-0.541 3.784-0.68 5-0.841 0.733-0.097 2.158-0.286 3.166-0.419 5.517-0.733 13.945-1.378 20.917-1.602 6.091-0.195 22.384-0.045 27.083 0.25m172.83 0.071c1.558 0.097 4.108 0.256 5.666 0.354 4.062 0.254 8.911 0.756 14.417 1.49 13.221 1.763 19.429 5.057 14.917 7.915-2.66 1.684-9.378 3.359-17.084 4.26-0.779 0.091-1.566 0.199-1.75 0.24-0.968 0.215-9.976 0.98-15.25 1.294-4.868 0.291-26.279 0.291-31.25 1e-3 -14.52-0.848-24.71-2.29-30.867-4.367-7.457-2.515-6.204-5.394 3.375-7.756 1.34-0.33 2.823-0.666 3.297-0.747 9.175-1.557 15.251-2.191 25.529-2.666 2.108-0.097 4.208-0.203 4.666-0.234 1.828-0.126 21.681 0.05 24.334 0.216m-107.17 13.123c-9.871 0.783-21.315 5.621-28.5 12.049-14.796 13.238-20.714 31.728-16.22 50.68 3.396 14.325 13.703 27.091 27.034 33.486 3.159 1.516 4.81 2.153 8.436 3.26 6.161 1.881 14.894 2.371 22 1.235 12.098-1.934 23.76-8.68 31.232-18.064 0.438-0.55 0.918-1.15 1.066-1.333 8.076-9.954 11.894-25.492 9.605-39.084-1.015-6.021-3.398-12.732-5.964-16.798-0.242-0.382-0.439-0.736-0.439-0.786 0-0.196-3.366-5.091-3.911-5.687-0.095-0.103-0.51-0.604-0.922-1.113-2.459-3.031-8.599-8.414-11.433-10.022-0.266-0.151-0.972-0.572-1.567-0.935-4.495-2.742-10.914-5.191-16.084-6.136-3.639-0.666-4.277-0.721-8.833-0.769-2.567-0.027-5.042-0.019-5.5 0.017m-12.722 22.66c0.281 0.146 4.295 4.05 8.919 8.677l8.408 8.413 8.364-8.372c9.164-9.171 8.945-8.98 10.299-8.981 1.28-1e-3 1.594 0.237 5.569 4.23 5.776 5.803 6.23 4.339-4.766 15.354-4.668 4.677-8.488 8.558-8.488 8.625s3.745 3.866 8.322 8.442c9.461 9.458 9.631 9.684 8.681 11.523-0.38 0.737-7.379 7.649-8.097 7.997-1.905 0.923-1.8 1.002-11.447-8.634l-8.457-8.449-8.543 8.524c-11.102 11.078-9.637 10.658-15.739 4.515-3.944-3.971-4.238-4.392-3.96-5.684 0.221-1.027 0.649-1.495 8.977-9.812l8.412-8.401-8.256-8.241c-9.052-9.036-9.115-9.108-9.115-10.52 0-1.222 0.085-1.332 4.204-5.445 4.263-4.258 4.978-4.658 6.713-3.761m-123.81 6.576c-1.888 1.234-1.716-0.43-1.716 16.611v14.829l0.453 0.581c1.142 1.465 4.722 3.084 9.13 4.131 0.459 0.109 1.246 0.297 1.75 0.419 0.504 0.121 1.404 0.309 2 0.418s1.459 0.273 1.917 0.364c2.371 0.473 9.962 1.485 13.5 1.8 10.318 0.92 14.426 1.082 27.333 1.083 13.659 0 18.907-0.235 29.89-1.339 0.984-0.099 1.049-0.131 0.943-0.463-0.92-2.894-1.847-7.426-2.273-11.107-0.45-3.883-0.153-12.564 0.533-15.627 0.222-0.987 0.281-0.964-1.971-0.739-18.783 1.884-44.086 1.516-61.372-0.891-1.93-0.269-5.827-0.949-7-1.221-2.557-0.593-3.253-0.78-4.78-1.279-5.708-1.868-6.622-3.845-2.726-5.896l1.237-0.651-0.657-0.175c-0.361-0.096-1.07-0.281-1.574-0.412s-1.499-0.434-2.212-0.674c-0.712-0.239-1.312-0.435-1.334-0.435s-0.504 0.303-1.071 0.673m280.53 0.075c-0.917 0.298-2.145 0.684-2.729 0.858l-1.063 0.316 1.276 0.648c5.701 2.893-0.193 6.353-14.067 8.258-4.977 0.684-5.118 0.7-10.084 1.184-14.488 1.411-39.06 1.249-53.094-0.35-2.264-0.258-2.129-0.306-1.965 0.713 0.743 4.631 0.976 11.685 0.51 15.458-0.514 4.153-1.107 7.272-1.883 9.901-0.268 0.909-0.462 1.677-0.432 1.707 0.073 0.073 2.68 0.35 5.281 0.56 1.146 0.093 2.271 0.205 2.5 0.248 6.107 1.158 37.977 1.112 49.667-0.07 0.87-0.088 2.483-0.245 3.583-0.348 13.608-1.274 24.214-4.011 26.671-6.881l0.579-0.677v-14.86-14.86l-0.458-0.589c-0.476-0.611-2.127-1.813-2.444-1.778-0.1 0.011-0.931 0.264-1.848 0.562m-280.33 38.648c-0.459 0.301-1.077 0.825-1.375 1.165l-0.542 0.617v14.849c0 14.597 6e-3 14.859 0.336 15.394 1.306 2.113 7.634 4.331 16.331 5.724 0.595 0.096 1.758 0.284 2.583 0.418s2.25 0.329 3.167 0.433c0.916 0.104 2.566 0.294 3.666 0.422 16.856 1.96 43.145 1.96 60 0 1.1-0.128 2.75-0.318 3.667-0.422s2.342-0.299 3.167-0.433 1.987-0.322 2.583-0.418c7.394-1.184 13.094-2.966 15.542-4.857 0.837-0.647 0.844-0.631-0.917-1.805-0.848-0.566-1.735-1.187-1.97-1.381-0.236-0.194-0.683-0.54-0.993-0.769-5.358-3.958-11.114-10.514-14.817-16.875-1.169-2.009-1.161-2.005-3.114-1.639-1.729 0.324-9.332 1.06-13.814 1.337-20.296 1.253-43.153 0.418-57.167-2.09-2.637-0.472-3.357-0.62-4.917-1.009-8.694-2.169-10.688-4.637-5.671-7.017l0.911-0.433-1.911-0.53c-1.649-0.456-2.375-0.682-3.662-1.139-0.138-0.049-0.625 0.157-1.083 0.458m281.66-0.154c-0.271 0.113-1.354 0.45-2.408 0.749-1.055 0.298-2.104 0.599-2.334 0.667-0.38 0.114-0.316 0.174 0.747 0.692 5.766 2.807 0.604 6.172-12.497 8.146-0.733 0.11-1.738 0.268-2.234 0.351-1.751 0.293-8.945 1.04-12.599 1.308-6.951 0.51-10.04 0.595-21.667 0.595-11.669 0-13.31-0.046-21.333-0.59-3.567-0.242-9.287-0.834-12.167-1.259-0.916-0.135-1.891-0.278-2.166-0.317-0.484-0.068-0.539-2e-3 -1.717 2.048-3.736 6.503-9.238 12.618-15.757 17.511-0.994 0.746-1.857 1.359-1.917 1.362-0.478 0.023-0.708 0.481-0.472 0.938 0.96 1.857 6.038 3.879 13.279 5.289 7.039 1.371 15.794 2.345 26.667 2.969 5.089 0.292 26.744 0.292 31.833 0 12.377-0.71 21.491-1.809 29.334-3.537 4.09-0.902 7.978-2.358 9.491-3.555 1.467-1.161 1.34 0.393 1.341-16.363l1e-3 -14.837-0.513-0.622c-1.007-1.222-2.189-1.849-2.912-1.545"/>
<path d="m191.67 0.103c-4.789 0.158-13.77 0.958-18.5 1.647-0.871 0.127-2.221 0.316-3 0.419-0.78 0.104-1.979 0.288-2.667 0.408-0.687 0.121-1.775 0.309-2.417 0.417-9.17 1.552-20.3 4.396-29.166 7.454-0.917 0.316-1.93 0.653-2.25 0.748-0.321 0.095-1.221 0.419-2 0.72-0.78 0.3-2.354 0.899-3.5 1.33-2.267 0.853-6.89 2.752-8.75 3.594-0.642 0.291-1.505 0.68-1.917 0.866-8.445 3.795-18.787 9.443-25.833 14.109-1.33 0.88-2.482 1.628-2.562 1.663-0.134 0.058-3.191 2.164-4.087 2.815-0.22 0.16-0.568 0.403-0.775 0.54-2.045 1.363-11.205 8.378-11.743 8.993-0.046 0.052-0.496 0.431-1 0.84-1.152 0.936-4.455 3.808-5.667 4.927-0.504 0.465-1.554 1.435-2.333 2.156-1.83 1.692-8.059 7.921-9.751 9.751-0.721 0.779-1.691 1.829-2.156 2.333-1.119 1.212-3.991 4.515-4.927 5.667-0.409 0.504-0.788 0.954-0.84 1-0.615 0.538-7.63 9.698-8.993 11.743-0.137 0.207-0.38 0.555-0.54 0.775-0.651 0.896-2.757 3.953-2.815 4.087-0.035 0.08-0.783 1.232-1.663 2.562-4.666 7.046-10.314 17.388-14.109 25.833-0.186 0.412-0.575 1.275-0.866 1.917-0.842 1.86-2.741 6.483-3.594 8.75-0.431 1.146-1.03 2.72-1.33 3.5-0.301 0.779-0.625 1.679-0.72 2-0.095 0.32-0.432 1.333-0.748 2.25-3.041 8.817-5.863 19.843-7.443 29.083-0.473 2.764-0.678 4.034-0.823 5.083-0.088 0.642-0.277 1.992-0.418 3-0.559 3.987-0.858 6.873-1.38 13.334-0.408 5.036-0.408 22.13 0 27.166 0.624 7.728 1.363 14.088 2.207 19 0.49 2.853 0.578 3.343 0.979 5.417 0.221 1.146 0.436 2.271 0.479 2.5 0.398 2.153 2.097 9.31 2.69 11.333 0.121 0.413 0.425 1.5 0.674 2.417 0.534 1.958 1.166 4.1 1.623 5.5 0.179 0.55 0.462 1.45 0.629 2 0.267 0.878 2.114 6.189 2.778 7.987 1.551 4.197 3.767 9.503 6.095 14.596 2.761 6.042 7.423 14.651 11.471 21.185 1.914 3.091 7.253 11.001 8.408 12.457 0.119 0.151 1.061 1.4 2.093 2.775 1.031 1.375 2.07 2.728 2.308 3.006 0.237 0.278 0.657 0.796 0.932 1.15 0.481 0.618 1.306 1.643 1.889 2.345 1.404 1.69 2.941 3.515 3.017 3.582 0.052 0.046 0.617 0.684 1.257 1.417s1.508 1.708 1.93 2.167c0.422 0.458 1.318 1.433 1.991 2.166 1.567 1.709 7.82 7.962 9.666 9.666 2.149 1.984 2.798 2.571 4.25 3.838 0.733 0.639 1.371 1.203 1.417 1.251 0.045 0.049 0.795 0.684 1.666 1.412s1.621 1.365 1.667 1.415 0.908 0.75 1.917 1.557c1.008 0.806 1.947 1.559 2.087 1.672s0.703 0.539 1.25 0.947c0.548 0.409 1.091 0.832 1.206 0.941 0.116 0.109 0.866 0.668 1.667 1.242s1.494 1.089 1.54 1.144c0.18 0.217 6.232 4.388 8.75 6.029 8.775 5.723 17.758 10.629 27.166 14.84 0.825 0.369 1.896 0.85 2.38 1.067 0.484 0.218 0.919 0.396 0.966 0.396 0.046 0 0.588 0.236 1.203 0.523 0.615 0.288 1.568 0.692 2.118 0.898 0.55 0.205 2.275 0.863 3.833 1.461 5.936 2.28 9.151 3.361 15.917 5.352 6.983 2.055 17.625 4.417 24.083 5.347 1.009 0.145 2.284 0.332 2.834 0.416 4.062 0.619 8.376 1.074 15.333 1.619 5.208 0.408 21.436 0.406 26.5-2e-3 8.951-0.722 11.296-0.989 18.833-2.14 3.065-0.468 9.521-1.718 12.417-2.405 2.976-0.706 6.543-1.587 7.417-1.832 8.572-2.408 15.818-4.808 21.862-7.242 0.718-0.289 1.679-0.677 2.138-0.862 0.458-0.185 1.229-0.516 1.713-0.735s0.913-0.398 0.953-0.398c0.08 0 1.375-0.575 3.042-1.349 0.574-0.266 1.074-0.484 1.112-0.484 0.241 0 9.27-4.442 11.18-5.5 0.458-0.254 1.32-0.722 1.916-1.041 1.65-0.883 4.769-2.659 6.167-3.511 0.688-0.419 1.662-1.002 2.167-1.295 2.54-1.478 9.763-6.307 12.937-8.65 0.561-0.414 1.642-1.203 2.402-1.753s1.464-1.075 1.563-1.167c0.1-0.092 0.631-0.499 1.181-0.906 0.55-0.406 1.037-0.781 1.083-0.834 0.046-0.052 0.384-0.319 0.75-0.592 0.732-0.544 6.616-5.413 6.75-5.584 0.046-0.059 0.684-0.623 1.417-1.254s1.671-1.46 2.083-1.844c0.413-0.383 1.425-1.322 2.25-2.087 1.935-1.794 7.772-7.631 9.566-9.566 0.765-0.825 1.704-1.837 2.087-2.25 0.384-0.412 1.213-1.35 1.844-2.083s1.195-1.371 1.254-1.417c0.171-0.134 5.04-6.018 5.584-6.75 0.273-0.366 0.54-0.704 0.592-0.75 0.053-0.046 0.428-0.533 0.834-1.083 0.407-0.55 0.814-1.081 0.906-1.181 0.092-0.099 0.617-0.803 1.167-1.563s1.339-1.841 1.753-2.402c2.343-3.174 7.172-10.397 8.65-12.937 0.293-0.505 0.876-1.479 1.295-2.167 0.852-1.398 2.628-4.517 3.511-6.167 0.319-0.596 0.787-1.458 1.041-1.916 1.058-1.91 5.5-10.939 5.5-11.18 0-0.038 0.218-0.538 0.484-1.112 0.774-1.667 1.349-2.962 1.349-3.042 0-0.04 0.179-0.469 0.398-0.953s0.55-1.255 0.735-1.713c0.185-0.459 0.573-1.42 0.862-2.138 2.434-6.044 4.834-13.29 7.242-21.862 0.245-0.874 1.126-4.441 1.832-7.417 0.713-3.007 1.981-9.577 2.429-12.583 0.109-0.734 0.3-1.971 0.423-2.75 0.124-0.78 0.31-2.13 0.414-3 0.104-0.871 0.255-2.071 0.337-2.667 0.177-1.292 0.536-5.218 0.937-10.25 0.417-5.221 0.421-21.197 7e-3 -26.5-0.528-6.749-1.125-12.424-1.621-15.417-0.084-0.504-0.271-1.741-0.415-2.75-0.446-3.11-1.659-9.407-2.572-13.349-0.776-3.352-2.034-8.219-2.774-10.734-1.991-6.766-3.072-9.981-5.352-15.917-0.598-1.558-1.257-3.285-1.463-3.838-0.206-0.554-0.572-1.423-0.814-1.933-0.241-0.51-0.438-0.971-0.438-1.025 0-0.053-0.216-0.571-0.48-1.15-0.264-0.58-0.782-1.729-1.151-2.554-4.202-9.402-9.092-18.353-14.839-27.166-1.641-2.518-5.812-8.57-6.029-8.75-0.055-0.046-0.57-0.739-1.144-1.54s-1.133-1.551-1.242-1.667c-0.109-0.115-0.532-0.658-0.941-1.206-0.408-0.547-0.834-1.11-0.947-1.25s-0.866-1.079-1.672-2.087c-0.807-1.009-1.507-1.871-1.557-1.917s-0.687-0.796-1.415-1.667-1.363-1.621-1.412-1.666c-0.048-0.046-0.612-0.684-1.251-1.417-1.267-1.452-1.854-2.101-3.838-4.25-1.704-1.846-7.957-8.099-9.666-9.666-0.733-0.673-1.708-1.569-2.166-1.991-0.459-0.422-1.434-1.29-2.167-1.93s-1.371-1.205-1.417-1.257c-0.067-0.076-1.892-1.613-3.582-3.017-0.702-0.583-1.727-1.408-2.345-1.889-0.354-0.275-0.872-0.695-1.15-0.932-0.278-0.238-1.631-1.277-3.006-2.308-1.375-1.032-2.624-1.974-2.775-2.093-1.456-1.155-9.366-6.494-12.457-8.408-6.535-4.049-15.185-8.733-21.185-11.47-5.533-2.526-10.127-4.444-14.596-6.096-1.798-0.664-7.109-2.511-7.987-2.778-0.55-0.167-1.45-0.45-2-0.629-1.4-0.457-3.542-1.089-5.5-1.623-0.917-0.249-2.004-0.553-2.417-0.674-2.744-0.805-9.376-2.326-13.75-3.154-8.704-1.648-14.485-2.402-24.416-3.184-3.11-0.245-17.636-0.441-22-0.298m20.166 13.222c0.963 0.088 2.763 0.24 4 0.337 6.593 0.515 14.588 1.615 20 2.753 0.596 0.125 1.571 0.317 2.167 0.426s1.458 0.294 1.917 0.41c0.458 0.116 1.283 0.307 1.833 0.424 2.033 0.431 6.797 1.662 10.083 2.605 0.779 0.223 1.904 0.545 2.5 0.714 1.192 0.339 8.336 2.703 9 2.979 0.23 0.095 1.054 0.409 1.834 0.699 1.726 0.641 7.828 3.078 8.75 3.494 0.366 0.165 1.454 0.652 2.416 1.08 12.348 5.501 24.814 12.849 35.75 21.074 1.284 0.965 2.446 1.847 2.584 1.96 0.137 0.112 0.737 0.587 1.333 1.054s1.277 1.014 1.514 1.216 0.757 0.629 1.154 0.95c7.208 5.81 15.909 14.298 22.98 22.417 0.24 0.275 0.811 0.949 1.269 1.499 0.458 0.549 0.908 1.082 1 1.185 0.091 0.102 0.366 0.44 0.611 0.751 0.244 0.31 1.018 1.277 1.719 2.148s1.364 1.696 1.473 1.833c3.008 3.781 7.989 10.93 11.148 16 1.312 2.107 3.632 6.004 3.632 6.103 0 0.039 0.174 0.35 0.388 0.692 0.362 0.581 1.017 1.769 2.411 4.372 0.32 0.596 1.274 2.472 2.121 4.168 1.356 2.719 1.919 3.909 3.696 7.827 0.522 1.152 2.81 6.632 3.116 7.464 0.126 0.343 0.64 1.712 1.141 3.041 1.693 4.482 4.332 12.755 5.343 16.75 0.14 0.55 0.375 1.45 0.523 2 0.984 3.658 2.572 11.223 3.252 15.5 0.488 3.064 0.674 4.299 0.828 5.5 0.678 5.275 0.791 6.387 1.295 12.667 0.402 5.009 0.4 20.194-3e-3 25.166-0.777 9.591-1.39 14.336-2.951 22.834-0.557 3.029-1.892 8.951-2.556 11.333-0.128 0.458-0.326 1.208-0.441 1.667-1.069 4.282-4.3 14.257-5.991 18.5-3.155 7.914-6.736 15.785-9.294 20.429-0.274 0.497-0.86 1.579-1.302 2.404-0.441 0.825-1.089 1.97-1.439 2.545-0.351 0.574-0.637 1.081-0.637 1.126 0 0.046-0.375 0.681-0.833 1.412-0.459 0.732-0.834 1.371-0.834 1.421 0 0.113-2.035 3.343-4.147 6.579-1.572 2.411-4.553 6.651-6.209 8.834-2.933 3.865-3.198 4.205-4.946 6.333-0.49 0.596-1.013 1.233-1.163 1.417-0.582 0.712-2.94 3.504-3.027 3.583-0.05 0.046-0.384 0.421-0.743 0.833-3.738 4.303-11.962 12.527-16.265 16.265-0.412 0.359-0.787 0.693-0.833 0.743-0.079 0.087-2.871 2.445-3.583 3.027-0.184 0.15-0.821 0.673-1.417 1.163-2.128 1.748-2.468 2.013-6.333 4.946-2.183 1.656-6.423 4.637-8.834 6.209-3.236 2.112-6.466 4.147-6.579 4.147-0.05 0-0.689 0.375-1.421 0.834-0.731 0.458-1.366 0.833-1.412 0.833-0.045 0-0.552 0.286-1.126 0.637-0.575 0.35-1.72 0.998-2.545 1.439-0.825 0.442-1.901 1.024-2.391 1.294s-1.99 1.039-3.333 1.71c-5.644 2.818-10.161 4.822-17.109 7.592-4.243 1.691-14.218 4.922-18.5 5.991-0.459 0.115-1.209 0.313-1.667 0.441-6.32 1.761-16.358 3.628-24.917 4.636-8 0.941-12.029 1.155-21.833 1.155-9.626 0-14.883-0.277-21.917-1.155-4.446-0.555-4.693-0.59-8.833-1.249-10.723-1.705-23.93-5.221-34.25-9.118-1.329-0.501-2.698-1.015-3.041-1.141-0.832-0.306-6.312-2.594-7.464-3.116-3.918-1.777-5.108-2.34-7.827-3.696-1.696-0.847-3.572-1.801-4.168-2.121-2.603-1.394-3.791-2.049-4.372-2.411-0.342-0.214-0.652-0.388-0.69-0.388-0.249 0-7-4.157-10.521-6.479-5.025-3.313-12.61-8.924-15.688-11.604-0.106-0.092-0.332-0.28-0.504-0.417-5.729-4.595-14.841-13.395-20.54-19.836-0.769-0.87-1.596-1.806-1.838-2.081s-0.963-1.137-1.601-1.916c-0.638-0.78-1.236-1.501-1.328-1.603-0.28-0.309-1.181-1.419-2.081-2.564-0.469-0.596-0.943-1.196-1.053-1.334-10.731-13.416-21.143-32.08-27.612-49.499-0.29-0.78-0.603-1.602-0.696-1.829-0.271-0.66-2.639-7.817-2.979-9.005-0.171-0.596-0.494-1.721-0.717-2.5-0.943-3.286-2.174-8.05-2.605-10.083-0.117-0.55-0.308-1.375-0.424-1.833-0.116-0.459-0.301-1.321-0.41-1.917s-0.301-1.571-0.426-2.167c-0.945-4.494-2.046-12.084-2.576-17.75-0.677-7.229-0.736-8.688-0.738-18.083-2e-3 -11.033 0.248-15.051 1.58-25.417 0.9-6.999 2.962-17.053 5.008-24.416 0.958-3.449 3.711-12.118 4.286-13.5 0.096-0.229 0.513-1.327 0.928-2.44 2.474-6.641 7.05-16.797 9.826-21.81 0.203-0.367 0.634-1.154 0.958-1.75 0.526-0.967 2.797-4.977 3.228-5.698 0.093-0.155 0.42-0.712 0.729-1.239 0.308-0.527 1.32-2.149 2.25-3.605 0.929-1.456 1.764-2.775 1.856-2.931 1.042-1.781 7.935-11.267 9.902-13.629 0.237-0.284 0.544-0.66 0.681-0.834 5.44-6.892 14.691-16.554 22.084-23.064 0.55-0.485 1.225-1.078 1.5-1.318 0.559-0.488 4.321-3.627 4.814-4.016 0.174-0.137 0.55-0.444 0.834-0.681 4.335-3.61 14.747-10.844 20.154-14.003 0.533-0.311 1.095-0.641 1.25-0.734 0.721-0.431 4.731-2.702 5.698-3.228 0.596-0.324 1.383-0.755 1.75-0.958 5.013-2.776 15.169-7.352 21.81-9.826 1.113-0.415 2.211-0.832 2.44-0.928 0.493-0.205 7.703-2.591 9.5-3.144 7.963-2.448 20.17-5.09 28.416-6.15 4.706-0.605 5.234-0.66 11.5-1.203 5.341-0.464 21.354-0.559 25.75-0.153m-92.5 100.68v37h27.75 27.75v-6.25-6.25h-20.666-20.667v-9.25-9.25h18 18v-6.25-6.25h-18-18v-9.083-9.084h20 20v-6.166-6.167h-27.083-27.084v37m61.5-30.667v6.334h11.5 11.5v30.666 30.667h7.167 7.167v-30.667-30.666h11.5 11.5v-6.334-6.333h-30.167-30.167v6.333m70.167 30.667v37h23.083 23.084v-6.5-6.5h-15.917-15.917v-30.5-30.5h-7.166-7.167v37m-147.92 56.431c-0.458 0.032-2.671 0.137-4.916 0.234-7.557 0.327-12.003 0.701-20 1.684-10.545 1.295-18.778 3.676-20.984 6.069l-0.683 0.741v14.884c0 16.125-0.055 15.065 0.828 15.969 1.772 1.816 7.591 3.723 15.422 5.054 3.14 0.534 4.553 0.747 6.167 0.93 0.916 0.104 2.566 0.295 3.666 0.423 1.1 0.129 2.975 0.312 4.167 0.407s3.112 0.251 4.267 0.345c10.519 0.865 32.944 0.868 43.023 7e-3 1.032-0.088 3.039-0.252 4.46-0.363 1.421-0.112 3.47-0.322 4.553-0.467l1.97-0.265 0.628-1.501c0.955-2.284 2.607-5.472 3.928-7.582 0.668-1.065 1.67-2.582 1.762-2.667 0.05-0.046 0.549-0.721 1.109-1.5 0.559-0.779 1.156-1.579 1.325-1.777 0.17-0.199 0.451-0.536 0.626-0.75 3.382-4.137 9.005-9.101 13.474-11.895l0.791-0.494v-4.22c1e-3 -4.444-0.017-4.564-0.811-5.418-2.107-2.264-10.549-4.664-20.855-5.93-7.565-0.929-10.1-1.151-19.5-1.701-2.877-0.169-22.571-0.343-24.417-0.217m173.17 0.247c-23.421 0.895-40.084 3.832-44.042 7.764l-0.875 0.87 4e-3 4.719 3e-3 4.719 1.773 1.25c0.975 0.688 1.855 1.326 1.955 1.419s0.52 0.43 0.932 0.748c6.784 5.239 13.751 14.45 17.151 22.678l0.522 1.261 2.205 0.279c3.699 0.468 9.52 0.955 15.705 1.316 4.975 0.289 26.692 0.289 31.667 0 5.832-0.34 12.197-0.865 15.583-1.285 1.054-0.131 2.592-0.321 3.417-0.422 2.069-0.253 5.339-0.795 8.167-1.354 2.349-0.464 6.551-1.583 7.833-2.086 1.415-0.555 3.442-1.564 3.786-1.885 0.198-0.185 0.411-0.336 0.473-0.336s0.31-0.285 0.552-0.634l0.439-0.634v-14.876-14.877l-0.875-0.87c-1.004-0.997-2.897-1.997-5.125-2.706-0.413-0.131-0.989-0.316-1.281-0.411-1.963-0.637-7.4-1.8-10.469-2.24-1.008-0.145-1.946-0.295-2.083-0.333-0.455-0.127-6.16-0.776-11-1.251-8.338-0.818-26.063-1.219-36.417-0.823m-147.17 3.232c7.662 0.481 11.276 0.798 15.334 1.347 1.008 0.136 2.433 0.327 3.166 0.424 1.229 0.163 2.365 0.355 5 0.843 21.683 4.022 11.719 10.329-19.833 12.553-11.656 0.822-31.044 0.789-41.167-0.071-1.1-0.094-2.975-0.252-4.166-0.352-17.879-1.499-28.942-5.13-25.321-8.31 1.604-1.408 5.889-2.922 10.821-3.822 2.96-0.541 3.784-0.68 5-0.841 0.733-0.097 2.158-0.286 3.166-0.419 5.517-0.733 13.945-1.378 20.917-1.602 6.091-0.195 22.384-0.045 27.083 0.25m172.83 0.071c1.558 0.097 4.108 0.256 5.666 0.354 4.062 0.254 8.911 0.756 14.417 1.49 13.221 1.763 19.429 5.057 14.917 7.915-2.66 1.684-9.378 3.359-17.084 4.26-0.779 0.091-1.566 0.199-1.75 0.24-0.968 0.215-9.976 0.98-15.25 1.294-4.868 0.291-26.279 0.291-31.25 1e-3 -14.52-0.848-24.71-2.29-30.867-4.367-7.457-2.515-6.204-5.394 3.375-7.756 1.34-0.33 2.823-0.666 3.297-0.747 9.175-1.557 15.251-2.191 25.529-2.666 2.108-0.097 4.208-0.203 4.666-0.234 1.828-0.126 21.681 0.05 24.334 0.216m-107.17 13.123c-9.871 0.783-21.315 5.621-28.5 12.049-14.796 13.238-20.714 31.728-16.22 50.68 3.396 14.325 13.703 27.091 27.034 33.486 3.159 1.516 4.81 2.153 8.436 3.26 6.161 1.881 14.894 2.371 22 1.235 12.098-1.934 23.76-8.68 31.232-18.064 0.438-0.55 0.918-1.15 1.066-1.333 8.076-9.954 11.894-25.492 9.605-39.084-1.015-6.021-3.398-12.732-5.964-16.798-0.242-0.382-0.439-0.736-0.439-0.786 0-0.196-3.366-5.091-3.911-5.687-0.095-0.103-0.51-0.604-0.922-1.113-2.459-3.031-8.599-8.414-11.433-10.022-0.266-0.151-0.972-0.572-1.567-0.935-4.495-2.742-10.914-5.191-16.084-6.136-3.639-0.666-4.277-0.721-8.833-0.769-2.567-0.027-5.042-0.019-5.5 0.017m-12.722 22.66c0.281 0.146 4.295 4.05 8.919 8.677l8.408 8.413 8.364-8.372c9.164-9.171 8.945-8.98 10.299-8.981 1.28-1e-3 1.594 0.237 5.569 4.23 5.776 5.803 6.23 4.339-4.766 15.354-4.668 4.677-8.488 8.558-8.488 8.625s3.745 3.866 8.322 8.442c9.461 9.458 9.631 9.684 8.681 11.523-0.38 0.737-7.379 7.649-8.097 7.997-1.905 0.923-1.8 1.002-11.447-8.634l-8.457-8.449-8.543 8.524c-11.102 11.078-9.637 10.658-15.739 4.515-3.944-3.971-4.238-4.392-3.96-5.684 0.221-1.027 0.649-1.495 8.977-9.812l8.412-8.401-8.256-8.241c-9.052-9.036-9.115-9.108-9.115-10.52 0-1.222 0.085-1.332 4.204-5.445 4.263-4.258 4.978-4.658 6.713-3.761m-123.81 6.576c-1.888 1.234-1.716-0.43-1.716 16.611v14.829l0.453 0.581c1.142 1.465 4.722 3.084 9.13 4.131 0.459 0.109 1.246 0.297 1.75 0.419 0.504 0.121 1.404 0.309 2 0.418s1.459 0.273 1.917 0.364c2.371 0.473 9.962 1.485 13.5 1.8 10.318 0.92 14.426 1.082 27.333 1.083 13.659 0 18.907-0.235 29.89-1.339 0.984-0.099 1.049-0.131 0.943-0.463-0.92-2.894-1.847-7.426-2.273-11.107-0.45-3.883-0.153-12.564 0.533-15.627 0.222-0.987 0.281-0.964-1.971-0.739-18.783 1.884-44.086 1.516-61.372-0.891-1.93-0.269-5.827-0.949-7-1.221-2.557-0.593-3.253-0.78-4.78-1.279-5.708-1.868-6.622-3.845-2.726-5.896l1.237-0.651-0.657-0.175c-0.361-0.096-1.07-0.281-1.574-0.412s-1.499-0.434-2.212-0.674c-0.712-0.239-1.312-0.435-1.334-0.435s-0.504 0.303-1.071 0.673m280.53 0.075c-0.917 0.298-2.145 0.684-2.729 0.858l-1.063 0.316 1.276 0.648c5.701 2.893-0.193 6.353-14.067 8.258-4.977 0.684-5.118 0.7-10.084 1.184-14.488 1.411-39.06 1.249-53.094-0.35-2.264-0.258-2.129-0.306-1.965 0.713 0.743 4.631 0.976 11.685 0.51 15.458-0.514 4.153-1.107 7.272-1.883 9.901-0.268 0.909-0.462 1.677-0.432 1.707 0.073 0.073 2.68 0.35 5.281 0.56 1.146 0.093 2.271 0.205 2.5 0.248 6.107 1.158 37.977 1.112 49.667-0.07 0.87-0.088 2.483-0.245 3.583-0.348 13.608-1.274 24.214-4.011 26.671-6.881l0.579-0.677v-14.86-14.86l-0.458-0.589c-0.476-0.611-2.127-1.813-2.444-1.778-0.1 0.011-0.931 0.264-1.848 0.562m-280.33 38.648c-0.459 0.301-1.077 0.825-1.375 1.165l-0.542 0.617v14.849c0 14.597 6e-3 14.859 0.336 15.394 1.306 2.113 7.634 4.331 16.331 5.724 0.595 0.096 1.758 0.284 2.583 0.418s2.25 0.329 3.167 0.433c0.916 0.104 2.566 0.294 3.666 0.422 16.856 1.96 43.145 1.96 60 0 1.1-0.128 2.75-0.318 3.667-0.422s2.342-0.299 3.167-0.433 1.987-0.322 2.583-0.418c7.394-1.184 13.094-2.966 15.542-4.857 0.837-0.647 0.844-0.631-0.917-1.805-0.848-0.566-1.735-1.187-1.97-1.381-0.236-0.194-0.683-0.54-0.993-0.769-5.358-3.958-11.114-10.514-14.817-16.875-1.169-2.009-1.161-2.005-3.114-1.639-1.729 0.324-9.332 1.06-13.814 1.337-20.296 1.253-43.153 0.418-57.167-2.09-2.637-0.472-3.357-0.62-4.917-1.009-8.694-2.169-10.688-4.637-5.671-7.017l0.911-0.433-1.911-0.53c-1.649-0.456-2.375-0.682-3.662-1.139-0.138-0.049-0.625 0.157-1.083 0.458m281.66-0.154c-0.271 0.113-1.354 0.45-2.408 0.749-1.055 0.298-2.104 0.599-2.334 0.667-0.38 0.114-0.316 0.174 0.747 0.692 5.766 2.807 0.604 6.172-12.497 8.146-0.733 0.11-1.738 0.268-2.234 0.351-1.751 0.293-8.945 1.04-12.599 1.308-6.951 0.51-10.04 0.595-21.667 0.595-11.669 0-13.31-0.046-21.333-0.59-3.567-0.242-9.287-0.834-12.167-1.259-0.916-0.135-1.891-0.278-2.166-0.317-0.484-0.068-0.539-2e-3 -1.717 2.048-3.736 6.503-9.238 12.618-15.757 17.511-0.994 0.746-1.857 1.359-1.917 1.362-0.478 0.023-0.708 0.481-0.472 0.938 0.96 1.857 6.038 3.879 13.279 5.289 7.039 1.371 15.794 2.345 26.667 2.969 5.089 0.292 26.744 0.292 31.833 0 12.377-0.71 21.491-1.809 29.334-3.537 4.09-0.902 7.978-2.358 9.491-3.555 1.467-1.161 1.34 0.393 1.341-16.363l1e-3 -14.837-0.513-0.622c-1.007-1.222-2.189-1.849-2.912-1.545"/>
<path d="m191.67 0.103c-4.789 0.158-13.77 0.958-18.5 1.647-0.871 0.127-2.221 0.316-3 0.419-0.78 0.104-1.979 0.288-2.667 0.408-0.687 0.121-1.775 0.309-2.417 0.417-9.17 1.552-20.3 4.396-29.166 7.454-0.917 0.316-1.93 0.653-2.25 0.748-0.321 0.095-1.221 0.419-2 0.72-0.78 0.3-2.354 0.899-3.5 1.33-2.267 0.853-6.89 2.752-8.75 3.594-0.642 0.291-1.505 0.68-1.917 0.866-8.445 3.795-18.787 9.443-25.833 14.109-1.33 0.88-2.482 1.628-2.562 1.663-0.134 0.058-3.191 2.164-4.087 2.815-0.22 0.16-0.568 0.403-0.775 0.54-2.045 1.363-11.205 8.378-11.743 8.993-0.046 0.052-0.496 0.431-1 0.84-1.152 0.936-4.455 3.808-5.667 4.927-0.504 0.465-1.554 1.435-2.333 2.156-1.83 1.692-8.059 7.921-9.751 9.751-0.721 0.779-1.691 1.829-2.156 2.333-1.119 1.212-3.991 4.515-4.927 5.667-0.409 0.504-0.788 0.954-0.84 1-0.615 0.538-7.63 9.698-8.993 11.743-0.137 0.207-0.38 0.555-0.54 0.775-0.651 0.896-2.757 3.953-2.815 4.087-0.035 0.08-0.783 1.232-1.663 2.562-4.666 7.046-10.314 17.388-14.109 25.833-0.186 0.412-0.575 1.275-0.866 1.917-0.842 1.86-2.741 6.483-3.594 8.75-0.431 1.146-1.03 2.72-1.33 3.5-0.301 0.779-0.625 1.679-0.72 2-0.095 0.32-0.432 1.333-0.748 2.25-3.041 8.817-5.863 19.843-7.443 29.083-0.473 2.764-0.678 4.034-0.823 5.083-0.088 0.642-0.277 1.992-0.418 3-0.559 3.987-0.858 6.873-1.38 13.334-0.408 5.036-0.408 22.13 0 27.166 0.624 7.728 1.363 14.088 2.207 19 0.49 2.853 0.578 3.343 0.979 5.417 0.221 1.146 0.436 2.271 0.479 2.5 0.398 2.153 2.097 9.31 2.69 11.333 0.121 0.413 0.425 1.5 0.674 2.417 0.534 1.958 1.166 4.1 1.623 5.5 0.179 0.55 0.462 1.45 0.629 2 0.267 0.878 2.114 6.189 2.778 7.987 1.551 4.197 3.767 9.503 6.095 14.596 2.761 6.042 7.423 14.651 11.471 21.185 1.914 3.091 7.253 11.001 8.408 12.457 0.119 0.151 1.061 1.4 2.093 2.775 1.031 1.375 2.07 2.728 2.308 3.006 0.237 0.278 0.657 0.796 0.932 1.15 0.481 0.618 1.306 1.643 1.889 2.345 1.404 1.69 2.941 3.515 3.017 3.582 0.052 0.046 0.617 0.684 1.257 1.417s1.508 1.708 1.93 2.167c0.422 0.458 1.318 1.433 1.991 2.166 1.567 1.709 7.82 7.962 9.666 9.666 2.149 1.984 2.798 2.571 4.25 3.838 0.733 0.639 1.371 1.203 1.417 1.251 0.045 0.049 0.795 0.684 1.666 1.412s1.621 1.365 1.667 1.415 0.908 0.75 1.917 1.557c1.008 0.806 1.947 1.559 2.087 1.672s0.703 0.539 1.25 0.947c0.548 0.409 1.091 0.832 1.206 0.941 0.116 0.109 0.866 0.668 1.667 1.242s1.494 1.089 1.54 1.144c0.18 0.217 6.232 4.388 8.75 6.029 8.775 5.723 17.758 10.629 27.166 14.84 0.825 0.369 1.896 0.85 2.38 1.067 0.484 0.218 0.919 0.396 0.966 0.396 0.046 0 0.588 0.236 1.203 0.523 0.615 0.288 1.568 0.692 2.118 0.898 0.55 0.205 2.275 0.863 3.833 1.461 5.936 2.28 9.151 3.361 15.917 5.352 6.983 2.055 17.625 4.417 24.083 5.347 1.009 0.145 2.284 0.332 2.834 0.416 4.062 0.619 8.376 1.074 15.333 1.619 5.208 0.408 21.436 0.406 26.5-2e-3 8.951-0.722 11.296-0.989 18.833-2.14 3.065-0.468 9.521-1.718 12.417-2.405 2.976-0.706 6.543-1.587 7.417-1.832 8.572-2.408 15.818-4.808 21.862-7.242 0.718-0.289 1.679-0.677 2.138-0.862 0.458-0.185 1.229-0.516 1.713-0.735s0.913-0.398 0.953-0.398c0.08 0 1.375-0.575 3.042-1.349 0.574-0.266 1.074-0.484 1.112-0.484 0.241 0 9.27-4.442 11.18-5.5 0.458-0.254 1.32-0.722 1.916-1.041 1.65-0.883 4.769-2.659 6.167-3.511 0.688-0.419 1.662-1.002 2.167-1.295 2.54-1.478 9.763-6.307 12.937-8.65 0.561-0.414 1.642-1.203 2.402-1.753s1.464-1.075 1.563-1.167c0.1-0.092 0.631-0.499 1.181-0.906 0.55-0.406 1.037-0.781 1.083-0.834 0.046-0.052 0.384-0.319 0.75-0.592 0.732-0.544 6.616-5.413 6.75-5.584 0.046-0.059 0.684-0.623 1.417-1.254s1.671-1.46 2.083-1.844c0.413-0.383 1.425-1.322 2.25-2.087 1.935-1.794 7.772-7.631 9.566-9.566 0.765-0.825 1.704-1.837 2.087-2.25 0.384-0.412 1.213-1.35 1.844-2.083s1.195-1.371 1.254-1.417c0.171-0.134 5.04-6.018 5.584-6.75 0.273-0.366 0.54-0.704 0.592-0.75 0.053-0.046 0.428-0.533 0.834-1.083 0.407-0.55 0.814-1.081 0.906-1.181 0.092-0.099 0.617-0.803 1.167-1.563s1.339-1.841 1.753-2.402c2.343-3.174 7.172-10.397 8.65-12.937 0.293-0.505 0.876-1.479 1.295-2.167 0.852-1.398 2.628-4.517 3.511-6.167 0.319-0.596 0.787-1.458 1.041-1.916 1.058-1.91 5.5-10.939 5.5-11.18 0-0.038 0.218-0.538 0.484-1.112 0.774-1.667 1.349-2.962 1.349-3.042 0-0.04 0.179-0.469 0.398-0.953s0.55-1.255 0.735-1.713c0.185-0.459 0.573-1.42 0.862-2.138 2.434-6.044 4.834-13.29 7.242-21.862 0.245-0.874 1.126-4.441 1.832-7.417 0.713-3.007 1.981-9.577 2.429-12.583 0.109-0.734 0.3-1.971 0.423-2.75 0.124-0.78 0.31-2.13 0.414-3 0.104-0.871 0.255-2.071 0.337-2.667 0.177-1.292 0.536-5.218 0.937-10.25 0.417-5.221 0.421-21.197 7e-3 -26.5-0.528-6.749-1.125-12.424-1.621-15.417-0.084-0.504-0.271-1.741-0.415-2.75-0.446-3.11-1.659-9.407-2.572-13.349-0.776-3.352-2.034-8.219-2.774-10.734-1.991-6.766-3.072-9.981-5.352-15.917-0.598-1.558-1.257-3.285-1.463-3.838-0.206-0.554-0.572-1.423-0.814-1.933-0.241-0.51-0.438-0.971-0.438-1.025 0-0.053-0.216-0.571-0.48-1.15-0.264-0.58-0.782-1.729-1.151-2.554-4.202-9.402-9.092-18.353-14.839-27.166-1.641-2.518-5.812-8.57-6.029-8.75-0.055-0.046-0.57-0.739-1.144-1.54s-1.133-1.551-1.242-1.667c-0.109-0.115-0.532-0.658-0.941-1.206-0.408-0.547-0.834-1.11-0.947-1.25s-0.866-1.079-1.672-2.087c-0.807-1.009-1.507-1.871-1.557-1.917s-0.687-0.796-1.415-1.667-1.363-1.621-1.412-1.666c-0.048-0.046-0.612-0.684-1.251-1.417-1.267-1.452-1.854-2.101-3.838-4.25-1.704-1.846-7.957-8.099-9.666-9.666-0.733-0.673-1.708-1.569-2.166-1.991-0.459-0.422-1.434-1.29-2.167-1.93s-1.371-1.205-1.417-1.257c-0.067-0.076-1.892-1.613-3.582-3.017-0.702-0.583-1.727-1.408-2.345-1.889-0.354-0.275-0.872-0.695-1.15-0.932-0.278-0.238-1.631-1.277-3.006-2.308-1.375-1.032-2.624-1.974-2.775-2.093-1.456-1.155-9.366-6.494-12.457-8.408-6.535-4.049-15.185-8.733-21.185-11.47-5.533-2.526-10.127-4.444-14.596-6.096-1.798-0.664-7.109-2.511-7.987-2.778-0.55-0.167-1.45-0.45-2-0.629-1.4-0.457-3.542-1.089-5.5-1.623-0.917-0.249-2.004-0.553-2.417-0.674-2.744-0.805-9.376-2.326-13.75-3.154-8.704-1.648-14.485-2.402-24.416-3.184-3.11-0.245-17.636-0.441-22-0.298m20.166 13.222c0.963 0.088 2.763 0.24 4 0.337 6.593 0.515 14.588 1.615 20 2.753 0.596 0.125 1.571 0.317 2.167 0.426s1.458 0.294 1.917 0.41c0.458 0.116 1.283 0.307 1.833 0.424 2.033 0.431 6.797 1.662 10.083 2.605 0.779 0.223 1.904 0.545 2.5 0.714 1.192 0.339 8.336 2.703 9 2.979 0.23 0.095 1.054 0.409 1.834 0.699 1.726 0.641 7.828 3.078 8.75 3.494 0.366 0.165 1.454 0.652 2.416 1.08 12.348 5.501 24.814 12.849 35.75 21.074 1.284 0.965 2.446 1.847 2.584 1.96 0.137 0.112 0.737 0.587 1.333 1.054s1.277 1.014 1.514 1.216 0.757 0.629 1.154 0.95c7.208 5.81 15.909 14.298 22.98 22.417 0.24 0.275 0.811 0.949 1.269 1.499 0.458 0.549 0.908 1.082 1 1.185 0.091 0.102 0.366 0.44 0.611 0.751 0.244 0.31 1.018 1.277 1.719 2.148s1.364 1.696 1.473 1.833c3.008 3.781 7.989 10.93 11.148 16 1.312 2.107 3.632 6.004 3.632 6.103 0 0.039 0.174 0.35 0.388 0.692 0.362 0.581 1.017 1.769 2.411 4.372 0.32 0.596 1.274 2.472 2.121 4.168 1.356 2.719 1.919 3.909 3.696 7.827 0.522 1.152 2.81 6.632 3.116 7.464 0.126 0.343 0.64 1.712 1.141 3.041 1.693 4.482 4.332 12.755 5.343 16.75 0.14 0.55 0.375 1.45 0.523 2 0.984 3.658 2.572 11.223 3.252 15.5 0.488 3.064 0.674 4.299 0.828 5.5 0.678 5.275 0.791 6.387 1.295 12.667 0.402 5.009 0.4 20.194-3e-3 25.166-0.777 9.591-1.39 14.336-2.951 22.834-0.557 3.029-1.892 8.951-2.556 11.333-0.128 0.458-0.326 1.208-0.441 1.667-1.069 4.282-4.3 14.257-5.991 18.5-3.155 7.914-6.736 15.785-9.294 20.429-0.274 0.497-0.86 1.579-1.302 2.404-0.441 0.825-1.089 1.97-1.439 2.545-0.351 0.574-0.637 1.081-0.637 1.126 0 0.046-0.375 0.681-0.833 1.412-0.459 0.732-0.834 1.371-0.834 1.421 0 0.113-2.035 3.343-4.147 6.579-1.572 2.411-4.553 6.651-6.209 8.834-2.933 3.865-3.198 4.205-4.946 6.333-0.49 0.596-1.013 1.233-1.163 1.417-0.582 0.712-2.94 3.504-3.027 3.583-0.05 0.046-0.384 0.421-0.743 0.833-3.738 4.303-11.962 12.527-16.265 16.265-0.412 0.359-0.787 0.693-0.833 0.743-0.079 0.087-2.871 2.445-3.583 3.027-0.184 0.15-0.821 0.673-1.417 1.163-2.128 1.748-2.468 2.013-6.333 4.946-2.183 1.656-6.423 4.637-8.834 6.209-3.236 2.112-6.466 4.147-6.579 4.147-0.05 0-0.689 0.375-1.421 0.834-0.731 0.458-1.366 0.833-1.412 0.833-0.045 0-0.552 0.286-1.126 0.637-0.575 0.35-1.72 0.998-2.545 1.439-0.825 0.442-1.901 1.024-2.391 1.294s-1.99 1.039-3.333 1.71c-5.644 2.818-10.161 4.822-17.109 7.592-4.243 1.691-14.218 4.922-18.5 5.991-0.459 0.115-1.209 0.313-1.667 0.441-6.32 1.761-16.358 3.628-24.917 4.636-8 0.941-12.029 1.155-21.833 1.155-9.626 0-14.883-0.277-21.917-1.155-4.446-0.555-4.693-0.59-8.833-1.249-10.723-1.705-23.93-5.221-34.25-9.118-1.329-0.501-2.698-1.015-3.041-1.141-0.832-0.306-6.312-2.594-7.464-3.116-3.918-1.777-5.108-2.34-7.827-3.696-1.696-0.847-3.572-1.801-4.168-2.121-2.603-1.394-3.791-2.049-4.372-2.411-0.342-0.214-0.652-0.388-0.69-0.388-0.249 0-7-4.157-10.521-6.479-5.025-3.313-12.61-8.924-15.688-11.604-0.106-0.092-0.332-0.28-0.504-0.417-5.729-4.595-14.841-13.395-20.54-19.836-0.769-0.87-1.596-1.806-1.838-2.081s-0.963-1.137-1.601-1.916c-0.638-0.78-1.236-1.501-1.328-1.603-0.28-0.309-1.181-1.419-2.081-2.564-0.469-0.596-0.943-1.196-1.053-1.334-10.731-13.416-21.143-32.08-27.612-49.499-0.29-0.78-0.603-1.602-0.696-1.829-0.271-0.66-2.639-7.817-2.979-9.005-0.171-0.596-0.494-1.721-0.717-2.5-0.943-3.286-2.174-8.05-2.605-10.083-0.117-0.55-0.308-1.375-0.424-1.833-0.116-0.459-0.301-1.321-0.41-1.917s-0.301-1.571-0.426-2.167c-0.945-4.494-2.046-12.084-2.576-17.75-0.677-7.229-0.736-8.688-0.738-18.083-2e-3 -11.033 0.248-15.051 1.58-25.417 0.9-6.999 2.962-17.053 5.008-24.416 0.958-3.449 3.711-12.118 4.286-13.5 0.096-0.229 0.513-1.327 0.928-2.44 2.474-6.641 7.05-16.797 9.826-21.81 0.203-0.367 0.634-1.154 0.958-1.75 0.526-0.967 2.797-4.977 3.228-5.698 0.093-0.155 0.42-0.712 0.729-1.239 0.308-0.527 1.32-2.149 2.25-3.605 0.929-1.456 1.764-2.775 1.856-2.931 1.042-1.781 7.935-11.267 9.902-13.629 0.237-0.284 0.544-0.66 0.681-0.834 5.44-6.892 14.691-16.554 22.084-23.064 0.55-0.485 1.225-1.078 1.5-1.318 0.559-0.488 4.321-3.627 4.814-4.016 0.174-0.137 0.55-0.444 0.834-0.681 4.335-3.61 14.747-10.844 20.154-14.003 0.533-0.311 1.095-0.641 1.25-0.734 0.721-0.431 4.731-2.702 5.698-3.228 0.596-0.324 1.383-0.755 1.75-0.958 5.013-2.776 15.169-7.352 21.81-9.826 1.113-0.415 2.211-0.832 2.44-0.928 0.493-0.205 7.703-2.591 9.5-3.144 7.963-2.448 20.17-5.09 28.416-6.15 4.706-0.605 5.234-0.66 11.5-1.203 5.341-0.464 21.354-0.559 25.75-0.153m-92.5 100.68v37h27.75 27.75v-6.25-6.25h-20.666-20.667v-9.25-9.25h18 18v-6.25-6.25h-18-18v-9.083-9.084h20 20v-6.166-6.167h-27.083-27.084v37m61.5-30.667v6.334h11.5 11.5v30.666 30.667h7.167 7.167v-30.667-30.666h11.5 11.5v-6.334-6.333h-30.167-30.167v6.333m70.167 30.667v37h23.083 23.084v-6.5-6.5h-15.917-15.917v-30.5-30.5h-7.166-7.167v37m-147.92 56.431c-0.458 0.032-2.671 0.137-4.916 0.234-7.557 0.327-12.003 0.701-20 1.684-10.545 1.295-18.778 3.676-20.984 6.069l-0.683 0.741v14.884c0 16.125-0.055 15.065 0.828 15.969 1.772 1.816 7.591 3.723 15.422 5.054 3.14 0.534 4.553 0.747 6.167 0.93 0.916 0.104 2.566 0.295 3.666 0.423 1.1 0.129 2.975 0.312 4.167 0.407s3.112 0.251 4.267 0.345c10.519 0.865 32.944 0.868 43.023 7e-3 1.032-0.088 3.039-0.252 4.46-0.363 1.421-0.112 3.47-0.322 4.553-0.467l1.97-0.265 0.628-1.501c0.955-2.284 2.607-5.472 3.928-7.582 0.668-1.065 1.67-2.582 1.762-2.667 0.05-0.046 0.549-0.721 1.109-1.5 0.559-0.779 1.156-1.579 1.325-1.777 0.17-0.199 0.451-0.536 0.626-0.75 3.382-4.137 9.005-9.101 13.474-11.895l0.791-0.494v-4.22c1e-3 -4.444-0.017-4.564-0.811-5.418-2.107-2.264-10.549-4.664-20.855-5.93-7.565-0.929-10.1-1.151-19.5-1.701-2.877-0.169-22.571-0.343-24.417-0.217m173.17 0.247c-23.421 0.895-40.084 3.832-44.042 7.764l-0.875 0.87 4e-3 4.719 3e-3 4.719 1.773 1.25c0.975 0.688 1.855 1.326 1.955 1.419s0.52 0.43 0.932 0.748c6.784 5.239 13.751 14.45 17.151 22.678l0.522 1.261 2.205 0.279c3.699 0.468 9.52 0.955 15.705 1.316 4.975 0.289 26.692 0.289 31.667 0 5.832-0.34 12.197-0.865 15.583-1.285 1.054-0.131 2.592-0.321 3.417-0.422 2.069-0.253 5.339-0.795 8.167-1.354 2.349-0.464 6.551-1.583 7.833-2.086 1.415-0.555 3.442-1.564 3.786-1.885 0.198-0.185 0.411-0.336 0.473-0.336s0.31-0.285 0.552-0.634l0.439-0.634v-14.876-14.877l-0.875-0.87c-1.004-0.997-2.897-1.997-5.125-2.706-0.413-0.131-0.989-0.316-1.281-0.411-1.963-0.637-7.4-1.8-10.469-2.24-1.008-0.145-1.946-0.295-2.083-0.333-0.455-0.127-6.16-0.776-11-1.251-8.338-0.818-26.063-1.219-36.417-0.823m-147.17 3.232c7.662 0.481 11.276 0.798 15.334 1.347 1.008 0.136 2.433 0.327 3.166 0.424 1.229 0.163 2.365 0.355 5 0.843 21.683 4.022 11.719 10.329-19.833 12.553-11.656 0.822-31.044 0.789-41.167-0.071-1.1-0.094-2.975-0.252-4.166-0.352-17.879-1.499-28.942-5.13-25.321-8.31 1.604-1.408 5.889-2.922 10.821-3.822 2.96-0.541 3.784-0.68 5-0.841 0.733-0.097 2.158-0.286 3.166-0.419 5.517-0.733 13.945-1.378 20.917-1.602 6.091-0.195 22.384-0.045 27.083 0.25m172.83 0.071c1.558 0.097 4.108 0.256 5.666 0.354 4.062 0.254 8.911 0.756 14.417 1.49 13.221 1.763 19.429 5.057 14.917 7.915-2.66 1.684-9.378 3.359-17.084 4.26-0.779 0.091-1.566 0.199-1.75 0.24-0.968 0.215-9.976 0.98-15.25 1.294-4.868 0.291-26.279 0.291-31.25 1e-3 -14.52-0.848-24.71-2.29-30.867-4.367-7.457-2.515-6.204-5.394 3.375-7.756 1.34-0.33 2.823-0.666 3.297-0.747 9.175-1.557 15.251-2.191 25.529-2.666 2.108-0.097 4.208-0.203 4.666-0.234 1.828-0.126 21.681 0.05 24.334 0.216m-107.17 13.123c-9.871 0.783-21.315 5.621-28.5 12.049-14.796 13.238-20.714 31.728-16.22 50.68 3.396 14.325 13.703 27.091 27.034 33.486 3.159 1.516 4.81 2.153 8.436 3.26 6.161 1.881 14.894 2.371 22 1.235 12.098-1.934 23.76-8.68 31.232-18.064 0.438-0.55 0.918-1.15 1.066-1.333 8.076-9.954 11.894-25.492 9.605-39.084-1.015-6.021-3.398-12.732-5.964-16.798-0.242-0.382-0.439-0.736-0.439-0.786 0-0.196-3.366-5.091-3.911-5.687-0.095-0.103-0.51-0.604-0.922-1.113-2.459-3.031-8.599-8.414-11.433-10.022-0.266-0.151-0.972-0.572-1.567-0.935-4.495-2.742-10.914-5.191-16.084-6.136-3.639-0.666-4.277-0.721-8.833-0.769-2.567-0.027-5.042-0.019-5.5 0.017m-12.722 22.66c0.281 0.146 4.295 4.05 8.919 8.677l8.408 8.413 8.364-8.372c9.164-9.171 8.945-8.98 10.299-8.981 1.28-1e-3 1.594 0.237 5.569 4.23 5.776 5.803 6.23 4.339-4.766 15.354-4.668 4.677-8.488 8.558-8.488 8.625s3.745 3.866 8.322 8.442c9.461 9.458 9.631 9.684 8.681 11.523-0.38 0.737-7.379 7.649-8.097 7.997-1.905 0.923-1.8 1.002-11.447-8.634l-8.457-8.449-8.543 8.524c-11.102 11.078-9.637 10.658-15.739 4.515-3.944-3.971-4.238-4.392-3.96-5.684 0.221-1.027 0.649-1.495 8.977-9.812l8.412-8.401-8.256-8.241c-9.052-9.036-9.115-9.108-9.115-10.52 0-1.222 0.085-1.332 4.204-5.445 4.263-4.258 4.978-4.658 6.713-3.761m-123.81 6.576c-1.888 1.234-1.716-0.43-1.716 16.611v14.829l0.453 0.581c1.142 1.465 4.722 3.084 9.13 4.131 0.459 0.109 1.246 0.297 1.75 0.419 0.504 0.121 1.404 0.309 2 0.418s1.459 0.273 1.917 0.364c2.371 0.473 9.962 1.485 13.5 1.8 10.318 0.92 14.426 1.082 27.333 1.083 13.659 0 18.907-0.235 29.89-1.339 0.984-0.099 1.049-0.131 0.943-0.463-0.92-2.894-1.847-7.426-2.273-11.107-0.45-3.883-0.153-12.564 0.533-15.627 0.222-0.987 0.281-0.964-1.971-0.739-18.783 1.884-44.086 1.516-61.372-0.891-1.93-0.269-5.827-0.949-7-1.221-2.557-0.593-3.253-0.78-4.78-1.279-5.708-1.868-6.622-3.845-2.726-5.896l1.237-0.651-0.657-0.175c-0.361-0.096-1.07-0.281-1.574-0.412s-1.499-0.434-2.212-0.674c-0.712-0.239-1.312-0.435-1.334-0.435s-0.504 0.303-1.071 0.673m280.53 0.075c-0.917 0.298-2.145 0.684-2.729 0.858l-1.063 0.316 1.276 0.648c5.701 2.893-0.193 6.353-14.067 8.258-4.977 0.684-5.118 0.7-10.084 1.184-14.488 1.411-39.06 1.249-53.094-0.35-2.264-0.258-2.129-0.306-1.965 0.713 0.743 4.631 0.976 11.685 0.51 15.458-0.514 4.153-1.107 7.272-1.883 9.901-0.268 0.909-0.462 1.677-0.432 1.707 0.073 0.073 2.68 0.35 5.281 0.56 1.146 0.093 2.271 0.205 2.5 0.248 6.107 1.158 37.977 1.112 49.667-0.07 0.87-0.088 2.483-0.245 3.583-0.348 13.608-1.274 24.214-4.011 26.671-6.881l0.579-0.677v-14.86-14.86l-0.458-0.589c-0.476-0.611-2.127-1.813-2.444-1.778-0.1 0.011-0.931 0.264-1.848 0.562m-280.33 38.648c-0.459 0.301-1.077 0.825-1.375 1.165l-0.542 0.617v14.849c0 14.597 6e-3 14.859 0.336 15.394 1.306 2.113 7.634 4.331 16.331 5.724 0.595 0.096 1.758 0.284 2.583 0.418s2.25 0.329 3.167 0.433c0.916 0.104 2.566 0.294 3.666 0.422 16.856 1.96 43.145 1.96 60 0 1.1-0.128 2.75-0.318 3.667-0.422s2.342-0.299 3.167-0.433 1.987-0.322 2.583-0.418c7.394-1.184 13.094-2.966 15.542-4.857 0.837-0.647 0.844-0.631-0.917-1.805-0.848-0.566-1.735-1.187-1.97-1.381-0.236-0.194-0.683-0.54-0.993-0.769-5.358-3.958-11.114-10.514-14.817-16.875-1.169-2.009-1.161-2.005-3.114-1.639-1.729 0.324-9.332 1.06-13.814 1.337-20.296 1.253-43.153 0.418-57.167-2.09-2.637-0.472-3.357-0.62-4.917-1.009-8.694-2.169-10.688-4.637-5.671-7.017l0.911-0.433-1.911-0.53c-1.649-0.456-2.375-0.682-3.662-1.139-0.138-0.049-0.625 0.157-1.083 0.458m281.66-0.154c-0.271 0.113-1.354 0.45-2.408 0.749-1.055 0.298-2.104 0.599-2.334 0.667-0.38 0.114-0.316 0.174 0.747 0.692 5.766 2.807 0.604 6.172-12.497 8.146-0.733 0.11-1.738 0.268-2.234 0.351-1.751 0.293-8.945 1.04-12.599 1.308-6.951 0.51-10.04 0.595-21.667 0.595-11.669 0-13.31-0.046-21.333-0.59-3.567-0.242-9.287-0.834-12.167-1.259-0.916-0.135-1.891-0.278-2.166-0.317-0.484-0.068-0.539-2e-3 -1.717 2.048-3.736 6.503-9.238 12.618-15.757 17.511-0.994 0.746-1.857 1.359-1.917 1.362-0.478 0.023-0.708 0.481-0.472 0.938 0.96 1.857 6.038 3.879 13.279 5.289 7.039 1.371 15.794 2.345 26.667 2.969 5.089 0.292 26.744 0.292 31.833 0 12.377-0.71 21.491-1.809 29.334-3.537 4.09-0.902 7.978-2.358 9.491-3.555 1.467-1.161 1.34 0.393 1.341-16.363l1e-3 -14.837-0.513-0.622c-1.007-1.222-2.189-1.849-2.912-1.545"/>
</g>
</svg>
