<svg enable-background="new 0 0 34 26" viewBox="0 0 34 26" xmlns="http://www.w3.org/2000/svg" width="{{ .width }}" height="{{ .height }}">
    <path d="m29.5 2.5c1.1 0 2 .9 2 2v17c0 1.1-.9 2-2 2h-25c-1.1 0-2-.9-2-2v-17c0-1.1.9-2 2-2zm0-2h-25c-2.2 0-4 1.8-4 4v17c0 2.2 1.8 4 4 4h25c2.2 0 4-1.8 4-4v-17c0-2.2-1.8-4-4-4z" fill="{{ .fill }}"/>
    <path d="m25.9 8.7l-6.4 6.4c-1.6 1.6-4.1 1.6-5.7 0l-6.3-6.4" fill="none" stroke="{{ .fill }}" stroke-linecap="round" stroke-miterlimit="10" stroke-width="2"/>
    <path d="m11.8 14.5l-4.3 4.3" fill="none" stroke="{{ .fill }}" stroke-linecap="round" stroke-miterlimit="10" stroke-width="2"/>
    <path d="m21.5 13.5l4.3 4.3" fill="none" stroke="{{ .fill }}" stroke-linecap="round" stroke-miterlimit="10" stroke-width="2"/>
</svg>
