<svg id="Layer_1" xmlns="http://www.w3.org/2000/svg" xmlns:xlink="http://www.w3.org/1999/xlink" viewBox="0 0 500 556.726"><defs><path id="SVGID_1_" d="M45 60.387h409.92v410.88H45z"/></defs><clipPath id="SVGID_2_"><use xlink:href="#SVGID_1_" overflow="visible"/></clipPath><defs><path id="SVGID_3_" d="M45 60.387h409.92v410.88H45z"/></defs><clipPath id="SVGID_4_"><use xlink:href="#SVGID_3_" overflow="visible"/></clipPath><path d="M343.238 172.072c-11.457-11.457-26.687-17.766-42.89-17.766s-31.438 6.309-42.895 17.766c-11.457 11.457-17.765 26.691-17.765 42.894s6.308 31.434 17.765 42.891c11.457 11.457 26.692 17.766 42.895 17.766 16.203 0 31.433-6.309 42.89-17.766 23.649-23.652 23.649-62.133 0-85.785L34 3.238l138.072 NaNzm-13.914 71.875c-7.738 7.738-18.031 12.004-28.976 12.004-10.95 0-21.243-4.266-28.981-12.004-7.742-7.742-12.004-18.035-12.004-28.981 0-10.949 4.262-21.238 12.004-28.98 7.738-7.742 18.031-12.004 28.981-12.004 10.945 0 21.238 4.262 28.976 12.004 15.981 15.98 15.981 41.98 0 57.961zm0 0" clip-path="url(#SVGID_4_)"/><path class="morph" d="M447.742 74.537a9.829 9.829 0 0 0-6.961-6.965c-33.64-8.992-69.254-9.141-102.984-.43-5.258 1.359-10.438 2.957-15.555 4.731a9.654 9.654 0 0 0-1.301.457 202.059 202.059 0 0 0-75.101 47.375c-.059.054-.113.109-.168.164-.09.09-.168.187-.254.277-.082.09-.172.172-.254.266l-30.129 35.07c-47.402-.523-93.465 18.203-127.051 51.789-10.922 10.922-20.343 23.16-28.007 36.379a9.834 9.834 0 0 0 6.082 14.465l54.679 13.922-10.699 29.054c-5.285 14.348-1.711 30.606 9.102 41.418l53.668 53.668c7.496 7.492 17.601 11.512 27.882 11.512 4.551 0 9.133-.789 13.536-2.41l29.058-10.699 13.922 54.679a9.838 9.838 0 0 0 5.719 6.645 9.862 9.862 0 0 0 3.812.765 9.814 9.814 0 0 0 4.934-1.328c13.215-7.66 25.453-17.082 36.379-28.004 33.59-33.589 52.308-79.664 51.793-127.058l35.062-30.129c.09-.078.172-.168.258-.246.098-.09.195-.168.289-.262.055-.055.106-.113.164-.168.008-.012.024-.023.031-.035a202.051 202.051 0 0 0 47.344-75.063c.18-.425.336-.863.457-1.308a201.005 201.005 0 0 0 4.727-15.551c8.711-33.73 8.562-69.34-.434-102.98zM84.086 242.404a158.78 158.78 0 0 1 17.809-21.219c25.726-25.726 59.695-41.629 95.558-45.242l-67.203 78.215-46.164-11.754zm44.41 65.484l9.156-24.863 12.692 12.687-19.18 30.696c-3.902-5.27-4.973-12.258-2.668-18.52zm16.828 32.985l19.297-30.883 13.399 13.394-25.094 25.09-7.602-7.601zm21.516 21.515l25.09-25.09 13.394 13.395-30.883 19.297-7.601-7.602zm40.586 24.43c-6.262 2.305-13.246 1.234-18.52-2.668l30.696-19.18 12.691 12.692-24.867 9.156zm86.711 26.609a158.547 158.547 0 0 1-21.223 17.805l-11.754-46.168 78.219-67.203c-3.613 35.863-19.516 69.836-45.242 95.566zm87.609-157.91L250.629 368.173 147.141 264.689l79.586-92.625c.078-.086.152-.176.226-.266l32.844-38.226a182.603 182.603 0 0 1 62.562-40.785l100.168 100.172a182.48 182.48 0 0 1-40.781 62.558zm47.547-83.617l-85.875-85.879c28.391-7.211 58.23-7.496 86.715-.84a183.332 183.332 0 0 1-.84 86.719zm0 0" clip-path="url(#SVGID_4_)"/><path class="fire first" stroke-width="20" stroke-linecap="round" stroke-linejoin="round" stroke-miterlimit="10" d="M150.723 422.976l-30.342 31.054"/><path class="fire second" stroke-width="20" stroke-linecap="round" stroke-linejoin="round" stroke-miterlimit="10" d="M122.667 391.825l-72.846 74.556"/><path class="fire third" stroke-width="20" stroke-linecap="round" stroke-linejoin="round" stroke-miterlimit="10" d="M92.664 363.96l-20.839 21.329"/></svg>