<svg data-name="Layer 1" id="Layer_1" viewBox="0 0 32 32" xmlns="http://www.w3.org/2000/svg"><defs><style>.cls-1{fill:#3d6cb9}</style></defs><path class="cls-1" d="M15 17.59l-3.2-3.2-1.41 1.41L15 20.41l9.71-9.7-1.42-1.42-8.29 8.3z"/><path class="cls-1" d="M28.07 31.89l-2-10.35.31-.37a11 11 0 0 0 2.76-7.72A11.43 11.43 0 0 0 18.42 2.81a11.1 11.1 0 0 0-8.05 3.27A11 11 0 0 0 6.9 14v.21l-2.69 6.28L7 21.68V28l8-1v5h-2v-3l-8 1v-7l-3.31-1.49L5 13.79A13 13 0 0 1 18.49 1a13 13 0 0 1 9.66 21.1l1.78 9.42z"/></svg>