<svg viewBox="0 0 512 512" xmlns="http://www.w3.org/2000/svg" fill="#3d6cb9"><path d="M460.93 268.49a41.835 41.835 0 0 0 7.168-23.466v-8.021c0-23.203-18.878-42.081-42.081-42.081-11.577 0-22.077 4.701-29.693 12.293-19.706-58.607-75.165-100.94-140.33-100.94s-120.62 42.333-140.33 100.94c-7.616-7.592-18.115-12.293-29.693-12.293-23.203 0-42.081 18.878-42.081 42.081v8.021a41.835 41.835 0 0 0 7.168 23.466C21.929 274.628-.008 300.523-.008 331.451v20.134c0 5.522 4.478 10 10 10h52c5.522 0 10-4.478 10-10s-4.478-10-10-10h-42v-10.134c0-24.453 19.894-44.347 44.347-44.347h47.329a147.167 147.167 0 0 0 19.641 46.831l-114.1 114.1c-14.61 14.611-14.61 38.386.001 52.998 7.306 7.306 16.901 10.958 26.498 10.958s19.194-3.653 26.5-10.958l62.903-62.904c3.905-3.905 3.905-10.237 0-14.143-3.906-3.904-10.236-3.904-14.143 0L56.066 486.89c-6.815 6.814-17.901 6.813-24.715.001-6.813-6.814-6.813-17.901 0-24.715l112.01-112.01c27.167 31.862 67.578 52.105 112.63 52.105 70.328 0 129.35-49.31 144.32-115.17h47.329c24.453 0 44.347 19.894 44.347 44.347v10.134h-94c-5.522 0-10 4.478-10 10s4.478 10 10 10h104c5.522 0 10-4.478 10-10v-20.134c0-30.928-21.937-56.823-51.066-62.961zm-352.87-23.465c0 12.175-9.905 22.08-22.081 22.08s-22.081-9.905-22.081-22.08v-8.021c0-12.176 9.905-22.081 22.081-22.081s22.081 9.905 22.081 22.081v8.021zM256 382.275c-70.579 0-128-57.421-128-128s57.421-128 128-128 128 57.421 128 128-57.421 128-128 128zm192.1-137.25c0 12.175-9.905 22.08-22.081 22.08s-22.081-9.905-22.081-22.08v-8.021c0-12.176 9.905-22.081 22.081-22.081s22.081 9.905 22.081 22.081v8.021z"/><path d="M256 146.28c-59.552 0-108 48.448-108 108 0 30.91 13.056 58.825 33.938 78.53.357.386.74.75 1.16 1.08 19.226 17.621 44.829 28.39 72.902 28.39s53.676-10.77 72.902-28.39c.42-.329.803-.694 1.16-1.08C350.944 313.105 364 285.19 364 254.28c0-59.551-48.448-108-108-108zm0 196c-20.563 0-39.499-7.091-54.497-18.954 10.625-20.104 31.331-32.753 54.497-32.753s43.872 12.649 54.497 32.753C295.499 335.189 276.563 342.28 256 342.28zm-21.073-92.78v-7.769c0-11.62 9.453-21.073 21.073-21.073s21.073 9.453 21.073 21.073v7.769c0 11.62-9.453 21.073-21.073 21.073s-21.073-9.453-21.073-21.073zm90.198 59.179c-9.161-14.617-22.57-25.764-38.264-32.12 6.349-7.233 10.212-16.7 10.212-27.058v-7.769c0-22.647-18.426-41.073-41.073-41.073s-41.073 18.426-41.073 41.073v7.769c0 10.358 3.862 19.825 10.212 27.058-15.694 6.357-29.102 17.503-38.264 32.12C175.059 293.697 168 274.798 168 254.28c0-48.523 39.477-88 88-88s88 39.477 88 88c0 20.518-7.059 39.417-18.875 54.399zM159.87 397.24c-1.86-1.86-4.44-2.93-7.07-2.93s-5.21 1.07-7.07 2.93c-1.859 1.86-2.93 4.44-2.93 7.07s1.07 5.21 2.93 7.07c1.86 1.859 4.44 2.93 7.07 2.93s5.21-1.07 7.07-2.93c1.859-1.86 2.93-4.44 2.93-7.07s-1.07-5.21-2.93-7.07zM256.2.009c-5.522 0-10 4.478-10 10v34.024c0 5.523 4.478 10 10 10s10-4.478 10-10V10.009c0-5.522-4.478-10-10-10zM263.27 69.939a10.056 10.056 0 0 0-7.069-2.93c-2.631 0-5.21 1.069-7.07 2.93s-2.93 4.44-2.93 7.07 1.069 5.21 2.93 7.069a10.075 10.075 0 0 0 7.07 2.931c2.64 0 5.21-1.07 7.069-2.931 1.86-1.859 2.931-4.439 2.931-7.069s-1.07-5.21-2.931-7.07zM340.98 39.235c-3.906-3.904-10.236-3.904-14.143 0l-17.576 17.576c-3.905 3.905-3.905 10.237 0 14.143 1.954 1.952 4.512 2.929 7.072 2.929s5.118-.977 7.071-2.929l17.576-17.576c3.905-3.905 3.905-10.237 0-14.143zM202.91 56.932l-17.745-17.745c-3.906-3.904-10.236-3.904-14.143 0-3.905 3.905-3.905 10.237 0 14.143l17.746 17.745c1.953 1.952 4.512 2.929 7.071 2.929s5.118-.977 7.071-2.929c3.905-3.905 3.905-10.237 0-14.143z"/></svg>