<svg viewBox="0 0 511.96 511.96" xmlns="http://www.w3.org/2000/svg" fill="#3d6cb9"><path d="M511.02 165.58c-2.453-5.44-61.653-133.65-180.37-133.65-4.8 0-9.067 3.2-10.24 7.893-.64 2.24-16.107 56.107-64.427 56.107s-63.787-53.867-64.427-56.107c-1.28-4.693-5.44-7.893-10.24-7.893-118.72 0-177.92 128.21-180.37 133.65-1.92 4.267-.853 9.387 2.773 12.48l74.667 64.64c4.48 3.84 11.2 3.413 15.04-1.067.213-.213.32-.427.427-.533l12.8-17.067v245.33c0 5.867 4.8 10.667 10.667 10.667h277.33c5.867 0 10.667-4.8 10.667-10.667v-245.44l12.8 17.067c3.52 4.693 10.24 5.653 14.933 2.133.213-.107.427-.32.533-.427l74.667-64.64c3.627-3.092 4.693-8.105 2.773-12.479zm-82.666 53.44l-25.173-33.493c-3.84-5.12-11.307-5.76-16.107-1.173-2.133 2.027-3.093 4.907-3.093 7.893v266.35h-256v-266.45c0-4.48-2.667-8.747-6.933-10.24-4.587-1.707-9.493 0-12.267 3.627l-25.174 33.493L23.874 167.4c13.44-25.173 64.427-109.12 149.76-113.92 9.707 25.707 35.733 63.787 82.347 63.787s72.64-38.08 82.347-63.787c85.333 4.8 136.32 88.853 149.76 113.92l-59.734 51.627z"/></svg>