<svg height="128" viewBox="0 0 128 128" width="128" xmlns="http://www.w3.org/2000/svg"><path d="M106 24c3.3 0 6 2.7 6 6v60c0 3.3-2.7 6-6 6H91v10.9l-13-10-1-.9H23c-3.3 0-6-2.7-6-6V30c0-3.3 2.7-6 6-6h83m0-4H23c-5.5 0-10 4.5-10 10v60c0 5.5 4.5 10 10 10h52.6L95 115v-15h11c5.5 0 10-4.5 10-10V30c0-5.5-4.5-10-10-10z" fill="#3d6cb9"/><path d="M71.4 61.1c-4.3 3.2-4.5 4.4-4.5 6.1V69h-6.4s-1.9-2-1.9-5.5c0-1.6 1.1-3.1 4.3-5.6 4.4-3.5 5-4.4 5-6.7 0-2-1.1-3.5-5.1-3.5s-8.6 1-8.6 1l-.4-6.1S59 40.5 64 40.5c8.6 0 12.3 2.9 12.3 9.8 0 5.5-.8 7.6-4.9 10.8zM59.1 72.3h8.6V82h-8.6v-9.7z" fill="#3d6cb9"/></svg>