<svg viewBox="0 0 512 512" xmlns="http://www.w3.org/2000/svg" fill="#3d6cb9"><path d="M502 246h-28.038c-5.522 0-9.999 4.477-9.999 9.999 0 5.523 4.478 9.999 9.999 9.999H502c5.522 0 9.999-4.477 9.999-9.999S507.522 246 502 246zM500.98 192.61c-2.762-4.783-8.875-6.421-13.659-3.66l-18.359 10.599c-4.783 2.761-6.422 8.876-3.66 13.659a9.993 9.993 0 0 0 13.659 3.661l18.359-10.6c4.783-2.761 6.422-8.876 3.66-13.659zM497.32 305.73l-18.359-10.6c-4.784-2.762-10.897-1.123-13.659 3.66s-1.123 10.898 3.66 13.659l18.359 10.6a9.996 9.996 0 0 0 13.659-3.66c2.762-4.783 1.124-10.898-3.66-13.659zM424.33 118.01c-9.869-43.064-23.233-63.997-40.857-63.997-3.391 0-6.621.783-9.702 2.341L6.131 210.774a9.995 9.995 0 0 0-6.128 9.218v71.994a10 10 0 0 0 6.127 9.219l53.931 22.656.097.041 25.839 10.853v62.735c0 15.714 12.784 28.498 28.498 28.498h90.993c15.714 0 28.498-12.784 28.498-28.498v-.567l139.8 58.728c3.077 1.553 6.303 2.334 9.688 2.334 17.624 0 30.988-20.933 40.857-63.997 8.473-36.972 13.139-85.976 13.139-137.99-.001-52.01-4.667-101.01-13.14-137.99zM213.99 397.49c0 4.687-3.813 8.499-8.499 8.499h-90.993c-4.687 0-8.499-3.813-8.499-8.499v-54.334l107.99 45.366v8.968zM74 308.023v-52.181c0-5.523-4.478-9.999-9.999-9.999-5.522 0-9.999 4.477-9.999 9.999v43.78L20.005 285.34v-58.703l331.62-139.29c-3.28 8.548-6.276 18.756-9.005 30.663-.31 1.35-.612 2.722-.912 4.104l-113.38 42.673c-5.169 1.945-7.781 7.712-5.837 12.88a10.002 10.002 0 0 0 9.36 6.479c1.17 0 2.36-.208 3.521-.644l102.05-38.411c-5.165 32.412-7.946 70.76-7.946 110.9 0 52.011 4.666 101.02 13.139 137.99 2.729 11.906 5.727 22.112 9.005 30.661L74 308.022zm276.29-88.85c17.68 3.011 31.185 18.431 31.185 36.955 0 18.521-13.5 33.937-31.174 36.953a823.935 823.935 0 0 1-.824-37.08c0-12.512.276-24.832.813-36.828zm54.547 170.35c-9.13 39.841-19.328 48.465-21.363 48.465a1.16 1.16 0 0 1-.292-.05c-.162-.079-.32-.164-.488-.235l-.238-.1c-3.356-2.023-12.266-12.827-20.345-48.081-4.974-21.704-8.58-47.838-10.638-76.402 28.173-3.687 50-27.83 50-56.991 0-29.168-21.837-53.315-50.018-56.994 2.054-28.663 5.668-54.886 10.656-76.654 8.074-35.233 16.98-46.046 20.34-48.077l.883-.371c.049-.007.099-.017.141-.017 2.035 0 12.233 8.624 21.363 48.465 8.146 35.55 12.634 82.969 12.634 133.52s-4.487 97.97-12.635 133.52z"/><path d="M199.5 186.34c-1.938-5.171-7.697-7.793-12.871-5.858l-.229.086c-5.172 1.937-7.794 7.699-5.858 12.871 1.504 4.016 5.316 6.495 9.366 6.495a9.99 9.99 0 0 0 3.505-.638l.229-.086c5.172-1.936 7.795-7.699 5.858-12.87z"/></svg>