<svg viewBox="0 0 360.86 360.86" xmlns="http://www.w3.org/2000/svg" fill="#3d6cb9"><path d="M180.43 197.2c24.125 0 80.846-29.034 80.846-98.603 0-9.704-.236-19.078-1.036-27.935-1.313-17.431-4.883-32.879-13.772-44.718C235.066 9.833 215.118-.004 180.43-.004c-34.682 0-54.629 9.833-66.031 25.939-8.895 11.842-12.467 27.294-13.779 44.731-.799 8.856-1.035 18.229-1.035 27.932-.001 69.568 56.72 98.602 80.845 98.602zm26.389-161.08c-2.354 5.951-3.534 8.927-5.89 14.877-15.209-4.297-25.791-4.297-41 0-2.355-5.95-3.535-8.926-5.891-14.877 19.021-5.758 33.763-5.757 52.781 0zm-95.208 47.394c.932 2.037 4.889 9.87 11.014 10.604 7.041.845 18.728-24.935 57.805-24.998 39.076.063 50.764 25.843 57.805 24.998 6.125-.735 10.082-8.567 11.014-10.604.189 4.992.259 10.046.259 15.085 0 34.005-15.015 55.075-27.612 66.762-15.871 14.727-33.493 20.072-41.465 20.072s-25.594-5.345-41.465-20.072c-12.598-11.687-27.612-32.757-27.612-66.762-.001-5.039.068-10.093.257-15.085z"/><path d="M330.52 298.33c-4.128-25.664-12.624-58.724-29.668-70.472-11.64-8.026-52.248-29.721-69.589-38.985l-.293-.156a5.666 5.666 0 0 0-6.169.541c-9.084 7.131-19.034 11.937-29.574 14.284a5.664 5.664 0 0 0-4.066 3.521l-10.733 28.291-10.734-28.291a5.662 5.662 0 0 0-4.066-3.521c-10.539-2.347-20.489-7.153-29.572-14.284a5.668 5.668 0 0 0-6.171-.541c-17.134 9.156-58.239 31.294-69.829 39.107-19.621 13.217-28.199 61.052-29.72 70.507a5.69 5.69 0 0 0 .253 2.793c.416 1.174 6.905 17.982 39.357 31.496a16.123 16.123 0 0 1 7.166-5.152 16.079 16.079 0 0 1-8.437-6.911c-2.88-4.846-2.987-10.927-.286-15.858a47.464 47.464 0 0 1 41.604-24.729c16.138 0 30.767 8.019 39.454 21.053h61.926a47.482 47.482 0 0 1 5.838-7.109c8.95-8.976 20.857-13.928 33.529-13.946h.02c17.336 0 33.29 9.424 41.639 24.602 2.706 4.926 2.615 10.995-.248 15.857a16.085 16.085 0 0 1-8.414 6.931 16.098 16.098 0 0 1 7.268 5.224c32.369-13.507 38.848-30.284 39.264-31.456a5.706 5.706 0 0 0 .251-2.796z"/><path d="M278.41 340.43h-.004l-29.836.041c-.529-1.256-1.545-4.744-1.555-13.065-.014-8.322.99-11.816 1.518-13.075l29.828-.044a2.014 2.014 0 0 0 1.763-2.987 33.48 33.48 0 0 0-29.369-17.342c-8.934.013-17.326 3.505-23.633 9.831a33.31 33.31 0 0 0-7.383 11.225h-78.668c-4.939-12.315-16.992-21.053-31.082-21.053a33.46 33.46 0 0 0-29.318 17.441 2.012 2.012 0 0 0 1.767 2.978h.002l29.836-.047c.531 1.256 1.545 4.744 1.555 13.068.014 8.323-.99 11.815-1.518 13.072l-29.828.045a2.02 2.02 0 0 0-1.732.99 2.016 2.016 0 0 0-.029 1.996 33.465 33.465 0 0 0 29.318 17.346h.049c8.936-.014 17.326-3.506 23.635-9.833a33.321 33.321 0 0 0 7.381-11.228h78.666c4.94 12.319 16.984 21.056 31.039 21.058h.047c12.215-.017 23.451-6.703 29.318-17.438a2.014 2.014 0 0 0-1.767-2.979z"/></svg>