<svg viewBox="0 0 512 512" xmlns="http://www.w3.org/2000/svg" fill="#3d6cb9"><path d="M177.61 398.73l66.687-.002 1.99-4.364c3.939-8.638 11.546-22.238 16.122-25.435l.402-.28.362-.331c39.385-36.032 117.28 4.02 118.06 4.426l1.626.852h129.14v-14.918h-125.52c-12.64-6.271-88.952-41.491-133.05-1.663-7.418 5.51-14.918 19.289-18.635 26.796H177.61c-13.391 0-24.843 8.456-29.299 20.308l-83.015-40.6c-21.29-10.412-47.463-3.533-60.88 16.004l-4.413 6.426 198.54 123.85 169.65-53.659h143.81v-14.918h-146.11l-165.28 52.279-178.67-111.45c9.884-8.803 24.522-11.136 36.809-5.126l88.185 43.129c2.828 11.411 15.29 19.768 30.682 19.768h91.977v-14.918h-91.977c-10.111 0-16.369-5.087-16.369-9.8 0-9.027 7.343-16.37 16.369-16.37zM438.9 40.996V2.208H327.01c-30.679 0-57.223 18.021-69.619 44.03-12.396-26.009-38.94-44.03-69.619-44.03H75.882v38.788H46.045v279.47h422.69V40.996h-29.836zm-174.05 38.29c0-34.276 27.885-62.16 62.16-62.16h96.97v189.96h-97.964c-25.043 0-47.292 12.166-61.166 30.894V79.28zm159.13 142.72v53.706H265.3c3.689-30.223 29.51-53.706 60.713-53.706h97.964zM90.8 17.126h96.97c34.275 0 62.16 27.885 62.16 62.16v158.7c-13.873-18.728-36.122-30.894-61.165-30.894H90.8V17.132zm0 204.88h97.964c31.203 0 57.023 23.484 60.713 53.706H90.797v-53.706zm363.02 83.543H60.97V55.909h14.918v234.72h363.02V55.909h14.918v249.64z"/><path d="M353.17 377.06l-4.917 14.085c10.086 3.522 16.76 6.793 19.161 8.036l6.858-13.248c-5.674-2.937-13.365-6.171-21.102-8.873zM307.5 368.13c-14.614.001-26.139 3.765-34.256 11.192l10.071 11.006c5.279-4.83 13.416-7.278 24.184-7.278 7.915 0 17.023 1.321 27.071 3.926l3.745-14.441c-11.27-2.923-21.638-4.405-30.815-4.405zM433.43 411.38h46.744v14.918H433.43zM105.72 127.02h14.918v35.804H105.72zM105.72 177.75h14.918v13.924H105.72zM187.77 32.045v14.918c17.823 0 32.323 14.5 32.323 32.323v10.103h14.918V79.286c.001-26.048-21.192-47.241-47.241-47.241zM220.1 134.15h14.918v14.918H220.1zM220.1 104.31h14.918v14.918H220.1zM279.77 79.286h14.918c0-17.823 14.5-32.323 32.323-32.323V32.045c-26.048 0-47.241 21.193-47.241 47.241zM394.14 126.03h14.918v14.918H394.14zM394.14 155.87h14.918v14.918H394.14zM394.14 72.324h14.918v38.788H394.14zM106.22 240.9h48.734v14.918H106.22zM358.84 240.9h48.734v14.918H358.84z"/></svg>