<svg viewBox="0 0 512 512" xmlns="http://www.w3.org/2000/svg" fill="#3d6cb9"><path d="M503.98 4.276H8.01a8.016 8.016 0 0 0-8.017 8.016v487.42a8.017 8.017 0 0 0 8.017 8.017h495.97a8.017 8.017 0 0 0 8.017-8.017V12.292a8.017 8.017 0 0 0-8.018-8.016zm-8.016 487.42H16.034v-368.77h479.93v368.77zm0-384.8H16.034v-86.58h479.93v86.58z"/><path d="M427.02 38.48h-94.063a8.017 8.017 0 0 0-8.017 8.017 8.017 8.017 0 0 0 8.017 8.017h94.063a8.017 8.017 0 0 0 0-16.034zM469.78 38.48h-17.102a8.017 8.017 0 0 0-8.017 8.017 8.017 8.017 0 0 0 8.017 8.017h17.102a8.018 8.018 0 0 0 0-16.034zM264.55 29.929c-18.566 0-33.67 15.105-33.67 33.67s15.105 33.67 33.67 33.67 33.67-15.104 33.67-33.67-15.104-33.67-33.67-33.67zm0 51.307c-9.725 0-17.637-7.912-17.637-17.637s7.912-17.637 17.637-17.637 17.637 7.912 17.637 17.637-7.912 17.637-17.637 17.637zM170.49 29.929c-18.566 0-33.67 15.105-33.67 33.67s15.105 33.67 33.67 33.67 33.67-15.104 33.67-33.67-15.105-33.67-33.67-33.67zm0 51.307c-9.725 0-17.637-7.912-17.637-17.637s7.912-17.637 17.637-17.637 17.637 7.912 17.637 17.637-7.913 17.637-17.637 17.637zM76.426 29.929c-18.566 0-33.67 15.105-33.67 33.67s15.105 33.67 33.67 33.67 33.67-15.104 33.67-33.67-15.104-33.67-33.67-33.67zm0 51.307c-9.725 0-17.637-7.912-17.637-17.637s7.912-17.637 17.637-17.637 17.637 7.912 17.637 17.637-7.912 17.637-17.637 17.637zM168.88 232.06c.174-6.422-2.163-12.527-6.582-17.191s-10.389-7.327-16.81-7.501a23.917 23.917 0 0 0-17.19 6.582l-81.236 76.96c-4.866 4.61-7.602 11.098-7.507 17.801s3.015 13.112 8.011 17.581l81.237 72.686a24.011 24.011 0 0 0 16.028 6.126h.003c6.837 0 13.371-2.92 17.929-8.014 8.842-9.883 7.996-25.117-1.887-33.96l-61.769-55.267 62.274-58.995a23.899 23.899 0 0 0 7.499-16.808zm-18.529 5.169l-68.594 64.983a8.016 8.016 0 0 0 .168 11.795l68.258 61.073c3.294 2.947 3.577 8.025.63 11.32a7.926 7.926 0 0 1-5.982 2.672 7.994 7.994 0 0 1-5.339-2.043l-81.236-72.685a8.04 8.04 0 0 1-2.671-5.86 8.042 8.042 0 0 1 2.502-5.933l81.236-76.96a7.96 7.96 0 0 1 5.73-2.195c2.141.058 4.13.946 5.603 2.5s2.252 3.589 2.194 5.73a7.95 7.95 0 0 1-2.499 5.603zM464.94 290.91l-81.236-76.96c-9.626-9.119-24.878-8.709-34.001.919-9.119 9.626-8.707 24.879.919 33.999l62.274 58.995-61.769 55.267c-9.882 8.843-10.729 24.076-1.887 33.961a24.088 24.088 0 0 0 17.927 8.013h.003a24.007 24.007 0 0 0 16.029-6.127l81.236-72.685a24.106 24.106 0 0 0 8.01-17.583 24.109 24.109 0 0 0-7.505-17.799zm-11.196 23.434l-81.236 72.685a7.997 7.997 0 0 1-5.339 2.043h-.001a7.927 7.927 0 0 1-5.979-2.671c-2.948-3.294-2.666-8.373.628-11.321l68.257-61.073a8.019 8.019 0 0 0 .168-11.795l-68.594-64.983c-3.209-3.04-3.347-8.125-.307-11.333a7.997 7.997 0 0 1 5.822-2.499c1.98 0 3.965.727 5.511 2.193l81.236 76.96a8.035 8.035 0 0 1 2.502 5.933v.002h.001a8.023 8.023 0 0 1-2.669 5.859zM317.7 233.71c-1.67-6.204-5.656-11.386-11.222-14.59l-.001-.001c-11.495-6.614-26.226-2.647-32.842 8.843l-81.236 141.09c-6.617 11.492-2.65 26.225 8.843 32.843a24.068 24.068 0 0 0 11.983 3.21c8.585 0 16.577-4.619 20.857-12.053l81.236-141.09c3.205-5.568 4.052-12.051 2.382-18.253zm-16.276 10.251l-81.235 141.09a8.053 8.053 0 0 1-6.963 4.019 7.896 7.896 0 0 1-3.985-1.071c-3.831-2.205-5.153-7.117-2.948-10.948l81.237-141.09a8.02 8.02 0 0 1 10.948-2.946 7.957 7.957 0 0 1 3.74 4.862 7.96 7.96 0 0 1-.794 6.084z"/></svg>