<svg viewBox="0 0 512 512" xmlns="http://www.w3.org/2000/svg" fill="#3d6cb9"><path d="M507.68 297.54c-10.294-17.825-33.127-24.009-51.007-13.861-3.246 1.6-44.76 22.003-78.956 36.392-3.818 1.607-5.611 6.006-4.005 9.825s6.004 5.609 9.825 4.005c35.859-15.09 79.548-36.654 79.985-36.869a7.45 7.45 0 0 0 .423-.226c10.747-6.198 24.539-2.503 30.744 8.241 7.184 12.425-4.033 26.066-9.524 31.639-37.246 30.045-140.31 107.09-174.95 107.09-38.399 0-146.15-22.827-172.5-28.537v-122.54c52.249-7.678 79.928 1.951 137.93 22.167 17.646 6.149 37.637 13.114 61.935 20.883 3.622 1.578 13.67 7.234 9.841 20.019-2.329 7.77-9.839 15.187-20.824 13.136-14.769-2.772-101.68-14.561-105.38-15.061-4.103-.566-7.885 2.32-8.44 6.427a7.5 7.5 0 0 0 6.427 8.44c.9.122 90.228 12.237 104.63 14.94a35.23 35.23 0 0 0 6.501.617c15.928 0 27.641-11.431 31.464-24.194 4.023-13.431-.159-30.433-18.536-38.213l-.079-.035c-.023-.01-.045-.022-.069-.031-.102-.043-.204-.072-.307-.11s-.202-.082-.309-.116c-24.271-7.753-44.268-14.722-61.912-20.87-57.847-20.157-88.331-30.763-142.87-23.149v-6.272a7.501 7.501 0 0 0-7.502-7.502h-22.499v-7.498a7.501 7.501 0 0 0-7.502-7.502H7.507a7.501 7.501 0 0 0-7.502 7.502v164.99a7.502 7.502 0 1 0 15.004 0v-157.49h77.702v180H77.715v-7.498c0-4.144-3.358-7.502-7.502-7.502s-7.502 3.358-7.502 7.502v7.498H7.507c-4.144 0-7.502 3.358-7.502 7.502s3.358 7.502 7.502 7.502h92.706a7.501 7.501 0 0 0 7.502-7.502V443.4h22.499a7.502 7.502 0 0 0 7.502-7.502v-5.301c31.388 6.782 133.54 28.184 172.5 28.184 20.502 0 56.856-18.267 111.14-55.841 39.147-27.099 73.223-54.566 73.562-54.84.208-.168.406-.347.595-.535 16.298-16.32 20.849-35.022 12.175-50.026zM122.71 421.16V428.403h-14.996v-149.62h14.997v142.38zM420.31 53.223H190.25c-15.167 0-27.507 12.34-27.507 27.507v130.04c0 15.167 12.34 27.507 27.507 27.507h230.06c15.167 0 27.507-12.34 27.507-27.507V80.73c0-15.167-12.341-27.507-27.507-27.507zM177.75 80.73c0-6.895 5.608-12.503 12.503-12.503h230.06c6.894 0 12.503 5.608 12.503 12.503v2.504h-255.06V80.73zm255.06 130.04c0 6.894-5.608 12.503-12.503 12.503h-230.06c-6.895 0-12.503-5.608-12.503-12.503v-72.514h255.06v72.514zm-255.06-87.518V98.24h255.06v25.012H177.75z"/><path d="M270.28 173.26h-70.021c-4.144 0-7.502 3.358-7.502 7.502s3.358 7.502 7.502 7.502h70.021c4.144 0 7.502-3.358 7.502-7.502s-3.358-7.502-7.502-7.502zM410.31 173.26h-20.005c-4.144 0-7.502 3.358-7.502 7.502s3.358 7.502 7.502 7.502h20.005c4.143 0 7.502-3.358 7.502-7.502s-3.358-7.502-7.502-7.502z"/></svg>