<svg viewBox="0 0 480.01 480.01" xmlns="http://www.w3.org/2000/svg" fill="#fff"><path d="M283.77 336.93l-136-72a8.047 8.047 0 0 0-7.488 0l-36.28 19.2v-148.3a40.193 40.193 0 0 0 15.608-26.304 55.416 55.416 0 0 0 16.392 2.48c30.928 0 56-25.072 56-56s-25.072-56-56-56-56 25.072-56 56c0 2.677.19 5.35.568 8h-.568c-22.08.026-39.974 17.92-40 40 .028 2.691.337 5.372.92 8h-.92a8 8 0 0 0-8 8v202.24L4.258 336.934a8 8 0 0 0 3.744 15.072h16v120a8 8 0 0 0 8 8h224a8 8 0 0 0 8-8v-120h16a8 8 0 0 0 7.768-6.072 8 8 0 0 0-4-9zM80.07 80.07c2.958.008 5.889.563 8.645 1.637A8 8 0 0 0 99.01 71.203c-8.536-20.529 1.186-44.091 21.714-52.627 20.529-8.536 44.091 1.185 52.627 21.714s-1.185 44.091-21.714 52.627a40.256 40.256 0 0 1-36.299-2.73 8 8 0 0 0-11.952 8.6 22.283 22.283 0 0 1-1.88 15.448 7.998 7.998 0 0 0-5.504-2.232H57.659a22.76 22.76 0 0 1-1.656-8c.037-13.255 10.812-23.97 24.067-23.933zm-32.067 47.933h40v164.59l-40 21.176v-185.77zm152 336h-112v-64h112v64zm48-120v120h-32v-72a8 8 0 0 0-8-8h-128a8 8 0 0 0-8 8v72h-32v-120a8 8 0 0 0-3.04-6.28l107.04-56.664 107.04 56.664a8 8 0 0 0-3.04 6.28z"/><path d="M480.01 128V96a7.99 7.99 0 0 0-.8-3.576l-24-48a8 8 0 0 0-7.2-4.424h-35.512l-4.56-33.096A8 8 0 0 0 400.01 0h-48a8 8 0 0 0-7.928 6.904L339.522 40H304.01a8 8 0 0 0-7.2 4.424l-24 48a7.99 7.99 0 0 0-.8 3.576v32h16v-24h42.68l-50.608 366.9a8 8 0 0 0 7.928 9.096h176a8 8 0 0 0 7.928-9.096L421.33 104h42.68v24h16zm-84.8-96.408L396.346 40h-6.208l5.072-8.408zm-19.32 152.41l-32.992.496 33.112-43.328 33.112 43.336-33.232-.504zm.12 24.08l51.032 88.96-51.2-1.04-50.864 1.04 51.032-88.96zm-37.408-44.312l3.808-27.768h17.392l-21.2 27.768zm53.592-27.768h17.416l3.808 27.768-21.224-27.768zm-47.552-16l2.208-16h58.32l2.208 16h-62.736zm8.448-32l23.456-28.152 28.152 28.152H353.09zm32.792-72l-9.872 16.456-9.872-16.456h19.744zM356.81 31.594l5.072 8.408h-6.208l1.136-8.408zm-63.856 56.408l12.024-24.088 16.088 24.088h-28.112zm26.008-32h40l-22.24 26.648-17.76-26.648zm14.552 144.64l28.568-.432-37.528 65.392 8.96-64.96zm-15.52 112.54l44.656-.912-60.448 115.4 15.792-114.49zm-16.76 150.82l74.776-142.76 74.776 142.76h-149.55zm148.58-36.328l-60.44-115.39 44.648.912 15.792 114.48zm-22.352-162.05l-37.52-65.416 28.56.432 8.96 64.984zm-5.648-183.13l-26.496-26.496h39.744l-13.248 26.496zm15.16 5.504l11.032-22.112 11.056 22.112h-22.088z"/><path d="M192.01 200a8 8 0 0 0-8 8v64h16v-56h96v-16h-104zM104.01 352h80v16h-80z"/></svg>