<svg viewBox="0 0 480 480" xmlns="http://www.w3.org/2000/svg" fill="#fff"><path d="M152 239.99h-32v-32a8 8 0 0 0-8-8H80a8 8 0 0 0-8 8v32H40a8 8 0 0 0-8 8v32a8 8 0 0 0 8 8h32v32a8 8 0 0 0 8 8h32a8 8 0 0 0 8-8v-32h32a8 8 0 0 0 8-8v-32a8 8 0 0 0-8-8zm-8 32h-32a8 8 0 0 0-8 8v32H88v-32a8 8 0 0 0-8-8H48v-16h32a8 8 0 0 0 8-8v-32h16v32a8 8 0 0 0 8 8h32v16z"/><path d="M403.4 176.79a7.832 7.832 0 0 0-3.4-.8H88c-48.577.057-87.943 39.423-88 88v96c.046 48.601 39.481 87.963 88.082 87.918 36.23-.034 68.736-22.269 81.902-56.022 22.617-.954 41.494-17.58 45.296-39.896h49.44c3.802 22.316 22.679 38.942 45.296 39.896 17.661 45.279 68.684 67.667 113.96 50.006 33.753-13.166 55.988-45.672 56.022-81.902v-96c.152-44.24-32.709-81.648-76.6-87.2zM199.79 348.44c-1.899 16.011-15.671 27.947-31.79 27.551a22.693 22.693 0 0 1-2.912-.208c-17.133-2.032-29.375-17.569-27.343-34.702s17.569-29.375 34.702-27.343 29.375 17.569 27.343 34.702zM312 375.991c-17.673 0-32-14.327-32-32-.038-17.673 14.258-32.031 31.931-32.069S343.962 326.18 344 343.853c.036 16.722-12.81 30.652-29.48 31.969-.835.113-1.677.169-2.52.169zm152-16c.025 39.764-32.191 72.02-71.956 72.044-28.297.017-53.981-16.542-65.644-42.324a47.787 47.787 0 0 0 7.032-2.864l.208-.128a48.16 48.16 0 0 0 6.752-4.224c.728-.536 1.368-1.168 2.064-1.744a49.04 49.04 0 0 0 4.04-3.68c.728-.76 1.376-1.6 2.056-2.4a47.33 47.33 0 0 0 3.08-4 43.492 43.492 0 0 0 1.72-2.728c.857-1.477 1.634-3 2.328-4.56.432-.96.872-1.904 1.248-2.896a48.854 48.854 0 0 0 1.6-5.376c.216-.888.496-1.744.664-2.648.525-2.794.795-5.629.808-8.472-.026-26.499-21.501-47.974-48-48a48.564 48.564 0 0 0-8.056.728c-.32.056-.64.088-.96.152a48.266 48.266 0 0 0-7.2 1.992l-1.184.44a48.54 48.54 0 0 0-6.536 3.136l-1.04.632a48.282 48.282 0 0 0-5.96 4.264c-.208.176-.392.368-.592.544a47.454 47.454 0 0 0-5.344 5.416l-.088.104a48.538 48.538 0 0 0-4.352 6.256c-.16.28-.344.544-.504.8a46.653 46.653 0 0 0-3.08 6.664c-.152.392-.296.8-.432 1.176a46.79 46.79 0 0 0-1.88 7.16c0 .176-.104.328-.136.504h-49.32c0-.176-.104-.328-.136-.504a46.79 46.79 0 0 0-1.88-7.16c-.136-.4-.28-.8-.432-1.176a46.653 46.653 0 0 0-3.08-6.664c-.16-.288-.344-.552-.504-.8a48.538 48.538 0 0 0-4.352-6.256l-.088-.104a47.454 47.454 0 0 0-5.344-5.416c-.2-.176-.384-.368-.592-.544a48.282 48.282 0 0 0-5.96-4.264l-1.04-.632a48.54 48.54 0 0 0-6.536-3.136l-1.184-.44a48.266 48.266 0 0 0-7.2-1.992c-.32-.064-.64-.096-.96-.152a48.586 48.586 0 0 0-8.048-.728c-26.499.026-47.974 21.501-48 48 .01 2.84.278 5.673.8 8.464.168.92.456 1.792.68 2.696a48.59 48.59 0 0 0 1.552 5.288c.392 1.048.856 2.04 1.312 3.048a47.153 47.153 0 0 0 2.192 4.304c.6 1.056 1.24 2.064 1.92 3.064.8 1.208 1.72 2.4 2.656 3.496.8 1.008 1.656 2 2.568 2.944s1.912 1.8 2.912 2.672 2.096 1.904 3.248 2.744c.88.64 1.848 1.168 2.776 1.752a46.968 46.968 0 0 0 8.056 4.064c.976.384 1.904.864 2.904 1.184-16.419 36.217-59.088 52.266-95.305 35.847-25.736-11.667-42.268-37.31-42.271-65.567v-96c.044-39.746 32.254-71.956 72-72h304c2.464 0 4.864.144 7.264.368 36.833 3.589 64.881 34.625 64.736 71.632v96z"/><path d="M168 319.99c-13.255 0-24 10.745-24 24s10.745 24 24 24 24-10.745 24-24-10.745-24-24-24zm0 32a8 8 0 1 1 0-16 8 8 0 0 1 0 16zM312 319.99c-13.255 0-24 10.745-24 24s10.745 24 24 24 24-10.745 24-24-10.745-24-24-24zm0 32a8 8 0 1 1 0-16 8 8 0 0 1 0 16zM384 247.99c13.255 0 24-10.745 24-24s-10.745-24-24-24-24 10.745-24 24 10.745 24 24 24zm0-32a8 8 0 1 1 0 16 8 8 0 0 1 0-16zM368 263.99c0-13.255-10.745-24-24-24s-24 10.745-24 24 10.745 24 24 24 24-10.745 24-24zm-24 8a8 8 0 1 1 0-16 8 8 0 0 1 0 16zM424 239.99c-13.255 0-24 10.745-24 24s10.745 24 24 24 24-10.745 24-24-10.745-24-24-24zm0 32a8 8 0 1 1 0-16 8 8 0 0 1 0 16zM384 279.99c-13.255 0-24 10.745-24 24s10.745 24 24 24 24-10.745 24-24-10.745-24-24-24zm0 32a8 8 0 1 1 0-16 8 8 0 0 1 0 16zM224 271.99h-16a8 8 0 0 0 0 16h16a8 8 0 0 0 0-16zM272 271.99h-16a8 8 0 0 0 0 16h16a8 8 0 0 0 0-16zM143.64 88.022c.067-.064.132-.13.197-.197 53.154-53.012 139.18-53.012 192.34 0a8 8 0 0 0 11.312-11.312c-59.4-59.262-155.56-59.262-214.96 0a8 8 0 0 0 11.115 11.509z"/><path d="M319.2 112.79a8 8 0 0 0 5.656-13.656c-46.884-46.804-122.81-46.804-169.7 0a8 8 0 0 0 11.312 11.312c40.638-40.553 106.43-40.553 147.07 0a8 8 0 0 0 5.656 2.344z"/><path d="M296.57 135.42a8 8 0 0 0 5.656-13.656c-34.388-34.311-90.06-34.311-124.45 0a8 8 0 0 0 11.312 11.312c28.134-28.078 73.69-28.078 101.82 0a8 8 0 0 0 5.656 2.344z"/><path d="M200.4 144.4l-.004.004a8 8 0 1 0 11.312 11.312c15.619-15.623 40.946-15.626 56.569-.007l.008.007a8 8 0 0 0 11.312-11.312c-21.869-21.87-57.326-21.872-79.197-.004z"/></svg>