<svg viewBox="0 0 158 212" xmlns="http://www.w3.org/2000/svg" xmlns:xlink="http://www.w3.org/1999/xlink"><defs><path id="a" d="M.747.988h29.707v29.706H.747z"/></defs><g fill="none" fill-rule="evenodd"><path d="M.005 52.765s-1.5 31.812 45.67 78.124c47.168 46.312 52.53 65.123 49.956 78.123h34.305s3.118-53.743-50.055-91.48c0 0-36.604-32.554-42.569-58.402 0 0-18.019-.01-30.556-10.093 0 0-6.76-4.054-6.75 3.728" fill="#036"/><path d="M73.02 126.244c9.473 6.722 17.129 13.958 23.365 21.31 4.549-4.853 9.64-10.059 15.358-15.673 47.169-46.312 45.669-79.116 45.669-79.116.009-7.783-6.752-3.48-6.752-3.48-12.537 10.084-30.555 10.341-30.555 10.341-5.965 25.848-42.57 58.9-42.57 58.9-2.478 1.758-4.795 3.563-7.034 5.39a137.149 137.149 0 0 0 2.52 2.328M72.568 176.49c-6.087-7.87-14.206-17.085-24.946-28.06-21.902 31.477-20.143 62.582-20.143 62.582h34.305c-1.522-8-.262-18.123 10.784-34.522M61.432 62.012h33.99s4.44-.625 3.358 5.255c-1.54 8.362-19.89 25.306-19.89 25.306S65.477 80.116 59.5 68.414c0 0-2.413-6.402 1.932-6.402M138.335 26.86c0 8.203-6.65 14.853-14.853 14.853s-14.853-6.65-14.853-14.853c0-8.204 6.65-14.854 14.853-14.854s14.853 6.65 14.853 14.854M50.857 26.86c0 8.203-6.65 14.853-14.853 14.853S21.15 35.063 21.15 26.86c0-8.204 6.651-14.854 14.854-14.854s14.853 6.65 14.853 14.854" fill="#036"/><g transform="translate(65 -.988)"><mask id="b" fill="#fff"><use xlink:href="#a"/></mask><path d="M30.454 15.841c0 8.203-6.65 14.853-14.853 14.853S.747 24.044.747 15.841C.747 7.637 7.397.987 15.6.987c8.203 0 14.853 6.65 14.853 14.854" fill="#036" mask="url(#b)"/></g></g></svg>